<svg viewBox="0 0 330 200" xmlns="http://www.w3.org/2000/svg"><g><g><g><g><g><line x1="61.91500186920166" y1="176.89999961853027" x2="56.91500186920166" y2="176.89999961853027" style="visibility: inherit;" fill="rgb(0, 0, 0)" stroke="rgb(204, 204, 204)" stroke-width="1px"></line><line x1="61.91500186920166" y1="160.81818147139117" x2="56.91500186920166" y2="160.81818147139117" style="visibility: inherit;" fill="rgb(0, 0, 0)" stroke="rgb(204, 204, 204)" stroke-width="1px"></line><line x1="61.91500186920166" y1="144.73636332425204" x2="56.91500186920166" y2="144.73636332425204" style="visibility: inherit;" fill="rgb(0, 0, 0)" stroke="rgb(204, 204, 204)" stroke-width="1px"></line><line x1="61.91500186920166" y1="128.65454517711294" x2="56.91500186920166" y2="128.65454517711294" style="visibility: inherit;" fill="rgb(0, 0, 0)" stroke="rgb(204, 204, 204)" stroke-width="1px"></line><line x1="61.91500186920166" y1="112.5727270299738" x2="56.91500186920166" y2="112.5727270299738" style="visibility: inherit;" fill="rgb(0, 0, 0)" stroke="rgb(204, 204, 204)" stroke-width="1px"></line><line x1="61.91500186920166" y1="96.4909088828347" x2="56.91500186920166" y2="96.4909088828347" style="visibility: inherit;" fill="rgb(0, 0, 0)" stroke="rgb(204, 204, 204)" stroke-width="1px"></line><line x1="61.91500186920166" y1="80.40909073569557" x2="56.91500186920166" y2="80.40909073569557" style="visibility: inherit;" fill="rgb(0, 0, 0)" stroke="rgb(204, 204, 204)" stroke-width="1px"></line><line x1="61.91500186920166" y1="64.32727258855647" x2="56.91500186920166" y2="64.32727258855647" style="visibility: inherit;" fill="rgb(0, 0, 0)" stroke="rgb(204, 204, 204)" stroke-width="1px"></line><line x1="61.91500186920166" y1="48.245454441417344" x2="56.91500186920166" y2="48.245454441417344" style="visibility: inherit;" fill="rgb(0, 0, 0)" stroke="rgb(204, 204, 204)" stroke-width="1px"></line><line x1="61.91500186920166" y1="32.163636294278206" x2="56.91500186920166" y2="32.163636294278206" style="visibility: inherit;" fill="rgb(0, 0, 0)" stroke="rgb(204, 204, 204)" stroke-width="1px"></line><line x1="61.91500186920166" y1="16.081818147139142" x2="56.91500186920166" y2="16.081818147139142" style="visibility: inherit;" fill="rgb(0, 0, 0)" stroke="rgb(204, 204, 204)" stroke-width="1px"></line><line x1="61.91500186920166" y1="0" x2="56.91500186920166" y2="0" style="visibility: inherit;" fill="rgb(0, 0, 0)" stroke="rgb(204, 204, 204)" stroke-width="1px"></line></g><g transform="translate(51.91500186920166, 0)"><text style="text-anchor: end; visibility: hidden; font-family: Roboto, sans-serif; font-size: 12px; font-weight: 200;" x="0" y="176.89999961853027" dx="0em" dy="0.3em" fill="rgb(255, 255, 255)" stroke="none" stroke-width="1px">0.016</text><text style="text-anchor: end; visibility: inherit; font-family: Roboto, sans-serif; font-size: 12px; font-weight: 200;" x="0" y="160.81818147139117" dx="0em" dy="0.3em" fill="rgb(255, 255, 255)" stroke="none" stroke-width="1px">0.018</text><text style="text-anchor: end; visibility: hidden; font-family: Roboto, sans-serif; font-size: 12px; font-weight: 200;" x="0" y="144.73636332425204" dx="0em" dy="0.3em" fill="rgb(255, 255, 255)" stroke="none" stroke-width="1px">0.02</text><text style="text-anchor: end; visibility: inherit; font-family: Roboto, sans-serif; font-size: 12px; font-weight: 200;" x="0" y="128.65454517711294" dx="0em" dy="0.3em" fill="rgb(255, 255, 255)" stroke="none" stroke-width="1px">0.022</text><text style="text-anchor: end; visibility: hidden; font-family: Roboto, sans-serif; font-size: 12px; font-weight: 200;" x="0" y="112.5727270299738" dx="0em" dy="0.3em" fill="rgb(255, 255, 255)" stroke="none" stroke-width="1px">0.024</text><text style="text-anchor: end; visibility: inherit; font-family: Roboto, sans-serif; font-size: 12px; font-weight: 200;" x="0" y="96.4909088828347" dx="0em" dy="0.3em" fill="rgb(255, 255, 255)" stroke="none" stroke-width="1px">0.026</text><text style="text-anchor: end; visibility: hidden; font-family: Roboto, sans-serif; font-size: 12px; font-weight: 200;" x="0" y="80.40909073569557" dx="0em" dy="0.3em" fill="rgb(255, 255, 255)" stroke="none" stroke-width="1px">0.028</text><text style="text-anchor: end; visibility: inherit; font-family: Roboto, sans-serif; font-size: 12px; font-weight: 200;" x="0" y="64.32727258855647" dx="0em" dy="0.3em" fill="rgb(255, 255, 255)" stroke="none" stroke-width="1px">0.03</text><text style="text-anchor: end; visibility: hidden; font-family: Roboto, sans-serif; font-size: 12px; font-weight: 200;" x="0" y="48.245454441417344" dx="0em" dy="0.3em" fill="rgb(255, 255, 255)" stroke="none" stroke-width="1px">0.032</text><text style="text-anchor: end; visibility: inherit; font-family: Roboto, sans-serif; font-size: 12px; font-weight: 200;" x="0" y="32.163636294278206" dx="0em" dy="0.3em" fill="rgb(255, 255, 255)" stroke="none" stroke-width="1px">0.034</text><text style="text-anchor: end; visibility: hidden; font-family: Roboto, sans-serif; font-size: 12px; font-weight: 200;" x="0" y="16.081818147139142" dx="0em" dy="0.3em" fill="rgb(255, 255, 255)" stroke="none" stroke-width="1px">0.036</text><text style="text-anchor: end; visibility: hidden; font-family: Roboto, sans-serif; font-size: 12px; font-weight: 200;" x="0" y="0" dx="0em" dy="0.3em" fill="rgb(255, 255, 255)" stroke="none" stroke-width="1px">0.038</text></g><line x1="61.91500186920166" y1="0" x2="61.91500186920166" y2="176.89999961853027" fill="rgb(0, 0, 0)" stroke="rgb(204, 204, 204)" stroke-width="1px"></line></g></g><g transform="translate(61, 0)" clip-path="url(#clip_0)"><clipPath id="clip_0"><rect width="268" height="176"></rect></clipPath><g><g><g><line x1="0" y1="0" x2="0" y2="176.89999961853027" fill="rgb(0, 0, 0)" stroke="rgb(189, 189, 189)" stroke-width="1px" opacity="0.25"></line><line x1="19.148928437914165" y1="0" x2="19.148928437914165" y2="176.89999961853027" fill="rgb(0, 0, 0)" stroke="rgb(189, 189, 189)" stroke-width="1px" opacity="0.25"></line><line x1="38.29785687582833" y1="0" x2="38.29785687582833" y2="176.89999961853027" fill="rgb(0, 0, 0)" stroke="rgb(189, 189, 189)" stroke-width="1px" opacity="0.25"></line><line x1="57.446785313742495" y1="0" x2="57.446785313742495" y2="176.89999961853027" fill="rgb(0, 0, 0)" stroke="rgb(189, 189, 189)" stroke-width="1px" opacity="0.25"></line><line x1="76.59571375165666" y1="0" x2="76.59571375165666" y2="176.89999961853027" fill="rgb(0, 0, 0)" stroke="rgb(189, 189, 189)" stroke-width="1px" opacity="0.25"></line><line x1="95.74464218957084" y1="0" x2="95.74464218957084" y2="176.89999961853027" fill="rgb(0, 0, 0)" stroke="rgb(189, 189, 189)" stroke-width="1px" opacity="0.25"></line><line x1="114.89357062748499" y1="0" x2="114.89357062748499" y2="176.89999961853027" fill="rgb(0, 0, 0)" stroke="rgb(189, 189, 189)" stroke-width="1px" opacity="0.25"></line><line x1="134.04249906539917" y1="0" x2="134.04249906539917" y2="176.89999961853027" fill="rgb(0, 0, 0)" stroke="rgb(189, 189, 189)" stroke-width="1px" opacity="0.25"></line><line x1="153.19142750331332" y1="0" x2="153.19142750331332" y2="176.89999961853027" fill="rgb(0, 0, 0)" stroke="rgb(189, 189, 189)" stroke-width="1px" opacity="0.25"></line><line x1="172.34035594122753" y1="0" x2="172.34035594122753" y2="176.89999961853027" fill="rgb(0, 0, 0)" stroke="rgb(189, 189, 189)" stroke-width="1px" opacity="0.25"></line><line x1="191.48928437914168" y1="0" x2="191.48928437914168" y2="176.89999961853027" fill="rgb(0, 0, 0)" stroke="rgb(189, 189, 189)" stroke-width="1px" opacity="0.25"></line><line x1="210.63821281705583" y1="0" x2="210.63821281705583" y2="176.89999961853027" fill="rgb(0, 0, 0)" stroke="rgb(189, 189, 189)" stroke-width="1px" opacity="0.25"></line><line x1="229.78714125496998" y1="0" x2="229.78714125496998" y2="176.89999961853027" fill="rgb(0, 0, 0)" stroke="rgb(189, 189, 189)" stroke-width="1px" opacity="0.25"></line><line x1="248.9360696928842" y1="0" x2="248.9360696928842" y2="176.89999961853027" fill="rgb(0, 0, 0)" stroke="rgb(189, 189, 189)" stroke-width="1px" opacity="0.25"></line><line x1="268.08499813079834" y1="0" x2="268.08499813079834" y2="176.89999961853027" fill="rgb(0, 0, 0)" stroke="rgb(189, 189, 189)" stroke-width="1px" opacity="0.25"></line></g><g><line x1="0" y1="176.89999961853027" x2="268.08499813079834" y2="176.89999961853027" fill="rgb(0, 0, 0)" stroke="rgb(189, 189, 189)" stroke-width="1px" opacity="0.25"></line><line x1="0" y1="160.81818147139117" x2="268.08499813079834" y2="160.81818147139117" fill="rgb(0, 0, 0)" stroke="rgb(189, 189, 189)" stroke-width="1px" opacity="0.25"></line><line x1="0" y1="144.73636332425204" x2="268.08499813079834" y2="144.73636332425204" fill="rgb(0, 0, 0)" stroke="rgb(189, 189, 189)" stroke-width="1px" opacity="0.25"></line><line x1="0" y1="128.65454517711294" x2="268.08499813079834" y2="128.65454517711294" fill="rgb(0, 0, 0)" stroke="rgb(189, 189, 189)" stroke-width="1px" opacity="0.25"></line><line x1="0" y1="112.5727270299738" x2="268.08499813079834" y2="112.5727270299738" fill="rgb(0, 0, 0)" stroke="rgb(189, 189, 189)" stroke-width="1px" opacity="0.25"></line><line x1="0" y1="96.4909088828347" x2="268.08499813079834" y2="96.4909088828347" fill="rgb(0, 0, 0)" stroke="rgb(189, 189, 189)" stroke-width="1px" opacity="0.25"></line><line x1="0" y1="80.40909073569557" x2="268.08499813079834" y2="80.40909073569557" fill="rgb(0, 0, 0)" stroke="rgb(189, 189, 189)" stroke-width="1px" opacity="0.25"></line><line x1="0" y1="64.32727258855647" x2="268.08499813079834" y2="64.32727258855647" fill="rgb(0, 0, 0)" stroke="rgb(189, 189, 189)" stroke-width="1px" opacity="0.25"></line><line x1="0" y1="48.245454441417344" x2="268.08499813079834" y2="48.245454441417344" fill="rgb(0, 0, 0)" stroke="rgb(189, 189, 189)" stroke-width="1px" opacity="0.25"></line><line x1="0" y1="32.163636294278206" x2="268.08499813079834" y2="32.163636294278206" fill="rgb(0, 0, 0)" stroke="rgb(189, 189, 189)" stroke-width="1px" opacity="0.25"></line><line x1="0" y1="16.081818147139142" x2="268.08499813079834" y2="16.081818147139142" fill="rgb(0, 0, 0)" stroke="rgb(189, 189, 189)" stroke-width="1px" opacity="0.25"></line><line x1="0" y1="0" x2="268.08499813079834" y2="0" fill="rgb(0, 0, 0)" stroke="rgb(189, 189, 189)" stroke-width="1px" opacity="0.25"></line></g></g></g><g><g><line x1="0" y1="305.5545447956432" x2="268.08499813079834" y2="305.5545447956432" fill="rgb(0, 0, 0)" stroke="rgb(153, 153, 153)" stroke-width="1.5px"></line></g></g><g><g><line x1="19.148928437914165" y1="0" x2="19.148928437914165" y2="176.89999961853027" fill="rgb(0, 0, 0)" stroke="rgb(153, 153, 153)" stroke-width="1.5px"></line></g></g><g><g><g><g><g><path style="fill: none;" stroke="rgb(51, 187, 238)" stroke-width="2px" d="M19.321268793855396,154.9977907909795L19.70424736261368,60.80905305878482L19.89573664699282,49.59209775017543L20.08722593137196,89.13707522128618L20.661693784509385,22.018442750323825L21.04467235326767,59.61674448711306L21.23616163764681,89.70746365215089L21.427650922025954,97.89386373095017L22.002118775163378,108.9979628966013L22.19360805954252,116.7687478775274L22.38509734392166,112.5327958208247L22.576586628300802,120.38365527954849L22.768075912679944,120.409995712345L22.95956519705909,127.92560405747344L23.151054481438226,135.0104128252856L23.534033050196513,141.20163180020947L23.72552233457565,145.96434953647437L24.12764983177185,149.92937008759893L24.319139116150993,154.56340135918038L24.510628400530134,145.85759174696227L24.702117684909275,150.1771354518581L24.893606969288417,155.64298594202108L25.085096253667558,159.5763093869732L25.276585538046703,146.82504999501703L25.46807482242584,144.99793090369093L25.659564106804982,146.30468618878564L25.851053391184127,149.60333947988266L26.234031959942406,151.70514664841295L26.42552124432155,155.47071080894943L26.617010528700693,149.14970109056569L26.808499813079834,144.3155162242132L26.999989097458975,146.77598368515572L27.38296766621726,139.20488907298991L27.5744569505964,141.88722312128098L28.148924803733824,140.81773454450106L28.34041408811297,140.20316463989607L28.53190337249211,132.76468165058117L28.723392656871248,131.59839756314665L28.934030869688307,133.3303890669307L29.12552015406745,135.0634988452616L29.31700943844659,136.2337264836708L29.50849872282573,135.56671964798798L29.699988007204873,137.67845135246398L29.891477291584014,131.70226814045375L30.2744558603423,133.6241122550714L30.46594514472144,133.98506475837266L30.848923713479724,135.7138112897855L31.040412997858866,133.74044514018055L31.231902282238007,132.89431589636877L31.42339156661715,123.9219433928261L31.80637013537543,125.19364419465629L31.997859419754572,127.98992600205439L32.189348704133714,127.33081454893926L32.38083798851286,128.8238825529074L32.76381655727114,129.57837578659806L32.95530584165028,131.04155270619006L33.146795126029424,130.22525200038393L33.33828441040857,130.41510943160182L33.740411907604766,128.98737678870611L34.12339047636304,129.81634691079248L34.31487976074219,131.81307128214223L34.50636904512133,130.68814406185476L34.69785832950047,131.53618809945687L34.889347613879615,133.5469927195602L35.08083689825876,134.60867094877023L35.27232618263789,134.69004865893507L35.463815467017035,136.4595740073289L35.65530475139618,138.31333965010313L35.84679403577532,138.93027774716558L36.03828332015446,131.98560428583423L36.22977260453361,133.4441314507492L36.42126188891275,135.34694013314908L36.61275117329188,134.47278292302545L36.99572974205017,134.97898481866054L37.378708310808456,135.57159496551L37.5701975951876,136.58238032750094L37.76168687956673,136.76585593190939L38.33615473270416,132.9439214587134L38.54679294552122,132.37319846101343L38.738282229900356,131.55733731150866L39.121260798658646,131.8891505889249L39.312750083037784,133.100667762945L39.69572865179607,134.25178265681552L39.88721793617521,135.34112123188848L40.07870722055435,136.72926946230905L40.270196504933494,137.24172005153096L40.46168578931264,138.09667438896744L40.65317507369178,139.13072530079035L40.84466435807092,140.1226136692364L41.2276429268292,140.03853543927576L41.41913221120834,140.32512303815807L41.61062149558749,141.00945744971656L41.802110779966625,137.56450791913977L41.99360006434577,133.79844748612865L42.18508934872491,132.89228569381893L42.37657863310405,134.35758531555405L42.56806791748319,133.2912081175629L42.759557201862336,134.7537765250424L42.95104648624148,135.70609680683L43.35317398343768,137.00429661391215L43.544663267816816,137.9993709889397L43.73615255219596,138.16776331797388L43.927641836575106,139.01783150219092L44.119131120954236,138.5403296828659L44.31062040533338,139.4583148751272L44.502109689712526,140.68812456702827L44.693598974091664,132.7446775043048L45.076577542849954,133.57136481818748L45.45955611160823,133.74106253777134L45.651045395987374,133.1244991913314L45.84253468036652,134.4081086751829L46.03402396474566,135.0772934428154L46.2255132491248,134.896115385487L46.41700253350395,136.20201583037687L46.79998110226222,137.2500677693049L46.99147038664137,137.7680036322172L47.182959671020505,137.62227100513815L47.37444895539965,137.75366619672627L47.565938239778795,138.0638769385202L47.75742752415793,138.84887261052214L48.15955502135413,139.46624691868786L48.54253359011241,139.67824608369475L48.73402287449155,140.3355934462248L48.925512158870696,139.04270396239073L49.308490727628985,135.6831996744629L49.49998001200812,135.07950080398575L49.69146929638726,134.17270057324077L49.882958580766406,134.63193902011113L50.074447865145544,135.3039422704407L50.26593714952469,135.93528675559085L50.457426433903834,136.0525222483339L50.64891571828297,136.74462691995137L50.840405002662116,137.34766302012795L51.031894287041254,136.61589010771985L51.22338357142039,137.10088481111097L51.60636214017868,137.5018259166981L51.79785142455783,137.9692789410039L51.989340708936965,138.21855942301096L52.18082999331611,138.58950243887122L52.37231927769525,139.1720240078274L52.75529784645353,139.31386467661514L52.96593605927058,140.37107757095163L53.15742534364973,140.27506180569551L53.34891462802887,140.096737573088L53.54040391240801,140.85681995214213L53.9233824811663,141.8667391064685L54.11487176554543,142.6678150161001L54.306361049924575,142.3825636315143L54.49785033430372,142.91059990164507L54.68933961868286,143.57457352178335L54.880828903062,143.87255697762697L55.07231818744115,143.911012949958L55.64678604057857,144.29131762981228L55.83827532495771,145.1555448817201L56.02976460933685,146.0995526003708L56.221253893715996,145.94734185123266L56.41274317809514,145.36291696820854L56.79572174685342,145.81217364631556L57.1787003156117,140.22995015831393L57.370189599990844,140.8056302245036L57.56167888436999,140.94347100750116L57.77231709718704,140.65908210960492L58.155295665945324,140.68562713588284L58.34678495032447,141.50700776085554L58.53827423470361,141.76631836978314L58.72976351908275,141.1674628854186L58.92125280346189,141.16232743882898L59.112742087841035,141.83636146732152L59.30423137222018,142.04604864241827L59.49572065659932,142.61750751414553L59.687209940978455,142.91788422577918L59.8786992253576,143.6988880549163L60.26167779411588,144.06914234197814L60.45316707849503,143.930752232415L60.644656362874166,144.34156237478837L60.83614564725331,144.65247191165892L61.21912421601159,144.97481856022907L61.41061350039073,145.17857414642214L61.602102784769876,144.61232071383304L61.79359206914902,144.5877388004353L61.98508135352816,145.1688894115527L62.176570637907304,138.78695194051775L62.36805992228644,139.54420691207682L62.5786981351035,138.25677928505428L62.770187419482646,137.73358125181818L63.34465527262007,137.9771406868671L63.536144556999204,137.58698312041435L63.72763384137835,137.62745512763297L63.919123125757494,138.00056276642042L64.11061241013662,138.73774210628866L64.30210169451577,138.80483767914095L64.49359097889491,138.99927065046725L64.68508026327406,139.45026885209538L64.87656954765319,139.82156477548975L65.06805883203234,139.48307539556447L65.25954811641148,140.13365422227983L65.64252668516977,140.6211187773006L65.83401596954891,140.29068465359887L66.21699453830719,140.61896001032454L66.40848382268634,141.1608321814211L66.59997310706547,140.02911067961386L66.79146239144461,140.28986934335978L66.98295167582376,140.1370949564788L67.1744409602029,138.84136230476614L67.76805774177824,139.41991423328327L67.95954702615738,139.46230307148534L68.15103631053653,139.2847499860064L68.34252559491567,139.5482957455841L68.72550416367395,140.00902886836326L68.91699344805309,140.0661637244634L69.10848273243222,140.50863596985266L69.29997201681137,136.56593017820575L69.68295058556966,136.1003168495256L69.87443986994879,135.66802540950528L70.25741843870708,135.99693561610567L70.64039700746537,136.58354197169177L70.83188629184451,135.07755133812202L71.21486486060279,135.51459694709985L71.40635414498193,136.1884919944435L71.78933271374021,136.60157270803782L71.98082199811935,136.5185734476996L72.19146021093641,136.8331634058114L72.38294949531556,134.25887072144175L72.76592806407383,134.61161179654798L72.95741734845298,134.19860795906922L73.14890663283212,134.16443053383136L73.34039591721127,133.6226015159382L73.5318852015904,133.36532740582555L73.72337448596954,132.83934162232123L73.91486377034867,132.26825412941812L74.10635305472782,132.7215278336939L74.29784233910696,132.68873866489304L74.48933162348611,132.85368265076622L74.68082090786525,133.17286619407486L74.8723101922444,133.50920001851622L75.06379947662354,133.88368841710567L75.25528876100267,133.99371681134284L76.02124589851925,132.96498633842972L76.21273518289838,133.18265584356837L76.40422446727752,133.87214548527288L76.59571375165666,134.30064495580535L76.7872030360358,134.6727382254384L76.99784124885286,134.74245109082764L77.18933053323201,134.62416655308974L77.5723091019903,134.95430927269038L77.76379838636944,134.43201155770277L77.95528767074856,134.4103996848866L78.1467769551277,134.35018440209265L78.33826623950685,133.72982804002723L78.529755523886,134.2855230700326L78.72124480826514,134.2688716750641L79.10422337702343,134.74728639526788L79.29571266140256,133.86401868818066L79.4872019457817,134.30421841570234L79.67869123016085,134.57231153783763L79.87018051454,134.23590075339902L80.06166979891914,134.44121771570295L80.4446483676774,134.91628590660352L80.63613765205655,134.9854943663738L80.82762693643569,134.52510693197192L81.01911622081484,134.79137015650113L81.21060550519398,134.7546532208943L81.59358407395227,135.2202734115826L81.80422228676933,135.37019046374368L82.18720085552759,135.65999550744107L82.57017942428588,136.05866072357466L82.76166870866503,135.80304003963434L82.95315799304417,134.69596663638754L83.14464727742332,135.258141100015L83.33613656180245,135.02164642300133L83.52762584618159,134.81602903378194L83.91060441493988,135.32964975185848L84.10209369931903,135.31185393350324L84.29358298369817,135.8259464510054L84.67656155245645,136.19319085768646L84.86805083683558,136.4717884808828L85.05954012121472,135.95857469291465L85.25102940559387,136.01694861921777L85.44251868997301,135.8645312388491L85.63400797435216,135.8336051327027L85.82549725873129,136.31921512561485L86.01698654311043,136.69921849369578L86.20847582748958,135.3631844575968L86.39996511186872,134.8129392787042L86.61060332468577,134.8113072288405L86.99358189344406,135.16810658010826L87.1850711778232,135.40407439535267L87.37656046220233,135.358556169504L87.56804974658148,135.8796229714851L87.95102831533977,136.3225095578777L88.14251759971891,136.65948788053154L88.5254961684772,136.66824019542491L88.71698545285633,137.2140988479388L88.90847473723548,137.01454715232353L89.09996402161462,137.19668703446507L89.29145330599376,137.41828248547876L89.4829425903729,137.85581399421267L89.67443187475205,138.27759266564965L89.86592115913118,138.70186735269357L90.05741044351032,138.85675802639997L90.24889972788947,139.0728827466314L91.01485686540605,139.5150071107392L91.20634614978518,139.77219910690619L91.41698436260224,139.25721511550645L91.79996293136051,139.06598815510665L91.99145221573966,139.11483147448462L92.56592006887709,139.54891174933644L92.75740935325622,139.69679356138226L93.14038792201451,140.01423979640157L93.33187720639366,140.48212830010252L93.5233664907728,139.86413149195954L94.09783434391021,140.31248664616754L94.28932362828935,140.22856557126255L94.4808129126685,139.65472205533968L94.67230219704764,139.79321269981227L94.86379148142679,140.05450264974093L95.05528076580593,140.33403425830232L95.24677005018506,140.52563754406177L95.43825933456421,140.37741666261292L95.62974861894335,140.70454254636144L95.8212379033225,141.12502035863403L96.01272718770164,140.58021584856658L96.22336540051869,140.41634050176367L96.41485468489783,139.99551279236286L96.60634396927698,140.3906705325026L96.79783325365612,140.34619042299292L96.98932253803525,140.15856111671093L97.1808118224144,137.7165416014481L97.37230110679354,137.7685199840756L97.56379039117269,138.06028117342584L97.75527967555183,138.4110299028929L97.94676895993098,138.77742997660954L98.1382582443101,138.84056917095424L98.52123681306838,139.2236378705263L98.71272609744753,137.3893216478226L98.90421538182667,137.54752734032283L99.09570466620582,137.53313298182917L99.67017251934324,137.94447904549364L99.86166180372238,138.36494384523334L100.05315108810153,138.70311109518073L100.24464037248067,139.04490228713644L100.43612965685982,137.8841636890435L100.62761894123894,137.98046516443733L100.81910822561808,138.01791841827702L101.02974643843514,138.13068559650137L101.22123572281428,138.51821667339993L101.41272500719343,138.65194488399678L101.79570357595172,139.05055307886929L101.98719286033086,139.2472602146273L102.17868214471,138.88055085204257L102.75314999784742,139.13445476732335L102.94463928222656,139.07615905242722L103.1361285666057,138.52681279633134L103.32761785098485,138.77573316263585L103.51910713536398,139.1513411098261L103.71059641974313,139.48507152393475L103.90208570412227,139.23845169395213L104.09357498850142,139.20780753642944L104.4765535572597,138.93722846905987L104.66804284163884,137.98950177208252L104.85953212601798,138.0495895400885L105.05102141039711,138.29712365874005L105.8361274763516,138.1767884272989L106.02761676073075,136.20432010988407L106.2191060451099,135.93037482427508L106.41059532948903,136.35763544554098L106.60208461386817,136.40505849838794L106.7935738982473,136.2315375994439L106.98506318262645,136.50228564347256L107.36804175138474,135.84217864163818L107.75102032014301,136.12775245196076L107.94250960452216,136.55894606257158L108.1339988889013,136.81269762734192L108.32548817328045,136.85086878379587L108.51697745765959,136.56145978163846L108.70846674203874,136.4291572601944L108.89995602641787,136.59260902665136L109.28293459517616,136.78095351328327L109.47442387955529,137.069113127205L109.66591316393443,137.34736417817524L109.85740244831358,137.65078246505115L110.24038101707185,137.78767143476867L110.431870301451,138.16818795765406L110.64250851426806,138.12497939224258L111.21697636740548,137.36243118774013L111.40846565178462,137.6685419089948L111.59995493616375,137.85674345810747L111.7914442205429,138.20986837679092L111.98293350492204,138.28292965848132L112.17442278930119,138.4239356746747L112.36591207368033,138.57277140521708L112.74889064243862,138.81840453378302L112.94037992681776,139.14267056752428L113.1318692111969,139.211430801295L113.32335849557604,139.33797193519763L113.51484777995519,139.40195164834205L113.70633706433432,139.59182937131456L114.28080491747174,139.76554143401307L114.47229420185089,139.8443122409604L114.85527277060918,139.34570824968444L115.04676205498832,139.20376581217283L115.23825133936747,139.0446200381858L115.64037883656366,139.17959364924002L115.83186812094279,139.34136570264369L116.02335740532193,139.47904319822123L116.59782525845937,139.64386092956687L116.78931454283851,139.81925177097983L116.98080382721764,139.8162667808512L117.17229311159679,139.23357755629405L117.36378239597593,139.2956289013579L117.55527168035508,139.54505587215826L117.74676096473422,139.27953988629986L117.93825024911337,139.46275008911533L118.1297395334925,139.52092837694795L118.51271810225077,139.54479608984315L118.70420738662992,139.7177854505044L118.89569667100906,139.96524060577238L119.08718595538821,140.14450272765805L119.27867523976735,140.09201910927794L119.47016452414648,140.20953987547054L119.85314309290477,140.52084105986336L120.44675987448011,139.35500351922846L120.63824915885925,139.6279902375959L120.8297384432384,139.7421651370706L121.21271701199667,139.91085322405036L121.40420629637582,140.14391463827985L121.59569558075496,140.31432996099673L121.78718486513411,140.64207871514327L121.97867414951325,141.03763153064946L122.1701634338924,140.99851292973605L122.36165271827153,141.1984174293577L122.55314200265066,141.34264784956795L122.7446312870298,139.29403600447782L122.93612057140895,139.51367472901046L123.1276098557881,139.86184884848132L123.31909914016724,139.80334110062887L123.51058842454637,139.8075921878902L123.70207770892551,139.88660237551753L123.89356699330466,139.91138159466865L124.27654556206295,140.25974756396124L124.4680348464421,139.37288134046295L124.65952413082124,139.28116232522652L125.06165162801743,138.80186300232677L125.4446301967757,138.5689252959347L125.63611948115485,137.8214166221207L125.827608765534,137.82052501530913L126.01909804991314,137.8247267881954L126.21058733429228,138.02960684416897L126.59356590305056,138.164829517367L126.7850551874297,138.25512870070636L126.97654447180884,138.45066526789404L127.16803375618798,138.45352093609375L127.35952304056713,137.33521241432365L127.55101232494627,136.39961555726606L127.7425016093254,136.36108267986242L128.12548017808368,136.5352913201741L128.31696946246282,136.8610084145442L128.50845874684197,136.99460661925525L128.6999480312211,137.134141204349L128.89143731560026,136.3015216137364L129.0829265999794,136.67349104969344L129.27441588435855,136.91450356810685L129.4659051687377,137.03139824701117L129.8680326659339,137.26945825881285L130.059521950313,136.83505183743299L130.25101123469216,137.1443004292198L130.8254790878296,137.127947828708L131.59143622534617,136.5878313638564L131.7829255097253,136.75147792136153L131.97441479410443,136.562525339775L132.35739336286272,136.77182149842957L132.54888264724187,136.9326818764433L132.740371931621,137.1114623002174L132.93186121600013,137.31239754470653L133.12335050037927,137.48090491658L133.31483978475842,137.43489089549402L133.50632906913756,137.70491872438075L133.6978183535167,137.40452940764953L133.88930763789585,136.6808607290452L134.080796922275,136.86078581629215L134.27228620665414,136.93132653802388L134.4637754910333,136.99829511902595L134.8659029882295,137.27151395227938L135.0573922726086,137.54335671805342L135.24888155698775,136.71827334471345L135.4403708413669,136.63013329957263L135.63186012574604,136.92206912607813L135.8233494101252,136.10744630807463L136.01483869450433,136.2513312891078L136.20632797888348,135.04880438431158L136.39781726326262,135.0155837875598L136.58930654764174,134.78299332363244L136.97228511640003,134.74572905083969L137.16377440077918,134.8188448254225L137.35526368515832,135.07345459396444L137.54675296953747,134.77749359733394L137.7382422539166,134.55242464286061L137.92973153829573,134.77259752830028L138.1212208226749,134.96163261564587L138.31271010705402,135.1354788848404L138.5041993914332,134.74250291067005L138.6956886758123,132.92513878615054L138.88717796019145,133.1307753519579L139.0786672445706,133.25555410191902L139.48079474176677,133.30281822876145L139.67228402614595,133.0364083388933L139.86377331052506,132.87191924608794L140.05526259490424,133.07394270885038L140.24675187928335,133.2356776882309L140.8212197324208,133.04831524060148L141.01270901679993,132.6041941560849L141.20419830117908,132.522078855402L141.39568758555822,131.38517223647983L141.58717686993734,131.3459527576509L141.77866615431648,131.14866232075474L142.16164472307477,131.08476083081482L142.35313400745392,131.21318277528593L142.54462329183306,131.50858398860174L142.7361125762122,131.52816047199283L142.92760186059135,131.82212243092724L143.11909114497047,131.85480610984584L143.31058042934964,131.90586940890628L143.50206971372876,131.85126835396346L143.88504828248705,132.0933204685297L144.0765375668662,132.3290800574074L144.4786650640624,132.58364133803298L144.6701543484415,132.77866809620235L144.8616436328207,132.87534604109382L145.0531329171998,132.67687754866947L145.24462220157898,132.87498967684627L145.81909005471638,132.97741906089723L146.0105793390955,133.10985648814432L146.20206862347467,132.87913927309316L146.3935579078538,133.09897698724785L146.77653647661208,133.26173303465737L147.15951504537037,133.61372886953268L147.54249361412866,133.54491936160622L147.92547218288695,133.70182803782222L148.1169614672661,133.0563557845857L148.30845075164524,133.28942289394286L148.49994003602436,133.52984193015493L148.6914293204035,133.82874035765442L149.0935568175997,133.94946132603872L149.28504610197885,134.18891951231268L149.476535386358,134.3190085382649L149.66802467073714,134.41278700580497L149.85951395511628,134.71600285446092L150.0510032394954,134.62524356404012L150.4339818082537,134.74619428613823L150.62547109263284,134.9446223809087L150.81696037701198,134.9708087887962L151.00844966139113,134.89722140103328L151.39142823014942,134.87429493907135L151.58291751452853,135.0572043384582L151.7744067989077,134.94257053273196L151.96589608328682,134.52121932828842L152.3488746520451,134.61133277607397L152.54036393642423,134.62294975532893L152.7318532208034,134.3381030182031L152.92334250518252,134.0200847877595L153.1148317895617,134.19401747045498L153.3063210739408,133.86218774022123L153.49781035831998,134.13213300889961L153.6892996426991,134.36847324760592L153.89993785551616,134.5952269150004L154.28291642427445,134.62275153729962L154.47440570865356,134.83556934304903L154.85738427741185,135.02243053709563L155.04887356179103,133.50333822077175L155.24036284617014,133.55465828111295L155.4318521305493,133.7102173970341L155.62334141492843,133.82157333815277L155.81483069930758,133.99064671690635L156.00631998368672,133.96983585588814L156.19780926806587,133.82121562828948L156.389298552445,134.0861089213823L156.77227712120327,134.23986522503859L156.96376640558245,134.2944959204336L157.15525568996156,133.97151205074232L157.3467449743407,134.17352970608889L157.53823425871985,134.28500181137403L157.729723543099,134.53382305936984L157.92121282747814,134.69354360587084L158.11270211185726,132.9721625330644L158.30419139623643,133.10772202272415L158.49568068061555,133.0169242557049L158.7063188934326,132.94356404295755L158.89780817781175,132.78641558287785L159.0892974621909,132.8279495101404L159.28078674657004,132.86791381796453L159.4722760309492,133.05786465383244L159.6637653153283,133.14234711860587L159.85525459970748,132.96285357775525L160.0467438840866,132.95860847958886L160.23823316846577,133.16089340684184L160.42972245284489,133.1161921706216L160.62121173722403,133.11560851209825L160.81270102160317,132.83588117932334L161.19567959036146,132.50284188522465L161.38716887474058,132.54546882120007L161.57865815911975,132.7233333231997L161.96163672787802,133.03099199938237L162.15312601225716,133.1513036598543L162.3446152966363,133.13974989811757L162.53610458101545,133.26383389015902L162.7275938653946,133.30875082987072L163.7041892157282,133.13063928557108L163.89567850010735,133.09329881933502L164.0871677844865,133.4059626787557L164.4701463532448,133.07122929768929L164.66163563762393,133.31327542056775L164.85312492200305,133.45144930526558L165.04461420638222,133.54604127917145L165.23610349076134,133.50424869851526L165.61908205951963,133.6947395428363L165.8105713438988,133.3027449800979L166.00206062827792,133.53642613710312L166.19354991265703,133.6499817273454L166.3850391970362,133.89520909255077L166.57652848141532,133.96893438822872L166.7680177657945,133.72252279562278L166.9595070501736,133.31461896675518L167.1509963345528,133.4110111394077L167.3424856189319,133.6653586435272L167.53397490331105,133.03807835034672L167.7254641876902,133.18891675397623L167.91695347206934,132.24363057116523L168.31908096926554,132.31717390061849L168.51057025364466,132.25676781812572L168.70205953802383,132.3121877826495L168.89354882240295,131.71180669274392L169.0850381067821,131.92734455913293L169.27652739116124,132.09342877413565L169.46801667554038,131.8436522330064L169.65950595991953,131.89756599329547L169.85099524429867,131.48540160971248L170.42546309743608,131.4878187815788L170.61695238181522,131.72954597165753L170.80844166619437,131.97789063559011L170.9999309505735,132.20344281748552L171.19142023495266,132.48094763126286L171.38290951933178,132.6633132937653L171.76588808809007,132.75354533497173L171.95737737246924,132.83132132272405L172.14886665684836,132.79214593637607L172.34035594122753,132.84232598946022L172.53184522560665,133.04090911678892L172.72333450998576,132.78194301358806L172.91482379436493,130.93335400140268L173.125462007182,130.43191067833632L173.50844057594028,130.06201201000323L173.6999298603194,130.21267298738601L173.89141914469857,129.71330191170517L174.0829084290777,129.87020286438195L174.27439771345684,129.74387866236032L174.46588699783598,129.74935693735063L174.6573762822151,130.02202438256793L174.84886556659427,129.55185983440785L175.0403548509734,129.88102733152726L175.23184413535256,130.13119518034478L175.61482270411082,129.98396759668205L175.80631198848997,130.14713623300932L175.9978012728691,130.29394859236524L176.3807798416274,130.45184499655252L176.57226912600655,130.61332013844253L176.7637584103857,130.75485865712247L176.9552476947648,130.72533911565478L177.14673697914395,130.60708443670066L177.3382262635231,130.61971499928362L177.52971554790224,130.88221705063407L177.7212048322814,130.6776619424502L177.93184304509845,130.43418452444L178.1233323294776,130.69393533550115L178.31482161385674,130.97564684512955L178.50631089823585,131.19635298410927L178.69780018261503,130.8459784065725L178.88928946699414,130.9489615489751L179.27226803575243,130.8014804042021L179.46375732013158,131.08848912519284L179.65524660451072,130.67875242931078L179.84673588888984,130.79202755800875L180.038225173269,130.65702742628946L180.22971445764813,130.58741403190936L180.61269302640642,130.65429179009672L180.80418231078556,130.74430992909816L181.18716087954385,131.04514845338775L181.378650163923,131.09123759255706L181.7616287326813,131.30448044138814L182.14460730143955,131.38998602371157L182.7382240830149,131.46809064496455L182.92971336739404,131.01627666498493L183.50418122053145,131.28275710887016L183.6956705049106,131.41001699515746L183.88715978928974,131.18668185332302L184.07864907366888,131.35409443536935L184.27013835804803,130.51749386120596L184.65311692680632,129.87312145289067L184.84460621118546,129.95320752219115L185.03609549556458,130.17440490249604L185.61056334870204,129.9587472890319L185.80205263308116,129.82603284001303L186.18503120183945,129.89711666289588L186.37652048621857,130.1211159541389L186.56800977059774,129.82644502158266L186.75949905497686,129.82445454345964L186.95098833935603,130.07172104617808L187.14247762373515,129.9606728193124L187.3339669081143,130.16698662206394L187.7360944053105,130.22191577157463L187.9275836896896,129.83291890641476L188.11907297406879,129.74962968243378L188.50205154282708,129.8860728418541L188.6935408272062,129.94611665806008L188.88503011158537,130.02204726384892L189.07651939596448,129.97392671641273L189.26800868034363,130.20230544914068L189.45949796472277,130.13343659227746L189.65098724910192,130.27274816004808L189.84247653348106,130.28989461191955L190.0339658178602,130.3930000764015L190.22545510223932,130.5204798348634L190.41694438661847,130.55924355049865L190.79992295537676,130.57106164360573L190.9914122397559,130.66411666336L191.3743908085142,130.39096328846483L191.75736937727248,130.62255859965933L191.9488586616516,130.63425375287355L192.54247544322695,130.48670867209634L192.7339647276061,130.10408485156034L193.11694329636435,130.1503373543295L193.30843258074353,129.98975817229513L193.49992186512264,129.81307946452122L193.69141114950182,130.0688272992935L193.88290043388093,128.95195983026517L194.26587900263922,128.72644293642816L194.45736828701837,128.949473808729L194.84034685577663,127.52632440998056L195.0318361401558,127.6361984578464L195.4148147089141,127.63375158430132L195.6063039932932,127.49301557327794L195.79779327767235,127.5967367375983L195.9892825620515,127.61116604411086L196.18077184643064,127.84614278045886L196.3722611308098,128.0594654690502L196.56375041518893,127.98610898029816L196.75523969956805,128.09096514225718L196.94672898394722,128.0216459818135L197.3488564811434,128.18410830412566L197.54034576552255,128.25562897529326L197.7318350499017,128.47035292286006L197.92332433428084,128.7174364493285L198.11481361865998,128.41887941206113L198.30630290303912,128.62450795133566L198.49779218741827,128.65527947291173L198.6892814717974,128.6689508834102L198.88077075617656,128.53123436566844L199.07226004055568,128.37103245949467L199.45523860931397,128.45000561668783L199.83821717807226,128.5456839307139L200.02970646245137,128.55574924585423L200.22119574683055,128.68996766191663L200.41268503120966,128.72023855992632L200.60417431558884,128.8000341886429L200.79566359996795,129.01981312105335L200.9871528843471,128.97949567719354L201.17864216872624,129.11945036686802L201.3701314531054,128.96062090395583L201.56162073748453,127.41863386353567L201.75311002186365,127.62879737010974L201.9637482346807,127.15086335118083L202.346726803439,127.18610157269792L202.7297053721973,127.12220501636774L202.92119465657643,127.28628259712829L203.11268394095558,127.50001564017438L203.30417322533472,127.74124090060599L203.68715179409298,127.92608541868239L203.87864107847213,127.80803669542519L204.07013036285127,127.92507595393094L204.26161964723042,127.9033750615813L204.45310893160956,128.00433918827184L204.6445982159887,128.13199080652527L204.83608750036785,128.31308051938757L205.21906606912611,127.9433642074183L205.4105553535053,127.95475500528791L205.9850232066427,127.92132580868642L206.1765124910218,127.7345637277978L206.77012927259716,127.75873757047896L206.96161855697633,127.63990850242702L207.15310784135545,127.521461261388L207.34459712573462,127.60988477139912L207.53608641011374,127.7768664700296L207.7275756944929,127.6612797374699L207.91906497887203,127.8460954686003L208.11055426325115,128.04434687859342L208.30204354763032,128.18899818466227L208.87651140076773,128.07496460820275L209.06800068514687,127.79454100768018L209.25948996952602,127.58393650731126L209.45097925390516,127.7667074628602L209.6424685382843,127.63228465121448L210.0254471070426,127.60709434449915L210.21693639142174,127.7531142378961L210.40842567580086,127.98711420537538L210.59991496018,126.82310262905952L210.79140424455915,126.84981494109728L211.17438281331744,126.9550028433482L211.36587209769658,127.16960276583765L211.57651031051364,127.11632420782735L211.76799959489279,126.9184566817897L211.9594888792719,127.04086435568536L212.15097816365108,127.01005651409203L212.3424674480302,127.02389896924895L212.53395673240934,126.9864228333112L212.72544601678848,127.09982840839986L212.91693530116763,127.21880205144231L213.2999138699259,127.03197682851014L213.68289243868418,127.1259497095897L214.06587100744247,127.30228093637197L214.25736029182164,127.18357377919367L214.44884957620076,127.0490352657462L214.64033886057987,127.34108166209386L214.83182814495905,127.50442475461999L215.40629599809645,127.66637931944335L215.78927456685474,127.454998736031L215.9807638512339,127.57539416378992L216.3828913484301,127.79820111223667L216.5743806328092,127.75007929407278L216.76586991718838,127.80383515194418L216.9573592015675,127.85612565932107L217.14884848594667,127.79623136516321L217.53182705470493,127.91834103088289L218.2977841922215,128.09445991838058L218.48927347660063,128.04272434311852L218.6807627609798,128.12084435411063L218.87225204535892,128.28734109158827L219.0637413297381,128.4685174427048L219.82969846725462,128.53413871624343L220.0211877516338,128.44327835608917L220.2126770360129,128.621983208064L220.40416632039208,128.86857421847387L220.78714488915037,129.01865930176066L220.97863417352949,128.93078075661668L221.18927238634654,129.13521756682812L221.57225095510483,129.2608888678349L221.76374023948395,129.39976894866115L221.95522952386312,129.5204257939299L222.33820809262141,129.09390291418518L222.72118666137968,129.25417318757817L222.91267594575882,129.2089999325137L223.10416523013797,129.2569830725616L223.48714379889623,129.4320971452996L223.6786330832754,129.54224187331258L223.87012236765452,129.0932526644339L224.06161165203366,129.23371987231627L224.2531009364128,129.16939898685808L224.44459022079195,128.7393273025898L224.6360795051711,128.8030854079043L224.82756878955024,128.93808272758503L225.01905807392936,129.05484046791196L225.21054735830853,129.01575753831057L225.40203664268765,129.081743047584L225.59352592706682,129.12474640058886L225.78501521144594,129.23736082893706L226.18714270864214,129.46588270157835L226.3786319930213,129.42464373837873L226.57012127740043,129.47360976050115L226.9530998461587,129.53683112497194L227.14458913053787,129.65992302755882L227.33607841491698,129.91482400224925L227.52756769929616,129.67701102111263L227.9105462680544,129.83394164421566L228.10203555243356,129.9288732473165L228.29352483681268,129.83549052655843L228.48501412119185,129.96567369107547L229.05948197432926,129.9280965045302L229.2509712587084,129.96865722787607L229.44246054308755,130.1055010797736L229.6339498274667,129.68703280570614L230.39990696498327,129.72999759149414L230.80203446217945,129.74026389097406L230.9935237465586,129.96564675458595L231.18501303093774,129.9264387661751L231.37650231531688,129.9874484523378L231.56799159969603,130.00852737203178L231.75948088407517,130.1903381120116L231.95097016845432,130.38665893267068L232.14245945283344,130.51897152438576L232.33394873721258,129.6438500592211L232.52543802159173,129.72442298539357L232.71692730597087,129.68842620518407L232.90841659035001,129.76990261960464L233.09990587472916,129.89424615342153L233.2913951591083,129.93696494935918L233.48288444348742,130.1266095253038L233.8658630122457,130.26438437879415L234.05735229662488,130.4770268632535L234.248841581004,130.66769397736851L234.44033086538317,130.83432436503105L234.6318201497623,130.55958379271894L234.8233094341414,130.51589089008402L235.01479871852058,130.20312960565312L235.60841550009593,130.35234819842694L235.79990478447505,130.28021279306307L236.18288335323334,130.28504273088092L236.37437263761248,130.46698928777343L236.56586192199163,130.6663739424793L236.75735120637074,130.3464151923025L236.94884049074992,130.43753100029318L237.14032977512903,130.6662762626609L237.33181905950818,130.74967184840395L237.52330834388732,129.6885810721943L237.71479762826647,129.7166421119619L237.9062869126456,129.56001695304352L238.2892654814039,129.6879572692877L238.48075476578305,129.72074249611862L238.86373333454134,129.85959529255175L239.05522261892045,129.9680559917429L239.43820118767874,130.01980158969326L239.6296904720579,129.98659452203495L239.82117975643703,130.1134000006896L240.01266904081615,130.24900801674133L240.20415832519532,129.9215490051834L240.41479653801238,130.035834776266L240.6062858223915,130.0059438505717L240.79777510677067,129.8171175732498L240.9892643911498,130.00356077604917L241.37224295990808,130.1888351844066L241.5637322442872,130.09172511122676L241.75522152866637,130.2292084881991L242.13820009742466,130.2601149551288L242.32968938180377,130.42446271966824L242.52117866618295,130.4715513535406L242.71266795056206,130.61268867057615L242.9041572349412,130.75130878948576L243.09564651932035,130.92894720260637L243.2871358036995,131.10858186084496L243.47862508807864,130.88825065901204L243.67011437245776,131.1229621056965L243.86160365683693,131.19845553894254L244.62756079435349,131.34120471016374L244.81905007873263,131.37953568300892L245.01053936311177,131.4426057424839L245.41266686030798,131.06063232555482L245.6041561446871,131.27902597670348L245.79564542906624,131.42442971289816L245.98713471344539,131.60986233615753L246.17862399782453,131.17668881767642L246.37011328220368,131.32482962023838L246.56160256658282,131.23820176137082L246.9445811353411,131.22744867171426L247.13607041972023,131.32536259702243L247.3275597040994,131.28247591258057L247.7105382728577,131.4060101204244L247.9020275572368,131.32744930841528L248.09351684161592,131.28664264445777L248.2850061259951,131.4468936286627L248.6679846947534,131.57683415968376L248.8594739791325,131.6437004648206L249.05096326351168,131.75748292670954L249.2424525478908,131.90317663852935L249.43394183226994,131.9742088982375L249.62543111664908,132.10414294321373L250.21904789822443,131.92187411698637L250.41053718260355,131.91774419119224L250.98500503574098,132.08907872438158L251.17649432012013,132.30320081773024L251.36798360449927,132.3797382996614L251.75096217325756,132.51507885811895L251.9424514576367,132.37666555740293L252.13394074201585,132.51987359901253L252.5169193107741,132.60075010563116L252.70840859515326,132.77885814620225L252.8998978795324,131.94755759372916L253.2828764482907,131.9102428328932L253.47436573266984,131.748992511381L253.66585501704895,131.58927025656226L253.85734430142813,131.50084343911703L254.04883358580724,131.65320610937928L254.24032287018642,131.66964297751312L254.43181215456553,131.0614513353204L254.83393965176174,130.88449675368545L255.40840750489917,130.7456451062451L255.5998967892783,130.9653423019067L256.1743646424157,130.11091468643627L256.3658539267949,130.15993910836684L256.557343211174,130.28263981533033L256.7488324955532,130.2561042349873L256.9403217799323,130.2499951737636L257.32330034869057,130.22702489262772L257.5147896330697,130.201978744681L257.70627891744886,129.73039556691225L257.897768201828,129.6632956858766L258.08925748620715,129.7548276414642L258.2807467705863,129.86932228528497L258.47223605496544,129.5974671333664L258.6637253393446,129.65769201812154L258.8552146237237,129.7530491743282L259.04670390810287,129.8129214890092L259.238193192482,128.5461094420146L259.42968247686116,128.59276665012422" fill="none"></path></g></g></g></g><g opacity="0.2"><g><g><g><path style="fill: none;" stroke="rgb(51, 187, 238)" stroke-width="2px" d="M19.321268793855396,154.9977907909795L19.70424736261368,-33.28549593567059L19.89573664699282,27.191826781920984L20.08722593137196,207.53489591016492L21.23616163764681,269.6209256625498L21.427650922025954,154.96990294613573L22.002118775163378,197.4319399984601L22.19360805954252,186.3570582460215L22.38509734392166,70.40555508072299L22.576586628300802,206.22667591035506L22.768075912679944,120.72403386672012L22.95956519705909,224.94732035806967L25.276585538046703,-142.9602420222046L25.46807482242584,101.69102908165905L25.659564106804982,178.5522509619185L26.617010528700693,-31.435432484284306L26.808499813079834,1.516287825305727L26.999989097458975,221.84219904719203L27.5744569505964,228.91538474759432L28.148924803733824,105.08452448739268L28.34041408811297,119.07604496024904L28.53190337249211,-130.12398525728537L28.723392656871248,89.25603077603594L28.934030869688307,197.87834771032416L29.31700943844659,182.0956023459466L29.50849872282573,108.78614912619332L29.699988007204873,224.49009150340237L30.2744558603423,216.30961458004393L30.46594514472144,149.8597624144016L30.848923713479724,213.3951026447861L31.040412997858866,43.18444240724013L31.231902282238007,93.25974877171024L31.42339156661715,-304.9069639962246L31.997859419754572,266.9534765181521L32.189348704133714,93.95002535235439L32.38083798851286,205.85647300760223L32.76381655727114,169.2201273631308L32.95530584165028,209.3030182234522L33.146795126029424,85.79166250145123L33.33828441040857,140.92892722963055L33.740411907604766,48.57596260657889L34.12339047636304,177.28627460678206L34.31487976074219,248.03335984187123L34.50636904512133,64.15289657465108L34.69785832950047,182.49186585558886L35.08083689825876,200.39345089028058L35.27232618263789,139.80871054475162L35.463815467017035,249.41925617643992L36.42126188891275,265.6943298393039L36.61275117329188,73.77731833668845L36.99572974205017,170.5967115239446L37.378708310808456,177.81955849695777L37.5701975951876,209.58032404906035L37.76168687956673,150.18632877797486L38.33615473270416,-150.15314925201542L38.54679294552122,89.5709147985898L38.738282229900356,69.61666755998681L39.121260798658646,157.3869044162497L39.312750083037784,227.31531590534325L40.84466435807092,223.6348168332194L41.2276429268292,132.88263996571231L41.41913221120834,164.97849399938823L41.61062149558749,200.50332480530417L41.99360006434577,-200.4772595254783L42.18508934872491,51.63649631589912L42.37657863310405,267.0838656724209L42.56806791748319,35.730449833005835L42.759557201862336,269.8885898124768L43.544663267816816,232.643526802773L43.73615255219596,154.33621083263426L43.927641836575106,221.40602836108025L44.119131120954236,91.83033946118432L44.31062040533338,230.084360228869L45.076577542849954,217.4147415744394L45.45955611160823,151.10427621225494L45.651045395987374,69.48581036320915L45.84253468036652,268.0459139440493L46.03402396474566,205.34560273708755L46.2255132491248,115.7093889841395L46.41700253350395,275.6629575509859L46.99147038664137,194.00364469611293L47.182959671020505,121.66937489295468L47.37444895539965,152.25396834216744L47.565938239778795,172.57328873762694L47.75742752415793,226.8726450448694L48.15955502135413,209.24169342178044L48.54253359011241,163.82615087670595L48.73402287449155,215.79299300318118L49.308490727628985,-255.89487048340283L49.49998001200812,64.1806646006126L49.69146929638726,26.878021129307367L49.882958580766406,189.3745245558529L50.26593714952469,212.30377728788983L50.457426433903834,150.33646183743454L50.64891571828297,221.67755292561975L50.840405002662116,211.87880217858833L51.031894287041254,45.53316209183171L51.22338357142039,197.8916251402135L51.79785142455783,197.37766953348088L51.989340708936965,170.11685187789232L52.18082999331611,186.37901505619388L52.37231927769525,214.7266199285135L52.75529784645353,157.8342781678519L52.96593605927058,279.33154587734606L53.15742534364973,127.57141339484156L53.34891462802887,116.3484729473422L53.54040391240801,242.73861211164999L54.11487176554543,251.4295024960346L54.306361049924575,103.40788389070352L54.49785033430372,215.51300623008274L54.880828903062,185.35699743399925L55.07231818744115,149.29781185664754L55.64678604057857,197.88992520982163L56.02976460933685,280.76342083580823L56.221253893715996,124.10394480667861L56.41274317809514,60.9935422421949L56.79572174685342,211.05220166466384L57.370189599990844,225.38709309932906L57.56167888436999,161.31309959510804L57.77231709718704,98.391007381441L58.155295665945324,144.6535271391027L58.34678495032447,264.98320102880814L58.53827423470361,180.96793442432775L58.72976351908275,50.12698808258888L58.92125280346189,140.37726611838974L59.112742087841035,245.44699812603645L59.30423137222018,174.45582310610305L59.49572065659932,231.4261819364699L60.26167779411588,202.54532312869517L60.45316707849503,121.95768907836954L60.644656362874166,209.91363022476017L61.41061350039073,178.21389741580384L61.602102784769876,52.33057714605474L61.79359206914902,140.5610982384823L61.98508135352816,240.84964496693306L62.5786981351035,-76.92488081366689L62.770187419482646,49.850625830678496L63.34465527262007,179.09086679235432L63.536144556999204,71.40304727545698L63.72763384137835,144.52644423711592L63.919123125757494,201.91082972641868L64.11061241013662,265.6206636927604L64.30210169451577,150.40877253287263L64.49359097889491,172.7863566649886L64.68508026327406,218.19348942226517L64.87656954765319,204.9550530903926L65.06805883203234,79.82580546740579L65.25954811641148,255.3305881303813L65.64252668516977,227.33633663049804L65.83401596954891,81.23833529289467L66.21699453830719,199.55479360132966L66.79146239144461,187.74472565344345L66.98295167582376,112.2092248184825L67.1744409602029,-99.08217793076565L67.76805774177824,246.12585446946613L67.95954702615738,147.31486926484567L68.15103631053653,106.24841515485186L68.34252559491567,188.79906441912507L68.72550416367395,226.48384774932737L68.91699344805309,150.836136531139L69.10848273243222,224.273683624698L69.29997201681137,-613.0256530015972L69.68295058556966,47.200771340271274L69.87443986994879,52.78130582635992L70.25741843870708,199.32705534957253L71.78933271374021,217.80065572812734L71.98082199811935,120.13684645689209L72.19146021093641,199.1765852995065L72.76592806407383,205.0802638223442L72.95741734845298,51.36091288672336L73.14890663283212,127.28205079420698L73.34039591721127,24.081178825099542L73.5318852015904,81.1472879197447L73.72337448596954,25.663117572730116L73.91486377034867,15.447838947595795L74.10635305472782,225.80231045840733L74.29784233910696,125.92938547776242L74.48933162348611,166.98698796782998L74.68082090786525,199.47712849959106L75.06379947662354,212.2688201289933L75.25528876100267,157.11093157570662L76.02124589851925,-83.98517849554716L76.7872030360358,214.31516188686584L76.99784124885286,149.71843604278732L77.18933053323201,109.1210728568036L77.5723091019903,206.39435494738427L77.76379838636944,21.002522509838947L77.95528767074856,129.69996588329812L78.1467769551277,121.17888132110265L78.33826623950685,-2.449028218607317L78.529755523886,256.7032632001617L78.72124480826514,130.58765904981L79.10422337702343,240.88514879947985L79.67869123016085,194.6740612970241L79.87018051454,58.55787898117042L80.06166979891914,180.78766691598213L80.4446483676774,242.52136550076983L80.63613765205655,150.7149846638236L80.82762693643569,29.534345839356092L81.01911622081484,195.7176313406635L81.21060550519398,126.3248177439091L81.59358407395227,242.48019273735656L81.80422228676933,170.02020297199715L82.18720085552759,202.86455807441075L82.57017942428588,228.8132541278362L82.76166870866503,76.13370642974404L82.95315799304417,-124.5748433183463L83.14464727742332,267.346418798152L83.33613656180245,79.27426417504724L83.52762584618159,86.1902100585364L83.91060441493988,257.18586370314546L84.10209369931903,131.07625049690628L84.29358298369817,258.5769234826711L84.86805083683558,203.41652622153734L85.05954012121472,12.248105651821234L85.25102940559387,150.1322605073594L85.44251868997301,98.89330311319466L85.63400797435216,128.30859906788672L85.82549725873129,254.84583837619715L86.39996511186872,-0.7346296966490012L86.61060332468577,134.408039178281L86.99358189344406,223.5989984761067L87.1850711778232,194.06473734870033L87.37656046220233,124.00874870473073L87.56804974658148,266.1963934219732L88.14251759971891,221.4409256105357L88.5254961684772,138.8768042106894L88.71698545285633,275.3639457859901L88.90847473723548,86.36171581111746L89.09996402161462,183.56554788207382L91.20634614978518,206.77402354183488L91.41698436260224,4.716949717417729L91.79996293136051,88.96660826596025L91.99145221573966,151.94724698096687L92.56592006887709,253.9127375976525L94.09783434391021,260.08282217215356L94.28932362828935,117.7490807940472L94.4808129126685,-14.477196486909756L95.24677005018506,192.5484144164621L95.43825933456421,100.02569639198227L95.62974861894335,229.99918398094928L96.01272718770164,-8.924250298459222L96.22336540051869,95.32716367549858L96.41485468489783,23.903038101913857L96.60634396927698,249.68739960189592L96.79783325365612,128.0112984663031L96.98932253803525,87.99119270028086L97.1808118224144,-543.0090697925277L97.37230110679354,152.29520101502183L97.56379039117269,219.81029546463063L97.94676895993098,241.967360432645L98.1382582443101,156.66787130386547L98.52123681306838,247.65731202426863L98.90421538182667,182.55657554068418L99.09570466620582,133.42769606106907L99.67017251934324,255.55873077086608L100.43612965685982,-197.3061928972822L100.62761894123894,165.8581593007893L100.81910822561808,148.8865934527644L101.02974643843514,170.93487036437563L101.22123572281428,251.52614765758966L101.98719286033086,197.02605353483713L102.17868214471,30.908368871561777L102.75314999784742,214.0716225200119L102.94463928222656,121.82973748948646L103.1361285666057,-24.38010728601744L103.71059641974313,239.15437253405395L103.90208570412227,65.41219302710208L104.09357498850142,130.01296275845655L104.4765535572597,57.56028194491442L104.66804284163884,-147.7020742872615L104.85953212601798,156.20492109757075L105.05102141039711,213.2612799306728L105.8361274763516,101.65024572961312L106.02761676073075,-463.89026546498826L106.2191060451099,52.39620793880736L106.41059532948903,266.9388136824367L106.60208461386817,150.93157227085138L106.7935738982473,82.95884457784774L106.98506318262645,219.8120627931438L108.1339988889013,215.5932399491096L108.32548817328045,148.72789334322383L108.51697745765959,46.31225441894392L108.70846674203874,95.08107066871669L108.89995602641787,187.78787542841383L110.431870301451,258.91283197471984L110.64250851426806,124.38468044779114L111.21697636740548,-105.64675494205572L111.7914442205429,251.46386056051983L111.98293350492204,161.7646520302287L112.17442278930119,183.8384803184798L112.94037992681776,244.23857976646104L113.1318692111969,161.5433016226315L113.32335849557604,180.5211747444971L113.51484777995519,160.26744020970938L113.70633706433432,201.6437759039231L114.28080491747174,196.65132746927938L114.47229420185089,165.69241983191654L114.85527277060918,-24.60231140315068L115.04676205498832,92.43596400151863L115.23825133936747,86.5020386995929L115.64037883656366,183.8319202346766L116.78931454283851,198.31057935068196L116.98080382721764,138.81881187168023L117.17229311159679,-55.86341723890912L117.36378239597593,160.11297869312844L117.55527168035508,223.3897797303373L117.74676096473422,49.85050601179625L117.93825024911337,201.2915083901071L118.1297395334925,159.19309917937207L118.51271810225077,147.63110124982484L118.70420738662992,198.44023835863712L119.08718595538821,201.23263238684137L119.27867523976735,122.17234460592101L119.47016452414648,180.41236422205353L121.97867414951325,278.6820301827074L122.1701634338924,127.36056211680153L122.36165271827153,211.02130337040353L123.1276098557881,262.3760320152026L123.31909914016724,119.1779958516838L123.51058842454637,141.30894779204775L123.70207770892551,167.84164107756132L123.89356699330466,148.69464360339936L124.27654556206295,263.9663655732708L124.4680348464421,-176.12910410115282L124.65952413082124,106.59319398852718L125.06165162801743,-32.324818092507975L125.4446301967757,55.25245045389077L125.63611948115485,-130.02468535862042L125.827608765534,137.50047466500038L126.01909804991314,139.33568057498758L126.21058733429228,211.83529294697115L126.59356590305056,186.96361887137337L126.7850551874297,170.8996735677146L126.97654447180884,209.26479600001434L127.16803375618798,139.48952801979704L127.35952304056713,-269.0871091474878L127.55101232494627,-204.21518928560084L127.7425016093254,122.30827912783401L128.12548017808368,200.17906495521422L130.25101123469216,252.0731395767628L130.8254790878296,131.04042465111343L131.59143622534617,-64.81787172084375L131.7829255097253,197.87661033653154L131.97441479410443,65.86692066260235L132.35739336286272,215.2096472862653L133.12335050037927,201.0524547426574L133.31483978475842,120.04690740840293L133.50632906913756,239.91195737180223L133.6978183535167,23.519108448463232L133.88930763789585,-138.1293843276357L134.080796922275,205.29802715215402L134.27228620665414,163.80620103281126L134.4637754910333,162.55362941512658L134.8659029882295,241.70101054608267L135.24888155698775,-179.66175416125995L135.4403708413669,102.77838543808082L135.63186012574604,249.22472273242636L136.20632797888348,-329.7564416238855L136.39781726326262,122.15468629814939L136.58930654764174,44.596477979839726L136.97228511640003,120.27379943930423L137.16377440077918,163.25868865036838L137.35526368515832,234.26433928901366L137.54675296953747,19.296631128520406L137.7382422539166,46.59586571323047L137.92973153829573,220.9496906593497L139.0786672445706,182.54851772085289L139.48079474176677,152.00272312344876L139.67228402614595,27.47142414365213L139.86377331052506,67.59393012191752L140.05526259490424,213.36920678885977L140.24675187928335,197.61536772982512L140.8212197324208,58.354845885197236L141.01270901679993,-44.71468961160356L141.20419830117908,99.68764239307323L141.39568758555822,-323.8968789157564L141.58717686993734,115.61676898815998L141.77866615431648,51.906298484006314L142.16164472307477,105.38034233030848L142.35313400745392,182.94763441762873L142.54462329183306,250.6863109015166L142.7361125762122,139.43782617210599L142.92760186059135,250.76915816991254L143.11909114497047,145.09916351691223L143.31058042934964,152.62849221336143L143.50206971372876,109.66055737413569L143.88504828248705,230.61046996346994L144.6701543484415,212.50213744745525L144.8616436328207,172.45263112320086L145.0531329171998,51.31232632997085L145.24462220157898,214.21014063657344L145.81909005471638,175.09018920081712L146.0105793390955,187.63797451803856L146.20206862347467,37.75104550855488L146.3935579078538,223.8702684255214L147.15951504537037,279.3656905144473L147.54249361412866,105.01251333916026L147.92547218288695,198.85693847638322L149.476535386358,188.86745853484962L149.66802467073714,173.78998957743792L149.85951395511628,262.21071565675777L150.0510032394954,96.41071578240889L150.4339818082537,185.74283670088576L150.62547109263284,218.722736913845L150.81696037701198,146.04204825606067L151.00844966139113,103.74312214587965L151.39142823014942,125.15490617761684L151.58291751452853,212.70455647165687L151.7744067989077,86.21321528392846L151.96589608328682,-44.83157293123879L152.3488746520451,173.02078230811136L152.54036393642423,139.58115950999795L152.7318532208034,12.600492984519466L152.92334250518252,-2.076121902323728L153.89993785551616,232.28082006884097L154.28291642427445,146.4960120461866L154.47440570865356,226.75931135962088L155.04887356179103,-524.3698048319015L155.24036284617014,155.80887475965255L155.4318521305493,201.25416983092586L155.81483069930758,207.5933974794236L156.00631998368672,124.8985087469614L156.19780926806587,68.95487791859765L156.389298552445,249.84965309016323L156.77227712120327,201.52078182129316L156.96376640558245,158.2305491661743L157.15525568996156,-7.7227365019734675L158.30419139623643,193.03276727059875L158.49568068061555,92.82855056921184L158.7063188934326,100.43248149722214L158.89780817781175,63.05550538684084L159.0892974621909,151.28070951636857L159.28078674657004,150.64548971211843L159.4722760309492,217.66016060000868L159.6637653153283,170.81680383327821L159.85525459970748,52.81949809507722L160.0467438840866,131.06083879317686L160.23823316846577,223.7039523282778L160.42972245284489,113.08319872297672L160.62121173722403,132.8537186830091L160.81270102160317,7.167215904716468L161.19567959036146,-17.299530258316317L161.38716887474058,151.74264126216417L161.57865815911975,212.92274665623475L162.15312601225716,187.53185992044558L162.3446152966363,127.91115983546237L162.53610458101545,189.48515482757065L162.7275938653946,153.68472561511868L163.7041892157282,52.23556077243023L163.89567850010735,116.1135830060507L164.0871677844865,275.75281609616354L164.85312492200305,196.5832029460399L165.04461420638222,176.8164647694785L165.23610349076134,114.36389782326968L165.61908205951963,221.03963719651898L166.3850391970362,246.8675558166361L166.57652848141532,167.9726929800226L166.7680177657945,19.93945943179343L166.9595070501736,-55.258271974103806L167.91695347206934,-307.29135975300625L168.31908096926554,166.55230004038606L168.51057025364466,104.10493023819483L168.70205953802383,158.16981597023366L168.89354882240295,-148.73128853107127L169.27652739116124,209.84936237179318L169.46801667554038,14.772749410276859L169.65950595991953,157.19567348017816L169.85099524429867,-62.134018622597985L170.42546309743608,132.62459502542592L170.61695238181522,245.53967803145707L171.38290951933178,218.90952706259316L171.76588808809007,175.4744633335542L171.95737737246924,169.69571846150296L172.14886665684836,114.20316079273084L172.34035594122753,156.67941884864234L172.53184522560665,227.47814976632145L172.72333450998576,9.49370918665059L172.91482379436493,-750.1070812554992L174.0829084290777,205.05844929709448L174.27439771345684,69.14260415236335L174.46588699783598,132.3802843245175L174.6573762822151,261.1113062696496L175.23184413535256,250.79197992264116L175.61482270411082,58.89719107834306L175.80631198848997,209.0150485173238L176.7637584103857,199.45930544085633L176.9552476947648,116.381048705954L177.14673697914395,73.08347714429735L177.3382262635231,136.7701785776846L177.52971554790224,258.84223618703396L177.7212048322814,30.85999199785322L177.93184304509845,11.49899799999215L178.1233323294776,257.7110448414089L178.88928946699414,181.5170793390413L179.27226803575243,58.30846100040606L179.46375732013158,272.31066860772614L179.84673588888984,186.64366501236427L180.038225173269,64.02531941977504L180.22971445764813,96.19330442056568L180.61269302640642,163.73056536339072L180.80418231078556,175.31071585359888L181.18716087954385,280.13663702973656L181.378650163923,153.95559117580584L181.7616287326813,237.1993327644561L182.14460730143955,173.89439675595884L182.7382240830149,170.33272057162657L182.92971336739404,-94.03157240614965L183.6956705049106,194.92539637990447L183.88715978928974,19.608519679018016L184.07864907366888,215.07697034021345L184.65311692680632,-193.01955256589423L184.84460621118546,170.1239211919451L185.03609549556458,241.23576880366488L185.61056334870204,21.571692155248584L185.80205263308116,63.0593845231537L186.18503120183945,165.6935730886582L186.37652048621857,243.03385707053496L186.56800977059774,-18.85603744818924L186.75949905497686,128.8191323477951L186.95098833935603,255.07967990226896L187.14247762373515,73.76437789740542L187.3339669081143,234.6744194135154L187.7360944053105,158.07310715489737L187.9275836896896,-67.59482409059801L188.11907297406879,87.43688059627026L188.50205154282708,199.26917534076546L188.6935408272062,160.50862064231902L188.88503011158537,168.708186211356L189.07651939596448,105.43327232154256L189.26800868034363,246.7832257895723L189.45949796472277,94.94417759574567L189.65098724910192,201.52343281406294L189.84247653348106,139.06778053163615L190.0339658178602,183.22661770758833L190.22545510223932,195.90607648772271L190.41694438661847,150.46036953904166L190.79992295537676,136.64415906827784L190.9914122397559,178.52849686851238L191.75736937727248,249.97178223023695L191.9488586616516,136.6668347917437L192.54247544322695,54.308876756169404L192.7339647276061,-67.63008079670017L193.11694329636435,154.07523032973276L193.30843258074353,46.85009142664511L193.49992186512264,38.252876942139835L193.69141114950182,262.7279775157725L193.88290043388093,-450.9156178910699L194.26587900263922,11.531888283169868L194.45736828701837,244.95902075071172L195.0318361401558,184.89237725203316L195.4148147089141,126.35749834404285L195.6063039932932,54.01999343106386L195.79779327767235,181.7951564987039L195.9892825620515,135.15792565284468L196.18077184643064,250.85460401031733L196.3722611308098,239.83364075489138L196.56375041518893,89.51483956169666L196.75523969956805,183.1317660849269L196.94672898394722,91.60196467161518L197.3488564811434,213.61733671663993L197.54034576552255,165.89967654348905L197.7318350499017,241.5892195289431L198.30630290303912,237.2428120413527L198.49779218741827,144.92407817522394L198.6892814717974,135.9034087834857L198.88077075617656,55.59150793593865L199.07226004055568,43.44702548769175L199.45523860931397,170.3511876568534L199.83821717807226,179.35502249563547L200.02970646245137,133.90557869556423L200.22119574683055,200.09132757868642L200.41268503120966,144.83785351208454L200.60417431558884,171.3241169807261L200.79566359996795,246.24517535448712L200.9871528843471,107.45626437473663L201.17864216872624,203.89854260747012L201.3701314531054,44.02275521690458L201.56162073748453,-697.911759497933L201.9637482346807,-129.1007619575881L202.346726803439,146.0959218209925L202.7297053721973,92.80397272099026L202.92119465657643,215.48657867786636L203.68715179409298,227.54533071586317L203.87864107847213,64.13309650435923L204.07013036285127,191.10930726515406L204.26161964723042,116.17807551942194L204.45310893160956,182.60299786887606L205.21906606912611,-72.49691411066473L205.4105553535053,134.1354362438012L205.9850232066427,109.76728604350016L206.1765124910218,26.22650595707118L206.77012927259716,140.90860295172882L206.96161855697633,62.946290475669684L207.15310784135545,62.98187668369803L207.34459712573462,175.8302804817569L207.53608641011374,218.913511040428L207.7275756944929,64.52301710192236L207.91906497887203,228.88378251740082L208.30204354763032,207.39981509778792L208.87651140076773,65.57889104703285L209.06800068514687,-26.018001451658943L209.25948996952602,11.972342494322103L209.45097925390516,228.1812993881274L209.6424685382843,53.71978722158565L210.0254471070426,113.7448685454836L210.21693639142174,208.17338077895636L210.59991496018,-515.2977780717587L210.79140424455915,141.59747166050656L211.17438281331744,185.07542306071096L211.36587209769658,245.84024369758205L211.57651031051364,97.6302922753939L211.76799959489279,17.32417268891544L211.9594888792719,194.89415360635766L212.15097816365108,109.91888688426741L212.3424674480302,134.7093836671406L212.53395673240934,106.16262483516061L212.72544601678848,190.16446798048892L212.91693530116763,193.4325279938667L213.2999138699259,22.973393349254096L213.68289243868418,179.5088399857243L214.06587100744247,225.67168541071402L214.25736029182164,60.90838097163547L214.44884957620076,51.87577462375304L214.64033886057987,290.65028900988466L215.40629599809645,218.3720195568182L215.78927456685474,8.97462383402159L215.9807638512339,195.11071125866485L216.3828913484301,252.8784385400272L216.5743806328092,100.71420564411324L216.76586991718838,158.02853453070023L216.9573592015675,157.27975638079735L217.14884848594667,94.06785224568732L217.53182705470493,196.73539539253827L218.2977841922215,227.42605101858297L218.48927347660063,98.84119687677604L218.6807627609798,172.2486993856108L218.87225204535892,222.4090696677985L219.0637413297381,230.9673055721717L219.82969846725462,165.6871777558181L220.0211877516338,76.96120558528541L220.2126770360129,229.95458889071176L220.78714488915037,214.252339349166L220.97863417352949,78.98645921988192L221.18927238634654,245.4115504585907L222.72118666137968,220.75424359635898L222.91267594575882,103.39975118407077L223.10416523013797,156.69214960488145L223.48714379889623,229.63132503508047L224.06161165203366,209.78789528519874L224.2531009364128,92.25572644789357L224.44459022079195,-118.26107718232676L224.6360795051711,165.44795935740532L224.82756878955024,206.58485948148217L225.01905807392936,196.26019370553342L225.21054735830853,106.5032100079572L225.40203664268765,167.11862398734223L225.59352592706682,153.9318969918408L225.78501521144594,194.2482774102674L226.18714270864214,261.48510373886995L226.3786319930213,105.58313578851717L226.57012127740043,157.802975484864L226.9530998461587,166.1402279269669L227.14458913053787,200.9783842073863L228.10203555243356,185.09058014931563L228.29352483681268,75.5347617920952L228.48501412119185,205.71969226483336L229.05948197432926,108.04613273205499L229.2509712587084,153.60489628481938L229.44246054308755,209.90645606918548L229.6339498274667,-114.51817493859087L230.39990696498327,154.8207733698149L230.80203446217945,135.73988596393457L230.9935237465586,261.77276266477253L231.18501303093774,106.980808072607L231.37650231531688,165.71729722734378L231.56799159969603,142.36194608398424L231.75948088407517,236.81661627718827L232.52543802159173,177.11066505748394L232.71692730597087,108.50334660936198L232.90841659035001,177.7544219570944L233.09990587472916,203.1758100870964L233.2913951591083,155.13068490875537L233.48288444348742,242.0484853046086L234.6318201497623,-32.14359203310435L234.8233094341414,104.62289228880272L235.01479871852058,-55.27049350009333L235.60841550009593,218.90250268062124L235.79990478447505,87.44394991032303L236.18288335323334,133.15516801339066L236.37437263761248,238.6599174504075L237.52330834388732,-503.84770595559354L237.71479762826647,146.482083101125L237.9062869126456,35.91934430087349L238.2892654814039,206.230292942863L238.48075476578305,149.34816574191325L238.86373333454134,213.04172680630933L239.05522261892045,194.98666127213505L239.43820118767874,161.0602517988393L239.6296904720579,110.05353335319623L239.82117975643703,206.28093139797406L240.41479653801238,198.81965982664306L240.6062858223915,112.00397507318769L240.79777510677067,16.02057320475238L240.9892643911498,242.43783676248106L241.37224295990808,241.99163124498085L241.5637322442872,71.45278708895117L241.75522152866637,213.30148665434788L242.13820009742466,148.94708701094052L242.32968938180377,229.85883862643342L242.52117866618295,158.9798665010473L242.71266795056206,216.11533575115516L244.62756079435349,218.2120463716537L244.81905007873263,154.72103912770177L245.01053936311177,169.87348475068163L245.41266686030798,-101.83849149805228L246.37011328220368,221.9378894020292L246.56160256658282,78.21711715431283L246.9445811353411,124.64179679174008L247.13607041972023,191.32988633869675L247.3275597040994,104.98369689797903L247.7105382728577,207.2067569237621L247.9020275572368,83.09215806171153L248.09351684161592,106.21618387552654L248.2850061259951,229.96219738973465L248.6679846947534,211.50852438903408L248.8594739791325,172.8015437083138L249.05096326351168,201.83699882891202L249.2424525478908,221.69289723122796L249.43394183226994,175.77793460757374L249.62543111664908,212.2807271304169L250.21904789822443,19.382181810447147L250.41053718260355,129.36619540942957L250.98500503574098,238.00820757248766L251.75096217325756,216.33716543428136L251.9424514576367,46.59895104944841L252.13394074201585,221.32330840024667L252.8998978795324,-384.4866516543399L253.2828764482907,108.71485689125437L253.47436573266984,31.452646144183912L253.66585501704895,32.18315191454362L253.85734430142813,76.43346331841383L254.04883358580724,226.5936617549098L254.24032287018642,141.91798717052617L254.43181215456553,-248.37282078405033L254.83393965176174,20.420951610116397L255.40840750489917,44.01574581229295L255.5998967892783,268.2754607120604L256.1743646424157,-404.2234575763791L256.3658539267949,160.836714696641L256.557343211174,207.10776406098287L256.7488324955532,113.63180445272013L256.9403217799323,126.42044818930513L257.32330034869057,115.81924792180276L257.5147896330697,114.4828330412634L257.70627891744886,-166.4137997169286L257.897768201828,87.50110351715645L258.08925748620715,187.3028336157042L258.47223605496544,-41.52463169057073L258.6637253393446,167.58913776057904L258.8552146237237,189.84706027272765L259.04670390810287,167.56649199183371L259.238193192482,-670.7318645199441L259.42968247686116,158.04767559713974" fill="none"></path></g></g></g></g></g></g><g transform="translate(61, 176)" clip-path="url(#clip_1)"><clipPath id="clip_1"><rect width="268" height="23"></rect></clipPath><g><g><line x1="0" y1="0" x2="0" y2="5" style="visibility: inherit;" fill="rgb(0, 0, 0)" stroke="rgb(204, 204, 204)" stroke-width="1px"></line><line x1="19.148928437914165" y1="0" x2="19.148928437914165" y2="5" style="visibility: inherit;" fill="rgb(0, 0, 0)" stroke="rgb(204, 204, 204)" stroke-width="1px"></line><line x1="38.29785687582833" y1="0" x2="38.29785687582833" y2="5" style="visibility: inherit;" fill="rgb(0, 0, 0)" stroke="rgb(204, 204, 204)" stroke-width="1px"></line><line x1="57.446785313742495" y1="0" x2="57.446785313742495" y2="5" style="visibility: inherit;" fill="rgb(0, 0, 0)" stroke="rgb(204, 204, 204)" stroke-width="1px"></line><line x1="76.59571375165666" y1="0" x2="76.59571375165666" y2="5" style="visibility: inherit;" fill="rgb(0, 0, 0)" stroke="rgb(204, 204, 204)" stroke-width="1px"></line><line x1="95.74464218957084" y1="0" x2="95.74464218957084" y2="5" style="visibility: inherit;" fill="rgb(0, 0, 0)" stroke="rgb(204, 204, 204)" stroke-width="1px"></line><line x1="114.89357062748499" y1="0" x2="114.89357062748499" y2="5" style="visibility: inherit;" fill="rgb(0, 0, 0)" stroke="rgb(204, 204, 204)" stroke-width="1px"></line><line x1="134.04249906539917" y1="0" x2="134.04249906539917" y2="5" style="visibility: inherit;" fill="rgb(0, 0, 0)" stroke="rgb(204, 204, 204)" stroke-width="1px"></line><line x1="153.19142750331332" y1="0" x2="153.19142750331332" y2="5" style="visibility: inherit;" fill="rgb(0, 0, 0)" stroke="rgb(204, 204, 204)" stroke-width="1px"></line><line x1="172.34035594122753" y1="0" x2="172.34035594122753" y2="5" style="visibility: inherit;" fill="rgb(0, 0, 0)" stroke="rgb(204, 204, 204)" stroke-width="1px"></line><line x1="191.48928437914168" y1="0" x2="191.48928437914168" y2="5" style="visibility: inherit;" fill="rgb(0, 0, 0)" stroke="rgb(204, 204, 204)" stroke-width="1px"></line><line x1="210.63821281705583" y1="0" x2="210.63821281705583" y2="5" style="visibility: inherit;" fill="rgb(0, 0, 0)" stroke="rgb(204, 204, 204)" stroke-width="1px"></line><line x1="229.78714125496998" y1="0" x2="229.78714125496998" y2="5" style="visibility: inherit;" fill="rgb(0, 0, 0)" stroke="rgb(204, 204, 204)" stroke-width="1px"></line><line x1="248.9360696928842" y1="0" x2="248.9360696928842" y2="5" style="visibility: inherit;" fill="rgb(0, 0, 0)" stroke="rgb(204, 204, 204)" stroke-width="1px"></line><line x1="268.08499813079834" y1="0" x2="268.08499813079834" y2="5" style="visibility: inherit;" fill="rgb(0, 0, 0)" stroke="rgb(204, 204, 204)" stroke-width="1px"></line></g><g transform="translate(0, 8)"><text style="text-anchor: middle; visibility: hidden; font-family: Roboto, sans-serif; font-size: 12px; font-weight: 200;" x="0" y="0" dx="0em" dy="0.95em" fill="rgb(255, 255, 255)" stroke="none" stroke-width="1px">-1k</text><text style="text-anchor: middle; visibility: inherit; font-family: Roboto, sans-serif; font-size: 12px; font-weight: 200;" x="19.148928437914165" y="0" dx="0em" dy="0.95em" fill="rgb(255, 255, 255)" stroke="none" stroke-width="1px">0</text><text style="text-anchor: middle; visibility: hidden; font-family: Roboto, sans-serif; font-size: 12px; font-weight: 200;" x="38.29785687582833" y="0" dx="0em" dy="0.95em" fill="rgb(255, 255, 255)" stroke="none" stroke-width="1px">1k</text><text style="text-anchor: middle; visibility: inherit; font-family: Roboto, sans-serif; font-size: 12px; font-weight: 200;" x="57.446785313742495" y="0" dx="0em" dy="0.95em" fill="rgb(255, 255, 255)" stroke="none" stroke-width="1px">2k</text><text style="text-anchor: middle; visibility: hidden; font-family: Roboto, sans-serif; font-size: 12px; font-weight: 200;" x="76.59571375165666" y="0" dx="0em" dy="0.95em" fill="rgb(255, 255, 255)" stroke="none" stroke-width="1px">3k</text><text style="text-anchor: middle; visibility: inherit; font-family: Roboto, sans-serif; font-size: 12px; font-weight: 200;" x="95.74464218957084" y="0" dx="0em" dy="0.95em" fill="rgb(255, 255, 255)" stroke="none" stroke-width="1px">4k</text><text style="text-anchor: middle; visibility: hidden; font-family: Roboto, sans-serif; font-size: 12px; font-weight: 200;" x="114.89357062748499" y="0" dx="0em" dy="0.95em" fill="rgb(255, 255, 255)" stroke="none" stroke-width="1px">5k</text><text style="text-anchor: middle; visibility: inherit; font-family: Roboto, sans-serif; font-size: 12px; font-weight: 200;" x="134.04249906539917" y="0" dx="0em" dy="0.95em" fill="rgb(255, 255, 255)" stroke="none" stroke-width="1px">6k</text><text style="text-anchor: middle; visibility: hidden; font-family: Roboto, sans-serif; font-size: 12px; font-weight: 200;" x="153.19142750331332" y="0" dx="0em" dy="0.95em" fill="rgb(255, 255, 255)" stroke="none" stroke-width="1px">7k</text><text style="text-anchor: middle; visibility: inherit; font-family: Roboto, sans-serif; font-size: 12px; font-weight: 200;" x="172.34035594122753" y="0" dx="0em" dy="0.95em" fill="rgb(255, 255, 255)" stroke="none" stroke-width="1px">8k</text><text style="text-anchor: middle; visibility: hidden; font-family: Roboto, sans-serif; font-size: 12px; font-weight: 200;" x="191.48928437914168" y="0" dx="0em" dy="0.95em" fill="rgb(255, 255, 255)" stroke="none" stroke-width="1px">9k</text><text style="text-anchor: middle; visibility: inherit; font-family: Roboto, sans-serif; font-size: 12px; font-weight: 200;" x="210.63821281705583" y="0" dx="0em" dy="0.95em" fill="rgb(255, 255, 255)" stroke="none" stroke-width="1px">10k</text><text style="text-anchor: middle; visibility: hidden; font-family: Roboto, sans-serif; font-size: 12px; font-weight: 200;" x="229.78714125496998" y="0" dx="0em" dy="0.95em" fill="rgb(255, 255, 255)" stroke="none" stroke-width="1px">11k</text><text style="text-anchor: middle; visibility: inherit; font-family: Roboto, sans-serif; font-size: 12px; font-weight: 200;" x="248.9360696928842" y="0" dx="0em" dy="0.95em" fill="rgb(255, 255, 255)" stroke="none" stroke-width="1px">12k</text><text style="text-anchor: middle; visibility: hidden; font-family: Roboto, sans-serif; font-size: 12px; font-weight: 200;" x="268.08499813079834" y="0" dx="0em" dy="0.95em" fill="rgb(255, 255, 255)" stroke="none" stroke-width="1px">13k</text></g><line x1="0" y1="0" x2="268.08499813079834" y2="0" fill="rgb(0, 0, 0)" stroke="rgb(204, 204, 204)" stroke-width="1px"></line></g></g></g></g></svg>