<svg viewBox="0 0 330 200" xmlns="http://www.w3.org/2000/svg"><g><g><g><g><g><line x1="61.91500186920166" y1="176.89999961853027" x2="56.91500186920166" y2="176.89999961853027" style="visibility: inherit;" fill="rgb(0, 0, 0)" stroke="rgb(204, 204, 204)" stroke-width="1px"></line><line x1="61.91500186920166" y1="162.15833298365274" x2="56.91500186920166" y2="162.15833298365274" style="visibility: inherit;" fill="rgb(0, 0, 0)" stroke="rgb(204, 204, 204)" stroke-width="1px"></line><line x1="61.91500186920166" y1="147.41666634877524" x2="56.91500186920166" y2="147.41666634877524" style="visibility: inherit;" fill="rgb(0, 0, 0)" stroke="rgb(204, 204, 204)" stroke-width="1px"></line><line x1="61.91500186920166" y1="132.6749997138977" x2="56.91500186920166" y2="132.6749997138977" style="visibility: inherit;" fill="rgb(0, 0, 0)" stroke="rgb(204, 204, 204)" stroke-width="1px"></line><line x1="61.91500186920166" y1="117.9333330790202" x2="56.91500186920166" y2="117.9333330790202" style="visibility: inherit;" fill="rgb(0, 0, 0)" stroke="rgb(204, 204, 204)" stroke-width="1px"></line><line x1="61.91500186920166" y1="103.19166644414267" x2="56.91500186920166" y2="103.19166644414267" style="visibility: inherit;" fill="rgb(0, 0, 0)" stroke="rgb(204, 204, 204)" stroke-width="1px"></line><line x1="61.91500186920166" y1="88.44999980926515" x2="56.91500186920166" y2="88.44999980926515" style="visibility: inherit;" fill="rgb(0, 0, 0)" stroke="rgb(204, 204, 204)" stroke-width="1px"></line><line x1="61.91500186920166" y1="73.70833317438763" x2="56.91500186920166" y2="73.70833317438763" style="visibility: inherit;" fill="rgb(0, 0, 0)" stroke="rgb(204, 204, 204)" stroke-width="1px"></line><line x1="61.91500186920166" y1="58.966666539510115" x2="56.91500186920166" y2="58.966666539510115" style="visibility: inherit;" fill="rgb(0, 0, 0)" stroke="rgb(204, 204, 204)" stroke-width="1px"></line><line x1="61.91500186920166" y1="44.22499990463259" x2="56.91500186920166" y2="44.22499990463259" style="visibility: inherit;" fill="rgb(0, 0, 0)" stroke="rgb(204, 204, 204)" stroke-width="1px"></line><line x1="61.91500186920166" y1="29.483333269755057" x2="56.91500186920166" y2="29.483333269755057" style="visibility: inherit;" fill="rgb(0, 0, 0)" stroke="rgb(204, 204, 204)" stroke-width="1px"></line><line x1="61.91500186920166" y1="14.741666634877529" x2="56.91500186920166" y2="14.741666634877529" style="visibility: inherit;" fill="rgb(0, 0, 0)" stroke="rgb(204, 204, 204)" stroke-width="1px"></line><line x1="61.91500186920166" y1="0" x2="56.91500186920166" y2="0" style="visibility: inherit;" fill="rgb(0, 0, 0)" stroke="rgb(204, 204, 204)" stroke-width="1px"></line></g><g transform="translate(51.91500186920166, 0)"><text style="text-anchor: end; visibility: hidden; font-family: Roboto, sans-serif; font-size: 12px; font-weight: 200;" x="0" y="176.89999961853027" dx="0em" dy="0.3em" fill="rgb(255, 255, 255)" stroke="none" stroke-width="1px">-0.05</text><text style="text-anchor: end; visibility: inherit; font-family: Roboto, sans-serif; font-size: 12px; font-weight: 200;" x="0" y="162.15833298365274" dx="0em" dy="0.3em" fill="rgb(255, 255, 255)" stroke="none" stroke-width="1px">0</text><text style="text-anchor: end; visibility: hidden; font-family: Roboto, sans-serif; font-size: 12px; font-weight: 200;" x="0" y="147.41666634877524" dx="0em" dy="0.3em" fill="rgb(255, 255, 255)" stroke="none" stroke-width="1px">0.05</text><text style="text-anchor: end; visibility: inherit; font-family: Roboto, sans-serif; font-size: 12px; font-weight: 200;" x="0" y="132.6749997138977" dx="0em" dy="0.3em" fill="rgb(255, 255, 255)" stroke="none" stroke-width="1px">0.1</text><text style="text-anchor: end; visibility: hidden; font-family: Roboto, sans-serif; font-size: 12px; font-weight: 200;" x="0" y="117.9333330790202" dx="0em" dy="0.3em" fill="rgb(255, 255, 255)" stroke="none" stroke-width="1px">0.15</text><text style="text-anchor: end; visibility: inherit; font-family: Roboto, sans-serif; font-size: 12px; font-weight: 200;" x="0" y="103.19166644414267" dx="0em" dy="0.3em" fill="rgb(255, 255, 255)" stroke="none" stroke-width="1px">0.2</text><text style="text-anchor: end; visibility: hidden; font-family: Roboto, sans-serif; font-size: 12px; font-weight: 200;" x="0" y="88.44999980926515" dx="0em" dy="0.3em" fill="rgb(255, 255, 255)" stroke="none" stroke-width="1px">0.25</text><text style="text-anchor: end; visibility: inherit; font-family: Roboto, sans-serif; font-size: 12px; font-weight: 200;" x="0" y="73.70833317438763" dx="0em" dy="0.3em" fill="rgb(255, 255, 255)" stroke="none" stroke-width="1px">0.3</text><text style="text-anchor: end; visibility: hidden; font-family: Roboto, sans-serif; font-size: 12px; font-weight: 200;" x="0" y="58.966666539510115" dx="0em" dy="0.3em" fill="rgb(255, 255, 255)" stroke="none" stroke-width="1px">0.35</text><text style="text-anchor: end; visibility: inherit; font-family: Roboto, sans-serif; font-size: 12px; font-weight: 200;" x="0" y="44.22499990463259" dx="0em" dy="0.3em" fill="rgb(255, 255, 255)" stroke="none" stroke-width="1px">0.4</text><text style="text-anchor: end; visibility: hidden; font-family: Roboto, sans-serif; font-size: 12px; font-weight: 200;" x="0" y="29.483333269755057" dx="0em" dy="0.3em" fill="rgb(255, 255, 255)" stroke="none" stroke-width="1px">0.45</text><text style="text-anchor: end; visibility: inherit; font-family: Roboto, sans-serif; font-size: 12px; font-weight: 200;" x="0" y="14.741666634877529" dx="0em" dy="0.3em" fill="rgb(255, 255, 255)" stroke="none" stroke-width="1px">0.5</text><text style="text-anchor: end; visibility: hidden; font-family: Roboto, sans-serif; font-size: 12px; font-weight: 200;" x="0" y="0" dx="0em" dy="0.3em" fill="rgb(255, 255, 255)" stroke="none" stroke-width="1px">0.55</text></g><line x1="61.91500186920166" y1="0" x2="61.91500186920166" y2="176.89999961853027" fill="rgb(0, 0, 0)" stroke="rgb(204, 204, 204)" stroke-width="1px"></line></g></g><g transform="translate(61, 0)" clip-path="url(#clip_0)"><clipPath id="clip_0"><rect width="268" height="176"></rect></clipPath><g><g><g><line x1="0" y1="0" x2="0" y2="176.89999961853027" fill="rgb(0, 0, 0)" stroke="rgb(189, 189, 189)" stroke-width="1px" opacity="0.25"></line><line x1="19.148928437914165" y1="0" x2="19.148928437914165" y2="176.89999961853027" fill="rgb(0, 0, 0)" stroke="rgb(189, 189, 189)" stroke-width="1px" opacity="0.25"></line><line x1="38.29785687582833" y1="0" x2="38.29785687582833" y2="176.89999961853027" fill="rgb(0, 0, 0)" stroke="rgb(189, 189, 189)" stroke-width="1px" opacity="0.25"></line><line x1="57.446785313742495" y1="0" x2="57.446785313742495" y2="176.89999961853027" fill="rgb(0, 0, 0)" stroke="rgb(189, 189, 189)" stroke-width="1px" opacity="0.25"></line><line x1="76.59571375165666" y1="0" x2="76.59571375165666" y2="176.89999961853027" fill="rgb(0, 0, 0)" stroke="rgb(189, 189, 189)" stroke-width="1px" opacity="0.25"></line><line x1="95.74464218957084" y1="0" x2="95.74464218957084" y2="176.89999961853027" fill="rgb(0, 0, 0)" stroke="rgb(189, 189, 189)" stroke-width="1px" opacity="0.25"></line><line x1="114.89357062748499" y1="0" x2="114.89357062748499" y2="176.89999961853027" fill="rgb(0, 0, 0)" stroke="rgb(189, 189, 189)" stroke-width="1px" opacity="0.25"></line><line x1="134.04249906539917" y1="0" x2="134.04249906539917" y2="176.89999961853027" fill="rgb(0, 0, 0)" stroke="rgb(189, 189, 189)" stroke-width="1px" opacity="0.25"></line><line x1="153.19142750331332" y1="0" x2="153.19142750331332" y2="176.89999961853027" fill="rgb(0, 0, 0)" stroke="rgb(189, 189, 189)" stroke-width="1px" opacity="0.25"></line><line x1="172.34035594122753" y1="0" x2="172.34035594122753" y2="176.89999961853027" fill="rgb(0, 0, 0)" stroke="rgb(189, 189, 189)" stroke-width="1px" opacity="0.25"></line><line x1="191.48928437914168" y1="0" x2="191.48928437914168" y2="176.89999961853027" fill="rgb(0, 0, 0)" stroke="rgb(189, 189, 189)" stroke-width="1px" opacity="0.25"></line><line x1="210.63821281705583" y1="0" x2="210.63821281705583" y2="176.89999961853027" fill="rgb(0, 0, 0)" stroke="rgb(189, 189, 189)" stroke-width="1px" opacity="0.25"></line><line x1="229.78714125496998" y1="0" x2="229.78714125496998" y2="176.89999961853027" fill="rgb(0, 0, 0)" stroke="rgb(189, 189, 189)" stroke-width="1px" opacity="0.25"></line><line x1="248.9360696928842" y1="0" x2="248.9360696928842" y2="176.89999961853027" fill="rgb(0, 0, 0)" stroke="rgb(189, 189, 189)" stroke-width="1px" opacity="0.25"></line><line x1="268.08499813079834" y1="0" x2="268.08499813079834" y2="176.89999961853027" fill="rgb(0, 0, 0)" stroke="rgb(189, 189, 189)" stroke-width="1px" opacity="0.25"></line></g><g><line x1="0" y1="176.89999961853027" x2="268.08499813079834" y2="176.89999961853027" fill="rgb(0, 0, 0)" stroke="rgb(189, 189, 189)" stroke-width="1px" opacity="0.25"></line><line x1="0" y1="162.15833298365274" x2="268.08499813079834" y2="162.15833298365274" fill="rgb(0, 0, 0)" stroke="rgb(189, 189, 189)" stroke-width="1px" opacity="0.25"></line><line x1="0" y1="147.41666634877524" x2="268.08499813079834" y2="147.41666634877524" fill="rgb(0, 0, 0)" stroke="rgb(189, 189, 189)" stroke-width="1px" opacity="0.25"></line><line x1="0" y1="132.6749997138977" x2="268.08499813079834" y2="132.6749997138977" fill="rgb(0, 0, 0)" stroke="rgb(189, 189, 189)" stroke-width="1px" opacity="0.25"></line><line x1="0" y1="117.9333330790202" x2="268.08499813079834" y2="117.9333330790202" fill="rgb(0, 0, 0)" stroke="rgb(189, 189, 189)" stroke-width="1px" opacity="0.25"></line><line x1="0" y1="103.19166644414267" x2="268.08499813079834" y2="103.19166644414267" fill="rgb(0, 0, 0)" stroke="rgb(189, 189, 189)" stroke-width="1px" opacity="0.25"></line><line x1="0" y1="88.44999980926515" x2="268.08499813079834" y2="88.44999980926515" fill="rgb(0, 0, 0)" stroke="rgb(189, 189, 189)" stroke-width="1px" opacity="0.25"></line><line x1="0" y1="73.70833317438763" x2="268.08499813079834" y2="73.70833317438763" fill="rgb(0, 0, 0)" stroke="rgb(189, 189, 189)" stroke-width="1px" opacity="0.25"></line><line x1="0" y1="58.966666539510115" x2="268.08499813079834" y2="58.966666539510115" fill="rgb(0, 0, 0)" stroke="rgb(189, 189, 189)" stroke-width="1px" opacity="0.25"></line><line x1="0" y1="44.22499990463259" x2="268.08499813079834" y2="44.22499990463259" fill="rgb(0, 0, 0)" stroke="rgb(189, 189, 189)" stroke-width="1px" opacity="0.25"></line><line x1="0" y1="29.483333269755057" x2="268.08499813079834" y2="29.483333269755057" fill="rgb(0, 0, 0)" stroke="rgb(189, 189, 189)" stroke-width="1px" opacity="0.25"></line><line x1="0" y1="14.741666634877529" x2="268.08499813079834" y2="14.741666634877529" fill="rgb(0, 0, 0)" stroke="rgb(189, 189, 189)" stroke-width="1px" opacity="0.25"></line><line x1="0" y1="0" x2="268.08499813079834" y2="0" fill="rgb(0, 0, 0)" stroke="rgb(189, 189, 189)" stroke-width="1px" opacity="0.25"></line></g></g></g><g><g><line x1="0" y1="162.15833298365274" x2="268.08499813079834" y2="162.15833298365274" fill="rgb(0, 0, 0)" stroke="rgb(153, 153, 153)" stroke-width="1.5px"></line></g></g><g><g><line x1="19.148928437914165" y1="0" x2="19.148928437914165" y2="176.89999961853027" fill="rgb(0, 0, 0)" stroke="rgb(153, 153, 153)" stroke-width="1.5px"></line></g></g><g><g><g><g><g><path style="fill: none;" stroke="rgb(51, 187, 238)" stroke-width="2px" d="M19.321268793855396,10.115125695907006L19.70424736261368,59.94204983512792L19.89573664699282,81.12046414460549L20.08722593137196,97.02502284222237L20.661693784509385,107.67002543305908L21.04467235326767,115.0707611057025L21.23616163764681,120.92198311002349L21.427650922025954,125.01037362657047L22.002118775163378,128.28218650468537L22.19360805954252,130.87414458517858L22.38509734392166,132.93916619411306L22.576586628300802,134.4130290542877L22.768075912679944,135.63911995840732L22.95956519705909,136.48349523902294L23.151054481438226,137.66060960252958L23.534033050196513,138.64311957609567L23.72552233457565,139.58322919413882L24.12764983177185,140.26959041612056L24.319139116150993,140.8401703369558L24.510628400530134,141.48056414716703L24.702117684909275,141.9308124340814L24.893606969288417,142.33928671138014L25.085096253667558,142.8630271237689L25.276585538046703,143.28317023497453L25.46807482242584,143.70218251844923L25.659564106804982,144.08390093723997L25.851053391184127,144.42677880193452L26.234031959942406,144.80017235770285L26.42552124432155,145.14808815521803L26.617010528700693,145.50855234181458L26.808499813079834,145.80598924652654L26.999989097458975,146.1586087127044L27.38296766621726,146.45282619453758L27.5744569505964,146.7065910827398L28.148924803733824,146.95851655070481L28.34041408811297,147.2488455955068L28.53190337249211,147.4901990832171L28.723392656871248,147.7199773813471L28.934030869688307,147.95446988957968L29.12552015406745,148.2007099266607L29.31700943844659,148.3955737976438L29.50849872282573,148.6413595721724L29.699988007204873,148.82742139792768L29.891477291584014,148.99369372060153L30.2744558603423,149.17164303803278L30.46594514472144,149.3535936472229L30.848923713479724,149.50657000175372L31.040412997858866,149.65615744965308L31.231902282238007,149.76341934068967L31.42339156661715,149.8481138412717L31.80637013537543,150.00427823931838L31.997859419754572,150.16038071738163L32.189348704133714,150.27974447025363L32.38083798851286,150.42826270355562L32.76381655727114,150.55159873305826L32.95530584165028,150.7057393249707L33.146795126029424,150.79719893169033L33.33828441040857,150.9277625341816L33.740411907604766,151.01548797146822L34.12339047636304,151.12050823555938L34.31487976074219,151.24134468720843L34.50636904512133,151.3540196648777L34.69785832950047,151.47368825445253L34.889347613879615,151.56280756088083L35.08083689825876,151.65606656373217L35.27232618263789,151.7491359183112L35.463815467017035,151.84366619667458L35.65530475139618,151.9349934212511L35.84679403577532,152.0282003204394L36.03828332015446,152.1117904267114L36.22977260453361,152.1915672400603L36.42126188891275,152.28328966442794L36.61275117329188,152.38354394590118L36.99572974205017,152.4774527639465L37.378708310808456,152.56544577586058L37.5701975951876,152.66196259795743L37.76168687956673,152.72312077953103L38.33615473270416,152.78152055891374L38.54679294552122,152.8421159124033L38.738282229900356,152.90925909903225L39.121260798658646,152.99280962077236L39.312750083037784,153.0571462115682L39.69572865179607,153.12785067263962L39.88721793617521,153.19561436523261L40.07870722055435,153.27073323040722L40.270196504933494,153.349094831242L40.46168578931264,153.4145111674615L40.65317507369178,153.4713913084777L40.84466435807092,153.5376958987608L41.2276429268292,153.603213960062L41.41913221120834,153.6750707735554L41.61062149558749,153.72935081121358L41.802110779966625,153.7925895362472L41.99360006434577,153.82602768440174L42.18508934872491,153.88465734901018L42.37657863310405,153.93043788682843L42.56806791748319,153.98090691741206L42.759557201862336,154.03312026013967L42.95104648624148,154.08470934872585L43.35317398343768,154.1268963141315L43.544663267816816,154.1861594545264L43.73615255219596,154.23432678091902L43.927641836575106,154.2883896454704L44.119131120954236,154.3375684433902L44.31062040533338,154.38404618914993L44.502109689712526,154.4297922018946L44.693598974091664,154.47519152342184L45.076577542849954,154.517669239706L45.45955611160823,154.56478355880893L45.651045395987374,154.61710892661583L45.84253468036652,154.66432955573814L46.03402396474566,154.7083495949397L46.2255132491248,154.7541153359791L46.41700253350395,154.80444275621102L46.79998110226222,154.85205518842534L46.99147038664137,154.89269027047763L47.182959671020505,154.93835633542045L47.37444895539965,154.98398899545194L47.565938239778795,155.03110464829615L47.75742752415793,155.07175776976382L48.15955502135413,155.11680834253136L48.54253359011241,155.15470665899073L48.73402287449155,155.19433732400552L48.925512158870696,155.23283556274615L49.308490727628985,155.2722931658968L49.49998001200812,155.31328613162836L49.69146929638726,155.34803130479034L49.882958580766406,155.3857795921873L50.074447865145544,155.41388404036897L50.26593714952469,155.45204363228476L50.457426433903834,155.49551386177927L50.64891571828297,155.530345905682L50.840405002662116,155.5599559501077L51.031894287041254,155.59454651871528L51.22338357142039,155.62504758527652L51.60636214017868,155.66132848727898L51.79785142455783,155.69370044183987L51.989340708936965,155.7156894524976L52.18082999331611,155.75008345905795L52.37231927769525,155.7855055000533L52.75529784645353,155.81096651192416L52.96593605927058,155.83654300747008L53.15742534364973,155.85654968734016L53.34891462802887,155.87777612921897L53.54040391240801,155.91037634254923L53.9233824811663,155.93597907495462L54.11487176554543,155.96540805350892L54.306361049924575,155.99599787290992L54.49785033430372,156.02287496102053L54.68933961868286,156.04840867248433L54.880828903062,156.08036967283036L55.07231818744115,156.10319065382927L55.64678604057857,156.12923131574127L55.83827532495771,156.14658653487493L56.02976460933685,156.17250254535162L56.221253893715996,156.19180458829038L56.41274317809514,156.22056643559233L56.79572174685342,156.23379152495224L57.1787003156117,156.25176507731368L57.370189599990844,156.28145333097964L57.56167888436999,156.30844377070468L57.77231709718704,156.33343111692267L58.155295665945324,156.35367417889742L58.34678495032447,156.37353020265218L58.53827423470361,156.38461822440235L58.72976351908275,156.40661691777683L58.92125280346189,156.4272802037361L59.112742087841035,156.44830865168083L59.30423137222018,156.46812943305824L59.49572065659932,156.4848518016348L59.687209940978455,156.50827304076975L59.8786992253576,156.52680898607366L60.26167779411588,156.54643573119205L60.45316707849503,156.56590011993697L60.644656362874166,156.5881962323582L60.83614564725331,156.6046232784948L61.21912421601159,156.62373085511433L61.41061350039073,156.64617983513673L61.602102784769876,156.65476895473114L61.79359206914902,156.67653162151262L61.98508135352816,156.69030782298418L62.176570637907304,156.71102987351347L62.36805992228644,156.73175935975954L62.5786981351035,156.75178714700263L62.770187419482646,156.76861516394072L63.34465527262007,156.7916123291136L63.536144556999204,156.81297370809665L63.72763384137835,156.83309073304827L63.919123125757494,156.8433566039452L64.11061241013662,156.85946523830125L64.30210169451577,156.8800532200394L64.49359097889491,156.89887371288978L64.68508026327406,156.91067502595138L64.87656954765319,156.925968245658L65.06805883203234,156.94443936758393L65.25954811641148,156.9582874453379L65.64252668516977,156.9620823590896L65.83401596954891,156.9791844858181L66.21699453830719,156.9977085461359L66.40848382268634,156.99680417277642L66.59997310706547,157.01269604638563L66.79146239144461,157.0296598080679L66.98295167582376,157.04819417534867L67.1744409602029,157.06656395913043L67.76805774177824,157.0815664002528L67.95954702615738,157.0829777164312L68.15103631053653,157.0947593859468L68.34252559491567,157.10914170841116L68.72550416367395,157.12649942354733L68.91699344805309,157.14021854528102L69.10848273243222,157.15590617258567L69.29997201681137,157.17328045829734L69.68295058556966,157.18921916838153L69.87443986994879,157.20605918443442L70.25741843870708,157.2215328792396L70.64039700746537,157.22967919203L70.83188629184451,157.2447420118625L71.21486486060279,157.25614683786154L71.40635414498193,157.2721729058569L71.78933271374021,157.28295481831313L71.98082199811935,157.28850503541128L72.19146021093641,157.29904652784182L72.38294949531556,157.31077801645512L72.76592806407383,157.3188650897552L72.95741734845298,157.33166795021486L73.14890663283212,157.34320988926032L73.34039591721127,157.35817994730542L73.5318852015904,157.36935780960357L73.72337448596954,157.37118601824352L73.91486377034867,157.380823248391L74.10635305472782,157.39024576127966L74.29784233910696,157.39900773176007L74.48933162348611,157.4101034678503L74.68082090786525,157.41521677711773L74.8723101922444,157.4204174240965L75.06379947662354,157.4307484645155L75.25528876100267,157.44399971556047L76.02124589851925,157.45563749667434L76.21273518289838,157.468624719008L76.40422446727752,157.48059417085173L76.59571375165666,157.49279455403104L76.7872030360358,157.50397567130858L76.99784124885286,157.51158623793697L77.18933053323201,157.51552198572173L77.5723091019903,157.52371555591674L77.76379838636944,157.53256294800212L77.95528767074856,157.539560717575L78.1467769551277,157.5481484923092L78.33826623950685,157.5496445962987L78.529755523886,157.55521311796178L78.72124480826514,157.56207662428008L79.10422337702343,157.57255831266318L79.29571266140256,157.5864742659746L79.4872019457817,157.59994386784658L79.67869123016085,157.60960475006564L79.87018051454,157.61764241908386L80.06166979891914,157.62459386256577L80.4446483676774,157.62988755496715L80.63613765205655,157.6421799998501L80.82762693643569,157.65347305258055L81.01911622081484,157.65986580695L81.21060550519398,157.66484753685756L81.59358407395227,157.6681007160122L81.80422228676933,157.67039792423915L82.18720085552759,157.67858747488324L82.57017942428588,157.6860980369544L82.76166870866503,157.69652371213866L82.95315799304417,157.70407019326532L83.14464727742332,157.71218399474827L83.33613656180245,157.7152384464247L83.52762584618159,157.7222104799376L83.91060441493988,157.72779972533365L84.10209369931903,157.73082994039643L84.29358298369817,157.73770285385706L84.67656155245645,157.7458209059201L84.86805083683558,157.7563850549403L85.05954012121472,157.76102618272884L85.25102940559387,157.76951151148853L85.44251868997301,157.78107080129263L85.63400797435216,157.78815612282753L85.82549725873129,157.79816828113616L86.01698654311043,157.80751156060128L86.20847582748958,157.81273560172434L86.39996511186872,157.81564199737045L86.61060332468577,157.82317420190722L86.99358189344406,157.82966410428725L87.1850711778232,157.8341580492561L87.37656046220233,157.83471511114843L87.56804974658148,157.84284933213485L87.95102831533977,157.84667686253502L88.14251759971891,157.85130598516443L88.5254961684772,157.85804858900607L88.71698545285633,157.86547971457713L88.90847473723548,157.8718694399103L89.09996402161462,157.87436327246442L89.29145330599376,157.8840522894678L89.4829425903729,157.88981728935315L89.67443187475205,157.8979938507536L89.86592115913118,157.90725128727442L90.05741044351032,157.90977269227034L90.24889972788947,157.91719034624384L91.01485686540605,157.9272121703364L91.20634614978518,157.93492350323845L91.41698436260224,157.94400923426915L91.79996293136051,157.94704231195206L91.99145221573966,157.95401165952853L92.56592006887709,157.95938267570855L92.75740935325622,157.96609559135035L93.14038792201451,157.966787207405L93.33187720639366,157.9732970115099L93.5233664907728,157.9804329459766L94.09783434391021,157.98193723328393L94.28932362828935,157.98408090379462L94.4808129126685,157.984132719422L94.67230219704764,157.98911434063592L94.86379148142679,157.99336258061535L95.05528076580593,158.0027897826948L95.24677005018506,158.00824277403032L95.43825933456421,158.00938244732933L95.62974861894335,158.01417465162226L95.8212379033225,158.02303631057583L96.01272718770164,158.0252666215317L96.22336540051869,158.03211419286643L96.41485468489783,158.0389059144962L96.60634396927698,158.04025013086195L96.79783325365612,158.045393940307L96.98932253803525,158.04781019866655L97.1808118224144,158.0516941366613L97.37230110679354,158.05773664184352L97.56379039117269,158.0624921644708L97.75527967555183,158.06825099047504L97.94676895993098,158.0733999217398L98.1382582443101,158.07733916656372L98.52123681306838,158.08321774912113L98.71272609744753,158.08110846900118L98.90421538182667,158.09016499636192L99.09570466620582,158.0953174517222L99.67017251934324,158.10242410333154L99.86166180372238,158.1070820936238L100.05315108810153,158.10892899081628L100.24464037248067,158.1162677100275L100.43612965685982,158.12030127839253L100.62761894123894,158.1184741194859L100.81910822561808,158.12290900438524L101.02974643843514,158.128198767295L101.22123572281428,158.12833958721865L101.41272500719343,158.13143719757133L101.79570357595172,158.140251754551L101.98719286033086,158.1450612189328L102.17868214471,158.14914922419143L102.75314999784742,158.15726539067285L102.94463928222656,158.1619554869475L103.1361285666057,158.16783198109383L103.32761785098485,158.17243237898833L103.51910713536398,158.1771236020841L103.71059641974313,158.18289196886025L103.90208570412227,158.1877084980829L104.09357498850142,158.1928755059951L104.4765535572597,158.196121054104L104.66804284163884,158.20086161587525L104.85953212601798,158.20307900429816L105.05102141039711,158.20292676410943L105.8361274763516,158.20290408345758L106.02761676073075,158.20704387762865L106.2191060451099,158.21245787746525L106.41059532948903,158.21719748367576L106.60208461386817,158.21680255794527L106.7935738982473,158.21111014443312L106.98506318262645,158.21738681265407L107.36804175138474,158.22451202647449L107.75102032014301,158.22545187986427L107.94250960452216,158.2255293706613L108.1339988889013,158.22898194992436L108.32548817328045,158.23394858399112L108.51697745765959,158.23657531857674L108.70846674203874,158.23920893365113L108.89995602641787,158.2452749870892L109.28293459517616,158.24297758145644L109.47442387955529,158.242475653657L109.66591316393443,158.24295840206253L109.85740244831358,158.2485944605284L110.24038101707185,158.25077150341835L110.431870301451,158.2533153226834L110.64250851426806,158.25709010887897L111.21697636740548,158.26087821534207L111.40846565178462,158.26055437967648L111.59995493616375,158.25963824806078L111.7914442205429,158.26405026891445L111.98293350492204,158.2654921424319L112.17442278930119,158.26990390716912L112.36591207368033,158.27442819525857L112.74889064243862,158.2733488677865L112.94037992681776,158.2748992170769L113.1318692111969,158.27740825638529L113.32335849557604,158.28186583669236L113.51484777995519,158.2869270079851L113.70633706433432,158.28505984596393L114.28080491747174,158.2872491333519L114.47229420185089,158.28598412861334L114.85527277060918,158.28924882878752L115.04676205498832,158.29361454412933L115.23825133936747,158.29912829645096L115.64037883656366,158.3040495013453L115.83186812094279,158.30392595551334L116.02335740532193,158.30719455642114L116.59782525845937,158.30906888450235L116.78931454283851,158.30971161647267L116.98080382721764,158.31044934189197L117.17229311159679,158.3130072671979L117.36378239597593,158.3159769779906L117.55527168035508,158.32047771221747L117.74676096473422,158.32443827513217L117.93825024911337,158.32349765057515L118.1297395334925,158.32625296587358L118.51271810225077,158.32691848928926L118.70420738662992,158.33094609629197L118.89569667100906,158.33090261363725L119.08718595538821,158.3295208089929L119.27867523976735,158.3318807902335L119.47016452414648,158.3350026106188L119.85314309290477,158.33341070377182L120.44675987448011,158.3375526074421L120.63824915885925,158.34176762363654L120.8297384432384,158.34400439191364L121.21271701199667,158.34370639088155L121.40420629637582,158.34276434276038L121.59569558075496,158.3475152196494L121.78718486513411,158.34763666901856L121.97867414951325,158.34651389302022L122.1701634338924,158.3487599974316L122.36165271827153,158.35302639107198L122.55314200265066,158.3561335948478L122.7446312870298,158.36004611640982L122.93612057140895,158.36084706745075L123.1276098557881,158.36634801671843L123.31909914016724,158.36943211188694L123.51058842454637,158.362483431794L123.70207770892551,158.36824846019582L123.89356699330466,158.37151603637255L124.27654556206295,158.37483541116111L124.4680348464421,158.37631694517535L124.65952413082124,158.37492152671533L125.06165162801743,158.37271416165487L125.4446301967757,158.37365501020147L125.63611948115485,158.3769330806579L125.827608765534,158.38240256870668L126.01909804991314,158.38430771336013L126.21058733429228,158.38656592990571L126.59356590305056,158.38846101799072L126.7850551874297,158.3893231722017L126.97654447180884,158.39033834159923L127.16803375618798,158.3917590246283L127.35952304056713,158.39737351842302L127.55101232494627,158.39792689824228L127.7425016093254,158.4014824329139L128.12548017808368,158.40045959660608L128.31696946246282,158.40277504352844L128.50845874684197,158.40449414130072L128.6999480312211,158.39675446328465L128.89143731560026,158.3993082241841L129.0829265999794,158.4050935464688L129.27441588435855,158.40816892612116L129.4659051687377,158.41276883705805L129.8680326659339,158.41271277926228L130.059521950313,158.4108622029627L130.25101123469216,158.41386881897756L130.8254790878296,158.41672603491267L131.59143622534617,158.41574570598985L131.7829255097253,158.41902476621425L131.97441479410443,158.4184524915754L132.35739336286272,158.42201788489777L132.54888264724187,158.4253393859411L132.740371931621,158.43063871388594L132.93186121600013,158.4314715814368L133.12335050037927,158.4285879077451L133.31483978475842,158.42664565142346L133.50632906913756,158.429678738034L133.6978183535167,158.42899811751474L133.88930763789585,158.4275468539649L134.080796922275,158.43069705980375L134.27228620665414,158.43347091023494L134.4637754910333,158.4340646621236L134.8659029882295,158.4371155983624L135.0573922726086,158.43611040996328L135.24888155698775,158.43345640742422L135.4403708413669,158.43304143304186L135.63186012574604,158.43501613387676L135.8233494101252,158.43426770745168L136.01483869450433,158.4344230091305L136.20632797888348,158.4381974754385L136.39781726326262,158.4341546228124L136.58930654764174,158.43189734253858L136.97228511640003,158.43354835780764L137.16377440077918,158.43274196336077L137.35526368515832,158.43400707385976L137.54675296953747,158.43491900529145L137.7382422539166,158.43649164996086L137.92973153829573,158.4413470879644L138.1212208226749,158.4388766187205L138.31271010705402,158.44193544757061L138.5041993914332,158.44317753325782L138.6956886758123,158.443936771399L138.88717796019145,158.4421367968731L139.0786672445706,158.44168140312627L139.48079474176677,158.44159677646041L139.67228402614595,158.44339253335423L139.86377331052506,158.44489436695835L140.05526259490424,158.44749006276166L140.24675187928335,158.44799374424616L140.8212197324208,158.45134294622457L141.01270901679993,158.4510809696495L141.20419830117908,158.45385091366032L141.39568758555822,158.45400377463943L141.58717686993734,158.4545251939967L141.77866615431648,158.45448205641026L142.16164472307477,158.45885569285386L142.35313400745392,158.4526331716062L142.54462329183306,158.45298684438276L142.7361125762122,158.45020415446743L142.92760186059135,158.45450166498927L143.11909114497047,158.4561958545473L143.31058042934964,158.45815728705162L143.50206971372876,158.45866869268727L143.88504828248705,158.4559533517741L144.0765375668662,158.45568562512963L144.4786650640624,158.45779317430927L144.6701543484415,158.46315283975875L144.8616436328207,158.46504295149788L145.0531329171998,158.47004223920908L145.24462220157898,158.47070493411454L145.81909005471638,158.4701439480661L146.0105793390955,158.47301168815434L146.20206862347467,158.47455109066064L146.3935579078538,158.47482959291636L146.77653647661208,158.47685707082582L147.15951504537037,158.47462364371447L147.54249361412866,158.47625625580943L147.92547218288695,158.47318831420407L148.1169614672661,158.4741308856411L148.30845075164524,158.47453719699072L148.49994003602436,158.47405766358006L148.6914293204035,158.4763306189992L149.0935568175997,158.47755897906916L149.28504610197885,158.47500351665178L149.476535386358,158.47333137659274L149.66802467073714,158.47196381525956L149.85951395511628,158.47087990596788L150.0510032394954,158.47294952227531L150.4339818082537,158.47666577678L150.62547109263284,158.47847291162648L150.81696037701198,158.4791376676667L151.00844966139113,158.48191676405037L151.39142823014942,158.48233301548933L151.58291751452853,158.48203623027192L151.7744067989077,158.48063988815662L151.96589608328682,158.48338304180214L152.3488746520451,158.48188763867347L152.54036393642423,158.48173637784402L152.7318532208034,158.48279689371475L152.92334250518252,158.4835263944899L153.1148317895617,158.4861613615638L153.3063210739408,158.48673534619004L153.49781035831998,158.48761896005797L153.6892996426991,158.48653421468444L153.89993785551616,158.48594342364586L154.28291642427445,158.48712905847395L154.47440570865356,158.48737128689172L154.85738427741185,158.48963736502768L155.04887356179103,158.49344304928584L155.24036284617014,158.49167605025193L155.4318521305493,158.49200934605747L155.62334141492843,158.49032001445872L155.81483069930758,158.49240487789302L156.00631998368672,158.48892420346914L156.19780926806587,158.49160679005232L156.389298552445,158.49481861585625L156.77227712120327,158.49665931259253L156.96376640558245,158.4965070264267L157.15525568996156,158.4980833756488L157.3467449743407,158.50073582425495L157.53823425871985,158.50395152444668L157.729723543099,158.50583997822383L157.92121282747814,158.50744446909158L158.11270211185726,158.5080382972279L158.30419139623643,158.5106865685689L158.49568068061555,158.5088785423873L158.7063188934326,158.50808829073017L158.89780817781175,158.5072102583833L159.0892974621909,158.50203917636193L159.28078674657004,158.49847037262418L159.4722760309492,158.5013769324329L159.6637653153283,158.49908626066176L159.85525459970748,158.49657970918884L160.0467438840866,158.49735593180645L160.23823316846577,158.49803493530067L160.42972245284489,158.49528654054487L160.62121173722403,158.4960905739168L160.81270102160317,158.49708430574378L161.19567959036146,158.49456721954402L161.38716887474058,158.4904120799586L161.57865815911975,158.49284355741852L161.96163672787802,158.49806421678394L162.15312601225716,158.49758013207475L162.3446152966363,158.49393704059824L162.53610458101545,158.49158667814015L162.7275938653946,158.49352849320817L163.7041892157282,158.48910238180957L163.89567850010735,158.49021735637584L164.0871677844865,158.48877274797883L164.4701463532448,158.48776394455666L164.66163563762393,158.48848674833178L164.85312492200305,158.48784708492252L165.04461420638222,158.48481595726165L165.23610349076134,158.48863943284013L165.61908205951963,158.48914036303242L165.8105713438988,158.4860836290938L166.00206062827792,158.486492756841L166.19354991265703,158.49055904230747L166.3850391970362,158.48995074314888L166.57652848141532,158.4894417809947L166.7680177657945,158.49082578998525L166.9595070501736,158.49073100403587L167.1509963345528,158.4924076173174L167.3424856189319,158.49463532611807L167.53397490331105,158.49469591135824L167.7254641876902,158.4901733677454L167.91695347206934,158.49240468296566L168.31908096926554,158.492086876084L168.51057025364466,158.49295334464125L168.70205953802383,158.49197464570892L168.89354882240295,158.49232757573378L169.0850381067821,158.49032360453933L169.27652739116124,158.48759661743134L169.46801667554038,158.4863662405371L169.65950595991953,158.48738614083652L169.85099524429867,158.48961254634946L170.42546309743608,158.4888050828426L170.61695238181522,158.48933900049587L170.80844166619437,158.48959598135403L170.9999309505735,158.4895124681893L171.19142023495266,158.48956975124182L171.38290951933178,158.49174835380654L171.76588808809007,158.49374829642207L171.95737737246924,158.49469422339052L172.14886665684836,158.49330744460954L172.34035594122753,158.49478149702097L172.53184522560665,158.49163968670518L172.72333450998576,158.49002235620978L172.91482379436493,158.49085484602693L173.125462007182,158.49072334602627L173.50844057594028,158.48971392490031L173.6999298603194,158.48913482521903L173.89141914469857,158.48724738837106L174.0829084290777,158.48283251503676L174.27439771345684,158.48121788413476L174.46588699783598,158.4808855770482L174.6573762822151,158.48037909349497L174.84886556659427,158.4812421011888L175.0403548509734,158.48311462434324L175.23184413535256,158.48604266795545L175.61482270411082,158.48548097893402L175.80631198848997,158.48525206284393L175.9978012728691,158.48339563371195L176.3807798416274,158.48429199815442L176.57226912600655,158.48188672267887L176.7637584103857,158.4847970245738L176.9552476947648,158.4890610531401L177.14673697914395,158.48755013335267L177.3382262635231,158.4894732517238L177.52971554790224,158.4911379241897L177.7212048322814,158.48961397080296L177.93184304509845,158.4878517122664L178.1233323294776,158.48607995712132L178.31482161385674,158.48812375576668L178.50631089823585,158.4896020528397L178.69780018261503,158.49258855614508L178.88928946699414,158.49281751075608L179.27226803575243,158.49375742773856L179.46375732013158,158.49205175456405L179.65524660451072,158.49232050843668L179.84673588888984,158.49218840484446L180.038225173269,158.49179213258807L180.22971445764813,158.4934485234771L180.61269302640642,158.49644624312845L180.80418231078556,158.49840907056665L181.18716087954385,158.5003974199965L181.378650163923,158.5005310090399L181.7616287326813,158.50294646794362L182.14460730143955,158.50163743544374L182.7382240830149,158.50212196645882L182.92971336739404,158.50394655842211L183.50418122053145,158.51021401083847L183.6956705049106,158.50970879618725L183.88715978928974,158.50508535415082L184.07864907366888,158.50588884437934L184.27013835804803,158.5090351185195L184.65311692680632,158.5134014753734L184.84460621118546,158.51013433275875L185.03609549556458,158.50767684697192L185.61056334870204,158.51015552829898L185.80205263308116,158.51330161026564L186.18503120183945,158.51402556034185L186.37652048621857,158.51385907051565L186.56800977059774,158.51641075867232L186.75949905497686,158.51458756638465L186.95098833935603,158.51572521051887L187.14247762373515,158.51581543381278L187.3339669081143,158.51558327461933L187.7360944053105,158.51617955484446L187.9275836896896,158.51884303067456L188.11907297406879,158.51624995888403L188.50205154282708,158.51629927501014L188.6935408272062,158.5164932104669L188.88503011158537,158.51645381595392L189.07651939596448,158.51268603350997L189.26800868034363,158.51075751937339L189.45949796472277,158.5125649313348L189.65098724910192,158.51313218557337L189.84247653348106,158.51305796357903L190.0339658178602,158.51409717626544L190.22545510223932,158.51359083376383L190.41694438661847,158.51138124360628L190.79992295537676,158.5111747385067L190.9914122397559,158.50830578005835L191.3743908085142,158.5070268718411L191.75736937727248,158.50577350874613L191.9488586616516,158.50485012607484L192.54247544322695,158.50165316254282L192.7339647276061,158.50104976441938L193.11694329636435,158.49740450793234L193.30843258074353,158.4979627682777L193.49992186512264,158.49738977514502L193.69141114950182,158.49714101960245L193.88290043388093,158.49880208274743L194.26587900263922,158.5002898439849L194.45736828701837,158.5005349873016L194.84034685577663,158.49766991473913L195.0318361401558,158.4977189794343L195.4148147089141,158.49980042917088L195.6063039932932,158.49879568984667L195.79779327767235,158.4945539269497L195.9892825620515,158.49318048568244L196.18077184643064,158.4930641010375L196.3722611308098,158.49416044956075L196.56375041518893,158.49370760702737L196.75523969956805,158.49363365835404L196.94672898394722,158.4964229911175L197.3488564811434,158.4956956702608L197.54034576552255,158.49562456429496L197.7318350499017,158.4959814101038L197.92332433428084,158.4940039523592L198.11481361865998,158.49318362513083L198.30630290303912,158.49364113132225L198.49779218741827,158.49040701312992L198.6892814717974,158.490477557771L198.88077075617656,158.48910734867508L199.07226004055568,158.48489902546075L199.45523860931397,158.48493968334012L199.83821717807226,158.4820163104672L200.02970646245137,158.47963086333226L200.22119574683055,158.47837524550792L200.41268503120966,158.47925516521914L200.60417431558884,158.47683202866878L200.79566359996795,158.47622328184426L200.9871528843471,158.47643831335287L201.17864216872624,158.4762841807839L201.3701314531054,158.47592480275466L201.56162073748453,158.47416202157086L201.75311002186365,158.47695860675134L201.9637482346807,158.47683191603772L202.346726803439,158.47707035717755L202.7297053721973,158.47531142118783L202.92119465657643,158.47795333091972L203.11268394095558,158.47889484002005L203.30417322533472,158.4778601581774L203.68715179409298,158.47823966629304L203.87864107847213,158.47920595785826L204.07013036285127,158.47917920826637L204.26161964723042,158.47700296792368L204.45310893160956,158.4780965670293L204.6445982159887,158.47903597201548L204.83608750036785,158.47495258283917L205.21906606912611,158.47274970448865L205.4105553535053,158.46961288778482L205.9850232066427,158.46308146234486L206.1765124910218,158.46502362981644L206.77012927259716,158.4597811151425L206.96161855697633,158.45939824710644L207.15310784135545,158.46103344253913L207.34459712573462,158.4635887197768L207.53608641011374,158.46302579026738L207.7275756944929,158.4586581373714L207.91906497887203,158.45527970970545L208.11055426325115,158.45568599225766L208.30204354763032,158.45535929739708L208.87651140076773,158.45688440301228L209.06800068514687,158.4539343845548L209.25948996952602,158.4529702669331L209.45097925390516,158.45207573547435L209.6424685382843,158.44843277201429L210.0254471070426,158.44917441257454L210.21693639142174,158.44965323286723L210.40842567580086,158.45092596531524L210.59991496018,158.4500617723145L210.79140424455915,158.4444901464389L211.17438281331744,158.44455527675473L211.36587209769658,158.4461815277514L211.57651031051364,158.44781276490784L211.76799959489279,158.44537635524614L211.9594888792719,158.44440359229662L212.15097816365108,158.4434292868823L212.3424674480302,158.44367000276458L212.53395673240934,158.44283786593104L212.72544601678848,158.44391365890607L212.91693530116763,158.44219261482027L213.2999138699259,158.4415292740119L213.68289243868418,158.44339969145327L214.06587100744247,158.44257648387526L214.25736029182164,158.44249343471003L214.44884957620076,158.44267043878796L214.64033886057987,158.44543324910524L214.83182814495905,158.4440411836426L215.40629599809645,158.4459246843844L215.78927456685474,158.44566543147866L215.9807638512339,158.4464876911573L216.3828913484301,158.44386188987482L216.5743806328092,158.44496974697148L216.76586991718838,158.44296529784745L216.9573592015675,158.44517667102505L217.14884848594667,158.44643989786462L217.53182705470493,158.4495129050723L218.2977841922215,158.447907774182L218.48927347660063,158.44731805527715L218.6807627609798,158.4470857585334L218.87225204535892,158.445838903743L219.0637413297381,158.44337724056786L219.82969846725462,158.4422653698141L220.0211877516338,158.44059687201363L220.2126770360129,158.44052614790476L220.40416632039208,158.44358772094856L220.78714488915037,158.444094950635L220.97863417352949,158.44381260886314L221.18927238634654,158.44005164224757L221.57225095510483,158.43783654323553L221.76374023948395,158.43555778342895L221.95522952386312,158.43567665187038L222.33820809262141,158.43444932610493L222.72118666137968,158.43419867376048L222.91267594575882,158.43467402875686L223.10416523013797,158.43282695828347L223.48714379889623,158.4347035252329L223.6786330832754,158.43537477316667L223.87012236765452,158.4363219027317L224.06161165203366,158.43600620735288L224.2531009364128,158.43555683573527L224.44459022079195,158.4373892604033L224.6360795051711,158.43704428228082L224.82756878955024,158.43527472961506L225.01905807392936,158.43637012159152L225.21054735830853,158.43543330776768L225.40203664268765,158.43235074837145L225.59352592706682,158.4277163222249L225.78501521144594,158.4272586966226L226.18714270864214,158.42646571671466L226.3786319930213,158.4234268938094L226.57012127740043,158.424827523711L226.9530998461587,158.42126407850043L227.14458913053787,158.42018095088127L227.33607841491698,158.42064809983208L227.52756769929616,158.4184994099526L227.9105462680544,158.41850896371494L228.10203555243356,158.41911684027767L228.29352483681268,158.41726351655862L228.48501412119185,158.41448033343718L229.05948197432926,158.41710944953775L229.2509712587084,158.4172058302238L229.44246054308755,158.41775834919432L229.6339498274667,158.42055778147073L230.39990696498327,158.4204913378256L230.80203446217945,158.41686372414685L230.9935237465586,158.4166312309658L231.18501303093774,158.41482214845647L231.37650231531688,158.4160245991249L231.56799159969603,158.41805986688476L231.75948088407517,158.41734213883078L231.95097016845432,158.41804661888264L232.14245945283344,158.41322162001936L232.33394873721258,158.41149456767187L232.52543802159173,158.40820286165624L232.71692730597087,158.40713505298393L232.90841659035001,158.40336346369526L233.09990587472916,158.40165867971692L233.2913951591083,158.3997720941326L233.48288444348742,158.40020665075588L233.8658630122457,158.39876011415717L234.05735229662488,158.3972853611874L234.248841581004,158.39820547601968L234.44033086538317,158.398191766805L234.6318201497623,158.39914787243094L234.8233094341414,158.4015661564102L235.01479871852058,158.39882114267434L235.60841550009593,158.39738229357914L235.79990478447505,158.39110463614435L236.18288335323334,158.38652354364956L236.37437263761248,158.38700119488604L236.56586192199163,158.38847457941355L236.75735120637074,158.39127079819818L236.94884049074992,158.39149251013188L237.14032977512903,158.388016110902L237.33181905950818,158.38819666369739L237.52330834388732,158.3889104327854L237.71479762826647,158.38647618938037L237.9062869126456,158.38486606044694L238.2892654814039,158.3875724123508L238.48075476578305,158.38489330144313L238.86373333454134,158.3836531733784L239.05522261892045,158.3853204180833L239.43820118767874,158.38645346143252L239.6296904720579,158.38735557657643L239.82117975643703,158.3876196259649L240.01266904081615,158.3874833390526L240.20415832519532,158.38423243827475L240.41479653801238,158.37658555799032L240.6062858223915,158.37620016566248L240.79777510677067,158.3766131845558L240.9892643911498,158.37541792045218L241.37224295990808,158.375750576033L241.5637322442872,158.37352165861358L241.75522152866637,158.36963721566843L242.13820009742466,158.36719968026335L242.32968938180377,158.36747765245212L242.52117866618295,158.36825655589283L242.71266795056206,158.36679558829027L242.9041572349412,158.36395251132024L243.09564651932035,158.36645043336378L243.2871358036995,158.3650141216351L243.47862508807864,158.36536066690545L243.67011437245776,158.36344437275557L243.86160365683693,158.36096275867416L244.62756079435349,158.35895952546153L244.81905007873263,158.35584301425934L245.01053936311177,158.35549028267522L245.41266686030798,158.35158174351892L245.6041561446871,158.34867642459164L245.79564542906624,158.34834646472373L245.98713471344539,158.35052428815288L246.17862399782453,158.34944505270056L246.37011328220368,158.3490136358924L246.56160256658282,158.34740398595852L246.9445811353411,158.34629212974306L247.13607041972023,158.34648888494078L247.3275597040994,158.34506146098602L247.7105382728577,158.3444083448405L247.9020275572368,158.34469867711948L248.09351684161592,158.34760458500784L248.2850061259951,158.34818050854227L248.6679846947534,158.34878033585713L248.8594739791325,158.34905736738776L249.05096326351168,158.3476558394342L249.2424525478908,158.34860194093162L249.43394183226994,158.34864980993368L249.62543111664908,158.344563021809L250.21904789822443,158.34659443029884L250.41053718260355,158.34152127041287L250.98500503574098,158.33990609607358L251.17649432012013,158.3435035460167L251.36798360449927,158.34526093292854L251.75096217325756,158.34139621143677L251.9424514576367,158.34135097160973L252.13394074201585,158.341566370581L252.5169193107741,158.3396822515041L252.70840859515326,158.3372443922829L252.8998978795324,158.33933734035966L253.2828764482907,158.33817833692834L253.47436573266984,158.33683482793543L253.66585501704895,158.3364314292288L253.85734430142813,158.33718370380973L254.04883358580724,158.33715653093464L254.24032287018642,158.33645168009528L254.43181215456553,158.33590936426012L254.83393965176174,158.33717296975345L255.40840750489917,158.33091384117645L255.5998967892783,158.33145121075125L256.1743646424157,158.33115777139628L256.3658539267949,158.32828886634013L256.557343211174,158.32574991084797L256.7488324955532,158.3264503118362L256.9403217799323,158.3223154066697L257.32330034869057,158.31944011797688L257.5147896330697,158.31805657270004L257.70627891744886,158.31925504398515L257.897768201828,158.31748548399514L258.08925748620715,158.31287245468016L258.2807467705863,158.3111138718943L258.47223605496544,158.30941363088667L258.6637253393446,158.31012379943127L258.8552146237237,158.31183181124678L259.04670390810287,158.30665021597233L259.238193192482,158.30686715237158L259.42968247686116,158.3066236857947" fill="none"></path></g></g></g></g><g opacity="0.2"><g><g><g><path style="fill: none;" stroke="rgb(51, 187, 238)" stroke-width="2px" d="M19.321268793855396,10.115125695907006L19.70424736261368,109.71914705021253L19.89573664699282,123.41377869904389L20.08722593137196,144.64333518521997L20.661693784509385,150.14369216730734L21.04467235326767,151.96357633757586L21.23616163764681,155.90664406196092L21.427650922025954,153.51486097184326L22.002118775163378,154.33917868643817L22.19360805954252,154.08543968730817L22.38509734392166,153.47614614302574L22.576586628300802,150.52856908887122L22.768075912679944,150.256925504242L22.95956519705909,147.38384224556015L23.151054481438226,154.01714766725624L23.534033050196513,153.26341640445924L23.72552233457565,154.4977652176633L24.12764983177185,151.8332758992044L24.319139116150993,151.0135904325218L24.510628400530134,153.5270986733819L24.702117684909275,150.84182217673953L24.893606969288417,150.8235150497205L25.085096253667558,154.2537327961089L25.276585538046703,152.83134821702663L25.46807482242584,153.633732086735L25.659564106804982,153.50378970712333L25.851053391184127,153.2222500813109L26.234031959942406,154.7418712279812L26.42552124432155,154.74973973397857L26.617010528700693,155.8066654891771L26.808499813079834,154.5921158975478L26.999989097458975,156.9166492920401L27.38296766621726,155.71403206349785L27.5744569505964,154.9399771218936L28.148924803733824,155.37572255082245L28.34041408811297,157.2295108217861L28.53190337249211,156.02004269902855L28.723392656871248,156.06216183191347L28.934030869688307,156.69355012785644L29.12552015406745,157.61441465267396L29.31700943844659,156.03239792292086L29.50849872282573,158.50974909366548L29.699988007204873,156.47627765606757L29.891477291584014,155.98828969674153L30.2744558603423,156.82774198397618L30.46594514472144,157.35578474661955L30.848923713479724,156.38056832990736L31.040412997858866,156.5205912717809L31.231902282238007,154.78780379649186L31.42339156661715,153.8960342917568L31.80637013537543,157.61660199629398L31.997859419754572,157.91802321916273L32.189348704133714,156.3249379705391L32.38083798851286,158.09083681980584L32.76381655727114,157.03178440425873L32.95530584165028,158.95031211534013L33.146795126029424,155.7756077359543L33.33828441040857,158.15804011057665L33.740411907604766,155.95627748627257L34.12339047636304,157.13436109973057L34.31487976074219,158.27468763663651L34.50636904512133,158.01832415466436L34.69785832950047,158.66410976268722L34.889347613879615,157.00131645948383L35.08083689825876,157.43467519612733L35.27232618263789,157.6032028004655L35.463815467017035,157.87811504420256L35.65530475139618,157.850377572056L35.84679403577532,158.15241002099785L36.03828332015446,157.68213773273337L36.22977260453361,157.5821819504994L36.42126188891275,158.56651650926403L36.61275117329188,159.34451174473566L36.99572974205017,159.08512975053472L37.378708310808456,158.83858432762324L37.5701975951876,159.6323143784101L37.76168687956673,157.19658589098162L38.33615473270416,157.1072897706448L38.54679294552122,157.3865613248653L38.738282229900356,158.00681025902358L39.121260798658646,159.4131393075824L39.312750083037784,158.06033510108352L39.69572865179607,158.69137769458894L39.88721793617521,158.59010472840504L40.07870722055435,159.31981337868834L40.270196504933494,159.73127506482697L40.46168578931264,158.80238414767243L40.65317507369178,158.2083377558545L40.84466435807092,159.12022170567377L41.2276429268292,159.17945407026514L41.41913221120834,159.85647110648435L41.61062149558749,158.4482854518639L41.802110779966625,159.3480418087049L41.99360006434577,156.79399933922485L42.18508934872491,159.14199629129604L42.37657863310405,158.0772215256308L42.56806791748319,158.59821953709223L42.759557201862336,158.85740080970317L42.95104648624148,158.8980824904351L43.35317398343768,158.1012397447855L43.544663267816816,159.822833490472L43.73615255219596,158.85918643555817L43.927641836575106,159.52813630357699L44.119131120954236,159.14831696199516L44.31062040533338,158.9724582143842L44.502109689712526,158.98714960693317L44.693598974091664,159.0388415945287L45.076577542849954,158.82579773079257L45.45955611160823,159.38544933863025L45.651045395987374,160.0178805081696L45.84253468036652,159.58051420434884L46.03402396474566,159.3307108311422L46.2255132491248,159.60069976693208L46.41700253350395,160.1790556889023L46.79998110226222,159.9792067298004L46.99147038664137,159.3047035186931L47.182959671020505,159.93727802157034L47.37444895539965,160.01984571257438L47.565938239778795,160.27248815675256L47.75742752415793,159.63030661333985L48.15955502135413,160.20840964258176L48.54253359011241,159.47153940522523L48.73402287449155,159.7435712529575L48.925512158870696,159.68611792418258L49.308490727628985,159.87140385919426L49.49998001200812,160.12752996248707L49.69146929638726,159.4591597432734L49.882958580766406,159.88548745798192L50.074447865145544,158.78874386626796L50.26593714952469,160.06789203594153L50.457426433903834,160.79191444402608L50.64891571828297,159.80482566103592L50.840405002662116,159.21955500385215L51.031894287041254,159.8999851308568L51.22338357142039,159.44814586680562L51.60636214017868,160.24058632942888L51.79785142455783,159.8078373086413L51.989340708936965,158.5294351862456L52.18082999331611,160.1811489871809L52.37231927769525,160.37983837408757L52.75529784645353,159.1354606205901L52.96593605927058,159.19832739142734L53.15742534364973,158.50359235017464L53.34891462802887,158.70459978313207L53.54040391240801,160.28012395201455L53.9233824811663,159.38992644605233L54.11487176554543,159.96096618962895L54.306361049924575,160.1755688720609L54.49785033430372,159.7183432125638L54.68933961868286,159.58116661816268L54.880828903062,160.5298925902265L55.07231818744115,159.2998862005322L55.64678604057857,159.79929716788436L55.83827532495771,158.60745300481886L56.02976460933685,159.86945348237617L56.221253893715996,158.96179415912806L56.41274317809514,160.37271522890572L56.79572174685342,158.1543087758475L57.1787003156117,158.87718877329547L57.370189599990844,160.64338293866356L57.56167888436999,160.29699651002244L57.77231709718704,160.047243523152L58.155295665945324,159.3795685530026L58.34678495032447,159.35843896740082L58.53827423470361,158.06086422625998L58.72976351908275,159.75094880108486L58.92125280346189,159.58609926199773L59.112742087841035,159.6807431985966L59.30423137222018,159.5316789984534L59.49572065659932,159.08362392673203L59.687209940978455,160.16785413362908L59.8786992253576,159.43868147314572L60.26167779411588,159.64618942993695L60.45316707849503,159.65638284660852L60.644656362874166,160.1470231591479L60.83614564725331,159.2404391105189L61.21912421601159,159.7056760601814L61.41061350039073,160.28588035066508L61.602102784769876,158.05452900255912L61.79359206914902,160.24136546419183L61.98508135352816,158.9584244527629L62.176570637907304,160.14000215956318L62.36805992228644,160.17924062185838L62.5786981351035,160.0992471646527L62.770187419482646,159.59526161222527L63.34465527262007,160.6736181727031L63.536144556999204,160.43658698061785L63.72763384137835,160.26230380138395L63.919123125757494,158.60181577603166L64.11061241013662,159.63207494034376L64.30210169451577,160.44066964677577L64.49359097889491,160.1693561132426L64.68508026327406,158.97115640719082L64.87656954765319,159.60873604432686L65.06805883203234,160.1998936652994L65.25954811641148,159.4103440329086L65.64252668516977,157.63716071980863L65.83401596954891,160.035529729676L66.21699453830719,160.32336462708074L66.40848382268634,156.83369937880167L66.59997310706547,159.89182391731498L66.79146239144461,160.1168549238334L66.98295167582376,160.43636291930804L67.1744409602029,160.43963940408656L67.76805774177824,159.848560177114L67.95954702615738,157.3444251677142L68.15103631053653,159.2869104146789L68.34252559491567,159.7968739558022L68.72550416367395,160.3843621609492L68.91699344805309,159.72628558190965L69.10848273243222,160.1257531233501L69.29997201681137,160.4764988624747L69.68295058556966,160.23239683363838L69.87443986994879,160.43493109614627L70.25741843870708,160.20092033838444L70.64039700746537,158.80478319628003L70.83188629184451,160.16930023520763L71.21486486060279,159.4796575089317L71.40635414498193,160.4095369318648L71.78933271374021,159.40235031617925L71.98082199811935,158.38396228251293L72.19146021093641,159.38809194407827L72.38294949531556,159.64504413615853L72.76592806407383,158.93445565889712L72.95741734845298,159.89958464872402L73.14890663283212,159.6674343412129L73.34039591721127,160.3846724419297L73.5318852015904,159.6380899980063L73.72337448596954,157.74370654056634L73.91486377034867,159.35219408214473L74.10635305472782,159.3251801413111L74.29784233910696,159.20525214899115L74.48933162348611,159.70624143056972L74.68082090786525,158.47740875419504L74.8723101922444,158.50486724804406L75.06379947662354,159.5931651562199L75.25528876100267,160.2281175646645L76.02124589851925,159.9099426790662L76.21273518289838,160.21775047301932L76.40422446727752,160.02370280720535L76.59571375165666,160.09456439311168L76.7872030360358,159.89716939960505L76.99784124885286,159.1465173323083L77.18933053323201,158.3641007301571L77.5723091019903,159.2967336908534L77.76379838636944,159.45398656303226L77.95528767074856,159.0647654331565L78.1467769551277,159.42661154300453L78.33826623950685,157.87806506974374L78.529755523886,158.7819396514922L78.72124480826514,159.07942854345683L79.10422337702343,159.89795498711408L79.29571266140256,160.68458852745812L79.4872019457817,160.60914411892838L79.67869123016085,159.77540415946163L79.87018051454,159.42577378435718L80.06166979891914,159.19375170801234L80.4446483676774,158.8289326670353L80.63613765205655,160.4359698509686L80.82762693643569,160.22883917388285L81.01911622081484,159.12265370447398L81.21060550519398,158.80860212360454L81.59358407395227,158.41750063607L81.80422228676933,158.20134682332053L82.18720085552759,159.57770959378712L82.57017942428588,159.4335269646804L82.76166870866503,160.13018080548326L82.95315799304417,159.47141666575774L83.14464727742332,159.6185994099024L83.33613656180245,158.43524486396515L83.52762584618159,159.3710050725259L83.91060441493988,159.0538449155678L84.10209369931903,158.4520549538995L84.29358298369817,159.37876319537799L84.67656155245645,159.69035724104796L84.86805083683558,160.29486394609768L85.05954012121472,158.87977261756666L85.25102940559387,159.82133617880243L85.44251868997301,160.5849579910838L85.63400797435216,159.51217166066823L85.82549725873129,160.24191394760646L86.01698654311043,160.0950521932549L86.20847582748958,159.09569166019372L86.39996511186872,158.5316044072597L86.61060332468577,159.68432900330833L86.99358189344406,159.43815317172408L87.1850711778232,158.951334944236L87.37656046220233,157.9736165095643L87.56804974658148,159.87718620612145L87.95102831533977,158.80679370719966L88.14251759971891,159.01596152994406L88.5254961684772,159.55948099806048L88.71698545285633,159.74620260042303L88.90847473723548,159.4937934161501L89.09996402161462,158.50923891484976L89.29145330599376,160.3578784436318L89.4829425903729,159.3660400276681L89.67443187475205,159.99781109501532L89.86592115913118,160.29151812862216L90.05741044351032,158.5610338717972L90.24889972788947,159.83861251396235L91.01485686540605,160.53061790634152L91.20634614978518,159.94382495025877L91.41698436260224,160.31766877440916L91.79996293136051,158.7416756144517L91.99145221573966,159.78504126704783L92.56592006887709,159.37444342512566L92.75740935325622,159.73963397952448L93.14038792201451,158.15001893535347L93.33187720639366,159.70273580466005L93.5233664907728,159.88144680331956L94.09783434391021,158.3837816056234L94.28932362828935,158.55829433786587L94.4808129126685,157.99805017573095L94.67230219704764,159.3307951287183L94.86379148142679,159.14062446494336L95.05528076580593,160.55553237073542L95.24677005018506,159.48880063821355L95.43825933456421,158.31964762529503L95.62974861894335,159.3222893110787L95.8212379033225,160.4484125301638L96.01272718770164,158.63730533016167L96.22336540051869,159.91617644363228L96.41485468489783,159.91251773661938L96.60634396927698,158.41204710460667L96.79783325365612,159.47183678071363L96.98932253803525,158.71961271464403L97.1808118224144,159.1343620062512L97.37230110679354,159.74646839864351L97.56379039117269,159.3949656288435L97.75527967555183,159.68598447590247L97.94676895993098,159.5235029573249L98.1382582443101,159.18958186113645L98.52123681306838,159.7472438265098L98.71272609744753,157.48253315422667L98.90421538182667,160.66672004987834L99.09570466620582,159.5648570965712L99.67017251934324,160.1343956842891L99.86166180372238,159.44224091770337L100.05315108810153,158.6396362817045L100.24464037248067,160.2302767633283L100.43612965685982,159.28508826902709L100.62761894123894,157.58954165060575L100.81910822561808,159.40988190645712L101.02974643843514,159.667000771595L101.22123572281428,158.169404082841L101.41272500719343,159.03692252039357L101.79570357595172,160.7231289948397L101.98719286033086,159.5577453466643L102.17868214471,159.3528022877835L102.75314999784742,160.5526696854592L102.94463928222656,159.54949104882834L103.1361285666057,159.91048800475406L103.32761785098485,159.53989760024734L103.51910713536398,159.57487862307127L103.71059641974313,159.90562702758797L103.90208570412227,159.6295484843247L104.09357498850142,159.7432472427301L104.4765535572597,159.17222315049494L104.66804284163884,159.62990077680078L104.85953212601798,158.87305599538627L105.05102141039711,158.15682177720458L105.8361274763516,158.19601960092888L106.02761676073075,159.46651559919061L106.2191060451099,159.86334945919353L106.41059532948903,159.6657357587834L106.60208461386817,158.09582987232736L106.7935738982473,156.46348089959415L106.98506318262645,160.1487316266352L107.36804175138474,160.42188185882193L107.75102032014301,158.5159456519724L107.94250960452216,158.24953400876115L108.1339988889013,159.30088102176435L108.32548817328045,159.77932578155313L108.51697745765959,159.0556953434683L108.70846674203874,159.0622842836523L108.89995602641787,160.14524357416155L109.28293459517616,157.52182406224514L109.47442387955529,158.08457710696305L109.66591316393443,158.39515381543592L109.85740244831358,160.02932026587698L110.24038101707185,158.94010030147768L110.431870301451,159.0605143091388L110.64250851426806,159.45746994756192L111.21697636740548,159.46807359413162L111.40846565178462,158.15713398027964L111.59995493616375,157.9664391338571L111.7914442205429,159.67907070173624L111.98293350492204,158.72890686564205L112.17442278930119,159.69082403544337L112.36591207368033,159.73465191040052L112.74889064243862,157.9242637110598L112.94037992681776,158.77737357855003L113.1318692111969,159.09229120031546L113.32335849557604,159.73259911340037L113.51484777995519,159.93750977125842L113.70633706433432,157.6748722152609L114.28080491747174,159.0041788156485L114.47229420185089,157.87088137858296L114.85527277060918,159.36272825872496L115.04676205498832,159.73204911976856L115.23825133936747,160.11951455354762L115.64037883656366,159.93209550544128L115.83186812094279,158.262971646481L116.02335740532193,159.392887570029L116.59782525845937,158.93289244684232L116.78931454283851,158.52405716564033L116.98080382721764,158.5569653467636L117.17229311159679,159.16945615806978L117.36378239597593,159.31227300169243L117.55527168035508,159.8333967730557L117.74676096473422,159.6584043409257L117.93825024911337,158.00606091672645L118.1297395334925,159.2579241302321L118.51271810225077,158.55239570421722L118.70420738662992,159.6981455682433L118.89569667100906,158.3161134425517L119.08718595538821,157.85863571408112L119.27867523976735,159.1376578492679L119.47016452414648,159.40295000968493L119.85314309290477,157.78778758283678L120.44675987448011,159.7599005446646L120.63824915885925,159.79198606931212L120.8297384432384,159.11505182045187L121.21271701199667,158.2407860072058L121.40420629637582,158.0167941673871L121.59569558075496,159.99452939312297L121.78718486513411,158.38981945383586L121.97867414951325,157.95581050005802L122.1701634338924,159.13182127181534L122.36165271827153,159.84319753326525L122.55314200265066,159.4434403047147L122.7446312870298,159.73169792563223L122.93612057140895,158.6421638360633L123.1276098557881,160.30200109511136L123.31909914016724,159.45664756567115L123.51058842454637,155.90841952817323L123.70207770892551,160.40800557166284L123.89356699330466,159.52974372380692L124.27654556206295,159.55356314346614L124.4680348464421,158.9033715455203L124.65952413082124,157.87760486538684L125.06165162801743,157.58460735926107L125.4446301967757,158.71017495572318L125.63611948115485,159.5515259978075L125.827608765534,160.34572490237682L126.01909804991314,159.0693960335592L126.21058733429228,159.20006249365366L126.59356590305056,159.0723552354413L126.7850551874297,158.70100519170228L126.97654447180884,158.75798486145828L127.16803375618798,158.9071682314648L127.35952304056713,160.43782618244526L127.55101232494627,158.5993911910248L127.7425016093254,159.69817330132207L128.12548017808368,158.02678603871382L128.31696946246282,159.25014623726443L128.50845874684197,159.034711013299L128.6999480312211,155.55451359099152L128.89143731560026,159.33873887098883L129.0829265999794,160.53694297039962L129.27441588435855,159.54336313675603L129.4659051687377,160.11360040584992L129.8680326659339,158.39194995837363L130.059521950313,157.72427800865853L130.25101123469216,159.5312446050807L130.8254790878296,159.4803714297718L131.59143622534617,158.0501878146816L131.7829255097253,159.64381674148348L131.97441479410443,158.20433897539527L132.35739336286272,159.75821871191633L132.54888264724187,159.67221019704806L132.740371931621,160.42327812323416L132.93186121600013,158.74516311775548L133.12335050037927,157.34068532085197L133.31483978475842,157.69269717112792L133.50632906913756,159.577718929675L133.6978183535167,158.17095713525313L133.88930763789585,157.8764354081338L134.080796922275,159.6289257256842L134.27228620665414,159.49026307759596L134.4637754910333,158.66064148032913L134.8659029882295,159.60324214887757L135.0573922726086,158.05128807653014L135.24888155698775,157.41577331813153L135.4403708413669,158.273663160231L135.63186012574604,159.19464932617626L135.8233494101252,158.14590125961587L136.01483869450433,158.49435558742877L136.20632797888348,159.89711846409895L136.39781726326262,156.86901978860956L136.58930654764174,157.55664115786078L136.97228511640003,159.0747356122731L137.16377440077918,158.1190787044844L137.35526368515832,158.92686887704664L137.54675296953747,158.7907450412997L137.7382422539166,159.05107847231253L137.92973153829573,160.34179696483173L138.1212208226749,157.47041791757061L138.31271010705402,159.6428960581847L138.5041993914332,158.9315997009519L138.6956886758123,158.74294996315123L138.88717796019145,157.73215777263837L139.0786672445706,158.26178132077263L139.48079474176677,158.4081144991176L139.67228402614595,159.15496164292168L139.86377331052506,159.04090153073724L140.05526259490424,159.47916270687253L140.24675187928335,158.64848752719672L140.8212197324208,159.7865278699048L141.01270901679993,158.34648473342827L141.20419830117908,159.5614343953129L141.39568758555822,158.5152180018854L141.58717686993734,158.66364324287673L141.77866615431648,158.4371557005521L142.16164472307477,160.21815397558643L142.35313400745392,155.9459064131458L142.54462329183306,158.5956738601275L142.7361125762122,157.3258884876866L142.92760186059135,160.19342101183685L143.11909114497047,159.14272970766675L143.31058042934964,159.2541502348375L143.50206971372876,158.6665118317291L143.88504828248705,157.3507878499089L144.0765375668662,158.34656024428634L144.4786650640624,159.31807662895235L144.6701543484415,160.65408873083035L144.8616436328207,159.2388025842855L145.0531329171998,160.51956050816096L145.24462220157898,158.74277505254543L145.81909005471638,158.23950040052378L146.0105793390955,159.65373886823582L146.20206862347467,159.10926933623222L146.3935579078538,158.58982355342803L146.77653647661208,159.31519376168316L147.15951504537037,157.54982184091338L147.54249361412866,159.15323175780918L147.92547218288695,157.19924936488496L148.1169614672661,158.86607659541968L148.30845075164524,158.64372897021272L148.49994003602436,158.27409618067898L148.6914293204035,159.4254571879231L149.0935568175997,158.99120412813494L149.28504610197885,157.40493929479845L149.476535386358,157.77217578157396L149.66802467073714,157.89773029386856L149.85951395511628,158.01512304345144L150.0510032394954,159.34436896056764L150.4339818082537,160.04355598472054L150.62547109263284,159.24146139024492L150.81696037701198,158.760187032665L151.00844966139113,159.65848040095366L151.39142823014942,158.65879764246716L151.58291751452853,158.35604715391116L151.7744067989077,157.88707282865093L151.96589608328682,159.65103667785613L152.3488746520451,157.84449541350367L152.54036393642423,158.41717717501245L152.7318532208034,158.93603946482236L152.92334250518252,158.79571695078093L153.1148317895617,159.61530274313088L153.3063210739408,158.7330278363989L153.49781035831998,158.86727460950635L153.6892996426991,158.01984233478927L153.89993785551616,158.23143034918152L154.28291642427445,158.99857481163883L154.47440570865356,158.5919985407258L154.85738427741185,159.46972384961194L155.04887356179103,160.1415703141469L155.24036284617014,157.72544197421277L155.4318521305493,158.63672677969626L155.62334141492843,157.7558561003397L155.81483069930758,159.40000893040875L156.00631998368672,156.97171949813384L156.19780926806587,159.66244046493657L156.389298552445,159.89844924000334L156.77227712120327,159.30211418272313L156.96376640558245,158.42978391870844L157.15525568996156,159.18963375768982L157.3467449743407,159.66586124410028L157.53823425871985,159.91829308163065L157.729723543099,159.33748291948018L157.92121282747814,159.21493126807292L158.11270211185726,158.77021322710902L158.30419139623643,159.6813739202003L158.49568068061555,157.70862062629593L158.7063188934326,158.1578720645943L158.89780817781175,158.1176041833647L159.0892974621909,156.2046225388709L159.28078674657004,156.91093682697974L159.4722760309492,159.7959310311234L159.6637653153283,157.47757469940743L159.85525459970748,157.37741160554492L160.0467438840866,158.8443659880881L160.23823316846577,158.80195799184787L160.42972245284489,157.26358516514316L160.62121173722403,158.85686344697854L160.81270102160317,158.9435224535661L161.19567959036146,157.36237203929392L161.38716887474058,156.6191321178268L161.57865815911975,159.58920097346294L161.96163672787802,160.85493003989998L162.15312601225716,158.27877510803086L162.3446152966363,156.84527642897828L162.53610458101545,157.42665896343306L162.7275938653946,159.3744071799138L163.7041892157282,156.4788417302232L163.89567850010735,158.9972263250059L164.0871677844865,157.83108413593794L164.4701463532448,158.02793627502115L164.66163563762393,158.81834412263723L164.85312492200305,158.1955843838014L165.04461420638222,157.0982482377902L165.23610349076134,160.23973168380783L165.61908205951963,158.71882959839942L165.8105713438988,157.0828412768915L166.00206062827792,158.67453026110292L166.19354991265703,160.36164094375147L166.3850391970362,158.20971699600054L166.57652848141532,158.2546970293596L166.7680177657945,159.1299060418694L166.9595070501736,158.44691170341667L167.1509963345528,159.2684014677301L167.3424856189319,159.5268894133713L167.53397490331105,158.52280176330157L167.7254641876902,156.38971859839762L167.91695347206934,159.52991176978927L168.31908096926554,158.34414472058245L168.51057025364466,158.8967650319002L168.70205953802383,158.03533716286827L168.89354882240295,158.65718418136862L169.0850381067821,157.55318578099482L169.27652739116124,157.21089835631548L169.46801667554038,157.90968544750547L169.65950595991953,158.96595686679555L169.85099524429867,159.53549463075865L170.42546309743608,158.10906157134332L170.61695238181522,158.74071841135614L170.80844166619437,158.61072358602124L170.9999309505735,158.45010457708142L171.19142023495266,158.51663046680898L171.38290951933178,159.52207511564475L171.76588808809007,159.44063349747347L171.95737737246924,158.94304632328274L172.14886665684836,157.8352715562499L172.34035594122753,159.19500244240717L172.53184522560665,156.99753542488082L172.72333450998576,157.72004583100156L172.91482379436493,158.88762080427858L173.125462007182,158.4279815431722L173.50844057594028,158.00756811345383L173.6999298603194,158.21222834984798L173.89141914469857,157.58375394927225L174.0829084290777,156.3671883550246L174.27439771345684,157.70663400426594L174.46588699783598,158.3212959586808L174.6573762822151,158.236878938116L174.84886556659427,158.89659424006845L175.0403548509734,159.38530023900864L175.23184413535256,159.89829464868296L175.61482270411082,158.21427730265899L175.80631198848997,158.37460497697907L175.9978012728691,157.58512934522915L176.3807798416274,158.91847563923181L176.57226912600655,157.31557452822702L176.7637584103857,159.89749148773788L176.9552476947648,160.56106017742465L177.14673697914395,157.75258085119341L177.3382262635231,159.42593743698052L177.52971554790224,159.30260404225336L177.7212048322814,157.74596362876073L177.93184304509845,157.62701398257659L178.1233323294776,157.61969876523028L178.31482161385674,159.488575478564L178.50631089823585,159.21399054007367L178.69780018261503,159.9575415662761L178.88928946699414,158.6052417723092L179.27226803575243,158.95576509763362L179.46375732013158,157.6527780127702L179.65524660451072,158.6246966643711L179.84673588888984,158.42705317149515L180.038225173269,158.29620493617142L180.22971445764813,159.31182680116737L180.61269302640642,159.9790526876499L180.80418231078556,159.47017059930687L181.18716087954385,159.48579640440153L181.378650163923,158.5668031759398L181.7616287326813,159.702445842965L182.14460730143955,157.85092372149867L182.7382240830149,158.74322317516504L182.92971336739404,159.41277301127445L183.50418122053145,161.63516180401874L183.6956705049106,158.2575562823241L183.88715978928974,156.19521525887822L184.07864907366888,158.90771355715265L184.27013835804803,160.0840535562512L184.65311692680632,160.70136704012458L184.84460621118546,156.8713543097566L185.03609549556458,157.27379368398633L185.61056334870204,159.75591247301796L185.80205263308116,160.09604825011928L186.18503120183945,158.87859300067092L186.37652048621857,158.42993548959447L186.56800977059774,159.803919256154L186.75949905497686,157.59375570565678L186.95098833935603,159.09087214535336L187.14247762373515,158.56147320769878L187.3339669081143,158.39798396239695L187.7360944053105,158.8185165619786L187.9275836896896,159.87063804180082L188.11907297406879,157.19891272375037L188.50205154282708,158.54137715980548L188.6935408272062,158.61520700889687L188.88503011158537,158.4963825734447L189.07651939596448,156.591181567768L189.26800868034363,157.5263052884413L189.45949796472277,159.4360808791933L189.65098724910192,158.8032534835877L189.84247653348106,158.47506105297094L190.0339658178602,159.04661372121265L190.22545510223932,158.25388288501696L190.41694438661847,157.37698709723L190.79992295537676,158.4050556229028L190.9914122397559,157.03260980658382L191.3743908085142,157.84857958987877L191.75736937727248,157.85987134630432L191.9488586616516,158.02855189445324L192.54247544322695,156.851054245254L192.7339647276061,158.18922279994644L193.11694329636435,156.6118336501617L193.30843258074353,158.78700135024832L193.49992186512264,158.20044755764698L193.69141114950182,158.36810884650424L193.88290043388093,159.36121117693983L194.26587900263922,159.2734359825773L194.45736828701837,158.62804632603576L194.84034685577663,157.00602998453797L195.0318361401558,158.52328695488788L195.4148147089141,159.58545398739227L195.6063039932932,157.97425876373543L195.79779327767235,156.27806467402917L195.9892825620515,157.7748485913652L196.18077184643064,158.43213766080117L196.3722611308098,159.06861154438994L196.56375041518893,158.25621768074893L196.75523969956805,158.45481672921085L196.94672898394722,159.96191405683663L197.3488564811434,158.11322318067107L197.54034576552255,158.45819879189824L197.7318350499017,158.68397158962796L197.92332433428084,157.45132437928774L198.11481361865998,158.0602521764321L198.30630290303912,158.7353077151432L198.49779218741827,156.78053973470995L198.6892814717974,158.52780744673024L198.88077075617656,157.7633942806561L199.07226004055568,156.25404123776065L199.45523860931397,158.50651173724066L199.83821717807226,156.92957839845386L200.02970646245137,157.21173858622726L200.22119574683055,157.81041310718342L200.41268503120966,158.94776479086576L200.60417431558884,157.1855124295822L200.79566359996795,158.1515308000248L200.9871528843471,158.59123162499262L201.17864216872624,158.39392971578013L201.3701314531054,158.28373877996395L201.56162073748453,157.53065416469713L201.75311002186365,159.9750948203465L201.9637482346807,158.40890475457059L202.346726803439,158.60502457562285L202.7297053721973,157.53060364106844L202.92119465657643,159.89811822785998L203.11268394095558,158.9854397665212L203.30417322533472,157.92071003278585L203.68715179409298,158.68277000593713L203.87864107847213,159.00041919867067L204.07013036285127,158.46473830679332L204.26161964723042,157.30114948306837L204.45310893160956,159.0694852736642L204.6445982159887,158.98747114589617L204.83608750036785,156.26302620611793L205.21906606912611,157.2784676688093L205.4105553535053,156.767566694706L205.9850232066427,154.9161294199857L206.1765124910218,159.5206214629804L206.77012927259716,155.60800603202873L206.96161855697633,158.25095498581783L207.15310784135545,159.35201944612385L207.34459712573462,159.85706970165026L207.53608641011374,158.1557854936467L207.7275756944929,156.0728651528158L207.91906497887203,156.6083129220804L208.11055426325115,158.67798206836468L208.30204354763032,158.27646172992408L208.87651140076773,159.2927181607129L209.06800068514687,156.83584718219055L209.25948996952602,157.92371673786232L209.45097925390516,157.96061903150087L209.6424685382843,156.4453462119165L210.0254471070426,158.85729921327592L210.21693639142174,158.71336288685904L210.40842567580086,159.15245221116882L210.59991496018,157.97333423624755L210.79140424455915,155.36843945991393L211.17438281331744,158.48054231751308L211.36587209769658,159.34547471411494L211.57651031051364,159.3505907806889L211.76799959489279,157.09590492992513L211.9594888792719,157.90517950866484L212.15097816365108,157.90291692877167L212.3424674480302,158.57731813157437L212.53395673240934,157.98045696955197L212.72544601678848,159.0421602280953L212.91693530116763,157.48436079157727L213.2999138699259,158.07205932878716L213.68289243868418,159.48601826903183L214.06587100744247,157.98333599263205L214.25736029182164,158.39612639528806L214.44884957620076,158.541571291357L214.64033886057987,159.99036709733286L214.83182814495905,157.66500088672217L215.40629599809645,159.50081400385744L215.78927456685474,158.30035226708236L215.9807638512339,158.90773085600375L216.3828913484301,156.96977928095848L216.5743806328092,159.0673877193191L216.76586991718838,157.31594631623375L216.9573592015675,159.68950630232357L217.14884848594667,159.1578030478652L217.53182705470493,160.18136028029107L218.2977841922215,157.5426090437491L218.48927347660063,158.1144582637244L218.6807627609798,158.31586768903176L218.87225204535892,157.74098348173135L219.0637413297381,157.05071483908813L219.82969846725462,157.8127533946142L220.0211877516338,157.4952151341958L220.2126770360129,158.4004228258206L220.40416632039208,160.18094126367492L220.78714488915037,158.7321519104451L220.97863417352949,158.2833483201814L221.18927238634654,156.30094858280296L221.57225095510483,157.17701457490577L221.76374023948395,157.1375210232027L221.95522952386312,158.5034380334392L222.33820809262141,157.73428141255266L222.72118666137968,158.2910984800703L222.91267594575882,158.70626294410448L223.10416523013797,157.37673338074686L223.48714379889623,159.5084639402438L223.6786330832754,158.81974532957835L223.87012236765452,158.97907186721267L224.06161165203366,158.2549633767499L224.2531009364128,158.17766304862093L224.44459022079195,159.48979436110596L224.6360795051711,158.2387686316627L224.82756878955024,157.41747629392003L225.01905807392936,159.06687397089917L225.21054735830853,157.89580984680876L225.40203664268765,156.65543114835546L225.59352592706682,155.7542757812529L225.78501521144594,158.16307709668834L226.18714270864214,157.96835381463322L226.3786319930213,156.66659028025572L226.57012127740043,159.23516405926557L226.9530998461587,156.35812924873392L227.14458913053787,157.79262549486805L227.33607841491698,158.69150647492506L227.52756769929616,157.17176341254208L227.9105462680544,158.42405635147645L228.10203555243356,158.77233439575886L228.29352483681268,157.3395820385691L228.48501412119185,156.79493677220486L229.05948197432926,159.94809749190165L229.2509712587084,158.47337043350464L229.44246054308755,158.73996165526566L229.6339498274667,160.05422031456163L230.39990696498327,158.3816892683921L230.80203446217945,156.29688747156268L230.9935237465586,158.2806658999173L231.18501303093774,157.35609557676992L231.37650231531688,159.12023049239178L231.56799159969603,159.6108399141256L231.75948088407517,157.99641721910172L231.95097016845432,158.83149262241685L232.14245945283344,155.579532672247L232.33394873721258,157.39649745544952L232.52543802159173,156.4722972727992L232.71692730597087,157.7787007434673L232.90841659035001,156.1821329340688L233.09990587472916,157.3969483239185L233.2913951591083,157.2871445528656L233.48288444348742,158.65666741251437L233.8658630122457,157.54447127880195L234.05735229662488,157.52573030758012L234.248841581004,158.94235382006786L234.44033086538317,158.3900786620178L234.6318201497623,158.9653599191393L234.8233094341414,159.83467359301972L235.01479871852058,156.7709737446228L235.60841550009593,157.5435321983123L235.79990478447505,154.66323504412648L236.18288335323334,155.66427123177476L236.37437263761248,158.6710323235715L236.56586192199163,159.265205573631L236.75735120637074,160.05627805409068L236.94884049074992,158.52360025630267L237.14032977512903,156.31519130356244L237.33181905950818,158.4959251149372L237.52330834388732,158.8150743651897L237.71479762826647,156.93210512905785L237.9062869126456,157.42222661335595L238.2892654814039,160.00669062275625L238.48075476578305,156.78099884072708L238.86373333454134,157.64073334444333L239.05522261892045,159.38477852762549L239.43820118767874,159.06612819820623L239.6296904720579,158.92886428579467L239.82117975643703,158.5462246823096L240.01266904081615,158.30556636047936L240.20415832519532,156.42894360603086L240.41479653801238,153.77424818315802L240.6062858223915,158.14409558906036L240.79777510677067,158.62551987001672L240.9892643911498,157.65461580976353L241.37224295990808,158.57648970881493L241.5637322442872,157.0276123607033L241.75522152866637,156.0225205535135L242.13820009742466,156.89339304608973L242.32968938180377,158.53565755553674L242.52117866618295,158.8398188615067L242.71266795056206,157.4817242269979L242.9041572349412,156.64046517086797L243.09564651932035,159.88168431929134L243.2871358036995,157.49318704984012L243.47862508807864,158.5758460817191L243.67011437245776,157.1987710379221L243.86160365683693,156.8517319208822L244.62756079435349,157.13988025699422L244.81905007873263,156.4580551012096L245.01053936311177,158.1405581112978L245.41266686030798,155.96844379572718L245.6041561446871,156.57609696958707L245.79564542906624,158.14690459298112L245.98713471344539,159.68094062516735L246.17862399782453,157.68972918252777L246.37011328220368,158.0851295718593L246.56160256658282,157.3622083866706L246.9445811353411,157.66534384331035L247.13607041972023,158.46706623790183L247.3275597040994,157.46974298779182L247.7105382728577,157.94365544858587L247.9020275572368,158.52295882588638L248.09351684161592,160.13291210186642L248.2850061259951,158.7022331355472L248.6679846947534,158.71775844255438L248.8594739791325,158.51957703778393L249.05096326351168,157.48444371622872L249.2424525478908,158.93167576097986L249.43394183226994,158.3781693640656L249.62543111664908,155.82278582174598L250.21904789822443,159.60086314497048L250.41053718260355,155.2072240524877L250.98500503574098,157.34140418422092L251.17649432012013,160.56881953590897L251.36798360449927,159.43301651127973L251.75096217325756,155.9478120326189L251.9424514576367,158.31331487285863L252.13394074201585,158.47513546548927L252.5169193107741,157.17062443421725L252.70840859515326,156.82367922522627L252.8998978795324,159.63955298655858L253.2828764482907,157.61772532327734L253.47436573266984,157.50118351241883L253.66585501704895,158.08536873534072L253.85734430142813,158.80565912223378L254.04883358580724,158.32022452825078L254.24032287018642,157.89697902947682L254.43181215456553,157.9975732216928L254.83393965176174,159.1259761822297L255.40840750489917,154.42131967244782L255.5998967892783,158.6673056567863L256.1743646424157,158.14764926733432L256.3658539267949,156.53308653399182L256.557343211174,156.73606411388292L256.7488324955532,158.76524516181692L256.9403217799323,155.73029463106488L257.32330034869057,156.51595682718906L257.5147896330697,157.44973343415415L257.70627891744886,159.07186949468513L257.897768201828,157.2055829410762L258.08925748620715,155.41256690703895L258.2807467705863,157.20480586570025L258.47223605496544,157.23917895747036L258.6637253393446,158.7574093314272L258.8552146237237,159.3882196260747L259.04670390810287,155.03930163335394L259.238193192482,158.4437402473771L259.42968247686116,158.15292212190815" fill="none"></path></g></g></g></g></g></g><g transform="translate(61, 176)" clip-path="url(#clip_1)"><clipPath id="clip_1"><rect width="268" height="23"></rect></clipPath><g><g><line x1="0" y1="0" x2="0" y2="5" style="visibility: inherit;" fill="rgb(0, 0, 0)" stroke="rgb(204, 204, 204)" stroke-width="1px"></line><line x1="19.148928437914165" y1="0" x2="19.148928437914165" y2="5" style="visibility: inherit;" fill="rgb(0, 0, 0)" stroke="rgb(204, 204, 204)" stroke-width="1px"></line><line x1="38.29785687582833" y1="0" x2="38.29785687582833" y2="5" style="visibility: inherit;" fill="rgb(0, 0, 0)" stroke="rgb(204, 204, 204)" stroke-width="1px"></line><line x1="57.446785313742495" y1="0" x2="57.446785313742495" y2="5" style="visibility: inherit;" fill="rgb(0, 0, 0)" stroke="rgb(204, 204, 204)" stroke-width="1px"></line><line x1="76.59571375165666" y1="0" x2="76.59571375165666" y2="5" style="visibility: inherit;" fill="rgb(0, 0, 0)" stroke="rgb(204, 204, 204)" stroke-width="1px"></line><line x1="95.74464218957084" y1="0" x2="95.74464218957084" y2="5" style="visibility: inherit;" fill="rgb(0, 0, 0)" stroke="rgb(204, 204, 204)" stroke-width="1px"></line><line x1="114.89357062748499" y1="0" x2="114.89357062748499" y2="5" style="visibility: inherit;" fill="rgb(0, 0, 0)" stroke="rgb(204, 204, 204)" stroke-width="1px"></line><line x1="134.04249906539917" y1="0" x2="134.04249906539917" y2="5" style="visibility: inherit;" fill="rgb(0, 0, 0)" stroke="rgb(204, 204, 204)" stroke-width="1px"></line><line x1="153.19142750331332" y1="0" x2="153.19142750331332" y2="5" style="visibility: inherit;" fill="rgb(0, 0, 0)" stroke="rgb(204, 204, 204)" stroke-width="1px"></line><line x1="172.34035594122753" y1="0" x2="172.34035594122753" y2="5" style="visibility: inherit;" fill="rgb(0, 0, 0)" stroke="rgb(204, 204, 204)" stroke-width="1px"></line><line x1="191.48928437914168" y1="0" x2="191.48928437914168" y2="5" style="visibility: inherit;" fill="rgb(0, 0, 0)" stroke="rgb(204, 204, 204)" stroke-width="1px"></line><line x1="210.63821281705583" y1="0" x2="210.63821281705583" y2="5" style="visibility: inherit;" fill="rgb(0, 0, 0)" stroke="rgb(204, 204, 204)" stroke-width="1px"></line><line x1="229.78714125496998" y1="0" x2="229.78714125496998" y2="5" style="visibility: inherit;" fill="rgb(0, 0, 0)" stroke="rgb(204, 204, 204)" stroke-width="1px"></line><line x1="248.9360696928842" y1="0" x2="248.9360696928842" y2="5" style="visibility: inherit;" fill="rgb(0, 0, 0)" stroke="rgb(204, 204, 204)" stroke-width="1px"></line><line x1="268.08499813079834" y1="0" x2="268.08499813079834" y2="5" style="visibility: inherit;" fill="rgb(0, 0, 0)" stroke="rgb(204, 204, 204)" stroke-width="1px"></line></g><g transform="translate(0, 8)"><text style="text-anchor: middle; visibility: hidden; font-family: Roboto, sans-serif; font-size: 12px; font-weight: 200;" x="0" y="0" dx="0em" dy="0.95em" fill="rgb(255, 255, 255)" stroke="none" stroke-width="1px">-1k</text><text style="text-anchor: middle; visibility: inherit; font-family: Roboto, sans-serif; font-size: 12px; font-weight: 200;" x="19.148928437914165" y="0" dx="0em" dy="0.95em" fill="rgb(255, 255, 255)" stroke="none" stroke-width="1px">0</text><text style="text-anchor: middle; visibility: hidden; font-family: Roboto, sans-serif; font-size: 12px; font-weight: 200;" x="38.29785687582833" y="0" dx="0em" dy="0.95em" fill="rgb(255, 255, 255)" stroke="none" stroke-width="1px">1k</text><text style="text-anchor: middle; visibility: inherit; font-family: Roboto, sans-serif; font-size: 12px; font-weight: 200;" x="57.446785313742495" y="0" dx="0em" dy="0.95em" fill="rgb(255, 255, 255)" stroke="none" stroke-width="1px">2k</text><text style="text-anchor: middle; visibility: hidden; font-family: Roboto, sans-serif; font-size: 12px; font-weight: 200;" x="76.59571375165666" y="0" dx="0em" dy="0.95em" fill="rgb(255, 255, 255)" stroke="none" stroke-width="1px">3k</text><text style="text-anchor: middle; visibility: inherit; font-family: Roboto, sans-serif; font-size: 12px; font-weight: 200;" x="95.74464218957084" y="0" dx="0em" dy="0.95em" fill="rgb(255, 255, 255)" stroke="none" stroke-width="1px">4k</text><text style="text-anchor: middle; visibility: hidden; font-family: Roboto, sans-serif; font-size: 12px; font-weight: 200;" x="114.89357062748499" y="0" dx="0em" dy="0.95em" fill="rgb(255, 255, 255)" stroke="none" stroke-width="1px">5k</text><text style="text-anchor: middle; visibility: inherit; font-family: Roboto, sans-serif; font-size: 12px; font-weight: 200;" x="134.04249906539917" y="0" dx="0em" dy="0.95em" fill="rgb(255, 255, 255)" stroke="none" stroke-width="1px">6k</text><text style="text-anchor: middle; visibility: hidden; font-family: Roboto, sans-serif; font-size: 12px; font-weight: 200;" x="153.19142750331332" y="0" dx="0em" dy="0.95em" fill="rgb(255, 255, 255)" stroke="none" stroke-width="1px">7k</text><text style="text-anchor: middle; visibility: inherit; font-family: Roboto, sans-serif; font-size: 12px; font-weight: 200;" x="172.34035594122753" y="0" dx="0em" dy="0.95em" fill="rgb(255, 255, 255)" stroke="none" stroke-width="1px">8k</text><text style="text-anchor: middle; visibility: hidden; font-family: Roboto, sans-serif; font-size: 12px; font-weight: 200;" x="191.48928437914168" y="0" dx="0em" dy="0.95em" fill="rgb(255, 255, 255)" stroke="none" stroke-width="1px">9k</text><text style="text-anchor: middle; visibility: inherit; font-family: Roboto, sans-serif; font-size: 12px; font-weight: 200;" x="210.63821281705583" y="0" dx="0em" dy="0.95em" fill="rgb(255, 255, 255)" stroke="none" stroke-width="1px">10k</text><text style="text-anchor: middle; visibility: hidden; font-family: Roboto, sans-serif; font-size: 12px; font-weight: 200;" x="229.78714125496998" y="0" dx="0em" dy="0.95em" fill="rgb(255, 255, 255)" stroke="none" stroke-width="1px">11k</text><text style="text-anchor: middle; visibility: inherit; font-family: Roboto, sans-serif; font-size: 12px; font-weight: 200;" x="248.9360696928842" y="0" dx="0em" dy="0.95em" fill="rgb(255, 255, 255)" stroke="none" stroke-width="1px">12k</text><text style="text-anchor: middle; visibility: hidden; font-family: Roboto, sans-serif; font-size: 12px; font-weight: 200;" x="268.08499813079834" y="0" dx="0em" dy="0.95em" fill="rgb(255, 255, 255)" stroke="none" stroke-width="1px">13k</text></g><line x1="0" y1="0" x2="268.08499813079834" y2="0" fill="rgb(0, 0, 0)" stroke="rgb(204, 204, 204)" stroke-width="1px"></line></g></g></g></g></svg>