<svg viewBox="0 0 330 200" xmlns="http://www.w3.org/2000/svg"><g><g><g><g><g><line x1="61.91500186920166" y1="176.89999961853027" x2="56.91500186920166" y2="176.89999961853027" style="visibility: inherit;" fill="rgb(0, 0, 0)" stroke="rgb(204, 204, 204)" stroke-width="1px"></line><line x1="61.91500186920166" y1="163.2923073401818" x2="56.91500186920166" y2="163.2923073401818" style="visibility: inherit;" fill="rgb(0, 0, 0)" stroke="rgb(204, 204, 204)" stroke-width="1px"></line><line x1="61.91500186920166" y1="149.6846150618333" x2="56.91500186920166" y2="149.6846150618333" style="visibility: inherit;" fill="rgb(0, 0, 0)" stroke="rgb(204, 204, 204)" stroke-width="1px"></line><line x1="61.91500186920166" y1="136.07692278348483" x2="56.91500186920166" y2="136.07692278348483" style="visibility: inherit;" fill="rgb(0, 0, 0)" stroke="rgb(204, 204, 204)" stroke-width="1px"></line><line x1="61.91500186920166" y1="122.46923050513634" x2="56.91500186920166" y2="122.46923050513634" style="visibility: inherit;" fill="rgb(0, 0, 0)" stroke="rgb(204, 204, 204)" stroke-width="1px"></line><line x1="61.91500186920166" y1="108.86153822678787" x2="56.91500186920166" y2="108.86153822678787" style="visibility: inherit;" fill="rgb(0, 0, 0)" stroke="rgb(204, 204, 204)" stroke-width="1px"></line><line x1="61.91500186920166" y1="95.25384594843939" x2="56.91500186920166" y2="95.25384594843939" style="visibility: inherit;" fill="rgb(0, 0, 0)" stroke="rgb(204, 204, 204)" stroke-width="1px"></line><line x1="61.91500186920166" y1="81.6461536700909" x2="56.91500186920166" y2="81.6461536700909" style="visibility: inherit;" fill="rgb(0, 0, 0)" stroke="rgb(204, 204, 204)" stroke-width="1px"></line><line x1="61.91500186920166" y1="68.03846139174243" x2="56.91500186920166" y2="68.03846139174243" style="visibility: inherit;" fill="rgb(0, 0, 0)" stroke="rgb(204, 204, 204)" stroke-width="1px"></line><line x1="61.91500186920166" y1="54.430769113393936" x2="56.91500186920166" y2="54.430769113393936" style="visibility: inherit;" fill="rgb(0, 0, 0)" stroke="rgb(204, 204, 204)" stroke-width="1px"></line><line x1="61.91500186920166" y1="40.82307683504548" x2="56.91500186920166" y2="40.82307683504548" style="visibility: inherit;" fill="rgb(0, 0, 0)" stroke="rgb(204, 204, 204)" stroke-width="1px"></line><line x1="61.91500186920166" y1="27.215384556696986" x2="56.91500186920166" y2="27.215384556696986" style="visibility: inherit;" fill="rgb(0, 0, 0)" stroke="rgb(204, 204, 204)" stroke-width="1px"></line><line x1="61.91500186920166" y1="13.607692278348493" x2="56.91500186920166" y2="13.607692278348493" style="visibility: inherit;" fill="rgb(0, 0, 0)" stroke="rgb(204, 204, 204)" stroke-width="1px"></line><line x1="61.91500186920166" y1="0" x2="56.91500186920166" y2="0" style="visibility: inherit;" fill="rgb(0, 0, 0)" stroke="rgb(204, 204, 204)" stroke-width="1px"></line></g><g transform="translate(51.91500186920166, 0)"><text style="text-anchor: end; visibility: hidden; font-family: Roboto, sans-serif; font-size: 12px; font-weight: 200;" x="0" y="176.89999961853027" dx="0em" dy="0.3em" fill="rgb(255, 255, 255)" stroke="none" stroke-width="1px">-1e-3</text><text style="text-anchor: end; visibility: inherit; font-family: Roboto, sans-serif; font-size: 12px; font-weight: 200;" x="0" y="163.2923073401818" dx="0em" dy="0.3em" fill="rgb(255, 255, 255)" stroke="none" stroke-width="1px">0</text><text style="text-anchor: end; visibility: hidden; font-family: Roboto, sans-serif; font-size: 12px; font-weight: 200;" x="0" y="149.6846150618333" dx="0em" dy="0.3em" fill="rgb(255, 255, 255)" stroke="none" stroke-width="1px">1e-3</text><text style="text-anchor: end; visibility: inherit; font-family: Roboto, sans-serif; font-size: 12px; font-weight: 200;" x="0" y="136.07692278348483" dx="0em" dy="0.3em" fill="rgb(255, 255, 255)" stroke="none" stroke-width="1px">2e-3</text><text style="text-anchor: end; visibility: hidden; font-family: Roboto, sans-serif; font-size: 12px; font-weight: 200;" x="0" y="122.46923050513634" dx="0em" dy="0.3em" fill="rgb(255, 255, 255)" stroke="none" stroke-width="1px">3e-3</text><text style="text-anchor: end; visibility: inherit; font-family: Roboto, sans-serif; font-size: 12px; font-weight: 200;" x="0" y="108.86153822678787" dx="0em" dy="0.3em" fill="rgb(255, 255, 255)" stroke="none" stroke-width="1px">4e-3</text><text style="text-anchor: end; visibility: hidden; font-family: Roboto, sans-serif; font-size: 12px; font-weight: 200;" x="0" y="95.25384594843939" dx="0em" dy="0.3em" fill="rgb(255, 255, 255)" stroke="none" stroke-width="1px">5e-3</text><text style="text-anchor: end; visibility: inherit; font-family: Roboto, sans-serif; font-size: 12px; font-weight: 200;" x="0" y="81.6461536700909" dx="0em" dy="0.3em" fill="rgb(255, 255, 255)" stroke="none" stroke-width="1px">6e-3</text><text style="text-anchor: end; visibility: hidden; font-family: Roboto, sans-serif; font-size: 12px; font-weight: 200;" x="0" y="68.03846139174243" dx="0em" dy="0.3em" fill="rgb(255, 255, 255)" stroke="none" stroke-width="1px">7e-3</text><text style="text-anchor: end; visibility: inherit; font-family: Roboto, sans-serif; font-size: 12px; font-weight: 200;" x="0" y="54.430769113393936" dx="0em" dy="0.3em" fill="rgb(255, 255, 255)" stroke="none" stroke-width="1px">8e-3</text><text style="text-anchor: end; visibility: hidden; font-family: Roboto, sans-serif; font-size: 12px; font-weight: 200;" x="0" y="40.82307683504548" dx="0em" dy="0.3em" fill="rgb(255, 255, 255)" stroke="none" stroke-width="1px">9e-3</text><text style="text-anchor: end; visibility: inherit; font-family: Roboto, sans-serif; font-size: 12px; font-weight: 200;" x="0" y="27.215384556696986" dx="0em" dy="0.3em" fill="rgb(255, 255, 255)" stroke="none" stroke-width="1px">0.01</text><text style="text-anchor: end; visibility: hidden; font-family: Roboto, sans-serif; font-size: 12px; font-weight: 200;" x="0" y="13.607692278348493" dx="0em" dy="0.3em" fill="rgb(255, 255, 255)" stroke="none" stroke-width="1px">0.011</text><text style="text-anchor: end; visibility: hidden; font-family: Roboto, sans-serif; font-size: 12px; font-weight: 200;" x="0" y="0" dx="0em" dy="0.3em" fill="rgb(255, 255, 255)" stroke="none" stroke-width="1px">0.012</text></g><line x1="61.91500186920166" y1="0" x2="61.91500186920166" y2="176.89999961853027" fill="rgb(0, 0, 0)" stroke="rgb(204, 204, 204)" stroke-width="1px"></line></g></g><g transform="translate(61, 0)" clip-path="url(#clip_0)"><clipPath id="clip_0"><rect width="268" height="176"></rect></clipPath><g><g><g><line x1="0" y1="0" x2="0" y2="176.89999961853027" fill="rgb(0, 0, 0)" stroke="rgb(189, 189, 189)" stroke-width="1px" opacity="0.25"></line><line x1="19.148928437914165" y1="0" x2="19.148928437914165" y2="176.89999961853027" fill="rgb(0, 0, 0)" stroke="rgb(189, 189, 189)" stroke-width="1px" opacity="0.25"></line><line x1="38.29785687582833" y1="0" x2="38.29785687582833" y2="176.89999961853027" fill="rgb(0, 0, 0)" stroke="rgb(189, 189, 189)" stroke-width="1px" opacity="0.25"></line><line x1="57.446785313742495" y1="0" x2="57.446785313742495" y2="176.89999961853027" fill="rgb(0, 0, 0)" stroke="rgb(189, 189, 189)" stroke-width="1px" opacity="0.25"></line><line x1="76.59571375165666" y1="0" x2="76.59571375165666" y2="176.89999961853027" fill="rgb(0, 0, 0)" stroke="rgb(189, 189, 189)" stroke-width="1px" opacity="0.25"></line><line x1="95.74464218957084" y1="0" x2="95.74464218957084" y2="176.89999961853027" fill="rgb(0, 0, 0)" stroke="rgb(189, 189, 189)" stroke-width="1px" opacity="0.25"></line><line x1="114.89357062748499" y1="0" x2="114.89357062748499" y2="176.89999961853027" fill="rgb(0, 0, 0)" stroke="rgb(189, 189, 189)" stroke-width="1px" opacity="0.25"></line><line x1="134.04249906539917" y1="0" x2="134.04249906539917" y2="176.89999961853027" fill="rgb(0, 0, 0)" stroke="rgb(189, 189, 189)" stroke-width="1px" opacity="0.25"></line><line x1="153.19142750331332" y1="0" x2="153.19142750331332" y2="176.89999961853027" fill="rgb(0, 0, 0)" stroke="rgb(189, 189, 189)" stroke-width="1px" opacity="0.25"></line><line x1="172.34035594122753" y1="0" x2="172.34035594122753" y2="176.89999961853027" fill="rgb(0, 0, 0)" stroke="rgb(189, 189, 189)" stroke-width="1px" opacity="0.25"></line><line x1="191.48928437914168" y1="0" x2="191.48928437914168" y2="176.89999961853027" fill="rgb(0, 0, 0)" stroke="rgb(189, 189, 189)" stroke-width="1px" opacity="0.25"></line><line x1="210.63821281705583" y1="0" x2="210.63821281705583" y2="176.89999961853027" fill="rgb(0, 0, 0)" stroke="rgb(189, 189, 189)" stroke-width="1px" opacity="0.25"></line><line x1="229.78714125496998" y1="0" x2="229.78714125496998" y2="176.89999961853027" fill="rgb(0, 0, 0)" stroke="rgb(189, 189, 189)" stroke-width="1px" opacity="0.25"></line><line x1="248.9360696928842" y1="0" x2="248.9360696928842" y2="176.89999961853027" fill="rgb(0, 0, 0)" stroke="rgb(189, 189, 189)" stroke-width="1px" opacity="0.25"></line><line x1="268.08499813079834" y1="0" x2="268.08499813079834" y2="176.89999961853027" fill="rgb(0, 0, 0)" stroke="rgb(189, 189, 189)" stroke-width="1px" opacity="0.25"></line></g><g><line x1="0" y1="176.89999961853027" x2="268.08499813079834" y2="176.89999961853027" fill="rgb(0, 0, 0)" stroke="rgb(189, 189, 189)" stroke-width="1px" opacity="0.25"></line><line x1="0" y1="163.2923073401818" x2="268.08499813079834" y2="163.2923073401818" fill="rgb(0, 0, 0)" stroke="rgb(189, 189, 189)" stroke-width="1px" opacity="0.25"></line><line x1="0" y1="149.6846150618333" x2="268.08499813079834" y2="149.6846150618333" fill="rgb(0, 0, 0)" stroke="rgb(189, 189, 189)" stroke-width="1px" opacity="0.25"></line><line x1="0" y1="136.07692278348483" x2="268.08499813079834" y2="136.07692278348483" fill="rgb(0, 0, 0)" stroke="rgb(189, 189, 189)" stroke-width="1px" opacity="0.25"></line><line x1="0" y1="122.46923050513634" x2="268.08499813079834" y2="122.46923050513634" fill="rgb(0, 0, 0)" stroke="rgb(189, 189, 189)" stroke-width="1px" opacity="0.25"></line><line x1="0" y1="108.86153822678787" x2="268.08499813079834" y2="108.86153822678787" fill="rgb(0, 0, 0)" stroke="rgb(189, 189, 189)" stroke-width="1px" opacity="0.25"></line><line x1="0" y1="95.25384594843939" x2="268.08499813079834" y2="95.25384594843939" fill="rgb(0, 0, 0)" stroke="rgb(189, 189, 189)" stroke-width="1px" opacity="0.25"></line><line x1="0" y1="81.6461536700909" x2="268.08499813079834" y2="81.6461536700909" fill="rgb(0, 0, 0)" stroke="rgb(189, 189, 189)" stroke-width="1px" opacity="0.25"></line><line x1="0" y1="68.03846139174243" x2="268.08499813079834" y2="68.03846139174243" fill="rgb(0, 0, 0)" stroke="rgb(189, 189, 189)" stroke-width="1px" opacity="0.25"></line><line x1="0" y1="54.430769113393936" x2="268.08499813079834" y2="54.430769113393936" fill="rgb(0, 0, 0)" stroke="rgb(189, 189, 189)" stroke-width="1px" opacity="0.25"></line><line x1="0" y1="40.82307683504548" x2="268.08499813079834" y2="40.82307683504548" fill="rgb(0, 0, 0)" stroke="rgb(189, 189, 189)" stroke-width="1px" opacity="0.25"></line><line x1="0" y1="27.215384556696986" x2="268.08499813079834" y2="27.215384556696986" fill="rgb(0, 0, 0)" stroke="rgb(189, 189, 189)" stroke-width="1px" opacity="0.25"></line><line x1="0" y1="13.607692278348493" x2="268.08499813079834" y2="13.607692278348493" fill="rgb(0, 0, 0)" stroke="rgb(189, 189, 189)" stroke-width="1px" opacity="0.25"></line><line x1="0" y1="0" x2="268.08499813079834" y2="0" fill="rgb(0, 0, 0)" stroke="rgb(189, 189, 189)" stroke-width="1px" opacity="0.25"></line></g></g></g><g><g><line x1="0" y1="163.2923073401818" x2="268.08499813079834" y2="163.2923073401818" fill="rgb(0, 0, 0)" stroke="rgb(153, 153, 153)" stroke-width="1.5px"></line></g></g><g><g><line x1="19.148928437914165" y1="0" x2="19.148928437914165" y2="176.89999961853027" fill="rgb(0, 0, 0)" stroke="rgb(153, 153, 153)" stroke-width="1.5px"></line></g></g><g><g><g><g><g><path style="fill: none;" stroke="rgb(204, 51, 17)" stroke-width="2px" d="M19.321268793855396,162.4646803820331L19.70424736261368,160.68318365008165L19.89573664699282,158.24200048758695L20.08722593137196,155.23452081220472L20.661693784509385,149.6479512994194L21.04467235326767,141.35308054775618L21.23616163764681,136.43273298937498L21.427650922025954,131.4290183460493L22.002118775163378,122.86810462351147L22.19360805954252,112.98038997473822L22.38509734392166,105.3283316649256L22.576586628300802,94.860002301131L22.768075912679944,89.89718954935105L22.95956519705909,81.70612384807073L23.151054481438226,72.5910398835248L23.534033050196513,67.19674840259098L23.72552233457565,63.84263947353407L24.12764983177185,61.95644994550179L24.319139116150993,59.164119467416285L24.510628400530134,57.72041122056236L24.702117684909275,55.21178870044836L24.893606969288417,53.16540996048465L25.085096253667558,50.54136243759352L25.276585538046703,47.16072995846506L25.46807482242584,45.91132807007346L25.659564106804982,44.74085936963024L25.851053391184127,44.234283944750786L26.234031959942406,41.64768605158561L26.42552124432155,40.89838949621239L26.617010528700693,40.16455607133142L26.808499813079834,39.23159837206103L26.999989097458975,39.17266848686012L27.38296766621726,39.36945633282835L27.5744569505964,38.14096635265164L28.148924803733824,36.14343429328005L28.34041408811297,34.392524082338674L28.53190337249211,32.17221260562541L28.723392656871248,31.85536514752476L28.934030869688307,30.798358911995535L29.12552015406745,31.017906869709726L29.31700943844659,30.95822775746036L29.50849872282573,29.490961599448482L29.699988007204873,29.479183669074445L29.891477291584014,29.678612984277834L30.2744558603423,29.023701341319075L30.46594514472144,28.568509844009615L30.848923713479724,28.944733191946902L31.040412997858866,29.32978503957489L31.231902282238007,29.14885167721234L31.42339156661715,29.22176607534919L31.80637013537543,29.119833991863864L31.997859419754572,29.03617929290483L32.189348704133714,28.61815703836176L32.38083798851286,27.436978173695003L32.76381655727114,27.97879788935111L32.95530584165028,27.875500209283345L33.146795126029424,27.28697003985477L33.33828441040857,28.00840750083379L33.740411907604766,26.97345494856367L34.12339047636304,26.519801599734834L34.31487976074219,26.358184115078018L34.50636904512133,24.900188562318025L34.69785832950047,24.907087009501797L34.889347613879615,25.163449843426445L35.08083689825876,24.946978219899336L35.27232618263789,24.98848232590782L35.463815467017035,25.30439801999768L35.65530475139618,25.2129915681583L35.84679403577532,23.821006401889107L36.03828332015446,22.97968642208041L36.22977260453361,22.502503826546565L36.42126188891275,22.522486788907994L36.61275117329188,21.660309820316275L36.99572974205017,22.08941875666006L37.378708310808456,21.92375127934584L37.5701975951876,21.670650131818046L37.76168687956673,22.226831243769066L38.33615473270416,22.330875698887233L38.54679294552122,21.857307386009317L38.738282229900356,21.913694047009265L39.121260798658646,21.11706830869684L39.312750083037784,20.659763315410082L39.69572865179607,21.188492714804077L39.88721793617521,20.864223730642546L40.07870722055435,20.969356301603344L40.270196504933494,21.03154477322981L40.46168578931264,21.133561167191953L40.65317507369178,21.64713115405798L40.84466435807092,21.82147813295145L41.2276429268292,22.015656026600492L41.41913221120834,21.779761660856554L41.61062149558749,21.379415435849882L41.802110779966625,21.186174215694773L41.99360006434577,21.24067056887538L42.18508934872491,21.106202091617813L42.37657863310405,21.038455021898088L42.56806791748319,21.08249903469903L42.759557201862336,20.93154724460363L42.95104648624148,20.73020609469861L43.35317398343768,20.72285707868085L43.544663267816816,20.98133582250604L43.73615255219596,20.638921895467657L43.927641836575106,20.9167925897412L44.119131120954236,20.3933050179155L44.31062040533338,20.50989004750962L44.502109689712526,20.566947916287347L44.693598974091664,20.48819054360415L45.076577542849954,20.32145640819042L45.45955611160823,20.35992771915358L45.651045395987374,20.589971471633117L45.84253468036652,19.985849671792007L46.03402396474566,19.999109954499517L46.2255132491248,19.056037643483776L46.41700253350395,19.15716985797031L46.79998110226222,19.251850022434947L46.99147038664137,18.87208068578694L47.182959671020505,18.653894546635236L47.37444895539965,18.347641394352905L47.565938239778795,18.149925551565016L47.75742752415793,18.07111392967761L48.15955502135413,17.89330596109039L48.54253359011241,18.14132366123897L48.73402287449155,18.326610284215807L48.925512158870696,18.17354817336435L49.308490727628985,18.167887882963914L49.49998001200812,18.51416278162498L49.69146929638726,18.829446218715468L49.882958580766406,18.221159186631752L50.074447865145544,18.08212365420425L50.26593714952469,18.69923984773642L50.457426433903834,18.860169986717988L50.64891571828297,18.347351903761105L50.840405002662116,17.86630414831046L51.031894287041254,17.60910542894862L51.22338357142039,17.704466458787948L51.60636214017868,17.98784083407382L51.79785142455783,17.36031447066565L51.989340708936965,17.881907033573317L52.18082999331611,18.23673363814542L52.37231927769525,18.12276926792768L52.75529784645353,17.91098765855528L52.96593605927058,18.06061672372058L53.15742534364973,18.104279665214424L53.34891462802887,17.874755639554778L53.54040391240801,18.128103114619744L53.9233824811663,17.998283854650357L54.11487176554543,18.104374522997364L54.306361049924575,17.472327602211017L54.49785033430372,17.60014961454112L54.68933961868286,17.532234875621455L54.880828903062,17.293468867047284L55.07231818744115,16.373828211307256L55.64678604057857,16.380288688285525L55.83827532495771,16.329900056654175L56.02976460933685,16.428162834835504L56.221253893715996,16.3691670433388L56.41274317809514,16.226045110792263L56.79572174685342,15.944011675751474L57.1787003156117,16.088359625840273L57.370189599990844,16.215434415930325L57.56167888436999,16.474256862474405L57.77231709718704,16.38684425695955L58.155295665945324,16.399065023793753L58.34678495032447,16.196853463101302L58.53827423470361,16.42294582149215L58.72976351908275,16.36236337222959L58.92125280346189,16.49947122585372L59.112742087841035,16.59691965764623L59.30423137222018,16.732831001771498L59.49572065659932,16.51720040848864L59.687209940978455,16.327048225698537L59.8786992253576,16.369076049082125L60.26167779411588,16.53660987682968L60.45316707849503,16.371010871230823L60.644656362874166,16.103221913775542L60.83614564725331,15.916962820714033L61.21912421601159,15.713909727795865L61.41061350039073,15.773888841203934L61.602102784769876,16.271383492790157L61.79359206914902,16.24050095073414L61.98508135352816,16.33686659495797L62.176570637907304,16.49917981815421L62.36805992228644,16.60101116409669L62.5786981351035,16.52062094341845L62.770187419482646,16.394458023984374L63.34465527262007,16.549460657806637L63.536144556999204,16.427005574184502L63.72763384137835,16.497873849066277L63.919123125757494,16.739980523459483L64.11061241013662,16.79611053279874L64.30210169451577,16.72471272477315L64.49359097889491,16.250153410190563L64.68508026327406,16.171766423270096L64.87656954765319,15.956418712608041L65.06805883203234,15.983653552564872L65.25954811641148,15.8639129339119L65.64252668516977,15.880895559248865L65.83401596954891,15.801113054092578L66.21699453830719,15.747194851948143L66.40848382268634,15.404838221322205L66.59997310706547,15.396006849361148L66.79146239144461,15.538310978708129L66.98295167582376,15.54986606085034L67.1744409602029,15.460320045960458L67.76805774177824,15.614149744607762L67.95954702615738,15.852618200077348L68.15103631053653,15.837089106908397L68.34252559491567,15.707218538724538L68.72550416367395,15.885960766530102L68.91699344805309,15.467136273061406L69.10848273243222,15.469299633596277L69.29997201681137,15.038433973181311L69.68295058556966,15.200700605645622L69.87443986994879,14.419327573412662L70.25741843870708,14.651173888596768L70.64039700746537,14.836529835889296L70.83188629184451,14.768812469114158L71.21486486060279,14.963098607068009L71.40635414498193,14.955595180714994L71.78933271374021,14.9583399647901L71.98082199811935,15.195823950491713L72.19146021093641,15.330436220365833L72.38294949531556,15.074478926290368L72.76592806407383,15.323938317621893L72.95741734845298,15.072520283555178L73.14890663283212,14.862208456066575L73.34039591721127,14.938325872985637L73.5318852015904,15.029167860463172L73.72337448596954,15.09929015851947L73.91486377034867,15.070227520920145L74.10635305472782,14.890987334908695L74.29784233910696,14.96176622264768L74.48933162348611,14.899886590103469L74.68082090786525,14.885734703277627L74.8723101922444,14.772652255005495L75.06379947662354,14.696024625507633L75.25528876100267,14.755673707007778L76.02124589851925,14.842287889626805L76.21273518289838,14.853576367756848L76.40422446727752,14.8672774530881L76.59571375165666,15.113462701330398L76.7872030360358,14.97222317397225L76.99784124885286,14.842420401833667L77.18933053323201,14.4920088797611L77.5723091019903,14.524954156455713L77.76379838636944,14.35102555584708L77.95528767074856,14.0819186639735L78.1467769551277,14.080652847410118L78.33826623950685,14.258961322031878L78.529755523886,14.29488698262893L78.72124480826514,14.221271170604005L79.10422337702343,14.339521197741433L79.29571266140256,14.610356691817714L79.4872019457817,14.70079332163456L79.67869123016085,14.480329901493532L79.87018051454,14.673465886492128L80.06166979891914,14.578439403636041L80.4446483676774,14.610736881398282L80.63613765205655,14.852371522170092L80.82762693643569,14.817686464192802L81.01911622081484,14.71030934185287L81.21060550519398,14.86330969517659L81.59358407395227,14.76748123025829L81.80422228676933,14.669416948414284L82.18720085552759,14.667160693796458L82.57017942428588,14.573310813081877L82.76166870866503,14.643964775833576L82.95315799304417,14.431365842702782L83.14464727742332,14.507785060800938L83.33613656180245,14.503384884318287L83.52762584618159,14.37958712619696L83.91060441493988,14.391782965744127L84.10209369931903,14.213752378640255L84.29358298369817,13.87454530990723L84.67656155245645,13.828535872794609L84.86805083683558,13.994315005052217L85.05954012121472,14.204115610277219L85.25102940559387,13.957278527362316L85.44251868997301,14.11156076393536L85.63400797435216,14.228405000020588L85.82549725873129,14.149442388098445L86.01698654311043,13.838646966373743L86.20847582748958,14.069230400826862L86.39996511186872,13.908135224807445L86.61060332468577,14.059754234449313L86.99358189344406,13.967680088182256L87.1850711778232,13.85664144060573L87.37656046220233,13.824402947893757L87.56804974658148,13.85241766342914L87.95102831533977,14.06790182000277L88.14251759971891,14.177791320301505L88.5254961684772,14.095366059408518L88.71698545285633,14.131982644842209L88.90847473723548,14.375289878329943L89.09996402161462,14.40757867513308L89.29145330599376,14.121667837869865L89.4829425903729,14.252168949973445L89.67443187475205,13.889828573072554L89.86592115913118,13.987559415216973L90.05741044351032,13.64757690780657L90.24889972788947,13.688969315162211L91.01485686540605,13.566079263643253L91.20634614978518,13.383550944653864L91.41698436260224,13.292833803053218L91.79996293136051,13.055198308630011L91.99145221573966,12.7700065317692L92.56592006887709,12.697352707572428L92.75740935325622,12.545780836950462L93.14038792201451,12.156356971376052L93.33187720639366,12.189554284354719L93.5233664907728,12.103823446738275L94.09783434391021,11.981684392795676L94.28932362828935,12.105677240173742L94.4808129126685,11.967487808974795L94.67230219704764,11.898198658171074L94.86379148142679,11.912673047027306L95.05528076580593,11.981646969054777L95.24677005018506,12.19975123255053L95.43825933456421,12.284648050611162L95.62974861894335,12.360394569231286L95.8212379033225,12.19084267399631L96.01272718770164,12.438781018371898L96.22336540051869,12.383035359496489L96.41485468489783,12.25561193666739L96.60634396927698,12.279070409865714L96.79783325365612,12.23696099668827L96.98932253803525,12.296226931839339L97.1808118224144,12.29354121710895L97.37230110679354,12.326624189902077L97.56379039117269,11.929367742077634L97.75527967555183,11.809698199932106L97.94676895993098,11.747006995968528L98.1382582443101,11.728399489870387L98.52123681306838,11.388373522595804L98.71272609744753,11.384119815236767L98.90421538182667,11.278381017260832L99.09570466620582,11.320732166460049L99.67017251934324,11.497988562478195L99.86166180372238,11.611161722168918L100.05315108810153,11.491992494184165L100.24464037248067,11.589375576159402L100.43612965685982,11.763433064106476L100.62761894123894,11.509219568650634L100.81910822561808,11.495497518632142L101.02974643843514,11.454495774983084L101.22123572281428,11.464310734262186L101.41272500719343,11.14054416151849L101.79570357595172,10.978930322006015L101.98719286033086,10.92070760812864L102.17868214471,11.005183408307795L102.75314999784742,11.030761503643209L102.94463928222656,10.95380808080466L103.1361285666057,10.985735088991072L103.32761785098485,10.946744094182975L103.51910713536398,11.076256716528546L103.71059641974313,11.240266781034473L103.90208570412227,11.406014674548317L104.09357498850142,11.324323367219083L104.4765535572597,11.256560021072257L104.66804284163884,11.180892522154336L104.85953212601798,11.223039157046646L105.05102141039711,11.25589650960511L105.8361274763516,10.99575746198605L106.02761676073075,11.025859682625848L106.2191060451099,11.154778122680883L106.41059532948903,11.17277977349767L106.60208461386817,11.310933377662213L106.7935738982473,11.332227157870733L106.98506318262645,11.40674549163937L107.36804175138474,11.269453282180734L107.75102032014301,11.313105649402813L107.94250960452216,11.29948841673781L108.1339988889013,11.435688829870026L108.32548817328045,11.408557737604314L108.51697745765959,11.221758559660195L108.70846674203874,11.225873318178383L108.89995602641787,11.24108167360366L109.28293459517616,11.311015864111203L109.47442387955529,11.211357010231188L109.66591316393443,11.331413824611518L109.85740244831358,11.009741920681646L110.24038101707185,11.03730313224876L110.431870301451,10.810253680744328L110.64250851426806,10.884977633004594L111.21697636740548,10.854791297768704L111.40846565178462,10.913983951101965L111.59995493616375,10.99761126959137L111.7914442205429,11.03082796310844L111.98293350492204,10.930685221432316L112.17442278930119,10.842797362012071L112.36591207368033,10.992701052720669L112.74889064243862,10.713281171604644L112.94037992681776,10.739392388718546L113.1318692111969,10.648660937458216L113.32335849557604,10.615486489178096L113.51484777995519,10.706837861713561L113.70633706433432,10.820580672480615L114.28080491747174,10.868055206152263L114.47229420185089,10.992708883707197L114.85527277060918,11.147272931253239L115.04676205498832,11.354754947907692L115.23825133936747,11.232988297386454L115.64037883656366,11.365580925148521L115.83186812094279,11.353184422600563L116.02335740532193,11.40332648751318L116.59782525845937,11.221033269431079L116.78931454283851,11.349227501910025L116.98080382721764,11.426513072818246L117.17229311159679,11.47401610323312L117.36378239597593,11.450760968138098L117.55527168035508,11.38946069548298L117.74676096473422,11.22820800767938L117.93825024911337,11.262413571928667L118.1297395334925,11.366811474605226L118.51271810225077,11.327593865716869L118.70420738662992,11.230360537264378L118.89569667100906,11.258144936757578L119.08718595538821,10.997126895574246L119.27867523976735,11.073438219888397L119.47016452414648,11.053653281571046L119.85314309290477,11.04254289794831L120.44675987448011,10.923706550539928L120.63824915885925,10.734538604439443L120.8297384432384,10.797911957098032L121.21271701199667,10.650310314591726L121.40420629637582,10.655612825471465L121.59569558075496,10.741489170213523L121.78718486513411,10.72795020441146L121.97867414951325,10.678921150716494L122.1701634338924,10.517934734400288L122.36165271827153,10.628339049461772L122.55314200265066,10.708193730174544L122.7446312870298,10.554370366946737L122.93612057140895,10.69074187878749L123.1276098557881,10.493247169765088L123.31909914016724,10.453972080306603L123.51058842454637,10.432783232899258L123.70207770892551,10.274225253856576L123.89356699330466,10.301367036573165L124.27654556206295,10.22396703318378L124.4680348464421,10.416940211902414L124.65952413082124,10.460129000104363L125.06165162801743,10.582659339591855L125.4446301967757,10.350842948542542L125.63611948115485,10.451712548245663L125.827608765534,10.51106234237234L126.01909804991314,10.389690043955602L126.21058733429228,10.271985015687441L126.59356590305056,10.21179278996235L126.7850551874297,10.00657470764406L126.97654447180884,10.15002960405853L127.16803375618798,10.22126938209223L127.35952304056713,10.371270051651663L127.55101232494627,10.606519619963667L127.7425016093254,10.518790570229449L128.12548017808368,10.565427170308602L128.31696946246282,10.49630137959943L128.50845874684197,10.675809945133743L128.6999480312211,10.81204112280487L128.89143731560026,10.947027018920265L129.0829265999794,10.76561429510008L129.27441588435855,10.854280603953084L129.4659051687377,10.92475326789358L129.8680326659339,11.001781001913665L130.059521950313,11.168599890199367L130.25101123469216,11.121700313756016L130.8254790878296,11.238139826089927L131.59143622534617,11.263952086936607L131.7829255097253,11.375437865561702L131.97441479410443,11.439542739960416L132.35739336286272,11.376451982218377L132.54888264724187,11.435586963274114L132.740371931621,11.396727909407186L132.93186121600013,11.447247589127457L133.12335050037927,11.43919263498084L133.31483978475842,11.44592027734367L133.50632906913756,11.37770035356675L133.6978183535167,11.319387285910896L133.88930763789585,11.375241188062182L134.080796922275,11.41215203569826L134.27228620665414,11.306766791575667L134.4637754910333,11.289379157778331L134.8659029882295,11.29247139476877L135.0573922726086,11.340535739863988L135.24888155698775,11.47091643778928L135.4403708413669,11.639433872546912L135.63186012574604,11.617077895663368L135.8233494101252,11.582309572068079L136.01483869450433,11.566795655922018L136.20632797888348,11.544352671587566L136.39781726326262,11.478082689596965L136.58930654764174,11.209467806125035L136.97228511640003,11.089156611050537L137.16377440077918,11.074033490048818L137.35526368515832,11.192545152011082L137.54675296953747,11.323616632864072L137.7382422539166,11.32586667897068L137.92973153829573,11.264656887054663L138.1212208226749,11.316448843398655L138.31271010705402,11.33983654773893L138.5041993914332,11.311974326655065L138.6956886758123,11.320775687492567L138.88717796019145,11.407027684242744L139.0786672445706,11.40407237137502L139.48079474176677,11.41112635531683L139.67228402614595,11.322256802005995L139.86377331052506,11.378607952669642L140.05526259490424,11.471887926568728L140.24675187928335,11.671452234758872L140.8212197324208,11.761732716783328L141.01270901679993,11.835715314418872L141.20419830117908,11.847362419635635L141.39568758555822,11.72797136037653L141.58717686993734,11.533162544019826L141.77866615431648,11.457770399095915L142.16164472307477,11.418208893157013L142.35313400745392,11.42938382352799L142.54462329183306,11.374502297295466L142.7361125762122,11.318504972401902L142.92760186059135,11.497157690239638L143.11909114497047,11.36412089420817L143.31058042934964,11.40929775490945L143.50206971372876,11.347158730983724L143.88504828248705,11.369828065858266L144.0765375668662,11.377264815916327L144.4786650640624,11.318784253090735L144.6701543484415,11.340578128703067L144.8616436328207,11.37777148308854L145.0531329171998,11.36477164984495L145.24462220157898,11.299431026024944L145.81909005471638,11.243941171982344L146.0105793390955,10.947984326139526L146.20206862347467,10.95947418767976L146.3935579078538,10.97694654259617L146.77653647661208,10.894332656106432L147.15951504537037,11.008926088694766L147.54249361412866,10.912029680501591L147.92547218288695,11.013688442225147L148.1169614672661,10.864067908175016L148.30845075164524,10.807989662908913L148.49994003602436,10.773241415283787L148.6914293204035,10.937928856169401L149.0935568175997,10.87052742641083L149.28504610197885,10.896839588202893L149.476535386358,10.835841590795301L149.66802467073714,10.859563685601785L149.85951395511628,10.874024757973622L150.0510032394954,10.907500281588327L150.4339818082537,10.940149411047205L150.62547109263284,10.979184042161673L150.81696037701198,10.996645460177316L151.00844966139113,11.05614574166394L151.39142823014942,10.864234504921544L151.58291751452853,10.873114918637443L151.7744067989077,10.839288013183936L151.96589608328682,10.885017240031988L152.3488746520451,10.866317277208212L152.54036393642423,11.061362705660258L152.7318532208034,10.999646903994595L152.92334250518252,11.134796060311336L153.1148317895617,11.205678889055653L153.3063210739408,11.234095697878223L153.49781035831998,11.168977568721782L153.6892996426991,11.317241868537883L153.89993785551616,11.282491135931114L154.28291642427445,11.203474317511366L154.47440570865356,11.269542894389081L154.85738427741185,11.253973264073878L155.04887356179103,11.320338844874902L155.24036284617014,11.40695482756951L155.4318521305493,11.447507449135083L155.62334141492843,11.240160366932514L155.81483069930758,11.239790156575465L156.00631998368672,11.359483086963314L156.19780926806587,11.390928061416583L156.389298552445,11.280990955975422L156.77227712120327,11.116638602694357L156.96376640558245,11.19169440269158L157.15525568996156,11.17047946993565L157.3467449743407,11.204946837642394L157.53823425871985,11.059814253734322L157.729723543099,11.023563953790504L157.92121282747814,10.84197207214001L158.11270211185726,11.01817862376529L158.30419139623643,10.94742279034628L158.49568068061555,10.874934241857924L158.7063188934326,10.847676447897793L158.89780817781175,10.731462514762168L159.0892974621909,10.670042941290767L159.28078674657004,10.724089187556194L159.4722760309492,10.859415813854334L159.6637653153283,10.814701138331678L159.85525459970748,10.723550429668169L160.0467438840866,10.589312481302223L160.23823316846577,10.547815300644556L160.42972245284489,10.614090701963638L160.62121173722403,10.657087404124985L160.81270102160317,10.629529665890038L161.19567959036146,10.658459561953073L161.38716887474058,10.582800093910366L161.57865815911975,10.648056843405477L161.96163672787802,10.580896652026619L162.15312601225716,10.641896050611553L162.3446152966363,10.728838939532574L162.53610458101545,10.786961444239884L162.7275938653946,10.841029204151994L163.7041892157282,10.953450680438758L163.89567850010735,10.700464104907132L164.0871677844865,10.79926124855365L164.4701463532448,10.915905975417562L164.66163563762393,10.81799818837546L164.85312492200305,10.662602323545075L165.04461420638222,10.786346842156474L165.23610349076134,10.54843528147387L165.61908205951963,10.656342451299395L165.8105713438988,10.663335104280158L166.00206062827792,10.645657036323941L166.19354991265703,10.540906372435805L166.3850391970362,10.68376652325268L166.57652848141532,10.817544440519828L166.7680177657945,10.742052715443847L166.9595070501736,10.831843213996406L167.1509963345528,10.860910734373553L167.3424856189319,10.854021827204258L167.53397490331105,10.767760826905945L167.7254641876902,10.704134376564358L167.91695347206934,10.75755469881885L168.31908096926554,10.907004144084809L168.51057025364466,10.999649549921704L168.70205953802383,11.109389448915294L168.89354882240295,11.127714953229717L169.0850381067821,11.109190424362781L169.27652739116124,10.9821103693535L169.46801667554038,10.922844103002621L169.65950595991953,10.633262655617395L169.85099524429867,10.348803020768017L170.42546309743608,10.40420132881497L170.61695238181522,10.38092956640119L170.80844166619437,10.354074545929146L170.9999309505735,10.211259662613157L171.19142023495266,10.198724748141913L171.38290951933178,10.203252360855265L171.76588808809007,10.197433581711882L171.95737737246924,10.214020233030736L172.14886665684836,10.219427859306572L172.34035594122753,10.219506841858493L172.53184522560665,10.255642027545955L172.72333450998576,10.25240801683716L172.91482379436493,10.27360393508329L173.125462007182,10.257616735998804L173.50844057594028,10.310378048035764L173.6999298603194,10.23034815856088L173.89141914469857,10.245718906908493L174.0829084290777,10.284636975863966L174.27439771345684,10.38549126298706L174.46588699783598,10.538334056933321L174.6573762822151,10.377004032063937L174.84886556659427,10.427136306085442L175.0403548509734,10.329677632125511L175.23184413535256,10.343248618087909L175.61482270411082,10.235439909521295L175.80631198848997,10.18520383313415L175.9978012728691,10.26018719460991L176.3807798416274,10.214926203412967L176.57226912600655,10.362987796340333L176.7637584103857,10.499707701627239L176.9552476947648,10.31663536529866L177.14673697914395,10.29239773501734L177.3382262635231,10.161315487362003L177.52971554790224,10.109534413130584L177.7212048322814,10.072223748099082L177.93184304509845,9.987481770682697L178.1233323294776,9.913407838880945L178.31482161385674,9.683337569411892L178.50631089823585,9.782577210489814L178.69780018261503,9.871657296371183L178.88928946699414,9.961478090283366L179.27226803575243,9.912050882634942L179.46375732013158,9.916110569567378L179.65524660451072,9.850617307381372L179.84673588888984,9.806120730635898L180.038225173269,9.827642625711704L180.22971445764813,9.74935003154775L180.61269302640642,9.651693258983151L180.80418231078556,9.658736851192474L181.18716087954385,9.675460385731121L181.378650163923,9.717657935743356L181.7616287326813,9.889602702326188L182.14460730143955,9.88891434233786L182.7382240830149,9.81910824207617L182.92971336739404,9.840039973571034L183.50418122053145,9.843782872921578L183.6956705049106,9.818199054942466L183.88715978928974,9.838534577468739L184.07864907366888,9.888266782727605L184.27013835804803,9.99511356851498L184.65311692680632,10.051519208839004L184.84460621118546,10.080695851144965L185.03609549556458,10.132011668305918L185.61056334870204,10.163298489250682L185.80205263308116,10.071976875613313L186.18503120183945,10.140634765560101L186.37652048621857,10.055999569611826L186.56800977059774,10.041129488321232L186.75949905497686,10.027800835461596L186.95098833935603,10.051425048404182L187.14247762373515,10.089884620475274L187.3339669081143,10.062202765681667L187.7360944053105,10.073126043023066L187.9275836896896,10.012002344531204L188.11907297406879,9.894229395634394L188.50205154282708,9.727016930650068L188.6935408272062,9.799489841093166L188.88503011158537,9.919760039473662L189.07651939596448,9.797486161827463L189.26800868034363,9.617101847601095L189.45949796472277,9.633599444299575L189.65098724910192,9.521500432947128L189.84247653348106,9.651860700038693L190.0339658178602,9.752858517662453L190.22545510223932,9.69432996156659L190.41694438661847,9.693305252016119L190.79992295537676,9.724046289292097L190.9914122397559,9.688983117879253L191.3743908085142,9.718239438770954L191.75736937727248,9.646471567297402L191.9488586616516,9.589815114950884L192.54247544322695,9.469909767790682L192.7339647276061,9.520102280531265L193.11694329636435,9.437714618242067L193.30843258074353,9.550434807992064L193.49992186512264,9.419654853787936L193.69141114950182,9.397069347280265L193.88290043388093,9.39874859501691L194.26587900263922,9.266759039679437L194.45736828701837,9.20149297744915L194.84034685577663,9.17527272286602L195.0318361401558,9.125824464760006L195.4148147089141,9.25950086364299L195.6063039932932,9.178751306384495L195.79779327767235,9.201478134909106L195.9892825620515,9.266700802455244L196.18077184643064,9.223449223888109L196.3722611308098,9.240254000568564L196.56375041518893,9.165095320957905L196.75523969956805,9.2333530089359L196.94672898394722,9.1656210897346L197.3488564811434,9.040685808560287L197.54034576552255,9.020532522249416L197.7318350499017,9.115366304777265L197.92332433428084,9.175856138013083L198.11481361865998,9.153732898908094L198.30630290303912,9.04370874712695L198.49779218741827,9.05290712123774L198.6892814717974,8.95212952071233L198.88077075617656,9.084158299436192L199.07226004055568,9.057692726783957L199.45523860931397,9.069325175560211L199.83821717807226,9.041306860250199L200.02970646245137,9.018411040233179L200.22119574683055,8.988641325863956L200.41268503120966,8.869615735674214L200.60417431558884,8.781699141651655L200.79566359996795,8.737888132901476L200.9871528843471,8.806020069810028L201.17864216872624,8.701494159758312L201.3701314531054,8.687050236732498L201.56162073748453,8.839040296479782L201.75311002186365,8.797913533773706L201.9637482346807,8.931419351442555L202.346726803439,9.043244658525207L202.7297053721973,9.012330592127572L202.92119465657643,8.873385378484882L203.11268394095558,8.658751348100925L203.30417322533472,8.56446368544561L203.68715179409298,8.455017125007842L203.87864107847213,8.500670547030426L204.07013036285127,8.548247194931866L204.26161964723042,8.578183647739635L204.45310893160956,8.533498057544938L204.6445982159887,8.576540627393342L204.83608750036785,8.618188255451862L205.21906606912611,8.620503008431667L205.4105553535053,8.68807771406379L205.9850232066427,8.703039040403539L206.1765124910218,8.65764328737249L206.77012927259716,8.739817802140047L206.96161855697633,8.807564532326994L207.15310784135545,8.958435504816324L207.34459712573462,9.026529279323562L207.53608641011374,8.909712058211856L207.7275756944929,8.837192188167071L207.91906497887203,8.69202177040751L208.11055426325115,8.733664666158802L208.30204354763032,8.684933570695183L208.87651140076773,8.760642070605936L209.06800068514687,8.674675922344152L209.25948996952602,8.494250731361824L209.45097925390516,8.569135903177363L209.6424685382843,8.660351834695541L210.0254471070426,8.689805766958225L210.21693639142174,8.76702967926596L210.40842567580086,8.747194277738009L210.59991496018,8.691107473428005L210.79140424455915,8.68813866685276L211.17438281331744,8.771726187161295L211.36587209769658,8.805956522149042L211.57651031051364,8.755965552909078L211.76799959489279,8.771940187724454L211.9594888792719,8.761656669260825L212.15097816365108,8.770763983301974L212.3424674480302,8.800119752624271L212.53395673240934,8.84472018011384L212.72544601678848,8.775751717325923L212.91693530116763,8.855341777982378L213.2999138699259,8.886677352937866L213.68289243868418,8.932440605047013L214.06587100744247,8.921662397724141L214.25736029182164,8.875464849348381L214.44884957620076,8.801560557343064L214.64033886057987,8.76008132988037L214.83182814495905,8.701597530254695L215.40629599809645,8.758110498462893L215.78927456685474,8.798409752095854L215.9807638512339,8.836803897623259L216.3828913484301,8.810880307704066L216.5743806328092,8.79981845232111L216.76586991718838,8.812389637591439L216.9573592015675,8.855844460026558L217.14884848594667,8.898287173933186L217.53182705470493,8.992573449618524L218.2977841922215,8.93037035268011L218.48927347660063,8.885050623824855L218.6807627609798,8.907346268446997L218.87225204535892,9.022439905054046L219.0637413297381,8.979941622668141L219.82969846725462,8.972950372459419L220.0211877516338,8.849494703812224L220.2126770360129,8.84497763822248L220.40416632039208,8.760815567089448L220.78714488915037,8.800673749071635L220.97863417352949,8.828888144761603L221.18927238634654,8.934784374568027L221.57225095510483,8.923962839636872L221.76374023948395,9.007581543213501L221.95522952386312,8.920866662812243L222.33820809262141,8.878878094785415L222.72118666137968,8.868763313788508L222.91267594575882,8.867907510778787L223.10416523013797,8.87207531491304L223.48714379889623,8.723084231913877L223.6786330832754,8.630709502017796L223.87012236765452,8.671528697471057L224.06161165203366,8.545695126532298L224.2531009364128,8.523590511949234L224.44459022079195,8.50006901428951L224.6360795051711,8.555473407110664L224.82756878955024,8.545839714913278L225.01905807392936,8.673052635550578L225.21054735830853,8.57908977650828L225.40203664268765,8.407337979725677L225.59352592706682,8.29302574242032L225.78501521144594,8.289038278397905L226.18714270864214,8.366176467754523L226.3786319930213,8.458172106063829L226.57012127740043,8.40008569011857L226.9530998461587,8.461960328375335L227.14458913053787,8.487987029959552L227.33607841491698,8.498922390735704L227.52756769929616,8.476349451606541L227.9105462680544,8.45148784961181L228.10203555243356,8.349422023020956L228.29352483681268,8.32440494628654L228.48501412119185,8.409386824019352L229.05948197432926,8.341185600582367L229.2509712587084,8.343101088852695L229.44246054308755,8.393962381575104L229.6339498274667,8.424738702660859L230.39990696498327,8.549001952369414L230.80203446217945,8.53421479748617L230.9935237465586,8.566441909198776L231.18501303093774,8.478340111918268L231.37650231531688,8.519752770225232L231.56799159969603,8.553315219755696L231.75948088407517,8.504806997232084L231.95097016845432,8.51198939147263L232.14245945283344,8.418663113396859L232.33394873721258,8.27016293097713L232.52543802159173,8.286516124696478L232.71692730597087,8.321107314854238L232.90841659035001,8.285001519408441L233.09990587472916,8.2815294566584L233.2913951591083,8.306888778991741L233.48288444348742,8.369885721117058L233.8658630122457,8.332462966471837L234.05735229662488,8.330989596194618L234.248841581004,8.25398370413173L234.44033086538317,8.15693046228131L234.6318201497623,8.156839178711232L234.8233094341414,8.093309169085812L235.01479871852058,8.12687260154909L235.60841550009593,8.142977955789101L235.79990478447505,8.12756902379699L236.18288335323334,8.117850556388468L236.37437263761248,8.114010850404002L236.56586192199163,8.112806564603211L236.75735120637074,8.07362362349038L236.94884049074992,8.095535663848159L237.14032977512903,8.148927480041616L237.33181905950818,8.173297534045304L237.52330834388732,8.23501652016589L237.71479762826647,8.23323970636491L237.9062869126456,8.202871344120375L238.2892654814039,8.260185835389514L238.48075476578305,8.230086679225673L238.86373333454134,8.206071895682785L239.05522261892045,8.215579046071474L239.43820118767874,8.214370745988674L239.6296904720579,8.310408176310792L239.82117975643703,8.37165833414199L240.01266904081615,8.298521063190156L240.20415832519532,8.360172676674077L240.41479653801238,8.235661143342101L240.6062858223915,8.167375462224125L240.79777510677067,8.176115319469051L240.9892643911498,8.261392001199841L241.37224295990808,8.271373040878858L241.5637322442872,8.202257609139117L241.75522152866637,8.203462065765574L242.13820009742466,8.208851185751255L242.32968938180377,8.104793344817821L242.52117866618295,8.161129896933584L242.71266795056206,8.142734903827897L242.9041572349412,8.080826425686512L243.09564651932035,8.21235820873871L243.2871358036995,8.243375738700712L243.47862508807864,8.237247599961L243.67011437245776,8.212239918798305L243.86160365683693,8.200273981234712L244.62756079435349,8.247158537361537L244.81905007873263,8.206974743613628L245.01053936311177,8.320386034110706L245.41266686030798,8.371712650517537L245.6041561446871,8.308722824011918L245.79564542906624,8.274443327913197L245.98713471344539,8.255755634284881L246.17862399782453,8.24201434821762L246.37011328220368,8.23243371178513L246.56160256658282,8.2562708435663L246.9445811353411,8.178284430242055L247.13607041972023,8.235415937655022L247.3275597040994,8.287732657134814L247.7105382728577,8.180615842580062L247.9020275572368,8.153182826639103L248.09351684161592,8.072929749357916L248.2850061259951,8.132751213398109L248.6679846947534,8.063392957428908L248.8594739791325,8.087113627238077L249.05096326351168,8.044479367398967L249.2424525478908,8.05379441035785L249.43394183226994,8.13559043226226L249.62543111664908,8.212061785048682L250.21904789822443,8.328453739837963L250.41053718260355,8.320433776614111L250.98500503574098,8.259616692277591L251.17649432012013,8.333568771893107L251.36798360449927,8.288172804818483L251.75096217325756,8.395084027373638L251.9424514576367,8.376526811416776L252.13394074201585,8.45041755170931L252.5169193107741,8.411968816474642L252.70840859515326,8.467297928646191L252.8998978795324,8.507633195275591L253.2828764482907,8.264689478453663L253.47436573266984,8.285153338242822L253.66585501704895,8.211499909909236L253.85734430142813,8.183535487980386L254.04883358580724,8.160628127410291L254.24032287018642,8.158850863524586L254.43181215456553,8.176906530116794L254.83393965176174,8.157689714183986L255.40840750489917,8.091742771180506L255.5998967892783,8.141323582516304L256.1743646424157,8.124636430996892L256.3658539267949,8.156982068531887L256.557343211174,8.115206070650503L256.7488324955532,8.191024311074392L256.9403217799323,8.291305294542266L257.32330034869057,8.246057142555316L257.5147896330697,8.285287396020053L257.70627891744886,8.280790530354388L257.897768201828,8.246743260680331L258.08925748620715,8.15267671394387L258.2807467705863,8.181002940415807L258.47223605496544,8.222178074545043L258.6637253393446,8.245587684374078L258.8552146237237,8.128128672994203L259.04670390810287,8.085090271865358L259.238193192482,8.122635243036152L259.42968247686116,8.105515555725832" fill="none"></path></g></g></g></g><g opacity="0.2"><g><g><g><path style="fill: none;" stroke="rgb(204, 51, 17)" stroke-width="2px" d="M19.321268793855396,162.4646803820331L19.70424736261368,158.9034684148622L19.89573664699282,153.36695527090185L20.08722593137196,146.2301146371994L20.661693784509385,127.35748310563804L21.04467235326767,100.00298407767312L21.23616163764681,107.01380289775949L21.427650922025954,96.54283999474006L22.002118775163378,54.68826969806456L22.19360805954252,24.434720843149183L22.38509734392166,29.227351705861672L22.576586628300802,-19.603008821516163L22.768075912679944,30.7291201002204L22.95956519705909,-24.035316654790606L23.534033050196513,-13.073319842844404L23.72552233457565,10.63078259097891L24.12764983177185,30.178281591690435L24.319139116150993,9.376964396076966L24.510628400530134,30.562620242287206L24.702117684909275,5.562827522633984L24.893606969288417,10.661033402433214L25.085096253667558,-6.528423082963945L25.276585538046703,-29.667569118035228L25.46807482242584,16.297645429624293L25.659564106804982,15.856518389364055L25.851053391184127,31.23965798854733L26.234031959942406,-27.221144047596315L26.42552124432155,20.219580125534918L26.617010528700693,19.1996449324717L26.808499813079834,11.672528276925595L26.999989097458975,37.37478108375948L27.38296766621726,45.56382908956509L27.5744569505964,-1.7173147660828862L28.53190337249211,-46.29737925495236L28.723392656871248,20.352103265617693L28.934030869688307,-8.594210062900206L29.12552015406745,39.41117902650993L29.31700943844659,28.619369959440018L29.50849872282573,-29.420315941883818L29.699988007204873,28.99500215529481L29.891477291584014,38.068027790157885L30.2744558603423,0.8467551651562859L30.46594514472144,8.549179518585623L30.848923713479724,45.85034368753692L31.040412997858866,46.99946898196801L31.231902282238007,20.67353239461449L31.42339156661715,32.70666392969319L31.80637013537543,24.151095723607007L31.997859419754572,24.878889439651164L32.189348704133714,7.447363096864583L32.38083798851286,-33.50416281506301L32.76381655727114,56.446491976205934L32.95530584165028,22.350380370138325L33.146795126029424,-4.748415658241101L33.33828441040857,67.95976452039187L33.740411907604766,-31.316168639963923L34.12339047636304,0.5419151908279713L34.31487976074219,16.95116180761498L34.50636904512133,-61.33480796780896L34.69785832950047,25.321587950636314L34.889347613879615,40.80800105737764L35.08083689825876,11.533744600245244L35.27232618263789,27.599092591299613L35.463815467017035,45.471239048306145L35.65530475139618,19.292475763599786L35.84679403577532,-67.64013148104841L36.22977260453361,-9.741294980019102L36.42126188891275,23.89137216686449L36.61275117329188,-38.203329189097076L36.99572974205017,52.28267752017102L37.378708310808456,10.113097045483899L37.5701975951876,3.3919294282436367L37.76168687956673,62.90915265920037L38.33615473270416,30.037622288660998L38.54679294552122,-13.658705361020116L38.738282229900356,26.194603304072515L39.121260798658646,-40.0985862490798L39.312750083037784,-14.9029426537606L39.69572865179607,62.792661055141764L39.88721793617521,-4.949982125011383L40.07870722055435,29.43534346019261L40.270196504933494,26.096500442125414L40.46168578931264,29.535917586586123L40.65317507369178,64.41695347343855L40.84466435807092,36.500650493034634L41.2276429268292,38.542130369338985L41.41913221120834,1.487218197609496L41.61062149558749,-13.42541799727872L41.802110779966625,4.210146076724517L41.99360006434577,26.07776952493671L42.18508934872491,9.04837493676107L42.37657863310405,14.901951309196221L42.56806791748319,25.11199937927847L42.759557201862336,6.984273485908783L42.95104648624148,1.944642910065062L43.35317398343768,20.0305220588088L43.544663267816816,45.565932832632285L43.73615255219596,-12.238476020242025L43.927641836575106,47.847885749299145L44.119131120954236,-30.815084922288374L44.31062040533338,32.019487662627256L44.502109689712526,26.25122694277289L44.693598974091664,12.571308146359524L45.076577542849954,3.411129252019611L45.45955611160823,24.296253995244L45.651045395987374,44.33397582321784L45.84253468036652,-42.90984599071531L46.03402396474566,21.391517091779043L46.2255132491248,-80.8151646144841L46.41700253350395,29.95737589648312L46.79998110226222,29.44749701200857L46.99147038664137,-22.36192844949175L47.565938239778795,-3.84498474238754L47.75742752415793,9.23374511654407L48.15955502135413,-2.202493679244327L48.54253359011241,46.391943468982625L48.73402287449155,39.5958014903835L48.925512158870696,0.4680940862107489L49.308490727628985,17.50813412123248L49.49998001200812,59.180939749586535L49.69146929638726,56.13450434470954L49.882958580766406,-54.28845996887377L50.074447865145544,1.3863525887428272L50.26593714952469,93.34665230098595L50.457426433903834,38.467853031285514L50.64891571828297,-44.58408329713168L51.031894287041254,-14.404051391209345L51.22338357142039,29.65731370008454L51.60636214017868,53.754435892944585L51.79785142455783,-62.39172341551133L51.989340708936965,84.62564878165117L52.18082999331611,63.94992884909501L52.37231927769525,3.341287516818685L52.75529784645353,-9.74175121345539L52.96593605927058,37.72791843657642L53.15742534364973,23.881233646058696L53.34891462802887,-12.692022748489379L53.54040391240801,52.086915356562066L53.9233824811663,0.4849620502014078L54.11487176554543,32.50825307752374L54.306361049924575,-68.8859782639668L54.49785033430372,35.17505157082765L54.68933961868286,8.135781332729245L54.880828903062,-15.94688079483156L55.07231818744115,-112.44671587102142L55.64678604057857,17.290802254609204L55.83827532495771,9.185092889827246L56.02976460933685,30.445469634376206L56.221253893715996,7.902823470914036L56.41274317809514,-4.435477540419174L56.79572174685342,-25.01223917333522L57.1787003156117,37.173480753160376L57.370189599990844,34.885824918540266L57.56167888436999,54.72213235755592L57.77231709718704,3.39490761873035L58.155295665945324,18.225801989621843L58.34678495032447,-14.201128897281315L58.53827423470361,50.60274996895241L58.72976351908275,7.152370160868906L58.92125280346189,37.45929832782681L59.112742087841035,31.576421630262907L59.30423137222018,37.7396284281071L59.49572065659932,-16.9932902003489L59.687209940978455,-13.384331641713231L59.8786992253576,22.971364769493423L60.26167779411588,42.996096617684834L60.45316707849503,-9.922178864345542L61.21912421601159,-17.03741811215611L61.41061350039073,25.49842909979143L61.602102784769876,97.34757874712473L61.79359206914902,11.181785850471986L61.98508135352816,32.20252598262492L62.176570637907304,43.35788973263971L62.36805992228644,33.53638779928863L62.5786981351035,3.084136609730644L62.770187419482646,-4.797460752639142L63.34465527262007,42.71447385600179L63.536144556999204,-4.345523514569737L63.72763384137835,28.578308950176545L63.919123125757494,58.21086073258583L64.11061241013662,26.457178319791648L64.30210169451577,4.376721973563758L64.49359097889491,-66.21516238179362L64.68508026327406,2.485583687658373L64.87656954765319,-21.820315994895065L65.06805883203234,20.783674750018466L65.25954811641148,-5.338363510779459L65.64252668516977,18.901939942160467L65.83401596954891,1.5430687740984321L66.21699453830719,6.067168240118384L66.40848382268634,-46.339580847806474L66.59997310706547,13.796028786548844L66.79146239144461,41.435904997182696L66.98295167582376,17.66218894487656L67.1744409602029,-0.9821959687565356L67.76805774177824,43.98592040395483L67.95954702615738,60.02909038074651L68.15103631053653,12.94767538497274L68.34252559491567,-8.562666590043147L68.72550416367395,49.43401930991312L68.91699344805309,-63.481665094738574L69.10848273243222,15.878848481438819L69.29997201681137,-66.87822164249278L69.68295058556966,46.18226618556771L69.87443986994879,-135.3996172788902L70.25741843870708,59.29209595707109L70.64039700746537,50.675430489978964L70.83188629184451,1.6209833064909938L71.21486486060279,52.8415634795906L71.40635414498193,13.486677170461954L71.78933271374021,15.497880889009982L71.98082199811935,62.06850453343668L72.19146021093641,42.007033220475265L72.38294949531556,-35.85447470826297L72.76592806407383,65.15954942985917L72.95741734845298,-35.35531730954056L73.14890663283212,-27.488724957963306L73.34039591721127,30.32696299930744L73.5318852015904,33.46705299012799L73.72337448596954,29.387591027197306L73.91486377034867,9.125237597620016L74.10635305472782,-21.916391152680983L74.29784233910696,29.552544760707622L74.48933162348611,2.094591632782806L74.68082090786525,11.94595150990695L74.8723101922444,-8.807537213805169L75.06379947662354,-1.3431019631409125L75.25528876100267,27.288080792430783L76.02124589851925,33.10845350922693L76.21273518289838,17.24311318736893L76.40422446727752,17.778300354404962L76.59571375165666,67.61323621582522L76.7872030360358,-15.25852592472193L77.18933053323201,-61.05952178162954L77.5723091019903,21.654028741743144L77.76379838636944,-23.421746048774786L77.95528767074856,-44.571498858181485L78.1467769551277,13.803772081814271L78.33826623950685,53.400728248332335L78.529755523886,22.20918879476659L78.72124480826514,-2.0533687113420345L79.10422337702343,40.57367449525365L79.29571266140256,74.90657125474067L79.4872019457817,34.9049487034102L79.67869123016085,-34.94368069167417L79.87018051454,58.12079264837733L80.06166979891914,-6.872004879921394L80.4446483676774,21.926260698529823L80.63613765205655,69.77036493164621L80.82762693643569,6.907803692731056L81.01911622081484,-9.859687556728806L81.21060550519398,49.9906367753024L81.59358407395227,-7.307492367983415L81.80422228676933,-7.9959739696031065L82.18720085552759,14.143944801150793L82.57017942428588,-7.262071794773446L82.76166870866503,31.136663290311454L82.95315799304417,-35.35819411481919L83.14464727742332,32.46321269884399L83.33613656180245,13.466159338981226L83.52762584618159,-14.896960926485177L83.91060441493988,17.285238741317016L84.10209369931903,-28.159514840776886L84.29358298369817,-67.11865666340225L84.67656155245645,2.8077858788666292L84.86805083683558,53.82968906362562L85.05954012121472,64.77666819162823L85.25102940559387,-45.73002763065995L85.44251868997301,51.53513903485755L85.63400797435216,42.65919357130818L85.82549725873129,-5.123578947508645L86.01698654311043,-62.254245073384695L86.20847582748958,70.69750097645885L86.39996511186872,-25.77610067714603L86.61060332468577,51.523745872102054L86.99358189344406,-8.852425514672861L87.1850711778232,-13.747125935597712L87.37656046220233,5.785849634059508L87.56804974658148,20.858788516038427L87.95102831533977,68.12102403038358L88.14251759971891,41.8252368692763L88.5254961684772,-6.7038701855082765L88.71698545285633,23.399172328045047L88.90847473723548,76.13472631885296L89.09996402161462,22.62760554842186L89.29145330599376,-58.87786418203406L89.4829425903729,47.66911828119091L89.67443187475205,-79.1625603768371L89.86592115913118,39.15828629816032L90.05741044351032,-74.16751394623688L90.24889972788947,24.410996704463617L91.01485686540605,-18.357516886825994L93.14038792201451,-91.01477000813634L93.33187720639366,21.008978028625293L93.5233664907728,-10.734882692138266L94.09783434391021,-20.64565430118437L94.28932362828935,45.31897113895407L94.4808129126685,-25.149603457102796L94.67230219704764,-6.763180532222191L94.86379148142679,15.821565838886068L95.05528076580593,30.658733419526158L95.24677005018506,71.41788723573929L95.43825933456421,35.39699646441756L95.62974861894335,33.03671080137492L95.8212379033225,-34.21436619750914L96.01272718770164,80.47766309122429L96.22336540051869,-2.955000039752635L96.41485468489783,-22.89630453486333L96.60634396927698,18.767452463671564L96.79783325365612,0.5594928512750195L96.98932253803525,28.77418517214454L97.1808118224144,11.5448842999806L97.37230110679354,21.57250236131353L97.56379039117269,-99.37988610088563L97.94676895993098,-5.908832730219666L98.1382582443101,6.474584698699339L98.52123681306838,-84.86137222917175L98.71272609744753,10.176995072862434L98.90421538182667,-18.803991996811295L99.09570466620582,23.39976796614239L99.67017251934324,62.180078954904474L99.86166180372238,44.050933668621994L100.05315108810153,-22.75137437994446L100.24464037248067,39.64177968223778L100.43612965685982,62.02659442305572L100.62761894123894,-62.081408639947874L100.81910822561808,7.513453579367376L101.02974643843514,-0.47298876128537626L101.22123572281428,14.326450848806141L101.41272500719343,-83.50205005213448L101.98719286033086,-6.181052013855329L102.17868214471,35.87784115993452L102.75314999784742,18.57987715561331L102.94463928222656,-11.812379337076376L103.1361285666057,20.453589858883724L103.32761785098485,-0.6433032376717522L103.51910713536398,49.664683331396006L103.71059641974313,60.22222286552145L103.90208570412227,61.02305828739588L104.09357498850142,-13.187327509305595L104.66804284163884,-11.629024188303521L104.85953212601798,23.957513341971314L105.05102141039711,21.20653977967726L105.8361274763516,-67.96681996771322L106.02761676073075,20.184019263808587L106.2191060451099,50.46589261122515L106.41059532948903,16.67451959427781L106.60208461386817,53.62980812593931L106.7935738982473,17.869635753714185L106.98506318262645,34.33620303250698L107.36804175138474,-31.070575646594456L107.75102032014301,24.805359817507114L107.94250960452216,7.081223091114225L108.1339988889013,53.72091540853041L108.32548817328045,2.9666691730444747L108.51697745765959,-47.029633920151085L108.70846674203874,12.511845721833533L108.89995602641787,16.0045407931287L109.28293459517616,33.26329406823347L109.47442387955529,-20.139742112975092L109.66591316393443,49.18155746869775L109.85740244831358,-90.62324568091847L110.24038101707185,19.7641577709385L110.431870301451,-61.23656570120078L110.64250851426806,34.647151465620794L111.21697636740548,1.2349971462632832L111.40846565178462,29.817793811289295L111.59995493616375,37.761730403463744L111.7914442205429,21.68406410963032L111.98293350492204,-21.254954055310776L112.17442278930119,-17.46370489258689L112.36591207368033,59.37443975574068L112.74889064243862,-79.65904374069699L112.94037992681776,19.20214154322013L113.1318692111969,-18.818997007603866L113.32335849557604,-0.1812401519475324L113.51484777995519,40.49895359691492L113.70633706433432,47.99167532062735L114.28080491747174,26.414621878709312L114.47229420185089,51.896970169265465L114.85527277060918,61.970110189016424L115.04676205498832,79.71681779735322L115.23825133936747,-28.968733552042597L115.64037883656366,55.230224327738455L115.83186812094279,7.2438576379902235L116.02335740532193,28.058430949557277L116.59782525845937,-49.450738034877475L116.78931454283851,54.1008944951807L116.98080382721764,37.25201626995228L117.17229311159679,27.3790613435118L117.36378239597593,3.648991623274631L117.55527168035508,-9.216588508866089L117.74676096473422,-43.08367092993074L117.93825024911337,22.805916783093807L118.1297395334925,46.66749579133318L118.51271810225077,-1.9592071993582156L118.70420738662992,-21.776175409936815L118.89569667100906,20.70807940426024L119.08718595538821,-77.95141268137657L119.27867523976735,37.12869383750077L119.47016452414648,4.285399247405536L119.85314309290477,7.234479506244871L120.44675987448011,-29.885217813433673L120.63824915885925,-54.35058375511128L120.8297384432384,32.64365302288516L121.21271701199667,-40.32675365981428L121.40420629637582,12.49040275032927L121.59569558075496,40.51274198521081L121.78718486513411,6.02548624645555L121.97867414951325,-6.382200266642317L122.1701634338924,-45.60689529547354L122.36165271827153,49.190492040157864L122.55314200265066,38.65181649130671L122.7446312870298,-43.37302431372816L122.93612057140895,58.58829251588364L123.1276098557881,-59.00043889857615L123.31909914016724,-3.3914126678381518L123.51058842454637,2.9495223997316593L123.70207770892551,-45.82606476899287L123.89356699330466,19.922065232488798L124.27654556206295,-17.261187939491077L124.4680348464421,79.06700197945665L124.65952413082124,25.85228882221577L125.06165162801743,54.330291201562865L125.4446301967757,-72.56456311423628L125.63611948115485,46.595144772232814L125.827608765534,31.81520914154144L126.01909804991314,-33.255680343263954L126.7850551874297,-64.18292123257355L126.97654447180884,62.1026333290992L127.16803375618798,36.06632893486529L127.35952304056713,64.88540382727041L127.55101232494627,96.25183276473618L127.7425016093254,-21.47568232640398L128.12548017808368,27.603211365376968L128.31696946246282,-14.801278636380475L128.50845874684197,76.48319361552369L128.6999480312211,60.84019739151232L128.89143731560026,60.60315877507277L129.0829265999794,-56.083662501654274L129.27441588435855,43.583078952887476L129.4659051687377,36.98224290446102L129.8680326659339,39.531497922172726L130.059521950313,73.06024523079691L130.25101123469216,-6.3080116406459315L130.8254790878296,54.58465401542932L131.59143622534617,20.88916605900279L131.7829255097253,53.01751750817521L131.97441479410443,35.42404096866703L132.35739336286272,-12.268042481541956L132.54888264724187,33.63449066123574L132.740371931621,-3.214951713213258L132.93186121600013,30.474998076223102L133.12335050037927,8.400358706307523L133.31483978475842,13.988191775271718L133.50632906913756,-14.443921124278143L133.6978183535167,-10.788616852408975L133.88930763789585,32.58553395236592L134.080796922275,25.451753884631735L134.27228620665414,-28.843307376523875L134.4637754910333,4.654225961169433L134.8659029882295,12.474383887456117L135.0573922726086,29.74129867180955L135.24888155698775,61.46568075947498L135.4403708413669,76.36154403900514L135.63186012574604,3.0171209872043163L135.8233494101252,-1.8138208110030576L136.01483869450433,5.579809544983704L136.20632797888348,2.869605509479971L136.39781726326262,-14.177430104897745L136.97228511640003,-35.63482365500536L137.16377440077918,5.191592910178704L137.35526368515832,57.362323570320115L137.54675296953747,62.466327416705155L137.7382422539166,12.205180813760183L137.92973153829573,-12.693252044137067L138.1212208226749,31.6196244020466L138.31271010705402,20.52234170309804L138.5041993914332,0.35578462198453187L138.6956886758123,14.78704384901351L138.88717796019145,45.4281249885795L139.0786672445706,10.236596902049504L139.48079474176677,14.202013179065982L139.67228402614595,-23.89232549197587L139.86377331052506,33.74173086505905L140.05526259490424,48.546493198573614L140.24675187928335,91.10935956846863L140.8212197324208,47.75273573153674L141.01270901679993,41.37385724985121L141.20419830117908,16.5045472929686L141.39568758555822,-36.08299696722563L142.16164472307477,-4.495434217834466L142.35313400745392,15.931175921947746L142.54462329183306,-10.767097841998662L142.7361125762122,-11.306606553528159L142.92760186059135,83.78614123947811L143.11909114497047,-42.546177249411365L143.31058042934964,29.743072912950574L143.50206971372876,-13.907099120762187L143.88504828248705,20.5964289438864L144.0765375668662,14.408484155276058L144.4786650640624,-12.552478682748585L144.6701543484415,20.24952678136503L144.8616436328207,26.603705291737448L145.0531329171998,6.035333284788169L145.24462220157898,-15.526233566599018L146.0105793390955,-110.90555932333218L146.20206862347467,15.696912725578782L146.3935579078538,18.191305672580125L146.77653647661208,-23.26547342370441L147.15951504537037,58.4589693464302L147.54249361412866,-29.266831410035085L147.92547218288695,53.226700538700825L148.1169614672661,-51.352040187890694L148.49994003602436,-3.716491664325057L148.6914293204035,79.70708481737967L149.0935568175997,-17.31373082356713L149.28504610197885,21.914690111660196L149.476535386358,-14.741613441438338L149.66802467073714,20.82037619533546L149.85951395511628,16.954545538933928L150.0510032394954,25.002490681424852L150.4339818082537,24.706053006214344L150.62547109263284,27.459954066391056L150.81696037701198,18.379083751054484L151.00844966139113,36.246300352319196L151.39142823014942,-70.49415043418239L151.58291751452853,14.642962795212128L151.7744067989077,-3.5400940754551935L151.96589608328682,30.350167538801706L152.3488746520451,2.8957502200079177L152.54036393642423,94.30814525817924L152.7318532208034,-15.376411575391353L152.92334250518252,68.9720071107937L153.1148317895617,41.58053099647739L153.3063210739408,23.427534839999264L153.49781035831998,-16.80983366636798L153.6892996426991,75.10524824308126L153.89993785551616,-3.688141825521855L154.28291642427445,-22.8819078353191L154.47440570865356,39.80696153246624L154.85738427741185,4.520055311455718L155.04887356179103,40.06127365372865L155.24036284617014,48.96674755912492L155.4318521305493,29.055503778203416L155.62334141492843,-78.90729776924915L155.81483069930758,11.078626401272997L156.00631998368672,63.53289980547504L156.19780926806587,25.11530707169135L156.389298552445,-36.76367190782487L156.77227712120327,-60.800913462175664L156.96376640558245,44.07686293558283L157.15525568996156,1.8634080121086198L157.3467449743407,26.345223703793636L157.53823425871985,-52.772953878823195L157.92121282747814,-69.22944600256523L158.11270211185726,88.81331410788172L158.30419139623643,-20.330701152352276L159.0892974621909,-16.617543946135044L159.28078674657004,34.765822851652636L159.4722760309492,71.13260826999066L159.6637653153283,-9.125544592030023L160.23823316846577,-8.026389532020504L160.42972245284489,40.31561112129309L160.62121173722403,29.949873391086815L160.81270102160317,-1.750898616252108L161.19567959036146,23.67123953386861L161.38716887474058,-23.490675317103193L161.57865815911975,40.07243869976604L161.96163672787802,-19.738560844689662L162.15312601225716,38.213464871117054L162.3446152966363,50.07435561085627L162.53610458101545,37.1217362775978L162.7275938653946,35.368152372725056L163.7041892157282,62.013274941347106L163.89567850010735,-104.3393463234575L164.0871677844865,55.778756322785114L164.4701463532448,64.08431494237584L164.66163563762393,-33.86301575898423L164.85312492200305,-60.33788721697492L165.04461420638222,67.39239388637294L165.23610349076134,-98.41135320830782L165.61908205951963,60.1345246605513L165.8105713438988,13.873423719750106L166.00206062827792,2.520713662250473L166.19354991265703,-37.659612991433164L166.3850391970362,76.49716576450919L166.57652848141532,72.51891792209787L166.7680177657945,-24.117020459334334L166.9595070501736,52.34175975016679L167.1509963345528,24.314351254882368L167.3424856189319,7.661906870266273L167.53397490331105,-29.249228403286L167.7254641876902,-18.846599130497626L167.91695347206934,35.59669997798976L168.31908096926554,80.477156165184L168.51057025364466,54.17640112888188L168.70205953802383,62.311398145641576L168.89354882240295,19.687713324062788L169.0850381067821,2.446372958441952L169.27652739116124,-48.51317832336138L169.85099524429867,-123.27970000571386L170.42546309743608,36.457574452761015L170.61695238181522,-0.5758947474642253L170.9999309505735,-57.17971263966704L171.19142023495266,4.277187045552842L171.38290951933178,12.344496762782834L171.76588808809007,7.442496606877804L171.95737737246924,18.07578990114907L172.14886665684836,12.785383013173949L172.34035594122753,10.257026021473186L172.53184522560665,27.43991781464859L172.72333450998576,8.712764551787172L172.91482379436493,20.37561196073613L173.125462007182,2.629740780365804L173.50844057594028,35.5115997689761L173.6999298603194,-28.037320318765016L173.89141914469857,17.603512255713007L174.0829084290777,28.93450053238622L174.27439771345684,58.76813086525198L174.46588699783598,83.9406903160115L174.6573762822151,-67.18501328207618L174.84886556659427,34.5550176577981L175.0403548509734,-36.62611752679221L175.23184413535256,16.888797231508324L175.61482270411082,-41.81848491857525L175.80631198848997,-14.096512035716493L175.9978012728691,46.54222169362654L176.3807798416274,-11.708725634988122L176.57226912600655,82.15769202765097L176.7637584103857,76.86514337715559L176.9552476947648,-78.64283445402992L178.31482161385674,-102.9374423590359L178.50631089823585,58.41154007878557L178.69780018261503,53.56762097394677L178.88928946699414,54.066448870742995L179.27226803575243,-14.383444847671532L179.46375732013158,11.913672994291483L179.65524660451072,-22.408438913688347L179.84673588888984,-12.133440944693989L180.038225173269,20.45015543496076L180.22971445764813,-28.93291922729612L180.61269302640642,-38.647206303125905L180.80418231078556,13.145896139877086L181.18716087954385,17.9634170711678L181.378650163923,30.65143368454598L181.7616287326813,95.27612686868825L182.14460730143955,9.546733926970047L182.7382240830149,-24.916202035002335L182.92971336739404,20.266103262882517L183.50418122053145,11.70999011130301L183.6956705049106,-2.950678495259152L183.88715978928974,19.998154831136304L184.07864907366888,34.759296178883915L184.27013835804803,63.48239729871116L184.65311692680632,38.3161807600308L184.84460621118546,24.71553252316776L185.03609549556458,35.89725642727762L185.61056334870204,25.887697606130025L185.80205263308116,-35.87055693689118L186.18503120183945,44.71543766853598L186.37652048621857,-32.60659956812577L186.56800977059774,2.538113898583409L186.75949905497686,3.295955655665762L186.95098833935603,21.99487313808304L187.14247762373515,29.552468721801574L187.3339669081143,-3.9599302220232646L187.7360944053105,15.611647765602031L187.9275836896896,-21.010134124152785L188.50205154282708,-75.30267342825798L188.6935408272062,46.68844450994816L188.88503011158537,71.19662669230377L189.07651939596448,-52.56009563450548L189.26800868034363,-82.46401759943292L189.45949796472277,18.063218135349878L189.65098724910192,-47.811364566882055L189.84247653348106,76.38797389543076L190.0339658178602,61.50646929599179L190.22545510223932,-20.325530506741327L190.41694438661847,9.167223746907023L190.79992295537676,25.52129146420851L190.9914122397559,-8.346335902349454L191.3743908085142,24.780887962912125L191.75736937727248,-27.338041192487175L192.54247544322695,-52.437470225359355L192.7339647276061,35.45882876818192L193.11694329636435,-33.17870362404593L193.30843258074353,67.9111693228546L193.49992186512264,-58.354437699132724L193.69141114950182,-2.3182755868465206L193.88290043388093,10.27059896620196L194.26587900263922,-59.324364638321356L195.0318361401558,-16.64202847388105L195.4148147089141,78.9831437392417L195.6063039932932,-32.97758071756093L195.79779327767235,21.07714690789328L195.9892825620515,43.3792059726339L196.18077184643064,-13.418409744771736L196.3722611308098,18.045412358184706L196.56375041518893,-30.251319799730997L196.75523969956805,45.0629861617587L196.94672898394722,-26.42013753818328L197.54034576552255,-1.5869080422183421L197.7318350499017,59.07481478305185L197.92332433428084,41.071108345439086L198.11481361865998,-2.52190777723096L198.30630290303912,-49.073889216526L198.49779218741827,13.916056199738472L198.6892814717974,-44.37604085019672L198.88077075617656,79.0114492220164L199.07226004055568,-4.971868656800877L199.45523860931397,15.241211561660206L199.83821717807226,-5.837634967860934L200.79566359996795,-14.629962981064498L200.9871528843471,45.17785560248838L201.17864216872624,-47.14767164863256L201.3701314531054,0.9628158820806358L201.56162073748453,90.18992879946839L201.75311002186365,-13.233774607747163L201.9637482346807,80.51260296855128L202.346726803439,69.05184796213933L202.7297053721973,-7.591320257941739L203.68715179409298,-50.52960338012441L203.87864107847213,33.12591711131492L204.07013036285127,34.23273942768382L204.26161964723042,24.75327316686733L204.45310893160956,-15.631255968996056L204.6445982159887,31.872517130396208L204.83608750036785,31.178243898766222L205.21906606912611,9.875437444645005L205.4105553535053,45.35431655711329L205.9850232066427,16.827928087220513L206.1765124910218,-16.015645312196877L206.77012927259716,53.440357191531994L206.96161855697633,45.6906366385436L207.15310784135545,91.165077076872L207.34459712573462,46.16041767323123L207.53608641011374,-54.84775146912557L207.91906497887203,-70.67180266500198L208.11055426325115,31.518429291253746L208.30204354763032,-18.000134028421627L208.87651140076773,50.25266684552823L209.06800068514687,-38.47781696676302L209.25948996952602,-90.55037506262681L209.45097925390516,49.71114310298857L209.6424685382843,58.815509440292566L210.0254471070426,24.898304706994264L210.21693639142174,51.29799903320996L210.40842567580086,-2.1860185829349064L210.59991496018,-22.248883942507128L210.79140424455915,7.049083980159857L211.17438281331744,54.95709257723028L211.36587209769658,27.73483471173824L211.57651031051364,-18.910611216235242L211.76799959489279,17.6199239862674L211.9594888792719,3.0612742453135637L212.15097816365108,13.823200022308368L212.3424674480302,25.098768609626898L212.53395673240934,33.62716557995354L212.72544601678848,-29.57748836067569L212.91693530116763,53.15048420854323L213.2999138699259,26.3400784044847L213.68289243868418,34.442049189719505L214.06587100744247,2.9088542581494066L214.25736029182164,-16.91701050443628L214.83182814495905,-24.02763672528021L215.40629599809645,40.40924036093463L215.78927456685474,31.38643842351327L215.9807638512339,30.37384098488326L216.3828913484301,-5.742206140776394L216.5743806328092,2.5850299036122437L216.76586991718838,15.880648068881857L216.9573592015675,33.30767544306086L217.14884848594667,32.79912723944206L217.53182705470493,62.12926595594093L218.2977841922215,-26.152366530551163L218.48927347660063,-16.695128976601417L218.6807627609798,21.501545388823956L218.87225204535892,74.08564888851976L219.0637413297381,-15.063055243586172L219.82969846725462,5.014688395268559L220.0211877516338,-61.10129248734944L220.2126770360129,6.283625659322156L220.40416632039208,-38.99870881946288L220.78714488915037,31.436231233820735L220.97863417352949,24.8640745261237L221.18927238634654,69.16476573761392L221.57225095510483,2.7644056829688206L221.76374023948395,56.638819715891906L221.95522952386312,-40.51126206532879L222.33820809262141,-15.074866620324924L222.72118666137968,3.0941230527243606L222.91267594575882,8.378953754256294L223.10416523013797,11.25508735589789L223.48714379889623,-76.52872474930305L223.6786330832754,-44.264986027920195L223.87012236765452,32.06285518537405L224.06161165203366,-63.61648207515366L224.44459022079195,-5.008886930893042L224.6360795051711,40.399063820675806L224.82756878955024,3.0048026844252846L225.01905807392936,81.89637165388153L225.21054735830853,-45.545392493635376L225.59352592706682,-57.64975981052581L225.78501521144594,5.987124618356615L226.18714270864214,52.92962920593995L226.3786319930213,61.64366882879625L226.57012127740043,-25.20589759387698L226.9530998461587,44.285640425276206L227.14458913053787,23.56764919753539L227.33607841491698,14.839371289522438L227.52756769929616,-4.621164548977343L228.29352483681268,-6.222670641763132L228.48501412119185,57.86062553134956L229.05948197432926,-31.373780784442864L229.2509712587084,9.459327204473052L229.44246054308755,38.05389722678482L229.6339498274667,26.38485264699329L230.39990696498327,81.11683346227477L230.80203446217945,-0.10739370102833323L230.9935237465586,27.413316870684397L231.18501303093774,-43.08133907014538L231.37650231531688,32.77275441219599L231.56799159969603,28.222776371819247L231.75948088407517,-19.943739159497017L231.95097016845432,12.727200576899678L232.14245945283344,-46.39122393816103L232.33394873721258,-79.00412064294451L232.52543802159173,17.904094051302888L232.71692730597087,28.67895911547609L232.90841659035001,-12.97905694565252L233.09990587472916,6.235277588229505L233.2913951591083,23.262733184301027L233.48288444348742,45.54857061575236L233.8658630122457,-13.768492868195928L234.05735229662488,7.460251691438964L234.248841581004,-37.28666750359191L234.44033086538317,-49.279118223937346L234.6318201497623,8.10278044750637L234.8233094341414,-29.555424404772104L235.01479871852058,28.03065140254939L235.60841550009593,17.700309783106352L235.79990478447505,-1.0227373788287086L236.18288335323334,2.3427826221087296L236.37437263761248,5.830763281229196L236.56586192199163,7.396201586248332L236.75735120637074,-15.257841574567557L236.94884049074992,21.15189315253402L237.14032977512903,39.984132183547544L237.33181905950818,22.71390970678121L237.52330834388732,45.085037444511315L237.71479762826647,7.171658696701947L237.9062869126456,-9.953304123219349L238.2892654814039,42.549494776189455L238.48075476578305,-9.78927552973255L238.86373333454134,-6.180393010002952L239.05522261892045,13.914801557788747L239.43820118767874,7.489552016567718L239.6296904720579,65.95837615729897L239.82117975643703,45.162445050863575L240.01266904081615,-35.66156400363065L240.20415832519532,45.44119100726795L240.41479653801238,-66.70262246213635L240.6062858223915,-32.958038718707755L240.79777510677067,13.4432082625071L240.9892643911498,59.68735886383611L241.37224295990808,14.294375103606802L241.5637322442872,-33.532398595507196L241.75522152866637,8.931237002001088L242.13820009742466,11.46727392321223L242.32968938180377,-54.85271934432043L242.52117866618295,42.26830290164066L242.71266795056206,-3.0011683288720077L242.9041572349412,-29.4483996445159L243.09564651932035,87.99924157978023L243.2871358036995,27.070710906354474L243.47862508807864,4.515125455713891L243.67011437245776,-6.986772935443026L243.86160365683693,0.9230095147668876L244.62756079435349,36.77902892805983L244.81905007873263,-16.262797103140183L245.01053936311177,77.4260063481323L245.41266686030798,39.666885194383134L245.6041561446871,-30.12233246877927L246.17862399782453,-0.15776947628212667L246.37011328220368,2.372260371351575L246.56160256658282,22.845925920823703L246.9445811353411,-39.58392958667553L247.13607041972023,43.24727847064845L247.3275597040994,40.369155184298705L247.7105382728577,-57.54639759091071L248.09351684161592,-41.232288318735066L248.2850061259951,44.90837371947029L248.6679846947534,-34.60168303859259L248.8594739791325,22.687764996253264L249.05096326351168,-18.214297607293098L249.2424525478908,13.794571374183011L249.43394183226994,58.57704509436472L249.62543111664908,55.39917010381606L250.21904789822443,80.19326490947067L250.41053718260355,3.3655439278465478L250.98500503574098,-29.337547592655493L251.17649432012013,54.07895727078716L251.36798360449927,-19.810202167333646L251.75096217325756,74.60969001924491L251.9424514576367,-3.1237810648671314L252.13394074201585,54.27013175373146L252.5169193107741,-15.444694513018383L252.70840859515326,42.818837254546466L252.8998978795324,33.565371295642215L253.2828764482907,-142.75257949329472L253.47436573266984,21.013502343534885L253.66585501704895,-37.62808219172714L254.04883358580724,-6.113440753231673L254.24032287018642,7.050731489790799L254.43181215456553,19.44134726848192L254.83393965176174,-3.8383693575617364L255.40840750489917,-33.100218799858055L255.5998967892783,39.12918874344767L256.1743646424157,-2.3110265444703755L256.3658539267949,28.397095563923916L256.557343211174,-18.04149919330927L256.7488324955532,55.69046247971764L256.9403217799323,71.15378510532378L257.32330034869057,-20.135192451763483L257.5147896330697,32.906481501624455L257.70627891744886,5.456854633911394L257.897768201828,-13.14684946498845L258.08925748620715,-50.98887837262703L258.2807467705863,26.000767459416664L258.47223605496544,34.14030146423697L258.6637253393446,22.989664799547878L258.8552146237237,-65.89445562240422L259.04670390810287,-19.053551686445985L259.238193192482,31.81112838691712L259.42968247686116,-2.70222136976209" fill="none"></path></g></g></g></g></g></g><g transform="translate(61, 176)" clip-path="url(#clip_1)"><clipPath id="clip_1"><rect width="268" height="23"></rect></clipPath><g><g><line x1="0" y1="0" x2="0" y2="5" style="visibility: inherit;" fill="rgb(0, 0, 0)" stroke="rgb(204, 204, 204)" stroke-width="1px"></line><line x1="19.148928437914165" y1="0" x2="19.148928437914165" y2="5" style="visibility: inherit;" fill="rgb(0, 0, 0)" stroke="rgb(204, 204, 204)" stroke-width="1px"></line><line x1="38.29785687582833" y1="0" x2="38.29785687582833" y2="5" style="visibility: inherit;" fill="rgb(0, 0, 0)" stroke="rgb(204, 204, 204)" stroke-width="1px"></line><line x1="57.446785313742495" y1="0" x2="57.446785313742495" y2="5" style="visibility: inherit;" fill="rgb(0, 0, 0)" stroke="rgb(204, 204, 204)" stroke-width="1px"></line><line x1="76.59571375165666" y1="0" x2="76.59571375165666" y2="5" style="visibility: inherit;" fill="rgb(0, 0, 0)" stroke="rgb(204, 204, 204)" stroke-width="1px"></line><line x1="95.74464218957084" y1="0" x2="95.74464218957084" y2="5" style="visibility: inherit;" fill="rgb(0, 0, 0)" stroke="rgb(204, 204, 204)" stroke-width="1px"></line><line x1="114.89357062748499" y1="0" x2="114.89357062748499" y2="5" style="visibility: inherit;" fill="rgb(0, 0, 0)" stroke="rgb(204, 204, 204)" stroke-width="1px"></line><line x1="134.04249906539917" y1="0" x2="134.04249906539917" y2="5" style="visibility: inherit;" fill="rgb(0, 0, 0)" stroke="rgb(204, 204, 204)" stroke-width="1px"></line><line x1="153.19142750331332" y1="0" x2="153.19142750331332" y2="5" style="visibility: inherit;" fill="rgb(0, 0, 0)" stroke="rgb(204, 204, 204)" stroke-width="1px"></line><line x1="172.34035594122753" y1="0" x2="172.34035594122753" y2="5" style="visibility: inherit;" fill="rgb(0, 0, 0)" stroke="rgb(204, 204, 204)" stroke-width="1px"></line><line x1="191.48928437914168" y1="0" x2="191.48928437914168" y2="5" style="visibility: inherit;" fill="rgb(0, 0, 0)" stroke="rgb(204, 204, 204)" stroke-width="1px"></line><line x1="210.63821281705583" y1="0" x2="210.63821281705583" y2="5" style="visibility: inherit;" fill="rgb(0, 0, 0)" stroke="rgb(204, 204, 204)" stroke-width="1px"></line><line x1="229.78714125496998" y1="0" x2="229.78714125496998" y2="5" style="visibility: inherit;" fill="rgb(0, 0, 0)" stroke="rgb(204, 204, 204)" stroke-width="1px"></line><line x1="248.9360696928842" y1="0" x2="248.9360696928842" y2="5" style="visibility: inherit;" fill="rgb(0, 0, 0)" stroke="rgb(204, 204, 204)" stroke-width="1px"></line><line x1="268.08499813079834" y1="0" x2="268.08499813079834" y2="5" style="visibility: inherit;" fill="rgb(0, 0, 0)" stroke="rgb(204, 204, 204)" stroke-width="1px"></line></g><g transform="translate(0, 8)"><text style="text-anchor: middle; visibility: hidden; font-family: Roboto, sans-serif; font-size: 12px; font-weight: 200;" x="0" y="0" dx="0em" dy="0.95em" fill="rgb(255, 255, 255)" stroke="none" stroke-width="1px">-1k</text><text style="text-anchor: middle; visibility: inherit; font-family: Roboto, sans-serif; font-size: 12px; font-weight: 200;" x="19.148928437914165" y="0" dx="0em" dy="0.95em" fill="rgb(255, 255, 255)" stroke="none" stroke-width="1px">0</text><text style="text-anchor: middle; visibility: hidden; font-family: Roboto, sans-serif; font-size: 12px; font-weight: 200;" x="38.29785687582833" y="0" dx="0em" dy="0.95em" fill="rgb(255, 255, 255)" stroke="none" stroke-width="1px">1k</text><text style="text-anchor: middle; visibility: inherit; font-family: Roboto, sans-serif; font-size: 12px; font-weight: 200;" x="57.446785313742495" y="0" dx="0em" dy="0.95em" fill="rgb(255, 255, 255)" stroke="none" stroke-width="1px">2k</text><text style="text-anchor: middle; visibility: hidden; font-family: Roboto, sans-serif; font-size: 12px; font-weight: 200;" x="76.59571375165666" y="0" dx="0em" dy="0.95em" fill="rgb(255, 255, 255)" stroke="none" stroke-width="1px">3k</text><text style="text-anchor: middle; visibility: inherit; font-family: Roboto, sans-serif; font-size: 12px; font-weight: 200;" x="95.74464218957084" y="0" dx="0em" dy="0.95em" fill="rgb(255, 255, 255)" stroke="none" stroke-width="1px">4k</text><text style="text-anchor: middle; visibility: hidden; font-family: Roboto, sans-serif; font-size: 12px; font-weight: 200;" x="114.89357062748499" y="0" dx="0em" dy="0.95em" fill="rgb(255, 255, 255)" stroke="none" stroke-width="1px">5k</text><text style="text-anchor: middle; visibility: inherit; font-family: Roboto, sans-serif; font-size: 12px; font-weight: 200;" x="134.04249906539917" y="0" dx="0em" dy="0.95em" fill="rgb(255, 255, 255)" stroke="none" stroke-width="1px">6k</text><text style="text-anchor: middle; visibility: hidden; font-family: Roboto, sans-serif; font-size: 12px; font-weight: 200;" x="153.19142750331332" y="0" dx="0em" dy="0.95em" fill="rgb(255, 255, 255)" stroke="none" stroke-width="1px">7k</text><text style="text-anchor: middle; visibility: inherit; font-family: Roboto, sans-serif; font-size: 12px; font-weight: 200;" x="172.34035594122753" y="0" dx="0em" dy="0.95em" fill="rgb(255, 255, 255)" stroke="none" stroke-width="1px">8k</text><text style="text-anchor: middle; visibility: hidden; font-family: Roboto, sans-serif; font-size: 12px; font-weight: 200;" x="191.48928437914168" y="0" dx="0em" dy="0.95em" fill="rgb(255, 255, 255)" stroke="none" stroke-width="1px">9k</text><text style="text-anchor: middle; visibility: inherit; font-family: Roboto, sans-serif; font-size: 12px; font-weight: 200;" x="210.63821281705583" y="0" dx="0em" dy="0.95em" fill="rgb(255, 255, 255)" stroke="none" stroke-width="1px">10k</text><text style="text-anchor: middle; visibility: hidden; font-family: Roboto, sans-serif; font-size: 12px; font-weight: 200;" x="229.78714125496998" y="0" dx="0em" dy="0.95em" fill="rgb(255, 255, 255)" stroke="none" stroke-width="1px">11k</text><text style="text-anchor: middle; visibility: inherit; font-family: Roboto, sans-serif; font-size: 12px; font-weight: 200;" x="248.9360696928842" y="0" dx="0em" dy="0.95em" fill="rgb(255, 255, 255)" stroke="none" stroke-width="1px">12k</text><text style="text-anchor: middle; visibility: hidden; font-family: Roboto, sans-serif; font-size: 12px; font-weight: 200;" x="268.08499813079834" y="0" dx="0em" dy="0.95em" fill="rgb(255, 255, 255)" stroke="none" stroke-width="1px">13k</text></g><line x1="0" y1="0" x2="268.08499813079834" y2="0" fill="rgb(0, 0, 0)" stroke="rgb(204, 204, 204)" stroke-width="1px"></line></g></g></g></g></svg>