<svg viewBox="0 0 330 200" xmlns="http://www.w3.org/2000/svg"><g><g><g><g><g><line x1="41.149001121520996" y1="170.32353493454931" x2="36.149001121520996" y2="170.32353493454931" style="visibility: inherit;" fill="rgb(0, 0, 0)" stroke="rgb(204, 204, 204)" stroke-width="1px"></line><line x1="41.149001121520996" y1="148.8044252466839" x2="36.149001121520996" y2="148.8044252466839" style="visibility: inherit;" fill="rgb(0, 0, 0)" stroke="rgb(204, 204, 204)" stroke-width="1px"></line><line x1="41.149001121520996" y1="129.82322529180524" x2="36.149001121520996" y2="129.82322529180524" style="visibility: inherit;" fill="rgb(0, 0, 0)" stroke="rgb(204, 204, 204)" stroke-width="1px"></line><line x1="41.149001121520996" y1="112.84396334711663" x2="36.149001121520996" y2="112.84396334711663" style="visibility: inherit;" fill="rgb(0, 0, 0)" stroke="rgb(204, 204, 204)" stroke-width="1px"></line><line x1="41.149001121520996" y1="1.140566002596941" x2="36.149001121520996" y2="1.140566002596941" style="visibility: inherit;" fill="rgb(0, 0, 0)" stroke="rgb(204, 204, 204)" stroke-width="1px"></line></g><g transform="translate(31.149001121520996, 0)"><text style="text-anchor: end; visibility: inherit; font-family: Roboto, sans-serif; font-size: 12px; font-weight: 200;" x="0" y="170.32353493454931" dx="0em" dy="0.3em" fill="rgb(255, 255, 255)" stroke="none" stroke-width="1px">0.7</text><text style="text-anchor: end; visibility: hidden; font-family: Roboto, sans-serif; font-size: 12px; font-weight: 200;" x="0" y="148.8044252466839" dx="0em" dy="0.3em" fill="rgb(255, 255, 255)" stroke="none" stroke-width="1px">0.8</text><text style="text-anchor: end; visibility: inherit; font-family: Roboto, sans-serif; font-size: 12px; font-weight: 200;" x="0" y="129.82322529180524" dx="0em" dy="0.3em" fill="rgb(255, 255, 255)" stroke="none" stroke-width="1px">0.9</text><text style="text-anchor: end; visibility: hidden; font-family: Roboto, sans-serif; font-size: 12px; font-weight: 200;" x="0" y="112.84396334711663" dx="0em" dy="0.3em" fill="rgb(255, 255, 255)" stroke="none" stroke-width="1px">1</text><text style="text-anchor: end; visibility: hidden; font-family: Roboto, sans-serif; font-size: 12px; font-weight: 200;" x="0" y="1.140566002596941" dx="0em" dy="0.3em" fill="rgb(255, 255, 255)" stroke="none" stroke-width="1px">2</text></g><line x1="41.149001121520996" y1="0" x2="41.149001121520996" y2="176.89999961853027" fill="rgb(0, 0, 0)" stroke="rgb(204, 204, 204)" stroke-width="1px"></line></g></g><g transform="translate(41, 0)" clip-path="url(#clip_0)"><clipPath id="clip_0"><rect width="288" height="176"></rect></clipPath><g><g><g><line x1="0" y1="0" x2="0" y2="176.89999961853027" fill="rgb(0, 0, 0)" stroke="rgb(189, 189, 189)" stroke-width="1px" opacity="0.25"></line><line x1="20.632214205605642" y1="0" x2="20.632214205605642" y2="176.89999961853027" fill="rgb(0, 0, 0)" stroke="rgb(189, 189, 189)" stroke-width="1px" opacity="0.25"></line><line x1="41.264428411211284" y1="0" x2="41.264428411211284" y2="176.89999961853027" fill="rgb(0, 0, 0)" stroke="rgb(189, 189, 189)" stroke-width="1px" opacity="0.25"></line><line x1="61.896642616816926" y1="0" x2="61.896642616816926" y2="176.89999961853027" fill="rgb(0, 0, 0)" stroke="rgb(189, 189, 189)" stroke-width="1px" opacity="0.25"></line><line x1="82.52885682242257" y1="0" x2="82.52885682242257" y2="176.89999961853027" fill="rgb(0, 0, 0)" stroke="rgb(189, 189, 189)" stroke-width="1px" opacity="0.25"></line><line x1="103.16107102802822" y1="0" x2="103.16107102802822" y2="176.89999961853027" fill="rgb(0, 0, 0)" stroke="rgb(189, 189, 189)" stroke-width="1px" opacity="0.25"></line><line x1="123.79328523363385" y1="0" x2="123.79328523363385" y2="176.89999961853027" fill="rgb(0, 0, 0)" stroke="rgb(189, 189, 189)" stroke-width="1px" opacity="0.25"></line><line x1="144.4254994392395" y1="0" x2="144.4254994392395" y2="176.89999961853027" fill="rgb(0, 0, 0)" stroke="rgb(189, 189, 189)" stroke-width="1px" opacity="0.25"></line><line x1="165.05771364484514" y1="0" x2="165.05771364484514" y2="176.89999961853027" fill="rgb(0, 0, 0)" stroke="rgb(189, 189, 189)" stroke-width="1px" opacity="0.25"></line><line x1="185.6899278504508" y1="0" x2="185.6899278504508" y2="176.89999961853027" fill="rgb(0, 0, 0)" stroke="rgb(189, 189, 189)" stroke-width="1px" opacity="0.25"></line><line x1="206.32214205605644" y1="0" x2="206.32214205605644" y2="176.89999961853027" fill="rgb(0, 0, 0)" stroke="rgb(189, 189, 189)" stroke-width="1px" opacity="0.25"></line><line x1="226.95435626166207" y1="0" x2="226.95435626166207" y2="176.89999961853027" fill="rgb(0, 0, 0)" stroke="rgb(189, 189, 189)" stroke-width="1px" opacity="0.25"></line><line x1="247.5865704672677" y1="0" x2="247.5865704672677" y2="176.89999961853027" fill="rgb(0, 0, 0)" stroke="rgb(189, 189, 189)" stroke-width="1px" opacity="0.25"></line><line x1="268.21878467287337" y1="0" x2="268.21878467287337" y2="176.89999961853027" fill="rgb(0, 0, 0)" stroke="rgb(189, 189, 189)" stroke-width="1px" opacity="0.25"></line><line x1="288.850998878479" y1="0" x2="288.850998878479" y2="176.89999961853027" fill="rgb(0, 0, 0)" stroke="rgb(189, 189, 189)" stroke-width="1px" opacity="0.25"></line></g><g><line x1="0" y1="170.32353493454931" x2="288.850998878479" y2="170.32353493454931" fill="rgb(0, 0, 0)" stroke="rgb(189, 189, 189)" stroke-width="1px" opacity="0.25"></line><line x1="0" y1="148.8044252466839" x2="288.850998878479" y2="148.8044252466839" fill="rgb(0, 0, 0)" stroke="rgb(189, 189, 189)" stroke-width="1px" opacity="0.25"></line><line x1="0" y1="129.82322529180524" x2="288.850998878479" y2="129.82322529180524" fill="rgb(0, 0, 0)" stroke="rgb(189, 189, 189)" stroke-width="1px" opacity="0.25"></line><line x1="0" y1="112.84396334711663" x2="288.850998878479" y2="112.84396334711663" fill="rgb(0, 0, 0)" stroke="rgb(189, 189, 189)" stroke-width="1px" opacity="0.25"></line><line x1="0" y1="1.140566002596941" x2="288.850998878479" y2="1.140566002596941" fill="rgb(0, 0, 0)" stroke="rgb(189, 189, 189)" stroke-width="1px" opacity="0.25"></line></g></g></g><g><g><line x1="20.632214205605642" y1="0" x2="20.632214205605642" y2="176.89999961853027" fill="rgb(0, 0, 0)" stroke="rgb(153, 153, 153)" stroke-width="1.5px"></line></g></g><g><g><g><g><g><path style="fill: none;" stroke="rgb(204, 51, 17)" stroke-width="2px" d="M20.817904133456096,25.271428516932886L21.230548417568205,45.79687922858809L21.436870559624264,56.73253039665515L21.64319270168032,70.12796626322385L22.262159127848488,83.24893289129307L22.674803411960603,81.42494276663292L22.881125554016656,85.61824035481179L23.087447696072715,84.4504207147391L23.706414122240883,92.66438915663522L23.91273626429694,95.5485563065502L24.119058406353,99.2832082356857L24.325380548409054,100.916278445738L24.531702690465107,100.58935811786976L24.738024832521166,102.36355328503643L24.944346974577222,102.20106392402965L25.356991258689337,102.33519473357809L25.56331340074539,102.31981517712684L25.99658989906311,104.50537264273466L26.20291204111917,105.88898946320045L26.409234183175222,108.31403593618774L26.615556325231278,110.09494812393592L26.821878467287338,111.74110428634663L27.028200609343394,111.72468319007379L27.23452275139945,112.84223296664396L27.440844893455505,109.90998548474349L27.64716703551156,109.98599595718929L27.85348917756762,109.99247124185511L28.26613346167973,108.92519839620729L28.47245560373579,109.4781448804318L28.678777745791844,109.65086913555504L28.8850998878479,111.1414958901519L29.091422029903956,114.03807817955038L29.50406631401607,113.20263375292275L29.710388456072124,113.90619918463281L30.329354882240295,114.94645974445322L30.535677024296355,115.53039302892444L30.741999166352407,114.42135762894141L30.948321308408463,114.15922577108792L31.175275664670128,114.48810698253132L31.38159780672618,114.59549503665501L31.58791994878224,115.3241855410045L31.794242090838296,115.75853468511323L32.00056423289435,115.56441787956335L32.20688637495041,115.78900295097134L32.61953065906253,116.51941450739821L32.82585280111858,117.20011779331193L33.23849708523069,117.54159837051714L33.44481922728675,118.04894751959647L33.6511413693428,118.77349556494008L33.85746351139886,119.42757496756663L34.270107795510974,119.57434330367828L34.476429937567026,119.43863634700425L34.682752079623086,120.25779731055373L34.889074221679145,120.537973297367L35.30171850579126,121.02535664102706L35.50804064784731,121.41904448997086L35.71436278990337,121.54939412768927L35.92068493195943,121.68956015323214L36.353961430277145,122.29691515478873L36.76660571438926,122.58363950857317L36.97292785644532,122.07012822013557L37.17924999850137,122.59299268599425L37.38557214055742,123.00085061009214L37.59189428261348,123.20860641303862L37.79821642466954,123.3484221566296L38.00453856672559,123.85011617783715L38.21086070878165,124.56366603932634L38.41718285083771,124.40803804916094L38.62350499289376,125.25176867884949L38.82982713494982,125.44358599125368L39.036149277005876,125.49085546572768L39.242471419061935,125.98461582109535L39.44879356111799,126.3999969367441L39.86143784523011,126.35105301930747L40.27408212934222,125.29781685270383L40.48040427139827,125.54542456920173L40.68672641345432,124.49277745165257L41.305692839622495,124.98008440775217L41.53264719588416,124.5365623292659L41.73896933794021,124.5490862555857L42.15161362205233,124.13945958163256L42.35793576410838,124.53731365741916L42.7705800482205,124.23644503578754L42.97690219027656,124.27298191916923L43.18322433233261,124.1273710995689L43.389546474388666,124.32176681519913L43.595868616444726,123.24551643009487L43.80219075850078,123.33328498856287L44.00851290055684,123.86771695540173L44.42115718466895,124.69984318718238L44.62747932672501,125.31173354186372L44.83380146878106,125.82506950442722L45.040123610837114,125.8472431136925L45.24644575289317,126.12839425691303L45.45276789494923,126.06391402871301L45.65909003700529,126.27318910629941L45.865412179061344,126.64336943408239L46.071734321117404,126.86177401751897L46.27805646317346,127.59015380066504L46.71133296149118,127.97034125204277L46.91765510354723,127.72721374407891L47.12397724560329,128.2114955890684L47.33029938765935,128.04062610591606L47.5366215297154,128.03710967436405L47.74294367177146,127.7860582001792L47.949265813827516,127.48659025034179L48.15558795588357,127.74509837213574L48.56823223999569,128.24477708617223L48.98087652410779,128.42690655019297L49.18719866616385,127.99999536464642L49.39352080821991,128.4811283850412L49.59984295027596,128.68011589581482L49.80616509233202,128.7266753710609L50.01248723438808,128.80869142017363L50.425131518500194,129.30204111112826L50.631453660556254,129.71377764250076L50.8377758026123,129.84027497580777L51.04409794466836,130.08496762465776L51.25042008672442,130.3428725707308L51.45674222878047,130.5512086407162L51.89001872709819,130.64761588329404L52.302663011210306,131.14936851035827L52.50898515326636,131.2202045734134L52.71530729532242,131.7848448869772L53.12795157943454,131.7909344618827L53.33427372149058,132.00319389504136L53.54059586354664,131.53957543328008L53.7469180056027,131.80766526773056L53.953240147658754,131.60105108417474L54.15956228971481,131.61052684337977L54.36588443177087,132.00553575164923L54.572206573826925,132.07765321756176L54.778528715882985,132.20680668101033L54.984850857939044,132.2026149863095L55.19117299999509,132.34322693860346L55.60381728410721,132.64253811384955L55.81013942616327,132.84121361562072L56.01646156821932,132.9834545894874L56.22278371027538,133.47175483222142L56.42910585233144,133.49251580095765L56.841750136443544,133.5369403519259L57.06870449270521,133.23037131149027L57.27502663476127,133.29993707001236L57.48134877681733,133.58915334929006L57.68767091887337,133.73814937377884L58.10031520298549,134.0575296969931L58.306637345041544,133.80213529634906L58.5129594870976,133.71019800360685L58.71928162915366,133.81364097864756L58.925603771209715,133.87781117693538L59.131925913265775,133.91754188039775L59.338248055321834,133.7876387206062L59.95721448149,133.52977286521556L60.16353662354606,133.76073726055057L60.36985876560211,133.8217852724183L60.57618090765817,134.02972955711206L60.78250304971423,134.27340825941508L61.195147333826334,134.29313066435185L61.607791617938446,134.37617149318325L61.814113759994505,134.48897481169783L62.020435902050565,134.6106521372514L62.24739025831222,134.84654139022948L62.660034542424334,134.98943146459027L62.866356684480394,135.03972520679594L63.07267882653645,135.21425708054136L63.27900096859251,135.26366052892777L63.485323110648565,135.31429068184298L63.69164525270462,135.51647423465923L63.89796739476068,135.2305833326589L64.10428953681674,135.09809917838115L64.31061167887279,134.95736810751487L64.51693382092886,135.29536292244845L64.92957810504096,135.51941661808092L65.13590024709701,135.26412735675038L65.34222238915306,135.38130777344568L65.54854453120913,135.18858670917282L65.96118881532125,135.38092591268796L66.16751095737729,135.37778993395116L66.37383309943336,135.48478319461236L66.58015524148941,135.71474144746483L66.78647738354546,135.4880686396469L66.99279952560153,135.6643609428255L67.19912166765758,135.8435414273797L67.42607602391924,135.7087787414163L67.6323981659753,135.785539190213L68.25136459214347,135.67315849873125L68.45768673419953,135.79831999471156L68.66400887625558,136.07180209079092L68.87033101831163,136.19430909067728L69.07665316036768,136.32780338640083L69.28297530242375,136.04422622970068L69.4892974444798,135.89088092715963L69.69561958653587,135.7052904120207L69.90194172859192,135.91957787030267L70.10826387064797,135.8945083454425L70.31458601270404,136.2356520420766L70.72723029681615,136.5039537896118L70.9335524388722,136.68704575358575L71.34619672298432,136.80935440738492L71.55251886504037,136.89375439171957L71.75884100709642,136.93577882770757L71.96516314915249,136.90819627640715L72.17148529120854,136.88038661171163L72.37780743326459,136.87185012829218L73.01740607363837,136.56276199219894L73.22372821569442,136.57945397525702L73.43005035775049,136.5941640259458L73.63637249980654,136.25041134075914L74.04901678391865,136.31401868774722L74.25533892597471,136.25263844607386L74.46166106803076,136.17395799606157L74.66798321008683,136.29555406243867L75.08062749419894,136.25065837764237L75.28694963625499,136.0375518021306L75.6995939203671,136.21092355644242L76.11223820447923,136.20837947686135L76.31856034653528,135.98768580948934L76.73120463064738,135.7395389863463L76.93752677270344,135.7910732123198L77.35017105681555,135.84935128129698L77.55649319887162,135.70885216982524L77.78344755513328,135.93735277764807L77.98976969718933,135.6622506035L78.40241398130144,135.51862694046508L78.6087361233575,135.33320076266213L78.81505826541355,135.25962268283922L79.02138040746962,134.92942265294542L79.22770254952567,134.87043651664305L79.43402469158173,134.83504459986727L79.64034683363778,134.86119733719732L79.84666897569383,134.98043775933428L80.0529911177499,135.127368796472L80.25931325980595,135.24463685276504L80.46563540186202,135.19032182093855L80.67195754391807,135.28303579263732L80.87827968597414,135.03812028922366L81.08460182803017,135.11471250387297L81.90989039625441,135.38783531878067L82.11621253831046,135.51399951065426L82.32253468036652,135.61132559711163L82.52885682242257,135.62213803516647L82.73517896447862,135.61688072648408L82.96213332074029,135.4916054713443L83.16845546279635,135.44918305557522L83.58109974690846,135.30964282212977L83.78742188896452,134.8279783852698L83.99374403102057,134.86956505765954L84.20006617307662,134.97252826605254L84.40638831513269,135.0186423480651L84.61271045718874,134.99643500507835L84.8190325992448,135.0355270039897L85.23167688335693,135.16970227313948L85.43799902541296,135.34202010426407L85.64432116746902,135.26995696288319L85.85064330952508,135.22889425996678L86.05696545158114,135.3561850578205L86.2632875936372,135.49856139792738L86.67593187774929,135.59486064899744L86.88225401980536,135.6766123416098L87.08857616186141,135.7332553298129L87.29489830391748,135.82107858552683L87.50122044597353,135.96944875016942L87.91386473008565,136.0897894082825L88.1408190863473,136.16878403661713L88.55346337045941,136.2491056345271L88.96610765457153,136.243664977527L89.1724297966276,136.3318125957964L89.37875193868365,136.41578652100873L89.5850740807397,136.5807888317365L89.79139622279575,136.73059860463954L89.9977183648518,136.8362796780338L90.41036264896393,136.89347346644828L90.61668479101999,136.91494198593358L90.82300693307604,137.06545256365598L91.23565121718815,137.082953593729L91.4419733592442,137.13608209470732L91.64829550130027,137.25304122702633L91.85461764335632,137.40698675332237L92.06093978541239,137.18040130289893L92.26726192746844,137.295638297189L92.47358406952449,137.42867338378733L92.67990621158054,137.31822875937047L92.8862283536366,137.26931355303955L93.09255049569266,137.30419692536364L93.31950485195432,137.13418715546896L93.73214913606644,137.16937397289408L93.93847127812249,137.29027362168526L94.14479342017854,137.35363525241297L94.3511155622346,137.30993585905844L94.76375984634672,137.1267689188465L94.97008198840278,137.26181373464613L95.3827262725149,137.23312481179283L95.58904841457094,137.37376396553728L95.79537055662699,137.36739012736118L96.00169269868306,137.2572437333872L96.20801484073911,137.19985753575287L96.41433698279518,137.25306374770582L96.62065912485123,137.235579074906L96.82698126690728,137.0022169348979L97.03330340896333,137.16588354080352L97.23962555101939,137.2696547089106L98.06491411924362,137.35215475775644L98.27123626129968,137.50248046836873L98.49819061756135,137.5435301267049L98.91083490167345,137.1337752970997L99.1171570437295,137.14908941322554L99.73612346989769,137.00602728107978L99.94244561195373,137.15075595200867L100.35508989606585,137.09485342534256L100.5614120381219,137.11067112272625L100.76773418017797,136.97185240312004L101.38670060634612,137.0735923797914L101.59302274840218,136.9069606619676L101.79934489045824,137.0690457510974L102.0056670325143,137.0229129839893L102.21198917457036,137.06130913986104L102.41831131662641,137.21715338722043L102.62463345868247,137.27678726021838L102.83095560073852,137.27727198652832L103.03727774279459,137.39643225255602L103.24359988485064,137.62794310343097L103.44992202690669,137.63721614520708L103.67687638316836,137.6667516123663L103.88319852522442,137.6366807700152L104.08952066728048,137.64606762765337L104.29584280933653,137.6886646255936L104.50216495139257,137.6781182860548L104.70848709344864,137.63515592356268L104.91480923550469,137.19716777642736L105.12113137756076,137.3048796248493L105.32745351961681,137.37809319872136L105.53377566167288,137.35149207842605L105.74009780372891,137.52204283493697L106.15274208784103,137.4661094442391L106.35906422989709,137.55746009411172L106.56538637195315,137.6528769699542L106.7717085140092,137.65057935325817L107.39067494017736,137.8269958321832L107.59699708223343,137.8022670580267L107.80331922428948,137.83511758422713L108.00964136634555,137.9715810734806L108.2159635084016,138.01101625567202L108.42228565045765,137.98842155254357L108.6286077925137,138.06164249079944L108.85556214877536,138.09371231058807L109.06188429083143,138.23370428118682L109.26820643288748,138.3607146675732L109.6808507169996,138.3345119107378L109.88717285905567,138.5005175870795L110.0934950011117,138.59228610077423L110.71246142727988,138.66780474014524L110.91878356933594,138.7945855858099L111.125105711392,138.77607397178338L111.33142785344806,138.89291087971688L111.5377499955041,138.9577089976826L111.74407213756015,138.91387640003148L111.95039427961622,139.0302602644856L112.15671642167227,139.12324876194793L112.56936070578439,139.09470370862766L112.77568284784044,139.12851335583997L112.9820049898965,139.22786787379928L113.18832713195256,139.3192124633137L114.03424791438239,139.23042875824282L114.24057005643846,139.17320362328462L114.44689219849451,139.11181633969147L114.65321434055055,139.07152130215982L114.85953648260661,138.8418201509166L115.06585862466267,138.8323917788595L115.27218076671873,138.94107000580337L115.68482505083085,138.93714706320785L116.09746933494294,138.89016601695707L116.30379147699901,138.97100233594477L116.51011361905506,139.12453604048883L116.71643576111113,139.19041050463116L116.92275790316718,139.20397349641067L117.12908004522325,139.22993944870558L117.33540218727929,139.23065465105762L117.7480464713914,139.38011628812774L117.95436861344746,139.22326697226475L118.16069075550352,139.31400295406198L118.36701289755958,139.27034335826784L118.77965718167168,139.27839154809112L118.98597932372775,139.33614620001254L119.2129336799894,139.3378013289509L119.83190010615758,139.33040058794919L120.03822224821364,139.41208314341455L120.24454439026968,139.42475849513198L120.45086653232573,139.30653599348628L120.6571886743818,139.26760658258223L120.86351081643785,139.28144840310833L121.06983295849392,139.38059917160928L121.48247724260604,139.60442377625208L121.68879938466208,139.51161118705735L121.89512152671814,139.5896618502527L122.1014436687742,139.65915048473084L122.30776581083025,139.74329384105033L122.51408795288631,139.61036111103283L123.13305437905447,139.63187295488618L123.33937652111054,139.7241051346662L123.75202080522266,139.73326192509109L123.95834294727871,139.8000826124754L124.16466508933476,139.74641968286568L124.59794158765249,139.74823617772665L124.80426372970852,139.77764298123444L125.01058587176459,139.70963057272874L125.62955229793276,139.75182259943907L125.83587443998883,139.61022200642014L126.04219658204487,139.51692997661723L126.24851872410092,139.5234200316357L126.45484086615699,139.52638161308465L126.66116300821304,139.62497273574186L126.8674851502691,139.69850105913284L127.07380729232516,139.64965475391855L127.28012943438122,139.52960415625645L127.69277371849333,139.70192954966382L127.89909586054938,139.78648850471234L128.10541800260543,139.85841242277468L128.31174014466148,139.75260197945056L128.51806228671757,139.83128927821832L128.7243844287736,139.9366046925098L129.13702871288572,140.0940071497709L129.7766273532595,140.00458129580164L129.98294949531555,140.08470862393688L130.1892716373716,140.27953212568985L130.6019159214837,140.31702476545263L130.80823806353976,140.32991887150413L131.01456020559584,140.30601759177293L131.2208823476519,140.23935730283077L131.42720448970795,140.13919640734514L131.633526631764,140.07911334852503L131.83984877382005,140.13703836878688L132.0461709158761,139.964702832431L132.25249305793218,140.10631996480788L132.45881519998824,140.1335263548024L132.6651373420443,140.1178145135617L132.87145948410034,140.22353810420657L133.0777816261564,140.3274546038137L133.28410376821245,140.29759489753272L133.4904259102685,140.46260647112737L133.90307019438063,140.49454885707982L134.10939233643668,140.49091476791043L134.31571447849274,140.60465538837425L134.74899097681046,140.69385215693447L135.16163526092257,140.65867801267706L135.36795740297862,140.80890928080498L135.57427954503467,140.8748387653894L135.78060168709075,140.889051656395L135.9869238291468,140.93994775692363L136.3995681132589,140.99426247366068L136.60589025531496,140.97467783901956L136.812212397371,141.08475819324278L137.01853453942707,141.06282229283937L137.22485668148315,141.11872546239294L137.4311788235392,141.08261024457528L137.63750096559525,141.10780953761537L138.05014524970736,141.12906304169783L138.2564673917634,141.0425104599485L138.4627895338195,141.08356863230577L138.66911167587554,141.1775181480926L138.87543381793157,141.28953364382218L139.08175595998765,141.3075078076856L139.2880781020437,141.30419122082776L139.49440024409975,141.22787239729112L139.92767674241747,141.29894758225097L140.13399888447353,141.31649323948426L140.34032102652958,141.26975148869403L140.95928745269774,141.35642757685036L141.78457602092197,141.41355466884445L141.99089816297803,141.49359041959187L142.19722030503408,141.56624152292068L142.6098645891462,141.66475902136366L142.81618673120227,141.81241506652606L143.02250887325832,141.80617980399856L143.22883101531437,141.9019606788396L143.43515315737042,141.93733881034555L143.64147529942647,142.05732624996534L143.84779744148256,142.07813003002252L144.0541195835386,142.10095378784843L144.26044172559466,142.1451456282311L144.4667638676507,142.1426038285865L144.6730860097068,142.12706231178214L144.87940815176282,141.88416322045816L145.31268465008057,141.94484242445665L145.5190067921366,141.95325174691376L145.72532893419265,142.02264602307625L145.93165107624873,141.9905510772261L146.13797321830475,142.0446652053682L146.34429536036083,142.0161351519398L146.55061750241688,141.9769160295751L146.75693964447296,141.9226966903776L146.963261786529,141.9470240008239L147.16958392858504,141.98291875243092L147.58222821269715,142.02230620694283L147.78855035475323,142.08567250638467L147.99487249680928,142.11386384409775L148.20119463886536,142.09233694117583L148.40751678092138,142.1446374834689L148.61383892297744,142.12985794006L148.82016106503352,142.10849102121387L149.02648320708954,142.2551189550815L149.23280534914562,142.14402813631554L149.43912749120167,142.1469203210457L149.64544963325773,142.14106091842473L149.85177177531378,142.1534912341923L150.2850482736315,142.09379189078177L150.49137041568756,142.0713535883487L150.6976925577436,142.01260010966217L150.9040146997997,142.0087229925394L151.11033684185574,141.92443615204243L151.7293032680239,142.0259784486027L151.93562541007995,142.07074278303782L152.141947552136,142.06919280857687L152.34826969419208,142.1174919359385L152.55459183624814,142.0471781915563L152.76091397830416,142.12408017763693L153.1735582624163,142.17509606324467L153.37988040447235,142.06205935288477L153.5862025465284,142.05916566927874L153.79252468858448,142.0952611957261L153.99884683064053,142.01360974848723L154.20516897269655,141.986029503746L154.41149111475264,142.0369145482656L154.6178132568087,142.11127716615027L155.0304575409208,142.19098409099956L155.23677968297687,142.1856897911961L155.67005618129457,142.17549856939513L155.87637832335062,142.18976447582926L156.0827004654067,142.13334573165096L156.28902260746273,142.05224272736186L156.4953447495188,142.1079212233824L157.11431117568696,142.10887098072993L157.32063331774302,142.18015849435892L157.5269554597991,142.23660572404978L157.73327760185512,142.37831030132887L158.14592188596725,142.29458307284057L158.55856617007936,142.2990599035509L158.9712104541915,142.2535716995963L159.3838547383036,142.28698661644958L159.59017688035965,142.23152721593942L159.79649902241573,142.14986566195338L160.00282116447175,142.0319672975496L160.2091433065278,141.97493021947193L160.64241980484553,141.9268731293837L160.84874194690158,141.98175985839032L161.05506408895766,141.99088557064587L161.26138623101372,142.0127770235071L161.46770837306977,142.06756359136958L161.67403051512582,142.25001132900988L162.08667479923793,142.3502901899467L162.29299694129398,142.27025599359044L162.49931908335006,142.25812493329556L162.7056412254061,142.2923790965584L163.11828550951822,142.28451541850063L163.32460765157427,142.3137292273555L163.53092979363035,142.37708901199397L163.73725193568637,142.40046448173996L164.1498962197985,142.39451205914284L164.35621836185453,142.46507869784176L164.5625405039106,142.51780672353797L164.76886264596666,142.5958889651149L164.97518478802274,142.61407158284655L165.18150693007877,142.69561844953824L165.38782907213485,142.73885591348437L165.5941512141909,142.72943164275625L165.82110557045254,142.81280572909284L166.23374985456468,142.75734385423794L166.4400719966207,142.8309959465898L166.85271628073284,142.81364211978592L167.05903842278892,142.63837778257974L167.26536056484494,142.68805712291552L167.471682706901,142.70172709315776L167.67800484895707,142.76373729936483L167.8843269910131,142.6639925197133L168.09064913306918,142.56755925604543L168.29697127512523,142.40157178735987L168.5032934171813,142.45581494088984L168.9159377012934,142.27032874717517L169.12225984334947,142.19672576811L169.3285819854055,142.1806746617693L169.53490412746157,142.1509380572007L169.74122626951763,142.2417265920226L169.9475484115737,142.29492204646093L170.15387055362973,142.31233065339552L170.36019269568578,142.24217963950727L170.56651483774186,142.30543482749516L170.77283697979792,142.2252760013931L170.99979133605956,142.16038226558766L171.20611347811564,142.26853461602084L171.4124356201717,142.28331260392918L171.61875776222774,142.356569793662L171.8250799042838,142.37408604466472L172.03140204633985,142.43838416102957L172.2377241883959,142.4541011649194L172.44404633045195,142.47730433480658L172.65036847250803,142.45555240808164L172.8566906145641,142.5367770495418L173.0630127566201,142.54199572321784L173.2693348986762,142.4905920005859L173.68197918278833,142.46399586642096L173.88830132484435,142.4836348319119L174.09462346690043,142.5971398662698L174.5072677510125,142.71621740026112L174.7135898930686,142.76298703612616L174.91991203512464,142.73166379783365L175.12623417718072,142.83399257768477L175.33255631923674,142.70888150705326L176.38479924372265,142.70953162586503L176.59112138577868,142.61178851417358L176.79744352783476,142.492743153207L177.2100878119469,142.4374544537601L177.41640995400292,142.4787660618176L177.62273209605897,142.51062116351028L177.82905423811505,142.57638520528693L178.03537638017107,142.67883843909675L178.4480206642832,142.73227788950686L178.6543428063393,142.7089844874952L178.8606649483953,142.63905685918155L179.06698709045136,142.67541518723877L179.27330923250744,142.7189732836553L179.47963137456347,142.75479876141551L179.68595351661955,142.67935751389533L179.8922756586756,142.71663549792368L180.09859780073168,142.73458200849214L180.3049199427877,142.79287207051675L180.51124208484376,142.83313256706177L180.71756422689984,142.70544880682453L180.9238863689559,142.63683673167625L181.35716286727362,142.65078671800092L181.56348500932967,142.68178454423588L181.76980715138572,142.66168737817227L181.97612929344177,142.5632870596077L182.18245143549782,142.44564184446045L182.3887735775539,142.42197777386946L182.59509571960993,142.42627461616203L182.801417861666,142.48375984147197L183.00774000372206,142.4624455402244L183.62670642989022,142.33079537099266L183.8330285719463,142.2684481838141L184.03935071400232,142.32265317806548L184.2456728560584,142.3495730127076L184.45199499811446,142.30399147380245L184.65831714017048,142.24202251053197L185.07096142428261,142.23303254047454L185.2772835663387,142.32489663571613L185.48360570839472,142.43069404388456L185.6899278504508,142.3329140178187L185.89624999250685,142.3512341770956L186.10257213456288,142.451446319031L186.30889427661896,142.42943180822326L186.53584863288063,142.4606203439413L186.94849291699273,142.4850877972095L187.1548150590488,142.54938138109773L187.36113720110487,142.54303878361512L187.5674593431609,142.55109469436627L187.77378148521694,142.59329787968946L187.98010362727302,142.56948962407918L188.18642576932905,142.58541962809292L188.39274791138513,142.64635039354124L188.59907005344118,142.5601651255716L188.80539219549726,142.60722897609475L189.21803647960934,142.46240617174047L189.42435862166542,142.35509621654884L189.63068076372147,142.39913545291017L190.04332504783358,142.44659671831985L190.24964718988966,142.5046276676788L190.45596933194568,142.38498906882646L190.66229147400173,142.3457686378113L190.86861361605781,142.37741065170164L191.07493575811387,142.3692790120501L191.28125790016992,142.38437540406017L191.48758004222597,142.48466983743376L191.71453439848764,142.49550808841494L191.9208565405437,142.4351290788845L192.12717868259975,142.42657385780575L192.3335008246558,142.39733762156703L192.53982296671188,142.49495219932518L192.7461451087679,142.5895666707534L193.15878939288004,142.6673338527164L193.3651115349361,142.63862307306022L193.57143367699214,142.57407979425298L193.7777558190482,142.66184389552282L193.98407796110428,142.68418575120617L194.1904001031603,142.72539677336772L194.60304438727243,142.73421747182147L194.80936652932846,142.6997686171805L195.2220108134406,142.60802098386696L195.42833295549667,142.55107772705455L195.84097723960878,142.53424224774176L196.25362152372085,142.49912255559676L196.89322016409463,142.5268208235788L197.0995423061507,142.56553493143355L197.71850873231887,142.63713443141071L197.92483087437492,142.66716095924266L198.131153016431,142.72700336586425L198.33747515848702,142.80154943784743L198.5437973005431,142.8037996406327L198.95644158465524,142.7820655239542L199.16276372671126,142.85948547348528L199.3690858687673,142.9053779360402L199.9880522949355,142.90653056413694L200.19437443699155,142.96887885663645L200.60701872110366,143.09861805397924L200.8133408631597,143.08244321337412L201.0196630052158,143.06702808312332L201.22598514727184,143.10006191343203L201.4323072893279,143.10982015812874L201.63862943138395,143.15180479879643L201.84495157344,143.07720566292699L202.27822807175772,143.10931481160623L202.48455021381378,143.11078229916401L202.69087235586986,143.18635471866637L203.10351663998196,143.23164843577388L203.309838782038,143.3490527767907L203.51616092409407,143.41373295344067L203.72248306615012,143.2811657325666L203.92880520820617,143.32569098130853L204.13512735026225,143.29984494650506L204.34144949231828,143.2158395386643L204.54777163437436,143.2844261051073L204.7540937764304,143.34968653721825L204.96041591848643,143.3667959719553L205.1667380605425,143.32213576982986L205.57938234465465,143.34121106970315L205.78570448671067,143.3339849187616L206.1983487708228,143.25499203430635L206.6109930549349,143.3213311651325L206.81731519699096,143.34130506247246L207.45691383736474,143.42599151832079L207.66323597942082,143.49671953416487L208.0758802635329,143.40693169883923L208.28220240558898,143.47063765443733L208.48852454764503,143.51985914772217L208.69484668970108,143.53086995060968L208.90116883175713,143.5233115496408L209.31381311586924,143.5448367414974L209.5201352579253,143.49644699693263L209.93277954203742,143.49823789896362L210.13910168409348,143.50139256584757L210.5517459682056,143.51977577069556L210.75806811026163,143.46333119928286L210.96439025231768,143.37013509456446L211.17071239437377,143.390976010346L211.37703453642982,143.40946252169167L211.58335667848587,143.29414936334317L211.78967882054192,143.32867758768907L211.99600096259798,143.18246150962614L212.20232310465406,143.21067895142093L212.63559960297175,143.12906886386452L212.84192174502783,143.20877252359264L213.04824388708386,143.22442163797473L213.25456602913994,143.27166327215048L213.460888171196,143.27964596001132L213.66721031325204,143.36008168401776L213.8735324553081,143.4207207923836L214.07985459736415,143.45078766305608L214.28617673942023,143.3934740814558L214.49249888147625,143.28662091270692L214.90514316558838,143.2893682156993L215.3177874497005,143.27515622514298L215.52410959175654,143.29521233508996L215.73043173381262,143.24134996554398L215.93675387586865,143.2875098468008L216.14307601792473,143.3358946433521L216.34939815998078,143.27690123364712L216.5557203020368,143.36702614945062L216.76204244409288,143.22740728026562L216.96836458614894,143.22492901858558L217.17468672820502,143.2260958962589L217.38100887026104,143.2731563157982L217.6079632265227,143.27295149838335L218.02060751063482,143.2376956212786L218.43325179474695,143.204503324536L218.639573936803,143.30064203135558L218.84589607885906,143.3303244491851L219.0522182209151,143.29594555792085L219.4648625050272,143.28871724759313L219.67118464708327,143.35257743649655L219.87750678913935,143.3307999263686L220.0838289311954,143.3525390270789L220.29015107325145,143.3972868835251L220.4964732153075,143.33770925433222L220.70279535736358,143.39357568321836L221.11543964147566,143.33008476107668L221.32176178353174,143.30912999548158L221.9407282096999,143.36239568598546L222.14705035175595,143.29225610451925L222.78664899212973,143.30631917416372L222.9929711341858,143.2606985004869L223.19929327624183,143.31049416167787L223.4056154182979,143.38114217462046L223.61193756035397,143.37028822274908L223.81825970241005,143.43285227499098L224.02458184446607,143.43544676910074L224.23090398652212,143.43172675912362L224.4372261285782,143.43235062506437L225.05619255474636,143.41945585032335L225.26251469680238,143.2978223611149L225.46883683885846,143.28924793673085L225.67515898091452,143.26689232763886L225.8814811229706,143.27489849425078L226.2941254070827,143.30865467994454L226.50044754913876,143.2927648828532L226.70676969119478,143.27957615642194L226.91309183325086,143.2842901552022L227.1194139753069,143.2779517133755L227.53205825941902,143.32382642528444L227.7383804014751,143.35506315470735L227.96533475773677,143.25639627188858L228.1716568997928,143.25792891049142L228.37797904184885,143.33010917709177L228.58430118390493,143.3414897005642L228.79062332596098,143.38531961851464L228.99694546801703,143.39487564291707L229.20326761007308,143.41563720326081L229.40958975212916,143.38882781885178L229.82223403624124,143.4310648139727L230.23487832035337,143.35331632657164L230.64752260446548,143.32575472160906L230.85384474652156,143.36108768762645L231.0601668885776,143.33718847311278L231.26648903063364,143.28552647960385L231.47281117268972,143.355080659462L232.09177759885787,143.42040106972368L232.50442188297,143.48534190773697L232.71074402502603,143.52770786791643L233.14402052334378,143.5085962110863L233.3503426653998,143.57878247271213L233.5566648074559,143.66782672279575L233.76298694951194,143.64470533377155L233.96930909156802,143.6656373345251L234.3819533756801,143.66139012423344L235.20724194390434,143.6494546581478L235.41356408596036,143.6730813119967L235.61988622801644,143.7517441963616L235.8262083700725,143.66944015013183L236.03253051212857,143.64557642261218L236.85781908035278,143.671339149681L237.06414122240884,143.67831690641154L237.2704633644649,143.75947915799372L237.47678550652097,143.76676397732098L237.88942979063307,143.78420448645267L238.09575193268913,143.80589798782012L238.32270628895077,143.86273933599344L238.7353505730629,143.8709413150626L238.94167271511895,143.9406592057494L239.147994857175,143.92970085810364L239.56063914128714,143.90913976899034L239.97328342539922,143.87005454619327L240.1796055674553,143.84710938958057L240.38592770951135,143.91341986870228L240.79857199362345,143.92122120489265L241.00489413567954,143.92682299559775L241.2112162777356,143.80600617154013L241.4175384197916,143.859290245629L241.6238605618477,143.93302187543662L241.83018270390374,143.93498063610534L242.0365048459598,143.93792887328755L242.24282698801585,143.8269209930893L242.4491491300719,143.80345669899805L242.65547127212798,143.71837062100695L242.861793414184,143.7226811243556L243.0681155562401,143.70869054830942L243.27443769829614,143.63757961545969L243.70771419661386,143.7080588324516L243.91403633866992,143.76925032960438L244.120358480726,143.77534963824903L244.53300276483807,143.78067892973283L244.73932490689415,143.85142035456275L244.94564704895018,143.89629501149645L245.15196919100626,143.92282757639472L245.56461347511834,143.95270853320812L245.77093561717442,143.98815208536598L245.97725775923047,144.03213977401742L246.18357990128655,144.03160128815043L246.8025463274547,144.03300976611794L247.00886846951076,144.07124716295493L247.2151906115668,143.90309315519318L247.42151275362286,143.89817145815618L248.2468013218471,143.95586304404318L248.6800778201648,143.9770920603602L248.88639996222088,143.9303325163899L249.09272210427693,143.95477520101585L249.29904424633298,144.01508427562263L249.50536638838904,144.0100872038573L249.71168853044512,144.0137913840233L249.91801067250117,144.0843082229324L250.1243328145572,144.04484712233986L250.33065495661327,144.10621450734808L250.53697709866933,144.05420542349583L250.74329924072538,144.01322286261262L250.94962138278143,144.0160452250265L251.1559435248375,144.06898065899344L251.36226566689356,144.10838156679688L251.5685878089496,144.07199140635745L251.98123209306172,144.05107833345286L252.18755423511777,144.13346613423076L252.39387637717383,144.1523607590462L252.6001985192299,144.02046584697345L252.80652066128596,143.95284485056442L253.01284280334198,143.9285842426947L253.21916494539806,143.98503158117808L253.85876358577184,144.01704490891177L254.0650857278279,144.0022015163446L254.47773001194,144.0386415532691L254.68405215399605,143.93053545508727L254.89037429605213,143.88188646283322L255.09669643810815,143.92374701024062L255.30301858016423,143.8469574500362L255.5093407222203,143.90766701393835L255.71566286427634,143.92462284972285L255.9219850063324,143.77231909039548L256.12830714838844,143.80302358959568L256.3346292904445,143.7470978621289L256.74727357455663,143.64584089418935L256.95359571661265,143.69774548502707L257.3662400007248,143.73163123778568L257.57256214278084,143.7069566401451L257.98520642689294,143.83857219584985L258.191528568949,143.9108349587643L258.39785071100505,143.96598739360792L258.60417285306113,144.00482110333817L258.8104949951172,143.9237773871729L259.0374493513788,143.89118792932896L259.2437714934349,143.7786305126741L259.450093635491,143.64966374349552L259.656415777547,143.69476642620023L260.0690600616591,143.7376231830971L260.2753822037152,143.79548997349704L260.4817043457713,143.8531599000855L260.8943486298834,143.8657883490759L261.1006707719394,143.89690380020582L261.3069929139955,143.90932700177356L261.5133150560515,143.94613994791658L261.7196371981076,143.96100600902875L261.9259593401637,143.93199673149957L262.1322814822197,143.96665471649058L262.3386036242758,144.04898780230423L262.5449257663318,144.08245766725543L262.7512479083879,144.1343258716685L263.5765364766121,144.1555518448149L263.7828586186682,144.16590000680654L263.9891807607242,144.18825798662974L264.42245725904195,144.1128890528183L264.628779401098,144.1951207220274L264.835101543154,144.17017227392094L265.0414236852101,144.23128716445314L265.24774582726616,144.27157635771496L265.45406796932224,144.27900192665726L265.66039011137826,144.24469974853312L266.07303439549037,144.2657394950466L266.2793565375464,144.27276996825321L266.4856786796025,144.17768127581198L266.89832296371463,144.17888997725578L267.10464510577066,144.13326212298426L267.3109672478267,144.19732571515092L267.51728938988276,144.15760717632583L267.92993367399487,144.1864523375634L268.13625581605095,144.24391139236323L268.34257795810703,144.2734651073855L268.54890010016305,144.37030973746204L268.7552222422191,144.42486088510427L268.96154438427516,144.421473187557L269.60114302464893,144.4880144322406L269.807465166705,144.4560858604913L270.42643159287314,144.46590409178978L270.6327537349292,144.46251370622326L270.83907587698525,144.5414290414227L271.2517201610974,144.57792050694877L271.45804230315343,144.63433212976648L271.6643644452095,144.63897116865277L272.0770087293216,144.69689138346388L272.28333087137764,144.69100231888726L272.4896530134337,144.73192818446685L272.9022972975459,144.68280268291258L273.1086194396019,144.70482407518506L273.31494158165793,144.78589062569412L273.521263723714,144.8330987632151L273.72758586577004,144.81209859677102L273.9339080078261,144.79292771517805L274.1402301498822,144.8264570769302L274.5735066481999,144.76541821550387L275.1924730743681,144.78195102333066L275.3987952164241,144.78272249535294L276.0177616425923,144.77021182645595L276.22408378464837,144.71545580187168L276.4304059267044,144.69727100310908L276.6367280687605,144.75573235022273L276.8430502108165,144.782038623973L277.2556944949286,144.87185952608203L277.4620166369847,144.90829841929843L277.66833877904077,144.93619671118867L277.8746609210968,144.98380731740235L278.08098306315287,145.0492423322646L278.2873052052089,145.08967822809933L278.493627347265,145.1043805983027L278.699949489321,145.07101028272916L278.9062716313771,145.05111639835644L279.11259377343316,145.06392658593404L279.3189159154892,145.04974218352655L279.52523805754527,145.10178800429827" fill="none"></path></g></g></g></g><g opacity="0.2"><g><g><g><path style="fill: none;" stroke="rgb(204, 51, 17)" stroke-width="2px" d="M20.817904133456096,25.271428516932886L21.230548417568205,69.29812035624013L21.436870559624264,81.07889707224427L21.64319270168032,118.54412424809782L22.262159127848488,149.83365644631834L22.674803411960603,72.62810214026753L22.881125554016656,113.25981343290073L23.087447696072715,76.5353433122582L23.706414122240883,179.4659535748118L23.91273626429694,123.97512563544029L24.119058406353,142.06691856136842L24.325380548409054,119.94376312497374L24.531702690465107,96.74196548866836L24.738024832521166,127.21520208907296L24.944346974577222,99.95999353575951L25.356991258689337,104.34444051617106L25.56331340074539,102.076019615602L25.99658989906311,146.63478571954366L26.20291204111917,132.79048128340523L26.409234183175222,162.42429481565398L26.615556325231278,150.12037069368088L26.821878467287338,150.39390521300152L27.028200609343394,111.36795797683993L27.23452275139945,140.58451087865933L27.440844893455505,52.5659063347851L27.64716703551156,111.87320040439741L27.85348917756762,110.15866364720391L28.26613346167973,82.83360932936212L28.47245560373579,125.5387289464588L28.678777745791844,114.66529017397917L28.8850998878479,162.85462845191773L29.091422029903956,243.91609279281587L29.50406631401607,88.9010406644988L29.710388456072124,138.57916573220263L30.329354882240295,154.23899684472076L30.535677024296355,137.01075573437143L30.741999166352407,79.44617496313641L30.948321308408463,104.92014576021914L31.175275664670128,127.24958757364361L31.38159780672618,118.75552024864871L31.58791994878224,146.83619262851667L31.794242090838296,134.24191335579886L32.00056423289435,107.78029177065937L32.20688637495041,125.53190102721402L32.61953065906253,151.56472173664824L32.82585280111858,150.39675482832027L33.23849708523069,133.68449851123066L33.44481922728675,143.23721684475223L33.6511413693428,156.98087068183386L33.85746351139886,154.2595635504699L34.270107795510974,126.89572816512977L34.476429937567026,112.83458862916083L34.682752079623086,168.36654199623254L34.889074221679145,135.69692847925327L35.30171850579126,148.9585210596318L35.50804064784731,144.01468115459525L35.71436278990337,128.80863950126772L35.92068493195943,129.64830122531416L36.353961430277145,160.82856687659134L36.76660571438926,139.91676674733003L36.97292785644532,94.69168378940104L37.17924999850137,156.99218918609876L37.38557214055742,149.6208677690731L37.59189428261348,136.42230376575068L37.79821642466954,132.25736292609935L38.00453856672559,159.03116785307859L38.21086070878165,178.23862540722362L38.41718285083771,114.6350900062454L38.62350499289376,193.4164010131285L38.82982713494982,138.76978756133084L39.036149277005876,128.71746584010697L39.242471419061935,164.01451136828953L39.44879356111799,158.22354223064204L39.86143784523011,122.94402027811599L40.27408212934222,63.825071637532496L40.48040427139827,144.5150846342965L40.68672641345432,61.72504057109775L41.305692839622495,165.91591769387333L41.53264719588416,94.33503896740004L41.73896933794021,125.50276350930604L42.15161362205233,95.42026402562145L42.35793576410838,158.93895273288717L42.7705800482205,102.16668253009989L42.97690219027656,127.20849178874201L43.18322433233261,112.81368958174804L43.389546474388666,140.9977223012949L43.595868616444726,52.80427855842915L43.80219075850078,130.81563723049092L44.00851290055684,176.735481162973L44.42115718466895,218.31437608661605L44.83380146878106,178.17677682180692L45.040123610837114,127.80717428960203L45.24644575289317,153.26724961454207L45.45276789494923,120.38437782590131L45.65909003700529,146.4540172762143L45.865412179061344,164.71156978814764L46.071734321117404,148.43695059654863L46.27805646317346,216.11568216606346L46.71133296149118,168.53101258119474L46.91765510354723,106.13368105795234L47.12397724560329,183.17202828266048L47.33029938765935,112.28475978588212L47.5366215297154,127.6934970655093L47.74294367177146,104.74881126084867L47.949265813827516,100.1380088314748L48.15558795588357,156.10744022274625L48.56823223999569,189.20500313497422L48.98087652410779,148.2424840452525L49.18719866616385,89.09310391372536L49.39352080821991,188.5817349455339L49.59984295027596,151.0741841483111L49.80616509233202,133.73505422232853L50.01248723438808,137.81679425918026L50.425131518500194,193.88093344371438L50.631453660556254,182.1528202715326L50.8377758026123,144.3248470207173L51.04409794466836,159.6648356817124L51.25042008672442,161.9657770769394L51.45674222878047,155.80722532487613L51.89001872709819,141.9328675032858L52.302663011210306,201.86560492553278L52.50898515326636,139.56572530869647L52.71530729532242,215.7274128138013L53.12795157943454,132.50230607516357L53.33427372149058,159.10365962628418L53.54059586354664,84.38573943404896L53.7469180056027,167.4595632079604L53.953240147658754,108.53806135191452L54.15956228971481,132.7608601562679L54.36588443177087,189.2575899880394L54.572206573826925,141.18206620681548L54.778528715882985,149.02336130054476L54.984850857939044,131.68173024036682L55.19117299999509,151.01696141845196L55.60381728410721,175.7365863349861L55.81013942616327,160.32170238980822L56.01646156821932,152.3063454772346L56.22278371027538,213.3827110598419L56.42910585233144,136.20819569086441L56.841750136443544,139.44533883450862L57.06870449270521,97.29489987447704L57.27502663476127,142.77944415076382L57.48134877681733,177.64990901587086L57.68767091887337,155.07049739260873L58.10031520298549,184.2510049879753L58.306637345041544,102.41900600170925L58.5129594870976,121.6174140900856L58.71928162915366,148.70874422329132L58.925603771209715,143.0119902985774L59.131925913265775,139.54659936229646L59.338248055321834,116.55376499917963L59.95721448149,100.78108169155418L60.16353662354606,170.4002079907427L60.36985876560211,142.7762403187187L60.57618090765817,167.05466080986193L60.78250304971423,173.99495669039374L61.195147333826334,137.18310729046516L61.607791617938446,146.99023583076146L61.814113759994505,151.98458628063332L62.020435902050565,153.68395544441773L62.24739025831222,174.41530826714862L62.660034542424334,157.91369638271462L62.866356684480394,142.78460280118455L63.07267882653645,164.04549701837084L63.27900096859251,142.95603096942472L63.485323110648565,143.24749406141814L63.69164525270462,170.0678768834574L63.89796739476068,96.21105466834922L64.10428953681674,115.7295836444819L64.31061167887279,114.35284795930839L64.51693382092886,199.79156999874374L64.92957810504096,175.50444820121677L65.13590024709701,99.13311604360173L65.34222238915306,155.27038608283704L65.54854453120913,106.91559440012574L65.96118881532125,169.86191307655918L66.16751095737729,134.8701524024631L66.37383309943336,153.94525162374964L66.58015524148941,178.65470232891147L66.78647738354546,101.94180851201048L66.99279952560153,167.865350349658L67.19912166765758,168.8131163386265L67.42607602391924,114.63396331631878L67.6323981659753,149.22760900461176L68.25136459214347,117.74479655371393L68.45768673419953,158.5744716920346L68.66400887625558,191.1578641848639L68.87033101831163,158.68569034362454L69.07665316036768,161.1283768949425L69.28297530242375,93.26064570431883L69.4892974444798,111.24141895998994L69.69561958653587,106.19498272621638L69.90194172859192,178.75585676137862L70.10826387064797,131.53593414606465L70.31458601270404,212.03782013400294L70.72723029681615,193.159707718344L70.9335524388722,173.28430254072447L71.34619672298432,160.4247518933486L71.55251886504037,152.88740191358295L71.75884100709642,144.73610098170096L71.96516314915249,131.96552027656136L72.17148529120854,131.87561340236482L72.37780743326459,135.3119888577129L73.01740607363837,87.79391036948084L73.22372821569442,139.70187192983434L73.43005035775049,139.35481922080865L73.63637249980654,82.23414984664659L74.04901678391865,148.72033642509564L74.25533892597471,125.08094335448614L74.46166106803076,121.93086227431955L74.66798321008683,161.2597526131194L75.08062749419894,127.90005948760918L75.28694963625499,99.6415581086206L75.6995939203671,173.63941998361605L76.11223820447923,135.71723026647857L76.31856034653528,98.01464213694766L76.73120463064738,93.46169225136813L76.93752677270344,146.21107851810697L77.35017105681555,147.73482717187963L77.55649319887162,110.13181809766766L77.78344755513328,189.14368890870716L77.98976969718933,88.57258539020192L78.40241398130144,109.12365960340185L78.6087361233575,101.88685948078135L78.81505826541355,121.08820283632014L79.02138040746962,79.12301499612944L79.22770254952567,123.32410737759615L79.43402469158173,127.78095261078344L79.64034683363778,140.30220527444064L79.84666897569383,161.5505809992735L80.0529911177499,168.6959908000122L80.25931325980595,161.55648089741675L80.46563540186202,124.28664941519486L80.67195754391807,155.88388898644902L80.87827968597414,90.55771709284005L81.08460182803017,152.0724522063765L81.90989039625441,206.73572806458165L82.11621253831046,164.72530000923902L82.32253468036652,157.7493882912485L82.52885682242257,137.94465733269647L82.73517896447862,134.49554097357552L82.96213332074029,110.61305200121076L83.16845546279635,126.55385513638281L83.58109974690846,107.64403721742362L83.78742188896452,54.30873655397137L83.99374403102057,144.19974519343216L84.20006617307662,159.24043986494493L84.40638831513269,145.47492491766207L84.61271045718874,130.17734708001933L84.8190325992448,143.91927587506524L85.23167688335693,168.09496219852855L85.43799902541296,179.1832180936676L85.64432116746902,119.92816457230037L85.85064330952508,126.27778958840834L86.05696545158114,166.89718353140074L86.2632875936372,171.361801642105L86.67593187774929,159.039125638799L86.88225401980536,155.42350232971467L87.08857616186141,149.20022380076526L87.29489830391748,157.29096411068826L87.50122044597353,174.25812442243338L87.91386473008565,166.52258269451366L88.1408190863473,155.5513711027975L88.55346337045941,156.0478749338942L88.96610765457153,134.98279290723298L89.1724297966276,158.35183124182385L89.37875193868365,157.39538582005355L89.5850740807397,180.95451754302232L89.79139622279575,176.61255595750163L89.9977183648518,164.0030846041434L90.41036264896393,151.0707989192845L90.61668479101999,142.1078029532207L90.82300693307604,177.74912690986665L91.23565121718815,141.3307387116042L91.4419733592442,150.43877734664903L91.64829550130027,168.25617528069014L91.85461764335632,179.7579154282817L92.06093978541239,89.91788485409234L92.26726192746844,168.11274648816004L92.47358406952449,173.70636146539874L92.67990621158054,112.32870240306033L92.8862283536366,125.68474104137572L93.09255049569266,146.1359511634081L93.31950485195432,99.82134815461556L93.73214913606644,146.13609288016067L93.93847127812249,170.56777156174232L94.14479342017854,153.9851720101094L94.3511155622346,126.73691943001752L94.76375984634672,96.72260052126603L94.97008198840278,175.4371807272723L95.3827262725149,130.15225555616294L95.58904841457094,177.61395455834065L95.79537055662699,135.75759790582393L96.00169269868306,111.41353635698756L96.20801484073911,123.17851744768048L96.41433698279518,151.4904268599423L96.62065912485123,132.8070062595651L96.82698126690728,85.95397218205105L97.03330340896333,186.22534446851037L97.23962555101939,166.6873679489733L98.06491411924362,160.35531395225627L98.27123626129968,182.39240612189926L98.49819061756135,148.64277095376133L98.91083490167345,54.944881048500996L99.1171570437295,141.2237805736647L99.73612346989769,103.1502238572294L99.94244561195373,180.82203506427152L100.35508989606585,122.92833313219795L100.5614120381219,141.36887991218182L100.76773418017797,103.69202869984807L101.38670060634612,166.8491121925647L101.59302274840218,97.52454013104787L101.79934489045824,187.84853724642832L102.0056670325143,125.05549307316721L102.21198917457036,147.7803607821576L102.41831131662641,186.1752971434961L102.62463345868247,154.34382005290607L102.83095560073852,137.40928835512597L103.03727774279459,173.7424636833219L103.24359988485064,218.20385345984576L103.44992202690669,140.2022902373414L103.67687638316836,146.0060729281018L103.88319852522442,129.54831929437637L104.08952066728048,140.26359827559537L104.29584280933653,149.95836150600778L104.50216495139257,134.7723264716499L104.70848709344864,126.08476526447559L104.91480923550469,46.228913151811746L105.12113137756076,170.7348354359367L105.32745351961681,159.38609331891595L105.53377566167288,130.02928231227565L105.74009780372891,194.7649052679438L106.15274208784103,122.36607785759766L106.35906422989709,165.82954034261476L106.56538637195315,167.38894105096514L106.7717085140092,136.99660599594753L107.39067494017736,198.36887277800102L107.59699708223343,130.8660312356583L107.80331922428948,147.56352041500563L108.00964136634555,183.055307573802L108.2159635084016,149.8227209484091L108.42228565045765,131.57731776459963L108.6286077925137,160.85295504403786L108.85556214877536,147.7047965840314L109.06188429083143,185.332901637497L109.26820643288748,180.58014959761826L109.6808507169996,130.8343666660039L109.88717285905567,196.6095949213842L110.0934950011117,168.17656412049598L110.71246142727988,162.66245079141038L110.91878356933594,181.50871807309562L111.125105711392,133.37824538089447L111.33142785344806,178.0237272831451L111.5377499955041,159.5268351028639L111.74407213756015,126.32936377922121L111.95039427961622,178.3014926180606L112.15671642167227,169.7705917462982L112.56936070578439,130.73132803194497L112.77568284784044,149.65810150469642L112.9820049898965,172.45922634033482L113.18832713195256,169.6783927532839L114.03424791438239,114.31732616254197L114.24057005643846,122.64382647141598L114.44689219849451,121.40584919900141L114.65321434055055,127.20568803709504L114.85953648260661,80.49281700793418L115.06585862466267,135.9635571255553L115.27218076671873,176.4350851023767L115.68482505083085,137.73187009416324L116.09746933494294,124.98841519481749L116.30379147699901,166.19331619643432L116.51011361905506,195.66841408681304L116.71643576111113,161.1179305616654L116.92275790316718,143.4901269112098L117.12908004522325,147.55713420637431L117.33540218727929,139.45482187116076L117.7480464713914,194.85993558033735L117.95436861344746,96.19617134119622L118.16069075550352,170.81605114408032L118.36701289755958,126.03642800589287L118.77965718167168,141.84716136663783L118.98597932372775,158.79490349722192L119.2129336799894,139.86499546599492L119.83190010615758,136.98907411033235L120.03822224821364,167.87712186650614L120.24454439026968,143.53347731743062L120.45086653232573,105.26638640054355L120.6571886743818,127.21912968712824L120.86351081643785,143.80257794020724L121.06983295849392,175.06652358623055L121.48247724260604,235.80692087296617L121.68879938466208,111.93865455703846L121.89512152671814,167.17715242700373L122.1014436687742,164.0330255015869L122.30776581083025,169.83416649267997L122.51408795288631,101.16046324170237L123.13305437905447,146.83549282212047L123.33937652111054,173.2569945508129L123.75202080522266,142.77271270729022L123.95834294727871,163.47837999219942L124.16466508933476,122.93998074319342L124.59794158765249,140.35030043731686L124.80426372970852,149.8339585424287L125.01058587176459,118.57235872814975L125.62955229793276,154.4462618339736L125.83587443998883,98.21186945051369L126.04219658204487,111.02558062075552L126.24851872410092,141.71125918429485L126.45484086615699,140.52303503486831L126.66116300821304,176.74043610661843L126.8674851502691,166.5938987813588L127.07380729232516,123.95721778069245L127.28012943438122,103.33745068735364L127.69277371849333,212.24766256267094L127.89909586054938,171.40701095805755L128.10541800260543,166.3962751911554L128.31174014466148,107.22256796589785L128.51806228671757,169.23000359933184L128.7243844287736,180.72938258167633L129.13702871288572,205.8234354063312L129.7766273532595,111.90287780846987L129.98294949531555,170.3286149641684L130.1892716373716,227.22960695137274L130.6019159214837,153.8173498473788L130.80823806353976,144.8546838904962L131.01456020559584,132.22659379986138L131.2208823476519,118.60984647439173L131.42720448970795,108.59497060892586L131.633526631764,120.38955165182847L131.83984877382005,161.7607713349448L132.0461709158761,88.76061756279776L132.25249305793218,199.48818079484985L132.45881519998824,149.98506547634662L132.6651373420443,134.6821713621628L132.87145948410034,182.6253727068848L133.0777816261564,181.9891043101235L133.28410376821245,130.06555623587687L133.4904259102685,213.17401798092618L133.90307019438063,152.2576382672552L134.10939233643668,139.2032629080619L134.31571447849274,187.31563646843804L134.74899097681046,176.1855022684449L135.16163526092257,128.5459036657043L135.36795740297862,206.35795849364214L135.57427954503467,166.47558763302922L135.78060168709075,146.08302867034217L135.9869238291468,160.407473474234L136.3995681132589,161.89741718987727L136.60589025531496,134.04606246453483L136.812212397371,186.90151281301516L137.01853453942707,133.29547504002258L137.22485668148315,162.83903935523912L137.4311788235392,128.44467721570373L137.63750096559525,150.571113729229L138.05014524970736,149.08744581791743L138.2564673917634,112.13146613067458L138.4627895338195,156.88751071685215L138.66911167587554,180.01391321650348L138.87543381793157,188.8981722655083L139.08175595998765,148.07119884770012L139.2880781020437,140.08460092118884L139.49440024409975,115.22993473100207L139.92767674241747,170.04820427525706L140.13399888447353,147.96162066426803L140.34032102652958,124.77492571527397L140.95928745269774,177.37250372871978L141.78457602092197,164.26597322512814L141.99089816297803,174.56943335925618L142.19722030503408,171.34355851641635L142.6098645891462,183.61239654017288L142.81618673120227,209.78086863832715L143.02250887325832,139.4785489021303L143.22883101531437,182.75452922554626L143.43515315737042,155.8710297241453L143.64147529942647,195.3240065266958L143.84779744148256,150.15189611094806L144.0541195835386,150.99566027300045L144.26044172559466,159.86899118319252L144.4667638676507,141.17868783868502L144.6730860097068,136.3124529792989L144.87940815176282,68.70618149390745L145.31268465008057,166.99128582599883L145.5190067921366,145.20532093799142L145.72532893419265,171.11210132268505L145.93165107624873,130.11374884254343L146.13797321830475,164.3382278112231L146.34429536036083,131.38318944112828L146.55061750241688,127.51265757054215L146.75693964447296,122.2237226772481L146.963261786529,151.65217566095816L147.16958392858504,156.54077337926438L147.58222821269715,158.09629650857002L147.78855035475323,168.84116354245427L147.99487249680928,153.4898431820995L148.20119463886536,133.90487741792535L148.40751678092138,164.0047207192863L148.61383892297744,136.44671163200277L148.82016106503352,133.94330447032056L149.02648320708954,213.52111696234408L149.23280534914562,103.50167033485529L149.43912749120167,143.29001344005653L149.64544963325773,139.84634506603064L149.85177177531378,147.14056421214573L150.2850482736315,120.05620971207226L150.49137041568756,133.41736555931865L150.6976925577436,120.23971889002799L150.9040146997997,140.4750821360549L151.11033684185574,111.4534708702638L151.7293032680239,188.6604862137943L151.93562541007995,161.01707921830527L152.141947552136,141.4506152461522L152.34826969419208,162.7253238819579L152.55459183624814,116.06531605731526L152.76091397830416,176.42378321467112L153.1735582624163,164.12928575972458L153.37988040447235,101.96935290636814L153.5862025465284,140.89594625410368L153.79252468858448,157.38369705019832L153.99884683064053,111.96664350906542L154.20516897269655,131.18113603884805L154.41149111475264,164.1391368018397L154.6178132568087,175.588841428091L155.0304575409208,178.42491975444176L155.23677968297687,140.0420886843911L155.67005618129457,138.0684431787187L155.87637832335062,148.12981211515418L156.0827004654067,120.55278354663821L156.28902260746273,111.83092813510682L156.4953447495188,166.7643138035327L157.11431117568696,142.49982877967304L157.32063331774302,174.58846806963095L157.5269554597991,167.37766324038273L157.73327760185512,215.11430309024877L158.14592188596725,110.94120572100464L158.55856617007936,144.16356466726384L158.9712104541915,124.41853654996565L159.3838547383036,156.7978385984333L159.59017688035965,120.68135639254018L159.79649902241573,111.30368657358L160.00282116447175,99.13788004388913L160.2091433065278,119.76519280629986L160.64241980484553,122.99182742642196L160.84874194690158,166.78289152067288L161.05506408895766,145.86371908255282L161.26138623101372,151.47814537195217L161.46770837306977,166.9309185895588L161.67403051512582,246.69306690163847L162.08667479923793,191.40769494776768L162.29299694129398,111.60026809240168L162.49931908335006,137.20939604701948L162.7056412254061,157.4904724674962L163.11828550951822,138.984899556721L163.32460765157427,155.21975031604916L163.53092979363035,171.85463572896734L163.73725193568637,152.67168910179072L164.1498962197985,139.87719549457427L164.35621836185453,175.81449914217836L164.5625405039106,166.79677251355224L164.76886264596666,180.05413866661624L164.97518478802274,150.60084551134494L165.18150693007877,182.15531596847802L165.38782907213485,162.48010841906L165.5941512141909,138.7250942127536L165.82110557045254,183.46091768117392L166.23374985456468,120.45403709481326L166.4400719966207,178.279145351698L166.85271628073284,135.47797790320521L167.05903842278892,80.47150625752843L167.26536056484494,165.81726359342863L167.471682706901,148.74957263722814L167.67800484895707,172.27297599123762L167.8843269910131,104.22666488502924L168.09064913306918,105.22614173886558L168.29697127512523,82.59864382142854L168.5032934171813,168.10167506356703L168.9159377012934,76.56732135672986L169.12225984334947,112.80616044201038L169.3285819854055,135.2888342493421L169.53490412746157,129.59223293615182L169.74122626951763,188.14178705020487L169.9475484115737,167.613907530409L170.15387055362973,150.17778449407115L170.36019269568578,113.91870868875758L170.56651483774186,173.02348646766174L170.77283697979792,110.16595673641356L170.99979133605956,115.70290855294809L171.20611347811564,199.26308222318107L171.4124356201717,148.98670665005446L171.61875776222774,178.77277503114627L171.8250799042838,150.37126771893784L172.03140204633985,174.01927300583216L172.2377241883959,149.6294361973717L172.44404633045195,153.19996386364738L172.65036847250803,133.00274952472924L172.8566906145641,183.80811477624627L173.0630127566201,144.90085234025346L173.2693348986762,120.91228892798702L173.68197918278833,130.92508057810383L173.88830132484435,151.58063779912507L174.09462346690043,204.20259943761215L174.5072677510125,208.14767073779225L174.7135898930686,165.42738985476976L174.91991203512464,129.14689571203684L175.12623417718072,197.5274663343524L175.33255631923674,94.10226822529923L176.38479924372265,143.00507539717248L176.59112138577868,103.36940088195455L176.79744352783476,95.78706329423576L177.2100878119469,119.02628163402571L177.41640995400292,162.53149597745065L177.62273209605897,157.76653636389722L177.82905423811505,175.88213738664905L178.03537638017107,198.1576278332887L178.4480206642832,169.31664157824963L178.6543428063393,132.35631898568428L178.8606649483953,113.33941823536836L179.06698709045136,160.34125454102235L179.27330923250744,164.15238251673836L179.47963137456347,160.19021261419388L179.68595351661955,111.14790104321767L179.8922756586756,160.94530125475936L180.09859780073168,151.26304153299105L180.3049199427877,172.36175228641488L180.51124208484376,162.68679091814892L180.71756422689984,92.22730766018668L180.9238863689559,113.53410699935236L181.35716286727362,149.27939480552573L181.56348500932967,157.81863911176387L181.76980715138572,133.54804230676075L181.97612929344177,102.13640795470879L182.18245143549782,95.12918350590387L182.3887735775539,131.70810849273252L182.59509571960993,144.4529327091733L182.801417861666,172.0093945071664L183.00774000372206,132.74914364985813L183.62670642989022,89.95528219038471L183.8330285719463,115.30646145047919L184.03935071400232,170.14576891512027L184.2456728560584,155.58217389066021L184.45199499811446,122.09583658860761L184.65831714017048,115.32005830081201L185.07096142428261,138.032029669459L185.2772835663387,193.1003476700879L185.48360570839472,202.60682227770704L185.6899278504508,101.52917072966277L185.89624999250685,151.30835147758398L186.10257213456288,199.04420122978047L186.30889427661896,132.2653703627615L186.53584863288063,158.07550138619098L186.94849291699273,154.6182508455731L187.1548150590488,176.6684401884438L187.36113720110487,139.5352178372783L187.5674593431609,146.45864406745326L187.77378148521694,164.23184003760161L187.98010362727302,131.52382098375173L188.18642576932905,150.43238533639266L188.39274791138513,175.02171711389434L188.59907005344118,105.62294263093386L188.80539219549726,167.07762930258178L189.21803647960934,84.40407976885791L189.42435862166542,97.40017431652238L189.63068076372147,165.25847508309735L190.04332504783358,167.25454796289378L190.24964718988966,173.43606216648277L190.45596933194568,92.80541424117614L190.66229147400173,124.3349184776663L190.86861361605781,158.5564465683109L191.07493575811387,138.45753190935724L191.28125790016992,149.9169839308912L191.48758004222597,200.8382844451383L191.71453439848764,147.87893972419437L191.9208565405437,115.32863251430362L192.12717868259975,138.2923389921464L192.3335008246558,128.67371571135965L192.53982296671188,199.33389077848142L193.15878939288004,186.31342309789883L193.3651115349361,129.0979288402781L193.57143367699214,113.56435238977625L193.7777558190482,193.06853462586116L193.98407796110428,154.1076479550903L194.1904001031603,164.49569796002552L194.60304438727243,147.15700003370927L194.80936652932846,126.48985159422406L195.2220108134406,102.5657269769215L195.42833295549667,116.52630452792677L195.84097723960878,134.38392111321923L196.25362152372085,125.92543023169353L196.89322016409463,156.93598346103667L197.0995423061507,163.10648989459244L197.71850873231887,183.00302830839632L197.92483087437492,158.39819780616185L198.131153016431,175.8034394468139L198.33747515848702,185.2122128645423L198.5437973005431,143.9342098072343L198.95644158465524,132.24409031135744L199.16276372671126,187.3043532864482L199.3690858687673,167.77480194141853L199.9880522949355,143.48687406778265L200.19437443699155,177.86011013347587L200.60701872110366,226.9253772541822L200.8133408631597,135.1290290092762L201.0196630052158,135.4712240806844L201.22598514727184,160.71454133599366L201.4323072893279,148.1204382985634L201.63862943138395,165.9387244476606L201.84495157344,109.13681975546785L202.27822807175772,160.27401850235927L202.48455021381378,143.8573066903698L202.69087235586986,187.05084255201976L203.10351663998196,168.08960293443573L203.309838782038,218.05254823292634L203.51616092409407,180.28922101247434L203.72248306615012,86.8457028393327L203.92880520820617,167.8297437048347L204.13512735026225,130.60778358568896L204.34144949231828,105.13755093688366L204.54777163437436,182.89672550571612L204.7540937764304,180.8385418152217L204.96041591848643,152.39086348981374L205.1667380605425,121.88775784177771L205.57938234465465,153.4550627462985L205.78570448671067,139.65939245634993L206.1983487708228,106.99790572426063L206.6109930549349,181.75459497520887L206.81731519699096,153.98899100008566L207.45691383736474,194.44962546770194L207.66323597942082,184.96058698322082L208.0758802635329,102.60561911559387L208.28220240558898,180.38316893882086L208.48852454764503,171.29330048045676L208.69484668970108,149.34615934737218L208.90116883175713,139.64616529124186L209.31381311586924,155.13883110661664L209.5201352579253,120.11203034945935L209.93277954203742,144.43334643618422L210.13910168409348,145.15377128218447L210.5517459682056,153.40585890417086L210.75806811026163,116.40511763804957L210.96439025231768,100.82900386883053L211.17071239437377,154.6780122098886L211.37703453642982,153.39035452800013L211.58335667848587,91.99879159109939L211.78967882054192,162.53956312903702L211.99600096259798,80.43456487119477L212.20232310465406,158.7641574645577L212.63559960297175,105.08886139330211L212.84192174502783,191.81606186328236L213.04824388708386,151.68731476225713L213.25456602913994,170.335490137709L213.460888171196,147.54869907988694L213.66721031325204,192.69559122199627L213.8735324553081,179.17498361278442L214.07985459736415,160.20407843563038L214.28617673942023,115.5866477306088L214.49249888147625,94.76006468785683L214.90514316558838,144.75366331502457L215.3177874497005,135.89968471454642L215.52410959175654,154.32490757878094L215.73043173381262,116.87244798221691L215.93675387586865,169.95887208191775L216.14307601792473,171.43851165346985L216.34939815998078,114.53862144119236L216.5557203020368,200.53252291712099L216.76204244409288,81.9421606483498L216.96836458614894,141.90504913466336L217.17468672820502,143.85186907381416L217.38100887026104,170.69304635113141L217.6079632265227,143.1631729815413L218.02060751063482,125.35088483545623L218.43325179474695,126.29776362257644L218.639573936803,205.63670205924512L218.84589607885906,160.1492535538567L219.0522182209151,125.7738189916633L219.4648625050272,139.43954958466455L219.67118464708327,182.1146660253735L219.87750678913935,131.98390789544496L220.0838289311954,155.5494054336692L220.29015107325145,169.62161490777532L220.4964732153075,113.9487748924419L220.70279535736358,176.9183866878855L221.11543964147566,112.13861952473292L221.32176178353174,132.32288606787841L221.9407282096999,175.25028832437908L222.14705035175595,109.08112643359722L222.78664899212973,151.14409650050166L222.9929711341858,120.16421139362546L223.19929327624183,173.0261377517786L223.4056154182979,187.42138607540343L223.61193756035397,137.5528059813625L223.81825970241005,181.85060996624054L224.02458184446607,144.86013201665756L224.23090398652212,141.40910590197336L224.4372261285782,143.77434186785712L225.05619255474636,136.50331429931788L225.26251469680238,87.4894490936947L225.46883683885846,138.6498587043332L225.67515898091452,131.43102316806568L225.8814811229706,147.73845316555867L226.2941254070827,163.0476126809468L226.50044754913876,134.77123691554772L226.70676969119478,136.16946906192456L226.91309183325086,145.90599102782608L227.1194139753069,139.81606831882448L227.53205825941902,170.90636945403503L227.7383804014751,161.6281026119234L227.96533475773677,96.24361565624115L228.1716568997928,144.1090700301755L228.37797904184885,189.333738632097L228.58430118390493,149.78226001709913L228.79062332596098,169.7702088418856L228.99694546801703,148.79433736169705L229.20326761007308,155.39635719660657L229.40958975212916,129.12027450575138L229.82223403624124,168.86494563089457L230.23487832035337,104.97897488611369L230.64752260446548,128.6411863722509L230.85384474652156,164.40616291689292L231.0601668885776,130.50891971129388L231.26648903063364,116.7169239785999L231.47281117268972,187.91884956974633L232.50442188297,184.75268919379263L232.71074402502603,169.24255674496382L233.14402052334378,133.1222618196514L233.3503426653998,188.8135024807142L233.5566648074559,203.64313625162683L233.76298694951194,131.13378529264705L233.96930909156802,155.90727665543778L234.3819533756801,141.28543268963963L235.20724194390434,137.05485330574606L235.41356408596036,157.59417401191317L235.61988622801644,195.75289177316162L235.8262083700725,102.80308003089586L236.03253051212857,130.6816091824469L236.85781908035278,158.96164989516555L237.06414122240884,147.68135323961636L237.2704633644649,197.96897537791233L237.47678550652097,147.9547289654922L237.88942979063307,154.00672321059614L238.09575193268913,156.63308812035308L238.32270628895077,179.95355015975713L238.7353505730629,148.60854124215368L238.94167271511895,189.5476659380133L239.147994857175,137.80109325966478L239.56063914128714,132.58732998451853L239.97328342539922,122.97384438314496L240.1796055674553,131.2444571161288L240.38592770951135,187.14960947046802L240.79857199362345,148.44819979241979L241.00489413567954,147.166936021516L241.2112162777356,86.2271867474172L241.4175384197916,177.7472014412228L241.6238605618477,193.03148263836667L241.83018270390374,145.0638952617792L242.0365048459598,145.64141091652704L242.24282698801585,90.0572023113147L242.4491491300719,130.8345922057274L242.65547127212798,100.93645267356345L242.861793414184,146.22682899066174L243.0681155562401,135.83393211397095L243.27443769829614,107.0751061576856L243.70771419661386,190.6527765471836L243.91403633866992,183.71945595099936L244.120358480726,147.3433899245314L244.53300276483807,146.89616190401333L244.73932490689415,191.15866060230675L244.94564704895018,172.2774205894754L245.15196919100626,160.1050464586953L245.56461347511834,162.31183771077826L245.77093561717442,166.02596201891498L245.97725775923047,171.88848257677887L246.18357990128655,143.71855932516206L246.8025463274547,144.85529313416748L247.00886846951076,168.05569212751885L247.2151906115668,67.33970345860655L247.42151275362286,141.05135783307395L248.2468013218471,181.75963301386452L248.6800778201648,156.8877632070472L248.88639996222088,118.67513737914904L249.09272210427693,158.9356411325036L249.29904424633298,183.8919559486494L249.50536638838904,141.10786148555235L249.71168853044512,146.2009768122359L249.91801067250117,191.92628220563606L250.1243328145572,122.3941848482322L250.33065495661327,184.94218012235999L250.53697709866933,116.05187175533715L250.74329924072538,121.53944374923012L250.94962138278143,145.68688673881934L251.1559435248375,178.7491767029367L251.36226566689356,169.20469583249294L251.5685878089496,123.91324905988164L251.98123209306172,132.15148330592626L252.18755423511777,202.12258402482084L252.39387637717383,155.7334810065767L252.6001985192299,80.38960554103762L252.80652066128596,108.19353687897834L253.01284280334198,130.1579772776282L253.21916494539806,181.51493985433382L253.85876358577184,164.23306886547223L254.0650857278279,135.4207286071473L254.47773001194,167.2953200709075L254.68405215399605,89.84876262746457L254.89037429605213,117.26258230333467L255.09669643810815,171.00617772637378L255.30301858016423,103.57982537825966L255.5093407222203,184.91443105807804L255.71566286427634,154.37354769130016L255.9219850063324,71.69617988967723L256.12830714838844,163.28062360992092L256.3346292904445,113.3688176071208L256.74727357455663,92.23354538012998L256.95359571661265,178.22431396628028L257.3662400007248,165.43110381756495L257.57256214278084,129.55634241750082L257.98520642689294,252.38713582303384L258.39785071100505,181.0591504497074L258.60417285306113,169.22328445627267L258.8104949951172,101.34596370342899L259.0374493513788,125.38356654340976L259.2437714934349,87.21258043319689L259.450093635491,80.2429230388651L259.656415777547,173.48983386884424L260.0690600616591,171.93119267325324L260.2753822037152,183.18947605778035L260.4817043457713,183.12445033925897L260.8943486298834,151.68845156373737L261.1006707719394,163.91805587296557L261.3069929139955,151.6120347948932L261.5133150560515,167.95294779605405L261.7196371981076,153.23510889502697L261.9259593401637,127.23253044799941L262.1322814822197,166.51196841156315L262.3386036242758,203.9382612979895L262.5449257663318,165.83027430833525L262.7512479083879,179.2454252137921L263.5765364766121,157.6207914882057L263.7828586186682,150.59409498067623L263.9891807607242,158.42332975192002L264.42245725904195,103.69063112115113L264.628779401098,204.3211882421863L264.835101543154,129.6175252074167L265.0414236852101,186.71049526944105L265.24774582726616,171.0018645107687L265.45406796932224,148.88633074097746L265.66039011137826,124.51115106127762L266.07303439549037,157.69667352083994L266.2793565375464,148.63998816891146L266.4856786796025,94.42158580234664L266.89832296371463,144.92226539767546L267.10464510577066,118.30690924113524L267.3109672478267,189.33401655641546L267.51728938988276,121.4248839376617L267.92993367399487,162.98710491404896L268.13625581605095,184.18176610242986L268.34257795810703,163.59031198636166L268.54890010016305,218.94895346865934L268.7552222422191,182.1640585963399L268.96154438427516,142.3445373579499L269.60114302464893,191.9261566806606L269.807465166705,125.84874251748784L270.42643159287314,150.65298953245335L270.6327537349292,142.37883493017438L270.83907587698525,202.75318678542024L271.2517201610974,168.93212281061452L271.45804230315343,184.05011630722257L271.6643644452095,147.54167014506442L272.0770087293216,185.36802917238006L272.28333087137764,141.07565300582834L272.4896530134337,172.4055054503593L272.9022972975459,116.72249304273596L273.1086194396019,159.02029370089747L273.31494158165793,205.32254398156877L273.521263723714,177.29697222702723L273.72758586577004,132.23139296348538L273.9339080078261,133.26311148772166L274.1402301498822,167.2348657824299L274.5735066481999,110.5684192074971L275.1924730743681,155.45500642369677L275.3987952164241,145.26561421646278L276.0177616425923,137.13067665388292L276.22408378464837,113.65350077190092L276.4304059267044,133.69626135691152L276.6367280687605,186.3139989335907L276.8430502108165,162.18005846929793L277.2556944949286,214.21837661452122L277.4620166369847,169.5752782416974L277.66833877904077,163.48491643013537L277.8746609210968,178.08201815982505L278.08098306315287,192.56137057733903L278.2873052052089,172.7788909011765L278.493627347265,154.63575365031033L278.699949489321,125.31725492743415L278.9062716313771,132.97848764719402L279.11259377343316,153.35143338036508L279.3189159154892,136.3403226251155L279.52523805754527,181.8532926059865" fill="none"></path></g></g></g></g></g></g><g transform="translate(41, 176)" clip-path="url(#clip_1)"><clipPath id="clip_1"><rect width="288" height="23"></rect></clipPath><g><g><line x1="0" y1="0" x2="0" y2="5" style="visibility: inherit;" fill="rgb(0, 0, 0)" stroke="rgb(204, 204, 204)" stroke-width="1px"></line><line x1="20.632214205605642" y1="0" x2="20.632214205605642" y2="5" style="visibility: inherit;" fill="rgb(0, 0, 0)" stroke="rgb(204, 204, 204)" stroke-width="1px"></line><line x1="41.264428411211284" y1="0" x2="41.264428411211284" y2="5" style="visibility: inherit;" fill="rgb(0, 0, 0)" stroke="rgb(204, 204, 204)" stroke-width="1px"></line><line x1="61.896642616816926" y1="0" x2="61.896642616816926" y2="5" style="visibility: inherit;" fill="rgb(0, 0, 0)" stroke="rgb(204, 204, 204)" stroke-width="1px"></line><line x1="82.52885682242257" y1="0" x2="82.52885682242257" y2="5" style="visibility: inherit;" fill="rgb(0, 0, 0)" stroke="rgb(204, 204, 204)" stroke-width="1px"></line><line x1="103.16107102802822" y1="0" x2="103.16107102802822" y2="5" style="visibility: inherit;" fill="rgb(0, 0, 0)" stroke="rgb(204, 204, 204)" stroke-width="1px"></line><line x1="123.79328523363385" y1="0" x2="123.79328523363385" y2="5" style="visibility: inherit;" fill="rgb(0, 0, 0)" stroke="rgb(204, 204, 204)" stroke-width="1px"></line><line x1="144.4254994392395" y1="0" x2="144.4254994392395" y2="5" style="visibility: inherit;" fill="rgb(0, 0, 0)" stroke="rgb(204, 204, 204)" stroke-width="1px"></line><line x1="165.05771364484514" y1="0" x2="165.05771364484514" y2="5" style="visibility: inherit;" fill="rgb(0, 0, 0)" stroke="rgb(204, 204, 204)" stroke-width="1px"></line><line x1="185.6899278504508" y1="0" x2="185.6899278504508" y2="5" style="visibility: inherit;" fill="rgb(0, 0, 0)" stroke="rgb(204, 204, 204)" stroke-width="1px"></line><line x1="206.32214205605644" y1="0" x2="206.32214205605644" y2="5" style="visibility: inherit;" fill="rgb(0, 0, 0)" stroke="rgb(204, 204, 204)" stroke-width="1px"></line><line x1="226.95435626166207" y1="0" x2="226.95435626166207" y2="5" style="visibility: inherit;" fill="rgb(0, 0, 0)" stroke="rgb(204, 204, 204)" stroke-width="1px"></line><line x1="247.5865704672677" y1="0" x2="247.5865704672677" y2="5" style="visibility: inherit;" fill="rgb(0, 0, 0)" stroke="rgb(204, 204, 204)" stroke-width="1px"></line><line x1="268.21878467287337" y1="0" x2="268.21878467287337" y2="5" style="visibility: inherit;" fill="rgb(0, 0, 0)" stroke="rgb(204, 204, 204)" stroke-width="1px"></line><line x1="288.850998878479" y1="0" x2="288.850998878479" y2="5" style="visibility: inherit;" fill="rgb(0, 0, 0)" stroke="rgb(204, 204, 204)" stroke-width="1px"></line></g><g transform="translate(0, 8)"><text style="text-anchor: middle; visibility: hidden; font-family: Roboto, sans-serif; font-size: 12px; font-weight: 200;" x="0" y="0" dx="0em" dy="0.95em" fill="rgb(255, 255, 255)" stroke="none" stroke-width="1px">-1k</text><text style="text-anchor: middle; visibility: inherit; font-family: Roboto, sans-serif; font-size: 12px; font-weight: 200;" x="20.632214205605642" y="0" dx="0em" dy="0.95em" fill="rgb(255, 255, 255)" stroke="none" stroke-width="1px">0</text><text style="text-anchor: middle; visibility: hidden; font-family: Roboto, sans-serif; font-size: 12px; font-weight: 200;" x="41.264428411211284" y="0" dx="0em" dy="0.95em" fill="rgb(255, 255, 255)" stroke="none" stroke-width="1px">1k</text><text style="text-anchor: middle; visibility: inherit; font-family: Roboto, sans-serif; font-size: 12px; font-weight: 200;" x="61.896642616816926" y="0" dx="0em" dy="0.95em" fill="rgb(255, 255, 255)" stroke="none" stroke-width="1px">2k</text><text style="text-anchor: middle; visibility: hidden; font-family: Roboto, sans-serif; font-size: 12px; font-weight: 200;" x="82.52885682242257" y="0" dx="0em" dy="0.95em" fill="rgb(255, 255, 255)" stroke="none" stroke-width="1px">3k</text><text style="text-anchor: middle; visibility: inherit; font-family: Roboto, sans-serif; font-size: 12px; font-weight: 200;" x="103.16107102802822" y="0" dx="0em" dy="0.95em" fill="rgb(255, 255, 255)" stroke="none" stroke-width="1px">4k</text><text style="text-anchor: middle; visibility: hidden; font-family: Roboto, sans-serif; font-size: 12px; font-weight: 200;" x="123.79328523363385" y="0" dx="0em" dy="0.95em" fill="rgb(255, 255, 255)" stroke="none" stroke-width="1px">5k</text><text style="text-anchor: middle; visibility: inherit; font-family: Roboto, sans-serif; font-size: 12px; font-weight: 200;" x="144.4254994392395" y="0" dx="0em" dy="0.95em" fill="rgb(255, 255, 255)" stroke="none" stroke-width="1px">6k</text><text style="text-anchor: middle; visibility: hidden; font-family: Roboto, sans-serif; font-size: 12px; font-weight: 200;" x="165.05771364484514" y="0" dx="0em" dy="0.95em" fill="rgb(255, 255, 255)" stroke="none" stroke-width="1px">7k</text><text style="text-anchor: middle; visibility: inherit; font-family: Roboto, sans-serif; font-size: 12px; font-weight: 200;" x="185.6899278504508" y="0" dx="0em" dy="0.95em" fill="rgb(255, 255, 255)" stroke="none" stroke-width="1px">8k</text><text style="text-anchor: middle; visibility: hidden; font-family: Roboto, sans-serif; font-size: 12px; font-weight: 200;" x="206.32214205605644" y="0" dx="0em" dy="0.95em" fill="rgb(255, 255, 255)" stroke="none" stroke-width="1px">9k</text><text style="text-anchor: middle; visibility: inherit; font-family: Roboto, sans-serif; font-size: 12px; font-weight: 200;" x="226.95435626166207" y="0" dx="0em" dy="0.95em" fill="rgb(255, 255, 255)" stroke="none" stroke-width="1px">10k</text><text style="text-anchor: middle; visibility: hidden; font-family: Roboto, sans-serif; font-size: 12px; font-weight: 200;" x="247.5865704672677" y="0" dx="0em" dy="0.95em" fill="rgb(255, 255, 255)" stroke="none" stroke-width="1px">11k</text><text style="text-anchor: middle; visibility: inherit; font-family: Roboto, sans-serif; font-size: 12px; font-weight: 200;" x="268.21878467287337" y="0" dx="0em" dy="0.95em" fill="rgb(255, 255, 255)" stroke="none" stroke-width="1px">12k</text><text style="text-anchor: middle; visibility: hidden; font-family: Roboto, sans-serif; font-size: 12px; font-weight: 200;" x="288.850998878479" y="0" dx="0em" dy="0.95em" fill="rgb(255, 255, 255)" stroke="none" stroke-width="1px">13k</text></g><line x1="0" y1="0" x2="288.850998878479" y2="0" fill="rgb(0, 0, 0)" stroke="rgb(204, 204, 204)" stroke-width="1px"></line></g></g></g></g></svg>