<svg viewBox="0 0 330 200" xmlns="http://www.w3.org/2000/svg"><g><g><g><g><g><line x1="41.149001121520996" y1="176.89999961853027" x2="36.149001121520996" y2="176.89999961853027" style="visibility: inherit;" fill="rgb(0, 0, 0)" stroke="rgb(204, 204, 204)" stroke-width="1px"></line><line x1="41.149001121520996" y1="154.78749966621396" x2="36.149001121520996" y2="154.78749966621396" style="visibility: inherit;" fill="rgb(0, 0, 0)" stroke="rgb(204, 204, 204)" stroke-width="1px"></line><line x1="41.149001121520996" y1="132.6749997138977" x2="36.149001121520996" y2="132.6749997138977" style="visibility: inherit;" fill="rgb(0, 0, 0)" stroke="rgb(204, 204, 204)" stroke-width="1px"></line><line x1="41.149001121520996" y1="110.56249976158142" x2="36.149001121520996" y2="110.56249976158142" style="visibility: inherit;" fill="rgb(0, 0, 0)" stroke="rgb(204, 204, 204)" stroke-width="1px"></line><line x1="41.149001121520996" y1="88.44999980926512" x2="36.149001121520996" y2="88.44999980926512" style="visibility: inherit;" fill="rgb(0, 0, 0)" stroke="rgb(204, 204, 204)" stroke-width="1px"></line><line x1="41.149001121520996" y1="66.33749985694885" x2="36.149001121520996" y2="66.33749985694885" style="visibility: inherit;" fill="rgb(0, 0, 0)" stroke="rgb(204, 204, 204)" stroke-width="1px"></line><line x1="41.149001121520996" y1="44.22499990463255" x2="36.149001121520996" y2="44.22499990463255" style="visibility: inherit;" fill="rgb(0, 0, 0)" stroke="rgb(204, 204, 204)" stroke-width="1px"></line><line x1="41.149001121520996" y1="22.112499952316305" x2="36.149001121520996" y2="22.112499952316305" style="visibility: inherit;" fill="rgb(0, 0, 0)" stroke="rgb(204, 204, 204)" stroke-width="1px"></line><line x1="41.149001121520996" y1="0" x2="36.149001121520996" y2="0" style="visibility: inherit;" fill="rgb(0, 0, 0)" stroke="rgb(204, 204, 204)" stroke-width="1px"></line></g><g transform="translate(31.149001121520996, 0)"><text style="text-anchor: end; visibility: hidden; font-family: Roboto, sans-serif; font-size: 12px; font-weight: 200;" x="0" y="176.89999961853027" dx="0em" dy="0.3em" fill="rgb(255, 255, 255)" stroke="none" stroke-width="1px">0.7</text><text style="text-anchor: end; visibility: inherit; font-family: Roboto, sans-serif; font-size: 12px; font-weight: 200;" x="0" y="154.78749966621396" dx="0em" dy="0.3em" fill="rgb(255, 255, 255)" stroke="none" stroke-width="1px">0.8</text><text style="text-anchor: end; visibility: hidden; font-family: Roboto, sans-serif; font-size: 12px; font-weight: 200;" x="0" y="132.6749997138977" dx="0em" dy="0.3em" fill="rgb(255, 255, 255)" stroke="none" stroke-width="1px">0.9</text><text style="text-anchor: end; visibility: inherit; font-family: Roboto, sans-serif; font-size: 12px; font-weight: 200;" x="0" y="110.56249976158142" dx="0em" dy="0.3em" fill="rgb(255, 255, 255)" stroke="none" stroke-width="1px">1</text><text style="text-anchor: end; visibility: hidden; font-family: Roboto, sans-serif; font-size: 12px; font-weight: 200;" x="0" y="88.44999980926512" dx="0em" dy="0.3em" fill="rgb(255, 255, 255)" stroke="none" stroke-width="1px">1.1</text><text style="text-anchor: end; visibility: inherit; font-family: Roboto, sans-serif; font-size: 12px; font-weight: 200;" x="0" y="66.33749985694885" dx="0em" dy="0.3em" fill="rgb(255, 255, 255)" stroke="none" stroke-width="1px">1.2</text><text style="text-anchor: end; visibility: hidden; font-family: Roboto, sans-serif; font-size: 12px; font-weight: 200;" x="0" y="44.22499990463255" dx="0em" dy="0.3em" fill="rgb(255, 255, 255)" stroke="none" stroke-width="1px">1.3</text><text style="text-anchor: end; visibility: inherit; font-family: Roboto, sans-serif; font-size: 12px; font-weight: 200;" x="0" y="22.112499952316305" dx="0em" dy="0.3em" fill="rgb(255, 255, 255)" stroke="none" stroke-width="1px">1.4</text><text style="text-anchor: end; visibility: hidden; font-family: Roboto, sans-serif; font-size: 12px; font-weight: 200;" x="0" y="0" dx="0em" dy="0.3em" fill="rgb(255, 255, 255)" stroke="none" stroke-width="1px">1.5</text></g><line x1="41.149001121520996" y1="0" x2="41.149001121520996" y2="176.89999961853027" fill="rgb(0, 0, 0)" stroke="rgb(204, 204, 204)" stroke-width="1px"></line></g></g><g transform="translate(41, 0)" clip-path="url(#clip_0)"><clipPath id="clip_0"><rect width="288" height="176"></rect></clipPath><g><g><g><line x1="0" y1="0" x2="0" y2="176.89999961853027" fill="rgb(0, 0, 0)" stroke="rgb(189, 189, 189)" stroke-width="1px" opacity="0.25"></line><line x1="20.632214205605642" y1="0" x2="20.632214205605642" y2="176.89999961853027" fill="rgb(0, 0, 0)" stroke="rgb(189, 189, 189)" stroke-width="1px" opacity="0.25"></line><line x1="41.264428411211284" y1="0" x2="41.264428411211284" y2="176.89999961853027" fill="rgb(0, 0, 0)" stroke="rgb(189, 189, 189)" stroke-width="1px" opacity="0.25"></line><line x1="61.896642616816926" y1="0" x2="61.896642616816926" y2="176.89999961853027" fill="rgb(0, 0, 0)" stroke="rgb(189, 189, 189)" stroke-width="1px" opacity="0.25"></line><line x1="82.52885682242257" y1="0" x2="82.52885682242257" y2="176.89999961853027" fill="rgb(0, 0, 0)" stroke="rgb(189, 189, 189)" stroke-width="1px" opacity="0.25"></line><line x1="103.16107102802822" y1="0" x2="103.16107102802822" y2="176.89999961853027" fill="rgb(0, 0, 0)" stroke="rgb(189, 189, 189)" stroke-width="1px" opacity="0.25"></line><line x1="123.79328523363385" y1="0" x2="123.79328523363385" y2="176.89999961853027" fill="rgb(0, 0, 0)" stroke="rgb(189, 189, 189)" stroke-width="1px" opacity="0.25"></line><line x1="144.4254994392395" y1="0" x2="144.4254994392395" y2="176.89999961853027" fill="rgb(0, 0, 0)" stroke="rgb(189, 189, 189)" stroke-width="1px" opacity="0.25"></line><line x1="165.05771364484514" y1="0" x2="165.05771364484514" y2="176.89999961853027" fill="rgb(0, 0, 0)" stroke="rgb(189, 189, 189)" stroke-width="1px" opacity="0.25"></line><line x1="185.6899278504508" y1="0" x2="185.6899278504508" y2="176.89999961853027" fill="rgb(0, 0, 0)" stroke="rgb(189, 189, 189)" stroke-width="1px" opacity="0.25"></line><line x1="206.32214205605644" y1="0" x2="206.32214205605644" y2="176.89999961853027" fill="rgb(0, 0, 0)" stroke="rgb(189, 189, 189)" stroke-width="1px" opacity="0.25"></line><line x1="226.95435626166207" y1="0" x2="226.95435626166207" y2="176.89999961853027" fill="rgb(0, 0, 0)" stroke="rgb(189, 189, 189)" stroke-width="1px" opacity="0.25"></line><line x1="247.5865704672677" y1="0" x2="247.5865704672677" y2="176.89999961853027" fill="rgb(0, 0, 0)" stroke="rgb(189, 189, 189)" stroke-width="1px" opacity="0.25"></line><line x1="268.21878467287337" y1="0" x2="268.21878467287337" y2="176.89999961853027" fill="rgb(0, 0, 0)" stroke="rgb(189, 189, 189)" stroke-width="1px" opacity="0.25"></line><line x1="288.850998878479" y1="0" x2="288.850998878479" y2="176.89999961853027" fill="rgb(0, 0, 0)" stroke="rgb(189, 189, 189)" stroke-width="1px" opacity="0.25"></line></g><g><line x1="0" y1="176.89999961853027" x2="288.850998878479" y2="176.89999961853027" fill="rgb(0, 0, 0)" stroke="rgb(189, 189, 189)" stroke-width="1px" opacity="0.25"></line><line x1="0" y1="154.78749966621396" x2="288.850998878479" y2="154.78749966621396" fill="rgb(0, 0, 0)" stroke="rgb(189, 189, 189)" stroke-width="1px" opacity="0.25"></line><line x1="0" y1="132.6749997138977" x2="288.850998878479" y2="132.6749997138977" fill="rgb(0, 0, 0)" stroke="rgb(189, 189, 189)" stroke-width="1px" opacity="0.25"></line><line x1="0" y1="110.56249976158142" x2="288.850998878479" y2="110.56249976158142" fill="rgb(0, 0, 0)" stroke="rgb(189, 189, 189)" stroke-width="1px" opacity="0.25"></line><line x1="0" y1="88.44999980926512" x2="288.850998878479" y2="88.44999980926512" fill="rgb(0, 0, 0)" stroke="rgb(189, 189, 189)" stroke-width="1px" opacity="0.25"></line><line x1="0" y1="66.33749985694885" x2="288.850998878479" y2="66.33749985694885" fill="rgb(0, 0, 0)" stroke="rgb(189, 189, 189)" stroke-width="1px" opacity="0.25"></line><line x1="0" y1="44.22499990463255" x2="288.850998878479" y2="44.22499990463255" fill="rgb(0, 0, 0)" stroke="rgb(189, 189, 189)" stroke-width="1px" opacity="0.25"></line><line x1="0" y1="22.112499952316305" x2="288.850998878479" y2="22.112499952316305" fill="rgb(0, 0, 0)" stroke="rgb(189, 189, 189)" stroke-width="1px" opacity="0.25"></line><line x1="0" y1="0" x2="288.850998878479" y2="0" fill="rgb(0, 0, 0)" stroke="rgb(189, 189, 189)" stroke-width="1px" opacity="0.25"></line></g></g></g><g><g><line x1="0" y1="331.68749928474426" x2="288.850998878479" y2="331.68749928474426" fill="rgb(0, 0, 0)" stroke="rgb(153, 153, 153)" stroke-width="1.5px"></line></g></g><g><g><line x1="20.632214205605642" y1="0" x2="20.632214205605642" y2="176.89999961853027" fill="rgb(0, 0, 0)" stroke="rgb(153, 153, 153)" stroke-width="1.5px"></line></g></g><g><g><g><g><g><path style="fill: none;" stroke="rgb(51, 187, 238)" stroke-width="2px" d="M20.817904133456096,14.709440467824493L21.230548417568205,36.48925735213436L21.436870559624264,31.93230224886721L21.64319270168032,18.563709597639466L22.262159127848488,47.12971171096556L22.674803411960603,62.29539598716617L22.881125554016656,70.30792688435902L23.087447696072715,81.40603701015192L23.706414122240883,88.69247353950928L23.91273626429694,91.90758934865208L24.119058406353,99.3360460418253L24.325380548409054,104.91253911553557L24.531702690465107,109.4223334095771L24.738024832521166,111.62351921116816L24.944346974577222,112.65457973647665L25.356991258689337,112.35954853671645L25.56331340074539,114.77571045305365L25.99658989906311,114.61086907057835L26.20291204111917,114.71930270802596L26.409234183175222,117.94374299423396L26.615556325231278,114.75894669483776L26.821878467287338,115.28408926081025L27.028200609343394,117.4241236657472L27.23452275139945,116.96176256326788L27.440844893455505,118.47288950427081L27.64716703551156,121.94637491987642L27.85348917756762,123.90280450910693L28.26613346167973,125.72947146976544L28.47245560373579,126.88586472645774L28.678777745791844,128.07604285291197L28.8850998878479,129.46780612310803L29.091422029903956,129.21243597712026L29.50406631401607,129.1332941712533L29.710388456072124,130.00379918909067L30.329354882240295,131.16969972757485L30.535677024296355,132.75653296175824L30.741999166352407,133.3562002653041L30.948321308408463,134.56350064647935L31.175275664670128,135.446241385826L31.38159780672618,135.5532124134613L31.58791994878224,135.495260360836L31.794242090838296,136.34999601375083L32.00056423289435,135.43735772487972L32.20688637495041,135.74365993112298L32.61953065906253,136.99168806596415L32.82585280111858,137.2552749168156L33.23849708523069,137.34582280151122L33.44481922728675,138.03537447183817L33.6511413693428,138.4028048905892L33.85746351139886,139.18127946311157L34.270107795510974,139.87079213898878L34.476429937567026,140.11989516961432L34.682752079623086,140.13037402866345L34.889074221679145,141.0073958224622L35.30171850579126,141.30723043222886L35.50804064784731,142.16622781495943L35.71436278990337,143.6395251141533L35.92068493195943,143.38726032505727L36.353961430277145,143.59283647956255L36.76660571438926,144.2595445973296L36.97292785644532,143.83675340841268L37.17924999850137,143.49499610465827L37.38557214055742,143.75693179032035L37.59189428261348,142.38567738367556L37.79821642466954,143.12359158806706L38.00453856672559,143.47288087637014L38.21086070878165,143.034366749371L38.41718285083771,143.676872482145L38.62350499289376,143.8053504313199L38.82982713494982,144.06561884413003L39.036149277005876,144.624241063828L39.242471419061935,144.60576812514185L39.44879356111799,144.739421066983L39.86143784523011,144.145848584901L40.27408212934222,144.32653358995438L40.48040427139827,144.878413325976L40.68672641345432,145.4651528769717L41.305692839622495,145.61119789776274L41.53264719588416,145.5748397216415L41.73896933794021,146.25411840080477L42.15161362205233,145.90912491324832L42.35793576410838,146.460355947634L42.7705800482205,146.2366976840487L42.97690219027656,146.52747456468546L43.18322433233261,146.82097626249885L43.389546474388666,146.95745356450456L43.595868616444726,147.3441084951119L43.80219075850078,147.47266036166306L44.00851290055684,147.6526296719233L44.42115718466895,147.6215407350951L44.62747932672501,147.42407402319694L44.83380146878106,147.48727956358977L45.040123610837114,147.54943938225796L45.24644575289317,147.3514777813293L45.45276789494923,147.49456224933942L45.65909003700529,147.13666268892473L45.865412179061344,147.29536447023412L46.071734321117404,147.65947125003038L46.27805646317346,148.18581114972622L46.71133296149118,148.06382612946248L46.91765510354723,147.70082777536285L47.12397724560329,148.03505349236983L47.33029938765935,147.71592324303504L47.5366215297154,147.37481471338197L47.74294367177146,147.46314054102467L47.949265813827516,147.4761215459024L48.15558795588357,147.5183618699186L48.56823223999569,147.69359994173402L48.98087652410779,147.5128676933533L49.18719866616385,147.47611230785998L49.39352080821991,147.79900046155421L49.59984295027596,148.0011604938082L49.80616509233202,148.20531989890634L50.01248723438808,148.06548130910332L50.425131518500194,147.9068693986567L50.631453660556254,148.1097865532408L50.8377758026123,148.31754642393756L51.04409794466836,148.27221959286L51.25042008672442,148.36639074836413L51.45674222878047,148.0944038211802L51.89001872709819,147.68163320836817L52.302663011210306,147.65253302525701L52.50898515326636,147.75858791885258L52.71530729532242,147.97239736212595L53.12795157943454,148.26460085897264L53.33427372149058,148.32164815936957L53.54059586354664,148.57692755384835L53.7469180056027,148.39522788846062L53.953240147658754,148.30715696499985L54.15956228971481,148.50296150892405L54.36588443177087,148.68163059117003L54.572206573826925,148.7826576891691L54.778528715882985,148.8627346173364L54.984850857939044,148.9738136807498L55.19117299999509,148.86738318724542L55.60381728410721,148.8736314420521L55.81013942616327,148.6834084011377L56.01646156821932,149.07524514153306L56.22278371027538,148.66671297329648L56.42910585233144,148.60422632732525L56.841750136443544,148.8715677174343L57.06870449270521,148.64425513016906L57.27502663476127,148.6216441526002L57.48134877681733,148.8576788446974L57.68767091887337,148.86676800161487L58.10031520298549,149.10418283945182L58.306637345041544,149.21104176818815L58.5129594870976,149.21252497072467L58.71928162915366,149.55644526563563L58.925603771209715,149.18508851089243L59.131925913265775,149.23000395963012L59.338248055321834,149.1948080458068L59.95721448149,149.50981378236466L60.16353662354606,149.46618745987698L60.36985876560211,149.10734764043005L60.57618090765817,149.3174671545765L60.78250304971423,149.59510759683212L61.195147333826334,149.96317285519794L61.607791617938446,149.8717110738561L61.814113759994505,150.10282097704462L62.020435902050565,150.3848512423702L62.24739025831222,150.7147934064828L62.660034542424334,150.6588171826171L62.866356684480394,150.55481239416804L63.07267882653645,150.82661464189948L63.27900096859251,150.76237916351724L63.485323110648565,151.26743885246464L63.69164525270462,151.42571780864557L63.89796739476068,151.6619116671799L64.10428953681674,151.8379173562405L64.31061167887279,152.0067680106723L64.51693382092886,151.70336197684912L64.92957810504096,151.56041010104406L65.13590024709701,151.69036120373713L65.34222238915306,151.7906984983949L65.54854453120913,151.86012550295908L65.96118881532125,151.914820225282L66.16751095737729,151.73337404437905L66.37383309943336,151.98744548086466L66.58015524148941,152.33079810516992L66.78647738354546,152.00255617815392L66.99279952560153,151.98565707694374L67.19912166765758,152.00103002723785L67.42607602391924,151.94070578935552L67.6323981659753,151.95803563908396L68.25136459214347,152.23395949283574L68.45768673419953,151.9102605814444L68.66400887625558,151.96540731417312L68.87033101831163,151.8633673651008L69.07665316036768,151.43182914304785L69.28297530242375,151.39190449621248L69.4892974444798,151.62124234426906L69.69561958653587,151.50437697406767L69.90194172859192,151.8395416795411L70.10826387064797,151.94666705197943L70.31458601270404,151.65747490374707L70.72723029681615,151.78953422719604L70.9335524388722,151.87725059172155L71.34619672298432,152.00677299343081L71.55251886504037,152.13844030265076L71.75884100709642,152.28913557038578L71.96516314915249,152.11542915074276L72.17148529120854,151.9231231065575L72.37780743326459,151.7864922771958L73.01740607363837,151.92685679891852L73.22372821569442,151.88218956850488L73.43005035775049,151.98601131089552L73.63637249980654,151.91213402425643L74.04901678391865,152.03269351369983L74.25533892597471,152.16053266606775L74.46166106803076,152.13832908518938L74.66798321008683,151.8241523266126L75.08062749419894,151.90017487428003L75.28694963625499,151.8764764932771L75.6995939203671,151.6354296394469L76.11223820447923,151.7690810449954L76.31856034653528,151.48109515524558L76.73120463064738,151.71686506038614L76.93752677270344,151.46663516610423L77.35017105681555,151.57254359174513L77.55649319887162,151.71495094715738L77.78344755513328,151.87576705615572L77.98976969718933,151.8970502017415L78.40241398130144,152.0938470542341L78.6087361233575,152.08703788724534L78.81505826541355,152.37732381386627L79.02138040746962,152.52281896358937L79.22770254952567,152.6895351747185L79.43402469158173,152.42930723609982L79.64034683363778,152.69699064949376L79.84666897569383,152.73090488518918L80.0529911177499,153.04740113588232L80.25931325980595,152.93013545103292L80.46563540186202,153.0079354768793L80.67195754391807,152.75683752396495L80.87827968597414,152.92017186524873L81.08460182803017,153.00890616393409L81.90989039625441,153.14784324467578L82.11621253831046,153.07371255323244L82.32253468036652,152.89552011758724L82.52885682242257,153.02097196646244L82.73517896447862,153.06204965663864L82.96213332074029,153.08266994291995L83.16845546279635,153.26582582461478L83.58109974690846,153.5588526787414L83.78742188896452,153.62322435337046L83.99374403102057,153.71575913885914L84.20006617307662,153.69801268714252L84.40638831513269,153.98190773312996L84.61271045718874,153.81617385170767L84.8190325992448,153.91071982549983L85.23167688335693,153.96133720156246L85.43799902541296,153.98783825439693L85.64432116746902,153.67126181365043L85.85064330952508,153.56765566630875L86.05696545158114,153.38322893348948L86.2632875936372,153.26239646451026L86.67593187774929,153.25628343771726L86.88225401980536,153.24097224346323L87.08857616186141,153.21812291172216L87.29489830391748,153.15706771206555L87.50122044597353,153.16031069575092L87.91386473008565,153.24580310795676L88.1408190863473,153.23523825689009L88.55346337045941,153.2168138333786L88.96610765457153,153.20959088439145L89.1724297966276,152.88437364856003L89.37875193868365,153.05683054527714L89.5850740807397,153.01470601988416L89.79139622279575,153.15618686776446L89.9977183648518,153.290487768263L90.41036264896393,153.07527952258576L90.61668479101999,153.1838382788795L90.82300693307604,153.22623374545367L91.23565121718815,153.24623497386605L91.4419733592442,153.2918283710999L91.64829550130027,153.43186186249295L91.85461764335632,153.57392513575257L92.06093978541239,153.71380207335272L92.26726192746844,153.84453203484344L92.47358406952449,153.6615639397934L92.67990621158054,153.68467623443337L92.8862283536366,153.79499802132398L93.09255049569266,153.93035725123733L93.31950485195432,153.71304100126795L93.73214913606644,153.6977935985737L93.93847127812249,153.93724170496458L94.14479342017854,153.95132301051473L94.3511155622346,153.82538130765778L94.76375984634672,153.81611899813052L94.97008198840278,153.69019108610303L95.3827262725149,153.71080099457512L95.58904841457094,153.71741590952584L95.79537055662699,153.76297339307195L96.00169269868306,153.6319254211001L96.20801484073911,153.82500742152482L96.41433698279518,153.89355945187734L96.62065912485123,153.9461336289849L96.82698126690728,153.98773379604262L97.03330340896333,154.19727646103632L97.23962555101939,154.35140901988254L98.06491411924362,154.26117499068735L98.27123626129968,154.25165441108848L98.49819061756135,154.34186334278294L98.91083490167345,154.31282673867742L99.1171570437295,154.4105600630581L99.73612346989769,154.41288885766784L99.94244561195373,154.32629618271727L100.35508989606585,154.28528384311008L100.5614120381219,154.31734235337103L100.76773418017797,154.42016482766277L101.38670060634612,154.12825518107138L101.59302274840218,154.1146953194201L101.79934489045824,154.2374621951239L102.0056670325143,154.1506855705801L102.21198917457036,154.2700522649894L102.41831131662641,154.24960782049058L102.62463345868247,154.22094238549957L102.83095560073852,154.41000737590713L103.03727774279459,154.35721556874876L103.24359988485064,154.29081323396065L103.44992202690669,154.48398887052832L103.67687638316836,154.26373549298154L103.88319852522442,154.22632455082362L104.08952066728048,154.3476184449215L104.29584280933653,154.5477614028889L104.50216495139257,154.66883122273703L104.70848709344864,154.67743240847025L104.91480923550469,154.57660208888367L105.12113137756076,154.67803125783914L105.32745351961681,154.6012362737738L105.53377566167288,154.42178391129553L105.74009780372891,154.43436418276102L106.15274208784103,154.53597710559532L106.35906422989709,154.6964099666462L106.56538637195315,154.73408645096987L106.7717085140092,154.79900245732028L107.39067494017736,154.7315939899831L107.59699708223343,154.5615852774511L107.80331922428948,154.63910835576485L108.00964136634555,154.63546230044318L108.2159635084016,154.7171971770373L108.42228565045765,154.72326497437814L108.6286077925137,154.47425899538035L108.85556214877536,154.64560733485706L109.06188429083143,154.623228519846L109.26820643288748,154.8023074057634L109.6808507169996,154.7935730605053L109.88717285905567,154.76639293887274L110.0934950011117,154.74325405931532L110.71246142727988,154.79049357056232L110.91878356933594,154.81917189510716L111.125105711392,154.81679878139897L111.33142785344806,154.7398889526315L111.5377499955041,154.75011039143715L111.74407213756015,154.77939707492183L111.95039427961622,154.88271374350546L112.15671642167227,154.6829118756537L112.56936070578439,154.82379493385682L112.77568284784044,154.90913138332567L112.9820049898965,155.07641244998274L113.18832713195256,154.9798901057256L114.03424791438239,155.0998847554513L114.24057005643846,155.17784117200964L114.44689219849451,155.13589348122892L114.65321434055055,154.9989183378281L114.85953648260661,154.86261007600217L115.06585862466267,154.9087434767877L115.27218076671873,154.98105895769663L115.68482505083085,155.0317704309201L116.09746933494294,155.08730196368344L116.30379147699901,155.0979787248394L116.51011361905506,155.13442490235238L116.71643576111113,155.16594509016747L116.92275790316718,155.13000281413815L117.12908004522325,154.96835223137435L117.33540218727929,155.06106059208284L117.7480464713914,155.1293386613783L117.95436861344746,154.9223558401016L118.16069075550352,154.9840985248489L118.36701289755958,155.00462621122082L118.77965718167168,155.0454856651789L118.98597932372775,154.89738442429896L119.2129336799894,154.912033243397L119.83190010615758,154.86284183670514L120.03822224821364,155.06149061203087L120.24454439026968,155.0503444830854L120.45086653232573,154.8756179040512L120.6571886743818,154.9708540277196L120.86351081643785,155.0592569156718L121.06983295849392,155.0635582132446L121.48247724260604,154.92352076418877L121.68879938466208,154.88705425925542L121.89512152671814,154.96449127951163L122.1014436687742,155.12062642050182L122.30776581083025,155.1472512629261L122.51408795288631,155.2602308153397L123.13305437905447,155.27594962959543L123.33937652111054,155.39231634719374L123.75202080522266,155.53156063189797L123.95834294727871,155.38292621358767L124.16466508933476,155.47222101977556L124.59794158765249,155.4284471062847L124.80426372970852,155.55032954877916L125.01058587176459,155.504180584613L125.62955229793276,155.61029019779855L125.83587443998883,155.59580501533918L126.04219658204487,155.73621831511215L126.24851872410092,155.65944781676285L126.45484086615699,155.74304604373796L126.66116300821304,155.790659671385L126.8674851502691,155.71758752989294L127.07380729232516,155.78878627620443L127.28012943438122,155.88501232809813L127.69277371849333,155.95032472955876L127.89909586054938,155.8691244634366L128.10541800260543,155.8312532936358L128.31174014466148,155.87088594967662L128.51806228671757,155.91628307914934L128.7243844287736,155.9876632071449L129.13702871288572,156.05423083000727L129.7766273532595,156.149812234523L129.98294949531555,155.8734008613756L130.1892716373716,155.87526006811302L130.6019159214837,155.85991137750327L130.80823806353976,155.84287030607487L131.01456020559584,155.94755535655622L131.2208823476519,155.94891207772955L131.42720448970795,155.74447975658256L131.633526631764,155.84430847668426L131.83984877382005,155.8142452458778L132.0461709158761,155.82755424026274L132.25249305793218,155.88698195050978L132.45881519998824,156.00594289600184L132.6651373420443,155.87951673571428L132.87145948410034,155.87696277233877L133.0777816261564,155.88126787309548L133.28410376821245,155.9133331027672L133.4904259102685,155.81729816331344L133.90307019438063,155.7171164927565L134.10939233643668,155.70054284134898L134.31571447849274,155.84797204478002L134.74899097681046,155.6681261189742L135.16163526092257,155.76176205199135L135.36795740297862,155.76178077664645L135.57427954503467,155.7588307053956L135.78060168709075,155.86834103735436L135.9869238291468,155.83864261931515L136.3995681132589,155.84686767827677L136.60589025531496,155.7205633401425L136.812212397371,155.6884187719609L137.01853453942707,155.61256576404338L137.22485668148315,155.5612094842765L137.4311788235392,155.32406590255198L137.63750096559525,155.3502533300152L138.05014524970736,155.2081761655173L138.2564673917634,155.16764411677212L138.4627895338195,155.2327725571907L138.66911167587554,155.2677961122498L138.87543381793157,155.30282320047755L139.08175595998765,155.1994628751507L139.2880781020437,155.29314184350656L139.49440024409975,155.3580409036955L139.92767674241747,155.38908499245184L140.13399888447353,155.48544466757278L140.34032102652958,155.46831194544257L140.95928745269774,155.5057612194446L141.78457602092197,155.54829455339146L141.99089816297803,155.35989829448053L142.19722030503408,155.3390648252169L142.6098645891462,155.25902098388372L142.81618673120227,155.31196590324384L143.02250887325832,155.23228553842267L143.22883101531437,155.25199647640312L143.43515315737042,155.20021448652525L143.64147529942647,155.2644071300744L143.84779744148256,155.2897526826299L144.0541195835386,155.40320767375007L144.26044172559466,155.56203951468166L144.4667638676507,155.47108328699198L144.6730860097068,155.58548788146393L144.87940815176282,155.54762440952356L145.31268465008057,155.66899882780967L145.5190067921366,155.73175608647344L145.72532893419265,155.55248742522406L145.93165107624873,155.60593078583034L146.13797321830475,155.51669122100895L146.34429536036083,155.5844280481165L146.55061750241688,155.6438239340262L146.75693964447296,155.62060936514453L146.963261786529,155.71173115252543L147.16958392858504,155.74296676131485L147.58222821269715,155.64886221073266L147.78855035475323,155.64144150764795L147.99487249680928,155.57589948172577L148.20119463886536,155.49973697701392L148.40751678092138,155.5349230218276L148.61383892297744,155.57184161635504L148.82016106503352,155.5856087749695L149.02648320708954,155.5531249577093L149.23280534914562,155.69489685143768L149.43912749120167,155.73732487428163L149.64544963325773,155.77177478485925L149.85177177531378,155.7193279512336L150.2850482736315,155.68904434087224L150.49137041568756,155.6978411193502L150.6976925577436,155.77935461252602L150.9040146997997,155.62926432255057L151.11033684185574,155.52209844633526L151.7293032680239,155.59516478176468L151.93562541007995,155.6653930425839L152.141947552136,155.80103001950545L152.34826969419208,155.87096236091327L152.55459183624814,155.89687676263526L152.76091397830416,155.92633609457332L153.1735582624163,155.94805237592095L153.37988040447235,156.09706211944197L153.5862025465284,156.13957102803008L153.79252468858448,156.1575594538571L153.99884683064053,156.13012326817264L154.20516897269655,156.25981840378515L154.41149111475264,156.31829051960418L154.6178132568087,156.4121532646792L155.0304575409208,156.33398007768744L155.23677968297687,156.32764141862205L155.67005618129457,156.283896075799L155.87637832335062,156.2797577789502L156.0827004654067,156.24910192584383L156.28902260746273,156.27175335350867L156.4953447495188,156.22125864043235L157.11431117568696,156.15399465020803L157.32063331774302,156.10048772799337L157.5269554597991,156.0675077940619L157.73327760185512,156.08570897502483L158.14592188596725,156.14222351469843L158.55856617007936,156.14716806644844L158.9712104541915,155.96444896033603L159.3838547383036,156.05105810993416L159.59017688035965,156.03150101824633L159.79649902241573,156.0717569268939L160.00282116447175,156.16574762719281L160.2091433065278,156.13891391753637L160.64241980484553,156.1496125288425L160.84874194690158,156.19406075742936L161.05506408895766,156.09743613625187L161.26138623101372,156.1513484626228L161.46770837306977,156.2184465472012L161.67403051512582,156.17426013996436L162.08667479923793,156.22829686418493L162.29299694129398,156.27129793546345L162.49931908335006,156.35833736011122L162.7056412254061,156.35596408310576L163.11828550951822,156.3225343155489L163.32460765157427,156.34473471405158L163.53092979363035,156.34921131572375L163.73725193568637,156.1706776042086L164.1498962197985,156.28876412728482L164.35621836185453,156.45726450730277L164.5625405039106,156.46418371232954L164.76886264596666,156.41262756574181L164.97518478802274,156.51364683451544L165.18150693007877,156.59860647659698L165.38782907213485,156.6279993093801L165.5941512141909,156.6217573041169L165.82110557045254,156.61996144708232L166.23374985456468,156.52341387142L166.4400719966207,156.50151523650734L166.85271628073284,156.52439229193004L167.05903842278892,156.4703055964309L167.26536056484494,156.55794766826614L167.471682706901,156.49170049326776L167.67800484895707,156.5016353668246L167.8843269910131,156.54175402789312L168.09064913306918,156.59811857141807L168.29697127512523,156.62750734917105L168.5032934171813,156.5059346727965L168.9159377012934,156.54810715355833L169.12225984334947,156.49887370400342L169.3285819854055,156.581903195019L169.53490412746157,156.56699719658175L169.74122626951763,156.46196228216303L169.9475484115737,156.3773029993296L170.15387055362973,156.42909979369912L170.36019269568578,156.48318622790214L170.56651483774186,156.47748833580928L170.77283697979792,156.4060194984075L170.99979133605956,156.39194437540948L171.20611347811564,156.50483120687178L171.4124356201717,156.51972442896974L171.61875776222774,156.5491640777525L171.8250799042838,156.575496585494L172.03140204633985,156.6090290590402L172.2377241883959,156.64925365977822L172.44404633045195,156.7339854151226L172.65036847250803,156.5489762517888L172.8566906145641,156.5239944549575L173.0630127566201,156.50361572491894L173.2693348986762,156.4220707321419L173.68197918278833,156.50517506224128L173.88830132484435,156.5387679291017L174.09462346690043,156.50392647311955L174.5072677510125,156.3509709878941L174.7135898930686,156.29558542330048L174.91991203512464,156.10239681904528L175.12623417718072,156.00985513370048L175.33255631923674,155.98902940041415L176.38479924372265,156.04378293561567L176.59112138577868,156.0486652325085L176.79744352783476,156.02097069413423L177.2100878119469,156.0585836028472L177.41640995400292,155.98029193532918L177.62273209605897,155.96529687121583L177.82905423811505,155.98703894235769L178.03537638017107,155.98494382039644L178.4480206642832,156.00459691520788L178.6543428063393,156.1113580661495L178.8606649483953,156.16553796529342L179.06698709045136,156.20112563112207L179.27330923250744,156.18510818960266L179.47963137456347,156.2336759105737L179.68595351661955,156.16793477434956L179.8922756586756,156.17350188154123L180.09859780073168,156.24113704026712L180.3049199427877,156.22951981588756L180.51124208484376,156.32800423298525L180.71756422689984,156.36357695466862L180.9238863689559,156.36142754257313L181.35716286727362,156.43013291208538L181.56348500932967,156.42254521201818L181.76980715138572,156.56169768983207L181.97612929344177,156.61240049974396L182.18245143549782,156.64876225079408L182.3887735775539,156.67580368245473L182.59509571960993,156.76162005912147L182.801417861666,156.67747056229126L183.00774000372206,156.66250779639057L183.62670642989022,156.69887495080107L183.8330285719463,156.7657617298836L184.03935071400232,156.7197469107115L184.2456728560584,156.72012477782724L184.45199499811446,156.68127497959537L184.65831714017048,156.66570529208602L185.07096142428261,156.6412668229729L185.2772835663387,156.6576284399822L185.48360570839472,156.71171311574471L185.6899278504508,156.6932847758491L185.89624999250685,156.74514014144142L186.10257213456288,156.74380101013313L186.30889427661896,156.74311361528353L186.53584863288063,156.81137246856218L186.94849291699273,156.84671653845547L187.1548150590488,156.894895594861L187.36113720110487,156.93873997323243L187.5674593431609,156.9135282498722L187.77378148521694,156.84575540714224L187.98010362727302,156.91887206573062L188.18642576932905,156.84103058784234L188.39274791138513,156.84685253113764L188.59907005344118,156.69752748178112L188.80539219549726,156.75549803276624L189.21803647960934,156.80865249599057L189.42435862166542,156.84301855259076L189.63068076372147,156.82871253814778L190.04332504783358,156.81063835454012L190.24964718988966,156.84677882958002L190.45596933194568,156.7708642717331L190.66229147400173,156.77980235252133L190.86861361605781,156.81313925918005L191.07493575811387,156.79315169395784L191.28125790016992,156.7959112148899L191.48758004222597,156.84030932664757L191.71453439848764,156.80720136077346L191.9208565405437,156.74022353167885L192.12717868259975,156.71379930735586L192.3335008246558,156.6173679544594L192.53982296671188,156.53963253866516L192.7461451087679,156.5934753540265L193.15878939288004,156.65868901362873L193.3651115349361,156.58462681022908L193.57143367699214,156.63354961586717L193.7777558190482,156.6253756322427L193.98407796110428,156.5438741165155L194.1904001031603,156.56903702243997L194.60304438727243,156.56368307978462L194.80936652932846,156.48223479845723L195.2220108134406,156.44621888716028L195.42833295549667,156.4357521994155L195.84097723960878,156.43640076174648L196.25362152372085,156.46091904542425L196.89322016409463,156.49271478026847L197.0995423061507,156.45555296364566L197.71850873231887,156.34746838844214L197.92483087437492,156.314728326703L198.131153016431,156.28606797907165L198.33747515848702,156.22773142607824L198.5437973005431,156.13257465222514L198.95644158465524,156.06880519696745L199.16276372671126,156.10162762030004L199.3690858687673,156.15121403765082L199.9880522949355,156.23025826228385L200.19437443699155,156.34014354692644L200.60701872110366,156.31820887136644L200.8133408631597,156.25429452410097L201.0196630052158,156.26885005666978L201.22598514727184,156.20158644161145L201.4323072893279,156.12077439629954L201.63862943138395,156.07645140610475L201.84495157344,156.02452267122115L202.27822807175772,156.0463785470084L202.48455021381378,156.0191240899532L202.69087235586986,156.0491797398136L203.10351663998196,156.1156334970688L203.309838782038,156.1685392576399L203.51616092409407,156.16111986043876L203.72248306615012,156.09633846937007L203.92880520820617,156.05603944909066L204.13512735026225,156.0127993009172L204.34144949231828,155.96110471250586L204.54777163437436,156.02376527083192L204.7540937764304,155.98390296954165L204.96041591848643,155.98782268480795L205.1667380605425,155.96025930672323L205.57938234465465,156.03628860963872L205.78570448671067,156.10345114024827L206.1983487708228,156.08994808094934L206.6109930549349,156.0707457999408L206.81731519699096,156.1358348736015L207.45691383736474,156.214543332482L207.66323597942082,156.25104817960317L208.0758802635329,156.15821196400788L208.28220240558898,156.1770895900237L208.48852454764503,156.17368720201668L208.69484668970108,156.2167379126421L208.90116883175713,156.2403700689803L209.31381311586924,156.25243091942227L209.5201352579253,156.21488288411848L209.93277954203742,156.18003211718465L210.13910168409348,156.20713188661352L210.5517459682056,156.26383198363777L210.75806811026163,156.2756223384998L210.96439025231768,156.2693612518373L211.17071239437377,156.28716172865464L211.37703453642982,156.16501699011985L211.58335667848587,156.12458697238785L211.78967882054192,156.1672238519863L211.99600096259798,156.33772344855777L212.20232310465406,156.26490058868052L212.63559960297175,156.32090840118954L212.84192174502783,156.32895063979774L213.04824388708386,156.3102893887023L213.25456602913994,156.3569075729041L213.460888171196,156.45639570502237L213.66721031325204,156.47964896757975L213.8735324553081,156.59784423647483L214.07985459736415,156.7266012229576L214.28617673942023,156.79986016846505L214.49249888147625,156.8705599060262L214.90514316558838,156.93049510140415L215.3177874497005,156.93023955402796L215.52410959175654,156.9237876083428L215.73043173381262,156.83423945803526L215.93675387586865,156.88829423555086L216.14307601792473,156.83563529299227L216.34939815998078,156.83440310032097L216.5557203020368,156.91798487480207L216.76204244409288,156.9691074307119L216.96836458614894,156.90509049096065L217.17468672820502,156.93684888879244L217.38100887026104,156.9311251214573L217.6079632265227,156.96220962532684L218.02060751063482,156.8498411003538L218.43325179474695,156.8309315472984L218.639573936803,156.86973117603117L218.84589607885906,156.80789718622637L219.0522182209151,156.82110763603748L219.4648625050272,156.81035501115002L219.67118464708327,156.87827675190275L219.87750678913935,156.95317045659235L220.0838289311954,157.02947713276046L220.29015107325145,157.01497944744594L220.4964732153075,157.06276341515252L220.70279535736358,157.08933280059702L221.11543964147566,157.0810031200311L221.32176178353174,157.13504552247872L221.9407282096999,157.25520783558812L222.14705035175595,157.27116449225747L222.78664899212973,157.3491127845641L222.9929711341858,157.4507838443811L223.19929327624183,157.5356842769533L223.4056154182979,157.55070782522807L223.61193756035397,157.597301375413L223.81825970241005,157.65025599113133L224.02458184446607,157.62752338980053L224.23090398652212,157.63008171554443L224.4372261285782,157.61565062079174L225.05619255474636,157.6819420828433L225.26251469680238,157.70882140403123L225.46883683885846,157.7268115769604L225.67515898091452,157.74133834178411L225.8814811229706,157.75095802177407L226.2941254070827,157.75566682171046L226.50044754913876,157.79223664110813L226.70676969119478,157.86058195045442L226.91309183325086,157.8103264138061L227.1194139753069,157.8089041465616L227.53205825941902,157.6791413391909L227.7383804014751,157.58554658551287L227.96533475773677,157.57698535015444L228.1716568997928,157.64473511700825L228.37797904184885,157.64574954539648L228.58430118390493,157.56111693709002L228.79062332596098,157.5382011610896L228.99694546801703,157.635919081282L229.20326761007308,157.62920633537817L229.40958975212916,157.6903791432743L229.82223403624124,157.7434755648333L230.23487832035337,157.76015573411607L230.64752260446548,157.72877972336403L230.85384474652156,157.7210189751267L231.0601668885776,157.72028485841707L231.26648903063364,157.56130632374843L231.47281117268972,157.50460414035373L232.09177759885787,157.4954762157494L232.50442188297,157.4931115075941L232.71074402502603,157.48129164787164L233.14402052334378,157.45078218197654L233.3503426653998,157.48465932746612L233.5566648074559,157.53704272257787L233.76298694951194,157.53404818164495L233.96930909156802,157.54134177712834L234.3819533756801,157.57465674166352L235.20724194390434,157.51783580938266L235.41356408596036,157.523491357587L235.61988622801644,157.54708000160517L235.8262083700725,157.4433413852253L236.03253051212857,157.45348010030705L236.85781908035278,157.4574524160845L237.06414122240884,157.38459380383566L237.2704633644649,157.37893747491285L237.47678550652097,157.34726696734018L237.88942979063307,157.33172591525545L238.09575193268913,157.31157656296696L238.32270628895077,157.25815840453546L238.7353505730629,157.2662207694881L238.94167271511895,157.1647696884831L239.147994857175,157.08881833253852L239.56063914128714,157.0097630584535L239.97328342539922,157.03710308996511L240.1796055674553,157.0209977523567L240.38592770951135,157.09909450278042L240.79857199362345,157.03548199400674L241.00489413567954,157.01946916549807L241.2112162777356,156.94725057153713L241.4175384197916,156.96766350624964L241.6238605618477,157.0139127100923L241.83018270390374,156.98000539643294L242.0365048459598,156.96418483955017L242.24282698801585,156.91073206825718L242.4491491300719,156.91100956285453L242.65547127212798,156.9489707243078L242.861793414184,156.92068504688737L243.0681155562401,157.01324854968058L243.27443769829614,157.0322559031383L243.70771419661386,157.02894787453477L243.91403633866992,156.9960261532006L244.120358480726,156.95933858749714L244.53300276483807,157.01503571532555L244.73932490689415,157.0360428089573L244.94564704895018,156.90258650616377L245.15196919100626,156.912161074312L245.56461347511834,157.0028866705419L245.77093561717442,156.9979690997554L245.97725775923047,157.00167329752355L246.18357990128655,156.90466172187138L246.8025463274547,156.94365068157038L247.00886846951076,156.97265564446428L247.2151906115668,156.89498333687516L247.42151275362286,156.8818336715643L248.2468013218471,156.92933900840697L248.6800778201648,156.89303050951315L248.88639996222088,156.8806835615027L249.09272210427693,156.8900001232208L249.29904424633298,156.9240546377018L249.50536638838904,156.88065419231836L249.71168853044512,156.91019332067847L249.91801067250117,156.83670287945142L250.1243328145572,156.7604299332503L250.33065495661327,156.8472799518754L250.53697709866933,156.89346128283444L250.74329924072538,156.89715444336196L250.94962138278143,156.84059618312926L251.1559435248375,156.90852492753154L251.36226566689356,156.87963553925394L251.5685878089496,156.8510631844992L251.98123209306172,156.874522425565L252.18755423511777,156.91214291564967L252.39387637717383,156.82536945164802L252.6001985192299,156.83475331516996L252.80652066128596,156.82635989413018L253.01284280334198,156.77536893742405L253.21916494539806,156.76175321711264L253.85876358577184,156.71430023323927L254.0650857278279,156.69635751382057L254.47773001194,156.78664852195539L254.68405215399605,156.7035203281105L254.89037429605213,156.7302480607486L255.09669643810815,156.5442436243142L255.30301858016423,156.5961163908605L255.5093407222203,156.5618390003773L255.71566286427634,156.5889943788156L255.9219850063324,156.57559751341253L256.12830714838844,156.61593203825208L256.3346292904445,156.73626934380604L256.74727357455663,156.74691989466706L256.95359571661265,156.7681843068369L257.3662400007248,156.8082711655111L257.57256214278084,156.7862142208357L257.98520642689294,156.79807967492766L258.191528568949,156.8530041476324L258.39785071100505,156.84825151752895L258.60417285306113,156.81582063553716L258.8104949951172,156.90549715161748L259.0374493513788,157.0010672744485L259.2437714934349,156.9265254744399L259.450093635491,157.01122375704242L259.656415777547,157.06206912228555L260.0690600616591,156.99082902228244L260.2753822037152,156.87563642201513L260.4817043457713,156.89080050458878L260.8943486298834,156.90532166090705L261.1006707719394,156.81433067911485L261.3069929139955,156.86211367423743L261.5133150560515,156.88013656969585L261.7196371981076,156.81042169522286L261.9259593401637,156.83936318827307L262.1322814822197,156.89169736650794L262.3386036242758,156.880048361078L262.5449257663318,156.88216970782142L262.7512479083879,156.85737342147314L263.5765364766121,156.85187832258697L263.7828586186682,156.85035718776925L263.9891807607242,156.8507005768384L264.42245725904195,156.9489255955509L264.628779401098,156.8337877192749L264.835101543154,156.8582800510089L265.0414236852101,156.88040904701174L265.24774582726616,156.9149344295951L265.45406796932224,156.8780415859611L265.66039011137826,156.80740962007803L266.07303439549037,156.8539693265834L266.2793565375464,156.83272860965604L266.4856786796025,156.83544000640785L266.89832296371463,156.90306226748686L267.10464510577066,156.95604163877792L267.3109672478267,156.9880356381758L267.51728938988276,156.9832074350146L267.92993367399487,156.9975152491143L268.13625581605095,157.0008591213229L268.34257795810703,156.9161775061022L268.54890010016305,156.8274779760479L268.7552222422191,156.80892450181565L268.96154438427516,156.7961410299749L269.60114302464893,156.79641088061237L269.807465166705,156.78007467146534L270.42643159287314,156.7931555205627L270.6327537349292,156.77753244031078L270.83907587698525,156.74147295424297L271.2517201610974,156.727328132775L271.45804230315343,156.7320857892844L271.6643644452095,156.70332936813188L272.0770087293216,156.69765256352014L272.28333087137764,156.64063225602885L272.4896530134337,156.62707743539144L272.9022972975459,156.60548267484359L273.1086194396019,156.6570663543969L273.31494158165793,156.61784434508004L273.521263723714,156.6435772015863L273.72758586577004,156.59056840974188L273.9339080078261,156.6485191239997L274.1402301498822,156.6437882088246L274.5735066481999,156.62805225986926L275.1924730743681,156.6657473251495L275.3987952164241,156.58639401820076L276.0177616425923,156.5746711824838L276.22408378464837,156.61772315913032L276.4304059267044,156.54354215801038L276.6367280687605,156.58723108521835L276.8430502108165,156.63015410955862L277.2556944949286,156.69714952045393L277.4620166369847,156.64179022797154L277.66833877904077,156.7107956291497L277.8746609210968,156.75775559915758L278.08098306315287,156.69901932337962L278.2873052052089,156.7287764460993L278.493627347265,156.76460295280626L278.699949489321,156.77525308419862L278.9062716313771,156.78496237261925L279.11259377343316,156.83315289197228L279.3189159154892,156.88913238015806L279.52523805754527,156.8612915299063" fill="none"></path></g></g></g></g><g opacity="0.2"><g><g><g><path style="fill: none;" stroke="rgb(51, 187, 238)" stroke-width="2px" d="M20.817904133456096,14.709440467824493L21.230548417568205,58.247294419568334L21.436870559624264,22.832058350680313L21.64319270168032,-21.461910261126604L22.262159127848488,161.10834566034796L22.674803411960603,137.89663519031336L22.881125554016656,118.21512927699914L23.087447696072715,158.782681525079L23.706414122240883,146.72226520280773L23.91273626429694,120.69933655907292L24.119058406353,173.21327110280876L24.325380548409054,165.88713845601262L24.531702690465107,163.18938756561465L24.738024832521166,140.03942575654776L24.944346974577222,126.98163346385826L25.356991258689337,107.9693196024786L25.56331340074539,153.10734034840976L25.99658989906311,111.83365229243108L26.20291204111917,116.65267068324482L26.409234183175222,178.5991250672059L26.615556325231278,51.72761114707981L26.821878467287338,126.19158010539778L27.028200609343394,163.96722299265207L27.23452275139945,106.4541379450938L27.440844893455505,154.29005456227046L27.64716703551156,207.66360691112368L27.85348917756762,174.0889554218471L28.26613346167973,174.3649462352225L28.47245560373579,158.79957838385394L28.678777745791844,162.07828071035323L28.8850998878479,170.57974672786344L29.091422029903956,121.42136753989107L29.50406631401607,126.64211467911372L29.710388456072124,158.24728043525397L30.329354882240295,170.12417736471534L30.535677024296355,187.3072283326674L30.741999166352407,154.54946483872007L30.948321308408463,178.3949788538166L31.175275664670128,168.34427385983076L31.38159780672618,139.64269225733986L31.58791994878224,133.2240869957289L31.794242090838296,170.66794780346555L32.00056423289435,97.91951085373199L32.20688637495041,148.62890832858142L32.61953065906253,190.68690322942786L32.82585280111858,148.847829408341L33.23849708523069,141.41459545545658L33.44481922728675,169.67828217812013L33.6511413693428,155.61405920208074L33.85746351139886,176.38798262140298L34.270107795510974,173.48148567072613L34.476429937567026,152.49927749382167L34.682752079623086,140.66107727057187L34.889074221679145,186.25601174750997L35.30171850579126,157.06080989943473L35.50804064784731,188.11172705557198L35.71436278990337,223.83532420706416L35.92068493195943,129.41748304324463L36.353961430277145,155.17110317266713L36.76660571438926,182.43774342683864L36.97292785644532,119.22799183794822L37.17924999850137,123.28132683276237L37.38557214055742,159.4956314328114L37.59189428261348,58.70482761419652L37.79821642466954,188.8469776536688L38.00453856672559,165.44319392082045L38.21086070878165,115.04131400364415L38.41718285083771,185.292811716876L38.62350499289376,152.24706353944L38.82982713494982,161.4096026814235L39.036149277005876,182.37101269674696L39.242471419061935,143.3403233327951L39.44879356111799,154.01936213986815L39.86143784523011,102.3804924515494L40.27408212934222,157.2078072987459L40.48040427139827,184.73463545391283L40.68672641345432,188.38269625959228L41.305692839622495,156.42899654600697L41.53264719588416,142.8481001753778L41.73896933794021,197.82536475914412L42.15161362205233,119.3985552150204L42.35793576410838,189.32729920151218L42.7705800482205,128.63768378472713L42.97690219027656,169.67546164163195L43.18322433233261,170.45572220284612L43.389546474388666,158.07288165576097L43.595868616444726,179.19009336186335L43.80219075850078,158.1783881725265L44.00851290055684,162.80517513960191L44.42115718466895,144.9755623120059L44.62747932672501,130.43722560441253L44.83380146878106,152.9821691566893L45.040123610837114,153.0101109200301L45.24644575289317,129.78039646474855L45.45276789494923,160.32498778102763L45.65909003700529,114.71825713513198L45.865412179061344,161.8146791694025L46.071734321117404,181.3013176435689L46.27805646317346,197.2944580755923L46.71133296149118,136.57187928611137L46.91765510354723,113.17509417417526L47.12397724560329,180.12624787439577L47.33029938765935,116.7859739825036L47.5366215297154,114.00703381749281L47.74294367177146,156.18291132745242L47.949265813827516,148.76932886944587L48.15558795588357,151.7644618382674L48.56823223999569,165.46640403650116L48.98087652410779,129.02061774326626L49.18719866616385,143.68239905248686L49.39352080821991,181.4151935092596L49.59984295027596,169.22914469257123L49.80616509233202,169.82576724028206L50.01248723438808,133.1317078357027L50.425131518500194,130.82672324132133L50.631453660556254,170.14181230780494L50.8377758026123,171.0603714174789L51.04409794466836,143.27011306236287L51.25042008672442,158.84246635456662L51.45674222878047,117.5957447362272L51.89001872709819,101.03043079941614L52.302663011210306,144.3378574641379L52.50898515326636,159.9327091478618L52.71530729532242,172.70479691039185L53.12795157943454,182.32334035806602L53.33427372149058,155.02132477709893L53.54059586354664,178.7821699772421L53.7469180056027,126.73608862846265L53.953240147658754,137.73135702413725L54.15956228971481,172.18780838820223L54.36588443177087,170.45062151302872L54.572206573826925,161.1803879614898L54.778528715882985,158.7596954707081L54.984850857939044,162.79966586739604L55.19117299999509,135.527055038322L55.60381728410721,149.66226590933942L55.81013942616327,124.50804932388479L56.01646156821932,199.215243424038L56.22278371027538,96.03449623439332L56.42910585233144,140.49954224627726L56.841750136443544,183.77885580665662L57.06870449270521,118.76620147843369L57.27502663476127,145.63003221787838L57.48134877681733,180.29151286049483L57.68767091887337,150.0850827810244L58.10031520298549,181.13273127805385L58.306637345041544,163.71922666292562L58.5129594870976,149.41517900492926L58.71928162915366,196.84380488118293L58.925603771209715,97.80542410680852L59.131925913265775,155.48300969599708L59.338248055321834,144.26466849629293L59.95721448149,193.90545168428218L60.16353662354606,143.28023536153538L60.36985876560211,97.91840372726L60.57618090765817,179.47121122521025L61.195147333826334,203.4127684617522L61.607791617938446,136.5117517746205L61.814113759994505,184.05851068145125L62.24739025831222,199.75334642965777L62.660034542424334,142.29159778219966L62.866356684480394,134.9200202297436L63.07267882653645,191.91667031834825L63.27900096859251,140.99703743451357L63.485323110648565,228.47646427804435L63.69164525270462,175.75591884651132L63.89796739476068,188.1686254481862L64.31061167887279,178.38977272338283L64.51693382092886,104.04031227445387L64.92957810504096,128.9832785849906L65.13590024709701,172.32351046148366L65.34222238915306,167.80618403428804L65.54854453120913,163.00009529905793L65.96118881532125,160.73677292822381L66.16751095737729,122.31512174456157L66.37383309943336,193.39320798982968L66.58015524148941,208.57367805117903L66.78647738354546,97.96073813473669L66.99279952560153,149.18928566441153L67.19912166765758,154.55767602672069L67.42607602391924,141.85806550787504L67.6323981659753,154.86897626650645L68.25136459214347,198.81091820045071L68.45768673419953,96.99996323827946L68.66400887625558,161.36589754593388L68.87033101831163,134.3847641207661L69.07665316036768,77.15569655350521L69.28297530242375,144.4870822964701L69.4892974444798,191.47383290962807L69.69561958653587,131.0999594185938L69.90194172859192,210.63481804010394L70.10826387064797,170.82704451350637L70.31458601270404,100.4506919304032L70.72723029681615,175.28160741380162L70.9335524388722,167.55316609520648L71.34619672298432,175.26015024836823L71.55251886504037,175.88479363988213L71.75884100709642,179.59057000295275L71.96516314915249,120.50300613137281L72.17148529120854,116.76868172141724L72.37780743326459,126.69822226710508L73.01740607363837,177.81516090434138L73.22372821569442,143.6075493949339L73.43005035775049,171.303557019083L73.63637249980654,138.10613251498395L74.04901678391865,174.66045674270532L74.25533892597471,176.25833020348637L74.46166106803076,147.93493773179748L74.66798321008683,92.0925197105538L75.08062749419894,166.41515870269103L75.28694963625499,147.332595030648L75.6995939203671,105.22298694808342L76.11223820447923,177.61081698979638L76.31856034653528,95.56649805858939L76.73120463064738,197.683099007493L76.93752677270344,102.48005475356649L77.35017105681555,172.39091337550477L77.55649319887162,179.82217031683206L77.78344755513328,183.7452729703395L77.98976969718933,156.13185170897026L78.40241398130144,191.40882876962962L78.6087361233575,150.72129828018603L78.81505826541355,210.83280915751203L79.22770254952567,186.5273499936876L79.43402469158173,99.40458921514022L79.64034683363778,207.4537273642187L79.84666897569383,159.69527005985043L80.0529911177499,218.2918101610244L80.25931325980595,128.6633190345846L80.46563540186202,169.16939940331474L80.67195754391807,100.39736533866886L80.87827968597414,187.1081037286332L81.08460182803017,171.6521832370674L81.90989039625441,182.44844564940124L82.11621253831046,137.38178184060544L82.32253468036652,115.03558067012847L82.52885682242257,179.77397077506922L82.73517896447862,161.8542721208533L82.96213332074029,157.51239887931447L83.16845546279635,192.75570084311738L83.58109974690846,216.96734421851744L83.78742188896452,167.6030790469855L83.99374403102057,173.8842556452218L84.20006617307662,149.81620920925465L84.40638831513269,216.3017371475398L84.61271045718874,117.30555897987159L84.8190325992448,174.8125021115257L85.23167688335693,165.19096678636174L85.43799902541296,159.88777826520675L85.64432116746902,82.94594164187487L85.85064330952508,130.34098468181142L86.05696545158114,111.89511099170375L86.2632875936372,125.98673534792496L86.67593187774929,151.87165540489502L86.88225401980536,149.76109012704185L87.08857616186141,148.0073622551737L87.29489830391748,139.1864375301853L87.50122044597353,153.9048668105562L87.91386473008565,172.93977132399533L88.1408190863473,150.7934064817131L88.55346337045941,148.94426803209782L88.96610765457153,151.52907884227545L89.1724297966276,76.96917210312847L89.37875193868365,193.44533519455268L89.5850740807397,143.11714508814916L89.79139622279575,186.50656501218364L89.9977183648518,185.05089140266847L90.41036264896393,102.0172495281193L90.61668479101999,179.0220341994302L90.82300693307604,163.34909055919965L91.23565121718815,158.0371768270392L91.4419733592442,164.24755005137612L91.64829550130027,187.1870128499168L92.26726192746844,185.6540249084408L92.47358406952449,109.00311212577918L92.67990621158054,159.34332246245006L92.8862283536366,180.8885835308253L93.09255049569266,187.2747921630534L93.31950485195432,100.0157230276804L93.73214913606644,149.91880292899268L93.93847127812249,213.46309123350366L94.14479342017854,157.4624463873043L94.3511155622346,122.32785369898949L94.76375984634672,151.4927150097013L94.97008198840278,122.0075910068114L95.3827262725149,158.91151677821867L95.58904841457094,155.39156632144127L95.79537055662699,165.32697200141527L96.00169269868306,120.26995600901827L96.20801484073911,203.1232285291719L96.41433698279518,171.4474307401339L96.62065912485123,167.447672758518L96.82698126690728,164.7019200275129L97.03330340896333,208.32067329217452L97.23962555101939,194.276932155867L98.06491411924362,130.8207526664188L98.27123626129968,151.7714209189485L98.49819061756135,177.90906895330508L98.91083490167345,146.70555286511146L99.1171570437295,180.0876566088006L99.73612346989769,155.02643864699337L99.94244561195373,131.44869107719458L100.35508989606585,143.41977283723764L100.5614120381219,162.83422402941468L100.76773418017797,181.81208516939208L101.38670060634612,76.14963491231265L101.59302274840218,150.48248846416172L101.79934489045824,187.21212089669237L102.0056670325143,130.7794726651059L102.21198917457036,186.5057214872526L102.41831131662641,148.71356396345774L102.62463345868247,146.43790504050713L102.83095560073852,205.88114647129188L103.03727774279459,139.94678299498062L103.24359988485064,136.11694256666155L103.44992202690669,207.49496782530045L103.67687638316836,93.66253048845635L103.88319852522442,143.9058804389049L104.08952066728048,187.89631187630704L104.50216495139257,188.3303845337906L104.70848709344864,157.07505756272312L104.91480923550469,126.39700478626068L105.12113137756076,183.09797302638088L105.32745351961681,133.02846829218936L105.53377566167288,103.8822831506539L105.74009780372891,157.98639399017503L106.15274208784103,183.2991273622804L106.35906422989709,200.2243364829515L106.56538637195315,165.45293399775858L106.7717085140092,173.31379555045032L107.39067494017736,135.45780691351425L107.59699708223343,105.83056213982076L107.80331922428948,176.9154229446913L108.00964136634555,153.58517086169115L108.2159635084016,178.32005011580137L108.42228565045765,156.47979256294818L108.6286077925137,82.21444736573659L108.85556214877536,204.49116236578163L109.06188429083143,148.09734264117722L109.26820643288748,207.1501770097369L109.6808507169996,152.2341997842416L109.88717285905567,146.78277493653297L110.0934950011117,147.93035106498493L110.71246142727988,168.7327566308069L110.91878356933594,163.30347431253813L111.125105711392,154.1130593075991L111.33142785344806,131.87849338971475L111.5377499955041,157.7955991948349L111.74407213756015,163.52592765294645L111.95039427961622,185.81081510499828L112.15671642167227,94.73193557993937L112.56936070578439,197.19452673141788L112.9820049898965,205.61986462390152L113.18832713195256,125.74870315644645L114.03424791438239,191.52304731732357L114.24057005643846,178.8949387164608L114.44689219849451,142.34477939308647L114.65321434055055,113.13600206565226L114.85953648260661,113.10899608778186L115.06585862466267,169.07216997493506L115.27218076671873,177.2326937593796L115.68482505083085,170.67086060049306L116.09746933494294,172.25121773887793L116.30379147699901,158.40536227936212L116.51011361905506,166.44962460417034L116.71643576111113,164.97350869515444L116.92275790316718,143.92177561182422L117.12908004522325,104.44820929892103L117.33540218727929,184.09855175552167L117.7480464713914,176.56176193727475L117.95436861344746,89.80883412068124L118.16069075550352,174.44962823025293L118.36701289755958,161.4903965537249L118.77965718167168,167.98303430811188L118.98597932372775,107.90223301030665L119.2129336799894,159.57034928959388L119.83190010615758,139.18650343057053L120.03822224821364,218.50211147039488L120.24454439026968,151.48313309368774L120.45086653232573,98.83742413963063L120.6571886743818,185.57951793289106L120.86351081643785,183.53163710147598L121.06983295849392,156.45181125937626L121.48247724260604,109.63143275878934L121.68879938466208,143.06811520153232L121.89512152671814,180.11439898513004L122.1014436687742,205.93529022780316L122.30776581083025,163.8303215323593L122.51408795288631,192.18189300877583L123.13305437905447,160.42341659641863L123.33937652111054,193.57726776579852L123.75202080522266,201.31704395065455L123.95834294727871,106.41022192837141L124.16466508933476,184.95324021182327L124.59794158765249,140.94704540227227L124.80426372970852,195.95324025515794L125.01058587176459,140.17541779152424L125.62955229793276,190.92624024853407L125.83587443998883,150.7651220363691L126.04219658204487,202.6562847595318L126.24851872410092,129.95501930555136L126.45484086615699,183.78907036636846L126.66116300821304,171.79595151750192L126.8674851502691,131.10599589388158L127.07380729232516,179.81654242393276L127.69277371849333,178.0779584605922L127.89909586054938,128.3051240806637L128.10541800260543,142.95064117480763L128.31174014466148,169.3767220152725L128.51806228671757,171.41639165868696L128.7243844287736,180.4061795308084L129.7766273532595,188.97288692970392L129.98294949531555,60.77130553432568L130.1892716373716,156.51615639552233L130.6019159214837,150.55894609111448L130.80823806353976,149.94627020955974L131.01456020559584,192.239331784549L131.2208823476519,156.42013953423103L131.42720448970795,84.60615686709076L131.633526631764,190.6476793201344L131.83984877382005,145.31372354881455L132.0461709158761,160.48478303515196L132.25249305793218,176.7211486090106L132.45881519998824,197.78840782310283L132.6651373420443,111.39316093742536L132.87145948410034,154.97663113583073L133.0777816261564,157.40169941219222L133.28410376821245,167.25851229273175L133.4904259102685,121.77667605693856L133.90307019438063,120.14206972142603L134.10939233643668,149.80447894068234L134.31571447849274,208.39063314114284L134.74899097681046,91.45681823439702L135.16163526092257,189.25318762827388L135.36795740297862,155.76849016484672L135.57427954503467,154.69987587798656L135.78060168709075,195.24815885342292L135.9869238291468,145.14012875402145L136.3995681132589,158.81510451461594L136.60589025531496,110.05960074175562L136.812212397371,144.04717086485448L137.01853453942707,128.09387380574577L137.22485668148315,136.89700542672L137.4311788235392,68.98921537423519L137.63750096559525,164.9007151296209L138.05014524970736,103.30301876441467L138.2564673917634,140.33435634064048L138.4627895338195,179.10869320601776L138.66911167587554,168.1294913242641L138.87543381793157,168.18794496596993L139.08175595998765,117.11193046796623L139.2880781020437,189.87222948704257L139.49440024409975,179.35467298395594L139.92767674241747,166.8872690625338L140.13399888447353,191.23594569899709L140.34032102652958,149.10112412904056L140.95928745269774,169.44686638531948L141.78457602092197,171.40868131361415L141.99089816297803,84.99027703256417L142.19722030503408,147.54433296841668L142.6098645891462,125.26102712561055L142.81618673120227,175.18715898167898L143.02250887325832,125.27108352439782L143.22883101531437,162.67593130407377L143.43515315737042,135.6648000235458L143.64147529942647,179.52180954099575L143.84779744148256,164.88318562714767L144.0541195835386,198.4169525174228L144.26044172559466,215.87778678922874L144.4667638676507,120.87449978303468L144.6730860097068,199.17178871001227L144.87940815176282,141.0988535297058L145.31268465008057,202.06063753752247L145.5190067921366,179.7574956787598L145.72532893419265,86.81152643914686L145.93165107624873,176.13180146383002L146.13797321830475,121.18777703437758L146.34429536036083,181.6832235560983L146.55061750241688,178.56533134965602L146.75693964447296,146.64762642648753L146.963261786529,190.98827887119683L147.16958392858504,167.85451537682135L147.58222821269715,119.10247796422453L147.78855035475323,152.75501052877502L147.99487249680928,130.0420341742192L148.20119463886536,125.78193013068329L148.40751678092138,169.28556860241173L148.61383892297744,170.02201858751988L148.82016106503352,160.98252864485218L149.02648320708954,142.79929435007077L149.23280534914562,211.4434948474326L149.43912749120167,172.44688916272565L149.64544963325773,169.3601414783467L149.85177177531378,135.00057686065816L150.2850482736315,143.70742801880013L150.49137041568756,159.18356674855687L150.6976925577436,188.1282285120355L150.9040146997997,95.97510680721712L151.11033684185574,112.86400481562225L151.7293032680239,184.7236169095011L152.34826969419208,183.87584799364944L152.55459183624814,166.28998751097058L152.76091397830416,167.75877529714805L153.1735582624163,164.68344155949225L153.37988040447235,216.12525591587328L153.5862025465284,173.28951784852876L153.79252468858448,163.42558772638355L153.99884683064053,145.02850668150586L154.20516897269655,208.81598058762094L154.6178132568087,194.55942074722685L155.0304575409208,124.51686679542959L155.23677968297687,153.74400397019102L155.67005618129457,138.42742325317175L155.87637832335062,154.5880956445464L156.0827004654067,143.69944089210932L156.28902260746273,165.55797921182744L156.4953447495188,135.49059894520852L157.11431117568696,128.49910845464933L157.32063331774302,134.07022158202665L157.5269554597991,142.46939702157093L157.73327760185512,163.60100137180922L158.14592188596725,179.51027697357915L158.55856617007936,158.19457330714087L158.9712104541915,80.19852822116178L159.3838547383036,192.0148355321983L159.59017688035965,147.8991538226134L159.79649902241573,172.83468656969532L160.00282116447175,195.35909556193204L160.2091433065278,144.9338605482275L160.64241980484553,160.62329246484452L160.84874194690158,174.80613613431174L161.05506408895766,115.5811567794342L161.26138623101372,178.78891817669043L161.46770837306977,184.43152004197358L161.67403051512582,137.56941341745417L162.08667479923793,179.0118855401036L162.29299694129398,174.42673443642136L162.49931908335006,193.15736369114106L162.7056412254061,155.35120892552172L163.11828550951822,142.1503996167894L163.32460765157427,165.76908450589784L163.53092979363035,158.25215706376156L163.73725193568637,80.17583212848592L164.1498962197985,206.6213000580504L164.35621836185453,228.37443071158083L164.5625405039106,159.42130897834033L164.76886264596666,134.34912519242957L164.97518478802274,199.8026267377385L165.18150693007877,193.0541505077818L165.38782907213485,169.25699419537267L165.5941512141909,153.93624857400638L165.82110557045254,155.84630533973538L166.23374985456468,114.87581177615823L166.4400719966207,147.04269923598744L166.85271628073284,166.41879640395615L167.05903842278892,133.04698630044115L167.26536056484494,194.56268940633464L167.471682706901,127.72709862166693L167.67800484895707,160.82098044048053L167.8843269910131,174.00661948053113L168.09064913306918,181.16707855883973L168.29697127512523,169.45444492962181L168.5032934171813,103.37629999279898L168.9159377012934,175.00200525931518L169.12225984334947,134.9275855939689L169.3285819854055,193.00725579364666L169.53490412746157,150.01932737663424L169.74122626951763,110.2651045030808L169.9475484115737,119.09479397930582L170.15387055362973,179.268462099988L170.36019269568578,180.36232941447125L170.56651483774186,153.95869424521834L170.77283697979792,124.77290297215504L170.99979133605956,150.15426500544692L171.20611347811564,206.59569116834703L171.4124356201717,163.13650909649994L171.61875776222774,169.64498930349805L171.8250799042838,168.3037451229096L172.03140204633985,171.56263779360643L172.2377241883959,174.60942348437726L172.44404633045195,194.61328772212013L172.65036847250803,73.7385770578527L172.8566906145641,145.32832707418322L173.0630127566201,147.3596010085184L173.2693348986762,119.78764426954072L173.68197918278833,193.8858265495584L173.88830132484435,171.66741940613434L174.09462346690043,140.79385336674875L174.5072677510125,87.2992420102139L174.7135898930686,131.26145490265728L174.91991203512464,68.67597766312343L175.12623417718072,114.08006462441321L175.33255631923674,146.54171132733353L176.38479924372265,180.91185954689124L176.59112138577868,158.2687771409185L176.79744352783476,143.41244471439921L177.2100878119469,173.2031092634051L177.41640995400292,120.25125347968782L177.62273209605897,149.11404060454714L177.82905423811505,165.9327942429053L178.03537638017107,155.02541060098366L178.4480206642832,165.01604080378684L178.6543428063393,205.12176315212102L178.8606649483953,181.06693633343255L179.06698709045136,172.57662066110456L179.27330923250744,148.8061276445626L179.47963137456347,178.6341972522294L179.68595351661955,125.8112953423452L179.8922756586756,158.7471612174359L180.09859780073168,187.54499692260495L180.3049199427877,150.8464431117524L180.51124208484376,202.0155089537117L180.71756422689984,172.88500810386282L180.9238863689559,155.36200340862365L181.35716286727362,188.4131422375721L181.56348500932967,152.88634999655372L181.76980715138572,221.48691125881115L181.97612929344177,180.29611270738442L182.18245143549782,173.65298483326868L182.3887735775539,169.33583741627103L182.59509571960993,196.98397500058348L182.801417861666,117.19176219464316L183.00774000372206,149.6335597015299L183.62670642989022,173.8020515046763L183.8330285719463,188.2574328073325L184.03935071400232,135.03071969686587L184.2456728560584,156.89843135020908L184.45199499811446,138.32849359485294L184.65831714017048,149.30233118524825L185.07096142428261,145.07072246828912L185.2772835663387,164.4127359570129L185.48360570839472,182.37525668155627L185.6899278504508,147.93924761699202L185.89624999250685,181.40522937101167L186.10257213456288,156.106269179421L186.30889427661896,156.4155001471103L186.53584863288063,189.37930778554176L186.94849291699273,173.72866483567563L187.1548150590488,179.93254028202813L187.36113720110487,177.92651937531602L187.5674593431609,144.83185993195661L187.77378148521694,124.33321560184922L187.98010362727302,192.03295813813867L188.18642576932905,119.41748180566066L188.39274791138513,159.64886300856605L188.59907005344118,84.75240300201023L188.80539219549726,184.71581430388895L189.21803647960934,182.47354051609975L189.42435862166542,173.45392612961973L189.63068076372147,149.90649273703028L190.04332504783358,148.05581221840043L190.24964718988966,174.37120677182008L190.45596933194568,119.92105300941589L190.66229147400173,161.12304144625597L190.86861361605781,173.0294881084579L191.07493575811387,147.06018919822952L191.28125790016992,158.14107537440492L191.48758004222597,178.50545425962906L191.71453439848764,140.6344403348588L191.9208565405437,123.98833252574633L192.12717868259975,143.7789826570912L192.3335008246558,109.36450983842263L192.53982296671188,118.40850736744059L192.7461451087679,183.0320726411432L193.15878939288004,188.71387205556573L193.3651115349361,120.14243876358336L193.57143367699214,180.730738928104L193.7777558190482,152.59509665395726L193.98407796110428,116.31735634307844L194.1904001031603,169.00135342095865L194.60304438727243,153.91574037412042L194.80936652932846,116.15861549511791L195.2220108134406,138.59722218577517L195.42833295549667,151.24333477188486L195.84097723960878,156.7584721120413L196.25362152372085,168.64883908024524L196.89322016409463,172.314178966934L197.0995423061507,137.9453092148499L197.71850873231887,102.45656785626778L197.92483087437492,139.9741711950854L198.131153016431,141.96736788683026L198.33747515848702,127.0536757650001L198.5437973005431,108.49728712884882L198.95644158465524,124.11416272131916L199.16276372671126,172.56516717415025L199.3690858687673,181.04814154356276L200.19437443699155,211.62178174965462L200.60701872110366,145.27232492680824L200.8133408631597,124.03658478781736L201.0196630052158,163.61315340284705L201.22598514727184,122.2290426613641L201.4323072893279,115.2654675739916L201.63862943138395,133.646666626027L201.84495157344,129.72022941302654L202.27822807175772,167.12814815065457L202.48455021381378,142.18665800874717L202.69087235586986,171.31810782414348L203.10351663998196,189.9082242774594L203.309838782038,183.09774896507108L203.51616092409407,152.38098630232003L203.72248306615012,123.05893939273929L203.92880520820617,135.4845229296896L204.13512735026225,133.9187956768275L204.34144949231828,129.52198787415455L204.54777163437436,188.10196061847975L204.7540937764304,135.55754055653296L204.96041591848643,157.9982824196719L205.1667380605425,141.8093387630303L205.57938234465465,195.10632804431438L205.78570448671067,190.64960361138333L206.1983487708228,149.13788336392614L206.6109930549349,146.1751338444104L206.81731519699096,189.7100090987415L207.45691383736474,196.85188426841307L207.66323597942082,175.11619744685504L208.0758802635329,108.13710198329375L208.28220240558898,165.9509563890768L208.48852454764503,154.41046774617675L208.69484668970108,178.54760414602708L208.90116883175713,168.5099737884724L209.31381311586924,162.52010325314075L209.5201352579253,136.6842658030957L209.93277954203742,138.03571136331897L210.13910168409348,170.32902212218815L210.5517459682056,185.8377683625605L210.75806811026163,162.4309268518371L210.96439025231768,152.9976952874513L211.17071239437377,165.59709768050453L211.37703453642982,92.22321335455717L211.58335667848587,134.94056796986072L211.78967882054192,178.52782085037873L211.99600096259798,245.83589103704654L212.20232310465406,118.00440620516312L212.63559960297175,185.77344958656852L212.84192174502783,160.56188648588005L213.04824388708386,146.4793432027446L213.25456602913994,180.93787701898307L213.460888171196,208.96171269953555L213.66721031325204,168.76262268539662L213.8735324553081,219.0872805311514L214.90514316558838,188.7306107534161L215.3177874497005,156.79453280284335L215.52410959175654,153.49450511168115L215.73043173381262,109.19651657637473L215.93675387586865,185.66953785912574L216.14307601792473,128.77302999592828L216.34939815998078,156.17717799393674L216.5557203020368,201.53762572012212L216.76204244409288,184.28436448173784L216.96836458614894,122.6704961619943L217.17468672820502,173.93515710277939L217.38100887026104,153.86489163687102L217.6079632265227,173.62864123096188L218.02060751063482,96.54973180633561L218.43325179474695,146.6747905652825L218.639573936803,177.72656442642784L218.84589607885906,123.54035488697761L219.0522182209151,163.93460230195942L219.4648625050272,151.01538533934772L219.67118464708327,193.51495236151777L220.0838289311954,198.2590551943933L220.29015107325145,149.1750248210461L220.4964732153075,182.92493179482378L220.70279535736358,171.4816725803034L221.11543964147566,152.56509879859706L221.32176178353174,186.4586158918847L221.9407282096999,222.51048263236135L222.14705035175595,165.94385232754817L222.78664899212973,199.75071041424826L223.19929327624183,203.79626916360436L223.4056154182979,165.7435678767338L223.61193756035397,183.02751233448475L223.81825970241005,186.57626125961102L224.02458184446607,145.19974224250745L224.23090398652212,159.0298606900285L224.4372261285782,149.71320690712815L225.05619255474636,194.01296157275894L225.26251469680238,172.45214801346762L225.46883683885846,167.60253866382655L225.67515898091452,165.72236113276432L225.8814811229706,163.0403472543611L226.2941254070827,160.34691942923473L226.50044754913876,177.93301715330045L226.70676969119478,195.53230813449076L226.91309183325086,130.08712321779882L227.1194139753069,157.02368162239182L227.53205825941902,85.98012717898825L227.7383804014751,105.82900689072915L227.96533475773677,152.83892807933668L228.1716568997928,195.16977693522122L228.37797904184885,158.20806970603755L228.58430118390493,110.60975033779684L228.79062332596098,144.8151080540292L228.99694546801703,211.93335877105838L229.20326761007308,153.89626022024416L229.40958975212916,191.73556287963805L229.82223403624124,187.31731109160876L230.23487832035337,167.05810922122396L230.64752260446548,140.22513304214755L230.85384474652156,153.38812870983048L231.0601668885776,157.31009787671184L231.26648903063364,68.6622176626858L231.47281117268972,125.77241411505497L232.09177759885787,152.38321373534106L232.50442188297,156.16767515838546L232.71074402502603,150.8509902383338L233.14402052334378,140.32325871576646L233.3503426653998,176.51756913893436L233.5566648074559,186.99006295859547L233.76298694951194,155.84903361568422L233.96930909156802,161.6485970185265L234.3819533756801,176.3498921987356L235.20724194390434,125.47065625105162L235.41356408596036,160.7156979850248L235.61988622801644,170.87165907431228L235.8262083700725,98.79920191619277L236.03253051212857,163.18936120546056L236.85781908035278,159.70647312534084L237.06414122240884,116.10242882666427L237.2704633644649,154.17157884969015L237.47678550652097,139.375176233506L237.88942979063307,148.50592502965085L238.09575193268913,145.8600245623579L238.32270628895077,126.87582380532064L238.7353505730629,161.8552738067089L238.94167271511895,99.3757775667143L239.147994857175,113.79247534323596L239.56063914128714,111.91010991938384L239.97328342539922,172.64582924568117L240.1796055674553,147.81938799632172L240.38592770951135,201.7522237346101L240.79857199362345,120.63678391340531L241.00489413567954,147.85018983638182L241.2112162777356,115.56258605087422L241.4175384197916,168.67393394694375L241.6238605618477,183.55627066547783L241.83018270390374,137.50622812808828L242.0365048459598,147.8713438600431L242.24282698801585,126.16615573677308L242.4491491300719,157.07073449745153L242.65547127212798,178.8153574112478L242.861793414184,140.61560600475786L243.0681155562401,210.40993956551887L243.27443769829614,168.00496595631898L243.70771419661386,155.11786884147213L243.91403633866992,137.9629705180936L244.120358480726,135.73369228627328L244.53300276483807,189.26211054043506L244.73932490689415,169.20738438536574L244.94564704895018,79.52307563262963L245.15196919100626,162.46762018633746L245.56461347511834,209.6826629140358L245.77093561717442,154.14052658816615L245.97725775923047,159.15561180513905L246.18357990128655,100.45330158565861L246.8025463274547,179.64771881703086L247.00886846951076,173.87492415067214L247.2151906115668,111.60011450722578L247.42151275362286,149.20809363435836L248.2468013218471,184.67172694616494L248.6800778201648,135.67435557940527L248.88639996222088,149.6600121161643L249.09272210427693,162.34231719384653L249.29904424633298,176.8678165063956L249.50536638838904,131.44558057901136L249.71168853044512,174.2339626295241L249.91801067250117,113.70655442096307L250.1243328145572,111.96584846521787L250.33065495661327,207.88946071141027L250.53697709866933,184.053449531865L250.74329924072538,159.07067938864472L250.94962138278143,123.531313354123L251.1559435248375,196.9421677961887L251.36226566689356,139.84190912191337L251.5685878089496,139.9886165595295L251.98123209306172,170.72897156019565L252.18755423511777,179.14524155967058L252.39387637717383,105.5082565357003L252.6001985192299,162.38811796158672L252.80652066128596,151.85572069174455L253.01284280334198,126.55744586416034L253.21916494539806,148.68736197028724L253.85876358577184,128.55447795832603L254.0650857278279,146.0414087826861L254.47773001194,210.4408600262724L254.68405215399605,107.27206716650983L254.89037429605213,172.6344680192662L255.09669643810815,45.787983065453375L255.30301858016423,187.5046658868395L255.5093407222203,136.12373030634103L255.71566286427634,172.79149545721054L255.9219850063324,148.57684702424365L256.12830714838844,180.7143297321798L256.3346292904445,228.6817110278671L256.74727357455663,163.118781892871L256.95359571661265,169.49847956703763L257.3662400007248,180.8229862873597L257.57256214278084,143.56380471921312L257.98520642689294,163.9157679718585L258.191528568949,189.8222769950324L258.39785071100505,153.99351600877793L258.60417285306113,137.3228273559718L258.8104949951172,210.8423910735256L259.0374493513788,214.52072651618323L259.2437714934349,112.03333045970126L259.450093635491,208.05481795804866L259.656415777547,187.7242855106826L260.0690600616591,114.00139274451647L260.2753822037152,87.31774683838864L260.4817043457713,166.05347102835253L260.8943486298834,165.68524603579846L261.1006707719394,101.76258407940679L261.3069929139955,185.79080774804012L261.5133150560515,167.79861867006275L261.7196371981076,114.54891950522523L261.9259593401637,174.39520769212365L262.1322814822197,188.65802806911532L262.3386036242758,149.80465028168396L262.5449257663318,158.17146863207654L262.7512479083879,141.77713983480317L263.5765364766121,153.50780380942211L263.7828586186682,155.92406779431585L263.9891807607242,157.0599400143496L264.42245725904195,216.83927340984653L264.628779401098,86.58641072317494L264.835101543154,171.81095044518202L265.0414236852101,170.398850170386L265.24774582726616,178.01963661965686L265.45406796932224,134.31185193453913L265.66039011137826,113.57670430189074L266.07303439549037,185.36912436298124L266.2793565375464,143.81579461228498L266.4856786796025,158.49811048154564L266.89832296371463,198.39616753591883L267.10464510577066,189.48466932145976L267.3109672478267,176.64424285943824L267.51728938988276,154.01503907459656L267.92993367399487,165.79883193979413L268.13625581605095,159.05909410091994L268.34257795810703,104.76010264217393L268.54890010016305,102.1627575787241L268.7552222422191,145.36748508309145L268.96154438427516,148.9080228202171L269.60114302464893,156.96302690781906L269.807465166705,146.68724573809243L270.42643159287314,164.87974562703826L270.6327537349292,147.11338398919338L270.83907587698525,134.4220241985795L271.2517201610974,147.96684669832956L271.45804230315343,159.6805083735572L271.6643644452095,138.8714468688262L272.0770087293216,153.1753100057439L272.28333087137764,121.23910025440068L272.4896530134337,148.2063286982833L272.9022972975459,143.1818724465296L273.1086194396019,188.74168201813603L273.31494158165793,132.20729677181964L273.521263723714,172.66859123874227L273.72758586577004,123.5596505197752L273.9339080078261,192.78063754889132L274.1402301498822,153.69229852793353L274.5735066481999,146.80491746597284L275.1924730743681,180.21094304950324L275.3987952164241,106.9908043223154L276.0177616425923,149.24354804161624L276.22408378464837,183.55727235133344L276.4304059267044,110.09748028319024L276.6367280687605,183.95794669357855L277.2556944949286,198.71905306342939L277.4620166369847,121.89789322554475L277.66833877904077,200.04471839294766L277.8746609210968,186.26504010028754L278.08098306315287,119.77032564830026L278.2873052052089,175.4487044306103L278.493627347265,179.31597627774437L278.699949489321,163.48302650215672L278.9062716313771,162.90374893584044L279.11259377343316,187.2205561460028L279.3189159154892,192.20863538510528L279.52523805754527,139.28523538773362" fill="none"></path></g></g></g></g></g></g><g transform="translate(41, 176)" clip-path="url(#clip_1)"><clipPath id="clip_1"><rect width="288" height="23"></rect></clipPath><g><g><line x1="0" y1="0" x2="0" y2="5" style="visibility: inherit;" fill="rgb(0, 0, 0)" stroke="rgb(204, 204, 204)" stroke-width="1px"></line><line x1="20.632214205605642" y1="0" x2="20.632214205605642" y2="5" style="visibility: inherit;" fill="rgb(0, 0, 0)" stroke="rgb(204, 204, 204)" stroke-width="1px"></line><line x1="41.264428411211284" y1="0" x2="41.264428411211284" y2="5" style="visibility: inherit;" fill="rgb(0, 0, 0)" stroke="rgb(204, 204, 204)" stroke-width="1px"></line><line x1="61.896642616816926" y1="0" x2="61.896642616816926" y2="5" style="visibility: inherit;" fill="rgb(0, 0, 0)" stroke="rgb(204, 204, 204)" stroke-width="1px"></line><line x1="82.52885682242257" y1="0" x2="82.52885682242257" y2="5" style="visibility: inherit;" fill="rgb(0, 0, 0)" stroke="rgb(204, 204, 204)" stroke-width="1px"></line><line x1="103.16107102802822" y1="0" x2="103.16107102802822" y2="5" style="visibility: inherit;" fill="rgb(0, 0, 0)" stroke="rgb(204, 204, 204)" stroke-width="1px"></line><line x1="123.79328523363385" y1="0" x2="123.79328523363385" y2="5" style="visibility: inherit;" fill="rgb(0, 0, 0)" stroke="rgb(204, 204, 204)" stroke-width="1px"></line><line x1="144.4254994392395" y1="0" x2="144.4254994392395" y2="5" style="visibility: inherit;" fill="rgb(0, 0, 0)" stroke="rgb(204, 204, 204)" stroke-width="1px"></line><line x1="165.05771364484514" y1="0" x2="165.05771364484514" y2="5" style="visibility: inherit;" fill="rgb(0, 0, 0)" stroke="rgb(204, 204, 204)" stroke-width="1px"></line><line x1="185.6899278504508" y1="0" x2="185.6899278504508" y2="5" style="visibility: inherit;" fill="rgb(0, 0, 0)" stroke="rgb(204, 204, 204)" stroke-width="1px"></line><line x1="206.32214205605644" y1="0" x2="206.32214205605644" y2="5" style="visibility: inherit;" fill="rgb(0, 0, 0)" stroke="rgb(204, 204, 204)" stroke-width="1px"></line><line x1="226.95435626166207" y1="0" x2="226.95435626166207" y2="5" style="visibility: inherit;" fill="rgb(0, 0, 0)" stroke="rgb(204, 204, 204)" stroke-width="1px"></line><line x1="247.5865704672677" y1="0" x2="247.5865704672677" y2="5" style="visibility: inherit;" fill="rgb(0, 0, 0)" stroke="rgb(204, 204, 204)" stroke-width="1px"></line><line x1="268.21878467287337" y1="0" x2="268.21878467287337" y2="5" style="visibility: inherit;" fill="rgb(0, 0, 0)" stroke="rgb(204, 204, 204)" stroke-width="1px"></line><line x1="288.850998878479" y1="0" x2="288.850998878479" y2="5" style="visibility: inherit;" fill="rgb(0, 0, 0)" stroke="rgb(204, 204, 204)" stroke-width="1px"></line></g><g transform="translate(0, 8)"><text style="text-anchor: middle; visibility: hidden; font-family: Roboto, sans-serif; font-size: 12px; font-weight: 200;" x="0" y="0" dx="0em" dy="0.95em" fill="rgb(255, 255, 255)" stroke="none" stroke-width="1px">-1k</text><text style="text-anchor: middle; visibility: inherit; font-family: Roboto, sans-serif; font-size: 12px; font-weight: 200;" x="20.632214205605642" y="0" dx="0em" dy="0.95em" fill="rgb(255, 255, 255)" stroke="none" stroke-width="1px">0</text><text style="text-anchor: middle; visibility: hidden; font-family: Roboto, sans-serif; font-size: 12px; font-weight: 200;" x="41.264428411211284" y="0" dx="0em" dy="0.95em" fill="rgb(255, 255, 255)" stroke="none" stroke-width="1px">1k</text><text style="text-anchor: middle; visibility: inherit; font-family: Roboto, sans-serif; font-size: 12px; font-weight: 200;" x="61.896642616816926" y="0" dx="0em" dy="0.95em" fill="rgb(255, 255, 255)" stroke="none" stroke-width="1px">2k</text><text style="text-anchor: middle; visibility: hidden; font-family: Roboto, sans-serif; font-size: 12px; font-weight: 200;" x="82.52885682242257" y="0" dx="0em" dy="0.95em" fill="rgb(255, 255, 255)" stroke="none" stroke-width="1px">3k</text><text style="text-anchor: middle; visibility: inherit; font-family: Roboto, sans-serif; font-size: 12px; font-weight: 200;" x="103.16107102802822" y="0" dx="0em" dy="0.95em" fill="rgb(255, 255, 255)" stroke="none" stroke-width="1px">4k</text><text style="text-anchor: middle; visibility: hidden; font-family: Roboto, sans-serif; font-size: 12px; font-weight: 200;" x="123.79328523363385" y="0" dx="0em" dy="0.95em" fill="rgb(255, 255, 255)" stroke="none" stroke-width="1px">5k</text><text style="text-anchor: middle; visibility: inherit; font-family: Roboto, sans-serif; font-size: 12px; font-weight: 200;" x="144.4254994392395" y="0" dx="0em" dy="0.95em" fill="rgb(255, 255, 255)" stroke="none" stroke-width="1px">6k</text><text style="text-anchor: middle; visibility: hidden; font-family: Roboto, sans-serif; font-size: 12px; font-weight: 200;" x="165.05771364484514" y="0" dx="0em" dy="0.95em" fill="rgb(255, 255, 255)" stroke="none" stroke-width="1px">7k</text><text style="text-anchor: middle; visibility: inherit; font-family: Roboto, sans-serif; font-size: 12px; font-weight: 200;" x="185.6899278504508" y="0" dx="0em" dy="0.95em" fill="rgb(255, 255, 255)" stroke="none" stroke-width="1px">8k</text><text style="text-anchor: middle; visibility: hidden; font-family: Roboto, sans-serif; font-size: 12px; font-weight: 200;" x="206.32214205605644" y="0" dx="0em" dy="0.95em" fill="rgb(255, 255, 255)" stroke="none" stroke-width="1px">9k</text><text style="text-anchor: middle; visibility: inherit; font-family: Roboto, sans-serif; font-size: 12px; font-weight: 200;" x="226.95435626166207" y="0" dx="0em" dy="0.95em" fill="rgb(255, 255, 255)" stroke="none" stroke-width="1px">10k</text><text style="text-anchor: middle; visibility: hidden; font-family: Roboto, sans-serif; font-size: 12px; font-weight: 200;" x="247.5865704672677" y="0" dx="0em" dy="0.95em" fill="rgb(255, 255, 255)" stroke="none" stroke-width="1px">11k</text><text style="text-anchor: middle; visibility: inherit; font-family: Roboto, sans-serif; font-size: 12px; font-weight: 200;" x="268.21878467287337" y="0" dx="0em" dy="0.95em" fill="rgb(255, 255, 255)" stroke="none" stroke-width="1px">12k</text><text style="text-anchor: middle; visibility: hidden; font-family: Roboto, sans-serif; font-size: 12px; font-weight: 200;" x="288.850998878479" y="0" dx="0em" dy="0.95em" fill="rgb(255, 255, 255)" stroke="none" stroke-width="1px">13k</text></g><line x1="0" y1="0" x2="288.850998878479" y2="0" fill="rgb(0, 0, 0)" stroke="rgb(204, 204, 204)" stroke-width="1px"></line></g></g></g></g></svg>