<svg viewBox="0 0 330 200" xmlns="http://www.w3.org/2000/svg"><g><g><g><g><g><line x1="61.91500186920166" y1="176.89999961853027" x2="56.91500186920166" y2="176.89999961853027" style="visibility: inherit;" fill="rgb(0, 0, 0)" stroke="rgb(204, 204, 204)" stroke-width="1px"></line><line x1="61.91500186920166" y1="162.15833298365274" x2="56.91500186920166" y2="162.15833298365274" style="visibility: inherit;" fill="rgb(0, 0, 0)" stroke="rgb(204, 204, 204)" stroke-width="1px"></line><line x1="61.91500186920166" y1="147.41666634877524" x2="56.91500186920166" y2="147.41666634877524" style="visibility: inherit;" fill="rgb(0, 0, 0)" stroke="rgb(204, 204, 204)" stroke-width="1px"></line><line x1="61.91500186920166" y1="132.6749997138977" x2="56.91500186920166" y2="132.6749997138977" style="visibility: inherit;" fill="rgb(0, 0, 0)" stroke="rgb(204, 204, 204)" stroke-width="1px"></line><line x1="61.91500186920166" y1="117.9333330790202" x2="56.91500186920166" y2="117.9333330790202" style="visibility: inherit;" fill="rgb(0, 0, 0)" stroke="rgb(204, 204, 204)" stroke-width="1px"></line><line x1="61.91500186920166" y1="103.19166644414267" x2="56.91500186920166" y2="103.19166644414267" style="visibility: inherit;" fill="rgb(0, 0, 0)" stroke="rgb(204, 204, 204)" stroke-width="1px"></line><line x1="61.91500186920166" y1="88.44999980926515" x2="56.91500186920166" y2="88.44999980926515" style="visibility: inherit;" fill="rgb(0, 0, 0)" stroke="rgb(204, 204, 204)" stroke-width="1px"></line><line x1="61.91500186920166" y1="73.70833317438763" x2="56.91500186920166" y2="73.70833317438763" style="visibility: inherit;" fill="rgb(0, 0, 0)" stroke="rgb(204, 204, 204)" stroke-width="1px"></line><line x1="61.91500186920166" y1="58.966666539510115" x2="56.91500186920166" y2="58.966666539510115" style="visibility: inherit;" fill="rgb(0, 0, 0)" stroke="rgb(204, 204, 204)" stroke-width="1px"></line><line x1="61.91500186920166" y1="44.22499990463259" x2="56.91500186920166" y2="44.22499990463259" style="visibility: inherit;" fill="rgb(0, 0, 0)" stroke="rgb(204, 204, 204)" stroke-width="1px"></line><line x1="61.91500186920166" y1="29.483333269755057" x2="56.91500186920166" y2="29.483333269755057" style="visibility: inherit;" fill="rgb(0, 0, 0)" stroke="rgb(204, 204, 204)" stroke-width="1px"></line><line x1="61.91500186920166" y1="14.741666634877529" x2="56.91500186920166" y2="14.741666634877529" style="visibility: inherit;" fill="rgb(0, 0, 0)" stroke="rgb(204, 204, 204)" stroke-width="1px"></line><line x1="61.91500186920166" y1="0" x2="56.91500186920166" y2="0" style="visibility: inherit;" fill="rgb(0, 0, 0)" stroke="rgb(204, 204, 204)" stroke-width="1px"></line></g><g transform="translate(51.91500186920166, 0)"><text style="text-anchor: end; visibility: hidden; font-family: Roboto, sans-serif; font-size: 12px; font-weight: 200;" x="0" y="176.89999961853027" dx="0em" dy="0.3em" fill="rgb(255, 255, 255)" stroke="none" stroke-width="1px">-0.05</text><text style="text-anchor: end; visibility: inherit; font-family: Roboto, sans-serif; font-size: 12px; font-weight: 200;" x="0" y="162.15833298365274" dx="0em" dy="0.3em" fill="rgb(255, 255, 255)" stroke="none" stroke-width="1px">0</text><text style="text-anchor: end; visibility: hidden; font-family: Roboto, sans-serif; font-size: 12px; font-weight: 200;" x="0" y="147.41666634877524" dx="0em" dy="0.3em" fill="rgb(255, 255, 255)" stroke="none" stroke-width="1px">0.05</text><text style="text-anchor: end; visibility: inherit; font-family: Roboto, sans-serif; font-size: 12px; font-weight: 200;" x="0" y="132.6749997138977" dx="0em" dy="0.3em" fill="rgb(255, 255, 255)" stroke="none" stroke-width="1px">0.1</text><text style="text-anchor: end; visibility: hidden; font-family: Roboto, sans-serif; font-size: 12px; font-weight: 200;" x="0" y="117.9333330790202" dx="0em" dy="0.3em" fill="rgb(255, 255, 255)" stroke="none" stroke-width="1px">0.15</text><text style="text-anchor: end; visibility: inherit; font-family: Roboto, sans-serif; font-size: 12px; font-weight: 200;" x="0" y="103.19166644414267" dx="0em" dy="0.3em" fill="rgb(255, 255, 255)" stroke="none" stroke-width="1px">0.2</text><text style="text-anchor: end; visibility: hidden; font-family: Roboto, sans-serif; font-size: 12px; font-weight: 200;" x="0" y="88.44999980926515" dx="0em" dy="0.3em" fill="rgb(255, 255, 255)" stroke="none" stroke-width="1px">0.25</text><text style="text-anchor: end; visibility: inherit; font-family: Roboto, sans-serif; font-size: 12px; font-weight: 200;" x="0" y="73.70833317438763" dx="0em" dy="0.3em" fill="rgb(255, 255, 255)" stroke="none" stroke-width="1px">0.3</text><text style="text-anchor: end; visibility: hidden; font-family: Roboto, sans-serif; font-size: 12px; font-weight: 200;" x="0" y="58.966666539510115" dx="0em" dy="0.3em" fill="rgb(255, 255, 255)" stroke="none" stroke-width="1px">0.35</text><text style="text-anchor: end; visibility: inherit; font-family: Roboto, sans-serif; font-size: 12px; font-weight: 200;" x="0" y="44.22499990463259" dx="0em" dy="0.3em" fill="rgb(255, 255, 255)" stroke="none" stroke-width="1px">0.4</text><text style="text-anchor: end; visibility: hidden; font-family: Roboto, sans-serif; font-size: 12px; font-weight: 200;" x="0" y="29.483333269755057" dx="0em" dy="0.3em" fill="rgb(255, 255, 255)" stroke="none" stroke-width="1px">0.45</text><text style="text-anchor: end; visibility: inherit; font-family: Roboto, sans-serif; font-size: 12px; font-weight: 200;" x="0" y="14.741666634877529" dx="0em" dy="0.3em" fill="rgb(255, 255, 255)" stroke="none" stroke-width="1px">0.5</text><text style="text-anchor: end; visibility: hidden; font-family: Roboto, sans-serif; font-size: 12px; font-weight: 200;" x="0" y="0" dx="0em" dy="0.3em" fill="rgb(255, 255, 255)" stroke="none" stroke-width="1px">0.55</text></g><line x1="61.91500186920166" y1="0" x2="61.91500186920166" y2="176.89999961853027" fill="rgb(0, 0, 0)" stroke="rgb(204, 204, 204)" stroke-width="1px"></line></g></g><g transform="translate(61, 0)" clip-path="url(#clip_0)"><clipPath id="clip_0"><rect width="268" height="176"></rect></clipPath><g><g><g><line x1="0" y1="0" x2="0" y2="176.89999961853027" fill="rgb(0, 0, 0)" stroke="rgb(189, 189, 189)" stroke-width="1px" opacity="0.25"></line><line x1="19.148928437914165" y1="0" x2="19.148928437914165" y2="176.89999961853027" fill="rgb(0, 0, 0)" stroke="rgb(189, 189, 189)" stroke-width="1px" opacity="0.25"></line><line x1="38.29785687582833" y1="0" x2="38.29785687582833" y2="176.89999961853027" fill="rgb(0, 0, 0)" stroke="rgb(189, 189, 189)" stroke-width="1px" opacity="0.25"></line><line x1="57.446785313742495" y1="0" x2="57.446785313742495" y2="176.89999961853027" fill="rgb(0, 0, 0)" stroke="rgb(189, 189, 189)" stroke-width="1px" opacity="0.25"></line><line x1="76.59571375165666" y1="0" x2="76.59571375165666" y2="176.89999961853027" fill="rgb(0, 0, 0)" stroke="rgb(189, 189, 189)" stroke-width="1px" opacity="0.25"></line><line x1="95.74464218957084" y1="0" x2="95.74464218957084" y2="176.89999961853027" fill="rgb(0, 0, 0)" stroke="rgb(189, 189, 189)" stroke-width="1px" opacity="0.25"></line><line x1="114.89357062748499" y1="0" x2="114.89357062748499" y2="176.89999961853027" fill="rgb(0, 0, 0)" stroke="rgb(189, 189, 189)" stroke-width="1px" opacity="0.25"></line><line x1="134.04249906539917" y1="0" x2="134.04249906539917" y2="176.89999961853027" fill="rgb(0, 0, 0)" stroke="rgb(189, 189, 189)" stroke-width="1px" opacity="0.25"></line><line x1="153.19142750331332" y1="0" x2="153.19142750331332" y2="176.89999961853027" fill="rgb(0, 0, 0)" stroke="rgb(189, 189, 189)" stroke-width="1px" opacity="0.25"></line><line x1="172.34035594122753" y1="0" x2="172.34035594122753" y2="176.89999961853027" fill="rgb(0, 0, 0)" stroke="rgb(189, 189, 189)" stroke-width="1px" opacity="0.25"></line><line x1="191.48928437914168" y1="0" x2="191.48928437914168" y2="176.89999961853027" fill="rgb(0, 0, 0)" stroke="rgb(189, 189, 189)" stroke-width="1px" opacity="0.25"></line><line x1="210.63821281705583" y1="0" x2="210.63821281705583" y2="176.89999961853027" fill="rgb(0, 0, 0)" stroke="rgb(189, 189, 189)" stroke-width="1px" opacity="0.25"></line><line x1="229.78714125496998" y1="0" x2="229.78714125496998" y2="176.89999961853027" fill="rgb(0, 0, 0)" stroke="rgb(189, 189, 189)" stroke-width="1px" opacity="0.25"></line><line x1="248.9360696928842" y1="0" x2="248.9360696928842" y2="176.89999961853027" fill="rgb(0, 0, 0)" stroke="rgb(189, 189, 189)" stroke-width="1px" opacity="0.25"></line><line x1="268.08499813079834" y1="0" x2="268.08499813079834" y2="176.89999961853027" fill="rgb(0, 0, 0)" stroke="rgb(189, 189, 189)" stroke-width="1px" opacity="0.25"></line></g><g><line x1="0" y1="176.89999961853027" x2="268.08499813079834" y2="176.89999961853027" fill="rgb(0, 0, 0)" stroke="rgb(189, 189, 189)" stroke-width="1px" opacity="0.25"></line><line x1="0" y1="162.15833298365274" x2="268.08499813079834" y2="162.15833298365274" fill="rgb(0, 0, 0)" stroke="rgb(189, 189, 189)" stroke-width="1px" opacity="0.25"></line><line x1="0" y1="147.41666634877524" x2="268.08499813079834" y2="147.41666634877524" fill="rgb(0, 0, 0)" stroke="rgb(189, 189, 189)" stroke-width="1px" opacity="0.25"></line><line x1="0" y1="132.6749997138977" x2="268.08499813079834" y2="132.6749997138977" fill="rgb(0, 0, 0)" stroke="rgb(189, 189, 189)" stroke-width="1px" opacity="0.25"></line><line x1="0" y1="117.9333330790202" x2="268.08499813079834" y2="117.9333330790202" fill="rgb(0, 0, 0)" stroke="rgb(189, 189, 189)" stroke-width="1px" opacity="0.25"></line><line x1="0" y1="103.19166644414267" x2="268.08499813079834" y2="103.19166644414267" fill="rgb(0, 0, 0)" stroke="rgb(189, 189, 189)" stroke-width="1px" opacity="0.25"></line><line x1="0" y1="88.44999980926515" x2="268.08499813079834" y2="88.44999980926515" fill="rgb(0, 0, 0)" stroke="rgb(189, 189, 189)" stroke-width="1px" opacity="0.25"></line><line x1="0" y1="73.70833317438763" x2="268.08499813079834" y2="73.70833317438763" fill="rgb(0, 0, 0)" stroke="rgb(189, 189, 189)" stroke-width="1px" opacity="0.25"></line><line x1="0" y1="58.966666539510115" x2="268.08499813079834" y2="58.966666539510115" fill="rgb(0, 0, 0)" stroke="rgb(189, 189, 189)" stroke-width="1px" opacity="0.25"></line><line x1="0" y1="44.22499990463259" x2="268.08499813079834" y2="44.22499990463259" fill="rgb(0, 0, 0)" stroke="rgb(189, 189, 189)" stroke-width="1px" opacity="0.25"></line><line x1="0" y1="29.483333269755057" x2="268.08499813079834" y2="29.483333269755057" fill="rgb(0, 0, 0)" stroke="rgb(189, 189, 189)" stroke-width="1px" opacity="0.25"></line><line x1="0" y1="14.741666634877529" x2="268.08499813079834" y2="14.741666634877529" fill="rgb(0, 0, 0)" stroke="rgb(189, 189, 189)" stroke-width="1px" opacity="0.25"></line><line x1="0" y1="0" x2="268.08499813079834" y2="0" fill="rgb(0, 0, 0)" stroke="rgb(189, 189, 189)" stroke-width="1px" opacity="0.25"></line></g></g></g><g><g><line x1="0" y1="162.15833298365274" x2="268.08499813079834" y2="162.15833298365274" fill="rgb(0, 0, 0)" stroke="rgb(153, 153, 153)" stroke-width="1.5px"></line></g></g><g><g><line x1="19.148928437914165" y1="0" x2="19.148928437914165" y2="176.89999961853027" fill="rgb(0, 0, 0)" stroke="rgb(153, 153, 153)" stroke-width="1.5px"></line></g></g><g><g><g><g><g><path style="fill: none;" stroke="rgb(204, 51, 17)" stroke-width="2px" d="M19.321268793855396,152.27042390799906L19.70424736261368,151.5352032985883L19.89573664699282,150.15014737846494L20.08722593137196,148.36003900293676L20.661693784509385,145.64261167124192L21.04467235326767,142.6367940458984L21.23616163764681,142.11309172726942L21.427650922025954,141.54722564574985L22.002118775163378,140.77538938758366L22.19360805954252,140.48806006107645L22.38509734392166,140.35010292941791L22.576586628300802,139.65112957600803L22.768075912679944,139.52893495668596L22.95956519705909,138.98111744590153L23.151054481438226,138.23355904396288L23.534033050196513,137.52818283563414L23.72552233457565,137.89006054977992L24.12764983177185,137.3068731227168L24.319139116150993,136.9444837118832L24.510628400530134,136.78961489805303L24.702117684909275,136.71921522888928L24.893606969288417,137.14434795636518L25.085096253667558,137.37369155769818L25.276585538046703,137.12317462814758L25.46807482242584,136.71851879872338L25.659564106804982,136.46212348351085L25.851053391184127,136.33454343693563L26.234031959942406,135.67820245944017L26.42552124432155,135.713997028498L26.617010528700693,135.98165378538633L26.808499813079834,135.78125614667462L26.999989097458975,135.8095037731529L27.38296766621726,135.77289764250315L27.5744569505964,135.1584894039183L28.148924803733824,134.65232921454947L28.34041408811297,134.41378268009444L28.53190337249211,133.80403518306534L28.723392656871248,133.92296587153783L28.934030869688307,133.48413726140626L29.12552015406745,133.14753768985238L29.31700943844659,133.14345085896633L29.50849872282573,132.5757875524338L29.699988007204873,132.48572595479962L29.891477291584014,132.63955660054629L30.2744558603423,132.4128399558849L30.46594514472144,132.25799723510409L30.848923713479724,132.27330621108706L31.040412997858866,132.1860994938998L31.231902282238007,132.24286230216205L31.42339156661715,132.16253162290957L31.80637013537543,132.05720324229296L31.997859419754572,131.95966576684026L32.189348704133714,131.68472209977122L32.38083798851286,131.49877620339538L32.76381655727114,131.39701289552335L32.95530584165028,131.25045827669763L33.146795126029424,130.43041548506196L33.33828441040857,130.58758326804525L33.740411907604766,130.1165688004542L34.12339047636304,129.97654726297853L34.31487976074219,129.79909112071311L34.50636904512133,129.76551647043038L34.69785832950047,129.7682583499629L34.889347613879615,129.93215289548243L35.08083689825876,129.90856023218547L35.27232618263789,129.85036683536705L35.463815467017035,129.6394709603378L35.65530475139618,129.29129322432584L35.84679403577532,128.92353026920998L36.03828332015446,128.72626946162222L36.22977260453361,128.43873458644862L36.42126188891275,128.111261693041L36.61275117329188,127.57789590082088L36.99572974205017,127.4535385548297L37.378708310808456,127.12884616656426L37.5701975951876,126.9283594201992L37.76168687956673,127.06405102152337L38.33615473270416,127.14725610214583L38.54679294552122,127.11316967147904L38.738282229900356,126.92741956479905L39.121260798658646,126.49384145238265L39.312750083037784,126.43843984619994L39.69572865179607,126.53468004689434L39.88721793617521,126.13732536157873L40.07870722055435,126.08160641445309L40.270196504933494,126.1844199216225L40.46168578931264,126.2672583541418L40.65317507369178,126.34749941160399L40.84466435807092,126.3132331039671L41.2276429268292,126.34191566212681L41.41913221120834,126.29668522335531L41.61062149558749,125.99093177822648L41.802110779966625,125.81117648856335L41.99360006434577,125.90535820285092L42.18508934872491,125.88960321123163L42.37657863310405,125.76465365327735L42.56806791748319,125.74770086593452L42.759557201862336,125.50376945138302L42.95104648624148,125.56946476840119L43.35317398343768,125.46262126528957L43.544663267816816,125.39786701508L43.73615255219596,125.25331486745908L43.927641836575106,125.27708619504811L44.119131120954236,125.21218614040743L44.31062040533338,125.26592877955558L44.502109689712526,125.1356754210307L44.693598974091664,125.1032250737545L45.076577542849954,125.00937593658492L45.45955611160823,124.91420772242412L45.651045395987374,124.80634554346412L45.84253468036652,124.5948504254989L46.03402396474566,124.59899495239846L46.2255132491248,124.24810650499346L46.41700253350395,124.1646516434627L46.79998110226222,124.0251636415L46.99147038664137,123.9464523675692L47.182959671020505,123.89584231426974L47.37444895539965,123.82080820151947L47.565938239778795,123.64725111565723L47.75742752415793,123.45508031457702L48.15955502135413,123.28905245579246L48.54253359011241,123.33648452538584L48.73402287449155,123.26905835898465L48.925512158870696,123.18912852175137L49.308490727628985,123.02785749856534L49.49998001200812,123.11001441713778L49.69146929638726,123.22096189751157L49.882958580766406,122.95705064612642L50.074447865145544,122.95119702208171L50.26593714952469,123.13261475712933L50.457426433903834,123.03029823828876L50.64891571828297,122.59042509912179L50.840405002662116,122.44943065252285L51.031894287041254,122.19392939648276L51.22338357142039,122.15153854078459L51.60636214017868,122.17999109660283L51.79785142455783,121.84441248923902L51.989340708936965,121.99389483928664L52.18082999331611,122.01217860686532L52.37231927769525,121.85777558099356L52.75529784645353,121.63283569119626L52.96593605927058,121.58823283036361L53.15742534364973,121.52995412581947L53.34891462802887,121.46288707520843L53.54040391240801,121.55797483768684L53.9233824811663,121.37647764661475L54.11487176554543,121.24126655197384L54.306361049924575,120.90158639638332L54.49785033430372,120.89287939829661L54.68933961868286,120.93714164803853L54.880828903062,120.8347698052263L55.07231818744115,120.68280502169004L55.64678604057857,120.62370712450554L55.83827532495771,120.55145730541786L56.02976460933685,120.52752812267735L56.221253893715996,120.48885876044835L56.41274317809514,120.17186093459703L56.79572174685342,119.92213859603048L57.1787003156117,119.95929076740661L57.370189599990844,119.96636438250162L57.56167888436999,120.04245337704664L57.77231709718704,119.99005496938787L58.155295665945324,119.99755534181224L58.34678495032447,119.91512185040597L58.53827423470361,119.95725514779403L58.72976351908275,119.85644077758039L58.92125280346189,119.8694388835346L59.112742087841035,119.8084322664585L59.30423137222018,119.7997319546047L59.49572065659932,119.65411923459642L59.687209940978455,119.65707482146664L59.8786992253576,119.63555072522516L60.26167779411588,119.7016631649024L60.45316707849503,119.69263104779195L60.644656362874166,119.64732393608556L60.83614564725331,119.41680412782748L61.21912421601159,119.34371964990298L61.41061350039073,119.36309635765224L61.602102784769876,119.46852985290556L61.79359206914902,119.42098528547669L61.98508135352816,119.39978249401096L62.176570637907304,119.42810836213803L62.36805992228644,119.39509257684844L62.5786981351035,119.40807796653176L62.770187419482646,119.40798583839344L63.34465527262007,119.41055702691266L63.536144556999204,119.36021846551769L63.72763384137835,119.36528421761699L63.919123125757494,119.42707243923067L64.11061241013662,119.3287293228379L64.30210169451577,119.23598691053073L64.49359097889491,118.98705132422022L64.68508026327406,118.8697840687029L64.87656954765319,118.7423532059162L65.06805883203234,118.69716135226192L65.25954811641148,118.68573268819175L65.64252668516977,118.58066992363675L65.83401596954891,118.6466261940407L66.21699453830719,118.60899299808904L66.40848382268634,118.52302888745182L66.59997310706547,118.47813446899099L66.79146239144461,118.46264692778172L66.98295167582376,118.39344467717206L67.1744409602029,118.32663874759444L67.76805774177824,118.28518498206279L67.95954702615738,118.35059062128879L68.15103631053653,118.2785319616752L68.34252559491567,118.13950464697866L68.72550416367395,118.16848631523003L68.91699344805309,117.97615931727778L69.10848273243222,117.96431108691479L69.29997201681137,117.94851580901579L69.68295058556966,117.92508747594098L69.87443986994879,117.72207017165847L70.25741843870708,117.78827426854602L70.64039700746537,117.68877381834679L70.83188629184451,117.68348029251841L71.21486486060279,117.75478159823788L71.40635414498193,117.75215568843741L71.78933271374021,117.67786942059819L71.98082199811935,117.7682724746699L72.19146021093641,117.76699225567583L72.38294949531556,117.7022052405726L72.76592806407383,117.76557437227808L72.95741734845298,117.57056130364076L73.14890663283212,117.48507381714668L73.34039591721127,117.5260317813823L73.5318852015904,117.56352060249843L73.72337448596954,117.54557583586117L73.91486377034867,117.44801480054744L74.10635305472782,117.44964961752721L74.29784233910696,117.47573679770065L74.48933162348611,117.4631182487827L74.68082090786525,117.32043932300171L74.8723101922444,117.35228918332339L75.06379947662354,117.21610014104772L75.25528876100267,117.18438320725738L76.02124589851925,117.17235710919303L76.21273518289838,117.20375808552606L76.40422446727752,117.20111237018132L76.59571375165666,117.28779289842771L76.7872030360358,117.15878641630118L76.99784124885286,117.13701528912067L77.18933053323201,117.02916717072638L77.5723091019903,116.94215102006025L77.76379838636944,116.81573976431704L77.95528767074856,116.72035322265998L78.1467769551277,116.63696741915848L78.33826623950685,116.69382822704962L78.529755523886,116.63386350251722L78.72124480826514,116.63598631862142L79.10422337702343,116.61365077267777L79.29571266140256,116.69332639042253L79.4872019457817,116.67651306438471L79.67869123016085,116.44915469839576L79.87018051454,116.47525426648836L80.06166979891914,116.36357528911863L80.4446483676774,116.30635078441114L80.63613765205655,116.3784242095875L80.82762693643569,116.33813363264154L81.01911622081484,116.20957795053263L81.21060550519398,116.249063123755L81.59358407395227,116.25424910902927L81.80422228676933,116.1184702097792L82.18720085552759,116.06063772535408L82.57017942428588,116.06330342579902L82.76166870866503,116.01167574076901L82.95315799304417,115.86972812957704L83.14464727742332,115.86187616254551L83.33613656180245,115.90840240476334L83.52762584618159,115.88129141973666L83.91060441493988,115.83664869088906L84.10209369931903,115.74991289213042L84.29358298369817,115.68960510452716L84.67656155245645,115.64440642289215L84.86805083683558,115.64746413568788L85.05954012121472,115.69988832421684L85.25102940559387,115.70572504404463L85.44251868997301,115.74672672665173L85.63400797435216,115.79066141318826L85.82549725873129,115.81902329334183L86.01698654311043,115.67380674168926L86.20847582748958,115.69406481178397L86.39996511186872,115.60536316664137L86.61060332468577,115.62380147871889L86.99358189344406,115.61339606684432L87.1850711778232,115.60929403734926L87.37656046220233,115.60582595800199L87.56804974658148,115.55715084321648L87.95102831533977,115.58102982742881L88.14251759971891,115.56455376423104L88.5254961684772,115.48775665644067L88.71698545285633,115.44673909543098L88.90847473723548,115.47698757495348L89.09996402161462,115.49895045633576L89.29145330599376,115.40545943593636L89.4829425903729,115.4046637900469L89.67443187475205,115.35898399937747L89.86592115913118,115.41450308608984L90.05741044351032,115.31847301055465L90.24889972788947,115.31244350577019L91.01485686540605,115.28262499331649L91.20634614978518,115.30927176322115L91.41698436260224,115.20443633275337L91.79996293136051,115.07191672556698L91.99145221573966,114.99513363723052L92.56592006887709,114.95646594156872L92.75740935325622,114.90862828227279L93.14038792201451,114.82438525448606L93.33187720639366,114.83870857626836L93.5233664907728,114.79985473150892L94.09783434391021,114.7669818388153L94.28932362828935,114.82527893481192L94.4808129126685,114.74126364597103L94.67230219704764,114.64006748147938L94.86379148142679,114.62007243622239L95.05528076580593,114.61431237797882L95.24677005018506,114.63151303059503L95.43825933456421,114.64617309352835L95.62974861894335,114.67448128462462L95.8212379033225,114.66063945323116L96.01272718770164,114.76635369273207L96.22336540051869,114.74433190286477L96.41485468489783,114.68051054381571L96.60634396927698,114.69967017873007L96.79783325365612,114.71200910333437L96.98932253803525,114.65186507125041L97.1808118224144,114.66120426236266L97.37230110679354,114.6684686694729L97.56379039117269,114.62067504812525L97.75527967555183,114.55330636336117L97.94676895993098,114.52923354176279L98.1382582443101,114.51456819514884L98.52123681306838,114.3609295465749L98.71272609744753,114.35137780420857L98.90421538182667,114.29152665608929L99.09570466620582,114.30028925848337L99.67017251934324,114.36545366107316L99.86166180372238,114.28231871201393L100.05315108810153,114.22637953373989L100.24464037248067,114.25488543604413L100.43612965685982,114.30322708337835L100.62761894123894,114.12773309737585L100.81910822561808,114.09519977336429L101.02974643843514,114.00597363916177L101.22123572281428,113.9858709615655L101.41272500719343,113.94620670473698L101.79570357595172,113.86975584795931L101.98719286033086,113.86753659892997L102.17868214471,113.8340791901682L102.75314999784742,113.88099037233859L102.94463928222656,113.82709433977202L103.1361285666057,113.78611447008583L103.32761785098485,113.74337856311125L103.51910713536398,113.81569715476431L103.71059641974313,113.84275437260371L103.90208570412227,113.88265459028595L104.09357498850142,113.88818034660379L104.4765535572597,113.89885091023184L104.66804284163884,113.80671069329118L104.85953212601798,113.8163271690126L105.05102141039711,113.78594153244441L105.8361274763516,113.55424632503092L106.02761676073075,113.52760283916008L106.2191060451099,113.52329243601527L106.41059532948903,113.52294604726148L106.60208461386817,113.51696795297809L106.7935738982473,113.51265145245436L106.98506318262645,113.50136162137609L107.36804175138474,113.54812687348338L107.75102032014301,113.55188662348856L107.94250960452216,113.47418065697728L108.1339988889013,113.49056884848427L108.32548817328045,113.50253728018377L108.51697745765959,113.41542055641214L108.70846674203874,113.41799125736209L108.89995602641787,113.45125118345662L109.28293459517616,113.47551663644695L109.47442387955529,113.46522665619466L109.66591316393443,113.48833480080283L109.85740244831358,113.37644431036276L110.24038101707185,113.34652949894891L110.431870301451,113.15639022926055L110.64250851426806,113.11217843526322L111.21697636740548,113.0684504275783L111.40846565178462,113.09757402745363L111.59995493616375,113.07394787327196L111.7914442205429,113.09455223574125L111.98293350492204,113.08417475442087L112.17442278930119,113.01050762222086L112.36591207368033,113.03198511936219L112.74889064243862,113.0203883730533L112.94037992681776,113.00662735091045L113.1318692111969,112.97176579493947L113.32335849557604,112.92500746691076L113.51484777995519,112.95342432984806L113.70633706433432,112.98924081892383L114.28080491747174,112.96702895083561L114.47229420185089,112.96562275648743L114.85527277060918,113.00636593406321L115.04676205498832,113.02195817503295L115.23825133936747,112.99202717864918L115.64037883656366,113.06929030295348L115.83186812094279,112.98775826051708L116.02335740532193,112.9409237173355L116.59782525845937,112.82783164272966L116.78931454283851,112.82793500824091L116.98080382721764,112.8590506832518L117.17229311159679,112.82084334239788L117.36378239597593,112.81576279308581L117.55527168035508,112.79029676968682L117.74676096473422,112.73122278943536L117.93825024911337,112.73676516836501L118.1297395334925,112.79469460562544L118.51271810225077,112.78478890183328L118.70420738662992,112.7992864041382L118.89569667100906,112.80580388451813L119.08718595538821,112.62490679610002L119.27867523976735,112.65784520152988L119.47016452414648,112.6300273767661L119.85314309290477,112.64782603120032L120.44675987448011,112.6061163655552L120.63824915885925,112.5866046972913L120.8297384432384,112.64457006799432L121.21271701199667,112.64453265160495L121.40420629637582,112.60854488557786L121.59569558075496,112.6226906154789L121.78718486513411,112.60019944724854L121.97867414951325,112.59221224391888L122.1701634338924,112.57121658739194L122.36165271827153,112.61168322553605L122.55314200265066,112.59840973671248L122.7446312870298,112.55342624098648L122.93612057140895,112.5983017543959L123.1276098557881,112.55017212314931L123.31909914016724,112.56406685602187L123.51058842454637,112.53384944174836L123.70207770892551,112.42791152187371L123.89356699330466,112.43845987469263L124.27654556206295,112.38755878342798L124.4680348464421,112.46207437576534L124.65952413082124,112.49673634778523L125.06165162801743,112.55510988591786L125.4446301967757,112.43123418635815L125.63611948115485,112.44982801178728L125.827608765534,112.47375165132219L126.01909804991314,112.42501408618993L126.21058733429228,112.37449667832217L126.59356590305056,112.37667356378803L126.7850551874297,112.34536183882528L126.97654447180884,112.38646646805948L127.16803375618798,112.39651240866054L127.35952304056713,112.47150791321295L127.55101232494627,112.54848264065856L127.7425016093254,112.50723153241039L128.12548017808368,112.5213228202945L128.31696946246282,112.48889398390794L128.50845874684197,112.53652054840688L128.6999480312211,112.54956922156407L128.89143731560026,112.58651466778333L129.0829265999794,112.46180273592701L129.27441588435855,112.48158110349323L129.4659051687377,112.4937769295859L129.8680326659339,112.50069233923841L130.059521950313,112.55620897697503L130.25101123469216,112.4928115966512L130.8254790878296,112.53695600759949L131.59143622534617,112.49533898866417L131.7829255097253,112.49364746844114L131.97441479410443,112.51886065362098L132.35739336286272,112.52259806632864L132.54888264724187,112.54352037161273L132.740371931621,112.5053439894221L132.93186121600013,112.48292026930788L133.12335050037927,112.48708839301666L133.31483978475842,112.49849383657919L133.50632906913756,112.49683785335401L133.6978183535167,112.45045254252479L133.88930763789585,112.4548856352747L134.080796922275,112.47429040284145L134.27228620665414,112.46042426613846L134.4637754910333,112.43869007845436L134.8659029882295,112.44882596988164L135.0573922726086,112.40791213490738L135.24888155698775,112.44439850005466L135.4403708413669,112.4814573167566L135.63186012574604,112.41683596454531L135.8233494101252,112.42446118141523L136.01483869450433,112.39192606596342L136.20632797888348,112.3543844131325L136.39781726326262,112.36052485311976L136.58930654764174,112.29844070484664L136.97228511640003,112.27668543877492L137.16377440077918,112.30407303708867L137.35526368515832,112.34501717780121L137.54675296953747,112.35564616112282L137.7382422539166,112.33859531054865L137.92973153829573,112.27766202708283L138.1212208226749,112.28014796846296L138.31271010705402,112.27958522801525L138.5041993914332,112.28091710334208L138.6956886758123,112.32833398351643L138.88717796019145,112.38822984967625L139.0786672445706,112.38165759042L139.48079474176677,112.41317254049902L139.67228402614595,112.38222980814082L139.86377331052506,112.38987210856033L140.05526259490424,112.39129822575475L140.24675187928335,112.42463821315947L140.8212197324208,112.43886051047384L141.01270901679993,112.44573714070737L141.20419830117908,112.44620557466625L141.39568758555822,112.43493627986538L141.58717686993734,112.41107899638479L141.77866615431648,112.40496031945075L142.16164472307477,112.35876624355821L142.35313400745392,112.3212169306927L142.54462329183306,112.34450361828104L142.7361125762122,112.31983939742375L142.92760186059135,112.36983169568934L143.11909114497047,112.31381230304972L143.31058042934964,112.3288593500081L143.50206971372876,112.29934085884139L143.88504828248705,112.28284690745194L144.0765375668662,112.30112189593828L144.4786650640624,112.2994813682385L144.6701543484415,112.28864397688241L144.8616436328207,112.3053334681237L145.0531329171998,112.31015226150785L145.24462220157898,112.30175594601923L145.81909005471638,112.28644303780678L146.0105793390955,112.21208361580186L146.20206862347467,112.15942988259793L146.3935579078538,112.1620086975178L146.77653647661208,112.1031245316933L147.15951504537037,112.12346230237236L147.54249361412866,112.08263415734449L147.92547218288695,112.12972547797918L148.1169614672661,112.12751034419416L148.30845075164524,112.13461371834127L148.49994003602436,112.0851275289983L148.6914293204035,112.16539185258846L149.0935568175997,112.13524062802567L149.28504610197885,112.14957650471663L149.476535386358,112.1218077975057L149.66802467073714,112.11407104174326L149.85951395511628,112.07412639114821L150.0510032394954,112.08430938635455L150.4339818082537,112.10107569708397L150.62547109263284,112.10336522289924L150.81696037701198,112.07374401989453L151.00844966139113,112.11856001019365L151.39142823014942,112.00111355167661L151.58291751452853,111.98959304343165L151.7744067989077,111.97461839804372L151.96589608328682,112.02572945969851L152.3488746520451,112.04085448204543L152.54036393642423,112.10442739049037L152.7318532208034,112.08588656615682L152.92334250518252,112.13525126575045L153.1148317895617,112.17364031981764L153.3063210739408,112.15099934862582L153.49781035831998,112.13421739241029L153.6892996426991,112.19912770664735L153.89993785551616,112.15722878514941L154.28291642427445,112.12453667702836L154.47440570865356,112.13670653059255L154.85738427741185,112.16986286155095L155.04887356179103,112.19475692120952L155.24036284617014,112.25057052760154L155.4318521305493,112.25708873054501L155.62334141492843,112.24871436460619L155.81483069930758,112.24915095469039L156.00631998368672,112.26536435504208L156.19780926806587,112.25279361886578L156.389298552445,112.23123499172823L156.77227712120327,112.11423991831799L156.96376640558245,112.12421944045374L157.15525568996156,112.11758367100225L157.3467449743407,112.11670080422083L157.53823425871985,112.07440688090529L157.729723543099,112.08977093699232L157.92121282747814,112.07008310051182L158.11270211185726,112.11241112218644L158.30419139623643,112.10967308552348L158.49568068061555,112.01122074032027L158.7063188934326,111.9977788270837L158.89780817781175,111.99418783013198L159.0892974621909,111.97036416226052L159.28078674657004,111.99595842247388L159.4722760309492,112.04262184641493L159.6637653153283,112.04266322316514L159.85525459970748,111.98765619174276L160.0467438840866,111.94985713952889L160.23823316846577,111.91023684266523L160.42972245284489,111.93261529192658L160.62121173722403,111.97744654858909L160.81270102160317,111.96790230231676L161.19567959036146,111.97894589821946L161.38716887474058,111.9933374159661L161.57865815911975,112.01107296829588L161.96163672787802,112.02045361480619L162.15312601225716,112.04513954858747L162.3446152966363,112.0402885563091L162.53610458101545,112.07597773191539L162.7275938653946,112.056565003396L163.7041892157282,112.07628288407209L163.89567850010735,112.0321192649155L164.0871677844865,112.03383364856043L164.4701463532448,112.04468165582517L164.66163563762393,112.04611204397527L164.85312492200305,111.97792284034146L165.04461420638222,112.02165542946673L165.23610349076134,112.02293561184618L165.61908205951963,112.02327844923305L165.8105713438988,112.00660524435048L166.00206062827792,112.00924698065384L166.19354991265703,111.98539834506552L166.3850391970362,112.03153180576375L166.57652848141532,112.05642440139168L166.7680177657945,111.9604449225148L166.9595070501736,111.97900565530966L167.1509963345528,111.95187535784144L167.3424856189319,111.90754018738106L167.53397490331105,111.86521594447831L167.7254641876902,111.82037640536181L167.91695347206934,111.7948398463836L168.31908096926554,111.83026899628723L168.51057025364466,111.85140961340423L168.70205953802383,111.88003320593882L168.89354882240295,111.85621333593348L169.0850381067821,111.87015764573711L169.27652739116124,111.85628478791286L169.46801667554038,111.84187699339796L169.65950595991953,111.80841746564958L169.85099524429867,111.63617377724086L170.42546309743608,111.62331931675787L170.61695238181522,111.6149573945291L170.80844166619437,111.60648397637917L170.9999309505735,111.55220292261797L171.19142023495266,111.5414183426125L171.38290951933178,111.52720701577357L171.76588808809007,111.53681587025784L171.95737737246924,111.5349573154098L172.14886665684836,111.5385383745657L172.34035594122753,111.51320886966832L172.53184522560665,111.51067852661939L172.72333450998576,111.49674815852266L172.91482379436493,111.48440423160628L173.125462007182,111.46017454841164L173.50844057594028,111.48844073571992L173.6999298603194,111.4822842022654L173.89141914469857,111.44691205692054L174.0829084290777,111.46877387639913L174.27439771345684,111.4799039645534L174.46588699783598,111.52931978832174L174.6573762822151,111.5090684208936L174.84886556659427,111.52823917816568L175.0403548509734,111.51834471083751L175.23184413535256,111.47638147625341L175.61482270411082,111.46843029548074L175.80631198848997,111.41634237555999L175.9978012728691,111.43694806951007L176.3807798416274,111.41999115800607L176.57226912600655,111.46559154910499L176.7637584103857,111.49950819785965L176.9552476947648,111.42081142616037L177.14673697914395,111.42885043830944L177.3382262635231,111.35484360592766L177.52971554790224,111.3208209820145L177.7212048322814,111.32159702046812L177.93184304509845,111.26858549642532L178.1233323294776,111.22930786174804L178.31482161385674,111.19233107202781L178.50631089823585,111.22944130027203L178.69780018261503,111.26037974558731L178.88928946699414,111.28924375517786L179.27226803575243,111.26653639590474L179.46375732013158,111.28846967863895L179.65524660451072,111.27594444278324L179.84673588888984,111.26517790287492L180.038225173269,111.28995247911631L180.22971445764813,111.32351699830882L180.61269302640642,111.29487329403557L180.80418231078556,111.3151999785163L181.18716087954385,111.26326958952315L181.378650163923,111.29136916009087L181.7616287326813,111.33485248781135L182.14460730143955,111.3296001910345L182.7382240830149,111.34103470804779L182.92971336739404,111.3441985786747L183.50418122053145,111.35990927889276L183.6956705049106,111.34227488290155L183.88715978928974,111.36871882067764L184.07864907366888,111.38820767506219L184.27013835804803,111.42425807463447L184.65311692680632,111.4555340512772L184.84460621118546,111.46294428014632L185.03609549556458,111.47220610200489L185.61056334870204,111.45738169712915L185.80205263308116,111.42014629622557L186.18503120183945,111.4468784146915L186.37652048621857,111.38998776196028L186.56800977059774,111.39466968801105L186.75949905497686,111.36118467264123L186.95098833935603,111.39162565813145L187.14247762373515,111.39684870841397L187.3339669081143,111.36680771922637L187.7360944053105,111.3856337107298L187.9275836896896,111.32088372787386L188.11907297406879,111.25548803965908L188.50205154282708,111.21002762106691L188.6935408272062,111.24052190898632L188.88503011158537,111.24125409332827L189.07651939596448,111.28290570892534L189.26800868034363,111.30273958228088L189.45949796472277,111.28807094056305L189.65098724910192,111.2076430808013L189.84247653348106,111.2499213423982L190.0339658178602,111.28744630962827L190.22545510223932,111.26024476818904L190.41694438661847,111.2262943609973L190.79992295537676,111.22963396179208L190.9914122397559,111.22553191875423L191.3743908085142,111.20493416685895L191.75736937727248,111.21067893778775L191.9488586616516,111.19387500563829L192.54247544322695,111.1792328381496L192.7339647276061,111.1998884666213L193.11694329636435,111.1537192753526L193.30843258074353,111.18980410309015L193.49992186512264,111.19599976530293L193.69141114950182,111.2241208516307L193.88290043388093,111.22246984644406L194.26587900263922,111.16672961533752L194.45736828701837,111.13891941041935L194.84034685577663,111.1060001985574L195.0318361401558,111.06815170396646L195.4148147089141,111.11405495665284L195.6063039932932,111.01910705381287L195.79779327767235,111.06995891836513L195.9892825620515,111.09900806212654L196.18077184643064,111.08267688499133L196.3722611308098,111.08896980561506L196.56375041518893,111.05637389376089L196.75523969956805,111.07925696962738L196.94672898394722,111.04674415324992L197.3488564811434,110.96463672413554L197.54034576552255,110.95262326774079L197.7318350499017,110.9664248845887L197.92332433428084,110.97840118289457L198.11481361865998,110.95361530195373L198.30630290303912,110.9473306390436L198.49779218741827,110.9616433311855L198.6892814717974,110.9304951528157L198.88077075617656,110.96182824809564L199.07226004055568,110.88846680697448L199.45523860931397,110.87052437878121L199.83821717807226,110.84347038882834L200.02970646245137,110.83693819925169L200.22119574683055,110.81693260854897L200.41268503120966,110.7718559122457L200.60417431558884,110.76211363169831L200.79566359996795,110.7497427199474L200.9871528843471,110.75768955561817L201.17864216872624,110.73637156234605L201.3701314531054,110.69474140007372L201.56162073748453,110.72196982840607L201.75311002186365,110.69421267878019L201.9637482346807,110.74117555521326L202.346726803439,110.75487731104484L202.7297053721973,110.74351624733806L202.92119465657643,110.71436465446389L203.11268394095558,110.66193720511646L203.30417322533472,110.64717535623953L203.68715179409298,110.64635912420451L203.87864107847213,110.66107012747433L204.07013036285127,110.67602204693756L204.26161964723042,110.68527821916754L204.45310893160956,110.67843472758483L204.6445982159887,110.68928247371063L204.83608750036785,110.68232410160086L205.21906606912611,110.66004262301942L205.4105553535053,110.66424410779119L205.9850232066427,110.66915458397249L206.1765124910218,110.65144125202933L206.77012927259716,110.6563929508811L206.96161855697633,110.68054354832543L207.15310784135545,110.73178332643765L207.34459712573462,110.75443452478135L207.53608641011374,110.74021996451084L207.7275756944929,110.74641210208452L207.91906497887203,110.69422983229776L208.11055426325115,110.71800910730556L208.30204354763032,110.6946968600526L208.87651140076773,110.7130101297201L209.06800068514687,110.67782419494554L209.25948996952602,110.62785579492966L209.45097925390516,110.66688856256836L209.6424685382843,110.6772422833634L210.0254471070426,110.64799507111321L210.21693639142174,110.68269454394004L210.40842567580086,110.6783575929069L210.59991496018,110.66044771044679L210.79140424455915,110.65977253783004L211.17438281331744,110.69923346130564L211.36587209769658,110.67899344258076L211.57651031051364,110.62270125481795L211.76799959489279,110.61553714192507L211.9594888792719,110.61524990406255L212.15097816365108,110.6013475119145L212.3424674480302,110.59263674812429L212.53395673240934,110.6137268372806L212.72544601678848,110.58910296424476L212.91693530116763,110.61454490775908L213.2999138699259,110.61971453069164L213.68289243868418,110.61269635282893L214.06587100744247,110.6195383256047L214.25736029182164,110.60018345372796L214.44884957620076,110.57842813525725L214.64033886057987,110.5818123621245L214.83182814495905,110.56927026506611L215.40629599809645,110.56596095896649L215.78927456685474,110.581236709336L215.9807638512339,110.57233599604079L216.3828913484301,110.56740603060385L216.5743806328092,110.57229393521597L216.76586991718838,110.57624706170434L216.9573592015675,110.59043523247435L217.14884848594667,110.61141390720458L217.53182705470493,110.64177402767447L218.2977841922215,110.56614902953113L218.48927347660063,110.54702353667368L218.6807627609798,110.5429168697148L218.87225204535892,110.57377863191468L219.0637413297381,110.57509112652447L219.82969846725462,110.53825109658405L220.0211877516338,110.45953432849142L220.2126770360129,110.45920700551241L220.40416632039208,110.45266848922998L220.78714488915037,110.48693632127018L220.97863417352949,110.48375337736294L221.18927238634654,110.50901832365248L221.57225095510483,110.49871461256197L221.76374023948395,110.52592330080729L221.95522952386312,110.43157661146998L222.33820809262141,110.41938341405525L222.72118666137968,110.40969225242604L222.91267594575882,110.3922286101254L223.10416523013797,110.38761333439817L223.48714379889623,110.36653744064726L223.6786330832754,110.31485928809177L223.87012236765452,110.35420898420475L224.06161165203366,110.36235977281777L224.2531009364128,110.34691244852918L224.44459022079195,110.35988789482336L224.6360795051711,110.39017405185794L224.82756878955024,110.3998958697634L225.01905807392936,110.44728337185812L225.21054735830853,110.46642811788486L225.40203664268765,110.44670272312219L225.59352592706682,110.3675554588689L225.78501521144594,110.37647306451993L226.18714270864214,110.40935130975005L226.3786319930213,110.431243617463L226.57012127740043,110.42790862455124L226.9530998461587,110.42002874904409L227.14458913053787,110.4061450728007L227.33607841491698,110.40392576783505L227.52756769929616,110.41627396945114L227.9105462680544,110.38859332797304L228.10203555243356,110.38247092365184L228.29352483681268,110.36247632965754L228.48501412119185,110.40035561987206L229.05948197432926,110.36541441691408L229.2509712587084,110.3860438360024L229.44246054308755,110.39653317801076L229.6339498274667,110.38992816653847L230.39990696498327,110.43186714352598L230.80203446217945,110.39307552780807L230.9935237465586,110.39152631711819L231.18501303093774,110.29233593294187L231.37650231531688,110.30466402621289L231.56799159969603,110.31641670391541L231.75948088407517,110.3279168432858L231.95097016845432,110.3291842855259L232.14245945283344,110.27909014922538L232.33394873721258,110.24868575919915L232.52543802159173,110.2521871229461L232.71692730597087,110.23482861017499L232.90841659035001,110.21759369710183L233.09990587472916,110.21597074442427L233.2913951591083,110.20173142250927L233.48288444348742,110.22062537811716L233.8658630122457,110.21085970848917L234.05735229662488,110.21523718150638L234.248841581004,110.18745198013576L234.44033086538317,110.13639503422313L234.6318201497623,110.13509533107418L234.8233094341414,110.10209657823337L235.01479871852058,110.12761199938497L235.60841550009593,110.14055702637026L235.79990478447505,110.15072221448105L236.18288335323334,110.16812071317366L236.37437263761248,110.15046614493987L236.56586192199163,110.12677272090677L236.75735120637074,110.12017587714918L236.94884049074992,110.13544022151916L237.14032977512903,110.14341111386082L237.33181905950818,110.14651340118483L237.52330834388732,110.12980527880379L237.71479762826647,110.10336632725783L237.9062869126456,110.07089554876809L238.2892654814039,110.08438956721122L238.48075476578305,110.01340763034484L238.86373333454134,109.98814353823558L239.05522261892045,109.98030142561106L239.43820118767874,110.00981948041374L239.6296904720579,110.04135676200828L239.82117975643703,110.05869554357442L240.01266904081615,110.03030110682081L240.20415832519532,110.0706164799395L240.41479653801238,110.04452377061361L240.6062858223915,109.99604977826415L240.79777510677067,109.96464436923944L240.9892643911498,109.99682268567129L241.37224295990808,109.99091075524237L241.5637322442872,109.97717417842225L241.75522152866637,109.99162926918451L242.13820009742466,110.00305138629085L242.32968938180377,109.98361492564884L242.52117866618295,110.01598847050973L242.71266795056206,110.01813823567625L242.9041572349412,109.97293638651824L243.09564651932035,110.02871803125102L243.2871358036995,110.04534420624027L243.47862508807864,110.05958190311894L243.67011437245776,109.98829018496706L243.86160365683693,109.99660695992091L244.62756079435349,109.99624052903388L244.81905007873263,110.00103943607323L245.01053936311177,110.00803845952221L245.41266686030798,110.01876788908511L245.6041561446871,110.02189659583273L245.79564542906624,109.99071486706572L245.98713471344539,110.00594492612404L246.17862399782453,110.0019395043534L246.37011328220368,109.97534903465971L246.56160256658282,109.97782617810738L246.9445811353411,109.9282657275507L247.13607041972023,109.96022119772118L247.3275597040994,109.97555114209656L247.7105382728577,109.9701058919142L247.9020275572368,109.93917040667273L248.09351684161592,109.891720039387L248.2850061259951,109.87659184605181L248.6679846947534,109.87563067575775L248.8594739791325,109.87785141676417L249.05096326351168,109.85813535259132L249.2424525478908,109.86136205967364L249.43394183226994,109.85582282398882L249.62543111664908,109.85923884414117L250.21904789822443,109.89211693244829L250.41053718260355,109.88610652869491L250.98500503574098,109.86538145085241L251.17649432012013,109.89928896062081L251.36798360449927,109.92673053379461L251.75096217325756,109.93718279595204L251.9424514576367,109.90604832481088L252.13394074201585,109.92622084630845L252.5169193107741,109.88064450762161L252.70840859515326,109.87951285077298L252.8998978795324,109.86865113745154L253.2828764482907,109.85716181649323L253.47436573266984,109.8826192639064L253.66585501704895,109.84960768286889L253.85734430142813,109.84646996622516L254.04883358580724,109.85129987065312L254.24032287018642,109.81912119033905L254.43181215456553,109.80900144600034L254.83393965176174,109.7931729200501L255.40840750489917,109.76455547946472L255.5998967892783,109.77062254162392L256.1743646424157,109.76738943269164L256.3658539267949,109.76422121959183L256.557343211174,109.74196795370791L256.7488324955532,109.73361311020375L256.9403217799323,109.76446651966737L257.32330034869057,109.72034933128971L257.5147896330697,109.72917581489484L257.70627891744886,109.70985630614905L257.897768201828,109.69541715906684L258.08925748620715,109.65748215602756L258.2807467705863,109.67546284871358L258.47223605496544,109.66604761718533L258.6637253393446,109.67356952939554L258.8552146237237,109.65951150357401L259.04670390810287,109.6882664587584L259.238193192482,109.7045616109079L259.42968247686116,109.697564817862" fill="none"></path></g></g></g></g><g opacity="0.2"><g><g><g><path style="fill: none;" stroke="rgb(204, 51, 17)" stroke-width="2px" d="M19.321268793855396,152.27042390799906L19.70424736261368,150.8007179097873L19.89573664699282,147.3841893209224L20.08722593137196,143.00044736796258L20.661693784509385,134.8000494570902L21.04467235326767,127.65273311227753L21.23616163764681,138.98185725292524L21.427650922025954,137.6019756764719L22.002118775163378,134.62842069045672L22.19360805954252,137.9149915229534L22.38509734392166,138.97809653760768L22.576586628300802,132.0084015011261L22.768075912679944,138.0720958446805L22.95956519705909,131.9091423408811L23.151054481438226,127.84589592812719L23.534033050196513,127.03179112573447L23.72552233457565,143.63113382480276L24.12764983177185,127.48144043760871L24.319139116150993,130.48309315120977L24.510628400530134,133.87635670740625L24.702117684909275,135.32591256449183L24.893606969288417,145.97458117902812L25.085096253667558,142.36163100026354L25.276585538046703,131.4299235261507L25.46807482242584,127.12725003043077L25.659564106804982,130.13490626912696L25.851053391184127,133.06187187945864L26.234031959942406,118.20295615783803L26.42552124432155,136.7018423145104L26.617010528700693,143.62834843518672L26.808499813079834,129.8616173715463L26.999989097458975,136.67130846935027L27.38296766621726,134.62063126492163L27.5744569505964,115.22405225722105L28.148924803733824,117.74076160929405L28.34041408811297,126.21324903073574L28.53190337249211,112.25451939138485L28.723392656871248,138.2407876508119L28.934030869688307,117.12984746470465L29.12552015406745,120.27940700293318L29.31700943844659,132.98328567006268L29.50849872282573,109.78389637538805L29.699988007204873,128.78336405500536L29.891477291584014,139.1107671931682L30.2744558603423,122.65857346429709L30.46594514472144,125.44801156067625L30.848923713479724,132.9612156310466L31.040412997858866,128.18426145613006L31.231902282238007,134.90175791498655L31.42339156661715,128.32317727153162L31.80637013537543,126.92291050924477L31.997859419754572,127.11245978730392L32.189348704133714,117.76016268270803L32.38083798851286,121.90517829346484L32.76381655727114,126.05027737804295L32.95530584165028,123.41163913320318L33.146795126029424,85.79313351786864L33.33828441040857,139.2911321542047L33.740411907604766,103.58853525880826L34.12339047636304,121.95839065786475L34.31487976074219,119.47017223900951L34.50636904512133,127.77970118783546L34.69785832950047,129.93300725887428L34.889347613879615,139.9338234645557L35.08083689825876,128.44668777354408L35.27232618263789,126.18999937482388L35.463815467017035,116.1766906527809L35.65530475139618,106.73936447779235L35.84679403577532,104.75946648378846L36.03828332015446,115.5810390374126L36.22977260453361,109.00965910938461L36.42126188891275,105.67850886295415L36.61275117329188,90.5446435540449L36.99572974205017,118.70342125676908L37.378708310808456,103.98109506695111L37.5701975951876,112.44940001060972L37.76168687956673,136.98932395839176L38.33615473270416,133.31039541226698L38.54679294552122,124.55680330755544L38.738282229900356,112.82515961387597L39.121260798658646,93.17610305025278L39.312750083037784,122.13008752156301L39.69572865179607,134.10753965217904L39.88721793617521,94.50495795841655L40.07870722055435,121.59473915204619L40.270196504933494,134.55809179933107L40.46168578931264,133.09006406426332L40.65317507369178,133.02992996273395L40.84466435807092,123.42817573653883L41.2276429268292,128.78308727338737L41.41913221120834,122.40578837324338L41.61062149558749,99.40969517698845L41.802110779966625,110.01987247484715L41.99360006434577,134.26493173892172L42.18508934872491,124.47684856682608L42.37657863310405,114.44677039341963L42.56806791748319,124.19672360261674L42.759557201862336,102.9655920972335L42.95104648624148,131.6989794223196L43.35317398343768,115.39712424229127L43.544663267816816,119.23891900049246L43.73615255219596,111.37391890360779L43.927641836575106,127.58099175622827L44.119131120954236,118.86355919289664L44.31062040533338,130.5715512383143L44.502109689712526,112.15943831556392L44.693598974091664,121.84123734634821L45.076577542849954,115.49111137171725L45.45955611160823,115.17674017397941L45.651045395987374,113.67333271875705L45.84253468036652,102.57589236580995L46.03402396474566,125.03419448493526L46.2255132491248,87.08907777364472L46.41700253350395,115.2522620154618L46.79998110226222,109.00437829184757L46.99147038664137,115.40026110062858L47.182959671020505,118.35571764417801L47.37444895539965,115.5403125993357L47.565938239778795,104.33988312433915L47.75742752415793,101.90642792561641L48.15955502135413,104.5246370510325L48.54253359011241,128.7392657138838L48.73402287449155,115.52915786079447L48.925512158870696,113.94324751661355L49.308490727628985,104.23038304422822L49.49998001200812,132.75858292983827L49.69146929638726,136.34852179241759L49.882958580766406,91.49804639407354L50.074447865145544,122.24827766580728L50.26593714952469,145.07720904320806L50.457426433903834,110.56408224949895L50.64891571828297,68.61056581940834L50.840405002662116,105.02348100048668L51.031894287041254,90.39205340870656L51.22338357142039,116.83813721277056L51.60636214017868,125.77118045984332L51.79785142455783,79.19588109859636L51.989340708936965,141.1218734129411L52.18082999331611,124.36772192223148L52.37231927769525,101.83129269972743L52.75529784645353,92.26199441326186L52.96593605927058,115.72561569590601L53.15742534364973,113.81921859823724L53.34891462802887,112.53125707579295L53.54040391240801,134.3035823148636L53.9233824811663,96.89152283636317L54.11487176554543,102.88372185197322L54.306361049924575,74.49015425672422L54.49785033430372,119.69570971744696L54.68933961868286,127.06111679716524L54.880828903062,106.58284227613483L55.07231818744115,99.39602743709015L55.64678604057857,112.29468787286672L55.83827532495771,110.30686425919822L56.02976460933685,117.11400061873452L56.221253893715996,114.9395119672008L56.41274317809514,74.4090792094458L56.79572174685342,83.65803132991198L57.1787003156117,125.38616404913068L57.370189599990844,121.00565121504752L57.56167888436999,131.28661874509234L57.77231709718704,112.20219887886512L58.155295665945324,121.11869673588424L58.34678495032447,107.52309139927002L58.53827423470361,126.32681077125683L58.72976351908275,104.53022540370065L58.92125280346189,121.85647351541516L59.112742087841035,110.43066472290573L59.30423137222018,118.45498998450006L59.49572065659932,97.02489203600719L59.687209940978455,120.11888684457124L59.8786992253576,116.2542597995647L60.26167779411588,130.14314381728167L60.45316707849503,118.25854532946555L60.644656362874166,112.41556235946967L60.83614564725331,82.4285498093276L61.21912421601159,107.55560225598725L61.41061350039073,122.50468288469006L61.602102784769876,136.65091889015775L61.79359206914902,111.63294695782302L61.98508135352816,115.90895056763725L62.176570637907304,124.11531905341215L62.36805992228644,113.90430038893808L62.5786981351035,121.57846615025147L62.770187419482646,119.3925108316864L63.34465527262007,119.8445830810579L63.536144556999204,110.82109375192591L63.72763384137835,120.22880868714769L63.919123125757494,130.01088613746867L64.11061241013662,102.40196367573166L64.30210169451577,103.1965246205424L64.49359097889491,75.72891455155006L64.68508026327406,98.39519828648547L64.87656954765319,96.38817130055874L65.06805883203234,110.73229517949764L65.25954811641148,116.66207774356957L65.64252668516977,99.89102280404646L65.83401596954891,130.43376451617985L66.21699453830719,111.85264126876939L66.40848382268634,103.01930091120221L66.59997310706547,110.34462078658042L66.79146239144461,115.64410570608506L66.98295167582376,105.74295065299859L67.1744409602029,106.0596766911689L67.76805774177824,110.63960848434033L67.95954702615738,130.46703762068637L68.15103631053653,104.87096993561062L68.34252559491567,92.15842976118134L68.72550416367395,123.60804424800656L68.91699344805309,81.72234370768454L69.10848273243222,115.72130581071147L69.29997201681137,114.94550011553937L69.68295058556966,113.4519162110765L69.87443986994879,78.79592726722984L70.25741843870708,130.53556303793602L70.64039700746537,98.45018556792779L70.83188629184451,116.65570297963758L71.21486486060279,131.65584542350203L71.40635414498193,117.23809104413708L71.78933271374021,103.07545243278373L71.98082199811935,135.61130077280217L72.19146021093641,117.51328665953062L72.38294949531556,104.8112466131492L72.76592806407383,130.42510740223912L72.95741734845298,78.45607458720009L73.14890663283212,100.27027952108932L73.34039591721127,125.80649208293319L73.5318852015904,125.17249742675406L73.72337448596954,113.88910376010227L73.91486377034867,97.49114165492281L74.10635305472782,117.78536299002292L74.29784233910696,122.85350241047115L74.48933162348611,114.85185127475764L74.68082090786525,87.68162767754787L74.8723101922444,123.99368890905845L75.06379947662354,88.71002076261797L75.25528876100267,110.52058360188306L76.02124589851925,114.6361593138747L76.21273518289838,123.85069385981072L76.40422446727752,116.63898624858228L76.59571375165666,135.77268642289022L76.7872030360358,89.54638451846448L76.99784124885286,112.46005829958216L77.18933053323201,93.77624907189433L77.5723091019903,98.11260425450924L77.76379838636944,89.36250047685627L77.95528767074856,95.93029981728633L78.1467769551277,98.39741693278847L78.33826623950685,129.17575032546708L78.529755523886,103.42383701602225L78.72124480826514,117.1052885878061L79.10422337702343,111.65843722683296L79.29571266140256,134.43154109287963L79.4872019457817,112.9203021967231L79.67869123016085,65.47941884881523L79.87018051454,122.3465395335557L80.06166979891914,91.15414303703118L80.4446483676774,103.34474337365998L80.63613765205655,132.75905521593248L80.82762693643569,107.14991948446408L81.01911622081484,86.7935101524947L81.21060550519398,125.31445783995356L81.59358407395227,117.44888880307636L81.80422228676933,84.73617920583654L82.18720085552759,102.64952945627454L82.57017942428588,116.68351294220788L82.76166870866503,103.96026615185698L82.95315799304417,82.62633883222098L83.14464727742332,114.01698126097651L83.33613656180245,126.87573681681212L83.52762584618159,109.46989861316656L83.91060441493988,105.24518746986229L84.10209369931903,95.1058244909367L84.29358298369817,101.28978484087037L84.67656155245645,104.81785861846807L84.86805083683558,116.38220759418314L85.05954012121472,128.33676812764713L85.25102940559387,117.11709354348167L85.44251868997301,125.69232845222695L85.63400797435216,126.48094298560973L85.82549725873129,122.74152886923429L86.01698654311043,80.12004174101553L86.20847582748958,120.66918142145998L86.39996511186872,93.75457223851014L86.61060332468577,120.17977880053085L86.99358189344406,113.03446802410886L87.1850711778232,114.58954577471656L87.37656046220233,114.74107272717309L87.56804974658148,103.38369489469447L87.95102831533977,121.57095350633438L88.14251759971891,111.4192891221644L88.5254961684772,96.10873170035588L88.71698545285633,105.06571875406502L88.90847473723548,123.15505378660075L89.09996402161462,121.09022337610253L89.29145330599376,91.5350780172181L89.4829425903729,115.20092561536164L89.67443187475205,103.62798762277056L89.86592115913118,129.71352822251967L90.05741044351032,90.51457979829947L90.24889972788947,113.75059872376875L91.01485686540605,107.5365614380126L91.20634614978518,122.25109820229545L91.41698436260224,87.81603810327864L91.79996293136051,80.35322366414054L91.99145221573966,94.82221119966879L92.56592006887709,104.76898249941678L92.75740935325622,102.27001792440878L93.14038792201451,92.50565010428066L93.33187720639366,118.64393956905354L93.5233664907728,104.44918550329437L94.09783434391021,105.98555633121259L94.28932362828935,130.44100696851746L94.4808129126685,92.17511573872352L94.67230219704764,87.3852956119291L94.86379148142679,109.22029431404032L95.05528076580593,113.05457642832441L95.24677005018506,119.30171328090591L95.43825933456421,118.63723530319537L95.62974861894335,122.4016893692816L95.8212379033225,110.8722236641523L96.01272718770164,143.7763024884236L96.22336540051869,108.68518757926932L96.41485468489783,97.0743041448584L96.60634396927698,119.99903601061897L96.79783325365612,118.13374757326142L96.98932253803525,97.9297658323468L97.1808118224144,117.26455224548951L97.37230110679354,116.69869199760763L97.56379039117269,101.22914330637465L97.75527967555183,95.62851559312888L97.94676895993098,107.7495602698188L98.1382582443101,110.3738190505997L98.52123681306838,70.87107204711329L98.71272609744753,111.6407671368712L98.90421538182667,97.26405332075278L99.09570466620582,116.79948444014916L99.67017251934324,132.99760582377485L99.86166180372238,90.45265100961211L100.05315108810153,98.1522147793961L100.24464037248067,122.46636400735386L100.43612965685982,128.26300582645058L100.62761894123894,63.32510889524129L100.81910822561808,104.654254322077L101.02974643843514,88.0499229638462L101.22123572281428,108.12372947712132L101.41272500719343,102.35165532164122L101.79570357595172,91.4678156906855L101.98719286033086,113.21567651007645L102.17868214471,103.9830369316361L102.75314999784742,127.72635043262655L102.94463928222656,97.88229119482158L103.1361285666057,101.63366183775861L103.32761785098485,101.04015857494905L103.51910713536398,135.36310015188147L103.71059641974313,121.92345027361173L103.90208570412227,125.82688385880525L104.09357498850142,115.5461953070579L104.4765535572597,117.10803443719098L104.66804284163884,86.03110420232093L104.85953212601798,116.72191529336538L105.05102141039711,104.58384195713003L105.8361274763516,43.22550897118414L106.02761676073075,105.42171263511898L106.2191060451099,112.20892071815936L106.41059532948903,113.41708126743985L106.60208461386817,111.68577270662955L106.7935738982473,112.18744158593091L106.98506318262645,110.0274554125085L107.36804175138474,127.97022798827564L107.75102032014301,114.7139657020453L107.94250960452216,89.40288862628894L108.1339988889013,118.57850048651252L108.32548817328045,117.22653650992538L108.51697745765959,86.24897087591671L108.70846674203874,114.2214042559838L108.89995602641787,123.86870223841666L109.28293459517616,121.09242005561048L109.47442387955529,110.22816162578839L109.66591316393443,120.77360717190761L109.85740244831358,78.02438313030312L110.24038101707185,103.87444188348245L110.431870301451,52.82182641559714L110.64250851426806,99.05285337764444L111.21697636740548,99.13319034060818L111.40846565178462,122.39850857735414L111.59995493616375,105.51262441323385L111.7914442205429,119.7027698453854L111.98293350492204,109.74887691067275L112.17442278930119,89.28414931216768L112.36591207368033,119.9638935318512L112.74889064243862,109.26967127601938L112.94037992681776,108.54662542926857L113.1318692111969,101.64946914349764L113.32335849557604,97.70736521224667L113.51484777995519,122.22092021921563L113.70633706433432,124.69405184321045L114.28080491747174,105.69327054924739L114.47229420185089,112.50418959089633L114.85527277060918,126.40329695504317L115.04676205498832,118.15935646296478L115.23825133936747,103.11019511588104L115.64037883656366,138.62968120085606L115.83186812094279,85.96063472370678L116.02335740532193,97.38444014450498L116.59782525845937,75.18794268249293L116.78931454283851,112.8624065116123L116.98080382721764,123.25656674002087L117.17229311159679,100.02819665259818L117.36378239597593,111.11131026179461L117.55527168035508,104.22990856145451L117.74676096473422,92.8343831926413L117.93825024911337,114.60717632444717L118.1297395334925,132.38272008263516L118.51271810225077,109.4287679860602L118.70420738662992,117.7205653378982L118.89569667100906,115.02250691236914L119.08718595538821,50.97962068650886L119.27867523976735,123.90412589216143L119.47016452414648,103.11379327691502L119.85314309290477,118.74828184567986L120.44675987448011,98.28283373629621L120.63824915885925,105.87342023569215L120.8297384432384,132.62609899203593L121.21271701199667,112.6316101824329L121.40420629637582,100.15595553277899L121.59569558075496,117.52667322445188L121.78718486513411,104.78838357283075L121.97867414951325,109.8128266445074L122.1701634338924,105.25148315333202L122.36165271827153,126.74591964793241L122.55314200265066,107.95360543595075L122.7446312870298,96.78311230928817L122.93612057140895,128.3598574259549L123.1276098557881,95.61450077786834L123.31909914016724,117.46228415471568L123.51058842454637,101.86197152573507L123.70207770892551,74.94542047810023L123.89356699330466,116.17743752381362L124.27654556206295,94.31230916557173L124.4680348464421,138.97093975577087L124.65952413082124,124.85000290819593L125.06165162801743,133.39651183901609L125.4446301967757,68.12373770686249L125.63611948115485,119.11233754052792L125.827608765534,121.06135900736842L126.01909804991314,94.89902908206085L126.21058733429228,94.17618093646576L126.59356590305056,113.16226205116178L126.7850551874297,101.02569124370984L126.97654447180884,127.2726262802651L127.16803375618798,116.04107644667981L127.35952304056713,139.72681937112657L127.55101232494627,140.57201817195397L127.7425016093254,97.46309884432468L128.12548017808368,117.66930362490133L128.31696946246282,100.6210936318636L128.50845874684197,129.99629798885655L128.6999480312211,117.34143163490779L128.89143731560026,126.17732673074268L129.0829265999794,66.50635773205109L129.27441588435855,119.78223692326404L129.4659051687377,117.00322207114998L129.8680326659339,115.06203835679369L130.059521950313,133.15349318505457L130.25101123469216,88.93187221284113L130.8254790878296,128.97043547857956L131.59143622534617,96.97663977393616L131.7829255097253,111.86183217583054L131.97441479410443,121.95223995524256L132.35739336286272,113.92326651980949L132.54888264724187,120.39762350733153L132.740371931621,98.15036078189142L132.93186121600013,104.03724219517362L133.12335050037927,114.0595660899171L133.31483978475842,116.80843371246443L133.50632906913756,111.87003897047214L133.6978183535167,94.86457196729957L133.88930763789585,114.1383346237122L134.080796922275,119.85518864972215L134.27228620665414,107.1776503665721L134.4637754910333,104.14488388442085L134.8659029882295,116.32295875449547L135.0573922726086,96.74462209095034L135.24888155698775,126.43517516806216L135.4403708413669,126.71455326123879L135.63186012574604,87.55812156889442L135.8233494101252,115.36243427950215L136.01483869450433,99.83627715735001L136.20632797888348,97.84364281555918L136.39781726326262,114.73771180752597L136.58930654764174,88.2254288698112L136.97228511640003,103.82782395096531L137.16377440077918,122.95702752232054L137.35526368515832,128.2960372962112L137.54675296953747,116.50296346009267L137.7382422539166,105.67515233666606L137.92973153829573,88.42798029387774L138.1212208226749,113.25467196470109L138.31271010705402,112.05864147966335L138.5041993914332,112.80464702063097L138.6956886758123,131.00267595189825L138.88717796019145,136.0134578737151L139.0786672445706,109.78533300378623L139.48079474176677,124.88196459503621L139.67228402614595,100.12116452273251L139.86377331052506,115.42274191871266L140.05526259490424,112.95811583777248L140.24675187928335,125.6958431394396L140.8212197324208,118.10868785343506L141.01270901679993,115.19128658568087L141.20419830117908,112.63351250688676L141.39568758555822,107.92206990493501L141.58717686993734,102.84298662717828L141.77866615431648,109.94737326436767L142.16164472307477,93.77716728392863L142.35313400745392,97.19457234791717L142.54462329183306,121.7393685308478L142.7361125762122,102.35452857843758L142.92760186059135,132.5984208302361L143.11909114497047,89.61315918214632L143.31058042934964,118.43528576931399L143.50206971372876,100.30257070985579L143.88504828248705,105.56967657341364L144.0765375668662,119.75000724152378L144.4786650640624,111.62983206628078L144.6701543484415,107.85851118005277L144.8616436328207,119.13755102791986L145.0531329171998,114.28567470502661L145.24462220157898,108.85463943651051L145.81909005471638,105.99070095462015L146.0105793390955,81.59627187736584L146.20206862347467,90.44952293799282L146.3935579078538,113.22680488846356L146.77653647661208,87.75526037465345L147.15951504537037,120.54478346092631L147.54249361412866,95.15292129958657L147.92547218288695,131.6840310182682L148.1169614672661,111.2064001243336L148.30845075164524,115.09252387500464L148.49994003602436,91.44979413200251L148.6914293204035,145.68166824506343L149.0935568175997,99.5273493314328L149.28504610197885,118.15252478969516L149.476535386358,100.47793602833228L149.66802467073714,108.86543831297143L149.85951395511628,95.27839563307911L150.0510032394954,116.37189638057298L150.4339818082537,119.17028155258788L150.62547109263284,113.07002347862412L150.81696037701198,99.55032220572666L151.00844966139113,131.0919446137412L151.39142823014942,62.21114635661956L151.58291751452853,107.0989916667524L151.7744067989077,105.60908939714477L151.96589608328682,133.7817171641664L152.3488746520451,118.48765900214187L152.54036393642423,139.23779897243185L152.7318532208034,104.1619213306843L152.92334250518252,133.26092179638957L153.1148317895617,128.62419485454078L153.3063210739408,102.43592873428317L153.49781035831998,104.9236419168516L153.6892996426991,140.12560456899487L153.89993785551616,94.10715247960879L154.28291642427445,98.02218453260413L154.47440570865356,117.3933084181669L154.85738427741185,126.51008852932084L155.04887356179103,122.97562461103462L155.24036284617014,136.45334953521518L155.4318521305493,115.08730017113483L155.62334141492843,108.60782492035932L155.81483069930758,112.43921181105198L156.00631998368672,119.33268646196763L156.19780926806587,106.76620790137915L156.389298552445,102.8096937525562L156.77227712120327,60.91935821847248L156.96376640558245,116.496676563341L157.15525568996156,109.20644644642235L157.3467449743407,111.72888913201103L157.53823425871985,93.4725317697699L157.729723543099,118.85584006110581L157.92121282747814,103.38889663176923L158.11270211185726,130.80021898505055L158.30419139623643,110.899304329126L158.49568068061555,68.43482267205648L158.7063188934326,106.04071934701555L158.89780817781175,110.40076791480293L159.0892974621909,101.3859466830092L159.28078674657004,123.38121512201846L159.4722760309492,132.82606712100116L159.6637653153283,112.0611149407893L159.85525459970748,87.42717311006813L160.0467438840866,95.05180374847787L160.23823316846577,94.17612821615757L160.42972245284489,121.96158462986926L160.62121173722403,132.09340421136469L160.81270102160317,107.68011005049634L161.19567959036146,116.94639836563903L161.38716887474058,118.4746019391468L161.57865815911975,120.00806436339653L161.96163672787802,116.25534495924161L162.15312601225716,123.2031171342341L162.3446152966363,109.84499921258043L162.53610458101545,128.24641650280677L162.7275938653946,103.25023782787011L163.7041892157282,121.0317917011918L163.89567850010735,91.94973202785162L164.0871677844865,112.81434316397896L164.4701463532448,116.989365416814L164.66163563762393,112.69888129568352L164.85312492200305,80.82222352580008L165.04461420638222,132.026816265441L165.23610349076134,112.60923919832419L165.61908205951963,112.18047811189078L165.8105713438988,104.35250524479167L166.00206062827792,113.2234044285853L166.19354991265703,101.01156220111488L166.3850391970362,133.28448338079153L166.57652848141532,123.53744736198092L166.7680177657945,67.6409426978932L166.9595070501736,120.5595846874507L167.1509963345528,99.39504771802963L167.3424856189319,91.36393911011486L167.53397490331105,92.23074884394117L167.7254641876902,90.9950551137084L167.91695347206934,99.92096354573943L168.31908096926554,128.32287852311853L168.51057025364466,121.70384822320469L168.70205953802383,125.23511597280691L168.89354882240295,100.72975018704349L169.0850381067821,118.39107979089655L169.27652739116124,105.36140499590847L169.46801667554038,105.08890690295065L169.65950595991953,96.10810784337563L169.85099524429867,30.722527628451665L170.42546309743608,105.57797123523554L170.61695238181522,107.67799245145068L170.80844166619437,107.61254897555067L170.9999309505735,85.93825495288006L171.19142023495266,106.44674480054196L171.38290951933178,104.80624257723017L171.76588808809007,116.0861874570545L171.95737737246924,110.65403627534839L172.14886665684836,113.23777510592615L172.34035594122753,99.48090273991728L172.53184522560665,110.30736070876704L172.72333450998576,104.86479726619334L172.91482379436493,105.60126921809659L173.125462007182,99.89961182092242L173.50844057594028,124.98966779130964L173.6999298603194,108.53843181470404L173.89141914469857,94.51468924863666L174.0829084290777,121.94514028707297L174.27439771345684,116.8193204561057L174.46588699783598,135.26114127252123L174.6573762822151,101.77289617168879L174.84886556659427,120.75482556211487L175.0403548509734,106.75116943346791L175.23184413535256,91.23670303965694L175.61482270411082,107.62931403355513L175.80631198848997,86.23953394075068L175.9978012728691,121.40737996345644L176.3807798416274,103.20635256466085L176.57226912600655,133.57710964808044L176.7637584103857,127.96304484628473L176.9552476947648,73.18006338491712L177.14673697914395,115.33933399779681L177.3382262635231,75.31715137114895L177.52971554790224,94.73605303600904L177.7212048322814,111.70028397145889L177.93184304509845,85.37322504985217L178.1233323294776,92.0227013277458L178.31482161385674,93.09197022509933L178.50631089823585,129.41402854505048L178.69780018261503,126.43644484881773L178.88928946699414,125.46242397492773L179.27226803575243,100.104939847887L179.46375732013158,122.0807061662249L179.65524660451072,105.10657259955335L179.84673588888984,105.95660848865717L180.038225173269,123.51788373428337L180.22971445764813,127.90684499775404L180.61269302640642,97.12832488731725L180.80418231078556,121.37858588846659L181.18716087954385,85.52727379038377L181.378650163923,125.23128057038608L181.7616287326813,132.9283576989671L182.14460730143955,108.71870890856025L182.7382240830149,117.0308167591285L182.92971336739404,112.92011767564443L183.50418122053145,119.19325442688174L183.6956705049106,102.54095198155693L183.88715978928974,124.58010129041648L184.07864907366888,121.13456554864948L184.27013835804803,129.471014804845L184.65311692680632,127.12781238038478L184.84460621118546,115.1798726389577L185.03609549556458,116.12248978260244L185.61056334870204,104.00680500391184L185.80205263308116,92.68757470776781L186.18503120183945,124.90866303777548L186.37652048621857,82.71275620406266L186.56800977059774,113.75703499472696L186.75949905497686,94.44905246493992L186.95098833935603,126.78135867843375L187.14247762373515,114.03998928214247L187.3339669081143,96.14966462630652L187.7360944053105,120.93113545277977L187.9275836896896,78.45829762686212L188.11907297406879,78.03304683428236L188.50205154282708,88.09281972127691L188.6935408272062,126.76221681320169L188.88503011158537,111.61429714880076L189.07651939596448,132.52451574487156L189.26800868034363,121.42737414033755L189.45949796472277,103.79297582725162L189.65098724910192,70.07293930142266L189.84247653348106,132.89368530961406L190.0339658178602,130.51610485085484L190.22545510223932,97.30831201947841L190.41694438661847,93.79630036244264L190.79992295537676,112.94579246573304L190.9914122397559,109.11557860189764L191.3743908085142,100.60015927615308L191.75736937727248,114.17116180227859L191.9488586616516,102.52608924800634L192.54247544322695,103.61945132620275L192.7339647276061,121.87440281355885L193.11694329636435,87.27192058916619L193.30843258074353,129.87267765286867L193.49992186512264,114.40677764629837L193.69141114950182,125.81083052496135L193.88290043388093,110.36528275403194L194.26587900263922,82.20015664752987L194.45736828701837,96.6734364948166L194.84034685577663,93.9673030754164L195.0318361401558,91.34502130619262L195.4148147089141,135.05651618299922L195.6063039932932,61.4503483758456L195.79779327767235,137.64207386420952L195.9892825620515,126.29217792213491L196.18077184643064,102.53343494428084L196.3722611308098,114.38625626633535L196.56375041518893,93.96168836259415L196.75523969956805,123.09097664535466L196.94672898394722,93.96479446741834L197.3488564811434,67.78722397968478L197.54034576552255,104.62948456394565L197.7318350499017,118.23726389839277L197.92332433428084,117.29329799353019L198.11481361865998,97.87275321239817L198.30630290303912,107.62760941025698L198.49779218741827,118.52871494214494L198.6892814717974,94.4479101915958L198.88077075617656,127.5569864425657L199.07226004055568,71.99911969473982L199.45523860931397,101.35072073042015L199.83821717807226,96.47662719098376L200.02970646245137,107.36500516180283L200.22119574683055,100.17438128049145L200.41268503120966,86.77095464730735L200.60417431558884,105.570331183907L200.79566359996795,104.15136408896922L200.9871528843471,115.00006124115718L201.17864216872624,99.34596950446361L201.3701314531054,88.43201339745428L201.56162073748453,125.29566524676329L201.75311002186365,95.8246527130323L201.9637482346807,135.92103917345779L202.346726803439,118.1076246605532L202.7297053721973,104.64159705475234L202.92119465657643,95.0438561620182L203.11268394095558,82.45524385870789L203.30417322533472,102.69829134799143L203.68715179409298,110.20646282560912L203.87864107847213,118.59611785616605L204.07013036285127,118.74789083672746L204.26161964723042,115.68651919402403L204.45310893160956,106.97766027081181L204.6445982159887,116.56041980930192L204.83608750036785,106.91305153312479L205.21906606912611,98.5802246014378L205.4105553535053,112.94398240181853L205.9850232066427,113.33583487915982L206.1765124910218,101.02397344033467L206.77012927259716,113.34997270847279L206.96161855697633,123.82875342488558L207.15310784135545,138.65133606744516L207.34459712573462,123.10691575186414L207.53608641011374,102.98208037361997L207.7275756944929,114.12881421472485L207.91906497887203,82.16648594403243L208.11055426325115,123.72875618032592L208.30204354763032,97.92894866756986L208.87651140076773,120.749593071527L209.06800068514687,91.3783141808147L209.25948996952602,83.1976424519235L209.45097925390516,132.1115399973821L209.6424685382843,116.37024447758301L210.0254471070426,94.55325415407775L210.21693639142174,129.7933841126712L210.40842567580086,108.28784340315825L210.59991496018,100.78055499070271L210.79140424455915,110.28701506316463L211.17438281331744,132.5029333687062L211.36587209769658,99.48655699297068L211.57651031051364,79.4688317075328L211.76799959489279,106.64749934077102L211.9594888792719,110.45602758450423L212.15097816365108,102.88876103476437L212.3424674480302,105.7563240378428L212.53395673240934,122.33253789837218L212.72544601678848,96.89581075476264L212.91693530116763,124.77403294409393L213.2999138699259,113.4991096736247L213.68289243868418,106.70058429775946L214.06587100744247,114.4364503930914L214.25736029182164,99.79419756469622L214.44884957620076,98.42266556705253L214.64033886057987,112.47423566912627L214.83182814495905,103.55034818224252L215.40629599809645,108.71252305906592L215.78927456685474,119.14340737548795L215.9807638512339,105.57951769760913L216.3828913484301,107.79980272352401L216.5743806328092,113.31842399738002L216.76586991718838,112.79892686719234L216.9573592015675,118.57405440718847L217.14884848594667,122.4251718732213L217.53182705470493,127.75175503113567L218.2977841922215,67.91341882405594L218.48927347660063,99.75186755057857L218.6807627609798,108.22317315844498L218.87225204535892,128.02014094005466L219.0637413297381,111.31762240117874L219.82969846725462,89.68039514852482L220.0211877516338,65.85810003582702L220.2126770360129,110.27360213808927L220.40416632039208,106.74225091466576L220.78714488915037,129.94772061821834L220.97863417352949,108.6747797117608L221.18927238634654,124.87881455662185L221.57225095510483,104.63389988975658L221.76374023948395,126.02465091490353L221.95522952386312,56.64890781445426L222.33820809262141,103.46337724716486L222.72118666137968,104.87690097028201L222.91267594575882,100.41456621788772L223.10416523013797,107.74875189175991L223.48714379889623,98.3070367511145L223.6786330832754,80.72287210501575L223.87012236765452,132.90344295998824L224.06161165203366,115.03661838152803L224.2531009364128,101.4817131228366L224.44459022079195,117.81199553237695L224.6360795051711,127.79709669285869L224.82756878955024,115.99162040423843L225.01905807392936,137.72336638275925L225.21054735830853,121.49418395089151L225.40203664268765,99.07613818042842L225.59352592706682,64.710229552321L225.78501521144594,115.52449650687866L226.18714270864214,129.40342077970672L226.3786319930213,123.0878573604534L226.57012127740043,108.49844346094181L226.9530998461587,105.85780184439082L227.14458913053787,102.36205440243172L227.33607841491698,109.1171470310663L227.52756769929616,117.58108058250411L227.9105462680544,94.31584142622047L228.10203555243356,106.82493832470297L228.29352483681268,98.73590327816429L228.48501412119185,132.44244120841705L229.05948197432926,90.01843776464004L229.2509712587084,122.4075720770038L229.44246054308755,116.51342844126842L229.6339498274667,106.53544671907189L230.39990696498327,134.92358631925677L230.80203446217945,87.72326793430005L230.9935237465586,109.48552579118592L231.18501303093774,52.24330011367257L231.37650231531688,117.52451608517512L231.56799159969603,117.20413916566262L231.75948088407517,117.07238672213643L231.95097016845432,111.07302213797152L232.14245945283344,80.85914531496924L232.33394873721258,92.37987702237503L232.52543802159173,112.31139581720396L232.71692730597087,100.01887394476658L232.90841659035001,100.06730633455726L233.09990587472916,109.25948746982067L233.2913951591083,101.80398797344392L233.48288444348742,121.37120504531997L233.8658630122457,104.44349610336883L234.05735229662488,112.80225263996735L234.248841581004,93.75551241733953L234.44033086538317,79.92092592369937L234.6318201497623,109.36540256897467L234.8233094341414,90.54659420544793L235.01479871852058,125.25876103103019L235.60841550009593,117.82246930027075L235.79990478447505,116.18712927380255L236.18288335323334,120.50694345972283L236.37437263761248,99.65233160871557L236.56586192199163,96.02810477569709L236.75735120637074,106.19208813854749L236.94884049074992,119.23074735272299L237.14032977512903,114.89610558012424L237.33181905950818,111.99752106903493L237.52330834388732,100.15403124153005L237.71479762826647,94.30706349490681L237.9062869126456,90.65775936862588L238.2892654814039,118.15740141820275L238.48075476578305,67.51888639771498L238.86373333454134,94.85325906783378L239.05522261892045,105.27921403544003L239.43820118767874,127.71671140294576L239.6296904720579,128.9721027583261L239.82117975643703,120.47348363745816L240.01266904081615,92.96346447388585L240.20415832519532,134.31872622339122L240.41479653801238,94.34041348319609L240.6062858223915,80.80233039617633L240.79777510677067,91.03811003206368L240.9892643911498,129.40190507084625L241.37224295990808,106.42338970401373L241.5637322442872,101.68248084314268L241.75522152866637,118.72590207485314L242.13820009742466,116.90920418821088L242.32968938180377,98.22408573953632L242.52117866618295,129.6155211695942L242.71266795056206,111.32049126461607L242.9041572349412,82.57135155077866L243.09564651932035,143.86573809790917L243.2871358036995,120.13726865869353L243.47862508807864,118.70730498613906L243.67011437245776,66.65905331800582L243.86160365683693,115.05457843318479L244.62756079435349,109.77324687313364L244.81905007873263,112.923316041008L245.01053936311177,114.27279776975116L245.41266686030798,116.56078006474122L245.6041561446871,111.93076837214815L245.79564542906624,90.95413976119383L245.98713471344539,119.30987614195737L246.17862399782453,107.5535022303777L246.37011328220368,93.71079680927626L246.56160256658282,111.4939762254338L246.9445811353411,79.5753267300769L247.13607041972023,129.5434700817343L247.3275597040994,119.37611042248027L247.7105382728577,106.62889346533892L247.9020275572368,90.94519488223757L248.09351684161592,80.73955808255793L248.2850061259951,100.57643953082655L248.6679846947534,109.28437584864544L248.8594739791325,111.24477172197797L249.05096326351168,97.71485588936868L249.2424525478908,111.84995253305169L249.43394183226994,106.43992191399033L249.62543111664908,111.96711463128626L250.21904789822443,130.19229671795097L250.41053718260355,106.17276175223677L250.98500503574098,97.05312376104301L251.17649432012013,130.8738472887971L251.36798360449927,126.9120193722445L251.75096217325756,116.41070731411895L251.9424514576367,90.61134353062347L252.13394074201585,122.43521948529053L252.5169193107741,81.6014472542865L252.70840859515326,109.17691428711785L252.8998978795324,103.12095884546986L253.2828764482907,102.71523653371554L253.47436573266984,125.71693785275419L253.66585501704895,89.30423574958813L253.85734430142813,107.89247184524524L254.04883358580724,112.86091716290593L254.24032287018642,89.75579836931378L254.43181215456553,103.49556738867396L254.83393965176174,99.91224712145201L255.40840750489917,91.88945074879521L255.5998967892783,113.5625190243004L256.1743646424157,107.74549641272917L256.3658539267949,107.78172844453285L256.557343211174,95.8087970803441L256.7488324955532,104.49937963005038L256.9403217799323,129.10534015719963L257.32330034869057,82.04848032086682L257.5147896330697,115.26874150513021L257.70627891744886,97.5776161404317L257.897768201828,100.62258298056997L258.08925748620715,85.80697259876855L258.2807467705863,120.98694868571707L258.47223605496544,103.73953061482386L258.6637253393446,114.41109631821097L258.8552146237237,100.8001537652724L259.04670390810287,127.82022333471811L259.238193192482,119.98576806639112L259.42968247686116,105.2804573560415" fill="none"></path></g></g></g></g></g></g><g transform="translate(61, 176)" clip-path="url(#clip_1)"><clipPath id="clip_1"><rect width="268" height="23"></rect></clipPath><g><g><line x1="0" y1="0" x2="0" y2="5" style="visibility: inherit;" fill="rgb(0, 0, 0)" stroke="rgb(204, 204, 204)" stroke-width="1px"></line><line x1="19.148928437914165" y1="0" x2="19.148928437914165" y2="5" style="visibility: inherit;" fill="rgb(0, 0, 0)" stroke="rgb(204, 204, 204)" stroke-width="1px"></line><line x1="38.29785687582833" y1="0" x2="38.29785687582833" y2="5" style="visibility: inherit;" fill="rgb(0, 0, 0)" stroke="rgb(204, 204, 204)" stroke-width="1px"></line><line x1="57.446785313742495" y1="0" x2="57.446785313742495" y2="5" style="visibility: inherit;" fill="rgb(0, 0, 0)" stroke="rgb(204, 204, 204)" stroke-width="1px"></line><line x1="76.59571375165666" y1="0" x2="76.59571375165666" y2="5" style="visibility: inherit;" fill="rgb(0, 0, 0)" stroke="rgb(204, 204, 204)" stroke-width="1px"></line><line x1="95.74464218957084" y1="0" x2="95.74464218957084" y2="5" style="visibility: inherit;" fill="rgb(0, 0, 0)" stroke="rgb(204, 204, 204)" stroke-width="1px"></line><line x1="114.89357062748499" y1="0" x2="114.89357062748499" y2="5" style="visibility: inherit;" fill="rgb(0, 0, 0)" stroke="rgb(204, 204, 204)" stroke-width="1px"></line><line x1="134.04249906539917" y1="0" x2="134.04249906539917" y2="5" style="visibility: inherit;" fill="rgb(0, 0, 0)" stroke="rgb(204, 204, 204)" stroke-width="1px"></line><line x1="153.19142750331332" y1="0" x2="153.19142750331332" y2="5" style="visibility: inherit;" fill="rgb(0, 0, 0)" stroke="rgb(204, 204, 204)" stroke-width="1px"></line><line x1="172.34035594122753" y1="0" x2="172.34035594122753" y2="5" style="visibility: inherit;" fill="rgb(0, 0, 0)" stroke="rgb(204, 204, 204)" stroke-width="1px"></line><line x1="191.48928437914168" y1="0" x2="191.48928437914168" y2="5" style="visibility: inherit;" fill="rgb(0, 0, 0)" stroke="rgb(204, 204, 204)" stroke-width="1px"></line><line x1="210.63821281705583" y1="0" x2="210.63821281705583" y2="5" style="visibility: inherit;" fill="rgb(0, 0, 0)" stroke="rgb(204, 204, 204)" stroke-width="1px"></line><line x1="229.78714125496998" y1="0" x2="229.78714125496998" y2="5" style="visibility: inherit;" fill="rgb(0, 0, 0)" stroke="rgb(204, 204, 204)" stroke-width="1px"></line><line x1="248.9360696928842" y1="0" x2="248.9360696928842" y2="5" style="visibility: inherit;" fill="rgb(0, 0, 0)" stroke="rgb(204, 204, 204)" stroke-width="1px"></line><line x1="268.08499813079834" y1="0" x2="268.08499813079834" y2="5" style="visibility: inherit;" fill="rgb(0, 0, 0)" stroke="rgb(204, 204, 204)" stroke-width="1px"></line></g><g transform="translate(0, 8)"><text style="text-anchor: middle; visibility: hidden; font-family: Roboto, sans-serif; font-size: 12px; font-weight: 200;" x="0" y="0" dx="0em" dy="0.95em" fill="rgb(255, 255, 255)" stroke="none" stroke-width="1px">-1k</text><text style="text-anchor: middle; visibility: inherit; font-family: Roboto, sans-serif; font-size: 12px; font-weight: 200;" x="19.148928437914165" y="0" dx="0em" dy="0.95em" fill="rgb(255, 255, 255)" stroke="none" stroke-width="1px">0</text><text style="text-anchor: middle; visibility: hidden; font-family: Roboto, sans-serif; font-size: 12px; font-weight: 200;" x="38.29785687582833" y="0" dx="0em" dy="0.95em" fill="rgb(255, 255, 255)" stroke="none" stroke-width="1px">1k</text><text style="text-anchor: middle; visibility: inherit; font-family: Roboto, sans-serif; font-size: 12px; font-weight: 200;" x="57.446785313742495" y="0" dx="0em" dy="0.95em" fill="rgb(255, 255, 255)" stroke="none" stroke-width="1px">2k</text><text style="text-anchor: middle; visibility: hidden; font-family: Roboto, sans-serif; font-size: 12px; font-weight: 200;" x="76.59571375165666" y="0" dx="0em" dy="0.95em" fill="rgb(255, 255, 255)" stroke="none" stroke-width="1px">3k</text><text style="text-anchor: middle; visibility: inherit; font-family: Roboto, sans-serif; font-size: 12px; font-weight: 200;" x="95.74464218957084" y="0" dx="0em" dy="0.95em" fill="rgb(255, 255, 255)" stroke="none" stroke-width="1px">4k</text><text style="text-anchor: middle; visibility: hidden; font-family: Roboto, sans-serif; font-size: 12px; font-weight: 200;" x="114.89357062748499" y="0" dx="0em" dy="0.95em" fill="rgb(255, 255, 255)" stroke="none" stroke-width="1px">5k</text><text style="text-anchor: middle; visibility: inherit; font-family: Roboto, sans-serif; font-size: 12px; font-weight: 200;" x="134.04249906539917" y="0" dx="0em" dy="0.95em" fill="rgb(255, 255, 255)" stroke="none" stroke-width="1px">6k</text><text style="text-anchor: middle; visibility: hidden; font-family: Roboto, sans-serif; font-size: 12px; font-weight: 200;" x="153.19142750331332" y="0" dx="0em" dy="0.95em" fill="rgb(255, 255, 255)" stroke="none" stroke-width="1px">7k</text><text style="text-anchor: middle; visibility: inherit; font-family: Roboto, sans-serif; font-size: 12px; font-weight: 200;" x="172.34035594122753" y="0" dx="0em" dy="0.95em" fill="rgb(255, 255, 255)" stroke="none" stroke-width="1px">8k</text><text style="text-anchor: middle; visibility: hidden; font-family: Roboto, sans-serif; font-size: 12px; font-weight: 200;" x="191.48928437914168" y="0" dx="0em" dy="0.95em" fill="rgb(255, 255, 255)" stroke="none" stroke-width="1px">9k</text><text style="text-anchor: middle; visibility: inherit; font-family: Roboto, sans-serif; font-size: 12px; font-weight: 200;" x="210.63821281705583" y="0" dx="0em" dy="0.95em" fill="rgb(255, 255, 255)" stroke="none" stroke-width="1px">10k</text><text style="text-anchor: middle; visibility: hidden; font-family: Roboto, sans-serif; font-size: 12px; font-weight: 200;" x="229.78714125496998" y="0" dx="0em" dy="0.95em" fill="rgb(255, 255, 255)" stroke="none" stroke-width="1px">11k</text><text style="text-anchor: middle; visibility: inherit; font-family: Roboto, sans-serif; font-size: 12px; font-weight: 200;" x="248.9360696928842" y="0" dx="0em" dy="0.95em" fill="rgb(255, 255, 255)" stroke="none" stroke-width="1px">12k</text><text style="text-anchor: middle; visibility: hidden; font-family: Roboto, sans-serif; font-size: 12px; font-weight: 200;" x="268.08499813079834" y="0" dx="0em" dy="0.95em" fill="rgb(255, 255, 255)" stroke="none" stroke-width="1px">13k</text></g><line x1="0" y1="0" x2="268.08499813079834" y2="0" fill="rgb(0, 0, 0)" stroke="rgb(204, 204, 204)" stroke-width="1px"></line></g></g></g></g></svg>