<svg viewBox="0 0 330 200" xmlns="http://www.w3.org/2000/svg"><g><g><g><g><g><line x1="41.149001121520996" y1="176.89999961853027" x2="36.149001121520996" y2="176.89999961853027" style="visibility: inherit;" fill="rgb(0, 0, 0)" stroke="rgb(204, 204, 204)" stroke-width="1px"></line><line x1="41.149001121520996" y1="163.2923073401818" x2="36.149001121520996" y2="163.2923073401818" style="visibility: inherit;" fill="rgb(0, 0, 0)" stroke="rgb(204, 204, 204)" stroke-width="1px"></line><line x1="41.149001121520996" y1="149.6846150618333" x2="36.149001121520996" y2="149.6846150618333" style="visibility: inherit;" fill="rgb(0, 0, 0)" stroke="rgb(204, 204, 204)" stroke-width="1px"></line><line x1="41.149001121520996" y1="136.0769227834848" x2="36.149001121520996" y2="136.0769227834848" style="visibility: inherit;" fill="rgb(0, 0, 0)" stroke="rgb(204, 204, 204)" stroke-width="1px"></line><line x1="41.149001121520996" y1="122.46923050513634" x2="36.149001121520996" y2="122.46923050513634" style="visibility: inherit;" fill="rgb(0, 0, 0)" stroke="rgb(204, 204, 204)" stroke-width="1px"></line><line x1="41.149001121520996" y1="108.86153822678787" x2="36.149001121520996" y2="108.86153822678787" style="visibility: inherit;" fill="rgb(0, 0, 0)" stroke="rgb(204, 204, 204)" stroke-width="1px"></line><line x1="41.149001121520996" y1="95.25384594843938" x2="36.149001121520996" y2="95.25384594843938" style="visibility: inherit;" fill="rgb(0, 0, 0)" stroke="rgb(204, 204, 204)" stroke-width="1px"></line><line x1="41.149001121520996" y1="81.6461536700909" x2="36.149001121520996" y2="81.6461536700909" style="visibility: inherit;" fill="rgb(0, 0, 0)" stroke="rgb(204, 204, 204)" stroke-width="1px"></line><line x1="41.149001121520996" y1="68.0384613917424" x2="36.149001121520996" y2="68.0384613917424" style="visibility: inherit;" fill="rgb(0, 0, 0)" stroke="rgb(204, 204, 204)" stroke-width="1px"></line><line x1="41.149001121520996" y1="54.43076911339395" x2="36.149001121520996" y2="54.43076911339395" style="visibility: inherit;" fill="rgb(0, 0, 0)" stroke="rgb(204, 204, 204)" stroke-width="1px"></line><line x1="41.149001121520996" y1="40.82307683504546" x2="36.149001121520996" y2="40.82307683504546" style="visibility: inherit;" fill="rgb(0, 0, 0)" stroke="rgb(204, 204, 204)" stroke-width="1px"></line><line x1="41.149001121520996" y1="27.215384556696968" x2="36.149001121520996" y2="27.215384556696968" style="visibility: inherit;" fill="rgb(0, 0, 0)" stroke="rgb(204, 204, 204)" stroke-width="1px"></line><line x1="41.149001121520996" y1="13.607692278348493" x2="36.149001121520996" y2="13.607692278348493" style="visibility: inherit;" fill="rgb(0, 0, 0)" stroke="rgb(204, 204, 204)" stroke-width="1px"></line><line x1="41.149001121520996" y1="0" x2="36.149001121520996" y2="0" style="visibility: inherit;" fill="rgb(0, 0, 0)" stroke="rgb(204, 204, 204)" stroke-width="1px"></line></g><g transform="translate(31.149001121520996, 0)"><text style="text-anchor: end; visibility: hidden; font-family: Roboto, sans-serif; font-size: 12px; font-weight: 200;" x="0" y="176.89999961853027" dx="0em" dy="0.3em" fill="rgb(255, 255, 255)" stroke="none" stroke-width="1px">0.5</text><text style="text-anchor: end; visibility: inherit; font-family: Roboto, sans-serif; font-size: 12px; font-weight: 200;" x="0" y="163.2923073401818" dx="0em" dy="0.3em" fill="rgb(255, 255, 255)" stroke="none" stroke-width="1px">0.6</text><text style="text-anchor: end; visibility: hidden; font-family: Roboto, sans-serif; font-size: 12px; font-weight: 200;" x="0" y="149.6846150618333" dx="0em" dy="0.3em" fill="rgb(255, 255, 255)" stroke="none" stroke-width="1px">0.7</text><text style="text-anchor: end; visibility: inherit; font-family: Roboto, sans-serif; font-size: 12px; font-weight: 200;" x="0" y="136.0769227834848" dx="0em" dy="0.3em" fill="rgb(255, 255, 255)" stroke="none" stroke-width="1px">0.8</text><text style="text-anchor: end; visibility: hidden; font-family: Roboto, sans-serif; font-size: 12px; font-weight: 200;" x="0" y="122.46923050513634" dx="0em" dy="0.3em" fill="rgb(255, 255, 255)" stroke="none" stroke-width="1px">0.9</text><text style="text-anchor: end; visibility: inherit; font-family: Roboto, sans-serif; font-size: 12px; font-weight: 200;" x="0" y="108.86153822678787" dx="0em" dy="0.3em" fill="rgb(255, 255, 255)" stroke="none" stroke-width="1px">1</text><text style="text-anchor: end; visibility: hidden; font-family: Roboto, sans-serif; font-size: 12px; font-weight: 200;" x="0" y="95.25384594843938" dx="0em" dy="0.3em" fill="rgb(255, 255, 255)" stroke="none" stroke-width="1px">1.1</text><text style="text-anchor: end; visibility: inherit; font-family: Roboto, sans-serif; font-size: 12px; font-weight: 200;" x="0" y="81.6461536700909" dx="0em" dy="0.3em" fill="rgb(255, 255, 255)" stroke="none" stroke-width="1px">1.2</text><text style="text-anchor: end; visibility: hidden; font-family: Roboto, sans-serif; font-size: 12px; font-weight: 200;" x="0" y="68.0384613917424" dx="0em" dy="0.3em" fill="rgb(255, 255, 255)" stroke="none" stroke-width="1px">1.3</text><text style="text-anchor: end; visibility: inherit; font-family: Roboto, sans-serif; font-size: 12px; font-weight: 200;" x="0" y="54.43076911339395" dx="0em" dy="0.3em" fill="rgb(255, 255, 255)" stroke="none" stroke-width="1px">1.4</text><text style="text-anchor: end; visibility: hidden; font-family: Roboto, sans-serif; font-size: 12px; font-weight: 200;" x="0" y="40.82307683504546" dx="0em" dy="0.3em" fill="rgb(255, 255, 255)" stroke="none" stroke-width="1px">1.5</text><text style="text-anchor: end; visibility: inherit; font-family: Roboto, sans-serif; font-size: 12px; font-weight: 200;" x="0" y="27.215384556696968" dx="0em" dy="0.3em" fill="rgb(255, 255, 255)" stroke="none" stroke-width="1px">1.6</text><text style="text-anchor: end; visibility: hidden; font-family: Roboto, sans-serif; font-size: 12px; font-weight: 200;" x="0" y="13.607692278348493" dx="0em" dy="0.3em" fill="rgb(255, 255, 255)" stroke="none" stroke-width="1px">1.7</text><text style="text-anchor: end; visibility: hidden; font-family: Roboto, sans-serif; font-size: 12px; font-weight: 200;" x="0" y="0" dx="0em" dy="0.3em" fill="rgb(255, 255, 255)" stroke="none" stroke-width="1px">1.8</text></g><line x1="41.149001121520996" y1="0" x2="41.149001121520996" y2="176.89999961853027" fill="rgb(0, 0, 0)" stroke="rgb(204, 204, 204)" stroke-width="1px"></line></g></g><g transform="translate(41, 0)" clip-path="url(#clip_0)"><clipPath id="clip_0"><rect width="288" height="176"></rect></clipPath><g><g><g><line x1="0" y1="0" x2="0" y2="176.89999961853027" fill="rgb(0, 0, 0)" stroke="rgb(189, 189, 189)" stroke-width="1px" opacity="0.25"></line><line x1="20.632214205605642" y1="0" x2="20.632214205605642" y2="176.89999961853027" fill="rgb(0, 0, 0)" stroke="rgb(189, 189, 189)" stroke-width="1px" opacity="0.25"></line><line x1="41.264428411211284" y1="0" x2="41.264428411211284" y2="176.89999961853027" fill="rgb(0, 0, 0)" stroke="rgb(189, 189, 189)" stroke-width="1px" opacity="0.25"></line><line x1="61.896642616816926" y1="0" x2="61.896642616816926" y2="176.89999961853027" fill="rgb(0, 0, 0)" stroke="rgb(189, 189, 189)" stroke-width="1px" opacity="0.25"></line><line x1="82.52885682242257" y1="0" x2="82.52885682242257" y2="176.89999961853027" fill="rgb(0, 0, 0)" stroke="rgb(189, 189, 189)" stroke-width="1px" opacity="0.25"></line><line x1="103.16107102802822" y1="0" x2="103.16107102802822" y2="176.89999961853027" fill="rgb(0, 0, 0)" stroke="rgb(189, 189, 189)" stroke-width="1px" opacity="0.25"></line><line x1="123.79328523363385" y1="0" x2="123.79328523363385" y2="176.89999961853027" fill="rgb(0, 0, 0)" stroke="rgb(189, 189, 189)" stroke-width="1px" opacity="0.25"></line><line x1="144.4254994392395" y1="0" x2="144.4254994392395" y2="176.89999961853027" fill="rgb(0, 0, 0)" stroke="rgb(189, 189, 189)" stroke-width="1px" opacity="0.25"></line><line x1="165.05771364484514" y1="0" x2="165.05771364484514" y2="176.89999961853027" fill="rgb(0, 0, 0)" stroke="rgb(189, 189, 189)" stroke-width="1px" opacity="0.25"></line><line x1="185.6899278504508" y1="0" x2="185.6899278504508" y2="176.89999961853027" fill="rgb(0, 0, 0)" stroke="rgb(189, 189, 189)" stroke-width="1px" opacity="0.25"></line><line x1="206.32214205605644" y1="0" x2="206.32214205605644" y2="176.89999961853027" fill="rgb(0, 0, 0)" stroke="rgb(189, 189, 189)" stroke-width="1px" opacity="0.25"></line><line x1="226.95435626166207" y1="0" x2="226.95435626166207" y2="176.89999961853027" fill="rgb(0, 0, 0)" stroke="rgb(189, 189, 189)" stroke-width="1px" opacity="0.25"></line><line x1="247.5865704672677" y1="0" x2="247.5865704672677" y2="176.89999961853027" fill="rgb(0, 0, 0)" stroke="rgb(189, 189, 189)" stroke-width="1px" opacity="0.25"></line><line x1="268.21878467287337" y1="0" x2="268.21878467287337" y2="176.89999961853027" fill="rgb(0, 0, 0)" stroke="rgb(189, 189, 189)" stroke-width="1px" opacity="0.25"></line><line x1="288.850998878479" y1="0" x2="288.850998878479" y2="176.89999961853027" fill="rgb(0, 0, 0)" stroke="rgb(189, 189, 189)" stroke-width="1px" opacity="0.25"></line></g><g><line x1="0" y1="176.89999961853027" x2="288.850998878479" y2="176.89999961853027" fill="rgb(0, 0, 0)" stroke="rgb(189, 189, 189)" stroke-width="1px" opacity="0.25"></line><line x1="0" y1="163.2923073401818" x2="288.850998878479" y2="163.2923073401818" fill="rgb(0, 0, 0)" stroke="rgb(189, 189, 189)" stroke-width="1px" opacity="0.25"></line><line x1="0" y1="149.6846150618333" x2="288.850998878479" y2="149.6846150618333" fill="rgb(0, 0, 0)" stroke="rgb(189, 189, 189)" stroke-width="1px" opacity="0.25"></line><line x1="0" y1="136.0769227834848" x2="288.850998878479" y2="136.0769227834848" fill="rgb(0, 0, 0)" stroke="rgb(189, 189, 189)" stroke-width="1px" opacity="0.25"></line><line x1="0" y1="122.46923050513634" x2="288.850998878479" y2="122.46923050513634" fill="rgb(0, 0, 0)" stroke="rgb(189, 189, 189)" stroke-width="1px" opacity="0.25"></line><line x1="0" y1="108.86153822678787" x2="288.850998878479" y2="108.86153822678787" fill="rgb(0, 0, 0)" stroke="rgb(189, 189, 189)" stroke-width="1px" opacity="0.25"></line><line x1="0" y1="95.25384594843938" x2="288.850998878479" y2="95.25384594843938" fill="rgb(0, 0, 0)" stroke="rgb(189, 189, 189)" stroke-width="1px" opacity="0.25"></line><line x1="0" y1="81.6461536700909" x2="288.850998878479" y2="81.6461536700909" fill="rgb(0, 0, 0)" stroke="rgb(189, 189, 189)" stroke-width="1px" opacity="0.25"></line><line x1="0" y1="68.0384613917424" x2="288.850998878479" y2="68.0384613917424" fill="rgb(0, 0, 0)" stroke="rgb(189, 189, 189)" stroke-width="1px" opacity="0.25"></line><line x1="0" y1="54.43076911339395" x2="288.850998878479" y2="54.43076911339395" fill="rgb(0, 0, 0)" stroke="rgb(189, 189, 189)" stroke-width="1px" opacity="0.25"></line><line x1="0" y1="40.82307683504546" x2="288.850998878479" y2="40.82307683504546" fill="rgb(0, 0, 0)" stroke="rgb(189, 189, 189)" stroke-width="1px" opacity="0.25"></line><line x1="0" y1="27.215384556696968" x2="288.850998878479" y2="27.215384556696968" fill="rgb(0, 0, 0)" stroke="rgb(189, 189, 189)" stroke-width="1px" opacity="0.25"></line><line x1="0" y1="13.607692278348493" x2="288.850998878479" y2="13.607692278348493" fill="rgb(0, 0, 0)" stroke="rgb(189, 189, 189)" stroke-width="1px" opacity="0.25"></line><line x1="0" y1="0" x2="288.850998878479" y2="0" fill="rgb(0, 0, 0)" stroke="rgb(189, 189, 189)" stroke-width="1px" opacity="0.25"></line></g></g></g><g><g><line x1="0" y1="244.93846101027268" x2="288.850998878479" y2="244.93846101027268" fill="rgb(0, 0, 0)" stroke="rgb(153, 153, 153)" stroke-width="1.5px"></line></g></g><g><g><line x1="20.632214205605642" y1="0" x2="20.632214205605642" y2="176.89999961853027" fill="rgb(0, 0, 0)" stroke="rgb(153, 153, 153)" stroke-width="1.5px"></line></g></g><g><g><g><g><g><path style="fill: none;" stroke="rgb(204, 51, 17)" stroke-width="2px" d="M20.817904133456096,16.702497653523068L21.230548417568205,45.57238754507856L21.436870559624264,60.28586757871056L21.64319270168032,76.81184248826493L22.262159127848488,91.85109795019417L22.674803411960603,91.33690195415922L22.881125554016656,95.97310244953464L23.087447696072715,94.94936923427186L23.706414122240883,103.52652118290787L23.91273626429694,106.46752225799744L24.119058406353,110.16666695507433L24.325380548409054,112.19988560907221L24.531702690465107,111.83822472415433L24.738024832521166,113.76747747669175L24.944346974577222,114.11134396583321L25.356991258689337,114.63418273180991L25.56331340074539,114.4300831091639L25.99658989906311,116.94035542861567L26.20291204111917,118.59665887745251L26.409234183175222,120.83893825387408L26.615556325231278,122.43566154336632L26.821878467287338,123.88617060434579L27.028200609343394,123.72214236125633L27.23452275139945,124.94082185591677L27.440844893455505,122.62140173691976L27.64716703551156,122.82887935002579L27.85348917756762,123.08674545581641L28.26613346167973,122.44477156979264L28.47245560373579,122.91307815904686L28.678777745791844,122.84758699275818L28.8850998878479,124.29469682896246L29.091422029903956,126.69553875396342L29.50406631401607,126.1309734425046L29.710388456072124,126.95394512317283L30.329354882240295,128.15233671886233L30.535677024296355,128.74273963198144L30.741999166352407,128.13478900526678L30.948321308408463,127.80128680063632L31.175275664670128,128.30977789206298L31.38159780672618,128.5242971755494L31.58791994878224,129.08662064650252L31.794242090838296,129.78738717979988L32.00056423289435,129.73672843066032L32.20688637495041,129.8723938115721L32.61953065906253,130.6056678435419L32.82585280111858,131.17895783431993L33.23849708523069,131.43554148539843L33.44481922728675,131.9467379759279L33.6511413693428,132.4750735769183L33.85746351139886,133.1415413739164L34.270107795510974,133.36779217940497L34.476429937567026,133.31686379493664L34.682752079623086,134.16321871004516L34.889074221679145,134.52353397492814L35.30171850579126,134.91130289871776L35.50804064784731,135.306857632004L35.71436278990337,135.75938292062648L35.92068493195943,135.77992257313934L36.353961430277145,136.4909615551056L36.76660571438926,136.82327253429438L36.97292785644532,136.4477466807395L37.17924999850137,136.853267244409L37.38557214055742,137.1865815768875L37.59189428261348,137.25726451864983L37.79821642466954,137.37509193267707L38.00453856672559,137.8103583564509L38.21086070878165,138.4585175096428L38.41718285083771,138.45560483528632L38.62350499289376,139.28800595236027L38.82982713494982,139.52146364944687L39.036149277005876,139.68588466605186L39.242471419061935,140.20357167012298L39.44879356111799,140.80003578003465L39.86143784523011,140.78342105923616L40.27408212934222,140.07995885546106L40.48040427139827,140.36224512397175L40.68672641345432,139.4357054951737L41.305692839622495,139.76497736496214L41.53264719588416,139.43115212198387L41.73896933794021,139.50988997469227L42.15161362205233,139.3685282632427L42.35793576410838,139.76256618186397L42.7705800482205,139.4533811488264L42.97690219027656,139.65712823250854L43.18322433233261,139.63316486920215L43.389546474388666,139.7205774628123L43.595868616444726,138.81899740106888L43.80219075850078,138.84679883636716L44.00851290055684,139.27402492694813L44.42115718466895,139.95048944027943L44.62747932672501,140.5262714447647L44.83380146878106,141.09282989682293L45.040123610837114,141.19072404403533L45.24644575289317,141.3551654548641L45.45276789494923,141.29911135874377L45.65909003700529,141.5165437888995L45.865412179061344,141.84626615408834L46.071734321117404,142.10682605237898L46.27805646317346,142.65145899279295L46.71133296149118,143.02761029149855L46.91765510354723,142.83888600701368L47.12397724560329,143.2842336467112L47.33029938765935,143.18264325816722L47.5366215297154,143.18692391955048L47.74294367177146,143.00618026960834L47.949265813827516,142.83563111976713L48.15558795588357,143.03988707835737L48.56823223999569,143.47492559019332L48.98087652410779,143.67135343128675L49.18719866616385,143.3626539129073L49.39352080821991,143.82818822248913L49.59984295027596,143.95913554673842L49.80616509233202,144.14990496949142L50.01248723438808,144.2529997156985L50.425131518500194,144.68151902076806L50.631453660556254,145.0338695392875L50.8377758026123,145.1658128084561L51.04409794466836,145.39246011424484L51.25042008672442,145.67589120485087L51.45674222878047,145.92088062781153L51.89001872709819,146.06088082289259L52.302663011210306,146.44292263412677L52.50898515326636,146.5082275161252L52.71530729532242,147.00856998496857L53.12795157943454,147.08420635162355L53.33427372149058,147.21009259732526L53.54059586354664,146.79137900101782L53.7469180056027,147.1060686570379L53.953240147658754,146.93367846593947L54.15956228971481,146.83769590095184L54.36588443177087,147.22373863842992L54.572206573826925,147.4695038546581L54.778528715882985,147.62579849471322L54.984850857939044,147.7637330215187L55.19117299999509,147.9890448001144L55.60381728410721,148.20699362616782L55.81013942616327,148.6113306692231L56.01646156821932,148.63611905695808L56.22278371027538,149.00447066798898L56.42910585233144,149.1423158577577L56.841750136443544,149.26208818645964L57.06870449270521,149.0370914188248L57.27502663476127,149.12082484778597L57.48134877681733,149.36264143233987L57.68767091887337,149.42259856715918L58.10031520298549,149.74192251576446L58.306637345041544,149.68259815681148L58.5129594870976,149.79385838352823L58.71928162915366,149.86663356198983L58.925603771209715,149.90677078368273L59.131925913265775,149.96477872512764L59.338248055321834,149.93705684811732L59.95721448149,149.8207332724216L60.16353662354606,150.01160807276756L60.36985876560211,150.0635256340015L60.57618090765817,150.21847218284938L60.78250304971423,150.57425289893146L61.195147333826334,150.7092898359952L61.607791617938446,150.75329388275117L61.814113759994505,150.83845422403328L62.020435902050565,150.88388349197757L62.24739025831222,151.100638582962L62.660034542424334,151.18401496372323L62.866356684480394,151.28461403967793L63.07267882653645,151.38490429032328L63.27900096859251,151.4595778159207L63.485323110648565,151.46681726178414L63.69164525270462,151.63339170491884L63.89796739476068,151.41015546121392L64.10428953681674,151.39596048267836L64.31061167887279,151.2842206160562L64.51693382092886,151.58326550640578L64.92957810504096,151.7080331015659L65.13590024709701,151.51484009961396L65.34222238915306,151.6574960826927L65.54854453120913,151.62171626968987L65.96118881532125,151.80139933257283L66.16751095737729,151.78209975273393L66.37383309943336,151.8119899483454L66.58015524148941,152.01693586446927L66.78647738354546,151.844774120307L66.99279952560153,152.01117996524903L67.19912166765758,152.147105153511L67.42607602391924,152.0395523614289L67.6323981659753,152.0995832710198L68.25136459214347,152.00958641800443L68.45768673419953,152.1456041751392L68.66400887625558,152.41318860572304L68.87033101831163,152.47233216000586L69.07665316036768,152.61780404991572L69.28297530242375,152.43763085352873L69.4892974444798,152.42744483352567L69.69561958653587,152.33612808796892L69.90194172859192,152.5486361052818L70.10826387064797,152.54833353326134L70.31458601270404,152.80601786807557L70.72723029681615,153.0386925294863L70.9335524388722,153.14916231855156L71.34619672298432,153.2654689636036L71.55251886504037,153.3618249343607L71.75884100709642,153.423487598103L71.96516314915249,153.41664132211946L72.17148529120854,153.42205692745782L72.37780743326459,153.43315448552426L73.01740607363837,153.22761103734612L73.22372821569442,153.1995241127827L73.43005035775049,153.24522053374812L73.63637249980654,153.04993012897788L74.04901678391865,153.07592379562652L74.25533892597471,153.1265717894692L74.46166106803076,153.08995183635716L74.66798321008683,153.183351131819L75.08062749419894,153.143591625493L75.28694963625499,153.08548169403286L75.6995939203671,153.18004596548127L76.11223820447923,153.2433769492093L76.31856034653528,153.0725494794708L76.73120463064738,152.85144583407006L76.93752677270344,152.94817728611585L77.35017105681555,153.0226784805081L77.55649319887162,152.88713674592248L77.78344755513328,153.05865614407224L77.98976969718933,152.88733838337964L78.40241398130144,152.7403210393687L78.6087361233575,152.69024636559664L78.81505826541355,152.68100322695815L79.02138040746962,152.40218996503197L79.22770254952567,152.32776656896948L79.43402469158173,152.3010277663432L79.64034683363778,152.39258958296227L79.84666897569383,152.49129409916492L80.0529911177499,152.57369127345513L80.25931325980595,152.68703944848278L80.46563540186202,152.7024227714449L80.67195754391807,152.7477247903146L80.87827968597414,152.6290716733342L81.08460182803017,152.70646524006276L81.90989039625441,152.9173807544328L82.11621253831046,152.99548449399427L82.32253468036652,153.07243460206422L82.52885682242257,153.06528502258746L82.73517896447862,153.11613619995825L82.96213332074029,153.02819487717605L83.16845546279635,153.0449625679215L83.58109974690846,152.99559117631787L83.78742188896452,152.69311877352075L83.99374403102057,152.77209554899017L84.20006617307662,152.87317900935798L84.40638831513269,152.88906593722479L84.61271045718874,152.89631196361614L84.8190325992448,152.92504162212822L85.23167688335693,153.03039204180624L85.43799902541296,153.10883550583327L85.64432116746902,153.0540584851097L85.85064330952508,153.14804853944375L86.05696545158114,153.22558193043153L86.2632875936372,153.38575738110796L86.67593187774929,153.47216594137785L86.88225401980536,153.48876512071024L87.08857616186141,153.54828951450577L87.29489830391748,153.67296219875294L87.50122044597353,153.7738548018371L87.91386473008565,153.86219617141694L88.1408190863473,153.97409865244623L88.55346337045941,154.0575972338474L88.96610765457153,154.04183114121872L89.1724297966276,154.12134508035174L89.37875193868365,154.2427864004918L89.5850740807397,154.37059358493028L89.79139622279575,154.45365865840174L89.9977183648518,154.56171162686343L90.41036264896393,154.65526041616366L90.61668479101999,154.7088443026204L90.82300693307604,154.83610224162663L91.23565121718815,154.86022104475018L91.4419733592442,154.89623259399525L91.64829550130027,155.01763476000465L91.85461764335632,155.13649507340494L92.06093978541239,154.94575332160434L92.26726192746844,155.00973380674654L92.47358406952449,155.0995423077533L92.67990621158054,155.08417739839163L92.8862283536366,155.02369033735616L93.09255049569266,155.0790213295721L93.31950485195432,154.98958114655213L93.73214913606644,155.07812073905325L93.93847127812249,155.15981369839366L94.14479342017854,155.20923955749842L94.3511155622346,155.1949796859489L94.76375984634672,155.04059064525313L94.97008198840278,155.14083674693626L95.3827262725149,155.14603586414444L95.58904841457094,155.26035864150649L95.79537055662699,155.2474716246759L96.00169269868306,155.1589262496418L96.20801484073911,155.1963232496295L96.41433698279518,155.22478470099617L96.62065912485123,155.2401949400478L96.82698126690728,155.03984542022584L97.03330340896333,155.19758576196617L97.23962555101939,155.27081864217578L98.06491411924362,155.33893207128952L98.27123626129968,155.44496709091277L98.49819061756135,155.52804081686847L98.91083490167345,155.28137599654747L99.1171570437295,155.3208362876181L99.73612346989769,155.2256435102158L99.94244561195373,155.36399024144052L100.35508989606585,155.3582884455139L100.5614120381219,155.36119041804324L100.76773418017797,155.27657829307586L101.38670060634612,155.3584703165972L101.59302274840218,155.19872927934492L101.79934489045824,155.35778198568332L102.0056670325143,155.36172401559386L102.21198917457036,155.39720698566092L102.41831131662641,155.50857634131265L102.62463345868247,155.52958350286352L102.83095560073852,155.51179727775843L103.03727774279459,155.58957254300068L103.24359988485064,155.7565326792727L103.44992202690669,155.7003220996035L103.67687638316836,155.73072887992427L103.88319852522442,155.73998079080667L104.08952066728048,155.7414008816053L104.29584280933653,155.76920574313274L104.50216495139257,155.78388172877135L104.70848709344864,155.73962136712953L104.91480923550469,155.417613478867L105.12113137756076,155.51577049909957L105.32745351961681,155.60268625875457L105.53377566167288,155.5996404678639L105.74009780372891,155.74172248832872L106.15274208784103,155.77828452174083L106.35906422989709,155.84234599959717L106.56538637195315,155.9327841207828L106.7717085140092,155.9294802727043L107.39067494017736,156.0313364815954L107.59699708223343,156.0466579658055L107.80331922428948,156.0875579575531L108.00964136634555,156.17949087507958L108.2159635084016,156.18180583384313L108.42228565045765,156.26276419933262L108.6286077925137,156.342027021505L108.85556214877536,156.40595128015443L109.06188429083143,156.50637938158502L109.26820643288748,156.61502536078712L109.6808507169996,156.63883889510836L109.88717285905567,156.7779034589963L110.0934950011117,156.85319278025813L110.71246142727988,156.87799127944407L110.91878356933594,156.99117356407257L111.125105711392,156.98991005469856L111.33142785344806,157.0892091530618L111.5377499955041,157.09108793897306L111.74407213756015,157.0612884793068L111.95039427961622,157.11552535454288L112.15671642167227,157.22495892979111L112.56936070578439,157.19513233179813L112.77568284784044,157.2629645306098L112.9820049898965,157.31920147545725L113.18832713195256,157.40066158489168L114.03424791438239,157.43728628082212L114.24057005643846,157.42083153944932L114.44689219849451,157.37294389526932L114.65321434055055,157.33775984281556L114.85953648260661,157.1651101520025L115.06585862466267,157.15499627091424L115.27218076671873,157.23791988752063L115.68482505083085,157.21486578604902L116.09746933494294,157.17536930422645L116.30379147699901,157.26443785314743L116.51011361905506,157.36117783062033L116.71643576111113,157.39475837280753L116.92275790316718,157.4453316942226L117.12908004522325,157.45786848968729L117.33540218727929,157.4428584889714L117.7480464713914,157.5347665107019L117.95436861344746,157.42816861991008L118.16069075550352,157.5051773235949L118.36701289755958,157.55100120159568L118.77965718167168,157.59672590793716L118.98597932372775,157.7326949866299L119.2129336799894,157.74451587853397L119.83190010615758,157.7570019658915L120.03822224821364,157.7999803401617L120.24454439026968,157.84459433571178L120.45086653232573,157.7444888964925L120.6571886743818,157.72087696412984L120.86351081643785,157.76687756279563L121.06983295849392,157.82033090146862L121.48247724260604,157.98328656499908L121.68879938466208,157.9176396037742L121.89512152671814,158.00168751592534L122.1014436687742,158.0816675974992L122.30776581083025,158.13386676887586L122.51408795288631,158.0137150049709L123.13305437905447,158.03322134920074L123.33937652111054,158.0903275656422L123.75202080522266,158.1057860245624L123.95834294727871,158.14466852640234L124.16466508933476,158.11489084371289L124.59794158765249,158.0850843895328L124.80426372970852,158.14411972155946L125.01058587176459,158.11098266504354L125.62955229793276,158.1978037407331L125.83587443998883,158.0903211187753L126.04219658204487,158.00874870284875L126.24851872410092,158.02645133392608L126.45484086615699,158.02944639482078L126.66116300821304,158.10803699519963L126.8674851502691,158.18429315846188L127.07380729232516,158.1456055133291L127.28012943438122,158.0293829093133L127.69277371849333,158.1572298840217L127.89909586054938,158.20768337217322L128.10541800260543,158.25500617485818L128.31174014466148,158.25600479958158L128.51806228671757,158.29446488719597L128.7243844287736,158.3904274079585L129.13702871288572,158.4946090536429L129.7766273532595,158.45264836257556L129.98294949531555,158.5321619989816L130.1892716373716,158.637206593775L130.6019159214837,158.66434275330496L130.80823806353976,158.69197790529188L131.01456020559584,158.6679019208912L131.2208823476519,158.63199056679727L131.42720448970795,158.56430012360673L131.633526631764,158.53106348067385L131.83984877382005,158.546842367778L132.0461709158761,158.4310423448842L132.25249305793218,158.5495763865059L132.45881519998824,158.5385108987537L132.6651373420443,158.5547167411471L132.87145948410034,158.63664942989365L133.0777816261564,158.7266340813902L133.28410376821245,158.7531726401586L133.4904259102685,158.86410400128378L133.90307019438063,158.91282899051248L134.10939233643668,158.86957054023372L134.31571447849274,158.93150213202495L134.74899097681046,158.9665834944286L135.16163526092257,158.99655039830145L135.36795740297862,159.09785146325018L135.57427954503467,159.1282052540032L135.78060168709075,159.15431838482453L135.9869238291468,159.2069811426275L136.3995681132589,159.2459952815515L136.60589025531496,159.24670045863175L136.812212397371,159.31285538990912L137.01853453942707,159.2836245183616L137.22485668148315,159.30515488289672L137.4311788235392,159.23467514586775L137.63750096559525,159.27688615265419L138.05014524970736,159.2857634523609L138.2564673917634,159.24743851516052L138.4627895338195,159.24981816408902L138.66911167587554,159.3173750340986L138.87543381793157,159.3746356829939L139.08175595998765,159.4429865159183L139.2880781020437,159.42483596598353L139.49440024409975,159.36157385026175L139.92767674241747,159.40291765471463L140.13399888447353,159.38273814381884L140.34032102652958,159.39783517250217L140.95928745269774,159.4384259696094L141.78457602092197,159.50379698293804L141.99089816297803,159.56144899579425L142.19722030503408,159.5980572010363L142.6098645891462,159.66764496336413L142.81618673120227,159.76655596155786L143.02250887325832,159.77731742316553L143.22883101531437,159.85278580531022L143.43515315737042,159.8686505564675L143.64147529942647,159.95349329817387L143.84779744148256,159.96620292469734L144.0541195835386,160.00197128873873L144.26044172559466,160.02408452245908L144.4667638676507,160.0047926245842L144.6730860097068,159.9995870084383L144.87940815176282,159.83000464655194L145.31268465008057,159.8660075477938L145.5190067921366,159.88972414439388L145.72532893419265,159.91767402144546L145.93165107624873,159.89253744874057L146.13797321830475,159.95808759005135L146.34429536036083,159.94144885827635L146.55061750241688,159.92342829432516L146.75693964447296,159.90024849912282L146.963261786529,159.91472305944407L147.16958392858504,159.97070685122088L147.58222821269715,160.00846047326385L147.78855035475323,160.03246405818183L147.99487249680928,160.0398996373601L148.20119463886536,160.01749389663132L148.40751678092138,160.0598129081938L148.61383892297744,160.0763612595481L148.82016106503352,160.05181753773718L149.02648320708954,160.1631734961972L149.23280534914562,160.0795950064144L149.43912749120167,160.0638290693271L149.64544963325773,160.05313385232242L149.85177177531378,160.0600751242429L150.2850482736315,160.00280035692205L150.49137041568756,159.99906944439905L150.6976925577436,159.96117043228747L150.9040146997997,159.98143910298327L151.11033684185574,159.90345546471175L151.7293032680239,159.96066901313867L151.93562541007995,159.98650925514187L152.141947552136,159.98425511560072L152.34826969419208,160.02231813627688L152.55459183624814,159.9784054996791L152.76091397830416,160.0327636884031L153.1735582624163,160.08502210307546L153.37988040447235,160.01988113164032L153.5862025465284,160.00521130174403L153.79252468858448,160.05026434011543L153.99884683064053,159.9674939789238L154.20516897269655,159.96859752729242L154.41149111475264,160.0094362048765L154.6178132568087,160.07305106482337L155.0304575409208,160.1330277585937L155.23677968297687,160.13344739238156L155.67005618129457,160.12228799083923L155.87637832335062,160.13094352811672L156.0827004654067,160.07803039163107L156.28902260746273,160.01478247671812L156.4953447495188,160.05702617341865L157.11431117568696,160.0626680396847L157.32063331774302,160.1439131538946L157.5269554597991,160.21113642340748L157.73327760185512,160.30931374960446L158.14592188596725,160.27534527314322L158.55856617007936,160.26612607482198L158.9712104541915,160.2500287364384L159.3838547383036,160.2585080963641L159.59017688035965,160.22895496899216L159.79649902241573,160.16236128205432L160.00282116447175,160.0964979677488L160.2091433065278,160.0120058426805L160.64241980484553,160.00835055426802L160.84874194690158,160.03747272006876L161.05506408895766,160.06036681941006L161.26138623101372,160.08235931814136L161.46770837306977,160.13259230400166L161.67403051512582,160.25737921588416L162.08667479923793,160.31625745447744L162.29299694129398,160.25770452009053L162.49931908335006,160.25907005206884L162.7056412254061,160.26261361447237L163.11828550951822,160.31153479797706L163.32460765157427,160.32987097873928L163.53092979363035,160.3776319258542L163.73725193568637,160.3998012888034L164.1498962197985,160.38571733757462L164.35621836185453,160.40064702602714L164.5625405039106,160.4526056855558L164.76886264596666,160.48051881124218L164.97518478802274,160.4843834606904L165.18150693007877,160.54752093623526L165.38782907213485,160.58059454825317L165.5941512141909,160.53738510435903L165.82110557045254,160.61522138062128L166.23374985456468,160.59080084528773L166.4400719966207,160.63126385079437L166.85271628073284,160.60976126877668L167.05903842278892,160.467435141662L167.26536056484494,160.47443237745483L167.471682706901,160.47931351130146L167.67800484895707,160.522079644049L167.8843269910131,160.4486566848606L168.09064913306918,160.371605399391L168.29697127512523,160.25929651958074L168.5032934171813,160.30438639014616L168.9159377012934,160.22153423141296L169.12225984334947,160.1604263171803L169.3285819854055,160.1516105965692L169.53490412746157,160.14771769211887L169.74122626951763,160.23202193387752L169.9475484115737,160.26550951761024L170.15387055362973,160.28642181840053L170.36019269568578,160.20816075124503L170.56651483774186,160.2505026959121L170.77283697979792,160.25678214820655L170.99979133605956,160.21228530256076L171.20611347811564,160.2858375021977L171.4124356201717,160.30432635091992L171.61875776222774,160.34217171048596L171.8250799042838,160.34332269616112L172.03140204633985,160.3895982833924L172.2377241883959,160.4270135975248L172.44404633045195,160.45754050110943L172.65036847250803,160.45907862338512L172.8566906145641,160.5096817256208L173.0630127566201,160.49075828100655L173.2693348986762,160.47477725708995L173.68197918278833,160.46179291865218L173.88830132484435,160.465744554779L174.09462346690043,160.54132849741583L174.5072677510125,160.62473936598857L174.7135898930686,160.64268471008302L174.91991203512464,160.6175899436648L175.12623417718072,160.6716092902824L175.33255631923674,160.58636770061207L176.38479924372265,160.57400894106704L176.59112138577868,160.53056655136908L176.79744352783476,160.44070221469568L177.2100878119469,160.39203454055433L177.41640995400292,160.42182589062097L177.62273209605897,160.47630611285788L177.82905423811505,160.49963099499575L178.03537638017107,160.56674284406068L178.4480206642832,160.60016557742932L178.6543428063393,160.60066838551268L178.8606649483953,160.552908776193L179.06698709045136,160.5869746796432L179.27330923250744,160.59583230350836L179.47963137456347,160.60468155800166L179.68595351661955,160.5945470506928L179.8922756586756,160.6077836383422L180.09859780073168,160.63032909279102L180.3049199427877,160.68980007366739L180.51124208484376,160.75296935476817L180.71756422689984,160.6824363887839L180.9238863689559,160.6544697010216L181.35716286727362,160.6459951633822L181.56348500932967,160.65911107334105L181.76980715138572,160.65700699305827L181.97612929344177,160.5944024887183L182.18245143549782,160.50870526487725L182.3887735775539,160.49408729698655L182.59509571960993,160.51075038715842L182.801417861666,160.56331130518993L183.00774000372206,160.64032379032187L183.62670642989022,160.5583879192127L183.8330285719463,160.52265265472798L184.03935071400232,160.5798429635408L184.2456728560584,160.62449106416452L184.45199499811446,160.59773325056162L184.65831714017048,160.56280705583197L185.07096142428261,160.54702036864313L185.2772835663387,160.6064512558339L185.48360570839472,160.67609495147084L185.6899278504508,160.6313164365758L185.89624999250685,160.63902415358217L186.10257213456288,160.71328431587403L186.30889427661896,160.6998307789649L186.53584863288063,160.73199780147004L186.94849291699273,160.730315513204L187.1548150590488,160.7863517804491L187.36113720110487,160.79843804816545L187.5674593431609,160.78804422409533L187.77378148521694,160.81610254105485L187.98010362727302,160.76896025282306L188.18642576932905,160.79062429550706L188.39274791138513,160.8197826655598L188.59907005344118,160.76895243511305L188.80539219549726,160.8205001271156L189.21803647960934,160.7229328535609L189.42435862166542,160.6693287627813L189.63068076372147,160.68823975029449L190.04332504783358,160.7264323064679L190.24964718988966,160.7411808106469L190.45596933194568,160.63761959419253L190.66229147400173,160.6450948134304L190.86861361605781,160.68299461043514L191.07493575811387,160.71026996628004L191.28125790016992,160.73784937588067L191.48758004222597,160.80603753990454L191.71453439848764,160.83744763132387L191.9208565405437,160.81767488041942L192.12717868259975,160.82744250474752L192.3335008246558,160.7826587163868L192.53982296671188,160.83262198569375L192.7461451087679,160.88269210079616L193.15878939288004,160.94226959098296L193.3651115349361,160.91443433554872L193.57143367699214,160.8702824671692L193.7777558190482,160.93918415599086L193.98407796110428,160.9379487453634L194.1904001031603,160.95356615820828L194.60304438727243,160.97270156023595L194.80936652932846,160.93620566574575L195.2220108134406,160.89212889218732L195.42833295549667,160.8368651799655L195.84097723960878,160.81629705435495L196.25362152372085,160.82535659125236L196.89322016409463,160.8392632955647L197.0995423061507,160.86108979084767L197.71850873231887,160.9048637036707L197.92483087437492,160.94528758277258L198.131153016431,160.97129154430587L198.33747515848702,161.01053473990544L198.5437973005431,160.99211176412123L198.95644158465524,160.95896242859862L199.16276372671126,161.01641428761002L199.3690858687673,161.0397246917487L199.9880522949355,161.04970150179147L200.19437443699155,161.1124289714684L200.60701872110366,161.18897177543985L200.8133408631597,161.20151447587818L201.0196630052158,161.19726818251908L201.22598514727184,161.23137393849157L201.4323072893279,161.21848784810598L201.63862943138395,161.24097173851777L201.84495157344,161.19717279495495L202.27822807175772,161.21243145849132L202.48455021381378,161.25605538358732L202.69087235586986,161.33802333234223L203.10351663998196,161.3871191413824L203.309838782038,161.4504879041042L203.51616092409407,161.49258892859538L203.72248306615012,161.37815865330032L203.92880520820617,161.4011599597406L204.13512735026225,161.38754732852985L204.34144949231828,161.36313543818318L204.54777163437436,161.3922254259655L204.7540937764304,161.42672582392507L204.96041591848643,161.44963369520488L205.1667380605425,161.43010807889087L205.57938234465465,161.44875117538714L205.78570448671067,161.44029124433706L206.1983487708228,161.41623979729832L206.6109930549349,161.4604962373661L206.81731519699096,161.48403709287066L207.45691383736474,161.55076904485367L207.66323597942082,161.58979284724182L208.0758802635329,161.54621103208385L208.28220240558898,161.57468296200966L208.48852454764503,161.60569538619447L208.69484668970108,161.6022003411943L208.90116883175713,161.59203202900002L209.31381311586924,161.62923578463136L209.5201352579253,161.60859647136436L209.93277954203742,161.6262840793384L210.13910168409348,161.6435693842723L210.5517459682056,161.63278334026805L210.75806811026163,161.63311284925106L210.96439025231768,161.54142046787496L211.17071239437377,161.54273153494483L211.37703453642982,161.56002678735584L211.58335667848587,161.47731255072847L211.78967882054192,161.5157035661288L211.99600096259798,161.3967656939281L212.20232310465406,161.42748680007884L212.63559960297175,161.4194182290144L212.84192174502783,161.4859553867906L213.04824388708386,161.50506683228892L213.25456602913994,161.53073217909966L213.460888171196,161.5488211299004L213.66721031325204,161.61936961174484L213.8735324553081,161.65642091141814L214.07985459736415,161.691027507842L214.28617673942023,161.656277935328L214.49249888147625,161.62105638415156L214.90514316558838,161.63330020006683L215.3177874497005,161.6341597568454L215.52410959175654,161.64814106186483L215.73043173381262,161.6184541644664L215.93675387586865,161.6709340629298L216.14307601792473,161.70707167492174L216.34939815998078,161.676271837533L216.5557203020368,161.73102763877486L216.76204244409288,161.63861325587507L216.96836458614894,161.65485458607733L217.17468672820502,161.6402238588118L217.38100887026104,161.6823808104389L217.6079632265227,161.6574292400244L218.02060751063482,161.6206438007575L218.43325179474695,161.6004591103553L218.639573936803,161.67894047541327L218.84589607885906,161.738199681052L219.0522182209151,161.7187493639573L219.4648625050272,161.72012599355597L219.67118464708327,161.76023414519054L219.87750678913935,161.73473572284863L220.0838289311954,161.7451015329996L220.29015107325145,161.77689709222417L220.4964732153075,161.72721567979914L220.70279535736358,161.763142883806L221.11543964147566,161.7372556674328L221.32176178353174,161.72593662388704L221.9407282096999,161.78476881827356L222.14705035175595,161.743266697605L222.78664899212973,161.74608087218206L222.9929711341858,161.69710904829452L223.19929327624183,161.70826732614466L223.4056154182979,161.74743556152578L223.61193756035397,161.74497977880063L223.81825970241005,161.78233379670016L224.02458184446607,161.80746077893343L224.23090398652212,161.7978119235268L224.4372261285782,161.80750705673984L225.05619255474636,161.78635469063175L225.26251469680238,161.71609844022586L225.46883683885846,161.73002368832724L225.67515898091452,161.69047110844537L225.8814811229706,161.68734994599473L226.2941254070827,161.72558474084266L226.50044754913876,161.69616605519704L226.70676969119478,161.69612049639633L226.91309183325086,161.7331684490617L227.1194139753069,161.72479178406195L227.53205825941902,161.7392465696897L227.7383804014751,161.7692221344057L227.96533475773677,161.72411846207712L228.1716568997928,161.72461156243583L228.37797904184885,161.77287337781436L228.58430118390493,161.78506620139032L228.79062332596098,161.81920744439054L228.99694546801703,161.8341462420139L229.20326761007308,161.87295388460055L229.40958975212916,161.8376844689809L229.82223403624124,161.86605144795942L230.23487832035337,161.81519012511353L230.64752260446548,161.80559761855204L230.85384474652156,161.8357030016698L231.0601668885776,161.82729375400572L231.26648903063364,161.7862961236028L231.47281117268972,161.83997457566133L232.09177759885787,161.88764208522042L232.50442188297,161.92498502698265L232.71074402502603,161.95533157902238L233.14402052334378,161.95541828838756L233.3503426653998,162.00149897780062L233.5566648074559,162.06195393358598L233.76298694951194,162.05011398122394L233.96930909156802,162.05063320078847L234.3819533756801,162.02816650580473L235.20724194390434,162.0552829829951L235.41356408596036,162.08200534962924L235.61988622801644,162.1379232117321L235.8262083700725,162.06054004048133L236.03253051212857,162.04095307648652L236.85781908035278,162.0724615104528L237.06414122240884,162.11346554727925L237.2704633644649,162.16663004328237L237.47678550652097,162.17162086617824L237.88942979063307,162.16372544146975L238.09575193268913,162.18192398423938L238.32270628895077,162.21284434800907L238.7353505730629,162.22895961072703L238.94167271511895,162.2675534209281L239.147994857175,162.30142304683105L239.56063914128714,162.29111766404964L239.97328342539922,162.26444476019154L240.1796055674553,162.25223868109092L240.38592770951135,162.31334673221824L240.79857199362345,162.32474456821095L241.00489413567954,162.34798040047227L241.2112162777356,162.24983769727388L241.4175384197916,162.28556070670467L241.6238605618477,162.3402656582682L241.83018270390374,162.33414487235478L242.0365048459598,162.31775267497707L242.24282698801585,162.2308157314943L242.4491491300719,162.18837136320232L242.65547127212798,162.11654513367495L242.861793414184,162.12600003360734L243.0681155562401,162.14965129205473L243.27443769829614,162.10510173304579L243.70771419661386,162.13567849572803L243.91403633866992,162.17077169689358L244.120358480726,162.1712848670596L244.53300276483807,162.1773935145201L244.73932490689415,162.23158598070913L244.94564704895018,162.2595351633552L245.15196919100626,162.28109020994026L245.56461347511834,162.31375034914765L245.77093561717442,162.3418669497321L245.97725775923047,162.38543600886993L246.18357990128655,162.37208001960286L246.8025463274547,162.38863431297713L247.00886846951076,162.42459916770034L247.2151906115668,162.3000332573192L247.42151275362286,162.30223547802578L248.2468013218471,162.31826645869694L248.6800778201648,162.34715223507538L248.88639996222088,162.3107931082132L249.09272210427693,162.3730828659568L249.29904424633298,162.4103019318732L249.50536638838904,162.39895029463008L249.71168853044512,162.39644288268516L249.91801067250117,162.44275753267326L250.1243328145572,162.4451213387946L250.33065495661327,162.50284162269165L250.53697709866933,162.46829286839625L250.74329924072538,162.45095055269428L250.94962138278143,162.46040083711262L251.1559435248375,162.49531089168434L251.36226566689356,162.5238430760863L251.5685878089496,162.485796514796L251.98123209306172,162.4717054268634L252.18755423511777,162.5490874652525L252.39387637717383,162.57648107146628L252.6001985192299,162.50481677857172L252.80652066128596,162.4654883820452L253.01284280334198,162.46258546765162L253.21916494539806,162.49199456686722L253.85876358577184,162.5055487711375L254.0650857278279,162.4881098893225L254.47773001194,162.50331005916163L254.68405215399605,162.43786676674003L254.89037429605213,162.41105420582562L255.09669643810815,162.4479262567036L255.30301858016423,162.38495379115938L255.5093407222203,162.42291658711017L255.71566286427634,162.4305222872087L255.9219850063324,162.32794322639913L256.12830714838844,162.35943353869874L256.3346292904445,162.33208852116687L256.74727357455663,162.24978983365347L256.95359571661265,162.31449485806914L257.3662400007248,162.35112825336262L257.57256214278084,162.33902067837593L257.98520642689294,162.4159948710594L258.191528568949,162.46926098753426L258.39785071100505,162.50402369578367L258.60417285306113,162.54779625666123L258.8104949951172,162.46844390095333L259.0374493513788,162.453991054685L259.2437714934349,162.41461251490193L259.450093635491,162.33601058488892L259.656415777547,162.35340513990892L260.0690600616591,162.38504810507553L260.2753822037152,162.4325038792977L260.4817043457713,162.46512395769687L260.8943486298834,162.46423009512506L261.1006707719394,162.49522766897906L261.3069929139955,162.483787029212L261.5133150560515,162.51096664421175L261.7196371981076,162.5576539549724L261.9259593401637,162.51378869910994L262.1322814822197,162.52625802553305L262.3386036242758,162.57294129647045L262.5449257663318,162.62879314663923L262.7512479083879,162.65868582857237L263.5765364766121,162.68024981790768L263.7828586186682,162.68314756907196L263.9891807607242,162.69117676250033L264.42245725904195,162.63668365539007L264.628779401098,162.69671624499603L264.835101543154,162.69203178358325L265.0414236852101,162.72489722120517L265.24774582726616,162.75581625096612L265.45406796932224,162.77980538393294L265.66039011137826,162.75356666217982L266.07303439549037,162.78844192744026L266.2793565375464,162.77662419750712L266.4856786796025,162.70024474950608L266.89832296371463,162.703709064919L267.10464510577066,162.68497246321678L267.3109672478267,162.7551835399972L267.51728938988276,162.7321663484427L267.92993367399487,162.75159694034585L268.13625581605095,162.78713828191016L268.34257795810703,162.81855225999792L268.54890010016305,162.88086316106813L268.7552222422191,162.9167417900959L268.96154438427516,162.91280681112096L269.60114302464893,162.93827625527587L269.807465166705,162.91623722001037L270.42643159287314,162.9285666178435L270.6327537349292,162.90592587192788L270.83907587698525,162.94624460662584L271.2517201610974,162.96561439807206L271.45804230315343,163.01731358210372L271.6643644452095,163.00915314297856L272.0770087293216,163.0708231849345L272.28333087137764,163.0663018202977L272.4896530134337,163.09622279260097L272.9022972975459,163.06986177219576L273.1086194396019,163.07072598799144L273.31494158165793,163.14246113171598L273.521263723714,163.17708965398845L273.72758586577004,163.15816200494064L273.9339080078261,163.1593258200151L274.1402301498822,163.1926695204501L274.5735066481999,163.15767221986903L275.1924730743681,163.1801153664846L275.3987952164241,163.17655602313465L276.0177616425923,163.17058011696503L276.22408378464837,163.13574813752547L276.4304059267044,163.1291651673429L276.6367280687605,163.17028502818624L276.8430502108165,163.17023901374088L277.2556944949286,163.24894436595335L277.4620166369847,163.26928604590213L277.66833877904077,163.29540608641952L277.8746609210968,163.3473560219987L278.08098306315287,163.40660937130167L278.2873052052089,163.42372118327538L278.493627347265,163.43389851226829L278.699949489321,163.40664208853534L278.9062716313771,163.4039133201915L279.11259377343316,163.39901868372158L279.3189159154892,163.38139280063098L279.52523805754527,163.42191943562983" fill="none"></path></g></g></g></g><g opacity="0.2"><g><g><g><path style="fill: none;" stroke="rgb(204, 51, 17)" stroke-width="2px" d="M20.817904133456096,16.702497653523068L21.230548417568205,74.4134075467482L21.436870559624264,89.6687019193485L21.64319270168032,126.29067745485071L22.262159127848488,151.85787756066077L22.674803411960603,88.77362463771286L22.881125554016656,123.693107316239L23.087447696072715,87.8118439999917L23.706414122240883,171.83567870296818L23.91273626429694,132.80453918869253L24.119058406353,146.9552701073595L24.325380548409054,134.43154467515697L24.531702690465107,107.52640047728073L24.738024832521166,138.67290157987088L24.944346974577222,118.88952482335208L25.356991258689337,122.41431540996217L25.56331340074539,111.19210839227475L25.99658989906311,159.2329539166469L26.20291204111917,148.1284916241897L26.409234183175222,163.01875869369806L26.615556325231278,154.0369295604092L26.821878467287338,154.0140165033881L27.028200609343394,120.15473111174914L27.23452275139945,152.63654840181258L27.440844893455505,67.64583946826211L27.64716703551156,127.94892580703029L27.85348917756762,129.701502956787L28.26613346167973,105.35205275118622L28.47245560373579,135.83723030783915L28.678777745791844,120.9765677190837L28.8850998878479,167.04154531147228L29.091422029903956,199.94264315716364L29.50406631401607,108.35991666058358L29.710388456072124,153.65521019666258L30.329354882240295,168.19238908517994L30.535677024296355,149.03906867643326L30.741999166352407,106.64877767306433L30.948321308408463,115.69336830554943L31.175275664670128,147.26025303483115L31.38159780672618,136.7253241763438L31.58791994878224,151.12439207903626L31.794242090838296,157.9234220152869L32.00056423289435,127.6541868409808L32.20688637495041,135.57944422242264L32.61953065906253,162.1540807528465L32.82585280111858,156.39226204911216L33.23849708523069,142.9651376373966L33.44481922728675,155.40508644447664L33.6511413693428,157.22348287130458L33.85746351139886,164.99495105834745L34.270107795510974,144.396518337209L34.476429937567026,130.78593536380836L34.682752079623086,177.0269785085104L34.889074221679145,153.11345630970064L35.30171850579126,155.2850301365027L35.50804064784731,156.46403466560056L35.71436278990337,160.3916327392333L35.92068493195943,136.9173558712222L36.353961430277145,176.53742989288168L36.76660571438926,155.85264130692775L36.97292785644532,114.59008636064591L37.17924999850137,160.8382954118535L37.38557214055742,157.2141473213466L37.59189428261348,141.57069359658388L37.79821642466954,144.6760333004165L38.00453856672559,165.1886373598214L38.21086070878165,179.8345011913769L38.41718285083771,138.2669470959901L38.62350499289376,193.981371361321L38.82982713494982,155.07881262331279L39.036149277005876,150.7960094455448L39.242471419061935,175.66649040158046L39.44879356111799,182.21440134369647L39.86143784523011,139.6143646218972L40.27408212934222,89.92920512834098L40.48040427139827,160.74868710956355L40.68672641345432,71.66320806051769L41.305692839622495,164.1546947864129L41.53264719588416,114.39539431790803L41.73896933794021,145.48771516531198L42.15161362205233,128.5057739237679L42.35793576410838,170.40525507951986L42.7705800482205,115.12451618017775L42.97690219027656,155.87690075951187L43.18322433233261,137.70347244205382L43.389546474388666,146.83991807303946L43.595868616444726,64.56233408283684L43.80219075850078,141.1620868756603L44.00851290055684,175.24439539257685L44.42115718466895,197.52436262048164L44.83380146878106,190.3476281747235L45.040123610837114,149.7906169467254L45.24644575289317,155.95099306956064L45.45276789494923,136.2727243859397L45.65909003700529,161.21149030730658L45.865412179061344,172.01191863783953L46.071734321117404,166.18140131712508L46.27805646317346,193.4668860399183L46.71133296149118,178.46401650293245L46.91765510354723,124.8888201276248L47.12397724560329,186.0449697178094L47.33029938765935,133.3365519848643L47.5366215297154,143.60566504945692L47.74294367177146,125.16266562999769L47.949265813827516,125.84500430186115L48.15558795588357,163.5721921566283L48.56823223999569,187.596925817861L48.98087652410779,163.76955265804227L49.18719866616385,111.50018154088804L49.39352080821991,192.29540834866668L49.59984295027596,157.70936945321827L49.80616509233202,164.35235538804272L50.01248723438808,155.26279027726312L50.425131518500194,190.82668139361405L50.631453660556254,183.29084054091456L50.8377758026123,159.60923092242493L51.04409794466836,170.4044439978554L51.25042008672442,177.20619916849864L51.45674222878047,173.39223363605728L51.89001872709819,161.88365801509767L52.302663011210306,189.95964726052722L52.50898515326636,154.0046241777136L52.71530729532242,204.88566680980517L53.12795157943454,155.90025180063176L53.33427372149058,161.9942652216806L53.54059586354664,97.24822763049602L53.7469180056027,184.61800941306834L53.953240147658754,126.23258778604182L54.15956228971481,135.22748344494522L54.36588443177087,194.25907761241675L54.572206573826925,177.62904442804188L54.778528715882985,166.94274745392394L54.984850857939044,164.93224633486776L55.19117299999509,176.2303219314491L55.60381728410721,175.71578794514656L55.81013942616327,199.9983401350624L56.01646156821932,151.80807714646272L56.22278371027538,196.46012614690542L56.42910585233144,167.02120338332753L56.841750136443544,164.90099535833596L57.06870449270521,119.46342998749337L57.27502663476127,160.19942260638865L57.48134877681733,181.56647686685625L57.68767091887337,157.4592805327975L58.10031520298549,192.8204539533407L58.306637345041544,141.62815873251114L58.5129594870976,164.9956485885789L58.71928162915366,159.87286490664226L58.925603771209715,155.46002100561077L59.131925913265775,158.04048543191894L59.338248055321834,146.05385827792438L59.95721448149,133.42655771716983L60.16353662354606,177.0765153211675L60.36985876560211,157.46962993483604L60.57618090765817,172.45447723723754L60.78250304971423,201.93585201513346L61.195147333826334,170.31904520940398L61.607791617938446,157.18103085698655L61.814113759994505,163.3505884242635L62.020435902050565,157.59726174555607L62.24739025831222,183.31645449987832L62.660034542424334,163.64695766445857L62.866356684480394,166.40743355537785L63.07267882653645,166.54641239858373L63.27900096859251,162.81175443129362L63.485323110648565,152.57351924566711L63.69164525270462,177.2387519311019L63.89796739476068,116.90620305087208L64.10428953681674,149.1899623092901L64.31061167887279,133.8248069252382L64.51693382092886,198.56120886624893L64.92957810504096,171.41322681803223L65.13590024709701,120.84037899680361L65.34222238915306,174.4277415970782L65.54854453120913,145.88063556684483L65.96118881532125,180.78327207920006L66.16751095737729,148.65301813659843L66.37383309943336,156.68316459888874L66.58015524148941,185.58810363785022L66.78647738354546,123.50002932601338L66.99279952560153,179.54711468061578L67.19912166765758,174.75256358206266L67.42607602391924,134.063094607441L67.6323981659753,162.18313369806762L68.25136459214347,136.81778748609267L68.45768673419953,175.21882198769632L68.66400887625558,198.02649516813455L68.87033101831163,162.6031361163769L69.07665316036768,177.65634949227604L69.28297530242375,121.27733302190018L69.4892974444798,150.65739558908794L69.69561958653587,136.39244003961457L69.90194172859192,189.82722601257856L70.10826387064797,152.49500654054702L70.31458601270404,198.43376360431174L70.72723029681615,194.42925876725454L70.9335524388722,172.8913744866176L71.34619672298432,174.14619892970953L71.55251886504037,170.73973704712807L71.75884100709642,164.59490124898397L71.96516314915249,152.17070364782782L72.17148529120854,154.4120548302237L72.37780743326459,155.4708976107312L73.01740607363837,115.31795104633574L73.22372821569442,147.99639886431515L73.43005035775049,161.74770450650024L73.63637249980654,116.55455048442714L74.04901678391865,157.95466488100203L74.25533892597471,162.6737651077184L74.46166106803076,146.15737663075987L74.66798321008683,170.94052842398273L75.08062749419894,145.55230970906987L75.28694963625499,141.94359650263775L75.6995939203671,171.38795351336753L76.11223820447923,165.48853480525688L76.31856034653528,119.90512884032705L76.73120463064738,109.74457905652288L76.93752677270344,171.88493569245108L77.35017105681555,167.66734348050596L77.55649319887162,126.13499844017355L77.78344755513328,187.04927131179008L77.98976969718933,118.79948664777994L78.40241398130144,123.37001293519984L78.6087361233575,142.64658531367843L78.81505826541355,150.81969303014714L79.02138040746962,96.03458991432555L79.22770254952567,137.22230635542732L79.43402469158173,146.85266016598817L79.64034683363778,171.12227560335577L79.84666897569383,172.7604902384231L80.0529911177499,169.5595321171668L80.25931325980595,176.14317120660246L80.46563540186202,155.89801321523785L80.67195754391807,162.1941968519709L80.87827968597414,127.7934820060358L81.08460182803017,168.96702885045937L81.90989039625441,197.3975986671426L82.11621253831046,169.52842713533462L82.32253468036652,169.421761785641L82.52885682242257,151.54061485678912L82.73517896447862,164.000264837499L82.96213332074029,134.1363028384755L83.16845546279635,156.6602109877844L83.58109974690846,142.31204657035371L83.78742188896452,87.00397421891918L83.99374403102057,169.98554465060977L84.20006617307662,174.9838597403178L84.40638831513269,156.37651895400492L84.61271045718874,154.4925871286883L84.8190325992448,159.27646033712873L85.23167688335693,176.40272545004754L85.43799902541296,170.57273533241496L85.64432116746902,140.81650120006557L85.85064330952508,174.21896106582858L86.05696545158114,170.6672750112249L86.2632875936372,189.5423579103856L86.67593187774929,173.04409305321948L86.88225401980536,157.26137660666834L87.08857616186141,167.1227508077184L87.29489830391748,182.2005237364175L87.50122044597353,176.93777169164434L87.91386473008565,174.21244808006293L88.1408190863473,179.83788340191774L88.55346337045941,173.420564718597L88.96610765457153,150.37364677959192L89.1724297966276,172.68222085780232L89.37875193868365,182.68370941638852L89.5850740807397,184.40011637931846L89.79139622279575,174.03405877878077L89.9977183648518,180.11482318084057L90.41036264896393,176.849655779617L90.61668479101999,167.4624074763459L90.82300693307604,185.22175427164524L91.23565121718815,160.637455370099L91.4419733592442,163.5495143132899L91.64829550130027,184.2816944008984L91.85461764335632,183.87792983751172L92.06093978541239,108.67834732205206L92.26726192746844,170.57760182240176L92.47358406952449,177.0198044911882L92.67990621158054,151.32234467006526L92.8862283536366,140.1688606018079L93.09255049569266,168.70927520830944L93.31950485195432,132.88954054712835L93.73214913606644,177.02220529291503L93.93847127812249,175.46835937258524L94.14479342017854,167.53340145443642L94.3511155622346,151.62864154983336L94.76375984634672,116.31287248086687L94.97008198840278,180.36206926002737L95.3827262725149,156.45798399638366L95.58904841457094,184.19399214051995L95.79537055662699,151.9763198161224L96.00169269868306,132.6171955458347L96.20801484073911,164.744626924244L96.41433698279518,162.51280595140557L96.62065912485123,159.19768808587602L96.82698126690728,103.4395221863806L97.03330340896333,195.94080677878253L97.23962555101939,174.24060072463647L98.06491411924362,173.03300556686628L98.27123626129968,183.06845411474356L98.49819061756135,177.23116426213085L98.91083490167345,90.65788089569524L99.1171570437295,165.68808522716492L99.73612346989769,130.1459270440133L99.94244561195373,191.9149096628251L100.35508989606585,153.84769609727314L100.5614120381219,156.13214815931863L100.76773418017797,132.73589734742896L101.38670060634612,177.23450997399675L101.59302274840218,112.4097609626843L101.79934489045824,198.07865988538452L102.0056670325143,156.42341569584423L102.21198917457036,164.9795891716225L102.41831131662641,185.6656998206895L102.62463345868247,161.23330029326402L102.83095560073852,150.66966725467125L103.03727774279459,176.81967009048176L103.24359988485064,201.45239462280486L103.44992202690669,140.27509607821935L103.67687638316836,164.09694577190308L103.88319852522442,158.29227762383508L104.08952066728048,156.13418397429643L104.29584280933653,163.47984239831246L104.50216495139257,159.86430799508216L104.70848709344864,143.40181589472726L104.91480923550469,65.42431923256237L105.12113137756076,183.0188726925949L105.32745351961681,180.01851939941042L105.53377566167288,154.74184874581132L105.74009780372891,195.85846982361448L106.15274208784103,166.1277482650208L106.35906422989709,174.02182766728066L106.56538637195315,181.66216017081302L106.7717085140092,154.9871847276783L107.39067494017736,185.1546048206443L107.59699708223343,160.438383486373L107.80331922428948,167.8402012048365L108.00964136634555,182.66190754124773L108.2159635084016,156.8503041974848L108.42228565045765,179.6988802262619L108.6286077925137,179.34354940446866L108.85556214877536,175.00163865040284L109.06188429083143,185.79221639412089L109.26820643288748,188.37413265660845L109.6808507169996,163.61677731572388L109.88717285905567,197.62534228770738L110.0934950011117,179.02102683600293L110.71246142727988,164.19701702766463L110.91878356933594,190.47544247881802L111.125105711392,156.6152202878566L111.33142785344806,186.60580024551956L111.5377499955041,157.65087424357714L111.74407213756015,148.16161619936642L111.95039427961622,173.35146867160134L112.15671642167227,190.06073642377766L112.56936070578439,148.22475079612826L112.77568284784044,177.71093528829448L112.9820049898965,174.31101883474523L113.18832713195256,182.07034512927106L114.03424791438239,168.55434238876356L114.24057005643846,152.41471756658174L114.44689219849451,142.77055914609173L114.65321434055055,146.58466256241604L114.85953648260661,104.27947835809931L115.06585862466267,154.04993119949054L115.27218076671873,182.7537017086234L115.68482505083085,150.10513008375452L116.09746933494294,144.96763338042453L116.30379147699901,184.85556306636482L116.51011361905506,187.39538824587504L116.71643576111113,167.8434049774111L116.92275790316718,173.21609914180235L117.12908004522325,161.3759533364099L117.33540218727929,152.74152670164415L117.7480464713914,186.38461016480363L117.95436861344746,123.89415823922627L118.16069075550352,181.7836034284332L118.36701289755958,172.02916223402602L118.77965718167168,172.0747855776521L118.98597932372775,200.8780960840563L119.2129336799894,161.50355270386333L119.83190010615758,161.7360735954318L120.03822224821364,171.5255859610104L120.24454439026968,172.12287460953817L120.45086653232573,125.63873812377136L120.6571886743818,150.13205799501472L120.86351081643785,172.5825308104231L121.06983295849392,175.0725109662437L121.48247724260604,210.68777599522178L121.68879938466208,136.6411987861056L121.89512152671814,185.29867320129466L122.1014436687742,184.11143213789418L122.30776581083025,175.1574068840631L122.51408795288631,118.74817762168598L123.13305437905447,164.4209972293063L123.33937652111054,176.82934629473883L123.75202080522266,163.1887451889364L123.95834294727871,170.9558416458078L124.16466508933476,148.28367587905157L124.59794158765249,148.22443447427912L124.80426372970852,177.71379029575337L125.01058587176459,147.1042333658549L125.62955229793276,187.0940430196685L125.83587443998883,122.24579697253652L126.04219658204487,130.75076686283722L126.24851872410092,163.9536763066922L126.45484086615699,159.03424701966992L126.66116300821304,184.52621930110098L126.8674851502691,183.86830229815453L127.07380729232516,145.0895146221435L127.28012943438122,118.73034193588441L127.69277371849333,201.47137798916162L127.89909586054938,175.3344741222322L128.10541800260543,174.35027518730527L128.31174014466148,158.59631158575934L128.51806228671757,171.42603379751412L128.7243844287736,191.21836489560857L129.13702871288572,194.20267499346994L129.7766273532595,144.0431624992687L129.98294949531555,185.88962324661466L130.1892716373716,194.84764713305154L130.6019159214837,168.0363369729371L130.80823806353976,168.25437194597828L131.01456020559584,150.32134012305065L131.2208823476519,146.15896635082223L131.42720448970795,135.00939169618755L131.633526631764,146.94374463690744L131.83984877382005,164.05811118180856L132.0461709158761,117.90903253163174L132.25249305793218,200.1052406984387L132.45881519998824,154.651997119022L132.6651373420443,164.25716684390125L132.87145948410034,187.5198325056537L133.0777816261564,190.50649474034202L133.28410376821245,168.14292932528096L133.4904259102685,198.18492374965425L133.90307019438063,176.2153331422898L134.10939233643668,143.48040970801378L134.31571447849274,181.00345641865204L134.74899097681046,171.49186118540197L135.16163526092257,169.71502458306117L135.36795740297862,195.39588561792087L135.57427954503467,170.02397369987207L135.78060168709075,168.54457696552342L135.9869238291468,178.17813454865887L136.3995681132589,173.32531128792237L136.60589025531496,159.50163282881718L136.812212397371,183.27105420370998L137.01853453942707,148.67896463904464L137.22485668148315,167.12984777228246L137.4311788235392,133.57571563526471L137.63750096559525,174.67109042886727L138.05014524970736,162.52891403326183L138.2564673917634,145.22187503896734L138.4627895338195,160.12219141029843L138.66911167587554,184.12627493235385L139.08175595998765,184.6297741526114L139.2880781020437,152.72504552222225L139.49440024409975,135.970207146728L139.92767674241747,174.71593513409547L140.13399888447353,151.89591729072413L140.34032102652958,165.0084799005107L140.95928745269774,174.54901452754882L141.78457602092197,183.8801968107639L141.99089816297803,181.09558312951017L142.19722030503408,173.2948227281552L142.6098645891462,185.74701886836863L142.81618673120227,196.89712883690186L143.02250887325832,163.8238140213949L143.22883101531437,188.2772246193383L143.43515315737042,165.8538297652981L143.64147529942647,192.01424688968032L143.84779744148256,164.77686742040643L144.0541195835386,173.562690558661L144.26044172559466,168.42149532294104L144.4667638676507,152.66682608034702L144.6730860097068,158.01633141995123L144.87940815176282,95.11706189221755L145.31268465008057,173.62700933465297L145.5190067921366,168.96929176830324L145.72532893419265,170.6351156232289L145.93165107624873,150.23839080122593L146.13797321830475,185.174091057633L146.34429536036083,153.53059560973438L146.55061750241688,152.9690999950594L146.75693964447296,150.94070641448513L146.963261786529,165.51835016724257L147.16958392858504,181.67831691756913L147.58222821269715,174.67043345271907L147.78855035475323,169.36913880725058L147.99487249680928,162.93665289680442L148.20119463886536,151.27500994412716L148.40751678092138,176.59800958240046L148.61383892297744,166.55349314151448L148.82016106503352,150.4303332771213L149.02648320708954,203.88386740275936L149.23280534914562,127.21423992454234L149.43912749120167,153.8546795104042L149.64544963325773,155.8345298533603L149.85177177531378,162.80217555683632L150.2850482736315,137.34221666870164L150.49137041568756,158.5206944421814L150.6976925577436,144.92083396838495L150.9040146997997,168.03732649256776L151.11033684185574,128.8615467850683L151.7293032680239,182.7692866428061L151.93562541007995,170.30343188736308L152.141947552136,159.0829200303544L152.34826969419208,175.2649157586878L152.55459183624814,142.36700546393777L152.76091397830416,181.86591199574298L153.1735582624163,181.10600552889852L153.37988040447235,133.77800751319862L153.5862025465284,154.08676241787384L153.79252468858448,178.25345564742932L153.99884683064053,126.47578251231465L154.20516897269655,160.415786751201L154.41149111475264,176.5826801389421L154.6178132568087,185.92711144114617L155.0304575409208,184.54402254363595L155.23677968297687,160.3044901252033L155.67005618129457,155.56711622858657L155.87637832335062,163.66917319124823L156.0827004654067,138.4168512092163L156.28902260746273,134.0855372370967L156.4953447495188,177.40022206886334L157.11431117568696,162.38226235751011L157.32063331774302,193.59475306432103L157.73327760185512,200.84686538456612L158.14592188596725,146.22980622339648L158.55856617007936,156.4487052221422L158.9712104541915,153.57514021474674L159.3838547383036,163.7794965192486L159.59017688035965,147.93999624536832L159.79649902241573,132.43213915327064L160.00282116447175,132.6320383402944L160.2091433065278,124.73031043793863L160.64241980484553,158.47987270200892L160.84874194690158,172.2319732042252L161.05506408895766,169.66023601662664L161.26138623101372,169.3169213696924L161.46770837306977,181.2543118112457L162.08667479923793,185.14118141909742L162.29299694129398,135.53613246154026L162.49931908335006,160.83639748075865L162.7056412254061,161.76282306872585L163.11828550951822,181.05106285694774L163.32460765157427,168.1138114935267L163.53092979363035,180.6801957658717L163.73725193568637,169.83643539741476L164.1498962197985,154.38265311988687L164.35621836185453,166.77274473705234L164.5625405039106,182.65866321458986L164.76886264596666,172.42596771673163L164.97518478802274,162.14047080251683L165.18150693007877,187.6393372780958L165.38782907213485,174.79108185030805L165.5941512141909,141.94731125666098L165.82110557045254,194.14712806567914L166.23374985456468,150.05654629205316L166.4400719966207,178.1087059581808L166.85271628073284,151.30982156916596L167.05903842278892,98.83027486029921L167.26536056484494,163.50868446230078L167.471682706901,162.59870761048893L167.67800484895707,179.1153394119468L167.8843269910131,128.4854238848065L168.09064913306918,126.78542104854033L168.29697127512523,111.2413004952245L168.5032934171813,180.00954072538485L168.9159377012934,123.96696092942855L169.12225984334947,133.38642539641216L169.3285819854055,156.2841205307892L169.53490412746157,158.43770456627345L169.74122626951763,197.3110359765027L169.9475484115737,175.01287213145568L170.15387055362973,169.5075255608414L170.36019269568578,125.65592494424135L170.56651483774186,178.96806320331345L170.77283697979792,163.0361563954008L170.99979133605956,140.49259573736197L171.20611347811564,192.9228854567458L171.4124356201717,168.51858179817734L171.61875776222774,177.17716244491083L171.8250799042838,160.8559607705055L172.03140204633985,181.0259233807577L172.2377241883959,177.13284494276454L172.44404633045195,174.1045823295059L172.65036847250803,161.14754462888024L172.8566906145641,183.18761417747825L173.0630127566201,151.9997357437755L173.2693348986762,153.29523593234026L173.68197918278833,154.62138689700515L173.88830132484435,162.24537610499857L174.09462346690043,194.622259704722L174.5072677510125,198.28056244411948L174.7135898930686,168.7539333647548L174.91991203512464,149.26109417126358L175.12623417718072,185.14728075321418L175.33255631923674,121.91764955272775L176.38479924372265,154.96088134929974L176.59112138577868,140.77614177644188L176.79744352783476,119.52805697451784L177.2100878119469,138.20858165941527L177.41640995400292,174.0173504964928L177.62273209605897,185.36836133790538L177.82905423811505,171.1694318913277L178.03537638017107,191.30292421453726L178.4480206642832,175.92533900397743L178.6543428063393,160.83149043668865L178.8606649483953,138.6023131426126L179.06698709045136,176.26223799494576L179.27330923250744,164.6763987346293L179.47963137456347,164.6861560470528L179.68595351661955,155.91483504895885L179.8922756586756,166.72702406362652L180.09859780073168,171.0651349000943L180.3049199427877,188.24688610967905L180.51124208484376,190.05757320528625L180.71756422689984,127.92403371074789L180.9238863689559,147.65064286157087L181.35716286727362,156.70101650632358L181.56348500932967,166.77169033088853L181.76980715138572,159.67529352399552L181.97612929344177,131.3513079488395L182.18245143549782,120.43322411205943L182.3887735775539,153.65036803912574L182.59509571960993,168.32078331266456L182.801417861666,185.22662076163203L183.00774000372206,196.81791049073368L183.62670642989022,122.02461500263725L183.8330285719463,143.69775526164014L184.03935071400232,187.53642318110033L184.2456728560584,181.69287583344627L184.45199499811446,147.95724795237146L184.65831714017048,144.04515776016328L185.07096142428261,153.07271567769465L185.2772835663387,188.77560591429307L185.48360570839472,193.7224984264741L185.6899278504508,139.3601229633544L185.89624999250685,164.3044691265728L186.10257213456288,196.06696242087324L186.30889427661896,154.28785389494433L186.53584863288063,176.07965540145833L186.94849291699273,159.92677750487917L187.1548150590488,187.58105700509577L187.36113720110487,166.58398981209834L187.5674593431609,155.80723695535107L187.77378148521694,174.27646675583907L187.98010362727302,138.1289983264981L188.18642576932905,171.20596300949515L188.39274791138513,174.8532512598892L188.59907005344118,136.27883994168977L188.80539219549726,185.6829474722843L189.21803647960934,113.6139414666471L189.42435862166542,134.75967587333244L189.63068076372147,169.83865776117537L190.04332504783358,179.2262548295622L190.24964718988966,167.89269441016057L190.45596933194568,110.36779798586356L190.66229147400173,164.27749255041272L190.86861361605781,179.11890817127045L191.07493575811387,173.99202852692827L191.28125790016992,174.18178919314622L191.48758004222597,194.08012055396946L191.71453439848764,176.18082161746688L191.9208565405437,151.1488786344864L192.12717868259975,165.6087533295637L192.3335008246558,138.8379080336894L192.53982296671188,185.3408291708052L193.15878939288004,190.22704466366764L193.3651115349361,147.21814167481222L193.57143367699214,139.12304379283165L193.7777558190482,194.91197401986017L193.98407796110428,160.32818993143894L194.1904001031603,168.6697106447169L194.60304438727243,170.43665205075123L194.80936652932846,142.86772672949448L195.2220108134406,139.04827828500137L195.42833295549667,133.42109913756798L195.84097723960878,150.6023150332542L196.25362152372085,165.32880849307404L196.89322016409463,167.75919847900647L197.0995423061507,171.73283354791417L197.71850873231887,182.73050882842807L197.92483087437492,181.12083615713325L198.131153016431,173.96286203027412L198.33747515848702,180.63602020301667L198.5437973005431,151.7696075431172L198.95644158465524,144.3479507671409L199.16276372671126,189.833937713352L199.3690858687673,172.7436846263354L199.9880522949355,166.06393235966078L200.19437443699155,192.66967792732518L200.60701872110366,199.73446688175403L200.8133408631597,167.52399290712864L201.0196630052158,159.05471061006435L201.22598514727184,178.45702092357644L201.4323072893279,154.7038009049313L201.63862943138395,172.61901326369068L201.84495157344,139.01099286088595L202.27822807175772,168.94916072139122L202.48455021381378,183.3965244817942L203.51616092409407,182.9427810662432L203.72248306615012,103.0206796148515L203.92880520820617,173.14268002953506L204.13512735026225,154.43203177161942L204.34144949231828,148.87771209010484L204.54777163437436,176.28443730010213L204.7540937764304,179.10552532380677L204.96041591848643,173.19930164053127L205.1667380605425,151.40574008680542L205.57938234465465,171.02909043092552L205.78570448671067,157.08878653928707L206.1983487708228,149.03332621824885L206.6109930549349,184.26739908656225L206.81731519699096,173.62685522913674L207.45691383736474,196.0046145733259L207.66323597942082,181.75669984962292L208.0758802635329,139.00277660362494L208.28220240558898,176.31598837684976L208.48852454764503,177.67726323299422L208.69484668970108,159.78928294111927L208.90116883175713,156.31273549191147L209.31381311586924,180.96294288951208L209.5201352579253,150.8730540928522L209.93277954203742,170.83496614535275L210.13910168409348,170.6510695995689L210.5517459682056,156.00694148277535L210.75806811026163,161.8051371991609L210.96439025231768,113.62851660415751L211.17071239437377,162.22844071984457L211.37703453642982,170.61395450260304L211.58335667848587,118.13773322856059L211.78967882054192,181.64958840501384L211.99600096259798,98.96423310800205L212.20232310465406,177.5680875855491L212.63559960297175,157.17644013476567L212.84192174502783,196.50699044547815L213.04824388708386,171.57318023308113L213.25456602913994,175.06362962201783L213.460888171196,171.09534769209557L213.66721031325204,198.88489939231144L214.07985459736415,180.00369282658406L214.28617673942023,143.2516279029185L214.49249888147625,142.94989741292133L214.90514316558838,168.1295626994506L215.3177874497005,162.09062172341888L215.52410959175654,169.0793636609876L215.73043173381262,145.82565234081082L215.93675387586865,189.61363982246698L216.14307601792473,180.96525447225582L216.34939815998078,145.2483000795956L216.5557203020368,190.96209147749627L216.76204244409288,112.26074903928901L216.96836458614894,170.34029554901295L217.17468672820502,153.80929949127741L217.38100887026104,184.26594319497454L217.6079632265227,148.27926359479687L218.02060751063482,141.88054301404233L218.43325179474695,150.7594539949274L218.639573936803,203.86678602290576L218.84589607885906,193.6204724639012L219.0522182209151,151.24524324704134L219.4648625050272,162.46204035002677L219.67118464708327,183.39438728160832L219.87750678913935,147.96928440427212L220.0838289311954,167.34589559524568L220.29015107325145,178.9710723162886L220.4964732153075,134.8380912486528L220.70279535736358,181.224508615485L221.11543964147566,147.7026007529964L221.32176178353174,155.58418949762353L221.9407282096999,193.73414555917577L222.14705035175595,139.18622705449334L222.78664899212973,163.27690976586362L222.9929711341858,135.0355815231331L223.19929327624183,167.78819464851105L223.4056154182979,183.10722787371327L223.61193756035397,160.4046424891313L223.81825970241005,182.18664612913852L224.02458184446607,175.54423606229582L224.23090398652212,156.51847446691937L224.4372261285782,167.11654603298524L225.05619255474636,150.19380564213034L225.26251469680238,123.18049559348123L225.46883683885846,169.3743053974532L225.67515898091452,139.96023417607452L225.8814811229706,159.97117611519192L226.2941254070827,182.76619236625615L226.50044754913876,145.49386316432864L226.70676969119478,161.67100862430854L226.91309183325086,182.17047721615745L227.1194139753069,157.10010112850634L227.53205825941902,169.72607962614782L227.7383804014751,178.34527414725494L227.96533475773677,136.76232572187664L228.1716568997928,161.99772854038784L228.37797904184885,188.5254683289724L228.58430118390493,168.54924068509408L228.79062332596098,180.77480438662306L228.99694546801703,170.1349621148373L229.20326761007308,183.4538152351636L229.40958975212916,142.2088039852841L229.82223403624124,177.66599325326652L230.23487832035337,133.46378636556872L230.64752260446548,156.45425302072712L230.85384474652156,178.6437886984525L231.0601668885776,157.12863498146217L231.26648903063364,138.86086164479372L231.47281117268972,191.87999665257828L232.71074402502603,178.97810439431953L233.14402052334378,162.00409553145388L233.3503426653998,187.89062254397166L233.5566648074559,196.05327947319375L233.76298694951194,155.38782662665685L233.96930909156802,162.34302222658337L234.3819533756801,149.36666456071018L235.20724194390434,177.34905903746898L235.61988622801644,193.7243923021606L235.8262083700725,118.3153114481783L236.03253051212857,150.9598154984999L236.85781908035278,179.9117080550172L237.2704633644649,192.31296826670234L237.47678550652097,165.00376751604017L237.88942979063307,157.67989474553164L238.09575193268913,172.52476557427997L238.32270628895077,179.79923941601436L238.7353505730629,171.40167701513028L238.94167271511895,184.2515221629804L239.147994857175,181.60892482576594L239.56063914128714,156.412076774175L239.97328342539922,147.03658915503863L240.1796055674553,155.27842793175398L240.38592770951135,197.25290169820227L240.79857199362345,168.84651833675335L241.00489413567954,175.65330221371627L241.2112162777356,106.0094344402341L241.4175384197916,182.77174827565773L241.6238605618477,193.7353662370808L241.83018270390374,158.81883184040498L242.0365048459598,152.89636219139027L242.24282698801585,112.22705670694718L242.4491491300719,137.757539145807L242.65547127212798,120.74320330258419L242.861793414184,167.5762103446868L243.0681155562401,175.79324624410285L243.27443769829614,136.38719234124548L243.70771419661386,179.80015999370352L243.91403633866992,182.45922634411488L244.120358480726,162.46818023822678L244.53300276483807,165.71412905941085L244.73932490689415,193.63026627499957L244.94564704895018,178.4647951413303L245.15196919100626,174.78799162916644L245.56461347511834,181.27784534574013L245.97725775923047,187.7202264524928L246.18357990128655,154.60018522229606L246.8025463274547,172.0285377011444L247.00886846951076,183.38265498533184L247.2151906115668,89.65900138264152L247.42151275362286,163.5873837162037L248.2468013218471,171.68011323972402L248.6800778201648,179.22799054432417L248.88639996222088,141.04745670402164L249.09272210427693,198.8268218897275L249.29904424633298,184.2073587663503L249.50536638838904,155.7462598358167L249.71168853044512,160.92592467488217L249.91801067250117,189.6239486704223L250.1243328145572,163.83336856340227L250.33065495661327,196.42533479890824L250.53697709866933,142.14961124541156L250.74329924072538,152.2445283009273L250.94962138278143,168.02602812498176L251.1559435248375,183.06946796682413L251.36226566689356,179.35090591516536L251.5685878089496,140.03199057092962L251.98123209306172,154.14985646055248L252.18755423511777,208.28061538815956L252.39387637717383,178.77683447928285L252.6001985192299,120.09393243018093L252.80652066128596,139.1749530193573L253.01284280334198,160.74227956441428L253.21916494539806,179.93217164541164L253.85876358577184,170.54896252882955L254.0650857278279,152.13235570673197L254.47773001194,171.53580558998263L254.68405215399605,123.52258550710212L254.89037429605213,146.4563575539145L255.09669643810815,184.40337287220126L255.30301858016423,124.86261407904597L255.5093407222203,185.0584713663637L255.71566286427634,166.96853174003726L255.9219850063324,101.0819511122837L256.12830714838844,181.1737389586979L256.3346292904445,145.98346450026554L256.74727357455663,113.01328682921181L256.95359571661265,201.0512376869694L257.3662400007248,184.29698734568188L257.57256214278084,155.08092954645704L257.98520642689294,208.59023364734364L258.60417285306113,188.8578495950697L258.8104949951172,114.74112598820236L259.0374493513788,153.75542744712374L259.2437714934349,138.69867775516752L259.450093635491,114.96639580969054L259.656415777547,172.84316379248187L260.0690600616591,181.47981684641658L260.4817043457713,182.1753193736943L260.8943486298834,161.92377411422203L261.1006707719394,181.2495102077921L261.3069929139955,155.55741569187958L261.5133150560515,178.9766971676317L261.7196371981076,190.85973297144096L261.9259593401637,135.90522328377116L262.1322814822197,170.09501634286246L262.3386036242758,190.92752723236515L262.7512479083879,180.83836885666707L263.5765364766121,175.80314144040932L263.7828586186682,164.4477223701504L263.9891807607242,167.5836560743666L264.42245725904195,129.4108193990598L264.628779401098,199.32351613482018L264.835101543154,159.83214860708617L265.0414236852101,182.80215167185014L265.45406796932224,177.4532019231861L265.66039011137826,146.6940044816024L266.07303439549037,184.14754554900443L266.2793565375464,155.53437286179215L266.4856786796025,115.86318447363823L266.89832296371463,164.82941740144705L267.10464510577066,151.1809488034993L267.3109672478267,205.89088087065835L267.51728938988276,148.5822025964741L267.92993367399487,174.70414200669418L268.13625581605095,184.6637016986359L268.7552222422191,185.04214834786637L268.96154438427516,160.4847043602305L269.60114302464893,178.66407790628907L269.807465166705,149.30009097769099L270.42643159287314,170.5506090246084L270.6327537349292,148.9007792526422L270.83907587698525,187.90200607513242L271.2517201610974,174.96213897334346L271.45804230315343,195.0564154980762L271.6643644452095,157.94885753628446L272.0770087293216,201.3358381322131L272.28333087137764,160.2591749926097L272.4896530134337,181.68422159208643L272.9022972975459,146.68347664159765L273.1086194396019,163.608260958247L273.31494158165793,207.78816310017206L273.521263723714,184.741837250782L273.72758586577004,151.36393693781898L273.9339080078261,163.8849614680788L274.1402301498822,183.99489997975235L274.5735066481999,141.31067703659008L275.1924730743681,177.19861555493588L275.3987952164241,160.95197661794475L276.0177616425923,159.43342086083578L276.22408378464837,141.33981920079427L276.4304059267044,159.00744888147605L276.6367280687605,188.93150392101967L276.8430502108165,163.141394241365L277.2556944949286,212.61573941639796L277.4620166369847,176.03587321321055L277.66833877904077,179.69823541633866L278.08098306315287,200.6603977099059L278.2873052052089,174.1886022791277L278.493627347265,169.84012581898807L278.699949489321,146.23972575215288L278.9062716313771,161.68424547707258L279.11259377343316,160.31261716348124L279.3189159154892,152.26057960706706L279.52523805754527,189.00656952906576" fill="none"></path></g></g></g></g></g></g><g transform="translate(41, 176)" clip-path="url(#clip_1)"><clipPath id="clip_1"><rect width="288" height="23"></rect></clipPath><g><g><line x1="0" y1="0" x2="0" y2="5" style="visibility: inherit;" fill="rgb(0, 0, 0)" stroke="rgb(204, 204, 204)" stroke-width="1px"></line><line x1="20.632214205605642" y1="0" x2="20.632214205605642" y2="5" style="visibility: inherit;" fill="rgb(0, 0, 0)" stroke="rgb(204, 204, 204)" stroke-width="1px"></line><line x1="41.264428411211284" y1="0" x2="41.264428411211284" y2="5" style="visibility: inherit;" fill="rgb(0, 0, 0)" stroke="rgb(204, 204, 204)" stroke-width="1px"></line><line x1="61.896642616816926" y1="0" x2="61.896642616816926" y2="5" style="visibility: inherit;" fill="rgb(0, 0, 0)" stroke="rgb(204, 204, 204)" stroke-width="1px"></line><line x1="82.52885682242257" y1="0" x2="82.52885682242257" y2="5" style="visibility: inherit;" fill="rgb(0, 0, 0)" stroke="rgb(204, 204, 204)" stroke-width="1px"></line><line x1="103.16107102802822" y1="0" x2="103.16107102802822" y2="5" style="visibility: inherit;" fill="rgb(0, 0, 0)" stroke="rgb(204, 204, 204)" stroke-width="1px"></line><line x1="123.79328523363385" y1="0" x2="123.79328523363385" y2="5" style="visibility: inherit;" fill="rgb(0, 0, 0)" stroke="rgb(204, 204, 204)" stroke-width="1px"></line><line x1="144.4254994392395" y1="0" x2="144.4254994392395" y2="5" style="visibility: inherit;" fill="rgb(0, 0, 0)" stroke="rgb(204, 204, 204)" stroke-width="1px"></line><line x1="165.05771364484514" y1="0" x2="165.05771364484514" y2="5" style="visibility: inherit;" fill="rgb(0, 0, 0)" stroke="rgb(204, 204, 204)" stroke-width="1px"></line><line x1="185.6899278504508" y1="0" x2="185.6899278504508" y2="5" style="visibility: inherit;" fill="rgb(0, 0, 0)" stroke="rgb(204, 204, 204)" stroke-width="1px"></line><line x1="206.32214205605644" y1="0" x2="206.32214205605644" y2="5" style="visibility: inherit;" fill="rgb(0, 0, 0)" stroke="rgb(204, 204, 204)" stroke-width="1px"></line><line x1="226.95435626166207" y1="0" x2="226.95435626166207" y2="5" style="visibility: inherit;" fill="rgb(0, 0, 0)" stroke="rgb(204, 204, 204)" stroke-width="1px"></line><line x1="247.5865704672677" y1="0" x2="247.5865704672677" y2="5" style="visibility: inherit;" fill="rgb(0, 0, 0)" stroke="rgb(204, 204, 204)" stroke-width="1px"></line><line x1="268.21878467287337" y1="0" x2="268.21878467287337" y2="5" style="visibility: inherit;" fill="rgb(0, 0, 0)" stroke="rgb(204, 204, 204)" stroke-width="1px"></line><line x1="288.850998878479" y1="0" x2="288.850998878479" y2="5" style="visibility: inherit;" fill="rgb(0, 0, 0)" stroke="rgb(204, 204, 204)" stroke-width="1px"></line></g><g transform="translate(0, 8)"><text style="text-anchor: middle; visibility: hidden; font-family: Roboto, sans-serif; font-size: 12px; font-weight: 200;" x="0" y="0" dx="0em" dy="0.95em" fill="rgb(255, 255, 255)" stroke="none" stroke-width="1px">-1k</text><text style="text-anchor: middle; visibility: inherit; font-family: Roboto, sans-serif; font-size: 12px; font-weight: 200;" x="20.632214205605642" y="0" dx="0em" dy="0.95em" fill="rgb(255, 255, 255)" stroke="none" stroke-width="1px">0</text><text style="text-anchor: middle; visibility: hidden; font-family: Roboto, sans-serif; font-size: 12px; font-weight: 200;" x="41.264428411211284" y="0" dx="0em" dy="0.95em" fill="rgb(255, 255, 255)" stroke="none" stroke-width="1px">1k</text><text style="text-anchor: middle; visibility: inherit; font-family: Roboto, sans-serif; font-size: 12px; font-weight: 200;" x="61.896642616816926" y="0" dx="0em" dy="0.95em" fill="rgb(255, 255, 255)" stroke="none" stroke-width="1px">2k</text><text style="text-anchor: middle; visibility: hidden; font-family: Roboto, sans-serif; font-size: 12px; font-weight: 200;" x="82.52885682242257" y="0" dx="0em" dy="0.95em" fill="rgb(255, 255, 255)" stroke="none" stroke-width="1px">3k</text><text style="text-anchor: middle; visibility: inherit; font-family: Roboto, sans-serif; font-size: 12px; font-weight: 200;" x="103.16107102802822" y="0" dx="0em" dy="0.95em" fill="rgb(255, 255, 255)" stroke="none" stroke-width="1px">4k</text><text style="text-anchor: middle; visibility: hidden; font-family: Roboto, sans-serif; font-size: 12px; font-weight: 200;" x="123.79328523363385" y="0" dx="0em" dy="0.95em" fill="rgb(255, 255, 255)" stroke="none" stroke-width="1px">5k</text><text style="text-anchor: middle; visibility: inherit; font-family: Roboto, sans-serif; font-size: 12px; font-weight: 200;" x="144.4254994392395" y="0" dx="0em" dy="0.95em" fill="rgb(255, 255, 255)" stroke="none" stroke-width="1px">6k</text><text style="text-anchor: middle; visibility: hidden; font-family: Roboto, sans-serif; font-size: 12px; font-weight: 200;" x="165.05771364484514" y="0" dx="0em" dy="0.95em" fill="rgb(255, 255, 255)" stroke="none" stroke-width="1px">7k</text><text style="text-anchor: middle; visibility: inherit; font-family: Roboto, sans-serif; font-size: 12px; font-weight: 200;" x="185.6899278504508" y="0" dx="0em" dy="0.95em" fill="rgb(255, 255, 255)" stroke="none" stroke-width="1px">8k</text><text style="text-anchor: middle; visibility: hidden; font-family: Roboto, sans-serif; font-size: 12px; font-weight: 200;" x="206.32214205605644" y="0" dx="0em" dy="0.95em" fill="rgb(255, 255, 255)" stroke="none" stroke-width="1px">9k</text><text style="text-anchor: middle; visibility: inherit; font-family: Roboto, sans-serif; font-size: 12px; font-weight: 200;" x="226.95435626166207" y="0" dx="0em" dy="0.95em" fill="rgb(255, 255, 255)" stroke="none" stroke-width="1px">10k</text><text style="text-anchor: middle; visibility: hidden; font-family: Roboto, sans-serif; font-size: 12px; font-weight: 200;" x="247.5865704672677" y="0" dx="0em" dy="0.95em" fill="rgb(255, 255, 255)" stroke="none" stroke-width="1px">11k</text><text style="text-anchor: middle; visibility: inherit; font-family: Roboto, sans-serif; font-size: 12px; font-weight: 200;" x="268.21878467287337" y="0" dx="0em" dy="0.95em" fill="rgb(255, 255, 255)" stroke="none" stroke-width="1px">12k</text><text style="text-anchor: middle; visibility: hidden; font-family: Roboto, sans-serif; font-size: 12px; font-weight: 200;" x="288.850998878479" y="0" dx="0em" dy="0.95em" fill="rgb(255, 255, 255)" stroke="none" stroke-width="1px">13k</text></g><line x1="0" y1="0" x2="288.850998878479" y2="0" fill="rgb(0, 0, 0)" stroke="rgb(204, 204, 204)" stroke-width="1px"></line></g></g></g></g></svg>