<svg viewBox="0 0 330 200" xmlns="http://www.w3.org/2000/svg"><g><g><g><g><g><line x1="61.91500186920166" y1="176.89999961853027" x2="56.91500186920166" y2="176.89999961853027" style="visibility: inherit;" fill="rgb(0, 0, 0)" stroke="rgb(204, 204, 204)" stroke-width="1px"></line><line x1="61.91500186920166" y1="165.10666631062827" x2="56.91500186920166" y2="165.10666631062827" style="visibility: inherit;" fill="rgb(0, 0, 0)" stroke="rgb(204, 204, 204)" stroke-width="1px"></line><line x1="61.91500186920166" y1="153.31333300272624" x2="56.91500186920166" y2="153.31333300272624" style="visibility: inherit;" fill="rgb(0, 0, 0)" stroke="rgb(204, 204, 204)" stroke-width="1px"></line><line x1="61.91500186920166" y1="141.51999969482424" x2="56.91500186920166" y2="141.51999969482424" style="visibility: inherit;" fill="rgb(0, 0, 0)" stroke="rgb(204, 204, 204)" stroke-width="1px"></line><line x1="61.91500186920166" y1="129.7266663869222" x2="56.91500186920166" y2="129.7266663869222" style="visibility: inherit;" fill="rgb(0, 0, 0)" stroke="rgb(204, 204, 204)" stroke-width="1px"></line><line x1="61.91500186920166" y1="117.9333330790202" x2="56.91500186920166" y2="117.9333330790202" style="visibility: inherit;" fill="rgb(0, 0, 0)" stroke="rgb(204, 204, 204)" stroke-width="1px"></line><line x1="61.91500186920166" y1="106.13999977111816" x2="56.91500186920166" y2="106.13999977111816" style="visibility: inherit;" fill="rgb(0, 0, 0)" stroke="rgb(204, 204, 204)" stroke-width="1px"></line><line x1="61.91500186920166" y1="94.34666646321617" x2="56.91500186920166" y2="94.34666646321617" style="visibility: inherit;" fill="rgb(0, 0, 0)" stroke="rgb(204, 204, 204)" stroke-width="1px"></line><line x1="61.91500186920166" y1="82.55333315531414" x2="56.91500186920166" y2="82.55333315531414" style="visibility: inherit;" fill="rgb(0, 0, 0)" stroke="rgb(204, 204, 204)" stroke-width="1px"></line><line x1="61.91500186920166" y1="70.75999984741212" x2="56.91500186920166" y2="70.75999984741212" style="visibility: inherit;" fill="rgb(0, 0, 0)" stroke="rgb(204, 204, 204)" stroke-width="1px"></line><line x1="61.91500186920166" y1="58.96666653951008" x2="56.91500186920166" y2="58.96666653951008" style="visibility: inherit;" fill="rgb(0, 0, 0)" stroke="rgb(204, 204, 204)" stroke-width="1px"></line><line x1="61.91500186920166" y1="47.17333323160808" x2="56.91500186920166" y2="47.17333323160808" style="visibility: inherit;" fill="rgb(0, 0, 0)" stroke="rgb(204, 204, 204)" stroke-width="1px"></line><line x1="61.91500186920166" y1="35.379999923706045" x2="56.91500186920166" y2="35.379999923706045" style="visibility: inherit;" fill="rgb(0, 0, 0)" stroke="rgb(204, 204, 204)" stroke-width="1px"></line><line x1="61.91500186920166" y1="23.586666615804013" x2="56.91500186920166" y2="23.586666615804013" style="visibility: inherit;" fill="rgb(0, 0, 0)" stroke="rgb(204, 204, 204)" stroke-width="1px"></line><line x1="61.91500186920166" y1="11.793333307902035" x2="56.91500186920166" y2="11.793333307902035" style="visibility: inherit;" fill="rgb(0, 0, 0)" stroke="rgb(204, 204, 204)" stroke-width="1px"></line><line x1="61.91500186920166" y1="0" x2="56.91500186920166" y2="0" style="visibility: inherit;" fill="rgb(0, 0, 0)" stroke="rgb(204, 204, 204)" stroke-width="1px"></line></g><g transform="translate(51.91500186920166, 0)"><text style="text-anchor: end; visibility: hidden; font-family: Roboto, sans-serif; font-size: 12px; font-weight: 200;" x="0" y="176.89999961853027" dx="0em" dy="0.3em" fill="rgb(255, 255, 255)" stroke="none" stroke-width="1px">8e-3</text><text style="text-anchor: end; visibility: inherit; font-family: Roboto, sans-serif; font-size: 12px; font-weight: 200;" x="0" y="165.10666631062827" dx="0em" dy="0.3em" fill="rgb(255, 255, 255)" stroke="none" stroke-width="1px">0.01</text><text style="text-anchor: end; visibility: hidden; font-family: Roboto, sans-serif; font-size: 12px; font-weight: 200;" x="0" y="153.31333300272624" dx="0em" dy="0.3em" fill="rgb(255, 255, 255)" stroke="none" stroke-width="1px">0.012</text><text style="text-anchor: end; visibility: hidden; font-family: Roboto, sans-serif; font-size: 12px; font-weight: 200;" x="0" y="141.51999969482424" dx="0em" dy="0.3em" fill="rgb(255, 255, 255)" stroke="none" stroke-width="1px">0.014</text><text style="text-anchor: end; visibility: inherit; font-family: Roboto, sans-serif; font-size: 12px; font-weight: 200;" x="0" y="129.7266663869222" dx="0em" dy="0.3em" fill="rgb(255, 255, 255)" stroke="none" stroke-width="1px">0.016</text><text style="text-anchor: end; visibility: hidden; font-family: Roboto, sans-serif; font-size: 12px; font-weight: 200;" x="0" y="117.9333330790202" dx="0em" dy="0.3em" fill="rgb(255, 255, 255)" stroke="none" stroke-width="1px">0.018</text><text style="text-anchor: end; visibility: hidden; font-family: Roboto, sans-serif; font-size: 12px; font-weight: 200;" x="0" y="106.13999977111816" dx="0em" dy="0.3em" fill="rgb(255, 255, 255)" stroke="none" stroke-width="1px">0.02</text><text style="text-anchor: end; visibility: inherit; font-family: Roboto, sans-serif; font-size: 12px; font-weight: 200;" x="0" y="94.34666646321617" dx="0em" dy="0.3em" fill="rgb(255, 255, 255)" stroke="none" stroke-width="1px">0.022</text><text style="text-anchor: end; visibility: hidden; font-family: Roboto, sans-serif; font-size: 12px; font-weight: 200;" x="0" y="82.55333315531414" dx="0em" dy="0.3em" fill="rgb(255, 255, 255)" stroke="none" stroke-width="1px">0.024</text><text style="text-anchor: end; visibility: hidden; font-family: Roboto, sans-serif; font-size: 12px; font-weight: 200;" x="0" y="70.75999984741212" dx="0em" dy="0.3em" fill="rgb(255, 255, 255)" stroke="none" stroke-width="1px">0.026</text><text style="text-anchor: end; visibility: inherit; font-family: Roboto, sans-serif; font-size: 12px; font-weight: 200;" x="0" y="58.96666653951008" dx="0em" dy="0.3em" fill="rgb(255, 255, 255)" stroke="none" stroke-width="1px">0.028</text><text style="text-anchor: end; visibility: hidden; font-family: Roboto, sans-serif; font-size: 12px; font-weight: 200;" x="0" y="47.17333323160808" dx="0em" dy="0.3em" fill="rgb(255, 255, 255)" stroke="none" stroke-width="1px">0.03</text><text style="text-anchor: end; visibility: hidden; font-family: Roboto, sans-serif; font-size: 12px; font-weight: 200;" x="0" y="35.379999923706045" dx="0em" dy="0.3em" fill="rgb(255, 255, 255)" stroke="none" stroke-width="1px">0.032</text><text style="text-anchor: end; visibility: inherit; font-family: Roboto, sans-serif; font-size: 12px; font-weight: 200;" x="0" y="23.586666615804013" dx="0em" dy="0.3em" fill="rgb(255, 255, 255)" stroke="none" stroke-width="1px">0.034</text><text style="text-anchor: end; visibility: hidden; font-family: Roboto, sans-serif; font-size: 12px; font-weight: 200;" x="0" y="11.793333307902035" dx="0em" dy="0.3em" fill="rgb(255, 255, 255)" stroke="none" stroke-width="1px">0.036</text><text style="text-anchor: end; visibility: hidden; font-family: Roboto, sans-serif; font-size: 12px; font-weight: 200;" x="0" y="0" dx="0em" dy="0.3em" fill="rgb(255, 255, 255)" stroke="none" stroke-width="1px">0.038</text></g><line x1="61.91500186920166" y1="0" x2="61.91500186920166" y2="176.89999961853027" fill="rgb(0, 0, 0)" stroke="rgb(204, 204, 204)" stroke-width="1px"></line></g></g><g transform="translate(61, 0)" clip-path="url(#clip_0)"><clipPath id="clip_0"><rect width="268" height="176"></rect></clipPath><g><g><g><line x1="0" y1="0" x2="0" y2="176.89999961853027" fill="rgb(0, 0, 0)" stroke="rgb(189, 189, 189)" stroke-width="1px" opacity="0.25"></line><line x1="19.148928437914165" y1="0" x2="19.148928437914165" y2="176.89999961853027" fill="rgb(0, 0, 0)" stroke="rgb(189, 189, 189)" stroke-width="1px" opacity="0.25"></line><line x1="38.29785687582833" y1="0" x2="38.29785687582833" y2="176.89999961853027" fill="rgb(0, 0, 0)" stroke="rgb(189, 189, 189)" stroke-width="1px" opacity="0.25"></line><line x1="57.446785313742495" y1="0" x2="57.446785313742495" y2="176.89999961853027" fill="rgb(0, 0, 0)" stroke="rgb(189, 189, 189)" stroke-width="1px" opacity="0.25"></line><line x1="76.59571375165666" y1="0" x2="76.59571375165666" y2="176.89999961853027" fill="rgb(0, 0, 0)" stroke="rgb(189, 189, 189)" stroke-width="1px" opacity="0.25"></line><line x1="95.74464218957084" y1="0" x2="95.74464218957084" y2="176.89999961853027" fill="rgb(0, 0, 0)" stroke="rgb(189, 189, 189)" stroke-width="1px" opacity="0.25"></line><line x1="114.89357062748499" y1="0" x2="114.89357062748499" y2="176.89999961853027" fill="rgb(0, 0, 0)" stroke="rgb(189, 189, 189)" stroke-width="1px" opacity="0.25"></line><line x1="134.04249906539917" y1="0" x2="134.04249906539917" y2="176.89999961853027" fill="rgb(0, 0, 0)" stroke="rgb(189, 189, 189)" stroke-width="1px" opacity="0.25"></line><line x1="153.19142750331332" y1="0" x2="153.19142750331332" y2="176.89999961853027" fill="rgb(0, 0, 0)" stroke="rgb(189, 189, 189)" stroke-width="1px" opacity="0.25"></line><line x1="172.34035594122753" y1="0" x2="172.34035594122753" y2="176.89999961853027" fill="rgb(0, 0, 0)" stroke="rgb(189, 189, 189)" stroke-width="1px" opacity="0.25"></line><line x1="191.48928437914168" y1="0" x2="191.48928437914168" y2="176.89999961853027" fill="rgb(0, 0, 0)" stroke="rgb(189, 189, 189)" stroke-width="1px" opacity="0.25"></line><line x1="210.63821281705583" y1="0" x2="210.63821281705583" y2="176.89999961853027" fill="rgb(0, 0, 0)" stroke="rgb(189, 189, 189)" stroke-width="1px" opacity="0.25"></line><line x1="229.78714125496998" y1="0" x2="229.78714125496998" y2="176.89999961853027" fill="rgb(0, 0, 0)" stroke="rgb(189, 189, 189)" stroke-width="1px" opacity="0.25"></line><line x1="248.9360696928842" y1="0" x2="248.9360696928842" y2="176.89999961853027" fill="rgb(0, 0, 0)" stroke="rgb(189, 189, 189)" stroke-width="1px" opacity="0.25"></line><line x1="268.08499813079834" y1="0" x2="268.08499813079834" y2="176.89999961853027" fill="rgb(0, 0, 0)" stroke="rgb(189, 189, 189)" stroke-width="1px" opacity="0.25"></line></g><g><line x1="0" y1="176.89999961853027" x2="268.08499813079834" y2="176.89999961853027" fill="rgb(0, 0, 0)" stroke="rgb(189, 189, 189)" stroke-width="1px" opacity="0.25"></line><line x1="0" y1="165.10666631062827" x2="268.08499813079834" y2="165.10666631062827" fill="rgb(0, 0, 0)" stroke="rgb(189, 189, 189)" stroke-width="1px" opacity="0.25"></line><line x1="0" y1="153.31333300272624" x2="268.08499813079834" y2="153.31333300272624" fill="rgb(0, 0, 0)" stroke="rgb(189, 189, 189)" stroke-width="1px" opacity="0.25"></line><line x1="0" y1="141.51999969482424" x2="268.08499813079834" y2="141.51999969482424" fill="rgb(0, 0, 0)" stroke="rgb(189, 189, 189)" stroke-width="1px" opacity="0.25"></line><line x1="0" y1="129.7266663869222" x2="268.08499813079834" y2="129.7266663869222" fill="rgb(0, 0, 0)" stroke="rgb(189, 189, 189)" stroke-width="1px" opacity="0.25"></line><line x1="0" y1="117.9333330790202" x2="268.08499813079834" y2="117.9333330790202" fill="rgb(0, 0, 0)" stroke="rgb(189, 189, 189)" stroke-width="1px" opacity="0.25"></line><line x1="0" y1="106.13999977111816" x2="268.08499813079834" y2="106.13999977111816" fill="rgb(0, 0, 0)" stroke="rgb(189, 189, 189)" stroke-width="1px" opacity="0.25"></line><line x1="0" y1="94.34666646321617" x2="268.08499813079834" y2="94.34666646321617" fill="rgb(0, 0, 0)" stroke="rgb(189, 189, 189)" stroke-width="1px" opacity="0.25"></line><line x1="0" y1="82.55333315531414" x2="268.08499813079834" y2="82.55333315531414" fill="rgb(0, 0, 0)" stroke="rgb(189, 189, 189)" stroke-width="1px" opacity="0.25"></line><line x1="0" y1="70.75999984741212" x2="268.08499813079834" y2="70.75999984741212" fill="rgb(0, 0, 0)" stroke="rgb(189, 189, 189)" stroke-width="1px" opacity="0.25"></line><line x1="0" y1="58.96666653951008" x2="268.08499813079834" y2="58.96666653951008" fill="rgb(0, 0, 0)" stroke="rgb(189, 189, 189)" stroke-width="1px" opacity="0.25"></line><line x1="0" y1="47.17333323160808" x2="268.08499813079834" y2="47.17333323160808" fill="rgb(0, 0, 0)" stroke="rgb(189, 189, 189)" stroke-width="1px" opacity="0.25"></line><line x1="0" y1="35.379999923706045" x2="268.08499813079834" y2="35.379999923706045" fill="rgb(0, 0, 0)" stroke="rgb(189, 189, 189)" stroke-width="1px" opacity="0.25"></line><line x1="0" y1="23.586666615804013" x2="268.08499813079834" y2="23.586666615804013" fill="rgb(0, 0, 0)" stroke="rgb(189, 189, 189)" stroke-width="1px" opacity="0.25"></line><line x1="0" y1="11.793333307902035" x2="268.08499813079834" y2="11.793333307902035" fill="rgb(0, 0, 0)" stroke="rgb(189, 189, 189)" stroke-width="1px" opacity="0.25"></line><line x1="0" y1="0" x2="268.08499813079834" y2="0" fill="rgb(0, 0, 0)" stroke="rgb(189, 189, 189)" stroke-width="1px" opacity="0.25"></line></g></g></g><g><g><line x1="0" y1="224.07333285013834" x2="268.08499813079834" y2="224.07333285013834" fill="rgb(0, 0, 0)" stroke="rgb(153, 153, 153)" stroke-width="1.5px"></line></g></g><g><g><line x1="19.148928437914165" y1="0" x2="19.148928437914165" y2="176.89999961853027" fill="rgb(0, 0, 0)" stroke="rgb(153, 153, 153)" stroke-width="1.5px"></line></g></g><g><g><g><g><g><path style="fill: none;" stroke="rgb(204, 51, 17)" stroke-width="2px" d="M19.321268793855396,159.13890447587204L19.70424736261368,137.79858063429668L19.89573664699282,115.44074807805126L20.08722593137196,102.63305672015406L20.661693784509385,108.71889703770489L21.04467235326767,114.06161602344748L21.23616163764681,109.82372146448994L21.427650922025954,116.8917544299657L22.002118775163378,113.83626715037396L22.19360805954252,114.9703689744702L22.38509734392166,111.1334968939409L22.576586628300802,106.21518232870295L22.768075912679944,113.58747504255837L22.95956519705909,114.15555007403746L23.151054481438226,111.80745700233034L23.534033050196513,110.8369440540111L23.72552233457565,113.29647033273766L24.12764983177185,101.78974209519366L24.319139116150993,91.56162056851765L24.510628400530134,90.07201666856524L24.702117684909275,90.02854071723922L24.893606969288417,80.51498904235113L25.085096253667558,83.56809551479309L25.276585538046703,78.26794088014172L25.46807482242584,79.13573385776132L25.659564106804982,78.61180662468072L25.851053391184127,70.44989003426753L26.234031959942406,72.63557153690758L26.42552124432155,72.64604405945629L26.617010528700693,76.89881530651574L26.808499813079834,73.98036312215203L26.999989097458975,75.5599278692684L27.38296766621726,70.24901461410336L27.5744569505964,73.03784699779901L28.148924803733824,69.78791215445096L28.34041408811297,70.78461783997366L28.53190337249211,70.23954842521695L28.723392656871248,72.94420592863376L28.934030869688307,72.06806556108383L29.12552015406745,73.2972652257755L29.31700943844659,75.35273397512596L29.50849872282573,72.60441876164296L29.699988007204873,69.62627323614551L29.891477291584014,68.65885470136561L30.2744558603423,67.8843826228899L30.46594514472144,70.63007031569913L30.848923713479724,71.19100676096885L31.040412997858866,68.61879577844488L31.231902282238007,70.27860646675923L31.42339156661715,65.99495490048655L31.80637013537543,63.494470328042325L31.997859419754572,62.923917332949145L32.189348704133714,60.627081683236675L32.38083798851286,59.026450268058056L32.76381655727114,60.99999083128903L32.95530584165028,60.51051723184953L33.146795126029424,62.077519723902086L33.33828441040857,62.588392348546904L33.740411907604766,62.64222380712803L34.12339047636304,61.1239256801619L34.31487976074219,63.30009360742991L34.50636904512133,65.06875960968587L34.69785832950047,64.59713959587006L34.889347613879615,65.2781474972377L35.08083689825876,65.53309548424998L35.27232618263789,64.98940759253287L35.463815467017035,65.31499980467392L35.65530475139618,67.14677240472957L35.84679403577532,67.69403548269415L36.03828332015446,68.38199773981096L36.22977260453361,68.81385356910937L36.42126188891275,69.59918511610776L36.61275117329188,68.7840500878241L36.99572974205017,70.15858342363236L37.378708310808456,71.65173415410044L37.5701975951876,71.91855373940373L37.76168687956673,73.39976638370395L38.33615473270416,73.98438456865036L38.54679294552122,74.26500945689371L38.738282229900356,74.96977192337016L39.121260798658646,76.15619135508922L39.312750083037784,73.94284064388606L39.69572865179607,74.93902511606068L39.88721793617521,75.44310230315921L40.07870722055435,72.58492629546473L40.270196504933494,73.3418330249773L40.46168578931264,73.9135133050279L40.65317507369178,73.89133724108163L40.84466435807092,74.28037107581423L41.2276429268292,72.67041233447239L41.41913221120834,69.48846691773497L41.61062149558749,68.58322156635309L41.802110779966625,68.76848167515858L41.99360006434577,69.21709430214378L42.18508934872491,69.84638039550097L42.37657863310405,70.00242103705304L42.56806791748319,68.48214153617455L42.759557201862336,69.46594542110363L42.95104648624148,69.01471290261576L43.35317398343768,67.5346539590134L43.544663267816816,68.79059338123784L43.73615255219596,68.66414963498421L43.927641836575106,66.78404734495867L44.119131120954236,68.00630586585815L44.31062040533338,66.34706553351081L44.502109689712526,66.32128010731283L44.693598974091664,66.78372489345202L45.076577542849954,66.52408497810296L45.45955611160823,65.95227073384493L45.651045395987374,67.1869460402229L45.84253468036652,67.50616552927796L46.03402396474566,68.34677285869925L46.2255132491248,69.0504851154095L46.41700253350395,68.92695975488402L46.79998110226222,69.43074395972715L46.99147038664137,69.48657083412441L47.182959671020505,69.04268536970282L47.37444895539965,68.90576281035203L47.565938239778795,68.65313359425213L47.75742752415793,68.74875333133285L48.15955502135413,69.2392427543081L48.54253359011241,68.04144490204824L48.73402287449155,68.7928934138232L48.925512158870696,67.17787360185615L49.308490727628985,67.32627773831223L49.49998001200812,66.97860917962855L49.69146929638726,67.68320814680854L49.882958580766406,68.31621728912697L50.074447865145544,69.23867517769227L50.26593714952469,69.8107640649135L50.457426433903834,67.90775040122101L50.64891571828297,68.62005910025316L50.840405002662116,69.06805326052563L51.031894287041254,68.17635452377093L51.22338357142039,63.780008503491516L51.60636214017868,63.33846480594103L51.79785142455783,59.225898756604586L51.989340708936965,59.53130167869735L52.18082999331611,58.7941710095916L52.37231927769525,56.626660045945535L52.75529784645353,57.45692101454379L52.96593605927058,58.15889845328405L53.15742534364973,57.91957962018927L53.34891462802887,58.194282375366924L53.54040391240801,58.3756801163146L53.9233824811663,58.47950947462955L54.11487176554543,55.50963606256463L54.306361049924575,54.801233906797925L54.49785033430372,55.09065265125177L54.68933961868286,54.556669166487346L54.880828903062,55.469610849479196L55.07231818744115,55.93645973495347L55.64678604057857,53.864179875282225L55.83827532495771,54.48745029637478L56.02976460933685,54.635183064662186L56.221253893715996,55.395523154906044L56.41274317809514,54.19231846197494L56.79572174685342,54.08913445144937L57.1787003156117,54.035843656775654L57.370189599990844,53.75903168994974L57.56167888436999,54.04766194598241L57.77231709718704,53.276023315555676L58.155295665945324,54.066855913731L58.34678495032447,53.04759133730789L58.53827423470361,53.32251372469941L58.72976351908275,53.70235270451851L58.92125280346189,54.68098141216948L59.112742087841035,55.071736020583145L59.30423137222018,55.7644054097905L59.49572065659932,55.16457561069182L59.687209940978455,55.54275401980325L59.8786992253576,53.76668643157728L60.26167779411588,54.09232103313014L60.45316707849503,54.59496105856854L60.644656362874166,53.16481707686814L60.83614564725331,53.271328673925225L61.21912421601159,53.15765018848605L61.41061350039073,53.480668262037575L61.602102784769876,53.264094068928955L61.79359206914902,52.653550414556314L61.98508135352816,53.29447415007268L62.176570637907304,51.04863110032598L62.36805992228644,51.46215808127576L62.5786981351035,51.62094725096968L62.770187419482646,51.512704893762745L63.34465527262007,51.726316281892295L63.536144556999204,50.86529214051682L63.72763384137835,47.808884240724716L63.919123125757494,47.78472067359085L64.11061241013662,47.647456380859545L64.30210169451577,48.363727725965475L64.49359097889491,49.128534261634144L64.68508026327406,49.575624422856585L64.87656954765319,49.808182826962636L65.06805883203234,49.918344566445846L65.25954811641148,49.83996331400874L65.64252668516977,50.33506915568226L65.83401596954891,50.04480918973259L66.21699453830719,49.63924739398996L66.40848382268634,49.99224542481749L66.59997310706547,49.54625074643276L66.79146239144461,49.22182367190197L66.98295167582376,49.4896927086309L67.1744409602029,50.114640898016084L67.76805774177824,50.03153471539743L67.95954702615738,50.36433129816516L68.15103631053653,50.29656481545804L68.34252559491567,50.72995334145635L68.72550416367395,50.95884787589022L68.91699344805309,50.85023039396408L69.10848273243222,50.18280657949381L69.29997201681137,50.486242290872966L69.68295058556966,51.18693956561492L69.87443986994879,51.35604356890586L70.25741843870708,51.32413375338256L70.64039700746537,50.40895429088433L70.83188629184451,50.956516899099505L71.21486486060279,51.15630076143269L71.40635414498193,48.65602476591572L71.78933271374021,48.7612401186642L71.98082199811935,48.26480808685556L72.19146021093641,48.04937968403396L72.38294949531556,48.15017383742827L72.76592806407383,48.58200589755943L72.95741734845298,48.8634462705497L73.14890663283212,48.72275953201113L73.34039591721127,49.428549634727396L73.5318852015904,49.982173368664085L73.72337448596954,50.3396769541692L73.91486377034867,49.170615750352454L74.10635305472782,48.74286524604297L74.29784233910696,49.30400056711364L74.48933162348611,48.40682067461278L74.68082090786525,48.8701384919817L74.8723101922444,49.271383097875315L75.06379947662354,49.36737936705754L75.25528876100267,49.06353154403607L76.02124589851925,48.82322144219951L76.21273518289838,48.81797548328331L76.40422446727752,48.62337872011937L76.59571375165666,47.43639705262219L76.7872030360358,47.70716584931789L76.99784124885286,48.02828954794845L77.18933053323201,48.26158104211009L77.5723091019903,47.68755346266504L77.76379838636944,48.044462990908215L77.95528767074856,47.9739321473064L78.1467769551277,48.547040444130644L78.33826623950685,48.114750197224446L78.529755523886,48.27631876759151L78.72124480826514,48.267338651105014L79.10422337702343,48.37377536101038L79.29571266140256,48.750217280386444L79.4872019457817,49.12721736864609L79.67869123016085,48.38954422510329L79.87018051454,48.476047122979054L80.06166979891914,48.33825366797887L80.4446483676774,48.784979087869395L80.63613765205655,49.11631773026663L80.82762693643569,49.15624052646432L81.01911622081484,49.158629453521826L81.21060550519398,48.635955461652365L81.59358407395227,48.5588824256092L81.80422228676933,48.9694104916371L82.18720085552759,49.0510948201607L82.57017942428588,49.54947901002681L82.76166870866503,49.89448402709447L82.95315799304417,50.21831979244334L83.14464727742332,50.017194882024356L83.33613656180245,50.217721345402865L83.52762584618159,49.464389575340775L83.91060441493988,48.10111569762546L84.10209369931903,48.26760271697668L84.29358298369817,48.84713870207377L84.67656155245645,49.276875630145724L84.86805083683558,49.25562784925363L85.05954012121472,46.534871862893354L85.25102940559387,46.21337035622014L85.44251868997301,46.4682169459492L85.63400797435216,46.390652040952055L85.82549725873129,46.14671409325944L86.01698654311043,46.380928096032875L86.20847582748958,46.959082939379364L86.39996511186872,47.50201216189797L86.61060332468577,45.595786564115656L86.99358189344406,43.11430936305272L87.1850711778232,43.50697212246966L87.37656046220233,43.440226982600045L87.56804974658148,43.6459534048365L87.95102831533977,44.00381417329089L88.14251759971891,44.19008281972655L88.5254961684772,44.63422277073096L88.71698545285633,44.906081048062184L88.90847473723548,44.553821042740516L89.09996402161462,44.47498693419972L89.29145330599376,43.043241616513484L89.4829425903729,43.44274967749133L89.67443187475205,43.29570417534995L89.86592115913118,43.48002875717245L90.05741044351032,43.86484103660876L90.24889972788947,44.05812266012104L91.01485686540605,44.349649238075735L91.20634614978518,44.023210918188006L91.41698436260224,43.84811552513407L91.79996293136051,44.41138550136129L91.99145221573966,44.8426080908478L92.56592006887709,45.2686243747437L92.75740935325622,44.852317486612534L93.14038792201451,45.193592294222604L93.33187720639366,45.2648780188707L93.5233664907728,45.37439416846727L94.09783434391021,45.74016445584214L94.28932362828935,46.19390764218741L94.4808129126685,46.14736535455452L94.67230219704764,46.577868693349835L94.86379148142679,46.64294539100261L95.05528076580593,46.80662018035433L95.24677005018506,47.333188868013615L95.43825933456421,47.78917742176951L95.62974861894335,47.56526813725294L95.8212379033225,47.94936773243082L96.01272718770164,48.454362098514075L96.22336540051869,48.527845624947716L96.41485468489783,48.5152579892434L96.60634396927698,48.35484521430128L96.79783325365612,48.2575645893371L96.98932253803525,48.468032904689224L97.1808118224144,48.85268453122037L97.37230110679354,48.88705336996834L97.56379039117269,49.14890566509516L97.75527967555183,49.08290394328271L97.94676895993098,48.88755361123059L98.1382582443101,48.38931251382441L98.52123681306838,48.26874063426154L98.71272609744753,48.55375808650544L98.90421538182667,48.87168461697885L99.09570466620582,48.749171339053184L99.67017251934324,48.48645560035794L99.86166180372238,48.66122953686326L100.05315108810153,49.088765664431094L100.24464037248067,48.76683592973404L100.43612965685982,48.85873087114528L100.62761894123894,48.263313089891774L100.81910822561808,47.776812318819594L101.02974643843514,47.81241811498442L101.22123572281428,48.23591799043008L101.41272500719343,48.429867038440825L101.79570357595172,48.17856491359213L101.98719286033086,47.404918389921626L102.17868214471,47.63774065164468L102.75314999784742,47.968495194563L102.94463928222656,48.12572999289864L103.1361285666057,48.40961091717555L103.32761785098485,48.616608210641544L103.51910713536398,49.04940067378529L103.71059641974313,48.36439027607296L103.90208570412227,48.76544082132264L104.09357498850142,46.839549883474696L104.4765535572597,47.06059762740153L104.66804284163884,47.04783113046018L104.85953212601798,47.48764734047075L105.05102141039711,47.38794871712593L105.8361274763516,47.79029712279093L106.02761676073075,47.24520669407147L106.2191060451099,47.44270918793403L106.41059532948903,47.71367716437056L106.60208461386817,48.107302962517615L106.7935738982473,48.32907501464218L106.98506318262645,48.312406134173095L107.36804175138474,48.31352259287097L107.75102032014301,48.46863771095131L107.94250960452216,48.68479228523862L108.1339988889013,48.88071505997883L108.32548817328045,49.245194278737344L108.51697745765959,49.298371536232054L108.70846674203874,49.50858562604192L108.89995602641787,49.509447334731625L109.28293459517616,49.651861932848774L109.47442387955529,49.64988409046153L109.66591316393443,48.61660229993129L109.85740244831358,47.65238229872492L110.24038101707185,46.50727208582675L110.431870301451,46.30968504572187L110.64250851426806,46.700683513670505L111.21697636740548,46.817512187960546L111.40846565178462,46.882160338318855L111.59995493616375,45.77845862532307L111.7914442205429,46.020501520037094L111.98293350492204,46.08575444271067L112.17442278930119,46.0336867533941L112.36591207368033,46.300959084439626L112.74889064243862,46.53414243926278L112.94037992681776,46.765478528993434L113.1318692111969,46.27969959144105L113.32335849557604,45.916758935351496L113.51484777995519,45.65307242536935L113.70633706433432,45.97603830031362L114.28080491747174,46.22105375917838L114.47229420185089,46.57770739096288L114.85527277060918,45.309568051021316L115.04676205498832,45.29172407222247L115.23825133936747,45.57209894822498L115.64037883656366,45.31723895813875L115.83186812094279,45.30553189435594L116.02335740532193,45.550417068579485L116.59782525845937,45.435593950471414L116.78931454283851,45.64916444931918L116.98080382721764,45.63613055778149L117.17229311159679,45.81382378612102L117.36378239597593,45.887556811482035L117.55527168035508,46.07392365409288L117.74676096473422,46.298820428575226L117.93825024911337,46.33642765501964L118.1297395334925,46.44797069909239L118.51271810225077,46.46336602682165L118.70420738662992,46.647606000016786L118.89569667100906,46.680610070144795L119.08718595538821,47.09320375042001L119.27867523976735,47.17059928773231L119.47016452414648,46.83542533395225L119.85314309290477,46.83551408649293L120.44675987448011,46.775659372169926L120.63824915885925,46.278801607008994L120.8297384432384,46.55645280468931L121.21271701199667,46.60223868538608L121.40420629637582,46.52000762116008L121.59569558075496,46.5056983384778L121.78718486513411,46.46016444212184L121.97867414951325,46.48147173079513L122.1701634338924,46.55513193934883L122.36165271827153,46.803813047868765L122.55314200265066,46.72644337784817L122.7446312870298,46.93355952520423L122.93612057140895,47.29694547113393L123.1276098557881,47.15749792236215L123.31909914016724,46.61129267987717L123.51058842454637,46.53267924385474L123.70207770892551,46.64878881684593L123.89356699330466,46.708507863354306L124.27654556206295,46.6332552342915L124.4680348464421,46.82184605403777L124.65952413082124,46.930656964007646L125.06165162801743,46.936413301048255L125.4446301967757,47.132926414628294L125.63611948115485,46.95107041299857L125.827608765534,47.15920180744493L126.01909804991314,47.49198524350588L126.21058733429228,47.83588397812995L126.59356590305056,47.796961533011526L126.7850551874297,47.87977562657536L126.97654447180884,47.51036874943346L127.16803375618798,47.8715844008912L127.35952304056713,47.090333732788196L127.55101232494627,47.39408270889124L127.7425016093254,47.20176070617543L128.12548017808368,47.16757055203884L128.31696946246282,46.84896074337139L128.50845874684197,46.976530870361884L128.6999480312211,46.61329389601733L128.89143731560026,46.77125706063211L129.0829265999794,46.93346753846351L129.27441588435855,47.18429400972332L129.4659051687377,47.31019130510677L129.8680326659339,47.52713767313135L130.059521950313,47.757018740547736L130.25101123469216,46.957567947762705L130.8254790878296,46.92321680103581L131.59143622534617,46.6626540070181L131.7829255097253,46.60208380572585L131.97441479410443,46.70854154981181L132.35739336286272,46.66104596362351L132.54888264724187,46.44677714824448L132.740371931621,46.57019666745305L132.93186121600013,46.65376774899233L133.12335050037927,46.967220380641194L133.31483978475842,46.72351216383621L133.50632906913756,46.870412528173745L133.6978183535167,46.969953923525594L133.88930763789585,47.247200860680785L134.080796922275,47.601548757660055L134.27228620665414,47.67595694478076L134.4637754910333,48.050163961547355L134.8659029882295,48.13978137560578L135.0573922726086,48.16636844991973L135.24888155698775,48.28806982821994L135.4403708413669,47.583153034653876L135.63186012574604,47.696936995649246L135.8233494101252,47.409519771523144L136.01483869450433,47.650267869805134L136.20632797888348,47.75919937188562L136.39781726326262,47.781002769279645L136.58930654764174,47.80939307980282L136.97228511640003,47.86330527985238L137.16377440077918,48.216170510413924L137.35526368515832,47.88400346894491L137.54675296953747,47.92864503176877L137.7382422539166,48.03066758821579L137.92973153829573,48.107857936245466L138.1212208226749,48.44730764378825L138.31271010705402,48.095187102846495L138.5041993914332,48.31443703661497L138.6956886758123,48.13370851977638L138.88717796019145,47.18311945399104L139.0786672445706,47.394265812901395L139.48079474176677,47.42131598060698L139.67228402614595,47.555558905697104L139.86377331052506,47.22703555039623L140.05526259490424,46.1614043746697L140.24675187928335,46.21321456247451L140.8212197324208,46.511428993710055L141.01270901679993,46.588546589145814L141.20419830117908,46.62450277990242L141.39568758555822,46.72616980749088L141.58717686993734,47.044704793357L141.77866615431648,47.191153892799996L142.16164472307477,47.423954233748894L142.35313400745392,47.54387534234488L142.54462329183306,47.64929198742322L142.7361125762122,47.316179976590675L142.92760186059135,47.33327810347482L143.11909114497047,47.621340338320884L143.31058042934964,47.08479296353263L143.50206971372876,47.21503793388024L143.88504828248705,47.36764513570881L144.0765375668662,46.819267483850716L144.4786650640624,47.050156377730254L144.6701543484415,47.31749813496431L144.8616436328207,47.539493405103066L145.0531329171998,47.71446676402877L145.24462220157898,47.779426256556796L145.81909005471638,47.89423022290476L146.0105793390955,48.1638327535467L146.20206862347467,48.02028901274792L146.3935579078538,48.02544270082386L146.77653647661208,48.15964225028583L147.15951504537037,48.23917509515918L147.54249361412866,48.40869121867982L147.92547218288695,48.073976734144594L148.1169614672661,47.773039264529345L148.30845075164524,48.05044074541019L148.49994003602436,48.311345032469134L148.6914293204035,48.554449348917494L149.0935568175997,47.87722330508663L149.28504610197885,47.993564958859615L149.476535386358,47.86196811192351L149.66802467073714,47.72185572041108L149.85951395511628,48.010190780877714L150.0510032394954,47.95008358711196L150.4339818082537,48.10550145049724L150.62547109263284,48.14097410913175L150.81696037701198,48.296847403227154L151.00844966139113,48.26534410375911L151.39142823014942,48.33783131127206L151.58291751452853,48.66020478298047L151.7744067989077,48.83524163035485L151.96589608328682,47.54457422724659L152.3488746520451,47.67917411462281L152.54036393642423,47.82523151208139L152.7318532208034,47.576379006584446L152.92334250518252,47.696940810951574L153.1148317895617,47.284095277674105L153.3063210739408,47.46855098336015L153.49781035831998,47.71359618851779L153.6892996426991,47.93709270463309L153.89993785551616,47.95086979979668L154.28291642427445,48.01189693203152L154.47440570865356,48.224358459675784L154.85738427741185,47.97256149910665L155.04887356179103,48.285807557676314L155.24036284617014,48.33949942266977L155.4318521305493,48.39565870384688L155.62334141492843,48.68466747890499L155.81483069930758,48.825547968658995L156.00631998368672,48.8549757148949L156.19780926806587,48.906330034013926L156.389298552445,49.08314268718209L156.77227712120327,49.43351414518583L156.96376640558245,49.60522238274667L157.15525568996156,49.639604450483404L157.3467449743407,48.90395560882727L157.53823425871985,48.9283622055304L157.729723543099,48.807263421538934L157.92121282747814,48.90407556841102L158.11270211185726,49.2341170721379L158.30419139623643,49.4129168768125L158.49568068061555,48.69767219927673L158.7063188934326,48.92738071064667L158.89780817781175,49.160300190927856L159.0892974621909,49.31267378263702L159.28078674657004,49.369848963994706L159.4722760309492,48.8617044957644L159.6637653153283,48.83335540730581L159.85525459970748,48.83025043966093L160.0467438840866,49.02802523423871L160.23823316846577,49.109493353800154L160.42972245284489,48.912945939214204L160.62121173722403,48.97652250388495L160.81270102160317,48.307286203010364L161.19567959036146,47.826830862002225L161.38716887474058,47.99845707323475L161.57865815911975,47.79439806475117L161.96163672787802,47.642621647092206L162.15312601225716,47.76639342605749L162.3446152966363,47.961158566731605L162.53610458101545,47.99078218315153L162.7275938653946,48.2474301566533L163.7041892157282,48.35966629932265L163.89567850010735,48.262728177854484L164.0871677844865,48.45717725521402L164.4701463532448,48.61524764987381L164.66163563762393,48.59596245963842L164.85312492200305,48.63597829775025L165.04461420638222,48.69828041005399L165.23610349076134,48.98380523059076L165.61908205951963,49.106496547009854L165.8105713438988,48.707059905183144L166.00206062827792,48.605164907252345L166.19354991265703,48.75701059600954L166.3850391970362,48.71289423895113L166.57652848141532,48.862532417336276L166.7680177657945,48.960652255835704L166.9595070501736,49.11029336024059L167.1509963345528,49.208861884173864L167.3424856189319,49.292926309706786L167.53397490331105,48.66260880238699L167.7254641876902,48.76318718583139L167.91695347206934,48.376320542522436L168.31908096926554,48.39446548489935L168.51057025364466,48.30575302042563L168.70205953802383,47.165797061301035L168.89354882240295,47.353893090774385L169.0850381067821,47.21555263866614L169.27652739116124,47.460891401779314L169.46801667554038,47.18351945123799L169.65950595991953,47.450897853766236L169.85099524429867,47.03291289058981L170.42546309743608,46.80653983066775L170.61695238181522,46.63217760506835L170.80844166619437,45.987134280328526L170.9999309505735,46.020165800319994L171.19142023495266,46.011797720713375L171.38290951933178,45.918532865306275L171.76588808809007,46.1388660004008L171.95737737246924,46.393697307841755L172.14886665684836,46.524761554910626L172.34035594122753,45.99310543794629L172.53184522560665,46.25226592413831L172.72333450998576,46.366665448949234L172.91482379436493,46.51697469510317L173.125462007182,46.56429623549445L173.50844057594028,46.79392445897492L173.6999298603194,46.48038776732219L173.89141914469857,46.46441827435149L174.0829084290777,46.70586714790252L174.27439771345684,46.50779346593048L174.46588699783598,46.77171880580942L174.6573762822151,46.79255756052362L174.84886556659427,46.97729176132873L175.0403548509734,46.798252160469644L175.23184413535256,46.82978518658952L175.61482270411082,46.85597853230068L175.80631198848997,46.97397925338424L175.9978012728691,47.051475900411525L176.3807798416274,47.200632108128445L176.57226912600655,47.35209525392415L176.7637584103857,47.459115594599375L176.9552476947648,47.593585829253705L177.14673697914395,46.764996418085246L177.3382262635231,46.87228071000576L177.52971554790224,46.839950084945535L177.7212048322814,46.93998597762286L177.93184304509845,47.00577187759537L178.1233323294776,46.84190634821938L178.31482161385674,46.99734228288542L178.50631089823585,47.262325509382855L178.69780018261503,47.41226699997441L178.88928946699414,47.50567456594822L179.27226803575243,47.76490082914843L179.46375732013158,47.65754184331112L179.65524660451072,47.8862694244499L179.84673588888984,47.80473187613684L180.038225173269,48.03280644307148L180.22971445764813,47.971560960797134L180.61269302640642,48.02567208888707L180.80418231078556,48.15036100369274L181.18716087954385,48.30157797702793L181.378650163923,48.38356106265702L181.7616287326813,47.81833342196887L182.14460730143955,46.462162769261155L182.7382240830149,46.50416662516026L182.92971336739404,46.66412613389636L183.50418122053145,46.62954353245956L183.6956705049106,46.15476258334391L183.88715978928974,46.30961322634134L184.07864907366888,46.46321548450891L184.27013835804803,46.56260422912872L184.65311692680632,46.688727425255934L184.84460621118546,46.39028044146046L185.03609549556458,46.566347349128705L185.61056334870204,46.451947159815234L185.80205263308116,46.41077575595835L186.18503120183945,46.46573684414335L186.37652048621857,46.60614587376347L186.56800977059774,46.235390286808936L186.75949905497686,46.43486794945867L186.95098833935603,46.67013676987714L187.14247762373515,46.84772977733577L187.3339669081143,47.0963399451312L187.7360944053105,47.027691109837995L187.9275836896896,46.50330936774933L188.11907297406879,46.601503120773295L188.50205154282708,46.8283762270444L188.6935408272062,46.99741706472159L188.88503011158537,47.06440831227406L189.07651939596448,47.228817912328296L189.26800868034363,47.26219466736222L189.45949796472277,47.355502452404245L189.65098724910192,47.52535253558112L189.84247653348106,47.44081511469928L190.0339658178602,47.12801802483307L190.22545510223932,47.22278320202416L190.41694438661847,47.395991455751584L190.79992295537676,47.0856753784815L190.9914122397559,47.33068287756627L191.3743908085142,46.379466252137796L191.75736937727248,46.38740635096194L191.9488586616516,46.33281013447242L192.54247544322695,46.34965880780332L192.7339647276061,46.36392466334669L193.11694329636435,46.494503668264265L193.30843258074353,46.4181267955906L193.49992186512264,46.49609342206974L193.69141114950182,46.42795473046866L193.88290043388093,46.67225797254022L194.26587900263922,46.88313268281638L194.45736828701837,46.898302013374135L194.84034685577663,46.85576447698949L195.0318361401558,46.98056631069645L195.4148147089141,47.02805749882768L195.6063039932932,47.24009139516816L195.79779327767235,47.36573982228821L195.9892825620515,47.33062256522069L196.18077184643064,47.4861234511878L196.3722611308098,47.44563252697837L196.56375041518893,47.512271372243056L196.75523969956805,47.74899942612645L196.94672898394722,47.95259405726209L197.3488564811434,47.524608964143084L197.54034576552255,47.30646885325053L197.7318350499017,46.63542550118689L197.92332433428084,46.68890072691681L198.11481361865998,46.65217720076996L198.30630290303912,46.20449012500059L198.49779218741827,46.144381279101125L198.6892814717974,46.22133432974259L198.88077075617656,45.30860033284273L199.07226004055568,45.07785912446336L199.45523860931397,44.984321402859145L199.83821717807226,45.069775982164586L200.02970646245137,45.2120263598072L200.22119574683055,45.27969459290459L200.41268503120966,45.35713724502691L200.60417431558884,45.489552702081745L200.79566359996795,45.303815937621025L200.9871528843471,45.47205412343991L201.17864216872624,45.719298312615955L201.3701314531054,45.77927053677652L201.56162073748453,45.838198018566594L201.75311002186365,46.010235040019346L201.9637482346807,46.0881547569525L202.346726803439,46.291525326787756L202.7297053721973,46.400948128068094L202.92119465657643,46.5561633997999L203.11268394095558,46.02879548639648L203.30417322533472,46.16650885008536L203.68715179409298,45.95165566629544L203.87864107847213,45.83366681483798L204.07013036285127,45.9594882955034L204.26161964723042,45.97049923782288L204.45310893160956,46.10367740061453L204.6445982159887,46.217121469857155L204.83608750036785,46.472863375565105L205.21906606912611,46.116909371684216L205.4105553535053,45.85946062812183L205.9850232066427,44.818396667893275L206.1765124910218,44.866640403226654L206.77012927259716,45.03601240288275L206.96161855697633,45.263795150647795L207.15310784135545,45.19850873828023L207.34459712573462,45.15795939000219L207.53608641011374,45.27068409964836L207.7275756944929,45.453421230203844L207.91906497887203,45.54965845774066L208.11055426325115,45.361561404554536L208.30204354763032,45.44768172767107L208.87651140076773,45.57494310228282L209.06800068514687,45.67749600700427L209.25948996952602,45.89189679241228L209.45097925390516,46.115507724480324L209.6424685382843,46.246701980709446L210.0254471070426,46.18454630852547L210.21693639142174,46.25061354533194L210.40842567580086,45.94841027287606L210.59991496018,44.86830028602885L210.79140424455915,45.05406955223849L211.17438281331744,44.99176224140169L211.36587209769658,45.028696405972426L211.57651031051364,45.14224852015057L211.76799959489279,45.303675736927026L211.9594888792719,45.40890352108486L212.15097816365108,45.49928119616121L212.3424674480302,45.50837766424213L212.53395673240934,44.70918503636522L212.72544601678848,44.17832724713536L212.91693530116763,44.35181787191348L213.2999138699259,44.28406800974743L213.68289243868418,44.254989202496525L214.06587100744247,43.70387783781035L214.25736029182164,43.87635107595847L214.44884957620076,43.98421323642711L214.64033886057987,44.146370400418775L214.83182814495905,44.20297257279741L215.40629599809645,44.15651197554877L215.78927456685474,44.18048865049476L215.9807638512339,44.3084406994592L216.3828913484301,43.836419711293914L216.5743806328092,43.86930757506891L216.76586991718838,43.856767475819524L216.9573592015675,43.36845335506825L217.14884848594667,43.540608709528364L217.53182705470493,43.7377506056032L218.2977841922215,43.741437336310476L218.48927347660063,43.699649418805926L218.6807627609798,43.72556955315824L218.87225204535892,43.92514027520263L219.0637413297381,44.044860262276295L219.82969846725462,44.19792642527849L220.0211877516338,44.25977789260509L220.2126770360129,44.41645433288098L220.40416632039208,44.58744496576853L220.78714488915037,44.753656543774916L220.97863417352949,44.671551912707244L221.18927238634654,44.49646916703903L221.57225095510483,44.256464676904216L221.76374023948395,44.107442157997376L221.95522952386312,44.23365309568563L222.33820809262141,44.32188629850079L222.72118666137968,44.49637662114102L222.91267594575882,44.68236177778852L223.10416523013797,44.12612648434115L223.48714379889623,44.3536948451696L223.6786330832754,44.589419807033L223.87012236765452,44.390967165954166L224.06161165203366,44.34309506037162L224.2531009364128,44.51610723577383L224.44459022079195,44.591121682711986L224.6360795051711,44.76066675261706L224.82756878955024,44.98744959484331L225.01905807392936,45.11538054722895L225.21054735830853,45.31583358640471L225.40203664268765,45.50527666123026L225.59352592706682,45.69019596632961L225.78501521144594,45.29513204410677L226.18714270864214,45.40898210855975L226.3786319930213,45.25897631886492L226.57012127740043,45.51281290063936L226.9530998461587,45.539832568707965L227.14458913053787,45.5937471465185L227.33607841491698,45.77665473949052L227.52756769929616,45.40603946485625L227.9105462680544,45.45665232371317L228.10203555243356,45.47404709337203L228.29352483681268,45.323286374913074L228.48501412119185,45.091398536766306L229.05948197432926,45.14489230921634L229.2509712587084,44.32578860624565L229.44246054308755,44.420219055845855L229.6339498274667,44.295032899664065L230.39990696498327,44.448383185240615L230.80203446217945,44.61926461806262L230.9935237465586,44.80126436862166L231.18501303093774,44.861432833807655L231.37650231531688,44.80307295012991L231.56799159969603,44.89468963387616L231.75948088407517,44.906063993445926L231.95097016845432,44.9966370698191L232.14245945283344,44.74693717202883L232.33394873721258,44.76801575900099L232.52543802159173,44.62030334004485L232.71692730597087,44.468289437957964L232.90841659035001,44.50423062440556L233.09990587472916,44.6214328136417L233.2913951591083,44.84643633993587L233.48288444348742,44.99310085986849L233.8658630122457,45.18478816696487L234.05735229662488,44.22788790307226L234.248841581004,44.19922446913502L234.44033086538317,44.392312911354196L234.6318201497623,44.08309121983985L234.8233094341414,44.16446768574351L235.01479871852058,44.068018064157066L235.60841550009593,44.180242488410556L235.79990478447505,44.29167954617989L236.18288335323334,44.388067581773825L236.37437263761248,44.31811924989943L236.56586192199163,44.48637505804756L236.75735120637074,44.30069588693281L236.94884049074992,44.39725036852247L237.14032977512903,44.40191735807812L237.33181905950818,44.511351792103895L237.52330834388732,44.66635845593665L237.71479762826647,44.758535877325116L237.9062869126456,44.917095462697155L238.2892654814039,45.129186148699844L238.48075476578305,45.32651552744716L238.86373333454134,45.27849528411358L239.05522261892045,45.210444366299164L239.43820118767874,45.259926582958215L239.6296904720579,44.460364501228625L239.82117975643703,44.244588208503885L240.01266904081615,44.1186137551907L240.20415832519532,44.27953191732219L240.41479653801238,44.49823290980402L240.6062858223915,43.8057166828552L240.79777510677067,43.939830525687725L240.9892643911498,43.868524867580724L241.37224295990808,43.905997121463585L241.5637322442872,43.901940267880576L241.75522152866637,43.93988901508568L242.13820009742466,44.12902722618405L242.32968938180377,44.158692502313606L242.52117866618295,44.35745508144218L242.71266795056206,44.25535199520546L242.9041572349412,43.611559238084446L243.09564651932035,43.46460333695825L243.2871358036995,43.6238469766436L243.47862508807864,43.80169064169255L243.67011437245776,43.8270882381367L243.86160365683693,43.93378014028737L244.62756079435349,43.62591052556118L244.81905007873263,43.733545538812585L245.01053936311177,43.870021110201066L245.41266686030798,43.72370270120988L245.6041561446871,43.564589153457916L245.79564542906624,43.65452780166207L245.98713471344539,43.774666635217386L246.17862399782453,43.734053517419206L246.37011328220368,43.454043677675L246.56160256658282,43.49837561598362L246.9445811353411,43.64563029307383L247.13607041972023,43.70553695176898L247.3275597040994,43.822359769195L247.7105382728577,43.86397358543516L247.9020275572368,43.931775496793605L248.09351684161592,43.80313100201916L248.2850061259951,43.880668686419824L248.6679846947534,43.95694016135696L248.8594739791325,44.092661693770545L249.05096326351168,44.03403819406383L249.2424525478908,44.18014484761731L249.43394183226994,44.34184578958238L249.62543111664908,44.30900489594917L250.21904789822443,44.498429496338744L250.41053718260355,44.61705083164266L250.98500503574098,44.81888524510032L251.17649432012013,44.98783505627063L251.36798360449927,45.084060441810266L251.75096217325756,45.086024967537746L251.9424514576367,45.17133539954947L252.13394074201585,45.228837271527546L252.5169193107741,45.224191910826384L252.70840859515326,45.241935550080136L252.8998978795324,45.37392298327329L253.2828764482907,45.376255664989955L253.47436573266984,45.48205874869387L253.66585501704895,45.49921090805042L253.85734430142813,45.49008530095964L254.04883358580724,45.59351224310515L254.24032287018642,45.61213978619227L254.43181215456553,45.367928988004245L254.83393965176174,45.37763347843614L255.40840750489917,45.50223217661225L255.5998967892783,45.53679768812416L256.1743646424157,45.49216320373567L256.3658539267949,45.40715676322477L256.557343211174,45.60956796605394L256.7488324955532,45.717099134435905L256.9403217799323,45.848139408637046L257.32330034869057,46.034483377327106L257.5147896330697,46.05235384665348L257.70627891744886,46.14538093541694L257.897768201828,45.62506827645537L258.08925748620715,45.81786863770817L258.2807467705863,45.91586942747242L258.47223605496544,46.08570074308491L258.6637253393446,46.10661626551316L258.8552146237237,45.96089916583159L259.04670390810287,46.00035451587845L259.238193192482,45.99699238914379L259.42968247686116,45.94735006851849" fill="none"></path></g></g></g></g><g opacity="0.2"><g><g><g><path style="fill: none;" stroke="rgb(204, 51, 17)" stroke-width="2px" d="M19.321268793855396,159.13890447587204L19.70424736261368,116.47959711656536L19.89573664699282,70.79213410539452L20.08722593137196,64.28677757665668L20.661693784509385,133.00146073270972L21.04467235326767,140.6951769416436L21.23616163764681,84.48520171841626L21.427650922025954,166.17047558073278L22.002118775163378,89.50211017938074L22.19360805954252,125.1263866636017L22.38509734392166,72.97517223357308L22.576586628300802,52.43725127386403L22.768075912679944,201.4820519911516L22.95956519705909,121.48903686720288L23.151054481438226,79.17963858671321L23.534033050196513,96.39516965786942L23.72552233457565,152.31606185785412L24.12764983177185,-92.07346290075233L24.319139116150993,-90.8054296548039L24.510628400530134,62.05087635611995L24.702117684909275,89.16809407680354L24.893606969288417,-117.08654722118195L25.085096253667558,149.96938208973287L25.276585538046703,-42.18344445579416L25.46807482242584,99.70441241956735L25.659564106804982,65.6825477359908L25.851053391184127,-138.9188396141394L26.234031959942406,130.82990025496005L26.42552124432155,72.93506086575842L26.617010528700693,198.39637628637246L26.808499813079834,-12.229149250243097L26.999989097458975,123.7507490719577L27.38296766621726,-96.92480762720464L27.5744569505964,163.5213405028644L28.148924803733824,-38.797262994331206L28.34041408811297,105.04845039285168L28.53190337249211,50.97586629762826L28.723392656871248,171.1377775267096L28.934030869688307,39.41601612154538L29.12552015406745,120.28930937055333L29.31700943844659,155.90770424539184L29.50849872282573,-37.741450955643224L29.699988007204873,-52.80296203492054L29.891477291584014,27.96235343287548L30.2744558603423,34.56346322136368L30.46594514472144,191.38546495228374L30.848923713479724,96.39670733352496L31.040412997858866,-49.41765924526078L31.231902282238007,148.0278139564627L31.42339156661715,-138.73948073231747L31.80637013537543,-58.39309401347745L31.997859419754572,34.56981162514159L32.189348704133714,-55.69647221634654L32.38083798851286,-23.555712062584576L32.76381655727114,164.69158306881886L32.95530584165028,34.32986832249119L33.146795126029424,147.37396131753198L33.33828441040857,90.87920856289752L33.740411907604766,65.67406855309021L34.12339047636304,-25.81950012947435L34.31487976074219,189.96497940263612L34.50636904512133,169.67875398094483L34.69785832950047,36.25932176827514L34.889347613879615,106.83667931307127L35.08083689825876,81.330440443113L35.27232618263789,30.791413037539048L35.463815467017035,86.09955247218625L35.65530475139618,185.79308686892998L35.84679403577532,103.65225188101351L36.03828332015446,114.22700113176842L36.22977260453361,97.99486855932155L36.42126188891275,123.39645761752237L36.61275117329188,12.186679878777417L36.99572974205017,166.8744454626368L37.378708310808456,178.10043055785866L37.5701975951876,91.18800678472375L37.76168687956673,181.74427428805276L38.33615473270416,117.28803009246863L38.54679294552122,95.31092160295135L38.738282229900356,128.47576275990937L39.121260798658646,167.32502836330193L39.312750083037784,-98.18023193277757L39.69572865179607,153.32586444424868L39.88721793617521,115.57136899061715L40.07870722055435,-157.5747773722307L40.270196504933494,134.9882914472406L40.46168578931264,120.9987050508419L40.65317507369178,72.04452699324652L40.84466435807092,107.03513832321455L41.2276429268292,-64.35312485437348L41.61062149558749,-10.115943563621393L41.802110779966625,85.04337798137944L41.99360006434577,109.03597286960846L42.18508934872491,126.27464595938062L42.37657863310405,84.13652278012368L42.56806791748319,-70.60524816943797L42.759557201862336,160.36504704360436L42.95104648624148,26.913746502973474L43.35317398343768,-71.89852126293243L43.544663267816816,188.24631383073367L43.73615255219596,56.523459577514245L43.927641836575106,-115.43455636404371L44.31062040533338,-97.45774404262178L44.502109689712526,63.75245725314954L44.693598974091664,113.26979803619108L45.076577542849954,40.191169402903625L45.45955611160823,7.445103227335993L45.651045395987374,194.62416409743412L45.84253468036652,100.74041040909388L46.03402396474566,156.61545241604946L46.2255132491248,143.57349708427233L46.41700253350395,55.73532392026418L46.79998110226222,123.68081777982297L46.99147038664137,75.54805507402268L47.182959671020505,20.451928162082666L47.37444895539965,53.79548018040775L47.565938239778795,40.54938193026059L47.75742752415793,79.47086337247607L48.15955502135413,124.6742001868958L48.54253359011241,-68.3945099126645L48.73402287449155,155.05223486952517L48.925512158870696,-119.6394842116996L49.308490727628985,84.62400989652191L49.49998001200812,26.148159760872247L49.69146929638726,151.05297114079852L49.882958580766406,143.77278534092986L50.074447865145544,180.00996835805392L50.26593714952469,139.01159783318147L50.457426433903834,-163.9549012022219L50.64891571828297,156.03236031576768L50.840405002662116,124.43706863401555L51.031894287041254,-42.81211216416655L51.22338357142039,-487.2716369001773L51.60636214017868,7.6082506143894095L51.79785142455783,-463.4382353758875L51.989340708936965,98.61110306167912L52.18082999331611,-36.172209015568455L52.37231927769525,-224.50527349835866L52.75529784645353,165.86571924920113L52.96593605927058,150.42708223200364L53.15742534364973,26.25579705676045L53.34891462802887,94.77772158599326L53.54040391240801,82.69031685928766L53.9233824811663,72.48665267780613L54.11487176554543,-347.70863578202585L54.306361049924575,-41.98969732319537L54.49785033430372,94.88431545911521L54.68933961868286,-19.323479488645184L54.880828903062,182.56685113413766L55.07231818744115,121.33127134494387L55.64678604057857,-238.1945847894219L55.83827532495771,142.86347535032402L56.02976460933685,75.70944511746977L56.221253893715996,164.51009340787428L56.41274317809514,-119.50601396479823L56.79572174685342,39.10498827001859L57.1787003156117,46.25157751391418L57.370189599990844,13.088592551140342L57.56167888436999,96.7004312256879L57.77231709718704,-61.410870354666656L58.155295665945324,172.27900744806317L58.34678495032447,-100.1760250997008L58.53827423470361,94.88426054212752L58.72976351908275,111.44703731410694L58.92125280346189,204.2850191620351L59.112742087841035,115.13744790401962L59.30423137222018,162.8251194079246L59.49572065659932,-38.053137811022395L59.687209940978455,114.63333192374644L59.8786992253576,-225.2416004694144L60.26167779411588,105.52148335808776L60.45316707849503,134.402261288117L60.644656362874166,-175.10972761063397L60.83614564725331,70.36173868940722L61.21912421601159,34.821946499060964L61.41061350039073,105.85227034178831L61.602102784769876,17.969219015433275L61.79359206914902,-47.356558796567015L61.98508135352816,158.81628913994098L62.176570637907304,-320.58126940201566L62.36805992228644,120.2350404033101L62.5786981351035,78.16109321587713L62.770187419482646,33.33095028305839L63.34465527262007,87.78470220649656L63.536144556999204,-95.19356057342056L63.72763384137835,-473.19628115239175L63.919123125757494,43.64570054725557L64.11061241013662,24.021598262842378L64.30210169451577,172.24024703814587L64.49359097889491,182.0308091630662L64.68508026327406,127.63651037050995L64.87656954765319,90.6040524877351L65.06805883203234,69.33386841406L65.25954811641148,35.96112252507463L65.64252668516977,138.40959781403524L65.83401596954891,-1.82795964740916L66.21699453830719,-23.171952152550446L66.40848382268634,113.65585347631097L66.59997310706547,-31.25452456797686L66.79146239144461,-9.819897066338655L66.98295167582376,98.45740139650975L67.1744409602029,164.86816315106324L67.76805774177824,34.70374317473964L67.95954702615738,112.015164535241L68.15103631053653,37.6876247511216L68.34252559491567,131.72051101125473L68.72550416367395,93.91997315513713L68.91699344805309,30.37573537425483L69.10848273243222,-76.16814132209666L69.29997201681137,108.17577514110098L69.68295058556966,184.97105919272204L69.87443986994879,83.7797161276518L70.25741843870708,45.18004823334699L70.64039700746537,-126.5426154657321L70.83188629184451,157.26985971655597L71.21486486060279,90.106614413166L71.40635414498193,-440.8137544519878L71.78933271374021,69.44337288752995L71.98082199811935,-49.71695682821523L72.19146021093641,5.357159355055406L72.38294949531556,68.20563185199579L72.76592806407383,134.85101545309175L72.95741734845298,105.31297453919574L73.14890663283212,20.39237618062287L73.34039591721127,192.1179394966524L73.5318852015904,162.34927469291839L73.72337448596954,123.18553245117162L73.91486377034867,-189.97000088019044L74.10635305472782,-39.0966704112611L74.29784233910696,164.97975447006573L74.48933162348611,-137.25448145137153L74.68082090786525,145.1155331486415L74.8723101922444,132.93975051363338L75.06379947662354,69.4606058382696L75.25528876100267,-14.77558406941729L76.02124589851925,-1.8560551783154788L76.21273518289838,47.7075147249703L76.40422446727752,7.278067717553533L76.59571375165666,-205.69115284890188L76.7872030360358,105.66221363076284L76.99784124885286,117.0133133532078L77.18933053323201,98.56109565268125L77.5723091019903,-76.52707875369121L77.76379838636944,125.55593635797845L77.95528767074856,32.60132318450185L78.1467769551277,173.90696113968596L78.33826623950685,-46.78036976163885L78.529755523886,83.8693296681775L78.72124480826514,46.282056442086606L79.10422337702343,71.98710579090942L79.29571266140256,132.55763262153144L79.4872019457817,133.35158947947752L79.67869123016085,-116.98376458700622L79.87018051454,67.935495189509L80.06166979891914,17.23396841733645L80.4446483676774,149.97029371172863L80.63613765205655,124.42196646239857L80.82762693643569,58.26058274898201L81.01911622081484,49.705262936655565L81.21060550519398,-71.36468420891703L81.59358407395227,30.80439541343087L81.80422228676933,143.8538977317599L82.18720085552759,67.99334474435014L82.57017942428588,165.5049750487113L82.76166870866503,130.42873165982567L82.95315799304417,126.05896498189523L83.14464727742332,2.7609697450267436L83.33613656180245,97.48654593779068L83.52762584618159,-128.6887054445874L83.91060441493988,-275.33481176885545L84.10209369931903,87.8933719417535L84.29358298369817,187.2241933639984L84.67656155245645,152.21278497078913L84.86805083683558,44.14995931169677L85.05954012121472,-609.3048719435642L85.25102940559387,-31.528428535819735L85.44251868997301,108.28525764777585L85.63400797435216,27.517394031750648L85.82549725873129,-13.393125787901182L86.01698654311043,103.72418215150044L86.20847582748958,188.94633792707154L86.99358189344406,-571.9071062586219L87.1850711778232,141.1213766997708L87.37656046220233,26.79756412379944L87.56804974658148,95.0973274709985L87.95102831533977,133.77139690023665L88.14251759971891,91.05399835134293L88.5254961684772,156.70874539475093L88.71698545285633,113.70993572579603L88.90847473723548,-44.86143841069787L89.09996402161462,24.405533907237118L89.29145330599376,-322.51386409949595L89.4829425903729,145.74333866030705L89.67443187475205,5.533047483254781L89.86592115913118,90.95310486154403L90.05741044351032,143.2591467549898L90.24889972788947,94.12457188450506L91.01485686540605,120.08056990031297L91.20634614978518,-41.01817187722635L91.79996293136051,191.98198151020833L91.99145221573966,158.13604339672253L92.56592006887709,157.50789190803448L92.75740935325622,-65.13509882560382L93.14038792201451,135.60845800591736L93.33187720639366,64.20312802099498L93.5233664907728,74.54951047010624L94.09783434391021,143.44937920037594L94.28932362828935,167.73564268032038L94.4808129126685,33.646305593215786L94.67230219704764,162.52366907905238L94.86379148142679,64.21728562042354L95.05528076580593,91.12725761293215L95.24677005018506,190.303416322723L95.43825933456421,171.9277089694574L95.62974861894335,-13.554625665323677L95.8212379033225,153.07483340178203L96.01272718770164,187.03418607826185L96.22336540051869,68.74633352947345L96.41485468489783,45.042744780704275L96.60634396927698,3.9862556077509783L96.79783325365612,21.280427805290813L96.98932253803525,106.98542746595027L97.1808118224144,156.07632136441998L97.37230110679354,58.492299486875254L97.56379039117269,122.5185985857712L97.75527967555183,30.542111880184894L97.94676895993098,-6.129321725462843L98.1382582443101,-92.2886715921435L98.52123681306838,14.13895682464868L98.71272609744753,129.43652447628955L98.90421538182667,139.32083539090928L99.09570466620582,13.806972650616322L99.67017251934324,-26.63062403777485L99.86166180372238,98.75814878793946L100.05315108810153,171.94159198394746L100.24464037248067,-43.96901539380917L100.43612965685982,75.39553961578761L100.62761894123894,-124.10034718882358L100.81910822561808,-93.4023441690702L101.02974643843514,58.17021135402608L101.22123572281428,171.7327097295391L101.41272500719343,105.12454337100611L101.79570357595172,-25.459003055429157L101.98719286033086,-179.83829991938848L102.17868214471,116.18883363349916L102.75314999784742,145.58734695675068L102.94463928222656,94.64265874644863L103.1361285666057,132.59361423187121L103.32761785098485,110.14641632765849L103.51910713536398,178.0003855355197L103.71059641974313,-156.21542815913796L103.90208570412227,168.8209176829084L104.09357498850142,-531.0281307567037L104.4765535572597,113.54094517125152L104.66804284163884,43.199379204835815L104.85953212601798,180.376742443793L105.05102141039711,17.19484555530035L105.8361274763516,169.9190871942079L106.02761676073075,-118.59056974666647L106.2191060451099,107.6671669512341L106.41059532948903,130.52804354037886L106.60208461386817,168.68179647797288L106.7935738982473,116.41536620775369L106.98506318262645,43.18335442782553L107.36804175138474,48.657831230290306L107.75102032014301,96.41225982444105L107.94250960452216,115.64387039777614L108.1339988889013,109.70754172877061L108.32548817328045,162.6535642300546L108.51697745765959,65.8811495303021L108.70846674203874,115.20612708883483L108.89995602641787,49.77934595306027L109.28293459517616,94.35567355213607L109.47442387955529,49.02768615903926L109.66591316393443,-277.14469994902316L110.431870301451,-16.38818846297849L110.64250851426806,171.03797139326713L111.21697636740548,84.0485237990363L111.40846565178462,67.52824179213765L111.59995493616375,-307.45066157699756L111.7914442205429,123.64833987329834L111.98293350492204,67.05788877590123L112.17442278930119,29.263973908500038L112.36591207368033,132.56367898187702L112.74889064243862,121.9522616584361L112.94037992681776,121.74242384844177L113.1318692111969,-111.4910333778306L113.51484777995519,-40.34212179186807L113.70633706433432,151.52112747752702L114.28080491747174,126.45668479020219L114.47229420185089,163.61118469473845L114.85527277060918,-371.6725200690863L115.04676205498832,39.41241356715238L115.23825133936747,138.13892845676776L115.64037883656366,-38.99621625736377L115.83186812094279,41.42474773077026L116.02335740532193,126.89106717949637L116.59782525845937,7.219570142257557L116.78931454283851,116.87307733342202L116.98080382721764,41.28076637242347L117.17229311159679,105.30937198480274L117.36378239597593,70.62394533887041L117.55527168035508,108.72102394516003L117.74676096473422,122.04680674445709L117.93825024911337,59.02790486789452L118.1297395334925,84.16468421141526L118.51271810225077,51.679254059462664L118.70420738662992,109.18915831509345L118.89569667100906,57.905840975247564L119.08718595538821,187.69499944538336L119.27867523976735,73.59604172969237L119.47016452414648,-67.82464731471919L119.85314309290477,46.865933855292475L120.44675987448011,26.22128722169099L120.63824915885925,-124.67007798599842L120.8297384432384,142.26696702994758L121.21271701199667,62.41527253629172L121.40420629637582,18.06618044891299L121.59569558075496,41.54501593382903L121.78718486513411,30.64496041474583L121.97867414951325,53.89597826789522L122.1701634338924,72.23535254209978L122.36165271827153,133.66345206921733L122.55314200265066,19.652402721584014L122.7446312870298,119.54433846563394L122.93612057140895,174.92841711087004L123.1276098557881,-1.9107744648578215L123.31909914016724,-145.93879028440324L123.51058842454637,18.76878838952208L123.70207770892551,87.73016963771238L123.89356699330466,67.87656926170897L124.27654556206295,19.910644364535408L124.4680348464421,113.912886945533L124.65952413082124,85.71004824523892L125.06165162801743,48.9916276649167L125.4446301967757,117.42115985404628L125.63611948115485,-18.211278686988813L125.827608765534,121.86985322669638L126.01909804991314,167.16061239383265L126.21058733429228,171.721451747061L126.59356590305056,33.75073573702243L126.7850551874297,77.81834531225594L126.97654447180884,-86.27139528327103L127.35952304056713,-236.83642178326338L127.55101232494627,157.97739371096156L127.7425016093254,-22.937390714694466L128.12548017808368,34.67685581756267L128.31696946246282,-69.75089360842159L128.50845874684197,93.74341503968783L128.6999480312211,-86.77816924574881L128.89143731560026,104.87984425722107L129.0829265999794,106.70685555415304L129.27441588435855,139.77018265935118L129.4659051687377,93.86111312772233L129.8680326659339,127.88025392870907L130.059521950313,133.04542727306077L130.25101123469216,-250.14952974179977L130.8254790878296,34.135440219244934L131.59143622534617,-50.49941406893734L131.7829255097253,23.977950241019947L131.97441479410443,86.53914099191421L132.35739336286272,28.86114682033717L132.54888264724187,-33.988402049562126L132.740371931621,92.97808091573L132.93186121600013,78.13001020084002L133.12335050037927,165.2212134815766L133.31483978475842,-45.370035617167204L133.50632906913756,102.47301940417287L133.6978183535167,84.70869189155233L133.88930763789585,152.5306005619954L134.080796922275,182.38315655613704L134.27228620665414,76.02427322454527L134.4637754910333,190.8482532493743L134.8659029882295,82.39328185622635L135.0573922726086,58.344858358303476L135.24888155698775,94.95473002074168L135.4403708413669,-223.1526461245602L135.63186012574604,91.46765506947986L135.8233494101252,-63.33147118203368L136.01483869450433,140.55753300367718L136.20632797888348,89.8638154271553L136.39781726326262,56.22188843126906L136.58930654764174,58.81768263898631L136.97228511640003,68.80061348011421L137.16377440077918,185.4701639978678L137.35526368515832,-81.52164698406011L137.54675296953747,65.3473124762867L137.7382422539166,87.90090655246568L137.92973153829573,78.32066001533263L138.1212208226749,181.5163687891058L138.31271010705402,-90.1547512177621L138.5041993914332,134.52952591540847L138.6956886758123,-23.043182799796014L138.88717796019145,-327.7656854670377L139.0786672445706,130.80614316608188L139.48079474176677,58.123630765060575L139.67228402614595,100.74935089469112L139.86377331052506,-83.14844192724249L140.05526259490424,-377.37918589553857L140.24675187928335,66.83660626567064L140.8212197324208,165.39688743352394L141.01270901679993,77.37836139021655L141.20419830117908,61.00186304050899L141.39568758555822,87.43942812144127L141.58717686993734,174.7948809635834L141.77866615431648,106.01292449760024L142.16164472307477,141.06805230471596L142.35313400745392,95.85378700974431L142.54462329183306,90.17896205275943L142.7361125762122,-87.27411357825251L142.92760186059135,54.251763464395914L143.11909114497047,164.3523608358079L143.31058042934964,-170.65806872064815L143.50206971372876,100.1486029828644L143.88504828248705,109.47999868194242L144.0765375668662,-176.69946457051765L144.4786650640624,141.2970177015255L144.6701543484415,156.60205267105113L144.8616436328207,138.41823625620012L145.0531329171998,119.44690474606003L145.24462220157898,74.44861698030735L145.81909005471638,95.09468047219144L146.0105793390955,159.16658263767187L146.20206862347467,-11.164901962244654L146.3935579078538,50.153407523066896L146.77653647661208,103.64947308143599L147.15951504537037,81.17157658110003L147.54249361412866,118.69989092919828L147.92547218288695,-90.91361612056912L148.1169614672661,-77.36458478288185L148.30845075164524,163.5629620878408L148.49994003602436,157.1062839769985L148.6914293204035,150.06843586044386L149.0935568175997,-235.3083675839622L149.28504610197885,96.71000874834245L149.476535386358,-7.318735811822712L149.66802467073714,-11.110775779169451L149.85951395511628,169.24790275395964L150.0510032394954,22.641732063145625L150.4339818082537,113.63457863527674L150.62547109263284,63.1178475267082L150.81696037701198,114.19785119469829L151.00844966139113,34.92804611929363L151.39142823014942,79.06788251674764L151.58291751452853,185.5118185330368L151.7744067989077,123.24115237631223L151.96589608328682,-501.8422560098191L152.3488746520451,105.05027363684324L152.54036393642423,110.16357239461537L152.7318532208034,-58.778040130445824L152.92334250518252,99.29148060566803L153.1148317895617,-129.62930164308486L153.3063210739408,126.61710829466578L153.49781035831998,153.00030555777698L153.6892996426991,144.09238573423633L153.89993785551616,53.886049276519394L154.28291642427445,74.33709156169012L154.47440570865356,139.9942110189667L154.85738427741185,-60.93047851307902L155.04887356179103,183.94324383436253L155.24036284617014,71.62221535784838L155.4318521305493,72.78008512647446L155.62334141492843,174.33585183021034L155.81483069930758,110.15508222831724L156.00631998368672,61.6823504184733L156.19780926806587,71.32028175948439L156.389298552445,126.35372642166584L156.77227712120327,202.74958823836133L156.96376640558245,124.83797362760899L157.15525568996156,64.72314796090554L157.3467449743407,-274.24016243646736L157.53823425871985,59.66296491363499L157.729723543099,-4.522582466187835L157.92121282747814,91.59258023309543L158.11270211185726,194.94733409494094L158.30419139623643,128.45265369148603L158.49568068061555,-267.8797208548672L158.7063188934326,150.72741774602562L158.89780817781175,152.51280745798124L159.0892974621909,117.0094581806714L159.28078674657004,74.80344662122211L159.4722760309492,-177.4610094223243L159.6637653153283,36.19124667032462L159.85525459970748,47.44389121722448L160.0467438840866,137.44317964792214L160.23823316846577,85.57475475434596L160.42972245284489,-39.1703690087519L160.62121173722403,77.50357212216815L160.81270102160317,-252.3498996712958L161.19567959036146,-168.2838535748951L161.38716887474058,125.29085205835987L161.57865815911975,-44.21616380524555L161.96163672787802,-20.876817469082603L162.15312601225716,103.71091420727258L162.3446152966363,136.1010304353764L162.53610458101545,61.41297161041673L162.7275938653946,164.67238408991963L163.7041892157282,99.33531534524863L163.89567850010735,4.182353187423236L164.0871677844865,136.98424387342814L164.4701463532448,120.66609482314978L164.66163563762393,39.795009237047296L164.85312492200305,66.9192453487587L165.04461420638222,77.19793711883331L165.23610349076134,179.74972499090092L165.61908205951963,105.36358603505828L165.8105713438988,-134.66068622200652L166.00206062827792,1.7736282066006954L166.19354991265703,118.62808147608429L166.3850391970362,28.389190228059952L166.57652848141532,117.87901376388263L166.7680177657945,94.26848734246661L166.9595070501736,118.2889910438438L167.1509963345528,94.82973895674088L167.3424856189319,88.24588408578741L167.53397490331105,-243.74541817158203L167.7254641876902,95.47591420079144L167.91695347206934,-131.50722098761293L168.31908096926554,56.84111041775741L168.51057025364466,6.9619216027733035L168.70205953802383,-484.71035252752955L168.89354882240295,135.2151425400238L169.0850381067821,-17.478027067244184L169.27652739116124,162.32156358092593L169.46801667554038,-82.821422248898L169.65950595991953,172.91362815790205L169.85099524429867,-149.32079805480112L170.80844166619437,-258.053226544896L170.9999309505735,61.60696037776139L171.19142023495266,42.0586874699617L171.38290951933178,1.8107740570796627L171.76588808809007,150.45695158161263L171.95737737246924,167.17908097679552L172.14886665684836,108.71563109696808L172.34035594122753,-206.5601592622361L172.53184522560665,169.49738513737321L172.72333450998576,100.82983723186142L172.91482379436493,118.15459819154907L173.125462007182,69.14253762891992L173.50844057594028,156.47489238603626L173.6999298603194,-103.44257539516225L173.89141914469857,38.82001303745578L174.0829084290777,162.4101831239743L174.27439771345684,-48.51372562775055L174.46588699783598,173.52118028450457L174.6573762822151,56.81112574247427L174.84886556659427,135.88698049242566L175.0403548509734,-39.463406055108806L175.23184413535256,62.038772652031305L175.61482270411082,59.50306861225328L175.80631198848997,104.00988228830087L175.9978012728691,84.54960836158857L176.3807798416274,119.44935404371137L176.57226912600655,120.79620415040405L176.7637584103857,99.40803642035841L176.9552476947648,112.93606750194992L177.14673697914395,-356.2926442287258L177.3382262635231,99.11446118752207L177.52971554790224,31.079968857699775L177.7212048322814,95.75494741528533L177.93184304509845,79.14122964551719L178.1233323294776,-33.287683253329845L178.31482161385674,123.08416667527854L178.50631089823585,177.10821513677442L178.69780018261503,120.9622401710104L178.88928946699414,93.37186866771778L179.27226803575243,175.18521992874375L179.46375732013158,-5.16827444074665L179.65524660451072,160.54726160878656L179.84673588888984,7.601682542660727L180.038225173269,160.60305177658904L180.22971445764813,17.711812110694886L180.61269302640642,74.78785019671587L180.80418231078556,109.8816615299661L181.18716087954385,123.24265710177517L181.378650163923,89.05453672964147L181.7616287326813,-232.8696139942663L182.14460730143955,-627.683698581731L182.7382240830149,67.40516183930875L182.92971336739404,126.3397116064053L183.50418122053145,29.386680425812603L183.6956705049106,-190.80829771400397L183.88715978928974,123.67294268378707L184.07864907366888,123.27956131750827L184.27013835804803,96.31640771411284L184.65311692680632,109.88860303721114L184.84460621118546,-103.30901728108057L185.03609549556458,134.96807650406893L185.61056334870204,-11.04428229046463L185.80205263308116,25.698060129698874L186.18503120183945,74.14309181094791L186.37652048621857,117.3830145143912L186.56800977059774,-140.8372217952034L186.75949905497686,147.1841901748425L186.95098833935603,165.61255193591305L187.14247762373515,136.71921449079727L187.3339669081143,173.0288275229963L187.7360944053105,12.220091374092922L187.9275836896896,-219.63637730263807L188.11907297406879,96.4860792393048L188.50205154282708,162.19627047349277L188.6935408272062,133.0397708233279L188.88503011158537,81.19600365722813L189.07651939596448,131.07489592047867L189.26800868034363,64.30008945447469L189.45949796472277,95.03208608961319L189.65098724910192,134.39491339516297L189.84247653348106,4.163066341343681L190.0339658178602,-113.15642397996716L190.22545510223932,95.82875584675153L190.41694438661847,136.3203688842425L190.79992295537676,-112.3799636743017L190.9914122397559,173.35432050908275L191.3743908085142,-443.3554444434249L191.75736937727248,50.479219027682L191.9488586616516,18.17104992862123L192.54247544322695,55.04866387288259L192.7339647276061,53.73630163446431L193.11694329636435,114.03871274774683L193.30843258074353,6.874098356046538L193.49992186512264,86.90073640571337L193.69141114950182,11.083683164259234L193.88290043388093,173.5123111909913L194.26587900263922,156.4685714407522L194.45736828701837,54.78863193613225L194.84034685577663,24.709488450748395L195.0318361401558,112.01572468851552L195.4148147089141,71.79876248990013L195.6063039932932,157.9350801719402L195.79779327767235,113.02202357109493L195.9892825620515,28.963731753357155L196.18077184643064,128.8896061958045L196.3722611308098,26.229700504206328L196.56375041518893,82.46052221596386L196.75523969956805,172.01162212666003L196.94672898394722,154.9194346098737L197.3488564811434,-177.53771747074097L197.7318350499017,-306.8773721590199L197.92332433428084,74.88547063404795L198.11481361865998,27.271168225707598L198.30630290303912,-190.27538326538186L198.49779218741827,14.365039079604104L198.6892814717974,86.94234151559343L198.88077075617656,-438.10885117311204L199.45523860931397,-4.644454245287376L199.83821717807226,90.44986755307401L200.02970646245137,120.81971960453636L200.22119574683055,81.27776406851301L200.41268503120966,86.59115836266182L200.60417431558884,116.0553963367904L200.79566359996795,-53.76418505399738L200.9871528843471,135.28502440686958L201.17864216872624,177.82416790539415L201.3701314531054,77.8508561689732L201.56162073748453,77.37843827399932L201.75311002186365,138.17080776812648L201.9637482346807,87.86600131508479L202.346726803439,155.42589005382283L202.7297053721973,105.17089330862329L202.92119465657643,129.99250405974482L203.11268394095558,-237.70244071246688L203.30417322533472,120.32168842650012L203.68715179409298,-69.84032043118913L203.87864107847213,-17.808978801907827L204.07013036285127,113.88484633161437L204.26161964723042,51.91986734936298L204.45310893160956,118.12281223906943L204.6445982159887,107.61657742216663L204.83608750036785,185.00540153097901L205.9850232066427,-520.5411827858806L206.1765124910218,71.08785110075108L206.77012927259716,137.16944043104235L206.96161855697633,169.274614376776L207.15310784135545,9.625219771769013L207.34459712573462,23.044998487210073L207.53608641011374,106.79450306651916L207.7275756944929,145.27201361338837L207.91906497887203,98.16199193628431L208.11055426325115,-57.555082747999975L208.30204354763032,92.60702879664923L208.87651140076773,115.32050819081238L209.06800068514687,101.92783650049907L209.25948996952602,163.58746604775166L209.45097925390516,168.96763390724254L209.6424685382843,118.38397546576637L210.0254471070426,11.980279872212995L210.21693639142174,82.63705836461807L210.40842567580086,-120.62511234010945L210.59991496018,-550.9687086578234L210.79140424455915,147.61581573135427L211.17438281331744,10.564541896151857L211.36587209769658,65.452753092667L211.57651031051364,107.98556466250996L211.76799959489279,134.71450829677065L211.9594888792719,103.73899875478138L212.15097816365108,95.63782046392288L212.3424674480302,50.55883767644665L212.53395673240934,-399.3661025590587L212.72544601678848,-251.03074969319806L212.91693530116763,140.90648652690822L213.2999138699259,6.548506519382234L213.68289243868418,28.04571742020115L214.06587100744247,-263.74306580631753L214.25736029182164,140.16959391087923L214.44884957620076,104.25208817084443L214.64033886057987,134.82291443048663L214.83182814495905,75.87919352644451L215.40629599809645,18.135397820207643L215.78927456685474,57.61959166857016L215.9807638512339,116.08261319589356L216.3828913484301,-221.14857147589206L216.5743806328092,62.34641761711589L216.76586991718838,36.80598743061679L216.9573592015675,-231.40368189144917L217.14884848594667,140.4867559899319L217.53182705470493,154.84054086534667L218.2977841922215,45.82076472882036L218.48927347660063,20.112958547215094L218.6807627609798,58.36714367191134L218.87225204535892,156.74381538309493L219.0637413297381,111.77529811637338L219.82969846725462,130.85996181402598L220.0211877516338,79.30522275418116L220.2126770360129,133.25809330792154L220.40416632039208,141.6196495125529L220.78714488915037,139.14561175826105L220.97863417352949,-1.9912608020281377L221.76374023948395,-40.77939281471516L221.95522952386312,116.18065100233214L222.33820809262141,94.65738748254925L222.72118666137968,144.11483030710852L222.91267594575882,150.94296143104177L223.10416523013797,-273.91074837745924L223.48714379889623,174.56695349784135L223.6786330832754,179.5704457387112L223.87012236765452,-69.33176715830993L224.06161165203366,16.88972677164988L224.2531009364128,143.8075697609378L224.44459022079195,87.67370399096123L224.6360795051711,142.20643752610675L224.82756878955024,175.4267558240374L225.01905807392936,118.75199616712621L225.21054735830853,160.78078511557507L225.40203664268765,154.70839960954754L225.59352592706682,152.36376275336866L225.78501521144594,-182.7703837929736L226.18714270864214,111.18122811025074L226.3786319930213,-41.46396601656421L226.57012127740043,192.3703489555103L226.9530998461587,61.18346253542895L227.14458913053787,76.8314211429364L227.33607841491698,151.82859670825098L227.52756769929616,-169.6363491479231L227.9105462680544,74.84498583071694L228.10203555243356,55.5815893049022L228.29352483681268,-42.341934882290786L228.48501412119185,-89.84490957316962L229.05948197432926,76.29540937620817L229.2509712587084,-432.9963432199628L229.44246054308755,99.48765506912306L229.6339498274667,-28.75975565082897L230.39990696498327,134.0025974184455L230.80203446217945,144.4823183136877L230.9935237465586,151.2373164851034L231.18501303093774,80.07373108002793L231.37650231531688,10.625060416595135L231.56799159969603,98.58715925504275L231.75948088407517,51.576767977020516L231.95097016845432,98.1522606460642L232.14245945283344,-101.90011097828905L232.33394873721258,57.15600442521814L232.52543802159173,-42.25176118849053L232.71692730597087,-44.99600699735322L232.90841659035001,65.67134467050039L233.09990587472916,113.69426241750699L233.2913951591083,177.54389905867703L233.48288444348742,131.54958737874324L233.8658630122457,158.39058363470306L234.05735229662488,-521.2846269985419L234.248841581004,27.247905389718696L234.44033086538317,158.661933962618L234.6318201497623,-139.04003042259149L234.8233094341414,92.38924999023378L235.01479871852058,-13.12851377437682L235.60841550009593,110.7771049811782L235.79990478447505,110.46649449875791L236.18288335323334,101.66535526609738L236.37437263761248,2.723955695318232L236.56586192199163,144.6062549715247L236.75735120637074,-66.26188557919278L236.94884049074992,101.9295389271177L237.14032977512903,47.18463910169944L237.33181905950818,109.80639230662713L237.52330834388732,137.2148457964711L237.71479762826647,99.83116082717449L237.9062869126456,139.71429364097088L238.2892654814039,172.01582327621892L238.48075476578305,163.46104165037193L238.86373333454134,16.511151025254478L239.05522261892045,4.416167754246534L239.43820118767874,74.94265020163918L239.6296904720579,-435.489266926324L240.01266904081615,-31.59993045380262L240.20415832519532,141.06547120629415L240.41479653801238,176.1252120403765L240.6062858223915,-373.265859583363L240.79777510677067,124.7638137274215L240.9892643911498,0.8677615111235087L241.37224295990808,66.51841723894802L241.5637322442872,41.45225015820946L241.75522152866637,66.86985301002305L242.13820009742466,158.4876329353631L242.32968938180377,62.10690266696953L242.52117866618295,164.69193453754013L242.71266795056206,-17.599898846343763L243.09564651932035,-45.6785153204648L243.2871358036995,140.28316773313762L243.47862508807864,151.82076005410647L243.67011437245776,59.26308137601273L243.86160365683693,108.82006124077473L244.62756079435349,-143.7299411720066L244.81905007873263,109.27748679810702L245.01053936311177,127.02954585567582L245.41266686030798,-45.49043562099645L245.6041561446871,-53.51301671906147L245.79564542906624,98.56244661057862L245.98713471344539,117.16659764927066L246.17862399782453,18.908035903529303L246.37011328220368,-127.81914986137619L246.56160256658282,70.63199616926696L246.9445811353411,133.83069077185425L247.13607041972023,80.41809354308744L247.3275597040994,115.4599204557827L247.7105382728577,69.39826407383475L247.9020275572368,85.56124517537224L248.09351684161592,-35.23240362169386L248.2850061259951,91.54744945260515L248.6679846947534,90.87461750272595L248.8594739791325,127.63257831419078L249.05096326351168,7.927362246505355L249.2424525478908,134.22435770646908L249.43394183226994,144.05856236151308L249.62543111664908,24.04433389574938L250.21904789822443,161.45636840653793L250.41053718260355,117.9036275577689L250.98500503574098,169.59306151334076L251.17649432012013,149.49706304533683L251.36798360449927,104.64390989467262L251.75096217325756,46.3027381796537L251.9424514576367,98.04005425679951L252.13394074201585,80.88579956051682L252.5169193107741,42.34183945853294L252.70840859515326,56.25822151033011L252.8998978795324,127.36932824196131L253.2828764482907,46.82628379017447L253.47436573266984,111.29068865013053L253.66585501704895,56.174176552356975L253.85734430142813,39.8071568747261L254.04883358580724,110.04106357845852L254.24032287018642,57.226364069856906L254.43181215456553,-106.98856529082659L254.83393965176174,51.43564230203402L255.40840750489917,123.32941495894057L255.5998967892783,67.1401434400754L256.1743646424157,17.57904480123604L256.3658539267949,-7.785178738535031L256.557343211174,172.34287041305726L256.7488324955532,113.0843982857224L256.9403217799323,127.99249326816638L257.32330034869057,162.9160454644563L257.5147896330697,57.26799114653203L257.70627891744886,104.5644120632809L257.897768201828,-281.31325078402784L258.08925748620715,167.03538518678477L258.2807467705863,107.56725098381622L258.47223605496544,152.98781743477446L258.6637253393446,59.27984204065818L258.8552146237237,-45.86991200599013L259.04670390810287,70.87963883359262L259.238193192482,43.87570387513262L259.42968247686116,14.607925932795117" fill="none"></path></g></g></g></g></g></g><g transform="translate(61, 176)" clip-path="url(#clip_1)"><clipPath id="clip_1"><rect width="268" height="23"></rect></clipPath><g><g><line x1="0" y1="0" x2="0" y2="5" style="visibility: inherit;" fill="rgb(0, 0, 0)" stroke="rgb(204, 204, 204)" stroke-width="1px"></line><line x1="19.148928437914165" y1="0" x2="19.148928437914165" y2="5" style="visibility: inherit;" fill="rgb(0, 0, 0)" stroke="rgb(204, 204, 204)" stroke-width="1px"></line><line x1="38.29785687582833" y1="0" x2="38.29785687582833" y2="5" style="visibility: inherit;" fill="rgb(0, 0, 0)" stroke="rgb(204, 204, 204)" stroke-width="1px"></line><line x1="57.446785313742495" y1="0" x2="57.446785313742495" y2="5" style="visibility: inherit;" fill="rgb(0, 0, 0)" stroke="rgb(204, 204, 204)" stroke-width="1px"></line><line x1="76.59571375165666" y1="0" x2="76.59571375165666" y2="5" style="visibility: inherit;" fill="rgb(0, 0, 0)" stroke="rgb(204, 204, 204)" stroke-width="1px"></line><line x1="95.74464218957084" y1="0" x2="95.74464218957084" y2="5" style="visibility: inherit;" fill="rgb(0, 0, 0)" stroke="rgb(204, 204, 204)" stroke-width="1px"></line><line x1="114.89357062748499" y1="0" x2="114.89357062748499" y2="5" style="visibility: inherit;" fill="rgb(0, 0, 0)" stroke="rgb(204, 204, 204)" stroke-width="1px"></line><line x1="134.04249906539917" y1="0" x2="134.04249906539917" y2="5" style="visibility: inherit;" fill="rgb(0, 0, 0)" stroke="rgb(204, 204, 204)" stroke-width="1px"></line><line x1="153.19142750331332" y1="0" x2="153.19142750331332" y2="5" style="visibility: inherit;" fill="rgb(0, 0, 0)" stroke="rgb(204, 204, 204)" stroke-width="1px"></line><line x1="172.34035594122753" y1="0" x2="172.34035594122753" y2="5" style="visibility: inherit;" fill="rgb(0, 0, 0)" stroke="rgb(204, 204, 204)" stroke-width="1px"></line><line x1="191.48928437914168" y1="0" x2="191.48928437914168" y2="5" style="visibility: inherit;" fill="rgb(0, 0, 0)" stroke="rgb(204, 204, 204)" stroke-width="1px"></line><line x1="210.63821281705583" y1="0" x2="210.63821281705583" y2="5" style="visibility: inherit;" fill="rgb(0, 0, 0)" stroke="rgb(204, 204, 204)" stroke-width="1px"></line><line x1="229.78714125496998" y1="0" x2="229.78714125496998" y2="5" style="visibility: inherit;" fill="rgb(0, 0, 0)" stroke="rgb(204, 204, 204)" stroke-width="1px"></line><line x1="248.9360696928842" y1="0" x2="248.9360696928842" y2="5" style="visibility: inherit;" fill="rgb(0, 0, 0)" stroke="rgb(204, 204, 204)" stroke-width="1px"></line><line x1="268.08499813079834" y1="0" x2="268.08499813079834" y2="5" style="visibility: inherit;" fill="rgb(0, 0, 0)" stroke="rgb(204, 204, 204)" stroke-width="1px"></line></g><g transform="translate(0, 8)"><text style="text-anchor: middle; visibility: hidden; font-family: Roboto, sans-serif; font-size: 12px; font-weight: 200;" x="0" y="0" dx="0em" dy="0.95em" fill="rgb(255, 255, 255)" stroke="none" stroke-width="1px">-1k</text><text style="text-anchor: middle; visibility: inherit; font-family: Roboto, sans-serif; font-size: 12px; font-weight: 200;" x="19.148928437914165" y="0" dx="0em" dy="0.95em" fill="rgb(255, 255, 255)" stroke="none" stroke-width="1px">0</text><text style="text-anchor: middle; visibility: hidden; font-family: Roboto, sans-serif; font-size: 12px; font-weight: 200;" x="38.29785687582833" y="0" dx="0em" dy="0.95em" fill="rgb(255, 255, 255)" stroke="none" stroke-width="1px">1k</text><text style="text-anchor: middle; visibility: inherit; font-family: Roboto, sans-serif; font-size: 12px; font-weight: 200;" x="57.446785313742495" y="0" dx="0em" dy="0.95em" fill="rgb(255, 255, 255)" stroke="none" stroke-width="1px">2k</text><text style="text-anchor: middle; visibility: hidden; font-family: Roboto, sans-serif; font-size: 12px; font-weight: 200;" x="76.59571375165666" y="0" dx="0em" dy="0.95em" fill="rgb(255, 255, 255)" stroke="none" stroke-width="1px">3k</text><text style="text-anchor: middle; visibility: inherit; font-family: Roboto, sans-serif; font-size: 12px; font-weight: 200;" x="95.74464218957084" y="0" dx="0em" dy="0.95em" fill="rgb(255, 255, 255)" stroke="none" stroke-width="1px">4k</text><text style="text-anchor: middle; visibility: hidden; font-family: Roboto, sans-serif; font-size: 12px; font-weight: 200;" x="114.89357062748499" y="0" dx="0em" dy="0.95em" fill="rgb(255, 255, 255)" stroke="none" stroke-width="1px">5k</text><text style="text-anchor: middle; visibility: inherit; font-family: Roboto, sans-serif; font-size: 12px; font-weight: 200;" x="134.04249906539917" y="0" dx="0em" dy="0.95em" fill="rgb(255, 255, 255)" stroke="none" stroke-width="1px">6k</text><text style="text-anchor: middle; visibility: hidden; font-family: Roboto, sans-serif; font-size: 12px; font-weight: 200;" x="153.19142750331332" y="0" dx="0em" dy="0.95em" fill="rgb(255, 255, 255)" stroke="none" stroke-width="1px">7k</text><text style="text-anchor: middle; visibility: inherit; font-family: Roboto, sans-serif; font-size: 12px; font-weight: 200;" x="172.34035594122753" y="0" dx="0em" dy="0.95em" fill="rgb(255, 255, 255)" stroke="none" stroke-width="1px">8k</text><text style="text-anchor: middle; visibility: hidden; font-family: Roboto, sans-serif; font-size: 12px; font-weight: 200;" x="191.48928437914168" y="0" dx="0em" dy="0.95em" fill="rgb(255, 255, 255)" stroke="none" stroke-width="1px">9k</text><text style="text-anchor: middle; visibility: inherit; font-family: Roboto, sans-serif; font-size: 12px; font-weight: 200;" x="210.63821281705583" y="0" dx="0em" dy="0.95em" fill="rgb(255, 255, 255)" stroke="none" stroke-width="1px">10k</text><text style="text-anchor: middle; visibility: hidden; font-family: Roboto, sans-serif; font-size: 12px; font-weight: 200;" x="229.78714125496998" y="0" dx="0em" dy="0.95em" fill="rgb(255, 255, 255)" stroke="none" stroke-width="1px">11k</text><text style="text-anchor: middle; visibility: inherit; font-family: Roboto, sans-serif; font-size: 12px; font-weight: 200;" x="248.9360696928842" y="0" dx="0em" dy="0.95em" fill="rgb(255, 255, 255)" stroke="none" stroke-width="1px">12k</text><text style="text-anchor: middle; visibility: hidden; font-family: Roboto, sans-serif; font-size: 12px; font-weight: 200;" x="268.08499813079834" y="0" dx="0em" dy="0.95em" fill="rgb(255, 255, 255)" stroke="none" stroke-width="1px">13k</text></g><line x1="0" y1="0" x2="268.08499813079834" y2="0" fill="rgb(0, 0, 0)" stroke="rgb(204, 204, 204)" stroke-width="1px"></line></g></g></g></g></svg>