<svg viewBox="0 0 330 200" xmlns="http://www.w3.org/2000/svg"><g><g><g><g><g><line x1="72.29800224304199" y1="176.89999961853027" x2="67.29800224304199" y2="176.89999961853027" style="visibility: inherit;" fill="rgb(0, 0, 0)" stroke="rgb(204, 204, 204)" stroke-width="1px"></line><line x1="72.29800224304199" y1="159.20999965667724" x2="67.29800224304199" y2="159.20999965667724" style="visibility: inherit;" fill="rgb(0, 0, 0)" stroke="rgb(204, 204, 204)" stroke-width="1px"></line><line x1="72.29800224304199" y1="141.51999969482424" x2="67.29800224304199" y2="141.51999969482424" style="visibility: inherit;" fill="rgb(0, 0, 0)" stroke="rgb(204, 204, 204)" stroke-width="1px"></line><line x1="72.29800224304199" y1="123.82999973297119" x2="67.29800224304199" y2="123.82999973297119" style="visibility: inherit;" fill="rgb(0, 0, 0)" stroke="rgb(204, 204, 204)" stroke-width="1px"></line><line x1="72.29800224304199" y1="106.13999977111818" x2="67.29800224304199" y2="106.13999977111818" style="visibility: inherit;" fill="rgb(0, 0, 0)" stroke="rgb(204, 204, 204)" stroke-width="1px"></line><line x1="72.29800224304199" y1="88.44999980926514" x2="67.29800224304199" y2="88.44999980926514" style="visibility: inherit;" fill="rgb(0, 0, 0)" stroke="rgb(204, 204, 204)" stroke-width="1px"></line><line x1="72.29800224304199" y1="70.75999984741209" x2="67.29800224304199" y2="70.75999984741209" style="visibility: inherit;" fill="rgb(0, 0, 0)" stroke="rgb(204, 204, 204)" stroke-width="1px"></line><line x1="72.29800224304199" y1="53.06999988555909" x2="67.29800224304199" y2="53.06999988555909" style="visibility: inherit;" fill="rgb(0, 0, 0)" stroke="rgb(204, 204, 204)" stroke-width="1px"></line><line x1="72.29800224304199" y1="35.379999923706045" x2="67.29800224304199" y2="35.379999923706045" style="visibility: inherit;" fill="rgb(0, 0, 0)" stroke="rgb(204, 204, 204)" stroke-width="1px"></line><line x1="72.29800224304199" y1="17.689999961853022" x2="67.29800224304199" y2="17.689999961853022" style="visibility: inherit;" fill="rgb(0, 0, 0)" stroke="rgb(204, 204, 204)" stroke-width="1px"></line><line x1="72.29800224304199" y1="0" x2="67.29800224304199" y2="0" style="visibility: inherit;" fill="rgb(0, 0, 0)" stroke="rgb(204, 204, 204)" stroke-width="1px"></line></g><g transform="translate(62.29800224304199, 0)"><text style="text-anchor: end; visibility: hidden; font-family: Roboto, sans-serif; font-size: 12px; font-weight: 200;" x="0" y="176.89999961853027" dx="0em" dy="0.3em" fill="rgb(255, 255, 255)" stroke="none" stroke-width="1px">-2e-4</text><text style="text-anchor: end; visibility: inherit; font-family: Roboto, sans-serif; font-size: 12px; font-weight: 200;" x="0" y="159.20999965667724" dx="0em" dy="0.3em" fill="rgb(255, 255, 255)" stroke="none" stroke-width="1px">0</text><text style="text-anchor: end; visibility: hidden; font-family: Roboto, sans-serif; font-size: 12px; font-weight: 200;" x="0" y="141.51999969482424" dx="0em" dy="0.3em" fill="rgb(255, 255, 255)" stroke="none" stroke-width="1px">2e-4</text><text style="text-anchor: end; visibility: inherit; font-family: Roboto, sans-serif; font-size: 12px; font-weight: 200;" x="0" y="123.82999973297119" dx="0em" dy="0.3em" fill="rgb(255, 255, 255)" stroke="none" stroke-width="1px">4e-4</text><text style="text-anchor: end; visibility: hidden; font-family: Roboto, sans-serif; font-size: 12px; font-weight: 200;" x="0" y="106.13999977111818" dx="0em" dy="0.3em" fill="rgb(255, 255, 255)" stroke="none" stroke-width="1px">6e-4</text><text style="text-anchor: end; visibility: inherit; font-family: Roboto, sans-serif; font-size: 12px; font-weight: 200;" x="0" y="88.44999980926514" dx="0em" dy="0.3em" fill="rgb(255, 255, 255)" stroke="none" stroke-width="1px">8e-4</text><text style="text-anchor: end; visibility: hidden; font-family: Roboto, sans-serif; font-size: 12px; font-weight: 200;" x="0" y="70.75999984741209" dx="0em" dy="0.3em" fill="rgb(255, 255, 255)" stroke="none" stroke-width="1px">1e-3</text><text style="text-anchor: end; visibility: inherit; font-family: Roboto, sans-serif; font-size: 12px; font-weight: 200;" x="0" y="53.06999988555909" dx="0em" dy="0.3em" fill="rgb(255, 255, 255)" stroke="none" stroke-width="1px">1.2e-3</text><text style="text-anchor: end; visibility: hidden; font-family: Roboto, sans-serif; font-size: 12px; font-weight: 200;" x="0" y="35.379999923706045" dx="0em" dy="0.3em" fill="rgb(255, 255, 255)" stroke="none" stroke-width="1px">1.4e-3</text><text style="text-anchor: end; visibility: inherit; font-family: Roboto, sans-serif; font-size: 12px; font-weight: 200;" x="0" y="17.689999961853022" dx="0em" dy="0.3em" fill="rgb(255, 255, 255)" stroke="none" stroke-width="1px">1.6e-3</text><text style="text-anchor: end; visibility: hidden; font-family: Roboto, sans-serif; font-size: 12px; font-weight: 200;" x="0" y="0" dx="0em" dy="0.3em" fill="rgb(255, 255, 255)" stroke="none" stroke-width="1px">1.8e-3</text></g><line x1="72.29800224304199" y1="0" x2="72.29800224304199" y2="176.89999961853027" fill="rgb(0, 0, 0)" stroke="rgb(204, 204, 204)" stroke-width="1px"></line></g></g><g transform="translate(72, 0)" clip-path="url(#clip_0)"><clipPath id="clip_0"><rect width="257" height="176"></rect></clipPath><g><g><g><line x1="0" y1="0" x2="0" y2="176.89999961853027" fill="rgb(0, 0, 0)" stroke="rgb(189, 189, 189)" stroke-width="1px" opacity="0.25"></line><line x1="18.407285554068427" y1="0" x2="18.407285554068427" y2="176.89999961853027" fill="rgb(0, 0, 0)" stroke="rgb(189, 189, 189)" stroke-width="1px" opacity="0.25"></line><line x1="36.81457110813685" y1="0" x2="36.81457110813685" y2="176.89999961853027" fill="rgb(0, 0, 0)" stroke="rgb(189, 189, 189)" stroke-width="1px" opacity="0.25"></line><line x1="55.22185666220528" y1="0" x2="55.22185666220528" y2="176.89999961853027" fill="rgb(0, 0, 0)" stroke="rgb(189, 189, 189)" stroke-width="1px" opacity="0.25"></line><line x1="73.6291422162737" y1="0" x2="73.6291422162737" y2="176.89999961853027" fill="rgb(0, 0, 0)" stroke="rgb(189, 189, 189)" stroke-width="1px" opacity="0.25"></line><line x1="92.03642777034214" y1="0" x2="92.03642777034214" y2="176.89999961853027" fill="rgb(0, 0, 0)" stroke="rgb(189, 189, 189)" stroke-width="1px" opacity="0.25"></line><line x1="110.44371332441057" y1="0" x2="110.44371332441057" y2="176.89999961853027" fill="rgb(0, 0, 0)" stroke="rgb(189, 189, 189)" stroke-width="1px" opacity="0.25"></line><line x1="128.850998878479" y1="0" x2="128.850998878479" y2="176.89999961853027" fill="rgb(0, 0, 0)" stroke="rgb(189, 189, 189)" stroke-width="1px" opacity="0.25"></line><line x1="147.2582844325474" y1="0" x2="147.2582844325474" y2="176.89999961853027" fill="rgb(0, 0, 0)" stroke="rgb(189, 189, 189)" stroke-width="1px" opacity="0.25"></line><line x1="165.66556998661588" y1="0" x2="165.66556998661588" y2="176.89999961853027" fill="rgb(0, 0, 0)" stroke="rgb(189, 189, 189)" stroke-width="1px" opacity="0.25"></line><line x1="184.0728555406843" y1="0" x2="184.0728555406843" y2="176.89999961853027" fill="rgb(0, 0, 0)" stroke="rgb(189, 189, 189)" stroke-width="1px" opacity="0.25"></line><line x1="202.48014109475272" y1="0" x2="202.48014109475272" y2="176.89999961853027" fill="rgb(0, 0, 0)" stroke="rgb(189, 189, 189)" stroke-width="1px" opacity="0.25"></line><line x1="220.88742664882113" y1="0" x2="220.88742664882113" y2="176.89999961853027" fill="rgb(0, 0, 0)" stroke="rgb(189, 189, 189)" stroke-width="1px" opacity="0.25"></line><line x1="239.2947122028896" y1="0" x2="239.2947122028896" y2="176.89999961853027" fill="rgb(0, 0, 0)" stroke="rgb(189, 189, 189)" stroke-width="1px" opacity="0.25"></line><line x1="257.701997756958" y1="0" x2="257.701997756958" y2="176.89999961853027" fill="rgb(0, 0, 0)" stroke="rgb(189, 189, 189)" stroke-width="1px" opacity="0.25"></line></g><g><line x1="0" y1="176.89999961853027" x2="257.701997756958" y2="176.89999961853027" fill="rgb(0, 0, 0)" stroke="rgb(189, 189, 189)" stroke-width="1px" opacity="0.25"></line><line x1="0" y1="159.20999965667724" x2="257.701997756958" y2="159.20999965667724" fill="rgb(0, 0, 0)" stroke="rgb(189, 189, 189)" stroke-width="1px" opacity="0.25"></line><line x1="0" y1="141.51999969482424" x2="257.701997756958" y2="141.51999969482424" fill="rgb(0, 0, 0)" stroke="rgb(189, 189, 189)" stroke-width="1px" opacity="0.25"></line><line x1="0" y1="123.82999973297119" x2="257.701997756958" y2="123.82999973297119" fill="rgb(0, 0, 0)" stroke="rgb(189, 189, 189)" stroke-width="1px" opacity="0.25"></line><line x1="0" y1="106.13999977111818" x2="257.701997756958" y2="106.13999977111818" fill="rgb(0, 0, 0)" stroke="rgb(189, 189, 189)" stroke-width="1px" opacity="0.25"></line><line x1="0" y1="88.44999980926514" x2="257.701997756958" y2="88.44999980926514" fill="rgb(0, 0, 0)" stroke="rgb(189, 189, 189)" stroke-width="1px" opacity="0.25"></line><line x1="0" y1="70.75999984741209" x2="257.701997756958" y2="70.75999984741209" fill="rgb(0, 0, 0)" stroke="rgb(189, 189, 189)" stroke-width="1px" opacity="0.25"></line><line x1="0" y1="53.06999988555909" x2="257.701997756958" y2="53.06999988555909" fill="rgb(0, 0, 0)" stroke="rgb(189, 189, 189)" stroke-width="1px" opacity="0.25"></line><line x1="0" y1="35.379999923706045" x2="257.701997756958" y2="35.379999923706045" fill="rgb(0, 0, 0)" stroke="rgb(189, 189, 189)" stroke-width="1px" opacity="0.25"></line><line x1="0" y1="17.689999961853022" x2="257.701997756958" y2="17.689999961853022" fill="rgb(0, 0, 0)" stroke="rgb(189, 189, 189)" stroke-width="1px" opacity="0.25"></line><line x1="0" y1="0" x2="257.701997756958" y2="0" fill="rgb(0, 0, 0)" stroke="rgb(189, 189, 189)" stroke-width="1px" opacity="0.25"></line></g></g></g><g><g><line x1="0" y1="159.20999965667724" x2="257.701997756958" y2="159.20999965667724" fill="rgb(0, 0, 0)" stroke="rgb(153, 153, 153)" stroke-width="1.5px"></line></g></g><g><g><line x1="18.407285554068427" y1="0" x2="18.407285554068427" y2="176.89999961853027" fill="rgb(0, 0, 0)" stroke="rgb(153, 153, 153)" stroke-width="1.5px"></line></g></g><g><g><g><g><g><path style="fill: none;" stroke="rgb(51, 187, 238)" stroke-width="2px" d="M18.572951124055045,159.20126368444437L18.941096835136413,159.01000238905826L19.125169690677097,158.83979234035795L19.30924254621778,158.7094302919251L19.861461112839834,158.07733185637034L20.229606823921205,156.3321327253268L20.413679679461886,154.72726049692164L20.597752535002574,152.45482141744267L21.149971101624626,148.18360071554724L21.33404395716531,142.2045742170164L21.518116812705994,137.51611767848925L21.702189668246678,130.4975920910358L21.886262523787362,124.99658196674469L22.070335379328046,119.02701737760287L22.25440823486873,115.12337740165414L22.6225539459501,109.84006921822277L22.806626801490783,106.69457703132007L23.19317979812622,102.7990663967446L23.377252653666908,97.67568352071616L23.561325509207588,95.42443085273939L23.745398364748272,93.19214690177532L23.92947122028896,88.47655828341682L24.11354407582964,86.53593683135475L24.297616931370328,84.79859770544874L24.481689786911012,83.6092902037454L24.665762642451693,80.75185669533873L24.84983549799238,78.98450313023672L25.217981209073745,76.88044013867209L25.402054064614433,74.65761362250254L25.586126920155117,74.1380303593039L25.7701997756958,73.29957836456654L25.954272631236485,73.33583706341793L26.322418342317853,72.53080307746507L26.506491197858537,71.91029428717322L27.05870976448059,71.31990222099974L27.242782620021277,71.22412029585239L27.426855475561958,70.96906463314684L27.61092833110264,70.14023661859059L27.813408472197395,69.34015203834637L27.99748132773808,69.1923737996998L28.181554183278767,69.35629867372579L28.36562703881945,69.6736288101141L28.54969989436013,68.9488460759372L28.73377274990082,67.74153106293666L29.101918460982187,66.87458581409884L29.28599131652287,66.55175219583184L29.65413702760424,65.52159370601103L29.838209883144923,63.82152622740981L30.02228273868561,62.39168436861647L30.20635559422629,61.68711027212918L30.574501305307663,60.765450951709774L30.758574160848344,60.38186019682325L30.942647016389028,59.95664482042594L31.126719871929716,59.10388967339282L31.494865583011084,58.924498029880745L31.678938438551768,58.756566400438466L31.86301129409245,58.046143874223425L32.047084149633136,57.7653504010801L32.43363714626857,56.99195950553833L32.80178285734994,56.23429249682846L32.985855712890626,55.84655989265044L33.16992856843131,55.19809886100227L33.354001423971994,55.076571377184365L33.53807427951268,55.07292088704586L33.72214713505336,54.24834513185846L33.906219990594046,54.02488263196953L34.09029284613473,53.42119654282354L34.274365701675414,52.52802663781485L34.4584385572161,52.01244849600597L34.64251141275678,51.19303840578269L34.82658426829747,50.96328756410797L35.01065712383816,50.10462931889352L35.194729979378835,50.2719419456006L35.56287569046021,50.263329910892864L35.93102140154157,49.86677368988826L36.11509425708226,49.614207286178505L36.29916711262294,49.39961055055583L36.85138567924499,49.057943301075184L37.05386582033975,48.741502898943395L37.23793867588043,48.17049506049229L37.606084386961804,48.194099664457404L37.79015724250248,47.520906208003794L38.158302953583856,47.133791029505325L38.34237580912454,46.950034146765134L38.52644866466522,46.124899616117574L38.71052152020591,46.10993538842491L38.89459437574659,45.80562796869418L39.07866723128727,45.76517878613832L39.26274008682796,45.47502362958446L39.63088579790932,45.29709720160977L39.81495865345001,45.12790102828494L39.9990315089907,44.92351175177113L40.183104364531374,44.63510939867453L40.367177220072065,44.205017645474996L40.55125007561275,43.69973904407644L40.73532293115344,43.40633176272037L40.91939578669412,43.03035172147557L41.1034686422348,42.614145180693015L41.28754149777549,42.48596395311945L41.67409449441093,42.46611550753867L41.85816734995161,42.72262226426797L42.04224020549229,42.608639257179085L42.22631306103298,42.35526219672743L42.41038591657366,42.00971410934955L42.59445877211434,41.41187173681359L42.778531627655035,40.90625572247792L42.96260448319571,40.56825555629747L43.33075019427709,40.36297460508506L43.69889590535845,40.25738776218786L43.88296876089914,39.834611752397024L44.06704161643982,39.67370056286532L44.2511144719805,39.484714443199415L44.43518732752119,39.115128342153426L44.619260183061876,39.14569014583525L44.987405894143244,39.061222760760394L45.17147874968393,38.70945037586565L45.355551605224605,38.53693987855752L45.539624460765296,38.37777148388126L45.72369731630598,38.40656536926364L45.90777017184666,38.579378347767566L46.294323168482094,38.602028120704574L46.66246887956347,38.47542310309529L46.84654173510415,38.46284449533496L47.03061459064484,38.2702887061937L47.398760301726206,38.06139621362244L47.58283315726689,37.92324636231719L47.766906012807574,37.72161582281377L47.95097886834826,37.75439399727611L48.13505172388894,37.45570304768651L48.31912457942963,37.30353287941764L48.50319743497031,37.297203575252716L48.687270290510995,37.206924654631784L48.87134314605168,37.025763303790555L49.05541600159236,36.98283624159504L49.23948885713305,36.94997438327807L49.607634568214415,37.01838974709947L49.791707423755106,37.1340951965126L49.97578027929578,36.962961695519084L50.15985313483647,37.10573969376728L50.34392599037716,37.013012912546394L50.71207170145852,36.71009611369689L50.91455184255327,36.67373082750359L51.09862469809396,36.46768166521219L51.28269755363465,36.234165405663475L51.466770409175325,36.24702067503429L51.8349161202567,35.85807742379083L52.01898897579738,35.65357742122638L52.20306183133806,35.69395369472746L52.38713468687875,35.728585361703196L52.57120754241943,35.74495727347102L52.755280397960114,35.70981689157693L52.939353253500805,35.52630972256591L53.49157182012286,35.49046293285398L53.67564467566354,35.39222661772557L53.85971753120422,35.28274995851209L54.04379038674491,35.21330900498933L54.22786324228559,35.160481931916664L54.59600895336696,34.99565826737068L54.96415466444832,34.9188828720414L55.148227519989014,34.901023277553705L55.3323003755297,35.030340049225515L55.53478051662445,34.88597934308833L55.90292622770581,35.044528823364686L56.0869990832465,35.2071584630448L56.27107193878719,35.08178735572837L56.45514479432788,35.00764803268414L56.639217649868556,34.75626077564889L56.82329050540924,34.461691502045376L57.00736336094993,34.3367095382706L57.19143621649061,34.06681730741874L57.37550907203129,33.872877192814855L57.55958192757198,33.995192367638325L57.927727638653344,33.885986467531445L58.111800494194036,33.71065054512813L58.29587334973471,33.47373060417034L58.4799462052754,33.41827829295934L58.84809191635677,33.18330926509494L59.03216477189745,33.24404795220326L59.21623762743814,33.10555058763214L59.400310482978824,33.072111212313864L59.5843833385195,33.0862707231192L59.76845619406019,33.073738636226174L59.95252904960088,32.8959736887499L60.15500919069563,32.80459997824715L60.339082046236314,32.66296279236652L60.891300612858366,32.68952509468177L61.07537346839904,32.865127603080175L61.259446323939734,32.886206344008784L61.44351917948042,32.87554640759002L61.627592035021095,32.997684037604344L61.81166489056179,33.121786109585756L61.99573774610247,33.09651243681982L62.179810601643155,33.28734748428787L62.36388345718384,33.36688545938934L62.54795631272452,33.42590538465188L62.73202916826521,33.5499605505166L63.100174879346575,33.322426127689724L63.28424773488726,33.21216775750902L63.65239344596863,33.21664572228457L63.83646630150931,32.93257122967758L64.02053915705,32.757497020580935L64.20461201259067,32.812242100522546L64.38868486813136,32.845762004428515L64.57275772367204,32.75141777368313L65.14338357584818,32.81961889240189L65.32745643138885,32.710895836878514L65.51152928692954,32.664641719600354L65.69560214247024,32.69598097790432L66.06374785355159,32.64870552961475L66.24782070909228,32.4870383751068L66.43189356463296,32.35994005215934L66.61596642017365,32.41573920468413L66.98411213125502,32.47751306271774L67.1681849867957,32.58051097545696L67.53633069787706,32.670308773931836L67.90447640895844,32.53892269621122L68.08854926449912,32.609606491430895L68.45669497558049,32.45437303759078L68.64076783112117,32.5211478755281L69.00891354220255,32.400290042433184L69.19298639774323,32.17561138377486L69.39546653883798,31.93469302089816L69.57953939437867,31.83056866770604L69.94768510546002,31.83478766488575L70.13175796100072,31.829080509227772L70.31583081654139,31.796978109569135L70.49990367208208,31.938772941953104L70.68397652762278,31.824340369456912L70.86804938316345,31.899724178847062L71.05212223870413,31.959038471812505L71.23619509424482,31.975013863546085L71.4202679497855,31.904164630769213L71.60434080532619,31.896899420486662L71.78841366086688,31.746035005721044L71.97248651640756,31.604168946056266L72.15655937194825,31.409680826968145L72.34063222748892,31.326278987009697L73.07692364965166,31.118130064871583L73.26099650519235,31.082321239240144L73.44506936073303,31.134973438538818L73.6291422162737,31.135985747912226L73.8132150718144,31.13577990776334L74.01569521290915,31.195925940896743L74.19976806844984,31.136238493343914L74.56791377953121,30.992103347674494L74.7519866350719,31.058612180653775L74.93605949061256,31.072699325263947L75.12013234615326,31.128275468453015L75.30420520169395,31.128149023251915L75.48827805723462,31.190010275137524L75.67235091277531,31.1348064331204L76.04049662385668,30.971169328216217L76.22456947939736,31.057024821934046L76.40864233493805,31.114807362247188L76.59271519047873,31.189748447674106L76.77678804601942,31.20610727401001L76.96086090156011,31.23442863583672L77.32900661264146,31.053822731448626L77.51307946818216,31.008998926544937L77.69715232372283,31.095527239948435L77.88122517926352,30.89225805970841L78.06529803480421,30.794361963956042L78.43344374588558,30.670492028827766L78.63592388698034,30.549000811160923L79.00406959806169,30.578503197421394L79.37221530914306,30.377930560992603L79.55628816468375,30.444532396888057L79.74036102022444,30.476285560214553L79.92443387576512,30.489483600622545L80.1085067313058,30.259763900665867L80.29257958684649,30.218207326470598L80.66072529792785,30.137050313915406L80.84479815346855,29.98491654787534L81.02887100900924,29.73836919045995L81.39701672009059,29.687409758653242L81.58108957563128,29.678802227997902L81.76516243117196,29.579612724445678L81.94923528671265,29.629506134569077L82.13330814225334,29.597836357685143L82.31738099779402,29.6012652097809L82.5014538533347,29.67319308874923L82.68552670887539,29.76496460897467L82.86959956441606,29.822121805225482L83.05367241995675,29.784595358472007L83.25615256105151,29.856987863656936L83.62429827213288,29.750744965615816L83.80837112767357,29.526708259951384L83.99244398321423,29.287955986285997L84.17651683875492,29.111152234338036L84.54466254983629,29.028639847329938L84.72873540537698,29.057467068978056L85.09688111645835,29.07976566328562L85.28095397199903,28.95758882082664L85.46502682753972,29.056368486643514L85.6490996830804,28.979896934889336L85.83317253862108,28.9295669233468L86.01724539416178,28.874858674481967L86.20131824970245,28.811238399739242L86.38539110524313,28.918000167370224L86.56946396078382,28.906539950672727L86.7535368163245,28.932637192576287L87.48982823848725,28.88613256304152L87.67390109402793,28.86661745040616L87.8763812351227,28.791644797473992L88.24452694620405,28.73407181455142L88.42859980174474,28.657778229555976L88.9808183683668,28.577143184204047L89.16489122390746,28.55928941465532L89.53303693498884,28.525298393968903L89.71710979052952,28.369847962009892L89.90118264607021,28.40301098112055L90.45340121269226,28.49071086782164L90.63747406823295,28.525369175856596L90.82154692377362,28.528782673102803L91.00561977931432,28.559246394451073L91.189692634855,28.597674455235836L91.37376549039568,28.631833389866166L91.55783834593636,28.609073229372086L91.74191120147705,28.48254676324848L91.92598405701773,28.39004773638852L92.11005691255842,28.41022582299209L92.29412976809911,28.313028552983543L92.49660990919385,28.299149974180928L92.68068276473454,28.32958148051933L92.86475562027523,28.27216763770456L93.04882847581591,28.211589705323206L93.23290133135659,28.193780138254343L93.41697418689728,28.163692272588104L93.60104704243795,28.27929852136976L93.78511989797865,28.21847312359798L93.96919275351934,28.3177567474764L94.15326560906001,28.40004848529354L94.33733846460069,28.315189996848652L94.70548417568206,28.211121924700898L94.88955703122275,28.10125568706195L95.07362988676344,28.094111233265245L95.25770274230412,28.126348725671406L95.80992130892616,28.157125448958176L95.99399416446686,28.210814476298683L96.17806702000755,28.16840349835833L96.36213987554822,28.178115537846946L96.54621273108891,28.172730136797355L96.73028558662959,28.201497560306397L96.91435844217028,28.32599017746457L97.11683858326502,28.282784551260466L97.30091143880571,28.2629420050331L97.4849842943464,28.244980361844114L97.85313000542777,28.268831959576676L98.03720286096846,28.18027495795582L98.22127571650913,28.08592823882228L98.77349428313119,28.050300928134185L98.95756713867188,28.049764078236034L99.14163999421257,28.062885450392375L99.32571284975324,28.14562612080941L99.50978570529392,28.107152091179543L99.69385856083461,28.096251483333123L99.87793141637529,28.14678273761037L100.06200427191598,28.198792736149585L100.43014998299735,28.25608442368263L100.61422283853803,28.280211633907907L100.79829569407872,28.227266548500573L100.9823685496194,28.25371800962664L101.73706725733621,28.187743126753645L101.9211401128769,28.151454871478197L102.10521296841759,28.11709378305797L102.28928582395825,28.072550989031306L102.47335867949894,28.079328473294208L102.65743153503963,28.02445216175521L102.84150439058031,28.090304333458715L103.2096501016617,28.017331566374875L103.57779581274305,27.980145752783976L103.76186866828374,28.001380671070898L103.94594152382442,28.01773556861961L104.13001437936511,27.90810210343018L104.3140872349058,27.907202990811385L104.49816009044648,27.994691393104443L104.68223294598715,27.92180289557904L105.05037865706852,27.75989179109988L105.23445151260921,27.77413587934955L105.4185243681499,27.69021711751718L105.60259722369058,27.650127929946702L105.97074293477195,27.580897888996137L106.15481579031263,27.540417053244653L106.35729593140738,27.51569443919198L106.90951449802944,27.563247692170584L107.09358735357013,27.435641856542862L107.27766020911079,27.417742065423667L107.46173306465148,27.387326237566985L107.64580592019217,27.392784264492363L107.82987877573285,27.386872365540434L108.01395163127354,27.4149661049802L108.38209734235491,27.497545147624372L108.56617019789559,27.47975643801817L108.75024305343628,27.408239920960447L108.93431590897696,27.394268396571547L109.11838876451765,27.394823143584723L109.30246162005834,27.352129720195546L109.85468018668038,27.43558136695412L110.03875304222106,27.362645025399846L110.40689875330244,27.352921271357904L110.59097160884312,27.414548646569113L110.77504446438381,27.452913825338918L111.16159746101926,27.407578486438695L111.34567031655992,27.344815410105852L111.52974317210061,27.392522349928313L112.08196173872267,27.41463245663471L112.26603459426336,27.461246895766514L112.45010744980402,27.413170615408806L112.63418030534471,27.391809050963722L112.8182531608854,27.379212563770967L113.00232601642608,27.284901143303923L113.18639887196677,27.22989906889125L113.37047172750746,27.121391224952898L113.55454458304814,27.163061116597266L113.92269029412951,27.12603604311111L114.10676314967019,27.16546188082733L114.29083600521088,27.213744367138396L114.47490886075157,27.27668321874708L114.65898171629225,27.269637829807156L114.84305457183292,27.317856856498516L115.21120028291429,27.274582198786582L115.78182613509043,27.327588924794384L115.9658989906311,27.475654686685647L116.1499718461718,27.538350990741666L116.51811755725315,27.48541888607267L116.70219041279384,27.276717454047933L116.88626326833453,27.294949776924565L117.07033612387521,27.18858214637165L117.2544089794159,27.155094058301238L117.43848183495659,27.056840147847026L117.62255469049725,27.030132519359096L117.80662754603794,26.971225053307727L117.99070040157864,26.96549377208494L118.17477325711931,26.978354662672185L118.35884611266,27.129627354818243L118.5429189682007,27.19641792696868L118.72699182374136,27.243333957829154L118.91106467928205,27.348147416143686L119.09513753482274,27.387520576256083L119.46328324590411,27.41282044744397L119.6473561014448,27.42237103693499L119.83142895698548,27.310758722306108L120.21798195362092,27.249521865613925L120.58612766470227,27.220444187829624L120.77020052024297,27.202204417072505L120.95427337578364,27.224213972040914L121.13834623132433,27.194374630504264L121.32241908686503,27.19015350456793L121.69056479794638,27.208073482777312L121.87463765348707,27.263366627995858L122.05871050902775,27.32865198649952L122.24278336456844,27.394092820827L122.42685622010913,27.413370198957058L122.6109290756498,27.521605383242647L122.79500193119048,27.45385017208657L123.16314764227185,27.446747417262923L123.34722049781254,27.41776317820689L123.53129335335323,27.326258259494313L123.71536620889391,27.229664000706574L123.89943906443459,27.18625637438036L124.08351191997528,27.14329369041809L124.26758477551596,27.067067100351192L124.45165763105665,27.099418657161028L124.83821062769209,27.08209976223722L125.02228348323277,27.101952816582948L125.20635633877346,27.104568714196535L125.7585749053955,27.13086507813146L126.49486632755826,27.16355619750922L126.67893918309892,27.2248270739469L126.86301203863961,27.293442151343722L127.23115774972098,27.358284171597553L127.41523060526167,27.35008584240968L127.59930346080236,27.40727341598876L127.78337631634302,27.424128453587013L127.96744917188371,27.459477345186876L128.1515220274244,27.486372691983412L128.3355948829651,27.509846187810343L128.51966773850577,27.524084684752616L128.70374059404645,27.49637847164049L128.88781344958713,27.52571773235501L129.07188630512783,27.53275024549043L129.2559591606685,27.5900220846726L129.64251215730397,27.552144944657933L129.82658501284462,27.598127270828126L130.0106578683853,27.67290993797226L130.194730723926,27.655287689159646L130.37880357946668,27.619321863736292L130.56287643500738,27.56956501055794L130.74694929054806,27.524026264181845L130.93102214608874,27.578788470836418L131.1150950016294,27.552790807473286L131.2991678571701,27.57990605542927L131.66731356825147,27.661036692068173L131.85138642379218,27.676936920957182L132.03545927933283,27.630087906839954L132.21953213487353,27.581564846604834L132.4036049904142,27.502499920354534L132.5876778459549,27.50897861391829L132.7717507014956,27.38724004634675L132.95582355703627,27.393356153691936L133.13989641257695,27.343955761995403L133.32396926811762,27.347604845167545L133.5080421236583,27.298691278281108L133.692114979199,27.258890867119234L134.07866797583443,27.291528196661044L134.26274083137514,27.209875733010758L134.4468136869158,27.162726308195978L134.6308865424565,27.257838744394746L134.81495939799717,27.251087378011402L135.36717796461923,27.172591503115378L135.5512508201599,27.16730204186829L135.73532367570058,27.206928259534436L135.9193965312413,27.16366878204749L136.10346938678197,27.195996265764453L136.28754224232264,27.183368831948165L136.655687953404,27.184204579467213L136.8397608089447,27.155692853274612L137.02383366448538,27.158423423878045L137.20790652002609,27.174797840688296L137.39197937556676,27.20394099937478L137.57605223110744,27.1762892997038L137.76012508664812,27.194664356532282L137.9441979421888,27.185724375658502L138.31234365327018,27.165275920748535L138.49641650881088,27.159148584897245L138.88296950544628,27.06373875434378L139.06704236098696,27.07670005634383L139.25111521652767,27.087827264356584L139.43518807206834,27.04740751990765L139.61926092760905,27.112039794739466L140.17147949423108,27.154507139992283L140.35555234977176,27.199674494061206L140.53962520531246,27.172326929122157L140.72369806085314,27.150842405058867L141.0918437719345,27.206989268458347L141.45998948301587,27.116669462394846L141.82813519409726,27.234680955185567L142.1962809051786,27.177168302206677L142.3803537607193,27.19539765386484L142.56442661626,27.17621399024704L142.74849947180067,27.10396285392933L142.93257232734135,27.119414226419735L143.3191253239768,27.192591836503322L143.50319817951745,27.093407355267704L143.68727103505816,27.160835514949717L143.87134389059884,27.104953328686815L144.05541674613954,26.9191061961656L144.23948960168022,26.88089155920403L144.60763531276157,26.901945322968842L144.79170816830225,26.881764012012336L144.97578102384296,26.787121772018416L145.15985387938363,26.80120911059156L145.52799959046501,26.832317223362217L145.71207244600566,26.897262372773888L145.89614530154637,26.875746597152343L146.08021815708705,26.94450140721267L146.44836386816843,26.922353658407687L146.6324367237091,26.908886910707377L146.81650957924978,26.873794094156175L147.00058243479046,26.901078365973817L147.18465529033116,26.912437322433863L147.36872814587184,26.961763270714744L147.55280100141255,26.94268583856264L147.73687385695322,26.874054961280002L147.93935399804798,26.803325093038L148.30749970912933,26.730629067864065L148.49157256467,26.70031162445282L148.8597182757514,26.705712364658115L149.0437911312921,26.7202494606245L149.22786398683274,26.67291563437059L149.41193684237342,26.641082315966326L149.59600969791413,26.67389766480927L149.7800825534548,26.684796643232804L149.9641554089955,26.650854042906893L150.1482282645362,26.62832057014552L150.33230112007686,26.611123338127246L150.70044683115822,26.61320014016154L150.88451968669892,26.686768297690577L151.0685925422396,26.694642931224248L151.2526653977803,26.7574967090061L151.43673825332095,26.828262491796163L151.62081110886166,26.90892548356103L151.80488396440234,26.94466344934164L151.988956819943,26.953227757370033L152.17302967548372,26.980016487305498L152.3571025310244,26.974006586358378L152.55958267211912,26.994560865558196L152.74365552765983,26.926681686899006L152.9277283832005,26.901736526872604L153.1118012387412,26.751886288177374L153.29587409428188,26.777896215338938L153.47994694982256,26.78534322919288L153.66401980536324,26.72035929490747L153.84809266090392,26.74408513571711L154.03216551644462,26.819266157474118L154.2162383719853,26.78517423428626L154.40031122752598,26.712585902955674L154.58438408306668,26.71845162353218L154.95252979414803,26.73332064732163L155.1366026496887,26.652947994574223L155.32067550522942,26.57615911155016L155.68882121631077,26.607545548199262L155.87289407185145,26.546723736405966L156.05696692739212,26.497633851581657L156.24103978293283,26.407794710526918L156.4251126384735,26.376726245130147L157.363884201731,26.307003275618342L157.54795705727167,26.26134671718708L157.73202991281238,26.245890840430558L158.10017562389376,26.18731277687727L158.2842484794344,26.257131848750735L158.4683213349751,26.297443133628956L158.6523941905158,26.29088633586419L158.83646704605647,26.28780669154208L159.20461275713785,26.303384372270923L159.38868561267853,26.2413996495805L159.5727584682192,26.191534775059626L159.75683132375988,26.25731553041697L159.9409041793006,26.319128611007542L160.12497703484127,26.33716295687126L160.30904989038197,26.430360419766306L160.49312274592262,26.45542900860171L160.67719560146332,26.44359591949504L160.861268457004,26.35326696756079L161.04534131254468,26.317249108793618L161.22941416808538,26.183071316400802L161.41348702362606,26.13333806813115L161.8000400202615,26.046657488467233L161.98411287580217,26.028180624223584L162.16818573134287,25.930005644065833L162.35225858688355,25.89921362888924L162.53633144242423,25.84389243174706L162.72040429796493,25.796328646814978L162.90447715350558,25.734577337000932L163.0885500090463,25.68419772416849L163.27262286458696,25.686934757310024L163.82484143120902,25.593581973551554L164.0089142867497,25.600618631101202L164.19298714229038,25.604374423324597L164.37705999783108,25.65955450513098L164.56113285337176,25.72445566374114L164.74520570891244,25.70835724562794L165.1133514199938,25.760871610872993L165.2974242755345,25.8088274825541L165.48149713107517,25.79915062411802L165.66556998661588,25.71573013186524L165.84964284215656,25.612475878754662L166.03371569769723,25.595609840458277L166.2177885532379,25.645053183353046L166.42026869433266,25.62583945844726L166.78841440541404,25.59552858450622L166.97248726095472,25.593200717202702L167.15656011649543,25.54426243581753L167.34063297203608,25.523265043284923L167.52470582757675,25.495801312832388L167.70877868311746,25.49787455414321L167.89285153865814,25.513279933204394L168.07692439419884,25.536393500802657L168.26099724973952,25.59544061671633L168.4450701052802,25.660814027734382L168.81321581636155,25.63172516981144L168.99728867190225,25.52756730445266L169.18136152744293,25.530264307848018L169.54950723852428,25.526458234002916L169.733580094065,25.481168056584277L169.91765294960567,25.546535688027593L170.10172580514634,25.615941550448547L170.28579866068705,25.626901546358454L170.46987151622773,25.662347102187294L170.6539443717684,25.639919554026594L170.83801722730908,25.6166705507347L171.04049736840383,25.60696904871127L171.22457022394454,25.554928119976527L171.40864307948522,25.557946854965497L171.5927159350259,25.516756171301576L171.7767887905666,25.581055178960987L171.96086164610725,25.535768157880046L172.32900735718863,25.535870168671526L172.51308021272934,25.545347278015846L172.69715306827,25.504670313136224L172.8812259238107,25.505359009932935L173.06529877935137,25.53856433291361L173.24937163489204,25.541859322913105L173.61751734597343,25.57158248318561L173.8015902015141,25.58875652118091L174.16973591259546,25.69072830756789L174.35380876813616,25.71734800151835L174.72195447921754,25.643878840351675L175.0901001902989,25.60635614692462L175.660726042475,25.53786652983214L175.8447988980157,25.54741258297734L176.39701746463774,25.616123044982693L176.58109032017842,25.596313239348042L176.76516317571912,25.59302438134224L176.9492360312598,25.616215729155627L177.1333088868005,25.62385661134097L177.5014545978819,25.674564918020504L177.68552745342254,25.591924087893073L177.86960030896321,25.55905642507849L178.4218188755853,25.610792804149764L178.60589173112598,25.650087749139786L178.97403744220733,25.620430683944548L179.158110297748,25.633455713470724L179.34218315328872,25.643858846946344L179.5262560088294,25.67865490209975L179.7103288643701,25.69809893821431L179.89440171991075,25.706759716172556L180.07847457545142,25.73626875724537L180.46502757208688,25.696312228472184L180.64910042762756,25.715820161607486L180.83317328316826,25.673811111565634L181.20131899424962,25.655552496353568L181.3853918497903,25.62462633048949L181.569464705331,25.644808404369982L181.75353756087168,25.602807972674007L181.93761041641235,25.57610907619179L182.12168327195303,25.553285537912803L182.3057561274937,25.489563527831788L182.4898289830344,25.52876005445687L182.6739018385751,25.515452177520405L182.85797469411577,25.509546719826705L183.04204754965647,25.4424002177687L183.41019326073783,25.418416290383956L183.5942661162785,25.381405835738555L183.9624118273599,25.412767371049586L184.33055753844124,25.391980706089694L184.51463039398192,25.386110226354443L185.08525624615805,25.41720479105138L185.26932910169876,25.46879954101255L185.63747481278008,25.483978589500964L185.8215476683208,25.502253628408404L186.00562052386147,25.51651521774817L186.18969337940217,25.496181723949057L186.37376623494285,25.500256467688516L186.7419119460242,25.56490829527653L186.92598480156488,25.61150344920408L187.29413051264626,25.651048299071352L187.47820336818697,25.638959146140877L187.84634907926832,25.626458441634888L188.030421934809,25.648346590910368L188.21449479034968,25.64089896677785L188.39856764589038,25.60178173147992L188.58264050143106,25.572920656502845L188.76671335697176,25.53147810106727L188.9507862125124,25.52246944853643L189.1348590680531,25.484802009027216L189.3189319235938,25.467808814576813L189.70548492022922,25.372899872616564L189.88955777576993,25.37463290016398L190.07363063131058,25.378765274701788L190.25770348685128,25.28061581047302L190.44177634239196,25.269742964250025L190.62584919793267,25.168907829146917L190.80992205347334,25.08482955039569L190.99399490901402,25.05730231086518L191.1780677645547,25.054958986486145L191.36214062009537,25.05256908098695L191.73028633117676,25.09724037713984L192.09843204225814,25.07776312157323L192.2825048977988,25.08502330753076L192.4665777533395,25.138790534046663L192.65065060888017,25.151803620112716L192.83472346442088,25.064908975912754L193.01879631996155,25.01914415092847L193.20286917550223,25.02952772135567L193.38694203104293,25.023174658179045L193.57101488658358,25.073321259088168L193.7550877421243,25.042470285096506L193.93916059766497,25.07643469388441L194.14164073875972,25.0688897712219L194.5097864498411,25.102032084584124L194.87793216092246,25.09516574612062L195.06200501646313,25.09529228425594L195.24607787200384,25.14367074184305L195.43015072754451,25.15813704763265L195.79829643862587,25.165422747626394L195.98236929416655,25.19355648687129L196.16644214970725,25.19273056707366L196.35051500524793,25.197556077521078L196.53458786078863,25.231637551604866L196.7186607163293,25.263147454914257L196.90273357187,25.23916139206408L197.27087928295134,25.22182163820183L197.45495213849205,25.217074123403602L198.00717070511408,25.143531940518763L198.19124356065475,25.130277332905944L198.7618694128309,25.104870946224825L198.9459422683716,25.077698175202705L199.13001512391227,25.079526330721496L199.31408797945295,25.120754439311956L199.49816083499363,25.130388215781874L199.68223369053433,25.111336725635454L199.866306546075,25.083985481356716L200.0503794016157,25.08247576817351L200.2344522571564,25.037945080323574L200.78667082377842,25.03837010981453L200.9707436793191,25.04748750494202L201.1548165348598,25.10222473843247L201.33888939040048,25.09316565765127L201.52296224594116,25.052147102821074L201.89110795702254,25.05900736880922L202.07518081256322,25.045805907059638L202.2592536681039,25.074374873545043L202.4433265236446,25.11331057665551L202.62739937918525,25.04878419506038L202.99554509026663,25.084636668094074L203.17961794580734,25.109281537217644L203.3820980869021,25.079424709385084L203.56617094244277,25.043352453684985L203.75024379798342,25.04711345949834L203.93431665352412,25.014988679793447L204.1183895090648,25.011629056457185L204.3024623646055,24.955800161161314L204.48653522014618,24.955986506334444L204.67060807568689,24.938107244445288L205.0387537867682,24.95366727826897L205.4068994978496,24.94367270274027L205.77504520893098,24.934976185523492L205.95911806447165,24.9206990101622L206.14319092001233,24.926014018540407L206.327263775553,25.028549649075508L206.5113366310937,24.98772354967159L207.06355519771574,24.95754690681209L207.43170090879713,24.974764683163265L207.6157737643378,25.005508762297914L208.00232676097326,25.045697845881126L208.18639961651394,24.994830926279416L208.37047247205462,24.936509610170145L208.5545453275953,24.942493577315616L208.738618183136,24.954170881584844L209.10676389421735,24.99412127082417L209.8430553163801,24.952084912600203L210.02712817192076,24.964550134531695L210.21120102746147,24.929572854169407L210.39527388300215,24.99183387756371L210.57934673854282,24.937914298554254L211.31563816070556,24.923128395734082L211.49971101624627,24.900339919138617L211.68378387178691,24.916656941405957L211.86785672732762,24.95556300756798L212.236002438409,24.987134463212787L212.42007529394968,25.022110781071802L212.62255543504443,25.00618522151704L212.9907011461258,25.037600151291784L213.17477400166646,25.02027851751971L213.35884685720717,25.06522345099038L213.72699256828855,25.06443433944205L214.09513827936988,25.065503528169405L214.27921113491058,25.07706759901851L214.46328399045126,25.043842307222043L214.83142970153264,25.063475626208486L215.01550255707335,25.030735646808793L215.199575412614,25.001627716437937L215.38364826815467,25.030689521135105L215.56772112369538,25.061816442375537L215.75179397923606,25.086857273270894L215.93586683477676,25.09838570610159L216.11993969031744,25.101205496979002L216.3040125458581,25.06799239065463L216.4880854013988,25.038659207240624L216.67215825693947,24.967871186148265L216.85623111248017,24.904994221031505L217.04030396802085,24.83653873837798L217.42685696465628,24.757448914765128L217.61092982019696,24.64534935040433L217.79500267573766,24.554130977759165L218.16314838681902,24.450560256191636L218.34722124235972,24.43816936111469L218.53129409790037,24.451527351622012L218.71536695344108,24.434103492753163L219.08351266452243,24.403375355771104L219.26758552006314,24.393460605054454L219.4516583756038,24.39313055087836L219.6357312311445,24.41206018502612L220.18794979776655,24.436452437753573L220.37202265330723,24.446620160323583L220.55609550884793,24.504372695032576L220.74016836438858,24.569975266931674L221.47645978655135,24.527621185534393L221.86301278318678,24.47408977548982L222.04708563872745,24.42498248021678L222.23115849426813,24.42302908952211L222.41523134980883,24.452593622746264L222.5993042053495,24.479708751801834L222.78337706089022,24.44132855726203L222.9674499164309,24.494648404945018L223.15152277197154,24.496732709247734L223.33559562751225,24.4966460913715L223.51966848305293,24.50718190744221L223.70374133859363,24.51695299738875L223.8878141941343,24.546744802287165L224.071887049675,24.51563854491198L224.25595990521566,24.46828294652158L224.44003276075634,24.457154950831484L224.80817847183772,24.4445349084437L224.99225132737843,24.432726053408977L225.1763241829191,24.45693517072957L225.36039703845978,24.445922177151964L225.54446989400046,24.441953393914698L225.72854274954113,24.489382943133023L225.91261560508184,24.48690083322786L226.48324145725798,24.440182395337363L226.66731431279862,24.422196247552055L227.03546002388,24.400442425332056L227.21953287942068,24.396544229406665L227.4036057349614,24.4154125367584L227.58767859050207,24.51100635814083L227.77175144604274,24.540782255049166L227.95582430158342,24.552606976009034L228.1398971571241,24.56061714401286L228.3239700126648,24.611457154415127L228.50804286820548,24.60939444423411L228.69211572374618,24.617621102786885L229.06026143482754,24.597672378027216L229.24433429036822,24.601325836830814L229.6124800014496,24.583993176341913L229.79655285699027,24.53965582720282L230.16469856807163,24.5735061395381L230.34877142361233,24.57384208682L230.532844279153,24.54328432662762L230.7169171346937,24.57376676632158L230.9009899902344,24.525402371635938L231.10347013132912,24.472952705135818L231.2875429868698,24.495958889581317L231.4716158424105,24.505612251972693L231.65568869795118,24.49010984674444L232.02383440903256,24.557154585215436L232.2079072645732,24.595486548745548L232.3919801201139,24.57992963881861L232.7601258311953,24.563647919729917L232.94419868673597,24.56335814318191L233.12827154227668,24.557548859163568L233.31234439781733,24.54733299019214L233.496417253358,24.566016631794728L233.6804901088987,24.583281741490783L233.8645629644394,24.592384150888122L234.0486358199801,24.63783082250258L234.23270867552077,24.59504536424597L234.41678153106145,24.635453657907114L235.15307295322418,24.65112106205958L235.3371458087649,24.65102178392903L235.52121866430554,24.664969898106637L235.907771660941,24.626734324055718L236.09184451648167,24.622971824943615L236.27591737202235,24.66159439688258L236.45999022756305,24.66083161786064L236.64406308310373,24.657082008685997L236.8281359386444,24.68202966002651L237.01220879418509,24.722221682222198L237.38035450526647,24.697879859029353L237.56442736080714,24.698064872078543L237.74850021634785,24.721447867636332L238.1166459274292,24.649391138154822L238.30071878296988,24.64362021197631L238.48479163851056,24.66918185902991L238.66886449405126,24.662654667212312L239.03701020513262,24.64263286825997L239.2210830606733,24.680816709928575L239.405155916214,24.734331784252458L239.58922877175468,24.73526587944404L239.77330162729535,24.737891340642644L239.95737448283606,24.653158949545087L240.52800033501217,24.68604838338658L240.71207319055284,24.668462265079295L241.26429175717487,24.56061225297475L241.44836461271558,24.56515387655427L241.63243746825626,24.583970738224046L242.00058317933764,24.56463529787455L242.18465603487834,24.51028036116538L242.36872889041902,24.514909302065117L242.73687460150038,24.550118966335994L242.92094745704105,24.53077489826088L243.10502031258176,24.512653780397773L243.47316602366314,24.524225207519432L243.6572388792038,24.520390991085947L243.84131173474447,24.55950749257539L244.02538459028517,24.559114734477827L244.20945744582585,24.60888527151044L244.39353030136655,24.607287384453873L244.57760315690723,24.629066440680834L244.96415615354266,24.634235560641443L245.51637472016472,24.568168427610424L245.7004475757054,24.585035776771228L246.25266614232743,24.625348510361423L246.43673899786813,24.642258940125544L246.6208118534088,24.66311476313289L246.80488470894952,24.706134659294225L246.98895756449016,24.732106087255243L247.35710327557155,24.679446427107557L247.54117613111222,24.682569745319498L247.72524898665293,24.67939628307347L247.9093218421936,24.659103453843176L248.09339469773428,24.630527398803686L248.27746755327496,24.63560856745436L248.46154040881567,24.638952801512144L248.64561326435634,24.641064648566033L248.82968611989702,24.603421800576857L249.01375897543772,24.565630359622613L249.19783183097837,24.543980519641977L249.38190468651908,24.541399567131243" fill="none"></path></g></g></g></g><g opacity="0.2"><g><g><g><path style="fill: none;" stroke="rgb(51, 187, 238)" stroke-width="2px" d="M18.572951124055045,159.20126368444437L18.941096835136413,158.81893235496756L19.125169690677097,158.4998827028933L19.30924254621778,158.31912579759944L19.861461112839834,155.5552527806822L20.229606823921205,147.63228017925977L20.413679679461886,145.1316733288962L20.597752535002574,136.61124905767002L21.149971101624626,114.16724080074901L21.33404395716531,88.66167569358355L21.518116812705994,90.88864535253354L21.702189668246678,53.75549271080903L21.886262523787362,59.41196990220398L22.070335379328046,41.963741138461785L22.25440823486873,60.880529096420155L22.6225539459501,31.221494388765414L22.806626801490783,56.79235751045974L23.19317979812622,37.16823188632678L23.377252653666908,6.325945464794249L23.561325509207588,53.07581261256388L23.745398364748272,49.01229188945643L23.92947122028896,-9.468729367047375L24.11354407582964,44.32982239187443L24.297616931370328,45.31580542131729L24.481689786911012,55.419981987884995L24.665762642451693,10.237298079613812L24.84983549799238,33.64851290465253L25.217981209073745,20.859225141575447L25.402054064614433,13.312869058656464L25.586126920155117,59.29403910343411L25.7701997756958,48.532156098323945L25.954272631236485,74.44205095972814L26.322418342317853,47.19041395794953L26.506491197858537,51.77792511917811L27.05870976448059,51.594021856624195L27.242782620021277,67.93141725170369L27.426855475561958,61.95496279917422L27.61092833110264,40.0493349473071L27.813408472197395,39.52255403974857L27.99748132773808,63.54284287841138L28.181554183278767,75.7806061986602L28.36562703881945,82.41455085409308L28.54969989436013,39.153594257899094L28.73377274990082,16.95327841773241L29.101918460982187,29.575096826824232L29.28599131652287,52.35352379648849L29.65413702760424,19.231382656852748L29.838209883144923,-14.193045609255302L30.02228273868561,-4.5852739914256375L30.20635559422629,28.01243394187568L30.574501305307663,15.838635183048169L30.758574160848344,41.3189985413278L30.942647016389028,38.42155424419557L31.126719871929716,15.107274767067404L31.494865583011084,49.49910009459423L31.678938438551768,49.77434746924868L31.86301129409245,19.37580746987521L32.047084149633136,42.215727736514374L32.43363714626857,13.433765374762032L32.80178285734994,12.84744758791533L32.985855712890626,33.27839986606139L33.16992856843131,16.84404852920095L33.354001423971994,47.774456122118494L33.53807427951268,54.850149594282904L33.72214713505336,3.1551484290831455L33.906219990594046,39.96908063440984L34.09029284613473,14.884201963037848L34.274365701675414,-5.323759886560226L34.4584385572161,18.136107957267267L34.64251141275678,-3.4114954579257684L34.82658426829747,35.43874835431015L35.01065712383816,-8.715714496354916L35.194729979378835,61.88898003845499L35.56287569046021,49.6573639885166L35.93102140154157,21.59575461902329L36.11509425708226,31.374105265266618L36.29916711262294,33.7027571592513L36.85138567924499,23.75007940018391L37.05386582033975,25.009549028363157L37.23793867588043,4.819236125686568L37.606084386961804,50.00796433491627L37.79015724250248,-4.830546987732138L38.158302953583856,16.672831090805296L38.34237580912454,32.321629241762174L38.52644866466522,-20.3205252102662L38.71052152020591,44.89117011087717L38.89459437574659,20.74201512826911L39.07866723128727,42.39659340318624L39.26274008682796,21.045362839066318L39.63088579790932,30.153784584692634L39.81495865345001,30.572993410285843L39.9990315089907,27.15455508317376L40.183104364531374,19.29928064751795L40.367177220072065,6.030052735077054L40.55125007561275,-1.6087389350729906L40.73532293115344,16.829612226059822L40.91939578669412,8.632675183752205L41.1034686422348,4.158512685132445L41.28754149777549,30.526379184665377L41.67409449441093,40.596236066233516L41.85816734995161,67.11965836573296L42.04224020549229,31.664386165303416L42.22631306103298,17.79808016873873L42.41038591657366,8.207648589774731L42.59445877211434,-17.608786139346716L42.778531627655035,-9.464754750062728L42.96260448319571,6.591657877459625L43.33075019427709,19.543194448378923L43.69889590535845,29.45390189959806L43.88296876089914,-3.802284742385227L44.06704161643982,22.921083444699445L44.2511144719805,19.640068014678317L44.43518732752119,-0.023978827199428822L44.619260183061876,42.40947486911316L44.987405894143244,29.965340373718444L45.17147874968393,0.5152510750079297L45.355551605224605,19.65275383883657L45.539624460765296,20.81251824353824L45.72369731630598,41.609742803448306L45.90777017184666,57.95738364904523L46.294323168482094,41.16189820108228L46.66246887956347,24.0543950228893L46.84654173510415,37.018936622957845L47.03061459064484,15.996404824081258L47.398760301726206,13.713244789780967L47.58283315726689,21.698826940309104L47.766906012807574,13.864228750521614L47.95097886834826,41.661649653758175L48.13505172388894,1.5880681589366306L48.31912457942963,18.896773450808414L48.50319743497031,36.52604292912075L48.687270290510995,26.128177176967238L48.87134314605168,14.635458899571177L49.05541600159236,31.639766193256026L49.23948885713305,32.83096714110311L49.607634568214415,45.65355519259561L49.791707423755106,51.83904772648606L49.97578027929578,15.064470407468491L50.15985313483647,55.50018481610629L50.34392599037716,24.98610290692781L50.71207170145852,-2.8423426620464443L50.91455184255327,31.89386366302326L51.09862469809396,9.205740815005017L51.28269755363465,5.135722725790539L51.466770409175325,37.97014690225264L51.8349161202567,-16.61247528390489L52.01898897579738,7.888711319094734L52.20306183133806,41.21067478309336L52.38713468687875,40.490270306158365L52.57120754241943,38.01011960467336L52.755280397960114,30.81766918435113L52.939353253500805,9.821168037643426L53.49157182012286,30.438360982632297L53.67564467566354,21.4629035611582L53.85971753120422,19.665769164921013L54.04379038674491,25.248005453571633L54.22786324228559,27.534203083753972L54.59600895336696,11.060342406556503L54.96415466444832,23.704185960026983L55.148227519989014,32.27701262156923L55.3323003755297,54.140320069791514L55.53478051662445,13.429976102610865L55.90292622770581,58.744203357977575L56.0869990832465,59.65488490035119L56.27107193878719,16.12864836276994L56.45514479432788,23.736683087497315L56.639217649868556,-3.673583349403071L56.82329050540924,-10.818678164770919L57.00736336094993,15.01918448648797L57.19143621649061,-7.876308339389932L57.37550907203129,3.5696309614225896L57.55958192757198,53.21008464748566L57.927727638653344,16.638531999676122L58.111800494194036,5.8714696361636864L58.29587334973471,-4.342595822787871L58.4799462052754,24.52062995151071L58.84809191635677,-4.71588031741857L59.03216477189745,43.091739498091854L59.21623762743814,10.534776537350789L59.400310482978824,27.59457401479281L59.5843833385195,35.417495480071L59.76845619406019,30.999997015820448L59.95252904960088,3.3322248236038376L60.15500919069563,17.532326568332582L60.339082046236314,8.87179061281306L60.891300612858366,37.1733391661827L61.07537346839904,62.653259756249014L61.259446323939734,36.47935662495393L61.44351917948042,31.049587055711804L61.627592035021095,54.019948897380814L61.81166489056179,54.58478727741411L61.99573774610247,28.704645410251185L62.179810601643155,66.60669594520395L62.36388345718384,47.31959930688578L62.54795631272452,43.82790858280793L62.73202916826521,55.516206847267206L63.100174879346575,-7.153741506064321L63.28424773488726,13.507738557191331L63.65239344596863,34.02058236093041L63.83646630150931,-18.30059602724968L64.02053915705,1.0393341855457947L64.20461201259067,42.775170522506336L64.38868486813136,38.97335670427403L64.57275772367204,15.42784925044315L65.14338357584818,45.39837654463307L65.32745643138885,12.569862808971978L65.51152928692954,24.058390233744333L65.69560214247024,38.55258274453143L66.06374785355159,23.775595205593127L66.24782070909228,2.0126313908304017L66.43189356463296,8.298776466236214L66.61596642017365,43.024335760315935L66.98411213125502,44.27199480382836L67.1681849867957,52.32913035701535L67.53633069787706,49.96045427593398L67.90447640895844,7.1351918985778L68.08854926449912,46.33338974486866L68.45669497558049,2.189707785351094L68.64076783112117,45.59341079413103L69.00891354220255,8.643322214742168L69.19298639774323,-12.169656656013801L69.39546653883798,-15.808964243024056L69.57953939437867,11.112486086375819L69.94768510546002,32.67763547913837L70.13175796100072,30.68437535827272L70.31583081654139,25.332450619092608L70.49990367208208,60.60539498805283L70.68397652762278,8.598355498752642L70.86804938316345,47.26012420920877L71.05212223870413,44.09224120615739L71.23619509424482,35.255596768025356L71.4202679497855,17.298884750563282L71.60434080532619,30.39344575131874L71.78841366086688,0.40684494129194154L71.97248651640756,2.021960414115611L72.15655937194825,-9.299128547477082L72.34063222748892,13.803363566593498L73.07692364965166,-12.77863799722115L73.26099650519235,23.502335139430997L73.44506936073303,42.32180676287666L73.6291422162737,31.3518638852489L73.8132150718144,31.091722114523147L74.01569521290915,44.11672731804727L74.19976806844984,18.267146754538324L74.56791377953121,-0.1975027790784021L74.7519866350719,45.50260212266054L74.93605949061256,34.143074701990955L75.12013234615326,43.284827626838265L75.30420520169395,31.10039213395598L75.48827805723462,44.81783533842986L75.67235091277531,18.930598882918694L76.04049662385668,-5.332254858094771L76.22456947939736,50.17106778837953L76.40864233493805,44.02381807179733L76.59271519047873,47.990218102160746L76.77678804601942,34.8861427332866L76.96086090156011,37.6274443051463L77.32900661264146,-9.854226026817432L77.51307946818216,20.82157954650842L77.69715232372283,50.828197598551164L77.88122517926352,-15.619727168039972L78.06529803480421,8.318412721650006L78.43344374588558,2.135906298965642L78.63592388698034,2.4689915586013544L79.00406959806169,37.419981654869915L79.37221530914306,-16.287874698868528L79.55628816468375,45.9913461516147L79.74036102022444,37.91271059774392L79.92443387576512,33.59048967483779L80.1085067313058,-23.890596205036115L80.29257958684649,20.390621917859555L80.66072529792785,10.88259671124824L80.84479815346855,-6.224618152759349L81.02887100900924,-29.130274053673105L81.39701672009059,17.480975752523154L81.58108957563128,27.61048277966659L81.76516243117196,5.669927723623505L81.94923528671265,41.6941570781637L82.13330814225334,21.915834849509753L82.31738099779402,30.435580810130084L82.5014538533347,47.22919221588783L82.68552670887539,52.23363658003188L82.86959956441606,43.85918037499025L83.05367241995675,20.540318761701027L83.25615256105151,47.744667088604025L83.62429827213288,3.4189867995433243L83.80837112767357,-26.167928174016946L84.17651683875492,-15.10677504444616L84.54466254983629,8.330820528558037L84.72873540537698,36.310198573596956L85.09688111645835,34.70660537125469L85.28095397199903,-1.9638081513465864L85.46502682753972,54.1299201652462L85.6490996830804,9.511899589110019L85.83317253862108,16.07917158916571L86.01724539416178,14.86591460613439L86.20131824970245,12.472958351867005L86.38539110524313,56.414655630631074L86.56946396078382,25.946446567739137L86.7535368163245,35.692701666984675L87.48982823848725,16.805455616096133L87.67390109402793,23.78267949700618L87.8763812351227,9.204937654059933L88.24452694620405,13.650577642194008L88.42859980174474,8.613461102681343L88.9808183683668,7.332841569614881L89.16489122390746,23.842360533387055L89.53303693498884,19.51996456258264L89.71710979052952,-12.92817009009953L89.90118264607021,37.237643526465405L90.45340121269226,51.91822086118802L90.63747406823295,37.80910283582805L90.82154692377362,29.44563346063777L91.00561977931432,36.7639227259584L91.189692634855,38.97539549744232L91.37376549039568,37.88155207184872L91.55783834593636,22.429394492279975L91.74191120147705,-5.9630759988472954L91.92598405701773,3.1408459860995297L92.11005691255842,33.93283187921236L92.29412976809911,1.640294214237494L92.49660990919385,24.480554279738044L92.68068276473454,36.72462962126043L92.86475562027523,12.39206562898775L93.04882847581591,11.412569668716722L93.23290133135659,23.242110993223697L93.41697418689728,19.77654359373148L93.60104704243795,60.588405044983745L93.78511989797865,11.175503329759353L93.96919275351934,56.207893171947845L94.15326560906001,51.57602281390616L94.33733846460069,4.355462164576376L94.70548417568206,-1.2469973047940794L94.88955703122275,-3.0767832825295005L95.07362988676344,26.06153541239563L95.25770274230412,37.320853059763174L95.80992130892616,36.956969666964035L95.99399416446686,43.60015067326538L96.17806702000755,15.98157723740278L96.36213987554822,30.975788921180794L96.54621273108891,26.61756991283858L96.73028558662959,36.52919379128993L96.91435844217028,64.452886010803L97.11683858326502,15.714186424300882L97.30091143880571,22.476657424817628L97.4849842943464,22.994479998757914L97.85313000542777,35.25792387537906L98.03720286096846,2.168424020306361L98.22127571650913,0.30692348217530513L98.77349428313119,17.535261194862695L98.95756713867188,27.890940403528898L99.14163999421257,31.953987467617452L99.32571284975324,52.74023549461137L99.50978570529392,16.643773139689557L99.69385856083461,24.840761666673142L99.87793141637529,43.273439216514376L100.06200427191598,43.80450364911336L100.43014998299735,45.4866212792404L100.61422283853803,35.553342946077365L100.79829569407872,12.23007424452537L100.9823685496194,36.26437721198638L101.73706725733621,8.161734555747415L101.9211401128769,17.111284888274948L102.10521296841759,17.63936320966785L102.28928582395825,14.459195962930762L102.47335867949894,30.155390906582802L102.65743153503963,11.17686252520488L102.84150439058031,48.353164473857284L103.2096501016617,5.513002431276273L103.57779581274305,16.486600720897684L103.76186866828374,34.57940733081077L103.94594152382442,33.09533065525815L104.13001437936511,-6.204549426067436L104.3140872349058,27.6268240158185L104.49816009044648,55.33716373812457L104.68223294598715,5.092156392987315L105.05037865706852,-23.063855278358997L105.23445151260921,32.2551007434777L105.4185243681499,1.2332666629780629L105.60259722369058,14.983855701839456L105.97074293477195,5.66021771373614L106.15481579031263,14.695129639016859L106.35729593140738,19.65391739251342L106.90951449802944,42.71753857622895L107.09358735357013,-13.316652861075669L107.27766020911079,21.689086039616157L107.46173306465148,17.63238188760673L107.64580592019217,29.146981152288745L107.82987877573285,25.482796169851266L108.01395163127354,36.482280954548855L108.38209734235491,54.205952734714174L108.56617019789559,21.714365015515927L108.75024305343628,4.181186536428285L108.93431590897696,22.847192637751693L109.11838876451765,27.5757409203241L109.30246162005834,13.399939942651752L109.85468018668038,54.763634744788064L110.03875304222106,3.4290777960328445L110.40689875330244,24.1556138958403L110.59097160884312,47.71979999011199L110.77504446438381,40.119323215816564L111.16159746101926,12.409621903492475L111.34567031655992,6.539431822158761L111.52974317210061,43.238779732653434L112.08196173872267,34.77343248065977L112.26603459426336,43.00675889194083L112.45010744980402,11.348152042146888L112.63418030534471,20.2394938000262L112.8182531608854,23.153269036375146L113.00232601642608,-4.417825231310763L113.18639887196677,8.704527197531666L113.37047172750746,-9.497231283662673L113.55454458304814,41.25314964076609L113.92269029412951,14.582058993658267L114.10676314967019,40.548839273538356L114.29083600521088,43.63541767630274L114.47490886075157,48.7246984895051L114.65898171629225,24.86410481875655L114.84305457183292,43.813163371611L115.21120028291429,12.442273484990709L115.78182613509043,45.53033176913634L115.9658989906311,78.41915980269268L116.1499718461718,49.15070329232595L116.51811755725315,9.204299244077943L116.70219041279384,-44.93874677867385L116.88626326833453,33.61565538445043L117.07033612387521,-9.755890295720578L117.2544089794159,15.50191510528919L117.43848183495659,-7.19750348063622L117.62255469049725,17.701659667587844L117.80662754603794,6.357680619060271L117.99070040157864,24.9562212009966L118.17477325711931,31.49546494345589L118.35884611266,80.3588861574879L118.5429189682007,50.74165185825074L118.72699182374136,43.81265882178652L118.91106467928205,64.4327863933055L119.09513753482274,41.3437626704679L119.46328324590411,36.396939955666056L119.6473561014448,30.81998599476964L119.83142895698548,-12.467032144398845L120.21798195362092,5.385814687767545L120.58612766470227,16.82002577939478L120.77020052024297,20.666559187171963L120.95427337578364,35.124743315587786L121.13834623132433,16.464173996046483L121.32241908686503,25.66954138651855L121.69056479794638,33.67498632503473L121.87463765348707,47.25268982199914L122.05871050902775,50.971932516915665L122.24278336456844,51.135355175369924L122.42685622010913,34.4192693946832L122.6109290756498,66.9258700453934L122.79500193119048,2.743765274236911L123.16314764227185,24.851892653617192L123.34722049781254,16.810562895952053L123.53129335335323,-6.21921226178282L123.71536620889391,-8.242632105829902L123.89943906443459,11.2182562046823L124.08351191997528,11.311855345590196L124.26758477551596,-1.069941504143774L124.45165763105665,39.06150876646463L124.83821062769209,20.66748591133937L125.02228348323277,34.46765469315692L125.20635633877346,28.07673830215839L125.7585749053955,36.920116935906904L126.49486632755826,39.3538490535401L126.67893918309892,50.11067626347031L126.86301203863961,52.96540887342037L127.23115774972098,51.65909848704641L127.41523060526167,24.272484110285255L127.59930346080236,48.9107949992552L127.78337631634302,33.772415925834565L127.96744917188371,40.795296417392095L128.1515220274244,37.649706279034405L128.3355948829651,36.394695223793896L128.51966773850577,32.92227006546288L128.70374059404645,16.975056435666428L128.88781344958713,38.68535142691497L129.07188630512783,30.212024050146436L129.2559591606685,49.44506177869933L129.64251215730397,13.074773026179756L129.82658501284462,45.20181834872649L130.0106578683853,56.34848752507836L130.194730723926,20.887150429819915L130.37880357946668,13.783892062142801L130.56287643500738,8.398399314232243L130.74694929054806,9.95013715094061L130.93102214608874,48.74568364342923L131.1150950016294,17.488152716352946L131.2991678571701,38.09379250005484L131.66731356825147,59.168879856158476L131.85138642379218,33.86164916622047L132.03545927933283,9.378646950772387L132.21953213487353,8.648378009922121L132.4036049904142,-3.395936788848559L132.5876778459549,30.04478122873543L132.7717507014956,-20.335991206926668L132.95582355703627,29.794668672888037L133.13989641257695,7.918366492451692L133.32396926811762,28.78473497218536L133.5080421236583,8.005303516289466L133.692114979199,11.536019624750251L134.07866797583443,40.20438619744914L134.26274083137514,-5.144933013056658L134.4468136869158,8.45133585806145L134.6308865424565,65.06076557994466L134.81495939799717,24.563660843683877L135.36717796461923,-4.1203879613145595L135.5512508201599,25.055442468520084L135.73532367570058,43.051777092606315L135.9193965312413,9.84011439839926L136.10346938678197,40.16110817883133L136.28754224232264,22.111517805924898L136.655687953404,27.520384596724448L136.8397608089447,15.669816930552573L137.02383366448538,28.260054639406274L137.20790652002609,33.79070328273802L137.39197937556676,38.99625708814413L137.57605223110744,15.97103317576475L137.76012508664812,34.65167122199796L137.9441979421888,23.552378244470862L138.31234365327018,18.84259097782081L138.49641650881088,24.661646478984157L138.88296950544628,-11.881733754136288L139.06704236098696,32.375049741545475L139.25111521652767,31.64299943090675L139.43518807206834,10.476845979952788L139.61926092760905,53.646890935324365L140.17147949423108,44.61451205610122L140.35555234977176,45.79631190211674L140.53962520531246,15.896524552705396L140.72369806085314,18.279853172566963L141.0918437719345,50.42301319869135L141.45998948301587,-10.282321107482534L141.82813519409726,76.16907867270115L142.1962809051786,3.2954853588338295L142.3803537607193,34.77563602479116L142.56442661626,19.18796048114223L142.74849947180067,-3.024165943691288L142.93257232734135,33.57150212634118L143.3191253239768,57.7921899177377L143.50319817951745,-14.438709889099151L143.68727103505816,55.43456244811883L143.87134389059884,3.640247342978844L144.05541674613954,-51.22498452649641L144.23948960168022,10.790480329008192L144.60763531276157,35.77887671761814L144.79170816830225,18.361034209631633L144.97578102384296,-13.22626636394811L145.15985387938363,32.76525210069891L145.52799959046501,40.020215214580205L145.71207244600566,54.46729924685755L145.89614530154637,17.72966733131386L146.08021815708705,56.21074542299641L146.44836386816843,17.482221681681555L146.6324367237091,21.161182766121545L146.81650957924978,11.875849376937632L147.00058243479046,38.57740865528269L147.18465529033116,31.780000153654775L147.36872814587184,48.12715704329761L147.55280100141255,18.74583067780854L147.73687385695322,-2.6531261809327478L148.30749970912933,-4.628160726506098L148.49157256467,13.605106376380007L148.8597182757514,29.041550832843644L149.0437911312921,33.01582801863L149.22786398683274,6.147273045318582L149.41193684237342,12.819017749846386L149.59600969791413,40.940895081026596L149.7800825534548,31.429451291931077L149.9641554089955,11.85548203912511L150.1482282645362,16.793428795790255L150.33230112007686,19.095596972457543L150.70044683115822,27.521970324744228L150.88451968669892,58.92013679269181L151.0685925422396,30.14927452707793L151.2526653977803,54.36690412872202L151.43673825332095,57.952739731273006L151.62081110886166,62.431535850729794L151.80488396440234,42.70301989760627L151.988956819943,30.73436697863662L152.17302967548372,38.82216680482952L152.3571025310244,24.313939571373833L152.55958267211912,36.103611162812015L152.74365552765983,-3.1930974624740105L152.9277283832005,15.819060709245537L153.1118012387412,-39.90694345772097L153.29587409428188,38.36247043005591L153.47994694982256,30.10629511958073L153.66401980536324,-2.2947825392676546L153.84809266090392,37.350714171823995L154.03216551644462,60.47041246460271L154.2162383719853,11.50677632880103L154.40031122752598,-5.858078150680319L154.58438408306668,29.353650938555234L154.95252979414803,33.42146548363833L155.1366026496887,-9.543124723819602L155.32067550522942,-8.04808181228603L155.68882121631077,40.77694727887747L155.87289407185145,-0.9445763181642761L156.05696692739212,4.282281846156968L156.24103978293283,-14.297497719857029L156.4251126384735,12.28292841287303L157.363884201731,-5.359922722959404L157.54795705727167,5.500079777608571L157.73202991281238,19.209275136992545L158.10017562389376,-0.5134436416171237L158.2842484794344,58.11963245688744L158.4683213349751,44.715700038246645L158.6523941905158,23.29152598521677L158.83646704605647,24.87737756822083L159.20461275713785,33.44614723729688L159.38868561267853,-2.213673580749338L159.5727584682192,3.2733469481680455L159.75683132375988,56.526016984747564L159.9409041793006,54.795431680665246L160.12497703484127,34.65500742900062L160.30904989038197,69.46523842117557L160.49312274592262,38.04457314983044L160.67719560146332,20.966838411281543L160.861268457004,-15.502486263928057L161.04534131254468,9.608350981066485L161.22941416808538,-36.13459946801215L161.41348702362606,3.008592150475655L161.8000400202615,-14.303984789028863L161.98411287580217,17.41716564512973L162.16818573134287,-19.87608889344919L162.35225858688355,11.516002382734305L162.53633144242423,-0.026532467127389027L162.72040429796493,3.528309360491524L162.90447715350558,-3.2084193020417717L163.0885500090463,2.0444283267075836L163.27262286458696,26.972690613788142L163.82484143120902,-18.309471985386377L164.0089142867497,28.913621710000992L164.19298714229038,27.37466236986762L164.37705999783108,51.697732587892L164.56113285337176,56.38399135762516L164.74520570891244,18.09493051342891L165.1133514199938,50.624122639953406L165.2974242755345,48.539034451033125L165.48149713107517,21.20741600513986L165.66556998661588,-13.911609776549623L165.84964284215656,-23.490622054384154L166.03371569769723,17.566049031090927L166.2177885532379,49.20982829420638L166.42026869433266,16.45851068169012L166.78841440541404,11.117665444778092L166.97248726095472,24.48009091765434L167.15656011649543,2.1180926010810808L167.34063297203608,15.461139241923373L167.52470582757675,12.32067697729199L167.70877868311746,26.493543328434225L167.89285153865814,32.91966494085895L168.07692439419884,36.66059298129275L168.26099724973952,54.04446590007627L168.4450701052802,57.19167265725932L168.81321581636155,11.586577576549786L168.99728867190225,-24.8173615601818L169.18136152744293,26.835257419761994L169.54950723852428,23.682861007241474L169.733580094065,3.5200718123368135L169.91765294960567,57.276745935827094L170.10172580514634,59.342002227564905L170.28579866068705,30.958263537481645L170.46987151622773,42.92259174367007L170.6539443717684,14.70732121028583L170.83801722730908,14.271750554670328L171.04049736840383,20.867926051813857L171.22457022394454,0.10712175168280587L171.40864307948522,27.035635778625323L171.5927159350259,5.332682502169663L171.7767887905666,57.121293105212516L171.96086164610725,3.2983479068175914L172.32900735718863,25.586012648229786L172.51308021272934,30.208543686051073L172.69715306827,5.469013924130119L172.8812259238107,25.844929083667523L173.06529877935137,41.92764008367377L173.24937163489204,27.169825438065555L173.61751734597343,40.27200617086412L173.8015902015141,34.091322305708985L174.16973591259546,76.22656131341823L174.35380876813616,38.9231076605303L174.72195447921754,-10.840373807223386L175.0901001902989,6.954007026914946L175.660726042475,-8.54236559237423L175.8447988980157,30.302286984051676L176.39701746463774,59.875115750267376L176.58109032017842,15.709243895408056L176.76516317571912,23.949912021481992L176.9492360312598,37.21418710809487L177.1333088868005,29.44886669828849L177.5014545978819,51.0843132676163L177.68552745342254,-15.860242980287127L177.86960030896321,9.056476442441665L178.4218188755853,51.61290643576887L178.60589173112598,45.41878507018637L178.97403744220733,10.685698716480276L179.158110297748,32.19906482215528L179.34218315328872,30.892980968355566L179.5262560088294,43.252948315479536L179.7103288643701,35.5282184242055L179.89440171991075,30.089572896826667L180.07847457545142,40.68395565714599L180.46502757208688,5.436815407780395L180.64910042762756,35.61668969138709L180.83317328316826,4.332294060391253L181.20131899424962,16.370811684648036L181.3853918497903,9.883104102831654L181.569464705331,35.92744089858834L181.75353756087168,4.183307705078123L181.93761041641235,11.947073277670297L182.12168327195303,13.891361174756192L182.3057561274937,-7.100959416263015L182.4898289830344,45.59487295892849L182.6739018385751,18.696189153241217L182.85797469411577,22.48058055712631L183.04204754965647,-9.030327054253691L183.41019326073783,13.093523745166914L183.5942661162785,6.344469651207154L183.9624118273599,41.5592878210007L184.33055753844124,14.679879877995452L184.51463039398192,22.35800584058422L185.08525624615805,41.47139318218994L185.26932910169876,52.13218087757142L185.63747481278008,33.335599341060664L185.8215476683208,34.964131720441316L186.00562052386147,32.90729832169169L186.18969337940217,14.948979982339452L186.37376623494285,27.61582688903196L186.7419119460242,59.16257813182012L186.92598480156488,49.8479808528166L187.29413051264626,46.23924486639552L187.47820336818697,19.339212162197907L187.84634907926832,19.106274894253087L188.030421934809,37.07533293701203L188.21449479034968,21.749220141145543L188.39856764589038,5.14283790800917L188.58264050143106,10.464376391433596L188.76671335697176,3.816922157026994L188.9507862125124,20.797948080239593L189.1348590680531,5.712515847583357L189.3189319235938,16.539732906495566L189.70548492022922,-24.53637879262463L189.88955777576993,26.286791166686186L190.07363063131058,27.55574427217854L190.25770348685128,-26.471914294796147L190.44177634239196,19.5315486146752L190.62584919793267,-28.094814250626015L190.80992205347334,-19.367070199099253L190.99399490901402,10.49079832713983L191.1780677645547,23.813848319836563L191.36214062009537,23.78566560821226L191.73028633117676,48.79871285967518L192.09843204225814,14.734494822261182L192.2825048977988,28.943894699469553L192.4665777533395,53.74181838087221L192.65065060888017,32.08056769194977L192.83472346442088,-21.242327442648673L193.01879631996155,0.6091694209068209L193.20286917550223,30.57273598690601L193.38694203104293,21.62867392083655L193.57101488658358,51.89041913616587L193.7550877421243,8.529849988911034L193.93916059766497,43.27123567238299L194.14164073875972,21.023564227261918L194.5097864498411,42.887129098864044L194.87793216092246,21.40732070498429L195.06200501646313,25.163313161606016L195.24607787200384,51.171950483047226L195.43015072754451,32.94787854328884L195.79829643862587,29.091944033680086L195.98236929416655,40.36876647087639L196.16644214970725,24.746853617709444L196.35051500524793,27.80484772837698L196.53458786078863,43.66197347216649L196.7186607163293,42.31728640832676L196.90273357187,12.24617865116783L197.27087928295134,15.821140690154602L197.45495213849205,22.641058292115257L198.00717070511408,-14.79424246745645L198.19124356065475,17.926194636414863L198.7618694128309,11.284537576522137L198.9459422683716,10.284138837808534L199.13001512391227,26.07565251054577L199.31408797945295,47.60386679676964L199.49816083499363,30.388389956138784L199.68223369053433,14.704623413265162L199.866306546075,10.13121905325153L200.0503794016157,24.256441485253955L200.2344522571564,0.6530137709602667L200.78667082377842,25.27130741791427L200.9707436793191,30.048385156053115L201.1548165348598,55.15029495823497L201.33888939040048,20.11609532866864L201.52296224594116,2.4980598066522886L201.89110795702254,28.834211745789585L202.07518081256322,17.775118003257475L202.2592536681039,40.82150211745927L202.4433265236446,46.59198697531541L202.62739937918525,-10.57572197888293L202.99554509026663,44.89452691175021L203.17961794580734,38.73753629447506L203.3820980869021,8.555715890116824L203.56617094244277,5.063757445723951L203.75024379798342,27.131922419618693L203.93431665352412,7.193225425327734L204.1183895090648,23.146328902054805L204.3024623646055,-6.065798224336533L204.48653522014618,25.059612727273407L204.67060807568689,14.987562598509076L205.0387537867682,33.62035078689861L205.4068994978496,19.37244037206697L205.77504520893098,20.083474637975986L205.95911806447165,16.949633302673952L206.14319092001233,27.895769666134598L206.327263775553,82.36537269160945L206.5113366310937,2.1402516056172516L207.06355519771574,8.056561659682151L207.43170090879713,34.6254552249956L207.6157737643378,42.25127275680195L208.00232676097326,47.60720300377229L208.18639961651394,-3.583299821627446L208.37047247205462,-7.855158434502713L208.5545453275953,28.30964467929763L208.738618183136,31.53003175490009L209.10676389421735,47.50886727267544L209.8430553163801,1.2434503318843235L210.02712817192076,32.000395754534054L210.21120102746147,5.171864968319331L210.39527388300215,60.18841030046139L210.57934673854282,-5.566571915355507L211.31563816070556,16.551739132931054L211.49971101624627,11.988240424573462L211.68378387178691,34.169043572548674L211.86785672732762,47.03362252575981L212.236002438409,42.916640115128295L212.42007529394968,44.90032408626409L212.62255543504443,15.94829754285775L212.9907011461258,42.9188024715189L213.17477400166646,15.15345652140975L213.35884685720717,50.686244049975116L213.72699256828855,24.614259983224187L214.09513827936988,25.675915189403256L214.27921113491058,31.684073905393173L214.46328399045126,6.046723473155149L214.83142970153264,36.29754364024428L215.01550255707335,6.283141105195336L215.199575412614,8.321409129791281L215.38364826815467,41.696854875184364L215.56772112369538,42.925516073264994L215.75179397923606,39.46840245756655L215.93586683477676,31.724334921999322L216.11993969031744,26.723072310830034L216.3040125458581,5.950642770865646L216.4880854013988,8.142160081944784L216.67215825693947,-15.837383784157806L218.16314838681902,-35.51398259003627L218.34722124235972,17.258984126688905L218.53129409790037,32.19664504238483L218.71536695344108,14.32424433028622L219.08351266452243,6.561096573805649L219.26758552006314,18.632317264236633L219.4516583756038,24.201208724876622L219.6357312311445,35.427277568504714L220.18794979776655,38.640559758823734L220.37202265330723,30.371729514995884L220.55609550884793,58.18295860832678L220.74016836438858,62.85361752124196L221.47645978655135,-0.20651259737261654L222.04708563872745,-4.2936647867488915L222.23115849426813,23.279849260707465L222.41523134980883,41.76683284675863L222.5993042053495,40.37068170082235L222.78337706089022,1.9325521258314236L222.9674499164309,55.78705743059408L223.15152277197154,25.720830420716812L223.33559562751225,24.4457403418492L223.51966848305293,30.703465876121264L223.70374133859363,30.26750393696841L223.8878141941343,42.09225718661046L224.071887049675,6.183240239949086L224.25595990521566,-3.4600249134922056L224.44003276075634,17.889784673571043L224.80817847183772,16.9914491564943L224.99225132737843,17.45388451602935L225.1763241829191,38.77400803893004L225.36039703845978,17.92843936828702L225.54446989400046,22.091613830196078L225.72854274954113,52.59676829656189L225.91261560508184,23.01496060285756L226.48324145725798,-3.2837413829814044L226.66731431279862,13.74145839221085L227.03546002388,11.473527525061579L227.21953287942068,22.07851612863009L227.4036057349614,35.64291598532464L227.58767859050207,81.43230561212542L227.77175144604274,42.28284316010488L227.95582430158342,31.603170885578727L228.1398971571241,29.339956014748026L228.3239700126648,54.96606219375487L228.50804286820548,23.37700084425708L228.69211572374618,29.536050848570905L229.06026143482754,12.663029478601752L229.24433429036822,26.788529927854402L229.6124800014496,14.200567841678437L229.79655285699027,-2.039119935351026L230.16469856807163,44.87917418137687L230.34877142361233,24.775499691417448L230.532844279153,6.18832692593462L230.7169171346937,42.89562407039859L230.9009899902344,-4.563876960093777L231.10347013132912,-7.094307596128086L231.2875429868698,38.35155567875092L231.4716158424105,30.323230950235025L231.65568869795118,15.141409107233486L232.02383440903256,65.01492362446369L232.2079072645732,47.74185602529623L232.3919801201139,15.17989905098637L232.7601258311953,14.71923476430458L232.94419868673597,24.388036317025453L233.12827154227668,21.04050268565504L233.31234439781733,18.3584393819629L233.496417253358,35.89213270781021L233.6804901088987,35.05625839961656L233.8645629644394,30.11745699733036L234.0486358199801,52.241328390621334L234.23270867552077,-1.4088342352285574L234.41678153106145,49.21036373483644L235.15307295322418,34.185611341274836L235.3371458087649,24.5905667353442L235.52121866430554,33.16406269767401L235.907771660941,1.313510678940135L236.09184451648167,22.32741364612466L236.27591737202235,48.24083520783261L236.45999022756305,24.194855515862304L236.64406308310373,22.365018053450914L236.8281359386444,39.94172167760101L237.01220879418509,49.32198251233277L237.38035450526647,9.7899065423963L237.56442736080714,24.811446292177564L237.74850021634785,39.060262837306226L238.1166459274292,-19.56470957320114L238.30071878296988,21.10034847299901L238.48479163851056,40.373533951870925L238.66886449405126,20.650022309251383L239.03701020513262,12.326412370194708L239.2210830606733,48.18390345314837L239.405155916214,57.694688238391514L239.58922877175468,25.31094032147362L239.77330162729535,26.35694418615874L239.95737448283606,-27.631472760793947L240.52800033501217,44.99323333251403L240.71207319055284,13.803415051269464L241.26429175717487,-42.1123410374408L241.44836461271558,27.374518212774912L241.63243746825626,36.23089157873748L242.00058317933764,12.589385798098641L242.18465603487834,-9.174648897924216L242.36872889041902,27.385319697792777L242.73687460150038,46.397004210493414L242.92094745704105,12.520849397451451L243.10502031258176,13.255154736897525L243.47316602366314,31.71718884897511L243.6572388792038,22.135540555731072L243.84131173474447,48.90439030556492L244.02538459028517,24.314526496679857L244.20945744582585,55.62197696557369L244.39353030136655,23.611008993462015L244.57760315690723,38.21642899820809L244.96415615354266,27.861048400662494L245.51637472016472,-16.69886657017741L245.7004475757054,35.12708071987668L246.25266614232743,49.835768687677245L246.43673899786813,35.22387191069453L246.6208118534088,37.72132146330441L246.80488470894952,51.6577084007953L246.98895756449016,41.01264412545412L247.35710327557155,-8.350564580526994L247.54117613111222,26.642787107127187L247.72524898665293,22.68652955792926L247.9093218421936,11.908109674898517L248.09339469773428,6.664179192026656L248.27746755327496,27.832124309704266L248.46154040881567,26.744016277013383L248.64561326435634,25.97116950913846L248.82968611989702,0.880926134530715L249.01375897543772,0.7355540034704643L249.19783183097837,10.884306002490343L249.38190468651908,22.912032438664454" fill="none"></path></g></g></g></g></g></g><g transform="translate(72, 176)" clip-path="url(#clip_1)"><clipPath id="clip_1"><rect width="257" height="23"></rect></clipPath><g><g><line x1="0" y1="0" x2="0" y2="5" style="visibility: inherit;" fill="rgb(0, 0, 0)" stroke="rgb(204, 204, 204)" stroke-width="1px"></line><line x1="18.407285554068427" y1="0" x2="18.407285554068427" y2="5" style="visibility: inherit;" fill="rgb(0, 0, 0)" stroke="rgb(204, 204, 204)" stroke-width="1px"></line><line x1="36.81457110813685" y1="0" x2="36.81457110813685" y2="5" style="visibility: inherit;" fill="rgb(0, 0, 0)" stroke="rgb(204, 204, 204)" stroke-width="1px"></line><line x1="55.22185666220528" y1="0" x2="55.22185666220528" y2="5" style="visibility: inherit;" fill="rgb(0, 0, 0)" stroke="rgb(204, 204, 204)" stroke-width="1px"></line><line x1="73.6291422162737" y1="0" x2="73.6291422162737" y2="5" style="visibility: inherit;" fill="rgb(0, 0, 0)" stroke="rgb(204, 204, 204)" stroke-width="1px"></line><line x1="92.03642777034214" y1="0" x2="92.03642777034214" y2="5" style="visibility: inherit;" fill="rgb(0, 0, 0)" stroke="rgb(204, 204, 204)" stroke-width="1px"></line><line x1="110.44371332441057" y1="0" x2="110.44371332441057" y2="5" style="visibility: inherit;" fill="rgb(0, 0, 0)" stroke="rgb(204, 204, 204)" stroke-width="1px"></line><line x1="128.850998878479" y1="0" x2="128.850998878479" y2="5" style="visibility: inherit;" fill="rgb(0, 0, 0)" stroke="rgb(204, 204, 204)" stroke-width="1px"></line><line x1="147.2582844325474" y1="0" x2="147.2582844325474" y2="5" style="visibility: inherit;" fill="rgb(0, 0, 0)" stroke="rgb(204, 204, 204)" stroke-width="1px"></line><line x1="165.66556998661588" y1="0" x2="165.66556998661588" y2="5" style="visibility: inherit;" fill="rgb(0, 0, 0)" stroke="rgb(204, 204, 204)" stroke-width="1px"></line><line x1="184.0728555406843" y1="0" x2="184.0728555406843" y2="5" style="visibility: inherit;" fill="rgb(0, 0, 0)" stroke="rgb(204, 204, 204)" stroke-width="1px"></line><line x1="202.48014109475272" y1="0" x2="202.48014109475272" y2="5" style="visibility: inherit;" fill="rgb(0, 0, 0)" stroke="rgb(204, 204, 204)" stroke-width="1px"></line><line x1="220.88742664882113" y1="0" x2="220.88742664882113" y2="5" style="visibility: inherit;" fill="rgb(0, 0, 0)" stroke="rgb(204, 204, 204)" stroke-width="1px"></line><line x1="239.2947122028896" y1="0" x2="239.2947122028896" y2="5" style="visibility: inherit;" fill="rgb(0, 0, 0)" stroke="rgb(204, 204, 204)" stroke-width="1px"></line><line x1="257.701997756958" y1="0" x2="257.701997756958" y2="5" style="visibility: inherit;" fill="rgb(0, 0, 0)" stroke="rgb(204, 204, 204)" stroke-width="1px"></line></g><g transform="translate(0, 8)"><text style="text-anchor: middle; visibility: hidden; font-family: Roboto, sans-serif; font-size: 12px; font-weight: 200;" x="0" y="0" dx="0em" dy="0.95em" fill="rgb(255, 255, 255)" stroke="none" stroke-width="1px">-1k</text><text style="text-anchor: middle; visibility: inherit; font-family: Roboto, sans-serif; font-size: 12px; font-weight: 200;" x="18.407285554068427" y="0" dx="0em" dy="0.95em" fill="rgb(255, 255, 255)" stroke="none" stroke-width="1px">0</text><text style="text-anchor: middle; visibility: hidden; font-family: Roboto, sans-serif; font-size: 12px; font-weight: 200;" x="36.81457110813685" y="0" dx="0em" dy="0.95em" fill="rgb(255, 255, 255)" stroke="none" stroke-width="1px">1k</text><text style="text-anchor: middle; visibility: inherit; font-family: Roboto, sans-serif; font-size: 12px; font-weight: 200;" x="55.22185666220528" y="0" dx="0em" dy="0.95em" fill="rgb(255, 255, 255)" stroke="none" stroke-width="1px">2k</text><text style="text-anchor: middle; visibility: hidden; font-family: Roboto, sans-serif; font-size: 12px; font-weight: 200;" x="73.6291422162737" y="0" dx="0em" dy="0.95em" fill="rgb(255, 255, 255)" stroke="none" stroke-width="1px">3k</text><text style="text-anchor: middle; visibility: inherit; font-family: Roboto, sans-serif; font-size: 12px; font-weight: 200;" x="92.03642777034214" y="0" dx="0em" dy="0.95em" fill="rgb(255, 255, 255)" stroke="none" stroke-width="1px">4k</text><text style="text-anchor: middle; visibility: hidden; font-family: Roboto, sans-serif; font-size: 12px; font-weight: 200;" x="110.44371332441057" y="0" dx="0em" dy="0.95em" fill="rgb(255, 255, 255)" stroke="none" stroke-width="1px">5k</text><text style="text-anchor: middle; visibility: inherit; font-family: Roboto, sans-serif; font-size: 12px; font-weight: 200;" x="128.850998878479" y="0" dx="0em" dy="0.95em" fill="rgb(255, 255, 255)" stroke="none" stroke-width="1px">6k</text><text style="text-anchor: middle; visibility: hidden; font-family: Roboto, sans-serif; font-size: 12px; font-weight: 200;" x="147.2582844325474" y="0" dx="0em" dy="0.95em" fill="rgb(255, 255, 255)" stroke="none" stroke-width="1px">7k</text><text style="text-anchor: middle; visibility: inherit; font-family: Roboto, sans-serif; font-size: 12px; font-weight: 200;" x="165.66556998661588" y="0" dx="0em" dy="0.95em" fill="rgb(255, 255, 255)" stroke="none" stroke-width="1px">8k</text><text style="text-anchor: middle; visibility: hidden; font-family: Roboto, sans-serif; font-size: 12px; font-weight: 200;" x="184.0728555406843" y="0" dx="0em" dy="0.95em" fill="rgb(255, 255, 255)" stroke="none" stroke-width="1px">9k</text><text style="text-anchor: middle; visibility: inherit; font-family: Roboto, sans-serif; font-size: 12px; font-weight: 200;" x="202.48014109475272" y="0" dx="0em" dy="0.95em" fill="rgb(255, 255, 255)" stroke="none" stroke-width="1px">10k</text><text style="text-anchor: middle; visibility: hidden; font-family: Roboto, sans-serif; font-size: 12px; font-weight: 200;" x="220.88742664882113" y="0" dx="0em" dy="0.95em" fill="rgb(255, 255, 255)" stroke="none" stroke-width="1px">11k</text><text style="text-anchor: middle; visibility: inherit; font-family: Roboto, sans-serif; font-size: 12px; font-weight: 200;" x="239.2947122028896" y="0" dx="0em" dy="0.95em" fill="rgb(255, 255, 255)" stroke="none" stroke-width="1px">12k</text><text style="text-anchor: middle; visibility: hidden; font-family: Roboto, sans-serif; font-size: 12px; font-weight: 200;" x="257.701997756958" y="0" dx="0em" dy="0.95em" fill="rgb(255, 255, 255)" stroke="none" stroke-width="1px">13k</text></g><line x1="0" y1="0" x2="257.701997756958" y2="0" fill="rgb(0, 0, 0)" stroke="rgb(204, 204, 204)" stroke-width="1px"></line></g></g></g></g></svg>