<svg viewBox="0 0 330 200" xmlns="http://www.w3.org/2000/svg"><g><g><g><g><g><line x1="51.53200149536133" y1="176.89999961853027" x2="46.53200149536133" y2="176.89999961853027" style="visibility: inherit;" fill="rgb(0, 0, 0)" stroke="rgb(204, 204, 204)" stroke-width="1px"></line><line x1="51.53200149536133" y1="159.20999965667724" x2="46.53200149536133" y2="159.20999965667724" style="visibility: inherit;" fill="rgb(0, 0, 0)" stroke="rgb(204, 204, 204)" stroke-width="1px"></line><line x1="51.53200149536133" y1="141.51999969482418" x2="46.53200149536133" y2="141.51999969482418" style="visibility: inherit;" fill="rgb(0, 0, 0)" stroke="rgb(204, 204, 204)" stroke-width="1px"></line><line x1="51.53200149536133" y1="123.82999973297119" x2="46.53200149536133" y2="123.82999973297119" style="visibility: inherit;" fill="rgb(0, 0, 0)" stroke="rgb(204, 204, 204)" stroke-width="1px"></line><line x1="51.53200149536133" y1="106.13999977111814" x2="46.53200149536133" y2="106.13999977111814" style="visibility: inherit;" fill="rgb(0, 0, 0)" stroke="rgb(204, 204, 204)" stroke-width="1px"></line><line x1="51.53200149536133" y1="88.44999980926514" x2="46.53200149536133" y2="88.44999980926514" style="visibility: inherit;" fill="rgb(0, 0, 0)" stroke="rgb(204, 204, 204)" stroke-width="1px"></line><line x1="51.53200149536133" y1="70.75999984741209" x2="46.53200149536133" y2="70.75999984741209" style="visibility: inherit;" fill="rgb(0, 0, 0)" stroke="rgb(204, 204, 204)" stroke-width="1px"></line><line x1="51.53200149536133" y1="53.06999988555905" x2="46.53200149536133" y2="53.06999988555905" style="visibility: inherit;" fill="rgb(0, 0, 0)" stroke="rgb(204, 204, 204)" stroke-width="1px"></line><line x1="51.53200149536133" y1="35.37999992370601" x2="46.53200149536133" y2="35.37999992370601" style="visibility: inherit;" fill="rgb(0, 0, 0)" stroke="rgb(204, 204, 204)" stroke-width="1px"></line><line x1="51.53200149536133" y1="17.689999961853044" x2="46.53200149536133" y2="17.689999961853044" style="visibility: inherit;" fill="rgb(0, 0, 0)" stroke="rgb(204, 204, 204)" stroke-width="1px"></line><line x1="51.53200149536133" y1="0" x2="46.53200149536133" y2="0" style="visibility: inherit;" fill="rgb(0, 0, 0)" stroke="rgb(204, 204, 204)" stroke-width="1px"></line></g><g transform="translate(41.53200149536133, 0)"><text style="text-anchor: end; visibility: hidden; font-family: Roboto, sans-serif; font-size: 12px; font-weight: 200;" x="0" y="176.89999961853027" dx="0em" dy="0.3em" fill="rgb(255, 255, 255)" stroke="none" stroke-width="1px">0.7</text><text style="text-anchor: end; visibility: inherit; font-family: Roboto, sans-serif; font-size: 12px; font-weight: 200;" x="0" y="159.20999965667724" dx="0em" dy="0.3em" fill="rgb(255, 255, 255)" stroke="none" stroke-width="1px">0.75</text><text style="text-anchor: end; visibility: hidden; font-family: Roboto, sans-serif; font-size: 12px; font-weight: 200;" x="0" y="141.51999969482418" dx="0em" dy="0.3em" fill="rgb(255, 255, 255)" stroke="none" stroke-width="1px">0.8</text><text style="text-anchor: end; visibility: inherit; font-family: Roboto, sans-serif; font-size: 12px; font-weight: 200;" x="0" y="123.82999973297119" dx="0em" dy="0.3em" fill="rgb(255, 255, 255)" stroke="none" stroke-width="1px">0.85</text><text style="text-anchor: end; visibility: hidden; font-family: Roboto, sans-serif; font-size: 12px; font-weight: 200;" x="0" y="106.13999977111814" dx="0em" dy="0.3em" fill="rgb(255, 255, 255)" stroke="none" stroke-width="1px">0.9</text><text style="text-anchor: end; visibility: inherit; font-family: Roboto, sans-serif; font-size: 12px; font-weight: 200;" x="0" y="88.44999980926514" dx="0em" dy="0.3em" fill="rgb(255, 255, 255)" stroke="none" stroke-width="1px">0.95</text><text style="text-anchor: end; visibility: hidden; font-family: Roboto, sans-serif; font-size: 12px; font-weight: 200;" x="0" y="70.75999984741209" dx="0em" dy="0.3em" fill="rgb(255, 255, 255)" stroke="none" stroke-width="1px">1</text><text style="text-anchor: end; visibility: inherit; font-family: Roboto, sans-serif; font-size: 12px; font-weight: 200;" x="0" y="53.06999988555905" dx="0em" dy="0.3em" fill="rgb(255, 255, 255)" stroke="none" stroke-width="1px">1.05</text><text style="text-anchor: end; visibility: hidden; font-family: Roboto, sans-serif; font-size: 12px; font-weight: 200;" x="0" y="35.37999992370601" dx="0em" dy="0.3em" fill="rgb(255, 255, 255)" stroke="none" stroke-width="1px">1.1</text><text style="text-anchor: end; visibility: inherit; font-family: Roboto, sans-serif; font-size: 12px; font-weight: 200;" x="0" y="17.689999961853044" dx="0em" dy="0.3em" fill="rgb(255, 255, 255)" stroke="none" stroke-width="1px">1.15</text><text style="text-anchor: end; visibility: hidden; font-family: Roboto, sans-serif; font-size: 12px; font-weight: 200;" x="0" y="0" dx="0em" dy="0.3em" fill="rgb(255, 255, 255)" stroke="none" stroke-width="1px">1.2</text></g><line x1="51.53200149536133" y1="0" x2="51.53200149536133" y2="176.89999961853027" fill="rgb(0, 0, 0)" stroke="rgb(204, 204, 204)" stroke-width="1px"></line></g></g><g transform="translate(51, 0)" clip-path="url(#clip_0)"><clipPath id="clip_0"><rect width="278" height="176"></rect></clipPath><g><g><g><line x1="0" y1="0" x2="0" y2="176.89999961853027" fill="rgb(0, 0, 0)" stroke="rgb(189, 189, 189)" stroke-width="1px" opacity="0.25"></line><line x1="19.890571321759904" y1="0" x2="19.890571321759904" y2="176.89999961853027" fill="rgb(0, 0, 0)" stroke="rgb(189, 189, 189)" stroke-width="1px" opacity="0.25"></line><line x1="39.78114264351981" y1="0" x2="39.78114264351981" y2="176.89999961853027" fill="rgb(0, 0, 0)" stroke="rgb(189, 189, 189)" stroke-width="1px" opacity="0.25"></line><line x1="59.671713965279714" y1="0" x2="59.671713965279714" y2="176.89999961853027" fill="rgb(0, 0, 0)" stroke="rgb(189, 189, 189)" stroke-width="1px" opacity="0.25"></line><line x1="79.56228528703961" y1="0" x2="79.56228528703961" y2="176.89999961853027" fill="rgb(0, 0, 0)" stroke="rgb(189, 189, 189)" stroke-width="1px" opacity="0.25"></line><line x1="99.45285660879952" y1="0" x2="99.45285660879952" y2="176.89999961853027" fill="rgb(0, 0, 0)" stroke="rgb(189, 189, 189)" stroke-width="1px" opacity="0.25"></line><line x1="119.34342793055943" y1="0" x2="119.34342793055943" y2="176.89999961853027" fill="rgb(0, 0, 0)" stroke="rgb(189, 189, 189)" stroke-width="1px" opacity="0.25"></line><line x1="139.23399925231934" y1="0" x2="139.23399925231934" y2="176.89999961853027" fill="rgb(0, 0, 0)" stroke="rgb(189, 189, 189)" stroke-width="1px" opacity="0.25"></line><line x1="159.12457057407923" y1="0" x2="159.12457057407923" y2="176.89999961853027" fill="rgb(0, 0, 0)" stroke="rgb(189, 189, 189)" stroke-width="1px" opacity="0.25"></line><line x1="179.01514189583915" y1="0" x2="179.01514189583915" y2="176.89999961853027" fill="rgb(0, 0, 0)" stroke="rgb(189, 189, 189)" stroke-width="1px" opacity="0.25"></line><line x1="198.90571321759904" y1="0" x2="198.90571321759904" y2="176.89999961853027" fill="rgb(0, 0, 0)" stroke="rgb(189, 189, 189)" stroke-width="1px" opacity="0.25"></line><line x1="218.79628453935896" y1="0" x2="218.79628453935896" y2="176.89999961853027" fill="rgb(0, 0, 0)" stroke="rgb(189, 189, 189)" stroke-width="1px" opacity="0.25"></line><line x1="238.68685586111886" y1="0" x2="238.68685586111886" y2="176.89999961853027" fill="rgb(0, 0, 0)" stroke="rgb(189, 189, 189)" stroke-width="1px" opacity="0.25"></line><line x1="258.57742718287875" y1="0" x2="258.57742718287875" y2="176.89999961853027" fill="rgb(0, 0, 0)" stroke="rgb(189, 189, 189)" stroke-width="1px" opacity="0.25"></line><line x1="278.4679985046387" y1="0" x2="278.4679985046387" y2="176.89999961853027" fill="rgb(0, 0, 0)" stroke="rgb(189, 189, 189)" stroke-width="1px" opacity="0.25"></line></g><g><line x1="0" y1="176.89999961853027" x2="278.4679985046387" y2="176.89999961853027" fill="rgb(0, 0, 0)" stroke="rgb(189, 189, 189)" stroke-width="1px" opacity="0.25"></line><line x1="0" y1="159.20999965667724" x2="278.4679985046387" y2="159.20999965667724" fill="rgb(0, 0, 0)" stroke="rgb(189, 189, 189)" stroke-width="1px" opacity="0.25"></line><line x1="0" y1="141.51999969482418" x2="278.4679985046387" y2="141.51999969482418" fill="rgb(0, 0, 0)" stroke="rgb(189, 189, 189)" stroke-width="1px" opacity="0.25"></line><line x1="0" y1="123.82999973297119" x2="278.4679985046387" y2="123.82999973297119" fill="rgb(0, 0, 0)" stroke="rgb(189, 189, 189)" stroke-width="1px" opacity="0.25"></line><line x1="0" y1="106.13999977111814" x2="278.4679985046387" y2="106.13999977111814" fill="rgb(0, 0, 0)" stroke="rgb(189, 189, 189)" stroke-width="1px" opacity="0.25"></line><line x1="0" y1="88.44999980926514" x2="278.4679985046387" y2="88.44999980926514" fill="rgb(0, 0, 0)" stroke="rgb(189, 189, 189)" stroke-width="1px" opacity="0.25"></line><line x1="0" y1="70.75999984741209" x2="278.4679985046387" y2="70.75999984741209" fill="rgb(0, 0, 0)" stroke="rgb(189, 189, 189)" stroke-width="1px" opacity="0.25"></line><line x1="0" y1="53.06999988555905" x2="278.4679985046387" y2="53.06999988555905" fill="rgb(0, 0, 0)" stroke="rgb(189, 189, 189)" stroke-width="1px" opacity="0.25"></line><line x1="0" y1="35.37999992370601" x2="278.4679985046387" y2="35.37999992370601" fill="rgb(0, 0, 0)" stroke="rgb(189, 189, 189)" stroke-width="1px" opacity="0.25"></line><line x1="0" y1="17.689999961853044" x2="278.4679985046387" y2="17.689999961853044" fill="rgb(0, 0, 0)" stroke="rgb(189, 189, 189)" stroke-width="1px" opacity="0.25"></line><line x1="0" y1="0" x2="278.4679985046387" y2="0" fill="rgb(0, 0, 0)" stroke="rgb(189, 189, 189)" stroke-width="1px" opacity="0.25"></line></g></g></g><g><g><line x1="0" y1="424.5599990844726" x2="278.4679985046387" y2="424.5599990844726" fill="rgb(0, 0, 0)" stroke="rgb(153, 153, 153)" stroke-width="1.5px"></line></g></g><g><g><line x1="19.890571321759904" y1="0" x2="19.890571321759904" y2="176.89999961853027" fill="rgb(0, 0, 0)" stroke="rgb(153, 153, 153)" stroke-width="1.5px"></line></g></g><g><g><g><g><g><path style="fill: none;" stroke="rgb(51, 187, 238)" stroke-width="2px" d="M20.069586463655746,106.47147132802054L20.46739789009094,85.6719356959491L20.666303603308542,53.46094044660532L20.86520931652614,11.246268428542566L21.461926456178936,47.13362037201628L21.859737882614137,60.870488122959806L22.058643595831732,65.35150061662145L22.257549309049335,77.85129572551442L22.85426644870213,85.11192308958329L23.05317216191973,86.82776176768795L23.25207787513733,96.44040224767963L23.450983588354926,103.27679172578634L23.649889301572525,109.04199919113259L23.848795014790127,111.24383869410865L24.047700728007726,111.18488162123201L24.445512154442923,109.28253924466777L24.644417867660522,111.82328965510759L25.06211986541748,110.57703145121272L25.26102557863508,109.88242580495158L25.45993129185268,114.66511837336004L25.658837005070275,108.84801588856159L25.857742718287877,108.97644021336922L26.056648431505476,111.60670354632414L26.255554144723078,110.93075962516976L26.454459857940673,112.93089840228039L26.65336557115827,117.98434547969849L26.852271284375874,120.56510795861617L27.250082710811068,122.9556392736943L27.44898842402867,124.23157631787288L27.64789413724627,125.98350740522213L27.846799850463867,128.06946266024562L28.045705563681466,127.12932124350034L28.443516990116667,126.98598174966692L28.64242270333426,127.95873133218518L29.239139842987058,129.57128070408353L29.43804555620466,131.78924325653063L29.63695126942226,132.78740039023225L29.835856982639857,134.49797857992039L30.054653267179216,135.5559653178902L30.253558980396814,135.35596500267624L30.452464693614417,134.97725910207333L30.651370406832015,136.07797236243607L30.85027612004961,134.3044598548176L31.049181833267212,134.86279797781756L31.44699325970241,136.5650102094379L31.64589897292001,136.75381760587425L32.043710399355206,136.6431785845146L32.242616112572804,137.66058460550744L32.44152182579041,138.16270796887906L32.640427539008,139.7042364626131L33.038238965443206,140.5677912952775L33.237144678660805,140.6575311648514L33.436050391878396,140.56176251209072L33.634956105096,141.72449161071447L34.0327675315312,142.02374367856405L34.2316732447488,143.14946258647217L34.4305789579664,145.43574576386195L34.629484671183995,144.86821525704403L35.04718666894095,145.15778023981073L35.44499809537615,146.06504488561646L35.64390380859375,145.15727033447905L35.842809521811354,144.5273394338489L36.041715235028946,144.76600647503935L36.240620948246544,142.37659548508205L36.43952666146415,143.40193198346066L36.63843237468174,143.84642488819927L36.83733808789935,142.95592161831792L37.036243801116946,143.79634505837188L37.23514951433454,143.8649786292361L37.43405522755214,144.48994321075952L37.63296094076974,145.2247504328092L37.83186665398734,145.0048379259986L38.03077236720494,145.13617119101914L38.428583793640136,144.05152593038065L38.826395220075334,144.21054177989276L39.02530093329294,144.93426481476965L39.22420664651053,145.7924437623759L39.82092378616333,146.12556781263902L40.03972007070269,146.02105774935688L40.238625783920284,147.06551382492614L40.63643721035549,146.3985693190929L40.83534292357308,147.15272113925832L41.233154350008284,146.66092185053787L41.43206006322588,146.99765262279922L41.63096577644348,147.31933466349466L41.82987148966108,147.42117634490376L42.028777202878686,147.9249238608237L42.22768291609628,148.0170143457114L42.426588629313876,148.18291724709042L42.824400055749074,148.0589645070629L43.02330576896667,147.64485659926441L43.22221148218428,147.6515563455426L43.42111719540187,147.82785691385067L43.62002290861947,147.63841957009916L43.818928621837074,147.83889146148238L44.01783433505467,147.14801596366812L44.216740048272264,147.3898005512168L44.41564576148987,147.84702718498878L44.61455147470747,148.58587480778885L45.032253472464426,148.28303304869775L45.231159185682024,147.58631067395226L45.43006489889962,148.05631766088922L45.62897061211723,147.4444442531529L45.82787632533482,146.8620482880885L46.02678203855242,146.90959623219618L46.225687751770025,146.82338145878168L46.424593464987616,147.18735042159668L46.82240489142282,147.38120495591446L47.22021631785801,147.02845175771986L47.41912203107562,146.93567260037221L47.618027744293215,147.33979375872465L47.81693345751081,147.5817375628024L48.01583917072841,147.86292392463278L48.21474488394601,147.5212074162579L48.61255631038121,147.16451701773792L48.81146202359881,147.4190402021466L49.010367736816406,147.70375908833338L49.209273450034004,147.57133227550108L49.4081791632516,147.65170293701067L49.6070848764692,147.13250904104564L50.02478687422616,146.39076047896648L50.42259830066136,146.28990072381677L50.621504013878955,146.3831587988582L50.82040972709655,146.73671343209074L51.21822115353176,147.30554369152065L51.417126866749356,147.37474307180884L51.616032579966955,147.78220164993738L51.814938293184554,147.4258465725125L52.01384400640215,147.22283434087217L52.21274971961975,147.46315956235225L52.41165543283735,147.69173271756637L52.61056114605495,147.781486127418L52.80946685927255,147.84826818737898L53.008372572490146,148.0168557546186L53.207278285707744,147.78875735024644L53.60508971214295,147.7373024699287L53.80399542536055,147.37306848921895L54.00290113857814,147.9633366538592L54.201806851795745,147.251519903455L54.40071256501334,147.0837747626679L54.79852399144854,147.4759385086569L55.0173202759879,147.03517473652454L55.2162259892055,146.9800380197424L55.415131702423096,147.34100204946762L55.614037415640695,147.28292941302726L56.01184884207589,147.589189268342L56.21075455529349,147.69041947853233L56.40966026851109,147.66847437749547L56.608565981728695,148.1631221820552L56.80747169494629,147.5090306146928L57.006377408163885,147.52957134954468L57.20528312138149,147.44491462766243L57.80200026103429,147.90108491307015L58.000905974251886,147.77282350197788L58.19981168746948,147.12648220311218L58.39871740068708,147.44648607945967L58.59762311390468,147.8821225024861L58.99543454033988,148.43604883291584L59.393245966775076,148.51406669019005L59.592151679992675,148.8229580733633L59.791057393210274,149.23523577473412L60.00985367774963,149.74624893544777L60.40766510418483,149.63059318567426L60.60657081740243,149.40356697039343L60.805476530620034,149.81423673717083L61.00438224383763,149.7117077777316L61.203287957055224,150.4962388612308L61.40219367027283,150.69577178048038L61.60109938349043,151.04117075507205L61.80000509670802,151.27864839628518L61.998910809925626,151.50826316780777L62.197816523143224,150.96571683540068L62.59562794957842,150.69758735663342L62.79453366279602,150.88894235285423L62.99343937601362,151.00559865444444L63.19234508923122,151.0835111398092L63.59015651566642,151.1348502819929L63.78906222888401,150.80838947272343L63.98796794210161,151.2300659309945L64.18687365531922,151.7545302847543L64.38577936853682,151.18718443575617L64.58468508175442,151.41613477067807L64.78359079497201,151.38324790298827L65.00238707951137,151.31970803139458L65.20129279272898,151.3508294159783L65.79800993238177,151.75388805544273L65.99691564559936,151.22680063268933L66.19582135881696,151.28902993256716L66.39472707203457,151.09707292176208L66.59363278525215,150.35435694103035L66.79253849846975,150.262323276617L66.99144421168737,150.59822532607194L67.19034992490496,150.37647193897593L67.38925563812256,150.87772844063235L67.58816135134016,151.0416211503625L67.78706706455776,150.53317435085117L68.18487849099296,150.71937707604494L68.38378420421056,150.85418086134834L68.78159563064575,151.02472583206398L68.98050134386335,151.21377270630313L69.17940705708095,151.4863109567274L69.37831277029855,151.1763318173635L69.57721848351615,150.85298886967232L69.77612419673375,150.6697254452774L70.39273190770831,150.85057663595217L70.59163762092591,150.7759852710487L70.7905433341435,150.93595940994015L70.9894490473611,150.78877556763936L71.38726047379629,150.94075833410028L71.5861661870139,151.126970779124L71.7850719002315,151.05365950616562L71.9839776134491,150.70338331486818L72.3817890398843,150.8261328624645L72.58069475310188,150.78661629633345L72.97850617953709,150.36754154367327L73.37631760597229,150.54632313191746L73.57522331918989,150.13345120801853L73.97303474562509,150.47838821207563L74.17194045884268,150.02887055554916L74.56975188527788,150.1676936097289L74.7686575984955,150.3934357817987L74.98745388303485,150.6252134402431L75.18635959625244,150.7588740979909L75.58417102268763,151.04850706345866L75.78307673590524,151.04044392886064L75.98198244912284,151.49268333907594L76.18088816234044,151.73078479581474L76.37979387555804,151.99589509522096L76.57869958877563,151.60017833578135L76.77760530199323,152.04179772895208L76.97651101521083,152.0647455185967L77.17541672842843,152.5623512448985L77.37432244164603,152.35418281940096L77.57322815486363,152.45908626551096L77.77213386808124,152.03685746187585L77.97103958129884,152.27009558560007L78.16994529451642,152.39166133296942L78.96556814738683,152.6460920402942L79.16447386060443,152.5024640437502L79.36337957382202,152.17244468241697L79.56228528703961,152.33966916670764L79.76119100025721,152.37560482166168L79.97998728479658,152.3961566697805L80.17889299801418,152.68992642113676L80.57670442444937,153.13498735557584L80.77561013766697,153.25008021227862L80.97451585088457,153.39063313875542L81.17342156410217,153.35436061885252L81.37232727731977,153.83409359394182L81.57123299053737,153.53753915131423L81.77013870375497,153.6815300013254L82.16795013019018,153.72954410805633L82.36685584340776,153.7937669622022L82.56576155662536,153.2514811884318L82.76466726984296,153.06202245814623L82.96357298306056,152.7720311471133L83.16247869627817,152.5612101910043L83.56029012271335,152.5248963231006L83.75919583593095,152.48278159717893L83.95810154914855,152.4525819146022L84.15700726236616,152.33631978136575L84.35591297558376,152.33753759538348L84.75372440201896,152.45042983528793L84.97252068655833,152.42465901032597L85.37033211299351,152.37248304207787L85.7681435394287,152.33517463606478L85.9670492526463,151.81329715071854L86.16595496586392,152.1287566612633L86.36486067908152,152.0268323642918L86.5637663922991,152.26086100027862L86.7626721055167,152.47658935451543L87.16048353195191,152.1032744565639L87.35938924516951,152.27472377072345L87.55829495838711,152.31267511915323L87.95610638482229,152.31898049768347L88.15501209803989,152.36702909115044L88.3539178112575,152.60849151641273L88.5528235244751,152.82284233900916L88.7517292376927,153.0396072932989L88.9506349509103,153.2416198910648L89.14954066412788,152.91520184884328L89.3484463773455,152.92388231367568L89.5473520905631,153.15268521759813L89.7462578037807,153.39013324675562L89.96505408832004,153.03317085459426L90.36286551475526,152.985712962877L90.56177122797286,153.35395073725581L90.76067694119044,153.37877014547402L90.95958265440804,153.1452826256201L91.35739408084325,153.10671292720963L91.55629979406085,152.88473096798035L91.95411122049605,152.90914137838158L92.15301693371363,152.88727884572128L92.35192264693123,152.96088832540724L92.55082836014884,152.74051070485925L92.74973407336644,153.02826621354535L92.94863978658404,153.11199890627657L93.14754549980164,153.16800192417298L93.34645121301922,153.2043580978958L93.54535692623683,153.52983131394768L93.74426263945443,153.75792837668027L94.53988549232484,153.58226026318383L94.73879120554243,153.5465353307389L94.95758749008179,153.7029259588319L95.35539891651698,153.6614719465439L95.55430462973459,153.8076381109376L96.15102176938738,153.78614193453123L96.34992748260497,153.63310279880525L96.74773890904018,153.5528214759796L96.94664462225778,153.57633807325092L97.14555033547538,153.75935013171562L97.74226747512817,153.2704110938357L97.94117318834577,153.24969680432972L98.14007890156337,153.47129705822715L98.33898461478097,153.32026106274083L98.53789032799857,153.49449943414308L98.73679604121618,153.4380396324752L98.93570175443377,153.37729183251471L99.13460746765136,153.68545601699964L99.33351318086896,153.5812149694261L99.53241889408656,153.44575551440298L99.73132460730416,153.77652033571655L99.95012089184353,153.42316394540492L100.14902660506112,153.37355106417542L100.34793231827872,153.548850935838L100.54683803149632,153.86510655756427L100.74574374471392,154.0642457084383L100.94464945793152,154.1809160791812L101.14355517114912,154.0095870569181L101.34246088436672,154.1535729142607L101.54136659758431,154.0079602891538L101.74027231080193,153.69820701169988L101.93917802401951,153.71116963958585L102.33698945045471,153.85025727680855L102.53589516367231,154.19063036019077L102.7348008768899,154.23311246044528L102.93370659010752,154.33129952999477L103.5304237297603,154.19669569315985L103.7293294429779,153.9003769519002L103.92823515619551,154.00748785639013L104.12714086941311,153.97777004521728L104.32604658263071,154.15479963478697L104.5249522958483,154.16234836664884L104.72385800906589,153.7564709858781L104.94265429360526,154.01949169110856L105.14156000682286,153.9665445917615L105.34046572004046,154.24354149338916L105.73827714647565,154.20135490732068L105.93718285969327,154.14379443412616L106.13608857291085,154.11837919674815L106.73280571256365,154.1731937389176L106.93171142578126,154.21601810591517L107.13061713899886,154.22928805636903L107.32952285221646,154.08942838622465L107.52842856543404,154.08378034353532L107.72733427865164,154.10907645334993L107.92623999186924,154.27925244925262L108.12514570508685,153.95450929979253L108.52295713152205,154.18770387867724L108.72186284473963,154.36015696901615L108.92076855795723,154.62271371572862L109.11967427117484,154.45746335355796L109.93518769536699,154.65504063459508L110.1340934085846,154.86173692145513L110.3329991218022,154.8003148203721L110.53190483501979,154.5568457450275L110.73081054823739,154.33711270073783L110.92971626145498,154.4256114473482L111.1286219746726,154.5216078911479L111.5264334011078,154.6235325762655L111.92424482754298,154.6988386781232L112.12315054076058,154.69677104903099L112.32205625397819,154.73971136485838L112.52096196719579,154.78294270030753L112.71986768041339,154.73502057536086L112.91877339363099,154.478690689487L113.11767910684857,154.61284446764145L113.51549053328378,154.71720676384754L113.71439624650138,154.37390060284287L113.91330195971898,154.4602022037894L114.11220767293658,154.47309315430257L114.51001909937177,154.5301096180075L114.70892481258937,154.27351423248422L114.92772109712872,154.29442267627277L115.52443823678153,154.24453258480182L115.72334394999913,154.5498007742727L115.92224966321672,154.5248570498066L116.12115537643432,154.22458427608154L116.32006108965193,154.37199531301857L116.51896680286953,154.50196519068172L116.71787251608713,154.49675694808963L117.11568394252232,154.2628540525539L117.31458965573991,154.18845066067067L117.51349536895752,154.30659965705283L117.71240108217512,154.5455548383023L117.91130679539272,154.57926383663616L118.11021250861032,154.75408784159387L118.70692964826311,154.76863364615244L118.90583536148071,154.95316423930146L119.30364678791591,155.19401493115188L119.50255250113351,154.95696002015717L119.70145821435112,155.10006413445242L120.11916021210807,155.01836291646816L120.31806592532566,155.20665617685103L120.51697163854327,155.12264688891378L121.11368877819606,155.28283268444542L121.31259449141366,155.25098144831304L121.51150020463125,155.4750810953126L121.71040591784886,155.37490253208742L121.90931163106646,155.50241617375417L122.10821734428406,155.56259957985466L122.30712305750166,155.45283418935668L122.50602877071925,155.5602537414944L122.70493448393687,155.7081825391817L123.10274591037205,155.81098167150867L123.30165162358965,155.6684588537399L123.50055733680725,155.59683597782467L123.69946305002486,155.65376710622112L123.89836876324246,155.72590798461886L124.09727447646004,155.8310062182801L124.49508590289524,155.92590052780614L125.1116936138698,156.12494532599794L125.3105993270874,155.66502545282836L125.509505040305,155.6600415556139L125.9073164667402,155.6286306843147L126.1062221799578,155.59307551561045L126.3051278931754,155.7472993557137L126.504033606393,155.7353289198119L126.7029393196106,155.39231415235938L126.9018450328282,155.55145903460422L127.10075074604579,155.48954923185383L127.29965645926339,155.50100449800914L127.49856217248099,155.68155565922004L127.69746788569859,155.86121646370555L127.8963735989162,155.63640874437647L128.09527931213378,155.63092869233222L128.29418502535137,155.64578057902867L128.49309073856898,155.68627123040977L128.6919964517866,155.52744647293804L129.0898078782218,155.34774323603386L129.28871359143938,155.358431459637L129.487619304657,155.60047477649314L129.90532130241394,155.3367042295629L130.30313272884914,155.49575829126044L130.50203844206675,155.5248178894141L130.70094415528433,155.51348557318894L130.89984986850195,155.6863504174276L131.09875558171953,155.6271252406026L131.49656700815473,155.63198974740783L131.69547272137234,155.4246739358584L131.89437843458992,155.36315966585335L132.09328414780754,155.23970262888218L132.29218986102512,155.19992365946806L132.49109557424273,154.8605631734725L132.69000128746032,154.90016289727438L133.08781271389552,154.66643012685765L133.28671842711313,154.5845847208979L133.4856241403307,154.6812150274262L133.68452985354833,154.74078719288946L133.8834355667659,154.8305749041335L134.08234127998352,154.6420611744359L134.2812469932011,154.77795740030103L134.48015270641872,154.87100325033776L134.89785470417567,154.91033568247747L135.09676041739328,155.0857663436563L135.29566613061087,155.04112862419765L135.89238327026368,155.09823310272276L136.68800612313407,155.191097188015L136.88691183635166,154.8782827524552L137.08581754956927,154.85367539225993L137.48362897600447,154.711858398608L137.68253468922205,154.7855394199093L137.88144040243967,154.64359655642366L138.08034611565725,154.6652260510772L138.27925182887486,154.5782795306786L138.47815754209245,154.68523551154328L138.67706325531006,154.71017356368836L138.87596896852767,154.90567845999422L139.07487468174526,155.193503152599L139.27378039496284,155.03615887142197L139.47268610818045,155.21274569006553L139.67159182139804,155.14827592731993L140.08929381915502,155.3269437367368L140.2881995323726,155.41641654895975L140.4871052455902,155.16877608486092L140.6860109588078,155.25873210830977L140.8849166720254,155.10087783458198L141.08382238524302,155.2461973061929L141.2827280984606,155.33489555306895L141.48163381167822,155.34591499430854L141.6805395248958,155.49812698225605L141.8794452381134,155.56093822509095L142.2772566645486,155.40970482712436L142.4761623777662,155.39551868567102L142.67506809098379,155.27811786418877L142.87397380420143,155.168379908065L143.072879517419,155.23300968420924L143.2717852306366,155.27653939288587L143.4706909438542,155.29370080345586L143.6695966570718,155.2303823917103L143.8685023702894,155.47321548908354L144.067408083507,155.62013866400284L144.26631379672457,155.6685661625364L144.4652195099422,155.57986661736044L144.88292150769914,155.52930422854968L145.08182722091675,155.55327283853882L145.28073293413433,155.689318339009L145.47963864735195,155.4367896099231L145.67854436056953,155.2576304339935L146.27526150022234,155.37907547329206L146.47416721343996,155.5113175609685L146.67307292665754,155.7284673758404L146.87197863987515,155.89037262101195L147.07088435309274,155.9328063013919L147.26979006631032,155.98872430679333L147.66760149274552,156.02103031806809L147.86650720596313,156.26137640182927L148.06541291918072,156.3159576718176L148.26431863239836,156.34715152182747L148.46322434561594,156.28504569261898L148.66213005883353,156.4891974055388L148.86103577205114,156.5780788078281L149.05994148526872,156.73008373171425L149.45775291170392,156.59769652738706L149.65665862492153,156.57752705170577L150.07436062267848,156.49418639793393L150.27326633589607,156.47250050638135L150.47217204911368,156.41688467401391L150.67107776233127,156.45602213179276L150.86998347554888,156.3654599008528L151.4667006152017,156.25383395774645L151.66560632841927,156.1587736888965L151.86451204163689,156.11441945076106L152.06341775485447,156.13362020734363L152.46122918128967,156.21422466272338L152.85904060772486,156.20968952273694L153.25685203416006,155.91793543442225L153.6546634605953,156.05351769185557L153.85356917381287,156.04942309483187L154.05247488703048,156.10316675502926L154.25138060024807,156.24383786266492L154.45028631346565,156.18496302332042L154.86798831122263,156.1950023552587L155.06689402444022,156.25904663289398L155.26579973765783,156.10046018251467L155.4647054508754,156.1844582762141L155.66361116409303,156.2805177941288L155.8625168773106,156.21148226109023L156.2603283037458,156.28807547324064L156.4592340169634,156.34605850613963L156.65813973018103,156.48375023998003L156.85704544339862,156.47979958438623L157.25485686983382,156.4266967651964L157.4537625830514,156.45426574975906L157.652668296269,156.4682338764594L157.8515740094866,156.19755254892368L158.2493854359218,156.38440905734302L158.44829114913938,156.65373388974794L158.64719686235702,156.67620560285906L158.8461025755746,156.606724025456L159.04500828879222,156.75749444074341L159.2439140020098,156.9071442781181L159.44281971522742,156.94131117330735L159.641725428445,156.9225012050538L159.86052171298437,156.91064255859726L160.25833313941956,156.75382338670036L160.45723885263715,156.70925217451773L160.85505027907234,156.7348926792926L161.05395599228996,156.71056905126042L161.25286170550754,156.85084800721404L161.45176741872513,156.73773529994955L161.65067313194277,156.75062739740844L161.84957884516035,156.8048326178511L162.04848455837796,156.9002441308196L162.24739027159555,156.9506764903358L162.44629598481316,156.74071946341596L162.84410741124833,156.79921302635591L163.04301312446594,156.7179242491592L163.24191883768353,156.86305961289924L163.44082455090114,156.82688686866462L163.63973026411873,156.64978430413478L163.83863597733637,156.50079253064672L164.03754169055395,156.5745713343021L164.23644740377154,156.73610352972293L164.43535311698915,156.717737206785L164.63425883020673,156.6095758443239L164.8530551147461,156.5911495849639L165.0519608279637,156.78000822423797L165.2508665411813,156.80831494606284L165.4497722543989,156.85854193150752L165.6486779676165,156.8887242072775L165.84758368083408,156.94137792921813L166.0464893940517,157.01690278579892L166.24539510726927,157.1516340292098L166.4443008204869,156.84560329539818L166.64320653370447,156.81103373841648L166.84211224692206,156.7777789440071L167.0410179601397,156.6583990214821L167.4388293865749,156.80898072223073L167.63773509979248,156.8661613807748L167.8366408130101,156.79997838494918L168.23445223944526,156.5353222890644L168.43335795266287,156.44223585976755L168.63226366588046,156.13821057150577L168.83116937909807,155.9878639622337L169.03007509231566,155.95036055911845L170.04449422972544,156.05139332877573L170.24339994294303,156.05969265016267L170.44230565616064,156.0034195228156L170.84011708259584,156.07977330760144L171.03902279581342,155.94270997294493L171.237928509031,155.91324458836488L171.43683422224862,155.9475334266871L171.6357399354662,155.9414442350008L172.0335513619014,155.9638441847405L172.23245707511904,156.15582582108593L172.43136278833663,156.23194021076367L172.6302685015542,156.27874136246535L172.82917421477183,156.24280615585414L173.0280799279894,156.31780919060222L173.22698564120702,156.22143190543935L173.4258913544246,156.24830050174572L173.62479706764222,156.35031090347388L173.8237027808598,156.3182201018854L174.0226084940774,156.50346687203887L174.22151420729503,156.55971010821628L174.42041992051261,156.59538497656692L174.83812191826956,156.70280576349725L175.03702763148715,156.69235746215554L175.2359333447048,156.91413008802968L175.43483905792237,157.02137101868126L175.63374477113996,157.07269218687694L175.83265048435757,157.1121134083492L176.03155619757516,157.2621332359365L176.23046191079277,157.12409949295508L176.42936762401035,157.11561167823902L177.02608476366314,157.17503512559838L177.22499047688075,157.27074913772424L177.42389619009836,157.18587484643845L177.62280190331597,157.17643462458642L177.82170761653356,157.10173639516418L178.02061332975114,157.06625088364936L178.41842475618634,157.02056915436285L178.61733046940395,157.0419986604063L178.81623618262154,157.1319607249867L179.01514189583915,157.09883229346644L179.21404760905673,157.17724640584797L179.41295332227432,157.18850654749298L179.61185903549196,157.26754786310966L179.8306553200313,157.39906019544375L180.2284667464665,157.47321881561362L180.4273724596841,157.5443804462729L180.62627817290172,157.63896445607742L180.8251838861193,157.59710387925415L181.0240895993369,157.49627300112314L181.2229953125545,157.61340909678552L181.4219010257721,157.47741150136912L181.6208067389897,157.50628578083138L181.81971245220728,157.25039913245155L182.0186181654249,157.3283694668931L182.41642959186007,157.42068499087114L182.6153353050777,157.46918259961814L182.8142410182953,157.4420501661854L183.2120524447305,157.4051236365896L183.4109581579481,157.45891096138095L183.6098638711657,157.3274661561833L183.80876958438327,157.33767150974685L184.00767529760088,157.3979830367109L184.20658101081847,157.3629976864471L184.40548672403608,157.35395491969697L184.60439243725367,157.43591406086938L184.82318872179303,157.39580783867487L185.02209443501064,157.2795485445303L185.22100014822823,157.22240985055106L185.4199058614458,157.05679942352225L185.61881157466345,156.94399825295042L185.81771728788104,157.02552191472287L186.21552871431624,157.1352246495028L186.41443442753385,157.00610563131406L186.61334014075143,157.10225074222825L186.81224585396902,157.08434402441836L187.01115156718663,156.96022429170884L187.21005728040421,157.0015470920984L187.6078687068394,156.9863219914705L187.806774420057,156.84961983798988L188.20458584649222,156.77596359806006L188.40349155970983,156.75692217883403L188.80130298614503,156.74597251441656L189.1991144125802,156.78316046722296L189.81572212355476,156.8302895645456L190.01462783677238,156.78848276960179L190.61134497642516,156.5960264897451L190.81025068964274,156.53872844875488L191.00915640286038,156.50825991662663L191.20806211607797,156.40649834425082L191.40696782929558,156.28725184706875L191.80477925573078,156.20813065513653L192.00368496894836,156.2613738975439L192.20259068216595,156.33405992124383L192.79930782181876,156.46683826141114L192.99821353503637,156.64456166450776L193.39602496147157,156.60558837789992L193.59493067468915,156.49361715097044L193.79383638790677,156.526767889244L193.99274210112435,156.421282327854L194.19164781434196,156.2796603839853L194.39055352755955,156.2134868244267L194.58945924077713,156.1214835819575L195.0071612385341,156.15348037770136L195.2060669517517,156.1237149066945L195.4049726649693,156.17874839011327L195.8027840914045,156.27908476490865L196.0016898046221,156.36098301870663L196.20059551783973,156.3457375954452L196.39950123105731,156.24889403146116L196.5984069442749,156.17678793043183L196.7973126574925,156.10855631743686L196.9962183707101,156.01928946383754L197.1951240839277,156.11872417649528L197.3940297971453,156.04921401999746L197.59293551036288,156.05050770568448L197.7918412235805,156.0076207843857L198.18965265001572,156.1290914264494L198.3885583632333,156.23604785918394L198.7863697896685,156.22787094839646L199.1841812161037,156.18854429085007L199.38308692932128,156.29330377499392L199.99969464029584,156.42944126580622L200.19860035351346,156.5052021580448L200.59641177994862,156.35894272733833L200.79531749316624,156.39546940934682L200.99422320638382,156.39842999076737L201.19312891960146,156.45643808328526L201.39203463281905,156.54138212035525L201.78984605925424,156.56855828265458L201.98875177247183,156.49818751588552L202.38656319890703,156.50832478752227L202.58546891212464,156.54683943430004L202.98328033855984,156.63521952775596L203.18218605177742,156.661394622184L203.381091764995,156.65193307533644L203.57999747821265,156.6815835411327L203.77890319143023,156.4760680791125L203.97780890464784,156.40084399525324L204.17671461786543,156.47287012068873L204.375620331083,156.7412952097749L204.57452604430063,156.62454944200644L204.99222804205758,156.70826603539078L205.1911337552752,156.71806510154053L205.39003946849277,156.6783145001764L205.5889451817104,156.7447974809545L205.78785089492797,156.91814286774598L205.98675660814558,156.9461547526561L206.18566232136317,157.138130470735L206.38456803458075,157.34356556696773L206.5834737477984,157.46849301643218L206.78237946101598,157.5937210166043L207.18019088745118,157.68591504532768L207.57800231388637,157.6848822943166L207.77690802710396,157.6769498107744L207.97581374032157,157.52905884390387L208.17471945353915,157.61310661672897L208.37362516675677,157.5285966278815L208.57253087997435,157.51786841217523L208.77143659319196,157.65307364222784L208.97034230640958,157.72892210521104L209.16924801962716,157.63371416234548L209.36815373284477,157.75461378301534L209.56705944606236,157.7327168115374L209.78585573060172,157.8036633372365L210.18366715703692,157.62190453743645L210.58147858347212,157.59659887337224L210.7803842966897,157.64828808148238L210.97929000990732,157.53862610100023L211.1781957231249,157.55033267145905L211.5760071495601,157.52451074647465L211.7749128627777,157.63710760637028L211.97381857599532,157.7518232273298L212.1727242892129,157.87746092906573L212.37163000243052,157.84837354954328L212.5705357156481,157.9179578936881L212.76944142886572,157.9574969631355L213.1672528553009,157.96314980622245L213.3661585685185,158.05289962795365L213.9628757081713,158.25476208527704L214.1617814213889,158.28623267251368L214.77838913236343,158.41627894747796L214.97729484558107,158.5847492599877L215.17620055879866,158.72383207452543L215.37510627201627,158.7407478674087L215.57401198523385,158.80858732765816L215.77291769845147,158.90371792815733L215.97182341166905,158.86337738364176L216.17072912488663,158.8582661442055L216.36963483810425,158.82938191037968L216.96635197775706,158.9386339131562L217.16525769097464,158.99748302530344L217.36416340419225,159.03647188896926L217.56306911740984,159.0527824537684L217.76197483062745,159.07862416985157L218.15978625706265,159.08634923301636L218.35869197028023,159.13791427849162L218.55759768349782,159.23532920171806L218.75650339671543,159.20701814647126L218.95540910993302,159.2105112292026L219.35322053636824,158.9980408953546L219.55212624958585,158.83679684399468L219.7709225341252,158.82360505130262L219.9698282473428,158.94377883501528L220.1687339605604,158.9411682428068L220.367639673778,158.80840926365863L220.56654538699559,158.77085952070706L220.7654511002132,158.9300790061304L220.96435681343078,158.91305707216102L221.1632625266484,159.00783550208834L221.56107395308356,159.10174385184504L221.95888537951876,159.1220927875695L222.356696805954,159.0651552297381L222.5556025191716,159.05811792374982L222.75450823238918,159.06262934874314L222.95341394560677,158.79168815764174L223.15231965882438,158.69561135962724L223.74903679847716,158.6717411749568L224.14684822491236,158.6775006262843L224.34575393812995,158.65218175027474L224.76345593588692,158.5965532883056L224.9623616491045,158.65174812747983L225.16126736232215,158.73583493019203L225.36017307553973,158.72606528981632L225.55907878875735,158.7388078100153L225.95689021519252,158.78289153526305L226.7525130680629,158.68632310269462L226.9514187812805,158.698306152657L227.1503244944981,158.73302936020784L227.3492302077157,158.5609689301638L227.54813592093333,158.5723887862028L228.3437587738037,158.57725052838381L228.5426644870213,158.4667679399604L228.7415702002389,158.44987439536337L228.9404759134565,158.38452205773328L229.3382873398917,158.35231768261474L229.53719305310932,158.32414427919872L229.75598933764866,158.2342568603407L230.15380076408385,158.2441595651028L230.35270647730144,158.0785308859166L230.55161219051908,157.9513773849536L230.94942361695428,157.84513191244L231.34723504338945,157.88212055884756L231.54614075660706,157.85772294464508L231.74504646982464,157.98291586227532L232.14285789625984,157.87110042085135L232.34176360947745,157.83995898532467L232.54066932269504,157.74314463079136L232.73957503591265,157.76988735790232L232.93848074913026,157.8471309257658L233.13738646234785,157.8095032983647L233.33629217556546,157.78175292555485L233.53519788878305,157.6924008048084L233.73410360200063,157.6865258520397L233.93300931521824,157.75022488295056L234.13191502843583,157.70604667292878L234.33082074165344,157.8580689527034L234.52972645487102,157.88434866504736L234.947428452628,157.87026880560782L235.1463341658456,157.82350353608592L235.3452398790632,157.7613330399193L235.7430513054984,157.85235712143052L235.941957018716,157.88190173916686L236.1408627319336,157.65654196724526L236.3397684451512,157.6849731825283L236.73757987158638,157.82334063187417L236.936485584804,157.8106057407368L237.13539129802157,157.82286659566032L237.3342970112392,157.66518412155136L237.931014150892,157.72596734975704L238.12991986410958,157.77043430143152L238.3288255773272,157.63924344244307L238.52773129054478,157.6329948587536L239.32335414341517,157.70736209869452L239.74105614117212,157.6533840436998L239.93996185438974,157.62418748892455L240.13886756760732,157.64299786164494L240.33777328082493,157.69323945967236L240.53667899404252,157.6203205041844L240.73558470726013,157.66059823722824L240.93449042047774,157.53331677535155L241.13339613369533,157.4112399827437L241.33230184691294,157.59077816900285L241.53120756013053,157.66503100755324L241.73011327334814,157.67376622290283L241.92901898656572,157.58409479385014L242.12792469978334,157.6894798443951L242.32683041300092,157.64383050431275L242.5257361262185,157.5892934213386L242.9235475526537,157.62255244598887L243.12245326587134,157.67520590581688L243.32135897908893,157.52677805847492L243.52026469230654,157.53452099586477L243.71917040552412,157.53204865390072L243.9180761187417,157.4492939352764L244.11698183195932,157.44457421406506L244.73358954293388,157.36399732317165L244.93249525615147,157.34606806328705L245.33030668258667,157.49590546765174L245.52921239580425,157.35433714892903L245.72811810902186,157.38648507614877L245.92702382223945,157.09921831647335L246.1259295354571,157.17782049378235L246.32483524867467,157.11703624608043L246.52374096189226,157.1565667319559L246.72264667510987,157.18075987075142L246.92155238832746,157.2469897548261L247.12045810154507,157.44832020138097L247.51826952798027,157.45656389634533L247.71717524119785,157.49234473225007L248.11498666763305,157.55193168168668L248.31389238085066,157.51004494625593L248.71170380728586,157.52525780828498L248.91060952050347,157.61351419678252L249.10951523372105,157.60013593692267L249.30842094693864,157.54232140046454L249.50732666015625,157.70430654878746L249.72612294469562,157.86157623900462L249.9250286579132,157.74399501378133L250.12393437113082,157.88728637647634L250.3228400843484,157.96193179700663L250.7206515107836,157.83912818675404L250.91955722400118,157.6616142635879L251.1184629372188,157.6845510952598L251.51627436365402,157.7094152210427L251.7151800768716,157.55626594806756L251.91408579008922,157.62973537678084L252.1129915033068,157.6541559864621L252.3118972165244,157.53984985085881L252.510802929742,157.575273572798L252.70970864295958,157.65279150263714L252.9086143561772,157.6432500220598L253.10752006939478,157.63878756344536L253.3064257826124,157.5986080869053L254.1020486354828,157.58587618842935L254.3009543487004,157.5854960165291L254.49986006191799,157.5836378310508L254.91756205967496,157.76244787529055L255.11646777289255,157.57211936165865L255.31537348611013,157.60515080688333L255.51427919932775,157.6297878143519L255.71318491254533,157.70539814588355L255.91209062576294,157.64026929778393L256.11099633898056,157.53284058500915L256.5088077654157,157.60924085725534L256.7077134786333,157.5707106652372L256.90661919185095,157.57855527598707L257.3044306182861,157.68238734592694L257.5033363315037,157.7702856965323L257.70224204472134,157.8196822659817L257.90114775793893,157.80424108661862L258.29895918437416,157.8207765011646L258.49786489759174,157.82269939644496L258.6967706108093,157.68367013646395L258.8956763240269,157.5342013143306L259.0945820372445,157.5013223946515L259.29348775046213,157.4803948264655L259.9100954614367,157.48627717738592L260.1090011746543,157.46647909468768L260.70571831430703,157.4822393444346L260.9046240275247,157.44348595278447L261.10352974074226,157.38023899675966L261.5013411671775,157.35636729055213L261.70024688039507,157.37034144321848L261.89915259361265,157.31775300553986L262.2969640200479,157.30723165604024L262.49586973326547,157.21116521634994L262.69477544648305,157.22361569308825L263.0925868729183,157.19205046193252L263.29149258613586,157.28330691519778L263.49039829935344,157.22790710371015L263.6893040125711,157.2720692986462L263.88820972578867,157.18038479664853L264.08711543900625,157.27323494213726L264.28602115222384,157.29298957305406L264.7037231499808,157.27406105367217L265.3004402896336,157.34825785036878L265.4993460028512,157.21091357347518L266.096063142504,157.2299427370014L266.2949688557216,157.3000438578677L266.4938745689392,157.17891876031985L266.69278028215683,157.24897606602522L266.8916859953744,157.3227796910175L267.2894974218096,157.43464404405927L267.48840313502717,157.34881898001825L267.6873088482448,157.47855181601486L267.8862145614624,157.55884482044476L268.08512027468004,157.46648932641006L268.2840259878976,157.51115294536066L268.4829317011152,157.58246390564796L268.6818374143328,157.595993585537L268.8807431275504,157.6054336806477L269.079648840768,157.6862732106975L269.2785545539856,157.83140640105154L269.4774602672032,157.78511061694815" fill="none"></path></g></g></g></g><g opacity="0.2"><g><g><g><path style="fill: none;" stroke="rgb(51, 187, 238)" stroke-width="2px" d="M20.069586463655746,106.47147132802054L20.46739789009094,64.89319959951952L20.666303603308542,-10.864449277337751L21.461926456178936,190.32451332058426L21.859737882614137,129.34904839279224L22.058643595831732,92.14363099493796L22.257549309049335,165.00056633892686L22.85426644870213,142.93616839580326L23.05317216191973,102.19330267088328L23.25207787513733,192.0396947391192L23.649889301572525,177.7764473276312L23.848795014790127,139.66818410795904L24.047700728007726,110.36564634842405L24.445512154442923,80.97462282362274L24.644417867660522,152.13147584534235L25.06211986541748,89.58030634636323L25.26102557863508,97.49763134912662L25.45993129185268,204.63299475649941L25.658837005070275,-6.280144334601952L25.857742718287877,111.64388185267906L26.056648431505476,168.81167524174597L26.255554144723078,95.56924900427073L26.454459857940673,160.33876254315155L26.65336557115827,242.69121585963748L27.250082710811068,186.60414661222202L27.44898842402867,159.4444152350139L27.64789413724627,176.03448399253566L27.846799850463867,189.6874622045378L28.045705563681466,98.44661798467253L28.443516990116667,122.4740249710713L28.64242270333426,159.51953113012323L29.239139842987058,183.44896269578143L29.43804555620466,208.0363226195294L29.63695126942226,168.06397474287004L29.835856982639857,196.60114015622375L30.054653267179216,174.98507571394916L30.253558980396814,127.70999509928386L30.452464693614417,120.13556298098918L30.651370406832015,180.27201583611995L30.85027612004961,61.39674658410248L31.049181833267212,158.35046884006837L31.44699325970241,209.80106112776306L31.64589897292001,145.05757033300492L32.043710399355206,131.67160993792422L32.242616112572804,184.34843441787515L32.44152182579041,161.6832780188632L32.640427539008,213.38062243701106L33.038238965443206,182.66227025696807L33.237144678660805,145.1172286337529L33.436050391878396,135.71154606641184L33.634956105096,201.71374476327136L34.0327675315312,157.74671587067482L34.2316732447488,203.3611911298436L34.4305789579664,269.8846987781489L34.629484671183995,113.4398307833613L35.04718666894095,161.46638667096894L35.44499809537615,198.0184096572378L35.64390380859375,92.31982226490943L35.842809521811354,107.26927720780039L36.041715235028946,159.10658350013145L36.240620948246544,-3.437296612003063L36.43952666146415,206.93486885269758L36.63843237468174,171.80504998828937L36.83733808789935,86.10962301758953L37.036243801116946,198.2316738479286L37.23514951433454,148.37458450746598L37.43405522755214,186.13685488854784L37.63296094076974,194.8765534347077L37.83186665398734,129.94025392883654L38.03077236720494,154.25504985924144L38.428583793640136,67.7329684561201L38.826395220075334,155.54699264362588L39.02530093329294,197.2008442059483L39.22420664651053,208.56464337196448L39.82092378616333,170.8006226766507L40.03972007070269,138.183158466859L40.238625783920284,226.36124801460264L40.63643721035549,95.14809809432457L40.83534292357308,205.79996932234994L41.233154350008284,107.96267578924046L41.43206006322588,173.80390884113385L41.63096577644348,173.22335280734396L41.82987148966108,155.71569762983435L42.028777202878686,189.41498256368786L42.22768291609628,155.68625860974097L42.426588629313876,162.15113912186584L42.824400055749074,137.50935075194238L43.02330576896667,112.02169666929292L43.22221148218428,148.23401107770778L43.42111719540187,163.31566746541634L43.62002290861947,130.82395173471977L43.818928621837074,165.81526380545083L44.01783433505467,84.56877711417776L44.216740048272264,169.51019823714213L44.41564576148987,190.0927337576571L44.61455147470747,217.52195026220997L45.032253472464426,119.75296116039165L45.231159185682024,81.31920275795353L45.43006489889962,193.1847587448859L45.62897061211723,88.14196981019639L45.82787632533482,89.89114528345233L46.02678203855242,151.60366120786588L46.225687751770025,138.23440260641982L46.424593464987616,183.77439461417757L46.82240489142282,167.04210755328208L47.22021631785801,110.93527873435694L47.41912203107562,137.35945637169615L47.618027744293215,189.41323224945594L47.81693345751081,172.9872501791452L48.01583917072841,177.64051328499372L48.21474488394601,111.02829844612764L48.61255631038121,108.75426067265387L48.81146202359881,175.0542658464179L49.010367736816406,178.87104745439828L49.209273450034004,132.9571841090793L49.4081791632516,156.59254179565286L49.6070848764692,88.91383729834668L50.02478687422616,62.558575647873646L50.42259830066136,134.80140375394043L50.621504013878955,157.088323573873L50.82040972709655,187.63413272927127L51.21822115353176,213.60742520284506L51.417126866749356,155.50156882608925L51.616032579966955,195.99363350088706L51.814938293184554,104.94726395387359L52.01384400640215,122.84456438515492L52.21274971961975,176.53330246050754L52.41165543283735,175.5410219078759L52.61056114605495,158.79574456304235L52.80946685927255,156.1020742244983L53.008372572490146,169.00070917879256L53.207278285707744,119.19819590136838L53.60508971214295,141.24283427298232L53.80399542536055,101.08273883479622L54.00290113857814,223.49490812267422L54.201806851795745,55.546395072365236L54.40071256501334,125.32678411160994L54.79852399144854,198.68152569365347L55.0173202759879,89.10101548054497L55.2162259892055,139.68501243033333L55.415131702423096,195.4122550302894L55.614037415640695,139.4988464780523L56.01184884207589,188.9053037122288L56.21075455529349,161.43439598795916L56.40966026851109,144.67005497968407L56.608565981728695,216.17477768296553L56.80747169494629,57.011133938873705L57.006377408163885,150.38919618839768L57.20528312138149,135.58645131913826L57.80200026103429,212.19188492793964L58.000905974251886,129.5861210746617L58.19981168746948,54.925096784406L58.39871740068708,193.3694696166609L58.99543454033988,228.87596453902606L59.393245966775076,159.91025187818204L59.592151679992675,194.20664702259714L60.00985367774963,225.6969721314068L60.40766510418483,132.34259184432184L60.60657081740243,115.27525668081633L60.805476530620034,211.89776887260845L61.00438224383763,134.12483349487465L61.203287957055224,270.4283611402673L61.998910809925626,187.38569354895603L62.197816523143224,65.73533271442564L62.59562794957842,108.35050746441046L62.79453366279602,181.27157179128184L62.99343937601362,169.62586659331132L63.19234508923122,163.58502606402143L63.59015651566642,159.41556668237226L63.78906222888401,97.8786093842319L63.98796794210161,219.9502476574481L64.18687365531922,237.66441882620015L64.38577936853682,57.77924774108086L64.58468508175442,189.3015917248325L64.78359079497201,145.91389575487582L65.00238707951137,140.69960421739106L65.20129279272898,156.57837057681135L65.79800993238177,219.79166497041214L65.99691564559936,61.81492406866672L66.19582135881696,161.89683744327985L66.39472707203457,118.2164172341282L66.59363278525215,22.518471631128325L66.79253849846975,134.3454363524655L66.99144421168737,208.9687339901803L67.19034992490496,111.65885442020506L67.38925563812256,238.8091665101177L67.58816135134016,179.92699305120036L67.78706706455776,60.50332715338899L68.18487849099296,183.84303645544114L68.38378420421056,174.94515589658758L68.78159563064575,181.6429547302965L69.17940705708095,200.86201655227464L69.37831277029855,94.76395684072789L69.57721848351615,91.74439064507563L69.77612419673375,117.01873836078774L70.39273190770831,184.20608958576176L70.59163762092591,136.95787524015017L70.7905433341435,180.70147546663688L70.9894490473611,123.28342931865298L71.38726047379629,179.46634408635813L71.5861661870139,186.22818755045645L71.7850719002315,137.17499855740047L71.9839776134491,84.10848664743123L72.3817890398843,174.26270205112777L72.58069475310188,143.20978679531012L72.97850617953709,69.67666077847441L73.37631760597229,185.11405982153573L73.57522331918989,69.9713040368875L73.97303474562509,217.72808666723344L74.17194045884268,62.02846240496009L74.56975188527788,177.4560765588213L75.58417102268763,208.90977159750045L75.78307673590524,149.423191437368L75.98198244912284,242.56108105090092L76.37979387555804,205.8044189163612L76.57869958877563,70.96790765479075L76.77760530199323,242.3785000795768L76.97651101521083,156.7771261386882L77.17541672842843,255.14173873837714L77.37432244164603,109.27606519499666L77.57322815486363,174.25076617335353L77.77213386808124,63.992821088124934L77.97103958129884,201.08976828365607L78.96556814738683,206.30327956057963L79.16447386060443,122.09939446107212L79.36337957382202,82.05435582348021L79.56228528703961,188.00081301679538L79.76119100025721,160.06723186784902L79.97998728479658,156.81118345777904L80.17889299801418,216.0290376630047L80.97451585088457,184.0249636949437L81.17342156410217,145.4202227889833L81.37232727731977,259.1437057009062L81.57123299053737,88.20759604983148L81.77013870375497,185.51435457756187L82.16795013019018,164.38162992077454L82.36685584340776,168.09172671310134L82.56576155662536,32.10116790524861L82.76466726984296,110.5887165164382L82.96357298306056,87.53640326220109L83.16247869627817,104.97233773244882L83.56029012271335,144.2996420943401L83.75919583593095,142.91107352910475L83.95810154914855,145.56558322272517L84.15700726236616,125.73325768775597L84.35591297558376,152.61713532438998L84.75372440201896,178.45620189331166L84.97252068655833,146.4683025158034L85.37033211299351,140.27309692413277L85.7681435394287,143.6548938132979L85.9670492526463,29.991849462684133L86.16595496586392,226.0077267160028L86.36486067908152,128.07874202288903L86.5637663922991,207.42693912122112L86.7626721055167,203.49351910340087L87.16048353195191,63.53453399308963L87.35938924516951,193.08157455769614L87.55829495838711,161.37440027723878L87.95610638482229,153.82932282654437L88.15501209803989,163.9127144116081L88.3539178112575,210.81314342815094L88.9506349509103,202.39575575814237L89.14954066412788,73.24380118311281L89.3484463773455,155.0491442293247L89.5473520905631,209.34368082202863L89.7462578037807,211.88315480317814L89.96505408832004,64.83027263966376L90.36286551475526,141.22351755206145L90.56177122797286,244.89640091061491L90.76067694119044,159.56740116995988L90.95958265440804,94.75096655678983L91.35739408084325,143.4316971165441L91.55629979406085,97.03559056814818L91.95411122049605,159.06887793571386L92.15301693371363,147.3541513102608L92.35192264693123,171.6454128950896L92.55082836014884,96.63715156697033L92.74973407336644,226.4987847546091L92.94863978658404,174.55312768488565L93.14754549980164,167.55009935487905L93.34645121301922,162.56794587841713L93.54535692623683,237.59727424168918L93.74426263945443,212.8427487647319L94.53988549232484,107.94831477728947L94.73879120554243,144.23973073611282L94.95758749008179,194.56018940932026L95.35539891651698,142.80097243748045L95.55430462973459,192.20930651462854L96.15102176938738,148.12270796305674L96.34992748260497,113.20048058417804L96.74773890904018,132.28367162788854L96.94664462225778,159.82391710148985L97.14555033547538,202.51378598411847L97.74226747512817,22.658792003407218L97.94117318834577,147.70107202627523L98.14007890156337,212.99217920626606L98.33898461478097,112.64232013730732L98.53789032799857,200.54858377602258L98.73679604121618,138.1495861746035L98.93570175443377,136.88347634123224L99.13460746765136,237.58021394995885L99.33351318086896,125.12682652670635L99.53241889408656,116.37141732870585L99.73132460730416,244.5445244856306L99.95012089184353,56.19957860271787L100.14902660506112,139.68699471392128L100.34793231827872,202.03506449762867L100.94464945793152,186.70338732035916L101.14355517114912,106.12733424427854L101.34246088436672,194.49768421193002L101.54136659758431,113.10336977649179L101.74027231080193,66.46181856128585L101.93917802401951,157.3711574832515L102.33698945045471,193.2212201100302L102.53589516367231,250.78231754225723L102.7348008768899,166.31914342300897L102.93370659010752,182.3353832580659L103.5304237297603,115.7100516065221L103.7293294429779,68.96405091672985L103.92823515619551,184.7858864471137L104.12714086941311,145.41718609923154L104.32604658263071,205.27622469266575L104.5249522958483,156.34758215567817L104.72385800906589,35.97366433492433L104.94265429360526,230.53271076796304L105.14156000682286,138.52664181877944L105.34046572004046,235.2145482808506L105.73827714647565,141.83967033794133L105.93718285969327,137.23655478924329L106.13608857291085,146.63523609965668L106.73280571256365,170.3511504171448L106.93171142578126,166.88533844484786L107.13061713899886,158.16445050465026L107.32952285221646,112.51623424823977L107.52842856543404,152.40093988456383L107.72733427865164,161.6638136810794L107.92623999186924,205.22185951086007L108.12514570508685,56.514635164462184L108.52295713152205,224.3212251451233L108.92076855795723,233.95341524457248L109.11967427117484,104.41242697134619L109.93518769536699,214.62762643069422L110.1340934085846,217.74605374826464L110.3329991218022,136.0708665989126L110.53190483501979,80.14680854442106L110.73081054823739,87.02902301617912L110.92971626145498,181.59563298166503L111.92424482754298,177.97476003891924L112.12315054076058,154.0562732092413L112.32205625397819,168.07110252853735L112.52096196719579,168.2344511314337L112.71986768041339,139.7910013379188L112.91877339363099,74.36872603115087L113.11767910684857,196.63159140623438L113.51549053328378,187.4764357434129L113.71439624650138,46.37521243585396L113.91330195971898,181.66838700696744L114.11220767293658,158.54601900720726L114.51001909937177,172.58353914714834L114.70892481258937,72.85124576832898L114.92772109712872,160.9432957731063L115.52443823678153,138.34553701608465L115.72334394999913,252.04047715315343L115.92224966321672,146.5418578897903L116.12115537643432,57.92129733946839L116.32006108965193,201.7495523965941L116.51896680286953,196.3620430145198L116.71787251608713,152.81578544565045L117.11568394252232,78.61201493238953L117.31458965573991,130.07401589477658L117.51349536895752,192.6788968437398L117.71240108217512,232.31425651044773L117.91130679539272,165.57266603528305L118.11021250861032,211.88648672665576L118.70692964826311,159.5319731228561L118.90583536148071,215.50563044329292L119.30364678791591,234.38911695957913L119.50255250113351,76.85109337446882L119.70145821435112,202.34643063779967L120.11916021210807,127.98975014266405L120.31806592532566,217.62414330760575L120.51697163854327,127.21826224073273L121.11368877819606,208.5966973193441L121.31259449141366,144.62886987492593L121.51150020463125,230.35951401149677L121.71040591784886,121.83294602347912L121.90931163106646,198.2814418188601L122.10821734428406,175.79321477413427L122.30712305750166,118.4825071736255L122.50602877071925,191.81160559776535L123.10274591037205,190.63900050300012L123.30165162358965,107.28808781376263L123.50055733680725,131.23670957160206L123.69946305002486,175.05449781577394L123.89836876324246,180.3572329422785L125.3105993270874,-2.575003251245032L125.509505040305,153.94201775733163L125.9073164667402,144.78028260004803L126.1062221799578,143.29017472123846L126.3051278931754,209.21297663396362L126.504033606393,151.5776595518665L126.7029393196106,36.03009615281106L126.9018450328282,211.0342734888237L127.10075074604579,133.86561828356534L127.29965645926339,159.50955644781365L127.49856217248099,218.97918175683216L127.69746788569859,218.9631969593889L127.8963735989162,76.53192462868567L128.09527931213378,153.69908257719143L128.29418502535137,160.89101831550497L128.49309073856898,170.01249624545457L128.6919964517866,99.23029482185741L129.0898078782218,91.5341631441366L129.28871359143938,159.16075888882764L129.487619304657,241.86289546547718L129.90532130241394,61.161360952095116L130.30313272884914,212.38574804521645L130.50203844206675,165.93740621546576L130.70094415528433,151.44564790015838L130.89984986850195,217.84839441052335L131.09875558171953,134.29193578371414L131.49656700815473,157.38747969066716L131.69547272137234,80.4768165855681L131.89437843458992,133.0855896917072L132.09328414780754,110.45075801396622L132.29218986102512,140.74321445632594L132.49109557424273,31.31247209472402L132.69000128746032,169.34204154213884L133.08781271389552,69.27666125617414L133.28671842711313,124.63207806652674L133.4856241403307,190.10563968910205L133.68452985354833,176.6174651605023L133.8834355667659,187.8600287058044L134.08234127998352,85.17611506452825L134.2812469932011,204.9404174176178L134.48015270641872,189.27499960138138L134.89785470417567,169.47837625911856L135.09676041739328,220.1724743005312L135.29566613061087,138.45201095050547L135.89238327026368,176.35630984185158L136.68800612313407,189.81947385624593L136.88691183635166,38.03608279132285L137.08581754956927,145.64696229044748L137.48362897600447,101.56316845927138L137.68253468922205,182.444936058485L137.88144040243967,101.27061292506262L138.08034611565725,162.81176675973492L138.27925182887486,121.7765985580855L138.47815754209245,195.10223853000807L138.67706325531006,164.14936533101204L138.87596896852767,229.02668135608005L139.07487468174526,264.49376257604223L139.27378039496284,95.18787029482321L139.47268610818045,222.4894685811183L139.67159182139804,130.54649529677667L140.08929381915502,223.61721923767536L140.2881995323726,189.66983253347902L140.4871052455902,60.21049747357764L140.6860109588078,189.80793865281393L140.8849166720254,94.37707413110532L141.08382238524302,211.23735211597213L141.2827280984606,189.5644973577151L141.48163381167822,159.60519108687058L141.6805395248958,214.42490630164147L141.8794452381134,179.91587961023387L142.2772566645486,96.67679723872932L142.4761623777662,149.87753505335067L142.67506809098379,109.54110072833016L142.87397380420143,112.34978569122184L143.072879517419,180.49021464765733L143.2717852306366,172.31434925352946L143.4706909438542,162.02121519436204L143.6695966570718,130.37024076243537L143.8685023702894,250.96185127976796L144.067408083507,213.483363773612L144.26631379672457,174.77022991401267L144.4652195099422,120.53973795169811L144.88292150769914,135.52445223670665L145.08182722091675,165.05084042481698L145.28073293413433,209.6793826564602L145.47963864735195,55.06794773147802L145.67854436056953,83.94212244290641L146.27526150022234,203.79406703633126L146.87197863987515,220.72643821087L147.07088435309274,172.9510629596035L147.26979006631032,178.44837819957624L147.66760149274552,169.01614568503064L147.86650720596313,253.08418109439376L148.06541291918072,178.33642135310365L148.26431863239836,168.95068815038175L148.46322434561594,131.15490874141423L148.66213005883353,239.21728495987927L149.05994148526872,218.50722955791397L149.45775291170392,102.71504392885625L149.65665862492153,148.35644872144857L150.07436062267848,122.47524808222131L150.27326633589607,147.60769381640884L150.47217204911368,133.64929631499953L150.67107776233127,172.50089479202947L150.86998347554888,119.18503691244412L151.4667006152017,110.35999473138607L151.66560632841927,117.01985603132137L151.86451204163689,137.8265161260143L152.06341775485447,164.06163873818363L152.46122918128967,189.54315617695974L152.85904060772486,154.3318106279663L153.25685203416006,34.93979800319229L153.6546634605953,212.35299818976873L153.85356917381287,154.3467831954923L154.05247488703048,178.48251987116018L154.25138060024807,214.90253120572092L154.45028631346565,131.6003742574977L154.86798831122263,160.39300119621757L155.06689402444022,183.07669405558917L155.26579973765783,89.60257540454275L155.4647054508754,191.4549210806741L155.66361116409303,196.67115272550026L155.8625168773106,127.14382116556824L156.2603283037458,188.58219148739303L156.65813973018103,214.6978498812035L156.85704544339862,154.80724236722503L157.25485686983382,133.91441620082614L157.4537625830514,168.1576481864623L157.652668296269,162.4059047391639L157.8515740094866,40.97905692323646L158.2493854359218,236.02907704238837L158.44829114913938,271.6034968098257L158.64719686235702,166.28015148307153L158.8461025755746,126.87201634466312L159.04500828879222,221.36593554921646L159.2439140020098,221.120765028009L159.44281971522742,171.6215411395411L159.641725428445,148.8298560008728L159.86052171298437,151.80193174290739L160.25833313941956,89.10694124318555L160.45723885263715,137.45732635182034L160.85505027907234,167.82449801494712L161.05395599228996,146.17673812338862L161.25286170550754,217.6808281829718L161.45176741872513,107.6240637937968L161.65067313194277,162.35567282952033L161.84957884516035,180.40200302799357L162.24739027159555,178.96223249944396L162.44629598481316,64.98539687448245L162.84410741124833,182.3949150300742L163.04301312446594,121.10182078949818L163.24191883768353,220.5344941128113L163.44082455090114,140.93749933606827L163.63973026411873,78.75585702125552L163.83863597733637,90.88734822701333L164.03754169055395,189.10671637763843L164.23644740377154,228.05251550134253L164.43535311698915,148.59877234601376L164.63425883020673,108.7358296529106L164.8530551147461,148.42517491520525L165.0519608279637,240.5815600071006L165.2508665411813,169.38447084617027L165.4497722543989,179.2013296411479L165.6486779676165,170.33162281499116L165.84758368083408,180.42199456885928L166.24539510726927,217.3831904110535L166.4443008204869,19.865754427986378L166.64320653370447,141.31858281178992L166.84211224692206,141.85622451471303L167.0410179601397,103.02647333339708L167.4388293865749,224.54121644713913L167.63773509979248,182.61764778811593L167.8366408130101,126.95795044701306L168.23445223944526,37.05637076016372L168.43335795266287,114.36741297378201L168.63226366588046,18.55327181153105L168.83116937909807,87.86719156390934L169.03007509231566,138.93743846019706L170.04449422972544,201.9386706861338L170.24339994294303,159.83361763819684L170.44230565616064,130.38388477819498L170.84011708259584,190.88296900118084L171.03902279581342,93.39274380094874L171.237928509031,142.45048782863236L171.43683422224862,171.63271784487742L171.6357399354662,153.15268930310876L172.0335513619014,166.23479092990473L172.23245707511904,244.28805073034718L172.6302685015542,177.81406853955568L172.82917421477183,139.6880280319618L173.0280799279894,190.91088967639834L173.22698564120702,111.71823857535044L173.4258913544246,168.6695834671119L173.62479706764222,203.56420649262222L173.8237027808598,141.44829585806096L174.0226084940774,242.44054133825497L174.22151420729503,182.68137609665618L174.42041992051261,173.183327549366L174.83812191826956,206.7082137037265L175.03702763148715,151.82299877806017L175.2359333447048,260.3879260623169L175.63374477113996,181.0725420838024L175.83265048435757,175.56801470566924L176.03155619757516,227.5768096164812L176.23046191079277,92.35413264147958L176.42936762401035,153.1283536088482L177.02608476366314,185.1213984884358L177.22499047688075,202.3348743462444L177.42389619009836,117.1804842663151L177.62280190331597,152.72181676833233L177.82170761653356,121.8140299769005L178.02061332975114,140.2840838363596L178.41842475618634,135.39227188001232L178.61733046940395,167.19919298356544L178.81623618262154,199.81956735436924L179.01514189583915,141.36179237638257L179.21404760905673,194.4674860193987L179.41295332227432,162.549219624948L179.61185903549196,194.93876339837206L180.62627817290172,202.91519841067824L180.8251838861193,137.5371659865435L181.0240895993369,109.12486335110732L181.2229953125545,213.86771590844145L181.4219010257721,92.09436913896509L181.6208067389897,171.4030260061546L181.81971245220728,33.96367095299009L182.0186181654249,194.93496753618237L182.6153353050777,180.91060638516555L182.8142410182953,144.31353916757902L183.2120524447305,139.51854278519212L183.4109581579481,183.5402531814435L183.6098638711657,93.52262555220598L183.80876958438327,162.29671043684047L184.00767529760088,186.73582085395773L184.20658101081847,140.32685055036345L184.40548672403608,152.94594134251028L184.60439243725367,197.42988231284957L184.82318872179303,137.8045001253141L185.02209443501064,100.42921789447117L185.22100014822823,129.25267566942065L185.4199058614458,75.90512234055139L185.61881157466345,101.61226161025805L185.81771728788104,197.05632729713747L186.21552871431624,211.05860918308426L186.41443442753385,93.47330043186328L186.61334014075143,204.4590388275952L186.81224585396902,148.2552257297235L187.01115156718663,95.69873008118573L187.21005728040421,177.4180335844313L187.6078687068394,149.45632087903468L187.806774420057,89.17077499234217L188.20458584649222,120.27293101600942L188.40349155970983,147.31066760006556L188.80130298614503,151.30844857012434L189.1991144125802,175.2691116463544L189.81572212355476,180.28158984408728L190.01462783677238,135.96458245760127L190.61134497642516,60.63744761742472L190.81025068964274,127.94128963537567L191.00915640286038,141.2861914544379L191.20806211607797,105.51563105240992L191.40696782929558,96.5926978031044L191.80477925573078,116.56078867572485L192.00368496894836,182.9678793394847L192.99821353503637,246.05453955281277L193.39602496147157,136.97938512589175L193.59493067468915,100.05157178284351L193.79383638790677,173.25367752861493L193.99274210112435,103.14414506127748L194.19164781434196,84.68132442810209L194.39055352755955,122.72615457295986L194.58945924077713,109.51760855900064L195.0071612385341,172.37708642027573L195.2060669517517,141.0168328558328L195.4049726649693,184.13696271766284L196.0016898046221,198.04746909111222L196.20059551783973,148.5782957783127L196.39950123105731,106.86033632123106L196.5984069442749,119.36865120180876L196.7973126574925,121.24490370592623L196.9962183707101,110.36389603419214L197.1951240839277,207.0229328554984L197.3940297971453,120.43060691374451L197.59293551036288,156.7140515619695L197.7918412235805,133.98965862467512L198.18965265001572,218.55058673936955L198.3885583632333,211.2508485148688L198.7863697896685,152.0179795658706L199.1841812161037,135.92213206544656L199.38308692932128,210.3302254051292L200.19860035351346,195.65727793463392L200.59641177994862,80.70376696826504L200.79531749316624,175.30711244449785L200.99422320638382,157.93269202984638L201.19312891960146,186.545859039487L201.39203463281905,200.64356468325795L201.78984605925424,170.6912174930945L201.98875177247183,119.8948209656697L202.38656319890703,161.786082619834L202.58546891212464,176.6171066624066L202.98328033855984,202.73297593744982L203.18218605177742,170.32643513666525L203.381091764995,151.70789980121944L203.57999747821265,172.18925450625588L203.77890319143023,48.8903507227429L203.97780890464784,116.98586197660036L204.17671461786543,194.24644031121906L204.375620331083,297.6422362739867L204.57452604430063,95.28734297231638L204.99222804205758,200.73188174353808L205.1911337552752,161.87568605563396L205.39003946849277,135.73727357680863L205.5889451817104,191.80013365870317L205.78785089492797,248.40196399528722L205.98675660814558,171.7427556721319L206.18566232136317,258.6350390793644L207.18019088745118,206.60176085742896L207.57800231388637,157.13644667118896L207.77690802710396,153.46074460792542L207.97581374032157,78.85419094009178L208.17471945353915,202.36399704448863L208.37362516675677,112.49217269958179L208.57253087997435,151.7956685702944L208.77143659319196,229.83159393340392L208.97034230640958,198.25546125098398L209.16924801962716,106.71898263091164L209.36815373284477,222.4647111243922L209.56705944606236,146.00246587263527L209.78585573060172,195.84272689072358L210.18366715703692,60.08502314008509L210.58147858347212,144.00516754091322L210.7803842966897,185.43394556351026L210.97929000990732,98.53896287649839L211.1781957231249,163.85402616453084L211.5760071495601,143.60816253211814L211.7749128627777,218.37133769152305L212.1727242892129,225.76129090739877L212.37163000243052,142.11870838513013L212.5705357156481,195.5791675260194L212.76944142886572,179.37536992254522L213.1672528553009,161.02781697119676L213.3661585685185,206.75142326831914L213.9628757081713,267.8780689518772L214.1617814213889,175.39097991076673L214.77838913236343,229.15765968974765L215.17620055879866,234.5073369786647L215.37510627201627,167.96551429529413L215.57401198523385,195.83456578701575L215.77291769845147,210.86799363679197L215.97182341166905,136.80943594041L216.17072912488663,156.06166938030137L216.36963483810425,143.0124230495695L216.96635197775706,218.814167192197L217.36416340419225,180.43945553493185L217.56306911740984,168.01382718571958L217.76197483062745,173.2877137595825L218.15978625706265,163.3374514967605L218.35869197028023,187.5372960671876L218.55759768349782,212.9301379475879L218.75650339671543,143.58937301427918L218.95540910993302,161.1390146452314L219.35322053636824,41.599891272483625L219.55212624958585,69.67117786642264L219.7709225341252,151.52285151947203L219.9698282473428,225.50528109082742L220.1687339605604,157.49405906570436L220.367639673778,85.15812689537377L220.56654538699559,137.92282558501606L220.7654511002132,247.40116384085204L220.96435681343078,149.44718972165614L221.1632625266484,211.75593015545368L221.56107395308356,211.40715368459095L221.95888537951876,170.4651106353286L222.356696805954,127.30156032767316L222.5556025191716,155.1291314809108L222.75450823238918,161.58338357890452L222.95341394560677,7.284284847764032L223.15231965882438,104.92824246667858L223.74903679847716,145.3028041185822L224.14684822491236,161.90571554317907L224.34575393812995,144.44966300332598L224.76345593588692,127.36762941789705L224.9623616491045,189.6613972841686L225.16126736232215,206.01437227169762L225.36017307553973,153.22873307564223L225.55907878875735,165.91452560171123L225.95689021519252,183.62705189684775L226.7525130680629,104.22143183883493L226.9514187812805,165.4619955643303L227.1503244944981,178.347218472221L227.3492302077157,61.294047423748076L227.54813592093333,165.03306313689527L228.3437587738037,161.32984107275647L228.5426644870213,95.86661263058643L228.7415702002389,148.87057716691888L228.9404759134565,121.29897365400605L229.3382873398917,140.06337553815237L229.53719305310932,142.3122551805578L229.75598933764866,107.10951358586097L230.15380076408385,163.88072372859833L230.35270647730144,63.732424941912164L230.55161219051908,85.46706790136803L230.94942361695428,97.23394545568279L231.34723504338945,178.99934759640982L231.54614075660706,143.91841100175552L231.74504646982464,229.56407000152385L232.14285789625984,93.8909718014689L232.34176360947745,140.00772398082685L232.54066932269504,102.26394788385808L232.73957503591265,173.10612393005235L232.93848074913026,202.1771140960162L233.13738646234785,136.19906130030776L233.33629217556546,141.83226840667143L233.53519788878305,106.29949768270428L233.73410360200063,154.30492327078932L233.93300931521824,194.44213809522088L234.13191502843583,132.2398294195976L234.33082074165344,245.5544768855676L234.52972645487102,173.05530155295705L234.947428452628,149.73620245115453L235.1463341658456,130.78706860710994L235.3452398790632,121.79249900303564L235.7430513054984,210.55274728193817L235.941957018716,174.99981631211912L236.1408627319336,26.99033470055618L236.3397684451512,174.1816393052546L236.73757987158638,238.16633724829362L236.936485584804,150.41076933850908L237.13539129802157,164.95237997724107L237.3342970112392,65.90922537896002L237.931014150892,193.12128349382496L238.12991986410958,183.68297759977585L238.3288255773272,81.13485038427423L238.52773129054478,153.9865136974441L239.32335414341517,201.1366893579453L239.74105614117212,126.1086262820698L239.93996185438974,140.54962548465173L240.13886756760732,168.65136332860138L240.33777328082493,187.11684106530956L240.53667899404252,114.88575904390753L240.73558470726013,181.28222129353625L240.93449042047774,82.8342367984754L241.13339613369533,85.71637169473759L241.33230184691294,263.1062484169707L241.53120756013053,201.33432724928852L241.73011327334814,162.81467692074702L241.92901898656572,104.77322367247628L242.12792469978334,219.79790705490186L242.32683041300092,130.72180086557054L242.5257361262185,125.40333399910203L242.9235475526537,177.2645120469816L243.12245326587134,188.79254551707172L243.32135897908893,69.74776993016128L243.52026469230654,162.11678656904914L243.71917040552412,156.06791146479108L243.9180761187417,108.40774063098168L244.11698183195932,154.64568625480715L244.73358954293388,109.54759587029919L244.93249525615147,146.69911202505986L245.33030668258667,246.53475829605517L245.52921239580425,73.17197503523455L245.72811810902186,176.51596802317462L245.92702382223945,-13.953648456047556L246.1259295354571,204.0131726371695L246.32483524867467,120.87404796999347L246.52374096189226,180.74278710013468L246.72264667510987,171.62554788296356L246.92155238832746,196.81691383358438L247.12045810154507,277.81671165877407L247.51826952798027,162.38848594933788L247.71717524119785,178.9131393484573L248.11498666763305,193.24850814154942L248.31389238085066,132.4003311258517L248.71170380728586,166.65094395463447L248.91060952050347,210.59079025632818L249.10951523372105,149.5642920702081L249.30842094693864,122.79216039881392L249.50732666015625,255.1319960254236L249.72612294469562,252.51562420274794L249.9250286579132,86.93007754176786L250.12393437113082,244.24212079785192L250.3228400843484,202.97673355439778L250.7206515107836,83.73398266617171L250.91955722400118,50.47162255847487L251.1184629372188,171.54378922902228L251.51627436365402,172.7430075353619L251.7151800768716,64.89724851918852L251.91408579008922,202.1094633965466L252.1129915033068,172.4484486294419L252.3118972165244,88.24690431161805L252.510802929742,179.063223521813L252.70970864295958,204.7054113718294L252.9086143561772,151.84792493977247L253.10752006939478,154.9266222330908L253.3064257826124,133.1628565753907L254.1020486354828,149.83780502909858L254.3009543487004,157.35399175090478L254.49986006191799,156.45137789844293L254.91756205967496,266.78758100914894L255.11646777289255,41.44978601100464L255.31537348611013,177.7709855037027L255.51427919932775,172.68035472110873L255.71318491254533,203.92453925504023L255.91209062576294,117.80300566542435L256.11099633898056,91.78047242400096L256.5088077654157,204.4000342586688L256.7077134786333,133.95827949724034L256.90661919185095,162.3889920642965L257.3044306182861,221.39387731255724L257.70224204472134,188.1675357194159L257.90114775793893,148.3116786357335L258.29895918437416,167.99238056434783L258.49786489759174,159.00628838583052L258.6967706108093,72.05445211846639L258.8956763240269,65.4179142828744L259.0945820372445,137.22575767012594L259.29348775046213,144.56691296874087L259.9100954614367,161.11826393192777L260.1090011746543,145.23483709726347L260.70571831430703,167.22523681581137L260.9046240275247,133.47135473079615L261.10352974074226,118.23278161779042L261.5013411671775,142.57161800873004L261.70024688039507,166.03042592723645L261.89915259361265,124.70761572410159L262.2969640200479,150.7789468827858L262.49586973326547,97.56751738966348L262.69477544648305,164.95830573988164L263.0925868729183,137.57065392630588L263.29149258613586,214.04405479527585L263.49039829935344,122.74880321735834L263.6893040125711,184.77386621684636L263.88820972578867,100.04980038048832L264.08711543900625,215.16505725238457L264.28602115222384,169.61736807963106L264.7037231499808,145.45797052964744L265.3004402896336,203.6932658070717L265.4993460028512,71.37113365995226L266.096063142504,169.1302324319541L266.2949688557216,201.16545355809384L266.4938745689392,81.34031196935287L266.69278028215683,201.1392410208617L267.2894974218096,227.59994328771504L267.48840313502717,103.48438084221341L267.6873088482448,238.94801071376727L267.8862145614624,208.010932519105L268.08512027468004,99.40070794605124L268.2840259878976,185.60861848860586L268.4829317011152,202.469901599581L268.6818374143328,166.11739334762692L268.8807431275504,163.5545748140108L269.079648840768,208.66110044782917L269.2785545539856,249.4012352607849L269.4774602672032,128.5583702986797" fill="none"></path></g></g></g></g></g></g><g transform="translate(51, 176)" clip-path="url(#clip_1)"><clipPath id="clip_1"><rect width="278" height="23"></rect></clipPath><g><g><line x1="0" y1="0" x2="0" y2="5" style="visibility: inherit;" fill="rgb(0, 0, 0)" stroke="rgb(204, 204, 204)" stroke-width="1px"></line><line x1="19.890571321759904" y1="0" x2="19.890571321759904" y2="5" style="visibility: inherit;" fill="rgb(0, 0, 0)" stroke="rgb(204, 204, 204)" stroke-width="1px"></line><line x1="39.78114264351981" y1="0" x2="39.78114264351981" y2="5" style="visibility: inherit;" fill="rgb(0, 0, 0)" stroke="rgb(204, 204, 204)" stroke-width="1px"></line><line x1="59.671713965279714" y1="0" x2="59.671713965279714" y2="5" style="visibility: inherit;" fill="rgb(0, 0, 0)" stroke="rgb(204, 204, 204)" stroke-width="1px"></line><line x1="79.56228528703961" y1="0" x2="79.56228528703961" y2="5" style="visibility: inherit;" fill="rgb(0, 0, 0)" stroke="rgb(204, 204, 204)" stroke-width="1px"></line><line x1="99.45285660879952" y1="0" x2="99.45285660879952" y2="5" style="visibility: inherit;" fill="rgb(0, 0, 0)" stroke="rgb(204, 204, 204)" stroke-width="1px"></line><line x1="119.34342793055943" y1="0" x2="119.34342793055943" y2="5" style="visibility: inherit;" fill="rgb(0, 0, 0)" stroke="rgb(204, 204, 204)" stroke-width="1px"></line><line x1="139.23399925231934" y1="0" x2="139.23399925231934" y2="5" style="visibility: inherit;" fill="rgb(0, 0, 0)" stroke="rgb(204, 204, 204)" stroke-width="1px"></line><line x1="159.12457057407923" y1="0" x2="159.12457057407923" y2="5" style="visibility: inherit;" fill="rgb(0, 0, 0)" stroke="rgb(204, 204, 204)" stroke-width="1px"></line><line x1="179.01514189583915" y1="0" x2="179.01514189583915" y2="5" style="visibility: inherit;" fill="rgb(0, 0, 0)" stroke="rgb(204, 204, 204)" stroke-width="1px"></line><line x1="198.90571321759904" y1="0" x2="198.90571321759904" y2="5" style="visibility: inherit;" fill="rgb(0, 0, 0)" stroke="rgb(204, 204, 204)" stroke-width="1px"></line><line x1="218.79628453935896" y1="0" x2="218.79628453935896" y2="5" style="visibility: inherit;" fill="rgb(0, 0, 0)" stroke="rgb(204, 204, 204)" stroke-width="1px"></line><line x1="238.68685586111886" y1="0" x2="238.68685586111886" y2="5" style="visibility: inherit;" fill="rgb(0, 0, 0)" stroke="rgb(204, 204, 204)" stroke-width="1px"></line><line x1="258.57742718287875" y1="0" x2="258.57742718287875" y2="5" style="visibility: inherit;" fill="rgb(0, 0, 0)" stroke="rgb(204, 204, 204)" stroke-width="1px"></line><line x1="278.4679985046387" y1="0" x2="278.4679985046387" y2="5" style="visibility: inherit;" fill="rgb(0, 0, 0)" stroke="rgb(204, 204, 204)" stroke-width="1px"></line></g><g transform="translate(0, 8)"><text style="text-anchor: middle; visibility: hidden; font-family: Roboto, sans-serif; font-size: 12px; font-weight: 200;" x="0" y="0" dx="0em" dy="0.95em" fill="rgb(255, 255, 255)" stroke="none" stroke-width="1px">-1k</text><text style="text-anchor: middle; visibility: inherit; font-family: Roboto, sans-serif; font-size: 12px; font-weight: 200;" x="19.890571321759904" y="0" dx="0em" dy="0.95em" fill="rgb(255, 255, 255)" stroke="none" stroke-width="1px">0</text><text style="text-anchor: middle; visibility: hidden; font-family: Roboto, sans-serif; font-size: 12px; font-weight: 200;" x="39.78114264351981" y="0" dx="0em" dy="0.95em" fill="rgb(255, 255, 255)" stroke="none" stroke-width="1px">1k</text><text style="text-anchor: middle; visibility: inherit; font-family: Roboto, sans-serif; font-size: 12px; font-weight: 200;" x="59.671713965279714" y="0" dx="0em" dy="0.95em" fill="rgb(255, 255, 255)" stroke="none" stroke-width="1px">2k</text><text style="text-anchor: middle; visibility: hidden; font-family: Roboto, sans-serif; font-size: 12px; font-weight: 200;" x="79.56228528703961" y="0" dx="0em" dy="0.95em" fill="rgb(255, 255, 255)" stroke="none" stroke-width="1px">3k</text><text style="text-anchor: middle; visibility: inherit; font-family: Roboto, sans-serif; font-size: 12px; font-weight: 200;" x="99.45285660879952" y="0" dx="0em" dy="0.95em" fill="rgb(255, 255, 255)" stroke="none" stroke-width="1px">4k</text><text style="text-anchor: middle; visibility: hidden; font-family: Roboto, sans-serif; font-size: 12px; font-weight: 200;" x="119.34342793055943" y="0" dx="0em" dy="0.95em" fill="rgb(255, 255, 255)" stroke="none" stroke-width="1px">5k</text><text style="text-anchor: middle; visibility: inherit; font-family: Roboto, sans-serif; font-size: 12px; font-weight: 200;" x="139.23399925231934" y="0" dx="0em" dy="0.95em" fill="rgb(255, 255, 255)" stroke="none" stroke-width="1px">6k</text><text style="text-anchor: middle; visibility: hidden; font-family: Roboto, sans-serif; font-size: 12px; font-weight: 200;" x="159.12457057407923" y="0" dx="0em" dy="0.95em" fill="rgb(255, 255, 255)" stroke="none" stroke-width="1px">7k</text><text style="text-anchor: middle; visibility: inherit; font-family: Roboto, sans-serif; font-size: 12px; font-weight: 200;" x="179.01514189583915" y="0" dx="0em" dy="0.95em" fill="rgb(255, 255, 255)" stroke="none" stroke-width="1px">8k</text><text style="text-anchor: middle; visibility: hidden; font-family: Roboto, sans-serif; font-size: 12px; font-weight: 200;" x="198.90571321759904" y="0" dx="0em" dy="0.95em" fill="rgb(255, 255, 255)" stroke="none" stroke-width="1px">9k</text><text style="text-anchor: middle; visibility: inherit; font-family: Roboto, sans-serif; font-size: 12px; font-weight: 200;" x="218.79628453935896" y="0" dx="0em" dy="0.95em" fill="rgb(255, 255, 255)" stroke="none" stroke-width="1px">10k</text><text style="text-anchor: middle; visibility: hidden; font-family: Roboto, sans-serif; font-size: 12px; font-weight: 200;" x="238.68685586111886" y="0" dx="0em" dy="0.95em" fill="rgb(255, 255, 255)" stroke="none" stroke-width="1px">11k</text><text style="text-anchor: middle; visibility: inherit; font-family: Roboto, sans-serif; font-size: 12px; font-weight: 200;" x="258.57742718287875" y="0" dx="0em" dy="0.95em" fill="rgb(255, 255, 255)" stroke="none" stroke-width="1px">12k</text><text style="text-anchor: middle; visibility: hidden; font-family: Roboto, sans-serif; font-size: 12px; font-weight: 200;" x="278.4679985046387" y="0" dx="0em" dy="0.95em" fill="rgb(255, 255, 255)" stroke="none" stroke-width="1px">13k</text></g><line x1="0" y1="0" x2="278.4679985046387" y2="0" fill="rgb(0, 0, 0)" stroke="rgb(204, 204, 204)" stroke-width="1px"></line></g></g></g></g></svg>